<?xml version="1.0" encoding="utf-8" ?>
<svg baseProfile="full" height="300mm" version="1.1" viewBox="0,0,200,300" width="200mm" xmlns="http://www.w3.org/2000/svg" xmlns:ev="http://www.w3.org/2001/xml-events" xmlns:xlink="http://www.w3.org/1999/xlink"><defs /><rect fill="#222222" height="300" width="200" x="0" y="0" /><text fill="#FFFFFF" style="font-size:12px; font-family:Arial; font-weight:bold;" x="10" y="20">Over 3km Runs</text><text fill="#FFFFFF" style="font-size:4px; font-family:Arial" x="10" y="280">ATHLETE</text><text fill="#FFFFFF" style="font-size:9px; font-family:Arial" x="10" y="290">jdzj</text><text fill="#FFFFFF" style="font-size:4px; font-family:Arial" x="120" y="280">STATISTICS</text><text fill="#FFFFFF" style="font-size:3px; font-family:Arial" x="120" y="285">Number: 15</text><text fill="#FFFFFF" style="font-size:3px; font-family:Arial" x="120" y="290">Weekly: 2.5</text><text fill="#FFFFFF" style="font-size:3px; font-family:Arial" x="141" y="285">Total: 26.7 km</text><text fill="#FFFFFF" style="font-size:3px; font-family:Arial" x="141" y="290">Avg: 1.8 km</text><text fill="#FFFFFF" style="font-size:3px; font-family:Arial" x="167" y="285">Min: 1.0 km</text><text fill="#FFFFFF" style="font-size:3px; font-family:Arial" x="167" y="290">Max: 3.7 km</text><polyline fill="none" points="16.965853658737615,51.26253055187408 30.663414634298533,56.8527382198954 35.480139372870326,56.50695373036433 39.69477351917885,57.42904524796177 45.76585365855135,56.21879983274266 48.174216027604416,56.50695373036433 55.5999999998603,53.85593251202954 49.02717770030722,56.50695373036433 40.547735191648826,57.19852250494296 36.08222996513359,56.27643062360585 31.114982578437775,56.679846000741236 20.42787456442602,54.08645657362649 12.399999999906868,50.570954751980025" stroke="#4dd2ff" stroke-linecap="round" stroke-linejoin="round" stroke-width="0.5"><title>2021-03-26 1.6km</title></polyline><polyline fill="none" points="121.59999999962747,57.83319299988216 118.29949066182598,57.41196478653001 113.38539898069575,54.29486955009634 109.2047538193874,54.37911551707657 103.19049235945567,52.02022530674003 88.52156196907163,52.44145617930917 90.72190152760595,53.53665547538549 89.84176570409909,53.78939357493073 78.39999999990687,50.16680700011784 87.6414261450991,53.70514754997566 100.77011884516105,54.5476074256585 111.99185059405863,57.243473442911636" stroke="#4dd2ff" stroke-linecap="round" stroke-linejoin="round" stroke-width="0.5"><title>2021-03-24 1.1km</title></polyline><polyline fill="none" points="187.5999999998603,57.168724161572754 184.48913043481298,56.96646608010633 181.43695652182214,54.67420364217833 176.56521739135496,53.86516800511163 172.5739130435977,52.04483432113193 160.36521739140153,52.314513691177126 161.42173913074657,53.46064982749522 151.8543478262145,50.831275838427246 144.39999999990687,51.775154844508506 147.33478260878474,52.17967401939677 152.08913043467328,50.89869581075618 160.89347826107405,53.59548924682895 176.91739130439237,54.26968594331993" stroke="#4dd2ff" stroke-linecap="round" stroke-linejoin="round" stroke-width="0.5"><title>2021-03-23 1.3km</title></polyline><polyline fill="none" points="54.73829787224531,104.14452527527465 40.204255319200456,99.06366897356929 34.2872340423055,100.05344920122297 28.427659574430436,99.39359587873332 30.03617021255195,100.44936088251416 29.40425531915389,100.64731663535349 20.155319148674607,97.87593076698249 12.399999999906868,98.99768357281573 19.580851063830778,98.00790178298485 28.25531914876774,100.51534613984404 39.74468085099943,101.3071687212796 55.60000000009313,106.12406923301751 53.0148936167825,104.87035873980494 55.60000000009313,104.14452527527465" stroke="#4dd2ff" stroke-linecap="round" stroke-linejoin="round" stroke-width="0.5"><title>2021-03-22 1.6km</title></polyline><polyline fill="none" points="115.18775822478347,80.6671405841189 115.78270849271212,81.08433932132903 115.45218056614976,82.4117868503381 118.45998469786718,82.86691066689673 119.253251721384,83.51166848887806 118.98882938025054,84.68740056929528 120.17872991564218,85.48386220287648 121.59999999997672,87.94909018097678 120.74062739079818,90.2246712698252 119.48462127009407,90.75563826109283 119.02188217290677,92.12097860084032 112.90711553173605,97.43058959103655 106.16434583009686,100.04744243866298 104.04896709998138,101.41274992912076 102.4293802601751,102.77805259288289 97.70283091044985,109.30109870541492 78.40000000002328,123.3328594158811" stroke="#4dd2ff" stroke-linecap="round" stroke-linejoin="round" stroke-width="0.5"><title>2021-03-21 1.3km</title></polyline><polyline fill="none" points="163.9828944930341,98.24690476083197 163.43455513194203,94.74051498467452 159.67451379843988,90.06528678792529 158.14699700684287,89.61574309601565 152.9769401731901,94.33592981862603 147.84605043684132,100.85420280473772 146.55353622860275,101.2138289543509 145.14352072845213,105.03483932709787 147.53271365910769,108.45124509424204 153.21194275654852,111.14838951232377 159.36117702070624,116.13806474840385 159.00867314566858,116.40777537244139 159.8311821874231,116.31787184876157 159.0870073402766,115.9133057736617 160.02701767347753,117.48661627745605 162.10287382639945,119.95895041903714 169.9754603682086,123.60000000000582 174.04883847944438,123.19544036692241 183.6447772991378,116.49767887836788 184.9372915076092,113.80056601078832 186.8564792717807,105.16969793345197 184.9372915076092,101.84317403571913 177.76971271587536,95.23500747914659 170.0146274655126,85.47992039000383 164.25706417346373,80.39999999999418 157.7944931318052,89.39097108421265 158.9695060485974,89.52583430457162 160.5753570345696,91.00932710271445 163.70872481237166,95.01023822976276 163.66955771530047,96.26894460321637" stroke="#4dd2ff" stroke-linecap="round" stroke-linejoin="round" stroke-width="0.5"><title>2021-03-20 3.7km</title></polyline><polyline fill="none" points="51.343842364382,160.8776336038136 36.58916256111115,156.15181902679615 20.983251231722534,155.6629401136306 12.612807881552726,153.87038162373938 12.399999999906868,150.93709570448846 13.60591132985428,149.63340973015875 12.470935960765928,147.43343498330796 12.754679802805185,143.6038353361655 17.223645320162177,139.12236639624462 24.60098522156477,140.018662129296 32.12019704421982,142.54458123544464 46.30738916248083,142.21865662373602 53.89753694552928,140.9964381834725 54.819704432971776,139.93718073912896 53.471921182237566,143.033467912348 52.62068965472281,153.54446148057468 53.330049260985106,158.9221274026204 55.60000000009313,159.3295249096118" stroke="#4dd2ff" stroke-linecap="round" stroke-linejoin="round" stroke-width="0.5"><title>2021-03-19 1.6km</title></polyline><polyline fill="none" points="95.90719257551245,149.55869357756455 105.2955916475039,153.5881868294382 108.93735498865135,153.35793119622394 112.1113689095946,154.0486976870161 115.45243619498797,153.31955524420482 117.22320185613353,153.47305902990047 121.59999999997672,152.16827492110315 113.48120649671182,154.01032180295442 109.30487238999922,153.35793119622394 104.62737819040194,153.54981090006186 85.95081206504256,147.6014960843895 78.40000000002328,146.79558837265358 80.03712296986487,147.02584788910463 78.93457076570485,146.565328719822 79.26867749425583,146.37344557174947 81.80788863101043,146.5269520978327 85.18236658943351,145.9513023129839 86.31832946639042,146.79558837265358 86.98654292349238,146.37344557174947 87.78839907201473,147.14097759634024 88.49002320191357,146.91071814802126 89.39211136905942,147.67824911276693 90.52807424601633,147.25610726937884 92.86682134575676,148.94467189439456 93.33457076561172,148.36902568649384 92.13178654306103,146.565328719822 91.66403712308966,146.6037053381151 91.83109048730694,147.90850810686243 94.00278422271367,148.9830482780235 94.90487238997594,146.8339649682457 95.4060324827442,147.87013161735376 96.07424593972974,147.75500212583574 95.37262180983089,147.946884592704 95.77354988420848,147.83175512391608 94.80464037135243,146.4885754720599 96.24129930406343,146.37344557174947" stroke="#4dd2ff" stroke-linecap="round" stroke-linejoin="round" stroke-width="0.5"><title>2021-03-19 3.1km</title></polyline><polyline fill="none" points="162.5789753944846,171.60000000000582 162.3363495359663,170.84754040191183 161.87536040472332,170.76393365624244 161.19600800075568,171.40491807440412 162.0209359198343,166.69504213228356 161.7055223037023,167.83768197047175 161.8510978188133,169.92786483844975 161.39010868757032,170.29016162990592 158.7697494153399,170.23442369219265 158.4543357990915,168.56228044902673 158.67269907181617,167.08521235274384 165.0294965658104,165.6638753846928 169.29971167631447,165.3851810232154 169.1541361612035,138.43413744377904 170.58562872663606,136.59457226551604 173.54566420102492,133.9745648126409 173.01188731216826,132.63667929236544 169.3967620197218,128.39999999999418" stroke="#4dd2ff" stroke-linecap="round" stroke-linejoin="round" stroke-width="0.5"><title>2021-03-18 2.7km</title></polyline><polyline fill="none" points="27.051324983127415,216.03521733227535 28.260782375349663,216.24491175403818 28.443341981736012,217.26716969074914 28.899740997585468,217.52928647698718 31.364295683335513,218.0273076586891 34.55908879463095,217.73897971978295 36.77262402162887,218.36805845570052 38.826419593184255,219.60000000000582 39.35127846128307,217.94867279723985 39.05461910110898,210.95007694582455 40.948675016989,210.76659068002482 38.23310087248683,210.0064319432422 35.60880653106142,209.8753698723158 34.44498904061038,208.6171707023459 32.14017401030287,184.78889908554265 34.65036859770771,181.85281454000506 36.43032475968357,180.83042033974198 35.15240751521196,178.54968063603155 32.961692238925025,176.39999999999418" stroke="#4dd2ff" stroke-linecap="round" stroke-linejoin="round" stroke-width="0.5"><title>2021-03-17 2.8km</title></polyline><polyline fill="none" points="79.85531914886087,195.66863893292611 80.39148936187848,195.66863893292611 83.07234042556956,196.81234774994664 83.83829787233844,197.78010021912633 91.80425531882793,199.97953374456847 100.22978723421693,201.12323703494621 103.06382978707552,200.9472827782738 105.05531914904714,201.38716835546074 106.05106383003294,201.7390766608878 110.03404255304486,202.35491586168064 113.3276595743373,203.67456986074103 114.39999999990687,203.938500426244 116.23829787271097,204.90624516509706 117.77021276624873,205.87398885394214 118.38297872338444,206.0499421391869 119.07234042556956,206.4018486055429 120.75744680827484,206.84173149324488 121.60000000009313,206.75375493313186 121.52340425550938,206.75375493313186 121.52340425550938,206.75375493313186 121.29361702175811,206.84173149324488 121.44680851092562,206.75375493313186 121.52340425550938,206.75375493313186 121.60000000009313,206.84173149324488 121.14042553165928,206.75375493313186 120.14468085113913,206.75375493313186 116.77446808479726,206.84173149324488 114.47659574495628,206.13791876891628 112.25531914876774,205.69803553412203 110.03404255304486,205.52208217961015 107.81276595732197,205.61005886102794 106.66382978763431,205.69803553412203 104.44255319144577,205.87398885394214 103.44680851045996,205.87398885394214 100.0,205.61005886102794 98.92765957443044,205.34612878994085 96.85957446787506,204.8182684138883 95.78723404277116,204.29040772549342 93.71914893621579,203.58659298793646 92.64680851064622,203.2346854112111 88.28085106378421,202.35491586168064 85.44680851092562,201.21121415047674 85.21702127670869,200.68335132760694 86.13617021264508,200.50739698391408 86.51914893602952,200.50739698391408 86.82553191483021,200.15548819262767 86.51914893602952,200.06751097290544 85.75319148926064,199.89155650773318 85.3702127658762,199.80357926228317 85.14042553212494,199.71560200792737 84.68085106369108,199.71560200792737 84.37446808535606,199.53964747331338 83.99148936150596,199.53964747331338 83.60851063812152,199.53964747331338 83.07234042556956,199.36369290412404 82.68936170218512,199.18773830024293 82.4595744679682,199.09976098511834 81.69361702119932,198.65987428009976 81.46382978698239,198.48391953727696 81.08085106406361,198.2199873578502 80.85106382984668,198.0440325284726 80.62127659562975,197.78010021912633 80.31489361682907,197.4281903518131 79.77872340427712,196.98830282251583 79.31914893630892,196.72437020065263 79.08936170209199,196.54841507604579 78.70638297870755,196.10852711292682 78.55319148907438,195.31672823266126 78.55319148907438,194.61290641583037 78.47659574495628,194.17301749810576 78.39999999990687,193.82110620784806 78.6297872341238,193.11728321108967 78.55319148907438,192.14952568360604 78.55319148907438,191.7096355513786 78.47659574495628,191.44570136774564 78.6297872341238,191.18176710634725 78.55319148907438,191.09378900186857 78.6297872341238,190.47794202715158 78.70638297870755,190.03805107047083 79.08936170209199,189.9500728531857 79.85531914886087,189.68613814905984 80.23829787224531,189.5101816362585 80.46808510646224,189.42220336699393 80.92765957443044,189.24624680232955 81.00425531901419,189.24624680232955 81.00425531901419,189.15826850681333 81.08085106406361,189.15826850681333" stroke="#4dd2ff" stroke-linecap="round" stroke-linejoin="round" stroke-width="0.5"><title>2021-03-02 1.4km</title></polyline><polyline fill="none" points="152.33674418600276,198.63473096734378 152.83906976738945,198.8655182318762 158.36465116264299,199.9040603605099 161.88093023281544,201.17338837636635 163.18697674386203,201.7503552014241 166.7032558140345,202.6735015292652 168.00930232508108,202.6735015292652 171.72651162790135,202.44271501596086 172.93209302285686,202.0965351597406 176.64930232521147,201.8657485321164 178.95999999996275,202.6735015292652 180.16558139538392,203.13507442036644 182.2753488374874,203.9428265412571 184.28465116256848,204.28900585090742 186.79627906996757,204.05821965599898 187.19813953433186,203.82743341545574 187.59999999962747,204.05821965599898 187.4995348835364,205.6737220658688 185.69116279063746,206.13529377325904 184.1841860464774,207.40461502957623 183.48093023197725,207.63540056510828 182.77767441840842,207.86618605465628 182.3758139531128,207.86618605465628 181.77302325563505,207.9815787820844 181.3711627908051,208.2123642032966 179.96465116273612,208.78932755754795 180.16558139538392,209.36629062704742 180.86883720895275,209.827860878082 180.86883720895275,209.9432534124935 180.86883720895275,210.05864593526348 180.9693023255095,209.9432534124935 180.4669767441228,209.827860878082 179.86418604617938,210.05864593526348 179.66325581399724,210.17403844662476 179.46232558088377,210.2894309469266 179.3618604647927,210.40482343558688 179.3618604647927,210.40482343558688 178.95999999996275,209.827860878082 178.75906976731494,209.5970757753821 178.4576744181104,209.25089803617448 178.35720930201933,209.0201128196204 177.35255813971162,208.78932755754795 176.95069767395034,208.78932755754795 176.44837209302932,208.78932755754795 175.94604651164263,208.6739349096315 175.34325581416488,208.6739349096315 174.84093023231253,208.6739349096315 173.83627906953916,208.44314957945608 173.33395348815247,208.3277568970807 172.83162790723145,208.2123642032966 172.3293023253791,208.09697149845306 171.3246511630714,207.86618605465628 170.92279069731012,207.63540056510828 170.4204651163891,207.52000780310482 169.9181395350024,207.2892222451046 169.41581395315006,207.05843664170243 169.0139534883201,206.71225815138314 168.1097674416378,206.25068667158484 167.20558139495552,205.78911500959657 166.50232558185235,205.09675717516802 165.99999999953434,204.86597113974858 165.49767441861331,204.6351850583451 164.99534883722663,204.40439893153962 164.49302325537428,204.17361275921576 164.19162790710106,204.05821965599898 163.38790697650984,203.71204027778003 162.9860465116799,203.59664712916128 162.58418604638427,203.481253968901 162.18232558108866,203.25046761462 161.68000000016764,203.13507442036644 161.1776744183153,203.0196812148206 160.07255813945085,202.9042879975168 159.6706976746209,202.78889476926997 159.16837209276855,202.6735015292652 158.5655813952908,202.6735015292652 158.16372092999518,202.55810827831738 157.1590697672218,202.44271501596086 156.65674418583512,202.21192845655605 155.7525581396185,201.51956850558054 154.74790697684512,201.17338837636635 154.3460465115495,201.05799497733824 153.84372093016282,200.94260156701785 153.24093023268506,200.82720814505592 152.83906976738945,200.71181471191812 152.33674418600276,200.48102781083435 151.43255813932046,200.01945387327578 150.93023255839944,199.78866683598608 150.52837209263816,199.5578797532944 149.52372093033046,198.98091184732039 149.22232558159158,198.75012460537255 148.8204651158303,198.51933731802274 147.91627906961367,197.9423688998213 147.5144186047837,197.59618771250825 147.01209302339703,196.9038250304293 146.30883720936254,196.09606805024669 145.10325581394136,195.1729165329598 145.10325581394136,194.82673452654853 144.90232558129355,194.24976428749505 144.7013953491114,193.78818789147772 144.39999999990687,192.28806334722321 144.7013953491114,191.71109185670502 144.80186046473682,191.13412008155137 144.90232558129355,190.67254245653749 145.0027906978503,190.32635911833495 145.0027906978503,189.74938666028902 145.0027906978503,188.24925693811383 145.0027906978503,187.21070446551312 146.10790697671473,186.7491252926411 146.9116279068403,186.28754593792837 147.61488372134045,186.0567561921198 148.11720930272713,185.94136130227707 148.31813953490928,185.71057148836553 149.7246511625126,185.59517656441312" stroke="#4dd2ff" stroke-linecap="round" stroke-linejoin="round" stroke-width="0.5"><title>2020-12-25 1.0km</title></polyline><polyline fill="none" points="13.04962405981496,241.01011688623112 13.53684210544452,241.4764634478488 13.942857142537832,241.9428097794298 14.836090225260705,242.50242507416988 18.327819548547268,243.4351164958207 20.19548872159794,243.99473090743413 21.41353383474052,244.27453798922943 27.09774436056614,246.51299166184617 28.721804511267692,247.6322165117017 30.589473683852702,248.4716342794709 33.35037593962625,249.4975883178413 34.40601503755897,249.68412529595662 36.35488721821457,249.68412529595662 37.49172932328656,249.68412529595662 39.4406015034765,249.31105130293872 41.22706766938791,249.12451425072504 43.25714285718277,249.21778278140118 44.39398496225476,249.12451425072504 47.56090225558728,249.68412529595662 48.616541353054345,250.0571991421748 50.64661654084921,250.4302728413022 51.78345864685252,250.3370044301846 53.81353383464739,250.24373601010302 54.70676691737026,250.15046758082462 55.60000000009313,250.5235412431648 55.518796992488205,250.61680963559775 55.275187970139086,250.7100780188921 55.19398496253416,250.80334639316425 55.19398496253416,250.89661475800676 55.11278195492923,250.80334639316425 54.95037594018504,250.98988311371068 54.95037594018504,250.80334639316425 55.03157894778997,250.89661475800676 55.11278195492923,250.98988311371068 55.03157894778997,250.89661475800676 55.19398496253416,250.7100780188921 55.11278195492923,250.7100780188921 55.03157894778997,250.7100780188921 55.03157894778997,250.80334639316425 55.03157894778997,250.7100780188921 55.03157894778997,250.7100780188921 55.03157894778997,250.7100780188921 55.03157894778997,250.80334639316425 54.95037594018504,250.80334639316425 54.95037594018504,250.80334639316425 54.86917293211445,250.80334639316425 54.78796992497519,250.80334639316425 54.95037594018504,250.80334639316425 54.95037594018504,250.80334639316425 54.95037594018504,250.80334639316425 54.86917293211445,250.80334639316425 54.86917293211445,250.89661475800676 54.70676691737026,250.80334639316425 52.83909774431959,250.80334639316425 50.7278195489198,250.80334639316425 48.616541353054345,250.3370044301846 47.64210526319221,250.0571991421748 45.61203007493168,249.4975883178413 44.556390977464616,249.31105130293872 42.3639097744599,249.31105130293872 41.308270676992834,249.21778278140118 39.115789473988116,249.40431981475558 36.84210526291281,249.68412529595662 35.786466165445745,249.68412529595662 33.59398496244103,249.59085681155557 32.457142856903374,249.31105130293872 27.34135338338092,247.6322165117017 26.285714285913855,247.2591417087242 23.28120300779119,246.51299166184617 22.469172932207584,246.41972286475357 19.2210526317358,245.86010988795897 17.35338345821947,245.02068980206968 16.297744360752404,244.46107599773677 14.26766917295754,243.34184739505872 12.399999999906868,242.6889634320978" stroke="#4dd2ff" stroke-linecap="round" stroke-linejoin="round" stroke-width="0.5"><title>2020-12-08 1.1km</title></polyline><polyline fill="none" points="78.39999999990687,241.54700863582548 78.81538461521268,241.6265267742565 81.58461538446136,243.77351353981066 82.48461538460106,244.09158516704338 86.01538461516611,245.12531708920142 87.67692307685502,245.60242368321633 88.50769230769947,245.92049458884867 90.4461538461037,246.63615366839804 92.17692307685502,247.51084723614622 93.07692307699472,248.06746992160333 97.50769230746664,249.5783009879524 98.47692307713442,249.6578183340025 101.24615384615026,249.3397489024792 102.07692307676189,249.2602315248805 106.43846153840423,249.3397489024792 107.33846153807826,249.4192662721034 110.03846153849736,250.2144395375508 112.80769230751321,250.45299136417452 113.63846153835766,250.3734740962973 115.43846153863706,250.45299136417452 118.20769230742007,250.0554049469647 119.03846153826453,249.97588764008833 120.76923076924868,249.81685300270328 121.5999999998603,249.73733567236923 121.25384615384974,249.1011967464001 119.31538461521268,249.02167934528552 118.48461538460106,249.1011967464001 116.75384615384974,249.5783009879524 116.13076923065819,249.73733567236923 114.33076923061162,250.13492224615766 113.49999999976717,250.2144395375508 111.76923076901585,250.2144395375508 110.86923076910898,250.0554049469647 109.13846153812483,249.73733567236923 108.30769230774604,249.4987836338114 105.60769230755977,249.02167934528552 104.7076923076529,249.02167934528552 102.90769230760634,249.1011967464001 101.9384615381714,249.1011967464001 100.13846153835766,249.2602315248805 98.3384615383111,249.3397489024792 96.60769230755977,249.2602315248805 94.9461538461037,248.8626445197733 94.11538461525925,248.62409222277347 92.31538461544551,248.06746992160333 91.48461538460106,247.74939986265963 89.82307692291215,247.19277695764322 87.60769230732694,246.55663602420827 86.98461538436823,246.4771183723351 85.32307692291215,246.07952999480767 83.03846153849736,245.3638704214245 82.41538461530581,244.88676368643064 80.96153846126981,244.09158516704338 80.19999999995343,243.69399561325554" stroke="#4dd2ff" stroke-linecap="round" stroke-linejoin="round" stroke-width="0.5"><title>2020-12-03 1.3km</title></polyline><polyline fill="none" points="187.14366197166964,247.1356663023471 187.5239436617121,248.5333976421971 187.60000000009313,248.97018823353574 186.30704225366935,249.75641075527528 184.1014084503986,249.66905273188604 181.0591549295932,249.14490440982627 178.16901408415288,247.92189045244595 177.18028169032186,247.74717403482646 171.55211267620325,245.5632159090601 169.49859154922888,245.2137821089127 166.38028169004247,245.30114057194442 164.25070422515273,245.2137821089127 162.7295774645172,245.2137821089127 161.8169014081359,245.2137821089127 159.76338028162718,245.03906515752897 159.07887323899195,244.9517066690023 156.72112676035613,244.77698966528988 155.8084507039748,244.689631150919 152.61408450687304,244.42755555553595 151.6253521121107,244.25283844885416 149.647887323983,244.07812130759703 147.06197183113545,242.9424590501003 146.07323943637311,242.5930242165341 144.39999999990687,242.24358924478292 146.30140845058486,242.6803829378914 147.97464788751677,243.4666110422113 149.647887323983,244.25283844885416 150.6366197182797,244.3401970063569 153.1464788732119,244.60227262758417 153.90704225329682,244.689631150919 155.88450704235584,244.86434817139525 156.87323943618685,244.9517066690023 158.92676056316122,244.9517066690023 159.8394366200082,245.03906515752897 161.8929577465169,245.2137821089127 162.80563380289823,245.2137821089127 165.61971830949187,245.30114057194442 166.53239436633885,245.30114057194442 167.901408450678,245.1264236375573 168.35774647863582,245.1264236375573 168.66197183076292,245.1264236375573 168.96619718289003,245.1264236375573 169.27042253501713,245.1264236375573 169.6507042250596,245.03906515752897 170.03098591510206,245.03906515752897 170.79154929565266,245.1264236375573 171.09577464777976,245.1264236375573 171.780281690415,245.38849902612856 172.4647887321189,245.73793275706703 172.38873239420354,245.91264957090607 172.38873239420354,246.00000796472887 172.31267605628818,246.00000796472887" stroke="#4dd2ff" stroke-linecap="round" stroke-linejoin="round" stroke-width="0.5"><title>2020-11-30 1.0km</title></polyline></svg>