<?xml version="1.0" encoding="utf-8" ?>
<svg baseProfile="full" height="300mm" version="1.1" viewBox="0,0,200,300" width="200mm" xmlns="http://www.w3.org/2000/svg" xmlns:ev="http://www.w3.org/2001/xml-events" xmlns:xlink="http://www.w3.org/1999/xlink"><defs /><rect fill="#222222" height="300" width="200" x="0" y="0" /><text fill="#FFFFFF" style="font-size:12px; font-family:Arial; font-weight:bold;" x="10" y="20">Over 3km Runs</text><text fill="#FFFFFF" style="font-size:4px; font-family:Arial" x="10" y="280">ATHLETE</text><text fill="#FFFFFF" style="font-size:9px; font-family:Arial" x="10" y="290">jdzj</text><text fill="#FFFFFF" style="font-size:4px; font-family:Arial" x="120" y="280">STATISTICS</text><text fill="#FFFFFF" style="font-size:3px; font-family:Arial" x="120" y="285">Number: 53</text><text fill="#FFFFFF" style="font-size:3px; font-family:Arial" x="120" y="290">Weekly: 3.3</text><text fill="#FFFFFF" style="font-size:3px; font-family:Arial" x="141" y="285">Total: 101.2 km</text><text fill="#FFFFFF" style="font-size:3px; font-family:Arial" x="141" y="290">Avg: 1.9 km</text><text fill="#FFFFFF" style="font-size:3px; font-family:Arial" x="167" y="285">Min: 1.0 km</text><text fill="#FFFFFF" style="font-size:3px; font-family:Arial" x="167" y="290">Max: 5.9 km</text><polyline fill="none" points="25.76703037781408,46.78864889040415 26.02723698009504,47.19303619513812 26.79255051614018,47.19303619513812 26.593568996700924,46.753484733591904 27.006838306202553,46.56008174706949 26.54765018459875,46.63041013009206 26.639487808861304,45.9974536839145 26.16499341657618,45.78646770233172 26.14968714589486,46.05020014029287 26.639487808861304,46.57766384546994 26.65479407965904,47.28094635739399 26.01193070935551,47.22820026525005 25.53743631701218,46.63041013009206 25.62927394133294,46.929305448327796 25.06294192466885,47.03479779386544 24.358853471581824,45.78646770233172 23.56292739417404,44.96010353615566 20.8537174766534,43.043627211867715 20.54759206227027,41.40845221954805 20.869023747334722,39.75567945383955 22.369038277945947,37.2764915634325 23.77721518423641,36.13359191348718 25.216004631947726,34.445603637810564 25.27722971473122,33.07410138953128 24.726203968864866,32.00150894175749 24.251709576579742,31.685005018487573 23.746602642757352,32.1773442117119 23.60884620633442,31.737755711437785 23.823133996338584,31.72017214882362 23.53231485269498,31.66742145078024 23.73129637207603,31.702588584535988 23.578233664797153,32.05425954096427 23.654765018436592,31.772922831427422 23.36394587473478,31.98392540520581 23.59353993559489,31.825673498256947 23.39455841621384,31.772922831427422 23.455783499055542,31.98392540520581 22.889451482449658,32.40592980328074 23.53231485269498,32.05425954096427 23.28741452115355,32.21251124489936 23.37925214547431,31.86084060082794 23.18027062615147,32.30042879746179 23.18027062615147,31.98392540520581 23.746602642757352,31.632254309981363 24.022115515719634,32.01909247653384 23.899665349978022,32.14217717159772 24.328240930102766,32.1773442117119 23.83844026713632,32.40592980328074 23.21088316757232,31.561920007661683 23.899665349978022,31.66742145078024 23.914971620659344,31.333333333328483 22.904757753189187,32.423513298199396 23.77721518423641,32.40592980328074 23.77721518423641,32.1773442117119 23.14965808467241,32.24767827113101 24.022115515719634,31.632254309981363 23.24149570899317,32.14217717159772 23.54762112343451,32.12459364894312 23.670071289117914,31.98392540520581 23.34863960405346,31.825673498256947 23.44047722837422,32.14217717159772 23.914971620659344,31.896007696472225 23.77721518423641,32.159760692491545 23.792521454859525,31.94875832690741 23.578233664797153,32.05425954096427 23.670071289117914,31.808089944330277 23.976196703559253,31.790506388715585 23.86905280855717,32.21251124489936 24.113953140040394,31.878424149545026 23.73129637207603,32.35317930817837 23.930277891398873,32.05425954096427 23.68537755991565,31.386084130353993 24.12925941083813,31.597087162255775 23.44047722837422,32.1773442117119 23.73129637207603,32.30042879746179 23.914971620659344,32.07184307057469 23.792521454859525,32.35317930817837 24.068034327880014,31.685005018487573 23.899665349978022,32.230094758895575 24.08334059867775,32.458680282798014 23.823133996338584,32.19492772920057 21.603724741959013,34.46318693140347 24.343547200842295,31.913591241667746 26.31805612379685,33.496103205674444 27.236432367004454,34.86760220579163 26.333362394478172,50.48084674819256 20.731267310853582,50.62150039237167 19.598603277583607,50.920389017643174 19.430234299623407,53.43454996703076 20.011872587027028,53.856503574192175 21.251680515357293,53.57520128041506 21.802706261281855,54.17296812408313 21.343518139678054,54.542176055460004 22.170056758623105,54.64766389540455 22.323119465785567,54.94654576951871 22.292506924364716,55.33333333332848 22.016994051344227,54.964127040599124 21.863931344181765,55.05203337017156" stroke="#4dd2ff" stroke-linecap="round" stroke-linejoin="round" stroke-width="0.5"><title>2021-06-02 5.9km</title></polyline><polyline fill="none" points="48.90319385495968,54.613640004681656 51.04794915940147,52.648314205231145 54.373524800292216,48.16399817314232 57.24123133113608,42.18479865338304 58.47024841583334,37.617268736095866 58.446150041534565,31.333333333343035 58.92811752576381,31.77625850093318 59.16910126770381,36.59302454843419 57.48221507319249,42.932205561053706 55.626640259171836,47.25051760309725 52.63844185729977,51.6794865631382 48.83089873229619,55.333333333343035" stroke="#4dd2ff" stroke-linecap="round" stroke-linejoin="round" stroke-width="0.5"><title>2021-06-01 2.2km</title></polyline><polyline fill="none" points="96.66666666674428,44.9737314604281 96.18444101000205,45.52762883825926 85.8722308089491,42.24684170738328 78.78722308110446,42.45988058921648 78.1937145802658,43.013781190267764 73.5940236991737,41.39468512948952 72.66666666674428,41.43729299833649 72.70376094826497,41.90597927791532 73.55692941811867,41.139037828397704 78.71303451852873,43.269427381892456 88.06079340563156,43.56768108109827" stroke="#4dd2ff" stroke-linecap="round" stroke-linejoin="round" stroke-width="0.5"><title>2021-05-31 1.1km</title></polyline><polyline fill="none" points="116.47443234804086,54.440328362514265 116.96000639675185,50.477601754595526 117.78548227995634,51.0915471353801 120.79604138247669,50.477601754595526 121.81574688479304,49.361335714464076 122.59266536287032,46.068338029959705 124.38928934349678,46.738101827853825 123.32102643605322,46.291592717694584 123.85515788989142,45.51020092476392 123.75804307986982,46.84972905018367 123.85515788989142,45.45438718376681 123.8066004847642,47.5194919204223 122.25276352860965,45.95671065308852 127.2056188264396,48.6915750305634 122.15564871905372,46.7939154417254 123.3695838409476,46.23577905423008 122.73833757755347,44.39392505749129 122.25276352860965,47.128797009412665 123.75804307986982,45.733455833105836 123.22391162626445,44.84043566940818 124.58351896307431,46.84972905018367 125.21476522646844,46.570660953002516 123.41814124584198,47.4078648306313 121.76718947989866,46.62647458357969 124.1465023192577,46.40322002826724 122.49555055331439,46.01252434437629 121.28161543118767,49.9752823098097 116.62010456272401,50.756667919573374 116.76577677740715,52.877566263021436 114.82348058209755,54.38451550499303 114.92059539165348,55.33333333331393 115.6489564650692,54.27288977307035 113.51243065018207,48.468321292544715 103.46104784007184,31.33333333331393" stroke="#4dd2ff" stroke-linecap="round" stroke-linejoin="round" stroke-width="0.5"><title>2021-05-30 1.4km</title></polyline><polyline fill="none" points="134.87150837981608,40.96551096744952 138.32402234629262,42.9290779500152 144.62569832406007,45.277645094756735 147.54189944139216,45.00813810728141 151.22905027936213,45.701155699265655 157.43016759783495,44.77713196989498 158.0,44.31511928513646 157.36312849156093,44.81563300231937 151.46368715085555,45.470149971952196 143.25139664800372,44.93113607677515 137.7877094972646,43.468094609561376 134.0,41.50453033836675" stroke="#4dd2ff" stroke-linecap="round" stroke-linejoin="round" stroke-width="0.5"><title>2021-05-27 1.4km</title></polyline><polyline fill="none" points="188.66666666674428,45.05927781277569 185.6614492754452,44.91544991481351 179.56753623206168,42.61419775846298 170.34318840620108,42.27859757540864 164.66666666674428,40.744422359217424 168.1727536234539,42.08682593819685 177.64753623190336,42.94979770982172 187.41449275356717,45.92224430743954 188.20753623195924,45.682531545870006" stroke="#4dd2ff" stroke-linecap="round" stroke-linejoin="round" stroke-width="0.5"><title>2021-05-25 1.1km</title></polyline><polyline fill="none" points="11.994159366004169,68.05065487482352 13.135586149408482,68.98220428352943 16.950354609871283,69.3272219534847 20.735085523687303,71.50082544976613 25.27075511054136,71.32831772908685 27.823946599964984,71.74233611565433 33.17062995408196,70.98330203280784 35.33333333337214,69.91375121154124 35.33333333337214,70.70728923057322 26.802670004195534,71.94934512517648 23.55861493537668,71.39732082764385 20.67501042969525,71.63883156495285 14.967876512324437,70.25876796277589 11.333333333372138,68.63718627320486" stroke="#4dd2ff" stroke-linecap="round" stroke-linejoin="round" stroke-width="0.5"><title>2021-05-24 1.6km</title></polyline><polyline fill="none" points="51.348837209283374,69.37894909220631 56.93023255805019,69.53922148759011 56.93023255805019,70.22037846289459 60.48837209306657,71.82309625274502 66.0,71.30221366457408 60.38372093020007,71.86316411645385 56.40697674418334,71.18200989556499 52.2558139533503,71.38234949085745 42.0,68.13683588354615" stroke="#4dd2ff" stroke-linecap="round" stroke-linejoin="round" stroke-width="0.5"><title>2021-05-21 1.1km</title></polyline><polyline fill="none" points="87.05410738382488,82.0 87.9097219761461,81.17572324647335 87.63371726905461,80.35144437898998 88.07532480044756,76.51534953134251 89.73135304369498,75.94468688164488 90.09015916311182,75.0886910072004 92.07739305507857,75.56424455222441 96.16226272168569,74.99358021377702 96.02426036784891,73.15476600831607 94.64423683192581,70.17459650547244 91.88418975996319,66.30667572937091 89.89695586799644,64.43610717827687 86.72290173522197,62.565527739119716 82.224025007803,61.93143054304528 80.56799676467199,61.265627140470315 78.13915534131229,61.61438147575245 75.10310356190894,59.80719581944868 74.52349367691204,58.0 73.17107061168645,58.475578832498286 73.25387202377897,59.49014465638902" stroke="#4dd2ff" stroke-linecap="round" stroke-linejoin="round" stroke-width="0.5"><title>2021-05-20 1.7km</title></polyline><polyline fill="none" points="103.4487179487478,67.94570635765558 103.33333333325572,65.49377304199152 108.46794871799648,64.56601215660339 126.92948717949912,64.96362412156304 127.33333333325572,73.976098875748 126.23717948701233,74.77131143194856 116.89102564100176,73.976098875748 115.73717948724516,74.77131143194856 108.64102564100176,75.43398784339661 104.5448717949912,74.83757910266286 103.62179487175308,74.04236662463518 103.62179487175308,67.1504857223481" stroke="#4dd2ff" stroke-linecap="round" stroke-linejoin="round" stroke-width="0.5"><title>2021-05-18 1.1km</title></polyline><polyline fill="none" points="134.0,70.81656326903612 134.9336870025145,71.69402655756858 139.4960212201113,73.61956007643312 142.3607427055249,73.54643882444361 144.2917771883076,73.98516601187293 147.62334217503667,73.59518632819527 151.29442970827222,72.52273902489105 152.33421750657726,71.88901797631115 154.01061007962562,70.71906715576188 158.0,66.79481666500214 157.3633952254895,66.01483398814162 155.7931034482317,67.23355583875673 146.60477453586645,68.2329032713169 145.26790450920817,67.86728882577154 138.03183023864403,67.64791989880905 137.6498673738679,68.25727754842956 137.73474801052362,68.01353466892033 137.31034482759424,68.18415470984473 136.8647214852972,69.1103757336241 136.20689655165188,69.3784916978766 134.29708222812042,68.9885047445714 134.0212201590184,68.47664593446825" stroke="#4dd2ff" stroke-linecap="round" stroke-linejoin="round" stroke-width="0.5"><title>2021-05-10 2.5km</title></polyline><polyline fill="none" points="188.66666666662786,77.66416742117144 188.5471645919606,76.97784573436365 187.73056708171498,76.1313795237511 186.4359612724511,76.7719488323055 185.778699861723,76.56605174747529 185.73886583687272,75.92548187026114 186.17704011069145,75.19339984432736 186.0177040110575,73.15728455914359 185.53969571227208,72.47094953607302 183.01023513136897,73.24879574213992 181.31728907325305,73.06577334013127 181.25753803597763,72.53958312976465 176.87579529732466,72.60821670321457 174.58533886575606,72.24217074367334 170.92060857533943,72.90562861990475 168.31147994473577,72.97426208495745 166.24011065007653,72.51670526748057 164.66666666662786,69.79422353924019 166.95712309819646,68.14699218583701 167.97289073304273,67.02595304638089 170.0641770401271,65.95066551478521 170.32309820188675,65.1727948308253 172.53388658363838,64.1890134645073 174.66500691568945,62.724773004927556 173.8085753803607,63.6856818493834 171.43845089909155,64.71522262143844 169.20774550479837,62.74765183319687 167.79363762098365,62.33583257882856" stroke="#4dd2ff" stroke-linecap="round" stroke-linejoin="round" stroke-width="0.5"><title>2021-05-08 2.6km</title></polyline><polyline fill="none" points="35.33333333325572,92.51579448327539 35.17621385701932,94.18517909396905 30.462629568763077,94.45588953790138 29.755591925699264,95.76432109132293 22.48881614813581,94.09494224382797 18.717948717763647,94.41077114176005 17.34315330046229,95.17778327161795 12.001091107260436,94.00470537570072 11.333333333255723,95.08754661717103 16.911074740579352,97.07274890245753 25.00272776861675,97.88487462687772 35.17621385701932,100.81753885006765" stroke="#4dd2ff" stroke-linecap="round" stroke-linejoin="round" stroke-width="0.5"><title>2021-05-08 1.3km</title></polyline><polyline fill="none" points="66.0,96.2645004047954 65.39522546424996,96.59355123128626 61.83023872692138,95.27734617283568 61.257294429815374,95.78920425093384 57.62864721484948,94.39987353736069 55.27320954913739,95.4967140070803 50.14854111406021,95.82576551503735 46.87002652522642,94.7654873879219 43.559681697632186,95.35046879865695 42.41379310330376,95.167662206979 42.0,94.58268050776678 47.31564986729063,94.80204875319032 50.43501326267142,96.19137795921415 55.52785145898815,96.04513302483247 65.80901856778655,98.93345979598234" stroke="#4dd2ff" stroke-linecap="round" stroke-linejoin="round" stroke-width="0.5"><title>2021-05-07 1.5km</title></polyline><polyline fill="none" points="72.77743589738384,101.27570189113612 72.66666666674428,100.63851447112393 74.43897435907274,100.04380535610835 75.17743589752354,98.25967305153608 84.44512820523232,92.73731162154581 87.39897435903549,93.5869103273144 88.10051282052882,94.52146695493138 88.949743589852,92.43995167588582 88.61743589746766,92.0576314421487 88.61743589746766,93.50195053263451 88.43282051291317,93.0346713605104 87.73128205141984,94.64890633703908 88.65435897442512,93.5869103273144 87.76820512814447,94.52146695493138 88.24820512812585,92.94971145619638 87.91589743597433,94.60642654719413 88.72820512834005,93.88426947579137 90.2420512821991,94.13914858130738 92.49435897427611,93.33203089277958 94.56205128203146,93.4169907210744 96.66666666674428,94.64890633703908 95.30051282048225,93.7143499875674 93.63897435902618,93.50195053263451 89.7620512819849,94.43650734590483 87.8420512820594,93.20459111846867" stroke="#4dd2ff" stroke-linecap="round" stroke-linejoin="round" stroke-width="0.5"><title>2021-05-06 1.2km</title></polyline><polyline fill="none" points="109.3219911782071,98.85580834455322 110.36546943918802,96.6146635991172 117.80592312524095,91.08994058187818 120.93635790795088,87.75423077639425 125.06490233144723,85.56515976542141 126.65280403266661,87.07666214735946 127.33333333325572,102.45204399089562 126.47132955235429,97.86553625762463 113.99495904217474,104.69316396443173 110.72841839934699,101.56601719203172 104.6036546942778,104.9016397576197 103.33333333325572,107.03851189225679 104.64902331447229,107.76817356795073 108.55072463769466,104.11985510902014 110.00252047879621,100.7842276057927 109.18588531808928,99.58548132551368" stroke="#4dd2ff" stroke-linecap="round" stroke-linejoin="round" stroke-width="0.5"><title>2021-05-06 1.8km</title></polyline><polyline fill="none" points="148.5378590078326,92.95452882733662 150.6997389033204,92.30262820480857 150.9190600522561,91.61450959285139 148.4125326371286,90.6004376479541 148.72584856394678,90.67287145371665 148.3498694517184,91.07125712258858 150.19843342038803,91.79559356640675 151.82767624023836,91.54207597786444 151.29503916448448,93.8961609636026 152.9242819843348,92.99074549373472 152.8616187989246,93.67886145980447 153.5195822454989,93.64264486293541 155.9634464752162,95.59833584629814 157.7493472583592,95.99671603288152 157.7806788511807,97.01077268848894 157.21671018272173,97.807529473881 158.0,101.42912887225975 157.34203655354213,102.73289568538894 139.92167101835366,100.6685960382456 135.06527415139135,101.32048142352141 134.0,102.11722861544695 134.75195822457317,101.35669724352192" stroke="#4dd2ff" stroke-linecap="round" stroke-linejoin="round" stroke-width="0.5"><title>2021-05-02 1.6km</title></polyline><polyline fill="none" points="172.01856540096924,90.94045981910313 173.7198312235996,91.64307025959715 175.78565400862135,89.88654282281641 183.98818565392867,88.55157899385085 187.63375527434982,90.02706518152263 188.66666666674428,92.48620184866013 187.3907172998879,99.51225854584482 177.06160337547772,103.16577988734934 165.39578059059568,104.78175433946308 164.66666666674428,103.58733880321961 169.70970464125276,89.11366934044054" stroke="#4dd2ff" stroke-linecap="round" stroke-linejoin="round" stroke-width="0.5"><title>2021-05-01 1.0km</title></polyline><polyline fill="none" points="22.781849319813773,122.34795108274557 21.32793692010455,124.66679095674772 19.17213577637449,120.20301583199762 19.272405596915632,118.57981624267995 21.027127458481118,115.85514943639282 23.78454752615653,114.69571281713434 30.903704792493954,114.81165658461396 35.06490234960802,111.33333333331393 29.800736765377223,115.04354404943297 17.417413914809003,113.36235780006973 16.364580797962844,113.8841057854006 14.309049474773929,118.28995868860511 13.607160730054602,129.07256082590902 12.754867254756391,131.85513484250987 11.752169047947973,132.26092575595248 11.601764317136258,135.33333333331393 12.403922882163897,134.9275445989333 12.754867254756391,133.01453668880276 14.10850983322598,117.94212942989543 15.913366605062038,116.14500822406262 16.665390259819105,116.60878197883721" stroke="#4dd2ff" stroke-linecap="round" stroke-linejoin="round" stroke-width="0.5"><title>2021-05-01 1.8km</title></polyline><polyline fill="none" points="62.31245965138078,121.15314997560927 61.47579083283199,121.29553180695802 60.11233053583419,122.27440385569935 58.45448676566593,122.20321334035543 58.16010329243727,122.5591656362667 58.206584893516265,122.2210109718435 57.09102646872634,122.59476082723995 54.45706907683052,122.25660622947908 52.90768237574957,122.43458241259214 52.442866365483496,122.18541570715024 50.75403486122377,122.50577283662278 46.942543576529715,122.59476082723995 43.146546158823185,122.20321334035543 42.0,123.18208046417567 42.07746933505405,123.52023332724639 46.539703034213744,124.39230883856362 47.02001291158376,124.24992945116537 47.903163331211545,124.71266204936546 50.25823111686623,124.7482568154519 51.73014848289313,125.31777211773442 52.365397030313034,125.12200143537484 54.038734667527024,125.51354258775245 54.45706907683052,125.83389380767767 55.4951581665664,125.958474684041 55.77404777274933,125.74490741477348 56.533247256302275,126.10085272316064 57.47837314393837,125.94067742128391 59.05874757905258,126.40340568308602 59.19819238217315,125.9762719450955 59.539057456480805,125.94067742128391 60.1743060038425,126.27882511395728 60.39122014201712,125.76270469685551 61.320852162723895,125.26438013456936 62.43641058745561,124.14314483686758 63.67591994837858,123.66261329047848 64.32666236284422,122.8795221021137 65.41123305360088,122.54136803817528 66.0,121.72267662685772 65.69012265978381,120.77939713360684 65.209812782472,120.26326098360005 64.23369916074444,120.88618373891222 62.7462879276718,120.79719490556454 62.653324725688435,121.36672268052644 60.56165267911274,122.39898719001212 60.99548095546197,122.80833182552306 61.28986442863243,122.61255842006358 62.29696578433504,123.37785325165896 63.133634603058454,123.2532705933263 63.19561007100856,123.03970012172067" stroke="#4dd2ff" stroke-linecap="round" stroke-linejoin="round" stroke-width="0.5"><title>2021-04-30 3.7km</title></polyline><polyline fill="none" points="96.4770932069514,121.7655411400192 94.960505529074,123.94304101192392 94.12638230621815,124.0736906628299 85.86097946297377,121.80909124275786 78.50552922580391,121.7655411400192 79.49131121649407,122.59299235630897 72.66666666674428,120.54613652112312 78.12638230621815,122.46234226727393 86.84676145319827,123.28979217782035 95.8325434436556,126.12053014556295 96.66666666674428,125.9463314099412 95.52922590845264,125.55438400385901" stroke="#4dd2ff" stroke-linecap="round" stroke-linejoin="round" stroke-width="0.5"><title>2021-04-29 1.4km</title></polyline><polyline fill="none" points="112.55619047628716,122.74271058212616 114.5104761904804,121.20664165564813 113.8247619047761,119.98565957395476 115.02476190461311,119.5917935896141 123.21904761891346,111.7537796695542 124.17904761899263,111.63561747793574 127.33333333337214,115.25924210780067 123.32190476171672,117.85877864068607 123.76761904754676,117.89816542746848 121.26476190448739,120.6158443405875 122.32761904748622,120.22197897810838 122.56761904759333,119.31608716922347 121.36761904752348,120.30075208164635 115.64190476178192,127.23272431871737 111.76761904766317,129.5170978869719 109.12761904753279,131.84084379288834 108.95619047619402,133.33748653618386 106.79619047616143,135.03104918872123 105.01333333342336,134.12519098928897 103.33333333337214,131.72268754788092 103.47047619044315,129.39894095412455 105.83619047619868,128.29614122700877 106.69333333335817,126.9570231763937 109.0590476191137,125.93298869460705 109.50476190482732,124.9089515855303 110.670476190513,124.2393874397967 111.01333333330695,123.057800913346 111.90476190473419,122.38823366226279 112.89904761896469,122.62455164387939 113.10476190468762,121.87621088884771" stroke="#4dd2ff" stroke-linecap="round" stroke-linejoin="round" stroke-width="0.5"><title>2021-04-26 2.2km</title></polyline><polyline fill="none" points="148.15968801663257,131.0928693386668 148.814138930873,130.1906353427621 149.57330199109856,120.7170170735335 152.13874957466032,111.33333333334303 149.78272628376726,120.56663980529993 147.9240856874967,121.43882692803163 145.22774792136624,121.258374624711 142.42669800890144,121.67942983278772 140.96072796126828,122.58168903342448 139.93978453509044,124.02529819656047 139.8612504254561,132.86725507015944 141.03926207101904,135.032593150303 141.82460316782817,135.33333333334303 142.34816389915068,135.0626671819482 145.17539184831548,132.68680953557487 146.14397920109332,133.34844264006824 147.0863885175204,132.6567352693819 147.26963477337267,131.874803307408" stroke="#4dd2ff" stroke-linecap="round" stroke-linejoin="round" stroke-width="0.5"><title>2021-04-25 2.2km</title></polyline><polyline fill="none" points="177.59403448842932,135.33333333334303 176.886306413915,130.06247907713987 177.27677707583643,127.06253430945799 176.886306413915,121.48311351571465 177.2523726593936,111.75391153933015 176.95951966301072,111.33333333334303 176.34940925391857,111.75391153933015 175.7392988448264,121.67937640851596 175.98334300844,131.43627498258138 176.95951966301072,131.71664067762322 177.03273291199002,131.46431156454491 177.15475499397144,126.67001582760713 176.83749758114573,130.39891950503807" stroke="#4dd2ff" stroke-linecap="round" stroke-linejoin="round" stroke-width="0.5"><title>2021-04-18 2.2km</title></polyline><polyline fill="none" points="35.33333333337214,153.41626409385935 31.035339063964784,152.98182935608202 18.03820439358242,149.07189550652402 12.29608404962346,148.51897248707246 11.333333333372138,147.88705952977762 18.175740210106596,147.8080703401065 19.688634193036705,146.58373590616975 22.645654250169173,147.92655411886517" stroke="#4dd2ff" stroke-linecap="round" stroke-linejoin="round" stroke-width="0.5"><title>2021-04-16 1.0km</title></polyline><polyline fill="none" points="66.0,151.92484040056297 65.29707112966571,152.1122743566957 65.00836820085533,151.52113567868946 64.5062761506415,151.31928289965435 63.86610878654756,151.47788153517467 63.640167363977525,151.29044676554622 63.326359832601156,150.85790407226887 63.87866108783055,149.87746922887163 63.69037656899309,149.15655706032703 63.31380753137637,148.99795590614667 60.38912133895792,149.19981189075042 57.891213389113545,148.98353761083854 56.673640167398844,149.2719032462628 56.15899581590202,149.0700473611796 55.33054393308703,149.15655706032703 55.12970711302478,148.98353761083854 53.49790794978617,149.17097533853666 52.92050209204899,148.96911931411887 52.255230125563685,149.15655706032703 51.58995815902017,148.88260950402764 50.1841004184098,149.14213878072042 49.029288702935446,148.6807530813967 48.07531380758155,148.79609964277188 47.53556485357694,148.13285567193816 46.55648535565706,148.19052918013767 45.665271966543514,147.9165798133472 45.30125523015158,148.0896005257964 44.79916317993775,147.59937464189716 44.05857740587089,147.85890619699785 42.979079497919884,147.49844557934557 42.351464435167145,147.83006938034669 42.79079497914063,147.51286402110418 42.891213389113545,148.00309019515407 42.0,147.95983501065348 42.75313807534985,147.68588521148195 42.38912133895792,147.77239572985854 42.778242677857634,147.74355889609433 42.464435146481264,147.87332460323523 42.665271966543514,148.0896005257964 42.45188284519827,147.9165798133472 42.75313807534985,147.81565096980194 42.665271966543514,147.65704836063378 42.4142259414657,147.74355889609433 42.50209205021383,147.95983501065348 42.891213389113545,147.80123255790386 42.70292887033429,147.72914047705126 42.67782426782651,147.93099821385113 42.778242677857634,147.67146678679273 42.64016736409394,147.93099821385113 42.72803347278386,147.72914047705126 42.79079497914063,147.88774300801742 42.602510460303165,147.36867953937326 42.715481171617284,147.74355889609433 42.65271966526052,147.49844557934557 42.67782426782651,147.74355889609433 42.42677824269049,147.55611933792534 42.51464435149683,147.42635334911756 42.602510460303165,147.55611933792534 42.4142259414657,147.62821150412492 42.665271966543514,147.75797731366765 42.464435146481264,147.6426299330924 42.70292887033429,147.42635334911756 42.52719665277982,147.72914047705126 42.326359832659364,147.72914047705126 42.52719665277982,147.35426108336833 42.33891213388415,147.48402713616088 42.64016736409394,147.74355889609433 42.42677824269049,147.61379307370225 42.464435146481264,147.74355889609433 42.52719665277982,147.62821150412492 42.58995815902017,148.23378429640434 42.464435146481264,149.58910478814505 43.682008368195966,149.84863281040452 43.7824267782853,150.07932399889978 44.8744769875193,149.97839664873027 45.50209205027204,150.20908763245097 50.51046025106916,150.4253600990487 55.45606694568414,151.05975748841593 57.82845188281499,151.14626601000782 58.88284518831642,151.37695515064115 60.10041841008933,151.99693041216233 62.00836820079712,151.78066027071327 62.20920502091758,152.12669234340137 62.472803347278386,152.01134841020394 64.26778242678847,152.38621586037334 64.58158995816484,152.64573891661712 65.14644351467723,152.5159774460917 65.3221757322317,151.98251241266553 65.82426778244553,151.78066027071327" stroke="#4dd2ff" stroke-linecap="round" stroke-linejoin="round" stroke-width="0.5"><title>2021-04-09 4.9km</title></polyline><polyline fill="none" points="96.18219461734407,151.28418785930262 88.6542443067301,149.10107872981462 87.79710144968703,148.28776075641508 82.5051759837661,148.71582303778268 78.66666666697711,148.33056700360612 79.37474120105617,148.75862924274406 79.03933747438714,148.9298540200689 72.66666666674428,147.47444125884795 77.95859213266522,149.0582725587592 85.56107660476118,149.70036468244507 96.10766045562923,152.52555874118116 94.69151138747111,151.96908257799805 96.66666666674428,151.71224718517624 96.14492753637023,151.0701580379682" stroke="#4dd2ff" stroke-linecap="round" stroke-linejoin="round" stroke-width="0.5"><title>2021-04-09 1.4km</title></polyline><polyline fill="none" points="104.28787878807634,148.66865551209776 105.4469696971355,149.64759621821577 113.83333333348855,152.85850479229703 117.54924242431298,152.70187570818234 120.78787878807634,153.36754888881114 126.78787878819276,152.70187570818234 127.33333333337214,152.03620141156716 124.91287878807634,151.40968340693507 122.01515151525382,151.9970440652105 119.01515151525382,150.86147934186738 116.52651515172329,151.05726659490028 112.29924242431298,148.90360150163178 111.75378787901718,147.8855012091226 109.33333333348855,146.94571400637506 107.49242424266413,146.63245111115975 103.33333333337214,147.65055461696465" stroke="#4dd2ff" stroke-linecap="round" stroke-linejoin="round" stroke-width="0.5"><title>2021-04-08 1.4km</title></polyline><polyline fill="none" points="157.84415584430099,151.00244514914812 158.0,151.82587624323787 155.97402597416658,151.86167755286442 150.61298701306805,150.03580626379699 142.5090909091523,149.64198968347046 138.2389610389946,148.13832244710648 134.0,148.78275202546502 138.02077922073659,148.31733077811077 142.29090909089427,149.6061881550413 150.23896103911102,149.96420328097884" stroke="#4dd2ff" stroke-linecap="round" stroke-linejoin="round" stroke-width="0.5"><title>2021-04-06 1.3km</title></polyline><polyline fill="none" points="171.99600798403844,146.39624078094494 175.01397205586545,145.45370274817105 176.2594810379669,146.45168414380169 176.2594810379669,147.50510696839774 175.445109780645,147.9486528118141 176.88223552890122,149.50106042221887 178.36726546892896,149.66738954698667 180.28343313373625,148.7803002956789 182.43912175646983,146.06358048476977 184.35528942127712,146.78434420307167 185.93612774461508,145.8418068413157 188.61876247497275,146.17446727264905 188.61876247497275,142.79241009487305 188.33133732550777,144.84382432926213 186.75049900216982,144.5666066405829 188.66666666674428,144.89926785015268 188.57085828343406,146.34079741226742 184.4510978043545,146.72890087385895 182.43912175646983,146.00813708244823 179.18163672671653,150.11093363136752 179.94810379249975,149.44561736949254 176.35528942127712,149.39017431106186 175.63672654679976,148.17042559827678 176.69061876274645,148.17042559827678 176.59481037943624,147.61599346302683 175.34930139733478,145.39825928362552 174.82235528924502,146.17446727264905 173.76846307399683,146.06358048476977 172.42714570858516,148.94662964023883 167.97205588803627,151.27523513574852 166.53493013978004,153.93648638034938 166.34331337315962,151.88510636007413 165.9600798401516,154.49091208801838 165.6247504989151,153.27117478707805 165.9600798401516,154.10281415190548 165.67265469045378,153.3820601090556 167.6367265470326,154.3800269915955 169.21756487013772,156.76405159430578 171.27744510979392,156.59772463486297 171.85229540918954,155.43343449680833 170.60678642708808,154.8790097478195 171.70858283434063,154.8790097478195 171.1816367264837,155.54431937914342 170.70259481016546,155.10077971516876 171.27744510979392,155.76608907571062 171.42115768464282,155.21166466496652 171.66067864280194,156.4868399669067 170.84630738501437,157.20758990512695 168.21157684619538,156.9858207948855 165.76846307353117,154.10281415190548 166.1996007983107,151.60789225180633 166.48702594800852,153.60383068514057 164.66666666674428,154.6572396902484 165.1936127746012,153.77015855815262 164.85828343313187,154.8790097478195 166.1996007983107,153.93648638034938 166.39121756493114,151.4970065690577" stroke="#4dd2ff" stroke-linecap="round" stroke-linejoin="round" stroke-width="0.5"><title>2021-04-05 1.9km</title></polyline><polyline fill="none" points="30.207817497779615,182.98080966580892 29.266667880117893,183.45463639320224 29.634943817392923,182.8860442044388 30.289656594977714,182.8860442044388 30.432875015074387,182.48329056272632 29.696323140291497,186.86616032636084 28.12092051934451,188.00332384752983 28.039081422029994,188.66666666667152 27.977702099247836,188.00332384752983 29.75770246319007,186.9372332093626 30.35103591787629,184.61550779447134 30.760231403866783,180.9196521652775 29.737242688890547,180.1852123185963 27.52758706465829,179.78245399832667 26.21816150948871,180.8011942824378 23.47655175346881,181.5830151939881 18.484366824501194,184.59181659929163 17.584136755322106,183.14664913022716 16.54068826616276,183.5967842231039 16.049653682974167,183.40725376390037 13.185285281040706,171.11113506062247 13.021607086760923,168.86033000489988 14.474251061910763,175.4468349579547 14.924366096500307,175.63637190662848 20.18252809124533,173.24345659044047 24.23356340243481,171.94037353516615 26.770575415575877,170.5188200535049 30.330576143576764,167.65199409011984 32.43793289642781,164.66666666667152 33.645059579983354,165.28268975061656 33.50184115988668,165.47223498644598 33.01080657669809,165.30638291353534 33.29724341689143,165.06945117555733 33.29724341689143,165.44854184043652 33.42000206268858,164.80882598481548 32.72436973650474,165.02206479890447" stroke="#4dd2ff" stroke-linecap="round" stroke-linejoin="round" stroke-width="0.5"><title>2021-04-05 3.7km</title></polyline><polyline fill="none" points="48.05607476644218,167.96479688893305 51.8691588784568,170.99532444373472 55.00934579502791,179.74050047801575 55.08411214966327,184.15634723333642 56.80373831791803,183.81000714126276 58.523364486172795,185.3685364444391 62.4112149537541,182.51123053743504 66.0,183.46366690756986 58.672897196374834,181.73196362162707 58.672897196374834,184.58927215024596 59.04672897234559,180.60635459242621 58.89719626167789,184.76244205527473 59.12149532698095,183.37708182726055 56.1308411215432,183.98317720502382 58.1495327106677,182.68440086598275 59.19626168254763,184.58927215024596 57.327102803625166,183.37708182726055 58.672897196374834,183.03074141714023 58.37383177597076,184.6758571070386 59.19626168254763,184.6758571070386 58.22429906576872,182.94415629241848 59.94392523355782,185.10878175927792 58.22429906576872,183.5502519790898 58.37383177597076,182.16488977428526 59.644859813153744,184.15634723333642 58.448598131071776,182.25147497816943 56.42990654241294,182.16488977428526 55.532710280269384,184.41610221005976 55.7570093460381,183.29049673810368 51.94392523402348,180.43318384024315 53.439252336509526,174.89170112536522 51.94392523402348,175.49780255829683 52.0186915891245,173.24656648462405 47.6074766353704,170.82215173193254 42.0,171.34166976157576 45.14018691610545,172.46729106886778 46.18691588798538,175.4112166656414" stroke="#4dd2ff" stroke-linecap="round" stroke-linejoin="round" stroke-width="0.5"><title>2021-04-04 1.4km</title></polyline><polyline fill="none" points="87.48230912466533,165.92331384605495 80.04096834268421,169.31194172642427 72.86778398510069,177.6294205042068 79.63873370597139,185.0996731024934 83.59404096845537,180.6329327217536 88.21973929251544,178.70760570722632 88.35381750483066,176.16616677481215 92.64432029798627,173.00860990548972 86.34264432033524,164.99914005200844 81.04655493493192,168.54180031851865 72.66666666674428,178.09150005935226 79.50465549342334,184.25253465009155 83.52700186218135,179.55475017882418 90.09683426446281,178.4765661461861 92.04096834291704,177.0133140052203 93.04655493493192,173.16263736621477 92.77839851030149,172.4695135531365 91.97392923687585,174.009787856834 89.62756052147597,175.16499158990337 89.56052141543478,174.47186955524376 96.66666666674428,169.77402620657813 94.05214152717963,168.38777194573777 91.30353817506693,164.99914005200844 89.76163873355836,167.54061535175424 85.06890130368993,165.53824156482005 75.81750465533696,173.85576056333957 72.93482309090905,177.93747357139364 79.63873370597139,184.25253465009155 83.59404096845537,180.093841636437 84.19739292375743,180.5559197324328 82.52141526993364,182.8663061078987 91.70577281201258,184.79162286262726 94.65549348271452,188.3341932813637 88.42085661063902,176.9363006585627 89.09124767244793,174.85693742817966 92.37616387358867,172.08444450248498 88.75605214154348,169.85104025981855 86.74487895728089,166.0003282794496 85.33705772832036,165.4612270858488 84.13035381748341,166.30838593712542 84.7337057730183,166.8474865454482" stroke="#4dd2ff" stroke-linecap="round" stroke-linejoin="round" stroke-width="0.5"><title>2021-04-02 3.1km</title></polyline><polyline fill="none" points="118.05673758860212,185.9416271655209 115.24822695041075,184.96406437354744 109.95035460987128,184.86630788222828 104.20567375898827,184.10869376675691 103.71631205675658,183.64434848650126 103.33333333337214,181.32260903154383 103.88652482267935,180.882698051646 105.03546099294908,180.83381900558015 103.9929078015266,177.58334080473287 104.24822695041075,173.18412945981254 105.84397163125686,170.91117299090547 106.48226950364187,169.3714164375997 109.52482269506436,167.26951109002403 110.75886524829548,168.61375493775995 111.9078014184488,168.85816212632926 112.50354609929491,169.56694160972256 115.01418439717963,169.56694160972256 118.88652482267935,170.17795677811955 120.75886524817906,171.15557791299943 123.8652482269099,173.91733677549928 126.80141843960155,179.00084782007616 126.88652482267935,179.66071900905808 126.20567375875544,180.2472697016492 125.92907801421825,181.17597212498367 126.52482269494794,181.1515326321387 127.33333333337214,183.22888091907953 126.80141843960155,184.3286464905832 124.95035460987128,184.67079478390224 124.5035460991785,185.23289452583413 123.46099290763959,184.71967307289015 123.01418439717963,184.91518613271182 121.9078014184488,184.5730381768808 121.37588652479462,186.063822243319 121.20567375887185,185.89274911752727" stroke="#4dd2ff" stroke-linecap="round" stroke-linejoin="round" stroke-width="0.5"><title>2021-04-02 3.2km</title></polyline><polyline fill="none" points="136.51458885939792,174.63754334743135 144.63129973469768,178.2570642408682 149.02387267898303,178.22050360037247 151.69761273206677,178.84203399711987 155.29442970827222,177.96457901661051 158.0,178.00113968213554 151.88859416439664,178.80547341448255 149.2148541114293,178.18394295641338 144.88594164454844,178.40330676650046 139.2838196286466,176.7946358115587 134.0,174.49129933625227" stroke="#4dd2ff" stroke-linecap="round" stroke-linejoin="round" stroke-width="0.5"><title>2021-04-01 1.4km</title></polyline><polyline fill="none" points="164.66666666674428,173.6437870437221 167.37697763252072,176.39597093625343 170.55864702700637,177.07273493081448 174.29023458831944,179.01278616627678 179.3966175671667,178.92255140753696 182.2247681398876,179.68954628962092 188.66666666674428,178.92255140753696 184.1494817242492,179.59931166438037 178.68957992387004,178.78719923607423 173.81887615961023,179.01278616627678 166.51282051298767,177.02761736226967 165.76650300086476,176.62155904562678 166.6306601203978,176.2606180171133" stroke="#4dd2ff" stroke-linecap="round" stroke-linejoin="round" stroke-width="0.5"><title>2021-03-29 1.2km</title></polyline><polyline fill="none" points="22.895675260107964,215.33333333331393 21.77721573947929,209.0264548745472 20.99915694235824,208.8032012556214 17.206120307091624,203.33346016710857 14.677429216681048,203.1102043093415 22.555274536367506,191.33333333331393 25.18122297618538,192.9519698934746 30.335862506413832,198.1985532239778 29.800947083625942,201.93810961558484 31.98923745006323,214.77520532213384 25.035336951958016,210.14272165170405 22.50664586131461,209.64040187356295 22.263502487447113,210.70085421728436" stroke="#4dd2ff" stroke-linecap="round" stroke-linejoin="round" stroke-width="0.5"><title>2021-03-28 1.4km</title></polyline><polyline fill="none" points="53.70461538457312,198.9861563750601 55.07076923060231,199.79198436369188 55.403076922986656,199.11339247366413 56.732307692291215,199.02856841208995 57.0276923077181,198.34997531719273 57.43384615378454,198.81650818500202 58.061538461595774,198.34997531719273 60.0184615382459,199.45268855261384 61.16307692299597,198.60444785331492 64.52307692286558,199.62233649153495 64.30153846158646,198.7740961269883 65.88923076912761,198.94374433389748 64.7076923076529,198.51962369136163 65.00307692307979,197.84102979316958 65.07692307676189,198.7740961269883 64.8923076922074,198.34997531719273 64.48615384614095,198.9013322883984 64.55999999982305,198.22273899259744 65.07692307676189,198.94374433389748 64.52307692286558,198.7740961269883 65.63076923065819,198.64685992800514 65.63076923065819,199.07098044487066 65.15076923067681,198.47721160401125 64.37538461526856,198.9013322883984 65.92615384608507,198.64685992800514 65.4461538461037,198.26515110500623 65.29846153850667,199.5375125304854 64.63384615373798,198.9861563750601 64.55999999982305,199.45268855261384 65.48307692282833,198.8589202388539 65.07692307676189,198.9013322883984 66.0,200.04645604634425 65.88923076912761,198.81650818500202 65.33538461546414,198.9013322883984 65.63076923065819,199.49510054357233 64.8184615385253,199.74957240201184 64.7076923076529,199.2830405466084 64.264615384629,199.91922022381914 62.71384615381248,199.70716043608263 62.71384615381248,198.8589202388539 63.083076922921464,206.1537312491855 58.91076923068613,207.0867795442755 55.51384615385905,205.98408588720486 55.77230769232847,206.53543306927895 54.73846153845079,205.98408588720486 48.756923076696694,205.6872063424671 45.76615384616889,206.5778443616291 45.50769230769947,208.10464810254052 44.80615384620614,208.65599256544374 42.406153846066445,208.8256368735165 42.0,208.1470592401165" stroke="#4dd2ff" stroke-linecap="round" stroke-linejoin="round" stroke-width="0.5"><title>2021-03-26 1.5km</title></polyline><polyline fill="none" points="75.20325203274842,201.81251697329571 82.81300813017879,204.9181878999807 85.48896631831303,204.72608540576766 87.83042973291595,205.23835847110604 91.20325203251559,204.5659999071213 92.54123112664092,204.72608540576766 96.66666666662786,203.25329584005522 93.01509872253519,204.72608540576766 88.30429732869379,205.11029028054327 85.82346109184437,204.598017013137 83.0638792103855,204.8221366670914 77.12659698026255,203.3813647631905 72.66666666662786,201.42830819558003" stroke="#4dd2ff" stroke-linecap="round" stroke-linejoin="round" stroke-width="0.5"><title>2021-03-26 1.6km</title></polyline><polyline fill="none" points="127.33333333325572,205.46288499992806 125.49971703463234,205.2288693258597 122.76966610061936,203.49714975003735 120.44708545552567,203.54395306500373 117.10582908871584,202.23345850370242 108.9564233161509,202.46747565513942 110.17883418221027,203.0759197085572 109.68986983573996,203.21632976384717 103.33333333325572,201.2037816666998 108.46745896991342,203.16952641663374 115.76117713632993,203.63755968090845 121.9954725522548,205.1352630238107" stroke="#4dd2ff" stroke-linecap="round" stroke-linejoin="round" stroke-width="0.5"><title>2021-03-24 1.1km</title></polyline><polyline fill="none" points="158.0,205.09373564532143 156.27173913037404,204.98137004452292 154.57608695654199,203.70789091230836 151.8695652174065,203.2584266694903 149.65217391308397,202.24713017840986 142.8695652175229,202.39695205065073 143.4565217392519,203.03369434861816 138.14130434801336,201.57293102133553 134.0,202.0973082469427 135.6304347825935,202.32204112189356 138.27173913037404,201.61038656151504 143.1630434783874,203.10860513712396 152.06521739135496,203.48315885741613" stroke="#4dd2ff" stroke-linecap="round" stroke-linejoin="round" stroke-width="0.5"><title>2021-03-23 1.3km</title></polyline><polyline fill="none" points="188.1879432622809,204.52473626405117 180.11347517720424,201.70203831864637 176.8262411346659,202.2519162229146 173.57092198578175,201.88533104374073 174.46453900705092,202.4718671569426 174.11347517720424,202.58184257516405 168.97517730481923,201.04218375941855 164.66666666662786,201.66537976264954 168.65602836874314,201.1155009905342 173.47517730493564,202.50852563322405 179.85815602832008,202.94842706737109 188.66666666662786,205.62448290723842 187.2304964538198,204.92797707766294 188.66666666662786,204.52473626405117" stroke="#4dd2ff" stroke-linecap="round" stroke-linejoin="round" stroke-width="0.5"><title>2021-03-22 1.6km</title></polyline><polyline fill="none" points="31.770976791507564,218.14841143561353 32.101504718186334,218.3801885118446 31.91787809226662,219.1176593613054 33.58888038771693,219.3705059260392 34.029584289644845,219.72870471603528 33.882682989002205,220.38188920516404 34.5437388420105,220.8243678904837 35.33333333337214,222.19393898942508 34.855904105934314,223.45815070543904 34.15812292776536,223.75313236725924 33.90104565164074,224.51165477823815 30.50395307317376,227.46143866167404 26.757969905622303,228.9152457992459 25.582759500015527,229.6737499606097 24.682989033404738,230.43225144047756 22.057128283544444,234.05616594743333 11.333333333372138,241.85158856437192" stroke="#4dd2ff" stroke-linecap="round" stroke-linejoin="round" stroke-width="0.5"><title>2021-03-21 1.3km</title></polyline><polyline fill="none" points="52.879385829437524,227.9149470893608 52.5747528510401,225.9669527692604 50.48584099917207,223.36960377107607 49.63722055929247,223.11985727556748 46.76496676285751,225.74218323256355 43.91447246493772,229.36344600263692 43.19640901591629,229.56323830796464 42.41306707134936,231.686021848378 43.74039647728205,233.58402505236154 46.895523753599264,235.08243861795927 50.311765011399984,237.85448041577183 50.115929525345564,238.00431965135795 50.572878992999904,237.95437324931845 50.1594485223759,237.7296143186977 50.68167648522649,238.60367570970266 51.83492990350351,239.97719467725256 56.208589093526825,242.0 58.47157693305053,241.77524464829185 63.80265405506361,238.0542660435458 64.52071750431787,236.5558700059919 65.58693292876706,231.76094329636544 64.52071750431787,229.91287446429487 60.538729286636226,226.24167082174972 56.23034859204199,220.82217799444334 53.03170231857803,218.0 49.44138507312164,222.99498393567046 50.09417002694681,223.06990794697776 50.98630946362391,223.8940706126159 52.727069340180606,226.11679901654134 52.705309841781855,226.8160803351202" stroke="#4dd2ff" stroke-linecap="round" stroke-linejoin="round" stroke-width="0.5"><title>2021-03-20 3.7km</title></polyline><polyline fill="none" points="94.30213464703411,236.0431297798932 86.10509031172842,233.41767723709927 77.43513957317919,233.14607784088003 72.78489326755516,232.15021201319178 72.66666666674428,230.5206087247061 73.33661740552634,229.7963387389609 72.70607553375885,228.5741305462434 72.8637110015843,226.4465751867392 75.34646962233819,223.9568702201068 79.44499178999104,224.45481229404686 83.62233169120736,225.85810068633873 91.50410509039648,225.6770314575988 95.72085385886021,224.99802121304674 96.23316912958398,224.40954485506518 95.48440065677278,226.12970439574565 95.01149425283074,231.96914526695036 95.40558292297646,234.9567374458711 96.66666666674428,235.1830693942029" stroke="#4dd2ff" stroke-linecap="round" stroke-linejoin="round" stroke-width="0.5"><title>2021-03-19 1.6km</title></polyline><polyline fill="none" points="113.05955143086612,229.75482976532658 118.27532869309653,231.99343712747213 120.29853054927662,231.8655173312436 122.06187161640264,232.24927649278834 123.91802010836545,231.84419735790289 124.90177880902775,231.92947723883844 127.33333333337214,231.2045971783955 122.82289249822497,232.22795655720984 120.50270688335877,231.8655173312436 117.90409899468068,231.97211716671882 107.52822892507538,228.66749782467377 103.33333333337214,228.2197713181522 104.24284609442111,228.34769327173126 103.63031709205825,228.0918492888013 103.81593194126617,227.98524753988022 105.2266047950834,228.0705289432517 107.10131477192044,227.7507235072262 107.73240525915753,228.2197713181522 108.10363495745696,227.98524753988022 108.54911059560254,228.4116542201955 108.9389017787762,228.28373230446596 109.44006187166087,228.71013839599618 110.07115235889796,228.47561514966947 111.370456303237,229.41370660801476 111.63031709205825,229.09390315918426 110.96210363495629,228.0918492888013 110.70224284613505,228.1131696322991 110.79505027073901,228.83806005938095 112.0015467904741,229.43502682114195 112.50270688324235,228.24109164904803 112.78112915717065,228.81673978742037 113.15235885547008,228.75277895880572 112.76256767218001,228.8593803292897 112.9853054912528,228.79541951330611 112.44702242850326,228.04920859559206 113.24516628007405,227.98524753988022" stroke="#4dd2ff" stroke-linecap="round" stroke-linejoin="round" stroke-width="0.5"><title>2021-03-19 3.1km</title></polyline><polyline fill="none" points="144.0994307746878,242.0 143.96463863103418,241.5819668899494 143.70853355817962,241.53551869789953 143.3311155559495,241.8916211524338 143.78940884431358,239.27502340682258 143.614179057593,239.90982331692067 143.69505434378516,241.07103602134157 143.4389492708724,241.27231201659015 141.983194119588,241.24134649564803 141.8079643328092,240.312378027229 141.92927726206835,239.4917846403987 145.46083142544376,238.70215299149277 147.8331731534563,238.54732279067684 147.75229786732234,223.57452080208168 148.54757151479134,222.5525401474879 150.1920356671908,221.09698045144614 149.89549295115285,220.35371071797272 147.88709001097595,218.0" stroke="#4dd2ff" stroke-linecap="round" stroke-linejoin="round" stroke-width="0.5"><title>2021-03-18 2.7km</title></polyline><polyline fill="none" points="172.80629165726714,240.01956518460065 173.47821243066574,240.13606208558485 173.5796344341943,240.70398316152568 173.83318944304483,240.8496035983262 175.2023864906514,241.1262820326083 176.97727155248867,240.9660998443287 178.2070133452653,241.31558803094958 179.34801088500535,242.0 179.63959914509906,241.08259599846497 179.4747883894015,237.1944871921296 180.5270416760468,237.09255037779803 179.01838937349385,236.67023996847274 177.5604480727343,236.59742770684534 176.9138828002615,235.89842816797318 175.63343000569148,222.66049949197622 177.02798255422385,221.02934141110745 178.01684708864195,220.46134463319322 177.30689306394197,219.19426702002238 176.08982902159914,218.0" stroke="#4dd2ff" stroke-linecap="round" stroke-linejoin="round" stroke-width="0.5"><title>2021-03-17 2.8km</title></polyline><polyline fill="none" points="12.141843971796334,255.37146607381874 12.439716312102973,255.37146607381874 13.929078014334664,256.00685986105236 14.354609929025173,256.5445001217304 18.780141843948513,257.76640763587784 23.460992907872424,258.40179835271556 25.035460992949083,258.30404598792666 26.141843971796334,258.54842686414486 26.695035461103544,258.74393147826777 28.907801418565214,259.0860643675842 30.737588652642444,259.819205478183 31.333333333255723,259.9658335701097 32.354609929258004,260.50346953613916 33.205673759104684,261.0411049188406 33.546099290950224,261.13885674398625 33.929078014334664,261.3343603363901 34.86524822702631,261.57873971844674 35.33333333325572,261.529863851727 35.290780142182484,261.529863851727 35.290780142182484,261.529863851727 35.163120567565784,261.57873971844674 35.24822695041075,261.529863851727 35.290780142182484,261.529863851727 35.33333333325572,261.57873971844674 35.078014184487984,261.529863851727 34.524822695180774,261.529863851727 32.65248226956464,261.57873971844674 31.375886525027454,261.187732649385 30.141843971796334,260.94335307451547 28.907801418565214,260.84560121089453 27.673758865334094,260.89447714498965 27.035460993181914,260.94335307451547 25.801418439950794,261.0411049188406 25.248226950410753,261.0411049188406 23.333333333255723,260.89447714498965 22.737588652642444,260.7478493277449 21.588652482256293,260.45459356327774 20.992907801410183,260.1613376252644 19.843971631256863,259.7703294377425 19.248226950410753,259.57482522845385 16.822695035487413,259.0860643675842 15.248226950410753,258.45067452805233 15.120567376026884,258.15741740423255 15.631205673795193,258.059664991044 15.843971631256863,258.059664991044 16.014184397179633,257.86416010701214 15.843971631256863,257.81528387381695 15.418439716333523,257.7175313931657 15.205673758871853,257.66865514568053 15.078014184487984,257.6197788932768 14.822695035487413,257.6197788932768 14.652482269564644,257.5220263740339 14.439716312102973,257.5220263740339 14.226950354641303,257.5220263740339 13.929078014334664,257.42427383561153 13.716312056872994,257.32652127789333 13.588652482256293,257.2776449917292 13.163120567332953,257.0332634889346 13.035460992949083,256.93551085403305 12.822695035487413,256.78888186544646 12.695035461103544,256.6911291824945 12.567375886486843,256.5445001217304 12.397163120564073,256.34899463987676 12.099290780257434,256.1046126791625 11.843971631256863,255.95798344479408 11.716312056872994,255.8602305977838 11.503546099411324,255.61584839606076 11.418439716333523,255.17596012924332 11.418439716333523,254.78494800877525 11.375886525027454,254.5405652767222 11.333333333255723,254.34505900435033 11.460992907872424,253.95404622837668 11.418439716333523,253.4164031575201 11.418439716333523,253.17201975075295 11.375886525027454,253.025389648712 11.460992907872424,252.87875950351008 11.418439716333523,252.8298827788094 11.460992907872424,252.48774557063007 11.503546099411324,252.24336170579772 11.716312056872994,252.1944849184365 12.141843971796334,252.047854527249 12.354609929025173,251.95010090901633 12.482269503641874,251.901224092755 12.737588652642444,251.80347044570954 12.780141843948513,251.80347044570954 12.780141843948513,251.7545936148672 12.822695035487413,251.7545936148672" stroke="#4dd2ff" stroke-linecap="round" stroke-linejoin="round" stroke-width="0.5"><title>2021-03-02 1.4km</title></polyline><polyline fill="none" points="46.40930232568644,257.0192949818447 46.68837209325284,257.14751012885245 49.7581395348534,257.7244779780158 51.71162790711969,258.42966020910535 52.437209302326664,258.75019733409863 54.390697674360126,259.26305640512146 55.1162790695671,259.26305640512146 57.18139534885995,259.1348416755209 57.851162790553644,258.9425195331569 59.916279069613665,258.81430474005174 61.199999999953434,259.26305640512146 61.86976744187996,259.5194857890601 63.04186046519317,259.9682369673392 64.15813953476027,260.1605588060338 65.5534883721266,260.0323442533263 65.77674418571405,259.90412967524026 66.0,260.0323442533263 65.94418604648672,260.92984559212346 64.93953488371335,261.1862743184902 64.10232558147982,261.8914527941961 63.71162790665403,262.0196669806028 63.320930232293904,262.1478811414563 63.097674418473616,262.1478811414563 62.76279069739394,262.2119882122497 62.53953488380648,262.34020233515184 61.7581395348534,262.66073753195815 61.86976744187996,262.98127257061424 62.260465116240084,263.23770048783626 62.260465116240084,263.30180745141115 62.260465116240084,263.3659144084668 62.316279069753364,263.30180745141115 62.0372093024198,263.23770048783626 61.70232558134012,263.3659144084668 61.59069767454639,263.430021359236 61.479069767287,263.49412830383517 61.42325581377372,263.5582352419733 61.42325581377372,263.5582352419733 61.199999999953434,263.23770048783626 61.088372093159705,263.1094865418272 60.920930232387036,262.9171655756072 60.86511627887376,262.78895156644285 60.30697674420662,262.66073753195815 60.083720930153504,262.66073753195815 59.80465116281994,262.66073753195815 59.52558139548637,262.59663050534436 59.19069767440669,262.59663050534436 58.911627906840295,262.59663050534436 58.35348837194033,262.4684164330247 58.07441860460676,262.4043093872606 57.795348837506026,262.34020233515184 57.5162790697068,262.2760952769313 56.95813953503966,262.1478811414563 56.734883720753714,262.0196669806028 56.45581395342015,261.95555989054265 56.17674418608658,261.8273456916795 55.89767441828735,261.69913146761246 55.674418604699895,261.50681008410174 55.17209302331321,261.25038148416206 54.66976744169369,260.99395278305747 54.2790697675664,260.60930954176 53.99999999976717,260.48109507758636 53.7209302324336,260.35288058791775 53.441860465100035,260.2246660730452 53.16279069730081,260.09645153285237 52.99534883745946,260.0323442533263 52.54883720935322,259.84002237650566 52.325581395300105,259.77591507171746 52.10232558124699,259.7118077604682 51.8790697674267,259.58359311922686 51.60000000009313,259.5194857890601 51.320930232526734,259.4553784526652 50.70697674411349,259.39127110975096 50.4837209302932,259.32716376066674 50.204651162726805,259.26305640512146 49.86976744164713,259.26305640512146 49.64651162782684,259.1989490434644 49.088372092926875,259.1348416755209 48.80930232559331,259.0066269203089 48.30697674420662,258.6219825030421 47.74883720930666,258.42966020910535 47.52558139525354,258.36555276514264 47.24651162791997,258.3014453150099 46.911627907073125,258.23733785835793 46.68837209325284,258.17323039547773 46.40930232568644,258.0450154504506 45.906976744066924,257.7885854851338 45.62790697673336,257.6603704644367 45.40465116268024,257.5321554184775 44.846511628013104,257.21161769295577 44.679069767473266,257.0834025585209 44.45581395342015,256.9551873988821 43.95348837203346,256.63464938878315 43.730232558213174,256.44232650694903 43.45116279064678,256.0576805724413 43.06046511628665,255.60892669460736 42.390697674360126,255.09606474050088 42.390697674360126,254.90374140365748 42.2790697675664,254.58320238190936 42.16744186053984,254.32677105080802 42.0,253.49336852622218 42.16744186053984,253.17282880924176 42.22325581382029,252.85228893422754 42.2790697675664,252.59585692029214 42.33488372107968,252.40353284351295 42.33488372107968,252.082992589043 42.33488372107968,251.24958718783455 42.33488372107968,250.67261359188706 42.94883720949292,250.4161807181663 43.39534883736633,250.1597477432806 43.786046511959285,250.03153121785726 44.06511627929285,249.96742294571595 44.17674418608658,249.83920638239942 44.95813953480683,249.77509809134062" stroke="#4dd2ff" stroke-linecap="round" stroke-linejoin="round" stroke-width="0.5"><title>2020-12-25 1.0km</title></polyline><polyline fill="none" points="73.02756892214529,253.89450938126538 73.29824561392888,254.15359080431517 73.52380952378735,254.41267209971556 74.02005012519658,254.72356948564993 75.95989974937402,255.24173138657352 76.99749373435043,255.5526282818755 77.674185463693,255.70807666069595 80.83208020031452,256.9516620343784 81.73433583951555,257.57345361763146 82.77192982449196,258.0397968219477 84.3057644108776,258.609771287709 84.89223057636991,258.71340294223046 85.97493734350428,258.71340294223046 86.60651629068889,258.71340294223046 87.68922305759043,258.50613961275667 88.68170426087454,258.4025079170824 89.80952380946837,258.45432376745157 90.44110275688581,258.4025079170824 92.20050125312991,258.71340294223046 92.7869674183894,258.9206661900971 93.91478696721606,259.1279293562402 94.54636591486633,259.0761135723442 95.674185463693,259.0242977833841 96.17042606533505,258.97248198935995 96.66666666674428,259.17974513507215 96.62155388458632,259.2315609086654 96.48621553904377,259.2833766771364 96.44110275688581,259.33519244065974 96.44110275688581,259.3870081988862 96.39598997496068,259.33519244065974 96.30576441111043,259.43882395204855 96.30576441111043,259.33519244065974 96.35087719326839,259.3870081988862 96.39598997496068,259.43882395204855 96.35087719326839,259.3870081988862 96.44110275688581,259.2833766771364 96.39598997496068,259.2833766771364 96.35087719326839,259.2833766771364 96.35087719326839,259.33519244065974 96.35087719326839,259.2833766771364 96.35087719326839,259.2833766771364 96.35087719326839,259.2833766771364 96.35087719326839,259.33519244065974 96.30576441111043,259.33519244065974 96.30576441111043,259.33519244065974 96.26065162895247,259.33519244065974 96.21553884726018,259.33519244065974 96.30576441111043,259.33519244065974 96.30576441111043,259.33519244065974 96.30576441111043,259.33519244065974 96.26065162895247,259.33519244065974 96.26065162895247,259.3870081988862 96.17042606533505,259.33519244065974 95.13283208012581,259.33519244065974 93.95989974937402,259.33519244065974 92.7869674183894,259.0761135723442 92.24561403505504,258.9206661900971 91.11779448622838,258.609771287709 90.5313283209689,258.50613961275667 89.31328320782632,258.50613961275667 88.72681704256684,258.45432376745157 87.50877192988992,258.55795545264846 86.24561403505504,258.71340294223046 85.65914786979556,258.71340294223046 84.44110275688581,258.66158711753087 83.80952380946837,258.50613961275667 80.96741854632273,257.57345361763146 80.38095238106325,257.36618983815424 78.7117794486694,256.9516620343784 78.26065162895247,256.89984603592893 76.45614035101607,256.58894993778085 75.41854636580683,256.12260544562014 74.83208020054735,255.81170888763154 73.70426065172069,255.18991521949647 72.66666666674428,254.82720190670807" stroke="#4dd2ff" stroke-linecap="round" stroke-linejoin="round" stroke-width="0.5"><title>2020-12-08 1.1km</title></polyline><polyline fill="none" points="103.33333333325572,254.1927825754683 103.56410256400704,254.23695931903785 105.1025641025044,255.42972974435543 105.6025641025044,255.6064362039324 107.56410256400704,256.18073171624565 108.48717948724516,256.4457909351331 108.9487179487478,256.6224969938339 110.02564102574252,257.02008537136135 110.98717948724516,257.5060262423358 111.48717948724516,257.81526106756064 113.9487179487478,258.65461165999295 114.48717948747799,258.69878796333796 116.02564102574252,258.52208272361895 116.48717948724516,258.47790640272433 118.91025641025044,258.52208272361895 119.41025641025044,258.5662590400607 120.91025641025044,259.00802196530276 122.4487179487478,259.14055075787473 122.91025641025044,259.09637449795264 123.91025641048327,259.14055075787473 125.4487179487478,258.91966941498686 125.91025641025044,258.8754931334115 126.87179487198591,258.7871405570768 127.33333333325572,258.7429642624629 127.14102564100176,258.389553748013 126.06410256400704,258.34537741405074 125.6025641025044,258.389553748013 124.64102564123459,258.65461165999295 124.2948717949912,258.7429642624629 123.2948717949912,258.96384569234215 122.83333333325572,259.00802196530276 121.87179487175308,259.00802196530276 121.37179487175308,258.91966941498686 120.41025641025044,258.7429642624629 119.94871794898063,258.61043535213685 118.4487179487478,258.34537741405074 117.9487179487478,258.34537741405074 116.9487179487478,258.389553748013 116.41025641025044,258.389553748013 115.41025641025044,258.47790640272433 114.41025641025044,258.52208272361895 113.4487179487478,258.47790640272433 112.52564102574252,258.25702473323327 112.06410256423987,258.124495679338 111.06410256423987,257.81526106756064 110.60256410273723,257.63855547926505 109.67948717949912,257.32932053203695 108.44871794851497,256.97590890232823 108.1025641025044,256.93173242907505 107.17948717949912,256.71084999712184 105.91025641048327,256.3132613452326 105.56410256423987,256.0482020480267 104.75641025649384,255.6064362039324 104.33333333325572,255.38555311851087" stroke="#4dd2ff" stroke-linecap="round" stroke-linejoin="round" stroke-width="0.5"><title>2020-12-03 1.3km</title></polyline><polyline fill="none" points="157.7464788730722,257.297592390154 157.95774647872895,258.07410980117857 158.0,258.3167712408176 157.2816901409533,258.7535615306988 156.05633802805096,258.7050292954664 154.36619718302973,258.4138357832271 152.76056338008493,257.73438358466956 152.21126760565676,257.6373189082078 149.08450704230927,256.4240088383376 147.9436619717162,256.2298789493507 146.21126760542393,256.27841142885154 145.02816901379265,256.2298789493507 144.18309859139845,256.2298789493507 143.6760563380085,256.2298789493507 142.53521126741543,256.1328139763791 142.15492957737297,256.0842814827338 140.8450704223942,255.9872164807166 140.33802816877142,255.93868397272308 138.56338028167374,255.79308641972602 138.0140845067799,255.6960213604325 136.91549295769073,255.59895628198865 135.4788732395973,254.96803280559834 134.92957746470347,254.77390234250925 134.0,254.57977180264425 135.05633802805096,254.8224349654629 135.98591549298726,255.25922835676465 136.91549295769073,255.6960213604325 137.46478873235174,255.74455389240757 138.85915492963977,255.89015145975281 139.28169014072046,255.93868397272308 140.38028169004247,256.0357489840826 140.92957746470347,256.0842814827338 142.0704225350637,256.0842814827338 142.57746478868648,256.1328139763791 143.71830985927954,256.2298789493507 144.2253521126695,256.2298789493507 145.78873239434324,256.27841142885154 146.29577464796603,256.27841142885154 147.05633802805096,256.1813464652805 147.30985915497877,256.1813464652805 147.47887323936448,256.1813464652805 147.64788732375018,256.1813464652805 147.81690140836872,256.1813464652805 148.02816901402548,256.1328139763791 148.2394366194494,256.1328139763791 148.66197183076292,256.1813464652805 148.83098591538146,256.1813464652805 149.21126760565676,256.32694390340475 149.59154929569922,256.5210737539164 149.549295774661,256.61813865049044 149.549295774661,256.66667109151604 149.50704225338995,256.66667109151604" stroke="#4dd2ff" stroke-linecap="round" stroke-linejoin="round" stroke-width="0.5"><title>2020-11-30 1.0km</title></polyline></svg>