<?xml version="1.0" encoding="utf-8" ?>
<svg baseProfile="full" height="300mm" version="1.1" viewBox="0,0,200,300" width="200mm" xmlns="http://www.w3.org/2000/svg" xmlns:ev="http://www.w3.org/2001/xml-events" xmlns:xlink="http://www.w3.org/1999/xlink"><defs /><rect fill="#222222" height="300" width="200" x="0" y="0" /><text fill="#FFFFFF" style="font-size:12px; font-family:Arial; font-weight:bold;" x="10" y="20">Over 3km Runs</text><text fill="#FFFFFF" style="font-size:4px; font-family:Arial" x="10" y="280">ATHLETE</text><text fill="#FFFFFF" style="font-size:9px; font-family:Arial" x="10" y="290">jdzj</text><text fill="#FFFFFF" style="font-size:4px; font-family:Arial" x="120" y="280">STATISTICS</text><text fill="#FFFFFF" style="font-size:3px; font-family:Arial" x="120" y="285">Number: 57</text><text fill="#FFFFFF" style="font-size:3px; font-family:Arial" x="120" y="290">Weekly: 3.4</text><text fill="#FFFFFF" style="font-size:3px; font-family:Arial" x="141" y="285">Total: 107.9 km</text><text fill="#FFFFFF" style="font-size:3px; font-family:Arial" x="141" y="290">Avg: 1.9 km</text><text fill="#FFFFFF" style="font-size:3px; font-family:Arial" x="167" y="285">Min: 1.0 km</text><text fill="#FFFFFF" style="font-size:3px; font-family:Arial" x="167" y="290">Max: 5.9 km</text><polyline fill="none" points="20.296946034766734,47.84171489946311 20.60416965337936,48.87092082289746 21.961073969257995,48.72389162276522 22.037879873882048,49.4884426719218 23.010754666407593,49.37081956115435 23.59959993546363,50.16477465824573 23.932425522478297,49.459036898537306 23.24117238027975,48.98854413081426 23.881221586023457,49.047355767397676 24.239649140974507,49.459036898537306 23.75321174482815,50.19418036195566 25.289329838124104,50.370614523562836 24.521270791534334,50.87051074774354 24.444464886910282,50.31180314795347 24.93090228305664,50.01774609601125 25.161319997161627,50.34120883716969 24.98210621951148,49.87071746139554 25.391737711033784,50.10596324206563 24.956504251342267,50.07655752968276 25.007708187797107,49.694283004064346 25.647757393307984,50.929322013049386 25.161319997161627,51.63505629316205 23.830017649452202,52.076139370095916 21.679452318814583,52.017328330897726 19.37527517869603,53.63462768352474 18.60721613210626,53.164141503715655 18.120778735843487,53.693438403715845 18.684022036730312,54.310950266430154 19.554488956346177,54.016897157998756 18.837633846094832,54.252139667834854 19.400877146981657,54.310950266430154 19.503285019891337,53.8110598095227 19.528886988176964,54.10511312086601 18.812031877809204,53.98749183118343 19.528886988176964,54.10511312086601 19.06805156019982,53.84046515368391 19.63129486097023,53.8110598095227 17.787953148945235,54.10511312086601 18.55601219565142,53.86987049502204 18.863235814264044,54.428571428579744 18.863235814264044,54.10511312086601 18.223186608753167,54.19332905783085 18.786429909639992,53.95808650145773 19.503285019891337,54.163923748390516 18.96564368705731,54.163923748390516 19.119255496538244,53.5758169516339 19.042449591914192,54.252139667834854 18.60721613210626,54.04630248178728 18.96564368705731,53.781654462451115 18.888837782549672,54.34035556128947 18.530410227365792,53.54641158133745 19.042449591914192,53.51700620815973 18.812031877809204,54.07570780284004 18.27439054509159,53.92868116887985 18.504808259080164,52.78187093610177 17.378321657306515,51.2821893619257 17.22470984805841,49.606065736181336 15.8934075004654,47.665279241715325 15.765397659386508,47.106565636524465 16.251835055532865,46.43022671388462 15.714193722931668,44.84229451874853 16.303038991987705,43.31316663484904 16.226233087247238,41.60759166706703 17.787953148945235,31.285714285739232 18.325594481662847,31.31512185142492 18.325594481662847,31.844457537081325 19.119255496538244,32.28556989048957 21.628248382243328,32.55023698936566 21.858666096348315,33.05016309054918 23.85561961773783,32.28556989048957 25.82697117095813,33.31482951072394 26.825447931536473,33.02075569608132 27.05586564564146,33.491273660212755 29.001615230576135,32.96194089832716 29.283236881019548,34.285271040920634 30.000091991154477,34.75578700948972" stroke="#4dd2ff" stroke-linecap="round" stroke-linejoin="round" stroke-width="0.5"><title>2021-06-08 2.7km</title></polyline><polyline fill="none" points="60.14285714295693,40.081922591954935 51.79934747167863,37.17648277845001 43.15381030063145,36.61273850098951 39.75600093230605,34.704675582877826 39.944768119370565,33.14352703597979 39.56723374500871,33.27362295993953 37.0,48.62467172124889 37.52854812401347,50.14240166492527 38.77441155910492,51.22649127457407 38.20810999767855,52.570758678310085" stroke="#4dd2ff" stroke-linecap="round" stroke-linejoin="round" stroke-width="0.5"><title>2021-06-08 1.1km</title></polyline><polyline fill="none" points="85.20566832635086,43.92615307710366 77.667177326628,41.03983765779412 73.72730754502118,41.78814386960585 71.12140942167025,41.574342252948554 70.65607047092635,42.00194535974879 66.6541554959258,40.71913452123408 62.714285714318976,41.28927323399694 66.15779394854326,40.57659970244276 70.53198008425534,42.00194535974879 76.95365760242566,42.28701381635619 81.82420528528746,44.03305320534855 85.82612026052084,45.137686011818005 85.85714285715949,44.7813532174041" stroke="#4dd2ff" stroke-linecap="round" stroke-linejoin="round" stroke-width="0.5"><title>2021-06-07 1.5km</title></polyline><polyline fill="none" points="103.65603000577539,52.95356307155453 103.47876794496551,47.91815803234931 102.06067145778798,47.053487589990254 98.20522163365968,41.967161615611985 95.45765968970954,42.526659920753445 100.02215775777586,37.44028943806188 103.65603000577539,31.285714285739232 96.52123205503449,41.76370753656374 98.02795957261696,41.7128440043889 99.1358474532608,42.628386820317246 103.43445242964663,47.81643217301462 103.47876794496551,52.851838202390354 104.54234031052329,54.428571428579744 103.56739897560328,53.86908599513117" stroke="#4dd2ff" stroke-linecap="round" stroke-linejoin="round" stroke-width="0.5"><title>2021-06-04 1.3km</title></polyline><polyline fill="none" points="128.061065007234,46.18905428718426 128.31197851651814,46.578999188161106 129.04995942633832,46.578999188161106 128.85808438976528,46.155145993107 129.25659408106003,45.96865025610896 128.81380553520285,46.03646691115864 128.90236324432772,45.426116052345606 128.44481508032186,45.22266528438195 128.43005546211498,45.47697870670527 128.90236324432772,45.985604422414326 128.9171228625928,46.66376970177225 128.29721889836947,46.612907398623065 127.8396707343054,46.03646691115864 127.92822844348848,46.324687396598165 127.38212257029954,46.4264121583692 126.7031801333651,45.22266528438195 125.93567998730578,44.42581412414438 123.32322756684152,42.57778338287608 123.02803520293674,41.0010074974125 123.33798718493199,39.4072623304819 124.78442976804217,37.01661686474108 126.14231464196928,35.91453505943355 127.52971875231015,34.286832079305896 127.58875722496305,32.96431205418776 127.0574109700392,31.930026479560183 126.59986280603334,31.624826267827302 126.11279540555552,32.09958191844635 125.97995884186821,31.67569300744799 126.18659349653171,31.658737429228495 125.90616075089201,31.607870684674708 126.09803578740684,31.641781849364634 125.95043960539624,31.980893128784373 126.02423769643065,31.70960415886657 125.74380495067453,31.913070926442742 125.96519922366133,31.760470873312443 125.77332418708829,31.70960415886657 125.83236265985761,31.913070926442742 125.28625678666867,32.32000373888877 125.90616075089201,31.980893128784373 125.67000685975654,32.13349298614776 125.75856456893962,31.794382007952663 125.56668953236658,32.21827062612283 125.56668953236658,31.913070926442742 126.11279540555552,31.57395951318904 126.37846853304654,31.946982030945946 126.26039158750791,32.065670844036504 126.67366089695133,32.09958191844635 126.2013531147386,32.32000373888877 125.59620876878034,31.50613715025247 126.26039158750791,31.607870684674708 126.27515120571479,31.285714285710128 125.30101640493376,32.33695925184293 126.14231464196928,32.32000373888877 126.14231464196928,32.09958191844635 125.53717029595282,32.16740404716984 126.37846853304654,31.57395951318904 125.6257280051359,32.065670844036504 125.92092036904069,32.04871530435048 126.03899731457932,31.913070926442742 125.72904533252586,31.760470873312443 125.81760304170894,32.065670844036504 126.27515120571479,31.82829313588445 126.14231464196928,32.08262638204906 126.15707426011795,31.879159815231105 125.95043960539624,31.980893128784373 126.03899731457932,31.7435153034603 126.33418967848411,31.72655973196379 126.23087235115236,32.13349298614776 126.46702624222962,31.811337572769844 126.09803578740684,32.26913719002914 126.28991082386347,31.980893128784373 126.05375693284441,31.336581125695375 126.48178586049471,31.54004833503859 125.81760304170894,32.09958191844635 126.09803578740684,32.21827062612283 126.27515120571479,31.997848675207933 126.15707426011795,32.26913719002914 126.42274738766719,31.624826267827302 126.26039158750791,32.150448517510085 126.43750700587407,32.37087027268717 126.18659349653171,32.116537453155615 124.04644885839662,34.3037873981375 126.68842051515821,31.845248697311035 128.59241126227425,33.371242376902956 129.4779883539304,34.69375926986686 128.60717088042293,49.74938793576439 123.20515062124468,49.8850182354945 122.11293887486681,50.1732322670141 121.95058307464933,52.59760175392148 122.51144856610335,53.00448558939388 123.70697763987118,52.733229806108284 124.23832389485324,53.30964783394302 123.79553534905426,53.66566976776812 124.59255473158555,53.76739018484659 124.74015091347974,54.05559770631953 124.71063167712418,54.42857142856519 124.44495854957495,54.072551074874355 124.29736236762255,54.15731789266283" stroke="#4dd2ff" stroke-linecap="round" stroke-linejoin="round" stroke-width="0.5"><title>2021-06-02 5.9km</title></polyline><polyline fill="none" points="146.5137940744171,53.734581433120184 148.58195097523276,51.83944584077108 151.78875605738722,47.51528395267087 154.55404449789785,41.74962727291859 155.73916811530944,37.34522342411219 155.71593039727304,31.285714285739232 156.18068475695327,31.712820697342977 156.41306193673518,36.3575593860005 154.78642167779617,42.470341076754266 152.9971173927188,46.63442768872483 150.11564036237542,50.90521918589366 146.4440809204243,54.428571428579744" stroke="#4dd2ff" stroke-linecap="round" stroke-linejoin="round" stroke-width="0.5"><title>2021-06-01 2.2km</title></polyline><polyline fill="none" points="188.71428571431898,44.43895533683826 188.24928240221925,44.973070665466366 178.30536542274058,41.80945450355648 171.47339368518442,42.014884853881085 170.9010819166433,42.54900329062366 166.46566570969298,40.987732089153724 165.57142857136205,41.02881824839278 165.60719805699773,41.48076573226717 166.42989622452296,40.7412150487944 171.40185471414588,42.795519261126174 180.41576506965794,43.083121042494895" stroke="#4dd2ff" stroke-linecap="round" stroke-linejoin="round" stroke-width="0.5"><title>2021-05-31 1.1km</title></polyline><polyline fill="none" points="23.95748833543621,80.35317377815954 24.42572045396082,76.53197312052362 25.221715055638924,77.12399188056588 28.124754189979285,76.53197312052362 29.10804163874127,75.4555737246992 29.85721302847378,72.28018310031621 31.589671866735443,72.92602676257957 30.559561206027865,72.49546440632548 31.07461653649807,71.74197946320055 30.980970112606883,73.03366729838308 31.07461653649807,71.68815907009412 31.027793324552476,73.6795100661111 29.529450545320287,72.17254241544288 34.30541815399192,74.80973306519445 29.43580412166193,72.97984703310067 30.60638441797346,72.44164408801589 29.99768266407773,70.66557059111074 29.529450545320287,73.30276854481781 30.980970112606883,71.95726098190062 30.46591478236951,71.09613439551322 31.776964714284986,73.03366729838308 32.385666468180716,72.76456591900205 30.653207629919052,73.57186965807341 29.061218427028507,72.81838620558847 31.35555580770597,72.6031050272868 29.763566604815423,72.2263627606444 28.592986308503896,76.04759365593782 24.09795797104016,76.80107263673563 24.23842760664411,78.84622461081017 22.365499132545665,80.29935423698043 22.45914555620402,81.21428571426077 23.161493733990937,80.19171513838228 21.10127241257578,74.5944526749663 11.408867560094222,58.071428571420256" stroke="#4dd2ff" stroke-linecap="round" stroke-linejoin="round" stroke-width="0.5"><title>2021-05-30 1.4km</title></polyline><polyline fill="none" points="37.840383080532774,67.3595998614328 41.16959297680296,69.25303945178166 47.24620909814257,71.51772919850191 50.0582601755159,71.25784746056888 53.613727055024356,71.92611442427733 59.59337589784991,71.0350915423769 60.14285714284051,70.58957931064651 59.528731045429595,71.0722175379342 53.83998403826263,71.7033589015191 45.920989624923095,71.18359550257446 40.652434158022515,69.77280551634612 37.0,67.87936854053987" stroke="#4dd2ff" stroke-linecap="round" stroke-linejoin="round" stroke-width="0.5"><title>2021-05-27 1.4km</title></polyline><polyline fill="none" points="85.8571428572759,71.30716074805241 82.95925465854816,71.16846956071095 77.08298136643134,68.94940498139476 68.1880745345261,68.62579051917419 62.714285714318976,67.146407274995 66.09515527985059,68.4408678690088 75.23155279504135,69.27301922018523 84.64968944108114,72.13930701074423 85.4144099378027,71.90815541925258" stroke="#4dd2ff" stroke-linecap="round" stroke-linejoin="round" stroke-width="0.5"><title>2021-05-25 1.1km</title></polyline><polyline fill="none" points="89.0657965313876,67.76313148642657 90.16645807260647,68.66141127340961 93.84498480230104,68.9941068837361 97.49454675486777,71.09008168370929 101.86822814214975,70.92373495304491 104.33023422129918,71.32296696866979 109.4859645984834,70.59104124593432 111.57142857136205,69.55968866829062 111.57142857136205,70.32488604378887 103.3454317896394,71.52258279928355 100.21723583049607,70.9902736552176 97.43661720003001,71.22315900909598 91.93330949393567,69.8923833926965 88.42857142852154,68.32871533487923" stroke="#4dd2ff" stroke-linecap="round" stroke-linejoin="round" stroke-width="0.5"><title>2021-05-24 1.6km</title></polyline><polyline fill="none" points="123.15780730894767,69.04398662465974 128.53986710950267,69.19853500591125 128.53986710950267,69.85536494641565 131.97093023255002,71.40084281517193 137.28571428568102,70.89856317659724 131.87001661129761,71.43947968372959 128.03529900324065,70.78265239932807 124.0323920265073,70.9758370090567 114.14285714284051,67.84623460200964" stroke="#4dd2ff" stroke-linecap="round" stroke-linejoin="round" stroke-width="0.5"><title>2021-05-21 1.1km</title></polyline><polyline fill="none" points="153.73074640578125,81.21428571428987 154.55580333410762,80.41944741623593 154.28965593792964,79.6246070797497 154.7154917718144,75.92551561951404 156.31237614923157,75.37523377873003 156.65836776443757,74.549809185497 158.57462901738472,75.00837867538212 162.5136104816338,74.45809520615148 162.3805367833702,72.6849529366009 161.04979980224743,69.81121805883595 158.3883258398855,66.08143731046584 156.47206458705477,64.27767477906309 153.41136953036766,62.473901748424396 149.0731669717934,61.86245088081341 147.47628259449266,61.22042617117404 145.13418550766073,61.55672499447246 142.2065641490044,59.81408168305643 141.64765461697243,58.07142857144936 140.34353237552568,58.530022445629584 140.4233765944373,59.5083537758037" stroke="#4dd2ff" stroke-linecap="round" stroke-linejoin="round" stroke-width="0.5"><title>2021-05-20 1.7km</title></polyline><polyline fill="none" points="165.68269230774604,67.66193113062764 165.57142857136205,65.29756686190376 170.5226648352109,64.40294029389042 188.32486263732426,64.78635183151346 188.71428571431898,73.47695248731179 187.6572802197188,74.2437645951286 178.64491758239456,73.47695248731179 177.5322802197188,74.2437645951286 170.68956043967046,74.88277399184881 166.7396978023462,74.3076655632467 165.84958791197278,73.54085353086703 165.84958791197278,66.89511123223929" stroke="#4dd2ff" stroke-linecap="round" stroke-linejoin="round" stroke-width="0.5"><title>2021-05-18 1.1km</title></polyline><polyline fill="none" points="11.285714285681024,97.21597172370821 12.186055323807523,98.06209703764762 16.58544903364964,99.9188615022722 19.347859037457965,99.84835172355815 21.209928002906963,100.27141008287435 24.422508525894955,99.895358245034 27.962485790019855,98.8612126311491 28.965138309868053,98.25012447715562 30.581659719580784,97.12195761447947 34.428571428521536,93.33785892695596 33.81470253877342,92.58573277427058 32.300492610782385,93.76092884450918 23.440318302367814,94.72458529734286 22.15119363379199,94.37202851056645 15.17355058726389,94.16049418812327 14.805229253368452,94.74808906455291 14.887078438769095,94.51305128788226 14.477832512231544,94.67757775592327 14.048124289372936,95.57071945742064 13.41379310330376,95.82925985152542 11.57218643417582,95.45320100369281 11.306176581885666,94.95962286536815" stroke="#4dd2ff" stroke-linecap="round" stroke-linejoin="round" stroke-width="0.5"><title>2021-05-10 2.5km</title></polyline><polyline fill="none" points="60.14285714284051,103.81901858469064 60.02762299939059,103.15720838669222 59.2401896858355,102.34097311219375 57.99181979848072,102.95866494542861 57.358032009447925,102.7601213279122 57.31962062837556,102.14242894631752 57.74214582098648,101.43649270702736 57.58850029646419,99.47309582488379 57.127563722548075,98.81127276693587 54.68844101962168,99.56133875134401 53.055957320611924,99.38485286370269 52.998340249061584,98.87745516083669 48.77308832248673,98.94363753523794 46.564433906343766,98.59066464568605 43.030586840584874,99.23042759775126 40.51464137528092,99.29660986764065 38.517249555443414,98.85539436506224 37.0,96.23014412712655 39.20865441614296,94.64174246491166 40.18814463540912,93.5607404375769 42.20474214584101,92.52385603210132 42.454416123218834,91.77376644400647 44.58624777710065,90.8251201264793 46.64125666860491,89.41317396903469 45.815411973861046,90.33976464046282 43.529934795573354,91.33253609923122 41.378897451097146,89.43523569629178 40.01529342029244,89.03812427243975" stroke="#4dd2ff" stroke-linecap="round" stroke-linejoin="round" stroke-width="0.5"><title>2021-05-08 2.6km</title></polyline><polyline fill="none" points="85.85714285704307,92.42594468028983 85.70563479070552,94.03570841200417 81.1603927987162,94.29675062579918 80.47860649996437,95.55845248090918 73.47135842870921,93.94869430654217 69.83516483521089,94.25324360097875 68.5094692541752,94.99286244047107 63.35819499660283,93.86168018370518 62.714285714318976,94.9058485236892 68.09282207139768,96.82015072734794 75.89548749127425,97.60327196161961 85.70563479070552,100.43119817684055" stroke="#4dd2ff" stroke-linecap="round" stroke-linejoin="round" stroke-width="0.5"><title>2021-05-08 1.3km</title></polyline><polyline fill="none" points="111.57142857147846,96.04076824750518 110.98825312627014,96.35806725875591 107.55058734375052,95.08886952380999 106.99810534308199,95.58244695627945 103.49905267148279,94.24273519671988 101.22773777949624,95.300402792549 96.28609321708791,95.6177024609351 93.12466843507718,94.59529140978702 89.93255020841025,95.15938062727218 88.82758620684035,94.9831028424378 88.42857142852154,94.41901334677823 93.55437665770296,94.63054701199871 96.5623342175968,95.97025731782196 101.47328533546533,95.82923541680793 111.38726790458895,98.6144076604105" stroke="#4dd2ff" stroke-linecap="round" stroke-linejoin="round" stroke-width="0.5"><title>2021-05-07 1.5km</title></polyline><polyline fill="none" points="114.24967032996938,100.87299825219088 114.14285714295693,100.25856752577238 115.85186813212931,99.68509802198969 116.56395604414865,97.9646847283002 125.50065934099257,92.63955049225478 128.34901098930277,93.45880638709059 129.0254945056513,94.35998599231243 129.8443956046831,92.35281054466031 129.5239560441114,91.98414460499771 129.5239560441114,93.37688087078277 129.34593406622298,92.92629024054622 128.66945054964162,94.48287396790693 129.55956043978222,93.45880638709059 128.70505494531244,94.35998599231243 129.1679120878689,92.84436461853329 128.84747252753004,94.44191131342086 129.63076923089102,93.74554556599469 131.09054945083335,93.9913218462898 133.2624175825622,93.21302978950553 135.25626373640262,93.29495533820591 137.28571428591385,94.48287396790693 135.96835164842196,93.58169463093509 134.36615384626202,93.37688087078277 130.62769230781123,94.27806065502227 128.77626373642124,93.09014143570676" stroke="#4dd2ff" stroke-linecap="round" stroke-linejoin="round" stroke-width="0.5"><title>2021-05-06 1.2km</title></polyline><polyline fill="none" points="145.6319200647995,98.53952947506332 146.6381312450394,96.37842561342404 153.8128544422798,91.05101413253578 156.83148798253387,87.83443682012148 160.8125843910966,85.72354691661894 162.3437753173057,87.18106707069091 162.99999999976717,102.00732813405921 162.16878206841648,97.58462424844038 150.1379962193314,104.16840810855501 146.9881177423522,101.15294514945708 141.08209559810348,104.369438337686 139.85714285704307,106.42999361036345 141.12584391026758,107.13359594051144 144.888198757777,103.61557456941227 146.2881447474938,100.3990766198549 145.5006751283072,99.2431427067495" stroke="#4dd2ff" stroke-linecap="round" stroke-linejoin="round" stroke-width="0.5"><title>2021-05-06 1.8km</title></polyline><polyline fill="none" points="179.59007832908537,92.84900994063355 181.6747482282808,92.22039148322074 181.88623647904024,91.55684853598359 179.4692279001465,90.57899344622274 179.77135397249367,90.64884033036651 179.40880268567707,91.03299793964834 181.19134651264176,91.73146522472962 182.76240208896343,91.48700183577603 182.24878776585683,93.75701235773158 183.8198433421785,92.88393315469148 183.75941812759265,93.54747355051222 184.3938828796381,93.51255040353863 186.7504662440624,95.39839528035372 188.47258485632483,95.78254760312848 188.50279746367596,96.76038794961642 187.95897053333465,97.52868913550628 188.71428571431898,101.02094569825567 188.07982096238993,102.27814941090764 171.2816113391891,100.28757475115708 166.59865721745882,100.91617851553019 165.57142857147846,101.68447045059293 166.29653114522807,100.9511009134003" stroke="#4dd2ff" stroke-linecap="round" stroke-linejoin="round" stroke-width="0.5"><title>2021-05-02 1.6km</title></polyline><polyline fill="none" points="18.375045208027586,117.69258625415387 20.015551537042484,118.37010346463649 22.007594936992973,116.67630915058544 29.917179023614153,115.3890226012445 33.43254972877912,116.81181285361527 34.42857142863795,119.18312321125995 33.19819168210961,125.9582493120688 23.237974683521315,129.48128774855286 11.988788426620886,131.03954882733524 11.285714285681024,129.8877909888397 16.148643761174753,115.93103829259053" stroke="#4dd2ff" stroke-linecap="round" stroke-linejoin="round" stroke-width="0.5"><title>2021-05-01 1.0km</title></polyline><polyline fill="none" points="48.03964041545987,122.26409568695817 46.6376534588635,124.50011985120364 44.55884521291591,120.1957652666024 44.65553396847099,118.63053709123051 46.34758719196543,116.00317981373519 49.00652797170915,114.88515164516866 55.87142962124199,114.99695456383051 59.88401297992095,111.64285714289872 54.80785330943763,115.2205603334587 42.86679198942147,113.59941645013168 41.85156005527824,114.10253057884984 39.869440564885736,118.35103159263963 39.192619275301695,128.74854079651413 38.37076485273428,131.43173716962337 37.403877296252176,131.82303555042017 37.258844163035974,134.78571428573923 38.03235420794226,134.39441800618079 38.37076485273428,132.54973180714296 39.67606305354275,118.01562480744906 41.41646065493114,116.28268650179962 42.14162632194348,116.7298969082185" stroke="#4dd2ff" stroke-linecap="round" stroke-linejoin="round" stroke-width="0.5"><title>2021-05-01 1.8km</title></polyline><polyline fill="none" points="82.30130037810886,121.11196604790166 81.49451258877525,121.2492628138425 80.17974730243441,122.19317514655995 78.58111223834567,122.12452714961546 78.29724246053956,122.46776686352678 78.34206400444964,122.14168915140908 77.26634695200482,122.50209079768683 74.72645946696866,122.17601314984495 73.23240800516214,122.3476330406993 72.78419256670168,122.10736514616292 71.15567647333955,122.41628094959015 67.48030987731181,122.50209079768683 63.81988379597897,122.12452714961546 62.71428571426077,123.06843473330082 62.78898828732781,123.39451070840005 67.09185649722349,124.23544066575414 67.55501245043706,124.09814625648141 68.40662178368075,124.54435269045644 70.6775800055475,124.57867621489277 72.09692889417056,125.12785168494156 72.70948999351822,124.93907281266002 74.32306557224365,125.31663035246311 74.72645946696866,125.62554045740399 75.72747394634644,125.74567201673926 75.99640320945764,125.53973214994767 76.72848842572421,125.88296512588568 77.63985981734004,125.72851037052169 79.16379230836174,126.17471262297477 79.29825693997554,125.76283366132702 79.62694826157531,125.72851037052169 80.23950936080655,126.05458135988738 80.44867656554561,125.5568938148208 81.34510744258296,125.07636655832175 82.42082449502777,123.99517537841166 83.6160656644497,123.53180567294476 84.24356727843406,122.77668202701898 85.2894033016637,122.45060489393654 85.85714285715949,121.66115246160189 85.5583325647749,120.75156152168347 85.09517661161954,120.25385880560498 84.15392419073032,120.85453431966016 82.71963478741236,120.76872365892632 82.62999169970863,121.31791115620581 80.61302222631639,122.31330907608208 81.03135663561989,122.70803426031489 81.31522641330957,122.5192527621839 82.28635986347217,123.25721563551633 83.0931476529222,123.1370823578327 83.15290971135255,122.93113940308103" stroke="#4dd2ff" stroke-linecap="round" stroke-linejoin="round" stroke-width="0.5"><title>2021-04-30 3.7km</title></polyline><polyline fill="none" points="111.388625592459,121.70248609929695 109.92620176030323,123.8022181186243 109.12186865275726,123.92820171057247 101.1516587678343,121.74448084121104 94.05890318215825,121.70248609929695 95.00947867310606,122.50038548643352 88.42857142863795,120.52663164533442 93.6932972241193,122.37440147198504 102.10223425878212,123.17229960003169 110.76709546381608,125.90193978321622 111.57142857159488,125.73396243099705 110.47461069747806,125.35601314654923" stroke="#4dd2ff" stroke-linecap="round" stroke-linejoin="round" stroke-width="0.5"><title>2021-04-29 1.4km</title></polyline><polyline fill="none" points="123.03632653062232,122.64475663279882 124.9208163266303,121.16354731083266 124.25959183683153,119.98617173204548 125.41673469368834,119.60637239000062 133.318367346772,112.04828753852053 134.2440816325834,111.93434542516479 137.28571428568102,115.4285548896878 133.41755102016032,117.93525083211716 133.84734693868086,117.9732309479441 131.433877550764,120.59384989988757 132.45877551008016,120.21405115746893 132.69020408159122,119.3405126275029 131.53306122438516,120.29001093588886 126.01183673460037,126.97441273592995 122.27591836743522,129.17720153386472 119.73020408151206,131.41795651457505 119.56489795912057,132.86114773136796 117.48204081633594,134.49422600341495 115.76285714295227,133.6207198825432 114.14285714284051,131.30402013548883 114.27510204084683,129.0632644915022 116.55632653064094,127.9998504689429 117.3828571428312,126.70855806296458 119.66408163262531,125.7210962412646 120.09387755102944,124.73363188607618 121.2179591836175,124.08798074553488 121.54857142851688,122.94859373787767 122.40816326532513,122.30293960290146 123.36693877540529,122.53081765663228 123.56530612241477,121.80920335714472" stroke="#4dd2ff" stroke-linecap="round" stroke-linejoin="round" stroke-width="0.5"><title>2021-04-26 2.2km</title></polyline><polyline fill="none" points="153.51112773024943,130.69669543372584 154.14220539759845,129.82668408052996 154.8742554913042,120.69140932091977 157.34807994682342,111.64285714286962 155.07620034494903,120.54640266939532 153.28393976995721,121.3874402520305 150.68389978120103,121.21343267383054 147.98288736562245,121.61945019592531 146.56927339115646,122.4894858536718 145.58479223016184,123.88153754669474 145.50906291021965,132.4077102462179 146.64500271121506,134.49571482351166 147.40229591168463,134.78571428571013 147.90715804544743,134.52471478260122 150.63341356790625,132.23370919501758 151.56740851525683,132.87171254580608 152.47616035607643,132.20470900976215 152.65286210284103,131.45070318930084" stroke="#4dd2ff" stroke-linecap="round" stroke-linejoin="round" stroke-width="0.5"><title>2021-04-25 2.2km</title></polyline><polyline fill="none" points="178.03710468532518,134.78571428571013 177.35465261351783,129.7031048243516 177.73117789451499,126.8103009412298 177.35465261351783,121.43014517583651 177.70764506445266,112.04841469859821 177.4252511037048,111.64285714284051 176.83693035203032,112.04841469859821 176.24860960035585,121.61939867961337 176.4839379010955,131.02783659030683 177.4252511037048,131.29818922482082 177.49584959377535,131.05487186581013 177.6135137443198,126.43180097659933 177.30758695327677,130.0275295226893" stroke="#4dd2ff" stroke-linecap="round" stroke-linejoin="round" stroke-width="0.5"><title>2021-04-18 2.2km</title></polyline><polyline fill="none" points="34.428571428521536,153.29425466191606 30.284076954470947,152.8753354504588 17.751125665265135,149.10504209555802 12.2140810478013,148.57186632679077 11.285714285681024,147.962521689391 17.883749488275498,147.88635354221333 19.342611543252133,146.70574533808394 22.194023741176352,148.00060575746465" stroke="#4dd2ff" stroke-linecap="round" stroke-linejoin="round" stroke-width="0.5"><title>2021-04-16 1.0km</title></polyline><polyline fill="none" points="60.14285714284051,151.85609610054235 59.465032875014,152.03683598682983 59.18664076505229,151.4668094044464 58.70248057378922,151.2721656532376 58.085176329885144,151.42510005178337 57.867304243845865,151.2443593810749 57.56470412429189,150.82726464112056 58.09728033468127,149.8818453278509 57.915720262913965,149.18668002246704 57.55260011955397,149.03374319522118 54.73236700537382,149.2283900375187 52.32367005379638,149.01983983903483 51.149581589968875,149.29790670175862 50.653317393909674,149.10325995543099 49.8544530782965,149.18668002246704 49.66078900179127,149.01983983903483 48.087268380098976,149.20058336216607 47.53048416017555,149.0059364814806 46.888971906737424,149.18668002246704 46.2474596532993,148.92251630745886 44.8918111177627,149.1727766814147 43.778242677799426,148.72786904277746 42.85833831439959,148.83909608410613 42.33786610880634,148.19953939794505 41.393753735756036,148.25515313800133 40.534369396278635,147.99098767715623 40.18335325765656,148.15782907845278 39.69919306633528,147.68511126183148 38.985056784236804,147.93537383283547 37.94411237293389,147.58778680866817 37.33891213388415,147.90756690247508 37.762552301282994,147.60169030608085 37.8593843394774,148.07440840247727 37.0,148.03269804599404 37.72624028689461,147.768532168222 37.37522414827254,147.85195302522334 37.750448296486866,147.82414607839019 37.447848176932894,147.9492772959784 37.64151225343812,148.15782907845278 37.435744172136765,147.99098767715623 37.72624028689461,147.89366343518486 37.64151225343812,147.74072520490154 37.39943215780659,147.82414607839019 37.48416019126307,148.03269804599404 37.8593843394774,147.87975996655587 37.6778242677683,147.81024260287813 37.65361625823425,148.00489113479853 37.750448296486866,147.7546286872821 37.61730424390407,148.00489113479853 37.70203227730235,147.81024260287813 37.762552301282994,147.96318075773888 37.580992229573894,147.46265527012292 37.68992827262264,147.82414607839019 37.629408248641994,147.58778680866817 37.65361625823425,147.82414607839019 37.41153616254451,147.64340079014073 37.4962641960592,147.51826930095558 37.580992229573894,147.64340079014073 37.39943215780659,147.7129182361241 37.64151225343812,147.83804955247615 37.447848176932894,147.7268217212113 37.6778242677683,147.51826930095558 37.50836820085533,147.81024260287813 37.3147041243501,147.81024260287813 37.50836820085533,147.44875175897323 37.32680812908802,147.5738833098876 37.61730424390407,147.82414607839019 37.41153616254451,147.69901474965445 37.447848176932894,147.82414607839019 37.50836820085533,147.7129182361241 37.56888822471956,148.29686342869536 37.447848176932894,149.60377961714403 38.621936640760396,149.8540387814719 38.71876867901301,150.07649099895207 39.77181709505385,149.97916819700913 40.37701733416179,150.20162021700526 45.2065152421128,150.41016866694554 49.97549312614137,151.0219090066821 52.26315002987394,151.10532793823222 53.2798864315846,151.32777818097384 54.4539748954121,151.92561146889057 56.29378362215357,151.71706526105118 56.487447698717006,152.0507390454295 56.74163179914467,151.93951453841873 58.47250448295381,152.3009938653704 58.77510460250778,152.55124824102677 59.31978481769329,152.4261211087287 59.48924088460626,151.9117083979363 59.97340107592754,151.71706526105118" stroke="#4dd2ff" stroke-linecap="round" stroke-linejoin="round" stroke-width="0.5"><title>2021-04-09 4.9km</title></polyline><polyline fill="none" points="85.38997338083573,151.23832400713582 78.13087843847461,149.1331830608833 77.30434782640077,148.34891215793323 72.20141969854012,148.76168650068576 68.50000000023283,148.39018961059628 69.1827861580532,148.80296391260345 68.8593611358665,148.96807351932512 62.714285714318976,147.5646397852979 67.81721384217963,149.09190568162012 75.14818101166748,149.71106594376033 85.318101153709,152.4353602147021 83.95252883783542,151.89875820017187 85.8571428572759,151.65109549998306 85.35403726715595,151.0319381080044" stroke="#4dd2ff" stroke-linecap="round" stroke-linejoin="round" stroke-width="0.5"><title>2021-04-09 1.4km</title></polyline><polyline fill="none" points="89.34902597405016,148.71620352956234 90.46672077930998,149.66018206757144 98.55357142863795,152.7564153354615 102.13676948053762,152.60538014720078 105.2597402598476,153.247279285657 111.04545454564504,152.60538014720078 111.57142857136205,151.96347993260133 109.23741883132607,151.35933757101884 106.44318181823473,151.92572106292937 103.55032467539422,150.8307122225524 101.15056818188168,151.01950707368087 97.07426948053762,148.9427585908852 96.54829545458779,147.96101902311784 94.21428571431898,147.05479564901907 92.43912337673828,146.75272071437212 88.42857142852154,147.7344633806788" stroke="#4dd2ff" stroke-linecap="round" stroke-linejoin="round" stroke-width="0.5"><title>2021-04-08 1.4km</title></polyline><polyline fill="none" points="137.13543599261902,150.9666435366671 137.28571428568102,151.76066637740587 135.33209647494368,151.7951890688273 130.16252319107298,150.0345274686406 122.3480519480072,149.65477576619014 118.23042671603616,148.20481093114358 114.14285714284051,148.8262251674023 118.02003710565623,148.37742610744317 122.13766233762726,149.62025286379503 129.80185528763104,149.96548173521296" stroke="#4dd2ff" stroke-linecap="round" stroke-linejoin="round" stroke-width="0.5"><title>2021-04-06 1.3km</title></polyline><polyline fill="none" points="146.92472198442556,146.52494646731066 149.83490162505768,145.61607050715247 151.03592814365402,146.5784097100841 151.03592814365402,147.5942102909321 150.25064157391898,148.02191521140048 151.63644140260294,149.5188796928851 153.06843455904163,149.67926849174546 154.91616766434163,148.8238609993714 156.9948674077168,146.20416689605918 158.8426005130168,146.8991890529869 160.36698032496497,145.99031373980688 162.95380667201243,146.31109344144352 162.95380667201243,143.04982402006863 162.67664670641534,145.02797346032457 161.1522668947,144.76065640343586 162.99999999976717,145.08143685548566 162.90761334449053,146.4714832189493 158.93498716829345,146.84572584263515 156.9948674077168,146.15070361521794 153.8537211290095,150.1069717159262 154.5928143709898,149.46541674912442 151.12831479869783,149.41195379995042 150.43541488423944,148.2357675412204 151.4516680922825,148.2357675412204 151.35928143700585,147.70113655360183 150.1582549184095,145.56260716635734 149.6501283145044,146.31109344144352 148.63387510669418,146.20416689605918 147.3404619328212,148.98425001028227 143.0444824632723,151.22969102376373 141.6586826343555,153.79589758103248 141.47390932380222,151.81778113287874 141.10436270269565,154.3305223705829 140.78100940934382,153.1543471161276 141.10436270269565,153.9562850750517 140.82720273686573,153.2612722479971 142.72112916992046,154.22359745617723 144.2455089816358,156.52247832308058 146.23182206973433,156.3620916121872 146.78614200139418,155.23938326479401 145.58511548303068,154.70475939969765 146.64756201859564,154.70475939969765 146.13943541469052,155.34630797273712 145.6775021380745,154.9186090110452 146.23182206973433,155.5601573230233 146.3704020527657,155.02553378406446 146.6013686908409,156.2551671109395 145.81608212110586,156.95017597993137 143.27544910134748,156.7363271950744 140.91958939214237,153.9562850750517 141.33532934077084,151.55046752851922 141.61248930660076,153.4751224463689 139.85714285704307,154.49090970132966 140.36526946094818,153.63551003823522 140.04191616736352,154.70475939969765 141.33532934077084,153.79589758103248 141.52010265155695,151.44354204868432" stroke="#4dd2ff" stroke-linecap="round" stroke-linejoin="round" stroke-width="0.5"><title>2021-04-05 1.9km</title></polyline><polyline fill="none" points="183.7718240156537,156.08863789202587 182.86428688431624,156.54554223630112 183.21941010956652,155.99725691141794 183.850740288035,155.99725691141794 183.98884376441129,155.60888732832973 183.27859731391072,159.83522602898302 181.7594590721419,160.93177656726039 181.6805427997606,161.5714285714348 181.62135559564922,160.93177656726039 183.3377845181385,159.90376059473783 183.9099274922628,157.6649539446662 184.30450885370374,154.10109315937734 183.31805544998497,153.3928833072132 181.18731609801762,153.00450921266747 179.92465574131347,153.98686591521255 177.28096061944962,154.74076465134567 172.46706800931133,157.64210886359797 171.59898901404813,156.24855451843177 170.59280654240865,156.68261335798888 170.11930890846997,156.4998518437642 167.35723937815055,144.64288023703557 167.19940683362074,142.47246107614774 168.60017066681758,148.82373370944697 169.03421016444918,149.0065014813881 174.1045806594193,146.69904742648941 178.01093613810372,145.4425030517741 180.4573405792471,144.07171933731297 183.89019842410926,141.3072800154623 185.92229243577458,138.42857142857974 187.08630745206028,139.02259368808882 186.9482039755676,139.2053694512142 186.47470634186175,139.04544066662493 186.75091329484712,138.81697077643184 186.75091329484712,139.1825224889908 186.8692877033027,138.56565362821857 186.19849938875996,138.77127677036333" stroke="#4dd2ff" stroke-linecap="round" stroke-linejoin="round" stroke-width="0.5"><title>2021-04-05 3.7km</title></polyline><polyline fill="none" points="17.125500667840242,168.39462557143997 20.80240320460871,171.31691999925533 23.8304405878298,179.74976831802633 23.90253671584651,184.00790626066737 25.560747663956136,183.67393545759842 27.2189586116001,185.17680299998028 30.96795727685094,182.42154373251833 34.42857142863795,183.3399645179743 27.363150868099183,181.67010777798714 27.363150868099183,184.4253695734078 27.723631509114057,180.58469907118706 27.579439252614975,184.5923548389692 27.795727637130767,183.256471761968 24.911882509943098,183.84092087624595 26.85847797105089,182.58852940646466 27.867823765147477,184.4253695734078 26.06542056100443,183.256471761968 27.363150868099183,182.92250065220287 27.07476635556668,184.50886221032124 27.867823765147477,184.50886221032124 26.9305740990676,182.83900785335572 28.588785046711564,184.92632526782108 26.9305740990676,183.4234572655405 27.07476635556668,182.0875722822966 28.300400534644723,184.00790626066737 27.14686248358339,182.1710651575122 25.20026702294126,182.0875722822966 24.335113484878093,184.25838427391136 24.551401869393885,183.17297899740515 20.87449933262542,180.41771298879758 22.316421896219254,175.07414037082344 20.87449933262542,175.65859532402828 20.94659546110779,173.48776053875918 16.692923898808658,171.14993202721234 11.285714285913855,171.6508958415361 14.313751669134945,172.73631638777442 15.323097463697195,175.57510178466327" stroke="#4dd2ff" stroke-linecap="round" stroke-linejoin="round" stroke-width="0.5"><title>2021-04-04 1.4km</title></polyline><polyline fill="none" points="51.28651237022132,166.42605263722362 44.110933758784086,169.69365809333976 37.193934557028115,177.71408405760303 43.72306464496069,184.91754192020744 47.53711093380116,180.61032798164524 51.99760574637912,178.753762646229 52.12689545121975,176.30308938998496 56.26416600146331,173.25830240885261 50.18754988024011,165.53488505014684 45.08060654439032,168.95102173567284 37.0,178.15966077148914 43.593774940120056,184.1006584125571 47.472466081380844,179.57065195811447 53.80766161205247,178.53097449807683 55.682362330611795,177.11998136213515 56.65203511575237,173.40682888880838 56.39345570630394,172.738459497632 55.61771747819148,174.22372400481254 53.355147645575926,175.33767046168214 53.29050279338844,174.66930278541986 60.14285714295693,170.1392395562725 57.621707901125774,168.80249437619932 54.97126895445399,165.53488505014684 53.484437350183725,167.98559337487677 48.95929768565111,166.05473293748219 40.03830806049518,174.0751976860338 37.2585794092156,178.01113522954984 43.72306464496069,184.1006584125571 47.53711093380116,180.09049014939228 48.118914604885504,180.5360654562246 46.50279329600744,182.76393803261453 55.35913806851022,184.62049347464927 58.20351157244295,188.03654352127342 52.191540303174406,177.04571849212516 52.8379888269119,175.04061823431402 56.00558659248054,172.36714291304816 52.51476456504315,170.21350310766138 50.57541899429634,166.50031655514613 49.21787709509954,165.9804689756129 48.05426975246519,166.79737215361092 48.636073424015194,167.31721916876268" stroke="#4dd2ff" stroke-linecap="round" stroke-linejoin="round" stroke-width="0.5"><title>2021-04-02 3.1km</title></polyline><polyline fill="none" points="76.91185410344042,185.72942619532114 74.20364741655067,184.78677636021166 69.09498480253387,184.6925111721357 63.555471124709584,183.96195470365637 63.083586626220495,183.51419318340777 62.714285714318976,181.27537299469986 63.24772036483046,180.8511731212202 64.3556231004186,180.80403975537047 63.35030395153444,177.66965006171085 63.59650455939118,173.42755340767326 65.13525835878681,171.23577395551547 65.75075987854507,169.75100870768074 68.68465045595076,167.72417140823381 69.87462006090209,169.0204065471189 70.98252279649023,169.25608490752347 71.55699088156689,169.939550837953 73.97796352591831,169.939550837953 77.71200607914943,170.52874403604073 79.5174772037426,171.47145013038244 82.51291793317068,174.13457474780444 85.3442249239888,179.03653182649578 85.426291793352,179.67283618729562 84.76975683891214,180.23843864086666 84.50303951371461,181.13397312052257 85.07750759879127,181.11040646670153 85.8571428572759,183.1135637434054 85.3442249239888,184.17405197306653 83.55927051673643,184.50398068447248 83.12841945292894,185.04600543562265 82.12310030392837,184.55111332028173 81.69224924023729,184.73964377082302 80.62537993921433,184.40971538484155 80.11246200604364,185.847257163201 79.9483282675501,185.68229379189142" stroke="#4dd2ff" stroke-linecap="round" stroke-linejoin="round" stroke-width="0.5"><title>2021-04-02 3.2km</title></polyline><polyline fill="none" points="90.85335354309063,174.8290596564475 98.68018188711721,178.31931194654317 102.91587722615805,178.28405704320176 105.49412656307686,178.88338992578792 108.96248579013627,178.03727262315806 111.57142857136205,178.07252755062655 105.67828722996637,178.84813507826766 103.10003789316397,178.2488021365425 98.9257294429699,178.4603315248387 93.523683213396,176.9091131039895 88.42857142852154,174.68803864566144" stroke="#4dd2ff" stroke-linecap="round" stroke-linejoin="round" stroke-width="0.5"><title>2021-04-01 1.4km</title></polyline><polyline fill="none" points="114.14285714295693,173.8707946492941 116.7563712883275,176.52468625994516 119.82440963294357,177.17728011184954 123.42272621020675,179.04804380319547 128.34673836827278,178.96103171439609 131.0738835632801,179.70063392212614 137.28571428591385,178.96103171439609 132.92985737673007,179.613621962053 127.66495206928812,178.83051354906638 122.96820201096125,179.04804380319547 115.92307692323811,177.13377388502704 115.20341360778548,176.7422176511318 116.0367079731077,176.39416737365536" stroke="#4dd2ff" stroke-linecap="round" stroke-linejoin="round" stroke-width="0.5"><title>2021-03-29 1.2km</title></polyline><polyline fill="none" points="151.0065440009348,188.3571428571595 149.92802946316078,182.27551005763235 149.17775847995654,182.06022978224792 145.52018743893132,176.7858365898137 143.08180674468167,176.57055415550712 150.67830044566654,165.21428571431898 153.2104650128167,166.7751138259191 158.1810102739837,171.8343191803433 157.66519897338003,175.44031998649007 159.77533611259423,187.81894798926078 153.06978920358233,183.3519101641723 150.63140850909986,182.86753037810558 150.39694882719778,183.89010942383902" stroke="#4dd2ff" stroke-linecap="round" stroke-linejoin="round" stroke-width="0.5"><title>2021-03-28 1.4km</title></polyline><polyline fill="none" points="176.85802197805606,172.59379364739289 178.17538461531512,173.37084206496365 178.4958241758868,172.71648559960886 179.7775824177079,172.63469096878543 180.06241758260876,171.98033334157662 180.45406593405642,172.43020432128105 181.05934065929614,171.98033334157662 182.94637362635694,173.0436639614636 184.05010989005677,172.2257175728446 187.29010989004746,173.20725304540247 187.07648351672105,172.38930697957403 188.60747252753936,172.552896321984 187.4681318681687,172.14392284522182 187.75296703306958,171.48956444341457 187.82417582417838,172.38930697957403 187.64615384628996,171.98033334157662 187.25450549460948,172.51199899238418 187.32571428571828,171.85764117143117 187.82417582417838,172.552896321984 187.29010989004746,172.38930697957403 188.3582417583093,172.26661493055872 188.3582417583093,172.67558828613255 187.89538461528718,172.1030254753132 187.14769230782986,172.51199899238418 188.64307692297734,172.26661493055872 188.18021978018805,171.8985385655542 188.03780219773762,173.125458511553 187.3969230770599,172.59379364739289 187.32571428571828,173.0436639614636 188.21582417562604,172.47110165888444 187.82417582417838,172.51199899238418 188.71428571431898,173.6162254732626 188.60747252753936,172.43020432128105 188.07340659340844,172.51199899238418 188.3582417583093,173.0845612384437 187.57494505494833,173.32994481621427 187.4681318681687,172.88007481282693 187.0408791208174,173.49353378725937 185.5454945054371,173.28904756339034 185.5454945054371,172.47110165888444 185.90153846144676,179.50538370455615 181.87824175832793,180.40510884625837 178.60263736266643,179.34179710550234 178.85186813189648,179.87345331680262 177.85494505497627,179.34179710550234 172.08703296701424,179.0555204016564 169.20307692326605,179.91434992014547 168.95384615380317,181.38662495600875 168.27736263745464,181.91827854525764 165.96307692304254,182.0818641280348 165.57142857136205,181.42752141010715" stroke="#4dd2ff" stroke-linecap="round" stroke-linejoin="round" stroke-width="0.5"><title>2021-03-26 1.5km</title></polyline><polyline fill="none" points="13.73170731717255,202.1049270813528 21.069686411181465,205.09968118922552 23.650074664037675,204.91443949838867 25.907914385315962,205.40841709711822 29.16027874557767,204.76007133896928 30.450472872005776,204.91443949838867 34.428571428521536,203.49424955999712 30.907416625181213,204.91443949838867 26.364858138374984,205.28492277048645 23.972623195615597,204.79094497693586 21.311597810010426,205.0070603575441 15.586361373774707,203.61774459303706 11.285714285681024,201.7344400457223" stroke="#4dd2ff" stroke-linecap="round" stroke-linejoin="round" stroke-width="0.5"><title>2021-03-26 1.6km</title></polyline><polyline fill="none" points="60.14285714295693,205.62492482137168 58.3747271404136,205.39926684994134 55.74217802565545,203.7293944018311 53.50254668924026,203.77452616984374 50.28062090696767,202.5108349857619 42.422265340574086,202.73649438176653 43.60101867560297,203.3232082904142 43.129517341731116,203.45860370088485 37.0,201.51793232149794 41.95076400670223,203.4134719017602 48.98399223852903,203.86478969233576 54.995634246850386,205.30900363012915" stroke="#4dd2ff" stroke-linecap="round" stroke-linejoin="round" stroke-width="0.5"><title>2021-03-24 1.1km</title></polyline><polyline fill="none" points="85.85714285715949,205.26895937227528 84.19060559000354,205.16060682866373 82.55551242246293,203.9326090940449 79.94565217394847,203.49919714560383 77.80745341617148,202.52401838634978 71.26708074542694,202.66848947745166 71.83307453431189,203.28249097903608 66.7076863355469,201.87389777059434 62.714285714318976,202.3795472381462 64.28649068321101,202.59625393897295 66.83346273296047,201.91001561292796 71.55007763986941,203.3547263822402 80.13431677024346,203.7159031839401" stroke="#4dd2ff" stroke-linecap="round" stroke-linejoin="round" stroke-width="0.5"><title>2021-03-23 1.3km</title></polyline><polyline fill="none" points="111.10980243142694,204.72028139748727 103.32370820653159,201.99839409301057 100.15387537982315,202.5286335006822 97.01481762900949,202.1751406493422 97.87651975674089,202.74072904419154 97.53799392085057,202.84677676894353 92.58320668665692,201.3621057680284 88.42857142852154,201.9630447711388 92.27545592689421,201.43280452661566 96.92249240109231,202.7760782892001 103.07750759867486,203.20026895785122 111.57142857136205,205.7807513748412 110.18655015178956,205.10912075347733 111.57142857136205,204.72028139748727" stroke="#4dd2ff" stroke-linecap="round" stroke-linejoin="round" stroke-width="0.5"><title>2021-03-22 1.6km</title></polyline><polyline fill="none" points="133.85058476321865,192.14311102720967 134.1693081209669,192.36661035072757 133.992239588988,193.07774295554555 135.60356323095039,193.32155928583234 136.02852770779282,193.66696526190208 135.88687288213987,194.29682173355832 136.52431959763635,194.72349760867655 137.28571428568102,196.04415545410302 136.82533610216342,197.26321675168583 136.152475680341,197.5476633541548 135.90457973547745,198.2790956790268 132.6288118918892,201.12353013805114 129.01661383744795,202.52541559214296 127.88337523210794,203.2568303191656 127.01573942496907,203.98824246047297 124.48365941620432,207.48273144933046 114.14285714284051,214.9997461156454" stroke="#4dd2ff" stroke-linecap="round" stroke-linejoin="round" stroke-width="0.5"><title>2021-03-21 1.3km</title></polyline><polyline fill="none" points="150.347979192622,201.56084183616622 150.05422596342396,199.68241874178057 148.03991810628213,197.17783220781712 147.2216055393219,196.93700523000734 144.4519322355045,199.4656766885455 141.70324130542576,202.95760864538897 141.01082297950052,203.1502655112563 140.25545753305778,205.19723535380035 141.53538231737912,207.02745272906031 144.5778264766559,208.472351524455 147.87205911811907,211.14539182948647 147.68321775645018,211.28987966380373 148.12384760030545,211.24171706182824 147.72518250369467,211.02498523588292 148.2287594678346,211.86783014863613 149.34082526399288,213.19229486734548 153.55828234006185,215.14285714285506 155.74044918536674,214.92612876798376 160.8811306959251,211.33804225626227 161.57354902196676,209.89316036291711 162.6016853241017,205.26948103576433 161.57354902196676,203.48741466199863 157.73377466911916,199.94732543524879 153.5792647136841,194.72138592321426 150.49485580716282,192.0 147.032764177653,196.81659165225574 147.66223538306076,196.88883980600804 148.52251269703265,197.68356809073885 150.2011025780812,199.82691333736875 150.18012020457536,200.5012203231454" stroke="#4dd2ff" stroke-linecap="round" stroke-linejoin="round" stroke-width="0.5"><title>2021-03-20 3.7km</title></polyline><polyline fill="none" points="186.43420126661658,209.39873228775105 178.52990851504728,206.86704590721638 170.16959887417033,206.60514648945536 165.68543279380538,205.64484729844844 165.57142857136205,204.07344412739621 166.21745249815285,203.37504092685413 165.60942997899838,202.1964830267534 165.76143560861237,200.14491178723983 168.15552427852526,197.74412485511857 172.10767065454274,198.22428328354727 176.1358198451344,199.57745423325105 183.73610133701004,199.40285176268662 187.80225193523802,198.7480918840156 188.296270232182,198.18063253883156 187.5742434905842,199.83935781021137 187.11822660081089,205.47024722173228 187.4982406757772,208.35113967995858 188.71428571431898,208.56938834444736" stroke="#4dd2ff" stroke-linecap="round" stroke-linejoin="round" stroke-width="0.5"><title>2021-03-19 1.6km</title></polyline><polyline fill="none" points="20.664567451225594,230.12072870226984 25.694066953961737,232.27938580149203 27.645011601038277,232.15603456941608 29.345376201556064,232.52608804662304 31.135233675828204,232.13547602368635 32.08385813725181,232.21771019458538 34.428571428521536,231.51871870773903 30.079217766062357,232.5055295373022 27.841895923251286,232.15603456941608 25.33609545917716,232.2588272678986 15.330792177701369,229.07223004521802 11.285714285681024,228.64049377107585 12.162744448170997,228.76384708344995 11.572091481648386,228.51714038562204 11.751077229040675,228.41434584201488 13.111368909478188,228.49658148099843 14.919124958571047,228.18819766766683 15.527676499797963,228.64049377107585 15.885647994698957,228.41434584201488 16.315213788533583,228.8255237123376 16.69108385813888,228.70217043644516 17.174345376319252,229.11334773898125 17.782896917546168,228.88720032288984 19.035797149525024,229.79178851486358 19.286377195850946,229.48340661777183 18.64202850521542,228.51714038562204 18.391448458773084,228.5376992882957 18.48094133241102,229.23670077153656 19.64434869075194,229.8123472918087 20.127610208815895,228.66105266156956 20.396088830078952,229.2161419378681 20.75406032486353,229.1544654245663 20.378190255258232,229.25725960324053 20.592973152175546,229.19558310210414 20.073914484586567,228.476022574323 20.843553198617883,228.41434584201488" stroke="#4dd2ff" stroke-linecap="round" stroke-linejoin="round" stroke-width="0.5"><title>2021-03-19 3.1km</title></polyline><polyline fill="none" points="46.73873681848636,241.9285714285652 46.608758679940365,241.52546807244653 46.361800216836855,241.48067874439585 45.997861428943,241.8240632541274 46.4397870998946,239.30091542800074 46.27081551979063,239.91304391274753 46.348802402906585,241.03278473486716 46.101843939803075,241.22687230171869 44.69808004389051,241.1970126922388 44.52910846378654,240.3012216691277 44.646088788460474,239.50993518896576 48.051516017410904,238.74850467036595 50.33913125516847,238.59920411957137 50.26114437205251,224.16114505915903 51.02801538928179,223.17566371365683 52.61374867911218,221.77208829247684 52.327796774334274,221.0553639066202 50.39112251059851,218.78571428571013" stroke="#4dd2ff" stroke-linecap="round" stroke-linejoin="round" stroke-width="0.5"><title>2021-03-18 2.7km</title></polyline><polyline fill="none" points="70.56320981233148,240.01886642799946 71.2111334152869,240.131202725388 71.30893320438918,240.67884090576263 71.55343267717399,240.8192606126686 72.87372983025853,241.0860576742998 74.58522613986861,240.93159627846035 75.77104858291568,241.2686027441232 76.87129621050553,241.9285714285652 77.15247060416732,241.04393185566005 76.99354594689794,237.29468407812237 78.00821875903057,237.19638786430005 76.55344689585036,236.78915996958676 75.14757492725039,236.71894814589177 74.5241012716433,236.04491287627025 73.28937893401599,223.27976736726123 74.63412603439065,221.70686493214453 75.58767397829797,221.15915375344048 74.90307545446558,219.93732891215768 73.72947798506357,218.78571428571013" stroke="#4dd2ff" stroke-linecap="round" stroke-linejoin="round" stroke-width="0.5"><title>2021-03-17 2.8km</title></polyline><polyline fill="none" points="89.20820668712258,229.1081994283304 89.49544072966091,229.1081994283304 90.9316109425854,229.72090058031608 91.34194528893568,230.23933940310962 95.60942249256186,231.41760736316792 100.12310030404478,232.03030555442092 101.64133738609962,231.93604434552253 102.70820668712258,232.17169733328046 103.24164133751765,232.3602196397551 105.37537993933074,232.69013349735178 107.13981762924232,233.39709099684842 107.71428571431898,233.53848237119382 108.69908814621158,234.05691705274512 109.51975683914497,234.57535117174848 109.8480243163649,234.66961186027038 110.21732522826642,234.85813318155124 111.120060790563,235.09378472852404 111.57142857159488,235.0466544284718 111.53039513714612,235.0466544284718 111.53039513714612,235.0466544284718 111.40729483310133,235.09378472852404 111.48936170246452,235.0466544284718 111.53039513714612,235.0466544284718 111.57142857159488,235.09378472852404 111.32522796373814,235.0466544284718 110.79179331334308,235.0466544284718 108.98632218851708,235.09378472852404 107.7553191492334,234.71674219763372 106.56534954416566,234.48109046471654 105.37537993933074,234.38682973908726 104.18541033449583,234.43396010412835 103.5699088149704,234.48109046471654 102.37993920990266,234.57535117174848 101.84650455927476,234.57535117174848 100.00000000023283,234.43396010412835 99.42553191515617,234.2925689946278 98.31762917945161,234.0097866503056 97.74316109437495,233.7270041386655 96.63525835890323,233.34996052924544 96.06079027382657,233.1614386131696 93.7218844986055,232.69013349735178 92.20364741655067,232.07743615205982 92.08054711273871,231.79465249695932 92.57294832845218,231.70039124137838 92.77811550162733,231.70039124137838 92.9422492403537,231.5118686746282 92.77811550162733,231.46473802119726 92.36778115504421,231.37047670056927 92.16261398186907,231.3233460333431 92.03951367805712,231.27621536140214 91.79331307020038,231.27621536140214 91.629179331474,231.18195400355035 91.42401215829886,231.18195400355035 91.2188449848909,231.18195400355035 90.9316109425854,231.08769262718852 90.72644376917742,230.99343123225844 90.60334346513264,230.94630052775028 90.19300911878236,230.71064693579683 90.06990881473757,230.61638546639006 89.86474164156243,230.47499322742806 89.74164133751765,230.380731711688 89.6185410337057,230.23933940310962 89.45440729497932,230.05081625989988 89.16717325244099,229.815162226354 88.92097264458425,229.6737697503413 88.79787234053947,229.57950807645102 88.59270516736433,229.34385381051106 88.51063829800114,228.91967583892983 88.51063829800114,228.54262843704782 88.46960486355238,228.30697365969536 88.42857142863795,228.11844975422719 88.55167173268273,227.74140172023908 88.51063829800114,227.2229601876461 88.51063829800114,226.9873047596775 88.46960486355238,226.845911447017 88.55167173268273,226.7045180926798 88.51063829800114,226.65738696529297 88.55167173268273,226.32746894311276 88.59270516736433,226.09181307346444 88.79787234053947,226.04468188565806 89.20820668712258,225.90328829412465 89.41337386029772,225.8090258765733 89.53647416434251,225.76189466088545 89.78267477219924,225.66763221553992 89.82370820688084,225.66763221553992 89.82370820688084,225.62050098579493 89.86474164156243,225.62050098579493" stroke="#4dd2ff" stroke-linecap="round" stroke-linejoin="round" stroke-width="0.5"><title>2021-03-02 1.4km</title></polyline><polyline fill="none" points="118.3946843855083,230.69717730395496 118.66378737566993,230.8208133385051 121.62392026581801,231.37717519310536 123.50764119625092,232.05717234447366 124.20730897015892,232.3662617150112 126.09102990035899,232.8608043906279 126.790697674267,232.8608043906279 128.7820598008111,232.7371687585255 129.42790697677992,232.55171526409686 131.41926910285838,232.42807957076002 132.65714285708964,232.8608043906279 133.30299003329128,233.1080755823059 134.43322259164415,233.5407999327872 135.50963455159217,233.7262531343731 136.85514950170182,233.6026176728774 137.0704318934586,233.47898218681803 137.28571428568102,233.6026176728774 137.23189368774183,234.4680653924006 136.2631229236722,234.71533594996436 135.45581395365298,235.39532948011765 135.07906976738013,235.5189645884093 134.70232558134012,235.6425996720791 134.48704318935052,235.6425996720791 134.1641196012497,235.70441720465897 133.94883720949292,235.82805225171614 133.19534883718006,236.1371397629846 133.30299003329128,236.44622712163255 133.6797342193313,236.6934968989226 133.6797342193313,236.75531432812568 133.6797342193313,236.81713175098412 133.7335548172705,236.75531432812568 133.4644518273417,236.6934968989226 133.14152823924087,236.81713175098412 133.03388704336248,236.87894916778896 132.92624584701844,236.94076657871483 132.87242524907924,237.00258398329606 132.87242524907924,237.00258398329606 132.65714285708964,236.6934968989226 132.54950166121125,236.56986202247208 132.388039866928,236.3844096621615 132.33421926898882,236.26077472476754 131.79601328913122,236.1371397629846 131.5807308969088,236.1371397629846 131.31162790698,236.1371397629846 131.0425249170512,236.0753222729545 130.71960132895038,236.0753222729545 130.45049833902158,236.0753222729545 129.91229235893115,235.95168727467535 129.64318936876953,235.88986976625165 129.37408637907356,235.82805225171614 129.1049833886791,235.76623473130167 128.5667774088215,235.6425996720791 128.35149501659907,235.5189645884093 128.08239202667028,235.45714703731937 127.81328903674148,235.33351191697875 127.54418604634702,235.20987677230733 127.32890365459025,235.02442400966538 126.84451827243902,234.77715357398847 126.36013289028779,234.52988304081373 125.9833887044806,234.15897705813404 125.71428571408615,234.03534168197075 125.44518272415735,233.91170628118562 125.17607973446138,233.7880708561279 124.90697674406692,233.66443540668115 124.74551495048217,233.6026176728774 124.31495016627014,233.41716443450423 124.09966777428053,233.35534667631146 123.8843853820581,233.29352891189046 123.6691029900685,233.1698933649459 123.4000000001397,233.1080755823059 123.13089700997807,233.0462577936123 122.53887043194845,232.9844399986323 122.32358803995885,232.9226221977733 122.05448504979722,232.8608043906279 121.7315614616964,232.8608043906279 121.5162790697068,232.7989865776035 120.97807308961637,232.7371687585255 120.70897009968758,232.61353310168488 120.22458471753635,232.24262598506175 119.68637873767875,232.05717234447366 119.47109634568915,231.99535445211222 119.20199335576035,231.9335365536972 118.87906976765953,231.87171864911215 118.66378737566993,231.80990073853172 118.3946843855083,231.6862648986862 117.91029900335707,231.438993146352 117.64119601342827,231.31535723357229 117.42591362120584,231.19172129634535 116.88770764134824,230.882631346758 116.72624584729783,230.75899532425683 116.5109634550754,230.63535927748308 116.026578073157,230.3262690534466 115.8112956811674,230.1408148459741 115.54219269100577,229.7699062662432 115.16544850496575,229.3371793125989 114.51960132899694,228.8426338568679 114.51960132899694,228.65717921062605 114.41196013311855,228.34808801108738 114.30431893724017,228.10081494186306 114.14285714295693,227.29717679315945 114.30431893724017,226.98808492318494 114.35813953494653,226.67899290082278 114.41196013311855,226.4317191730952 114.46578073129058,226.24626381340204 114.46578073129058,225.93717142514652 114.46578073129058,225.13353050255682 114.46578073129058,224.57716310647083 115.05780730908737,224.32988854963332 115.48837209306657,224.08261389529798 115.86511627933942,223.9589765315177 116.13421926926821,223.89715784048894 116.2418604651466,223.77352044015424 116.99534883722663,223.7117017309647" stroke="#4dd2ff" stroke-linecap="round" stroke-linejoin="round" stroke-width="0.5"><title>2020-12-25 1.0km</title></polyline><polyline fill="none" points="140.20515574654564,227.68399118908565 140.46616541361436,227.93381970419432 140.68367346934974,228.1836480961647 141.16219119215384,228.48344200401334 143.03276047250256,228.98309812278603 144.0332975294441,229.28289155758102 144.6858216971159,229.43278820853448 147.73093447904103,230.63195981888566 148.6009667024482,231.2315445598506 149.60150375938974,231.68123264974565 151.08055853913538,232.23085088460357 151.64607948437333,232.3307814085856 152.6901181526482,232.3307814085856 153.29914070875384,232.3307814085856 154.3431793767959,232.13092034086003 155.30021482286975,232.03098977720947 156.3877551020123,232.08095506147947 156.99677765835077,232.03098977720947 158.6933404940646,232.3307814085856 159.25886143930256,232.53064239761443 160.34640171844512,232.73050330785918 160.95542427524924,232.6805380876176 162.0429645543918,232.6305728625739 162.5214822771959,232.58060763261165 163.0,232.7804685231531 162.95649838866666,232.83043373338296 162.82599355559796,232.88039893869427 162.78249194426462,232.93036413923255 162.78249194426462,232.98032933467766 162.73899033293128,232.93036413923255 162.65198711073026,233.03029452520423 162.65198711073026,232.93036413923255 162.6954887220636,232.98032933467766 162.73899033293128,233.03029452520423 162.6954887220636,232.98032933467766 162.78249194426462,232.88039893869427 162.73899033293128,232.88039893869427 162.6954887220636,232.88039893869427 162.6954887220636,232.93036413923255 162.6954887220636,232.88039893869427 162.6954887220636,232.88039893869427 162.6954887220636,232.88039893869427 162.6954887220636,232.93036413923255 162.65198711073026,232.93036413923255 162.65198711073026,232.93036413923255 162.60848549939692,232.93036413923255 162.56498388852924,232.93036413923255 162.65198711073026,232.93036413923255 162.65198711073026,232.93036413923255 162.65198711073026,232.93036413923255 162.60848549939692,232.93036413923255 162.60848549939692,232.98032933467766 162.5214822771959,232.93036413923255 161.52094522025436,232.93036413923255 160.38990332977846,232.93036413923255 159.25886143930256,232.6805380876176 158.73684210539795,232.53064239761443 157.64930182602257,232.23085088460357 157.08378088078462,232.13092034086003 155.90923737897538,232.13092034086003 155.34371643397026,232.08095506147947 154.16917293239385,232.1808856150892 152.9511278194841,232.3307814085856 152.38560687447898,232.3307814085856 151.21106337290257,232.28081614905386 150.60204081633128,232.13092034086003 147.86143931257538,231.2315445598506 147.29591836733744,231.0316830582742 145.68635875405744,230.63195981888566 145.25134264212102,230.58199439183227 143.5112781955395,230.28220172572765 142.51074113836512,229.83251239400124 141.94522019336,229.53271928452887 140.85767991421744,228.93313253310043 139.85714285704307,228.58337326720357" stroke="#4dd2ff" stroke-linecap="round" stroke-linejoin="round" stroke-width="0.5"><title>2020-12-08 1.1km</title></polyline><polyline fill="none" points="165.57142857136205,227.97161176920054 165.7939560438972,228.0142107719148 167.27747252723202,229.16438225348247 167.75961538450792,229.33477776806103 169.65109890094027,229.88856272635167 170.54120879108086,230.1441555445781 170.98626373615116,230.31455067259958 172.02472527464852,230.69793946522987 172.9519230767619,231.16652530507417 173.4340659340378,231.46471602944075 175.8076923075132,232.27408981497865 176.32692307699472,232.31668839321355 177.81043956032954,232.1462940549245 178.25549450539984,232.10369545975118 180.59203296690248,232.1462940549245 181.07417582394555,232.18889264576137 182.52060439554043,232.61487832368584 184.00412087887526,232.74267394508934 184.44917582394555,232.70007540873485 185.41346153849736,232.74267394508934 186.89697802183218,232.5296812216111 187.34203296690248,232.48708266436006 188.26923076924868,232.4018855371687 188.71428571408615,232.35928696734481 188.5288461537566,232.01849825700629 187.49038461525925,231.9758996492601 187.04532967018895,232.01849825700629 186.11813186807558,232.27408981497865 185.78434065915644,232.35928696734481 184.82005494483747,232.5722797747294 184.37499999976717,232.61487832368584 183.4478021976538,232.61487832368584 182.96565934061073,232.5296812216111 182.03846153826453,232.35928696734481 181.59340659342706,232.23149123240728 180.14697802183218,231.9758996492601 179.6648351647891,231.9758996492601 178.70054945047013,232.01849825700629 178.18131868098862,232.01849825700629 177.21703296690248,232.10369545975118 176.2527472525835,232.1462940549245 175.32554945047013,232.10369545975118 174.43543956032954,231.8907024213113 173.99038461525925,231.76290654792683 173.0260989011731,231.46471602944075 172.58104395586997,231.29432135497336 171.69093406572938,230.9961305130273 170.50412087887526,230.65534072724404 170.17032967018895,230.61274198518367 169.28021978004836,230.39974821149372 168.05631868122146,230.01635915433872 167.72252747253515,229.76076626058784 166.9436813185457,229.33477776806103 166.53571428568102,229.12178336427314" stroke="#4dd2ff" stroke-linecap="round" stroke-linejoin="round" stroke-width="0.5"><title>2020-12-03 1.3km</title></polyline><polyline fill="none" points="34.1841046276968,257.75124980477267 34.38782696146518,258.50003445113543 34.42857142840512,258.7340294107853 33.73591549275443,259.15522004745435 32.55432595545426,259.108421106328 30.924547283444554,258.8276273623633 29.3762575450819,258.17244131377083 28.84657947672531,258.07884323288454 25.83148893341422,256.90886566552217 24.731388329761103,256.72166898686555 23.060865190811455,256.7684681635292 21.920020120451227,256.72166898686555 21.105130784446374,256.72166898686555 20.616197182796896,256.72166898686555 19.516096579376608,256.6280706200632 19.149396378081292,256.581271429779 17.88631790713407,256.4876730349497 17.397384305484593,256.44087383081205 15.686116700060666,256.30047619043035 15.156438631471246,256.20687774042017 14.0970824949909,256.11327927189996 12.711770623689517,255.50488877680618 12.182092555100098,255.3176915445365 11.285714285681024,255.13049423822667 12.30432595545426,255.36449085953063 13.200704225106165,255.7856844868511 14.0970824949909,256.20687774042017 14.626760563114658,256.25367696766625 15.97132796770893,256.3940746219014 16.378772635711357,256.44087383081205 17.438128772424534,256.53447223463445 17.967806840781122,256.581271429779 19.06790744443424,256.581271429779 19.55684104608372,256.6280706200632 20.656941649736837,256.72166898686555 21.145875251386315,256.72166898686555 22.65342052280903,256.7684681635292 23.142354124691337,256.7684681635292 23.87575452704914,256.67486980577814 24.120221327757463,256.67486980577814 24.283199195051566,256.67486980577814 24.446177062112838,256.67486980577814 24.60915492940694,256.67486980577814 24.812877263408154,256.6280706200632 25.016599597409368,256.6280706200632 25.424044265411794,256.67486980577814 25.587022132705897,256.67486980577814 25.953722334001213,256.8152673353907 26.3204225350637,257.002463976969 26.27967806835659,257.09606227008044 26.27967806835659,257.1428614096367 26.238933601416647,257.1428614096367" stroke="#4dd2ff" stroke-linecap="round" stroke-linejoin="round" stroke-width="0.5"><title>2020-11-30 1.0km</title></polyline></svg>