<?xml version="1.0" encoding="utf-8" ?>
<svg baseProfile="full" height="300mm" version="1.1" viewBox="0,0,200,300" width="200mm" xmlns="http://www.w3.org/2000/svg" xmlns:ev="http://www.w3.org/2001/xml-events" xmlns:xlink="http://www.w3.org/1999/xlink"><defs /><rect fill="#222222" height="300" width="200" x="0" y="0" /><text fill="#FFFFFF" style="font-size:12px; font-family:Arial; font-weight:bold;" x="10" y="20">Over 3km Runs</text><text fill="#FFFFFF" style="font-size:4px; font-family:Arial" x="10" y="280">ATHLETE</text><text fill="#FFFFFF" style="font-size:9px; font-family:Arial" x="10" y="290">jdzj</text><text fill="#FFFFFF" style="font-size:4px; font-family:Arial" x="120" y="280">STATISTICS</text><text fill="#FFFFFF" style="font-size:3px; font-family:Arial" x="120" y="285">Number: 54</text><text fill="#FFFFFF" style="font-size:3px; font-family:Arial" x="120" y="290">Weekly: 3.4</text><text fill="#FFFFFF" style="font-size:3px; font-family:Arial" x="141" y="285">Total: 102.5 km</text><text fill="#FFFFFF" style="font-size:3px; font-family:Arial" x="141" y="290">Avg: 1.9 km</text><text fill="#FFFFFF" style="font-size:3px; font-family:Arial" x="167" y="285">Min: 1.0 km</text><text fill="#FFFFFF" style="font-size:3px; font-family:Arial" x="167" y="290">Max: 5.9 km</text><polyline fill="none" points="27.124771857634187,53.8036950371461 26.940944535424933,48.58179351501167 25.470325956121087,47.68509824149078 21.472081693820655,42.41038982360624 18.622758196666837,42.99061028822325 23.356311748502776,37.71585571358446 27.124771857634187,31.33333333331393 19.725722131086513,42.199400408309884 21.28825437137857,42.14665304153459 22.437175136525184,43.09610485070152 26.894987704697996,48.47630003129598 26.940944535424933,53.698202580271754 28.04390846984461,55.33333333331393 27.032858196645975,54.753126217168756" stroke="#4dd2ff" stroke-linecap="round" stroke-linejoin="round" stroke-width="0.5"><title>2021-06-04 1.3km</title></polyline><polyline fill="none" points="56.43369704450015,46.78864889040415 56.69390364678111,47.19303619513812 57.45921718282625,47.19303619513812 57.26023566338699,46.753484733591904 57.67350497288862,46.56008174706949 57.21431685128482,46.63041013009206 57.30615447554737,45.9974536839145 56.83166008326225,45.78646770233172 56.81635381258093,46.05020014029287 57.30615447554737,46.57766384546994 57.32146074634511,47.28094635739399 56.67859737604158,47.22820026525005 56.20410298369825,46.63041013009206 56.29594060801901,46.929305448327796 55.72960859135492,47.03479779386544 55.02552013826789,45.78646770233172 54.22959406086011,44.96010353615566 51.52038414333947,43.043627211867715 51.21425872895634,41.40845221954805 51.53569041402079,39.75567945383955 53.035704944632016,37.2764915634325 54.44388185092248,36.13359191348718 55.882671298633795,34.445603637810564 55.94389638141729,33.07410138953128 55.392870635550935,32.00150894175749 54.91837624326581,31.685005018487573 54.41326930944342,32.1773442117119 54.27551287302049,31.737755711437785 54.48980066302465,31.72017214882362 54.19898151938105,31.66742145078024 54.3979630387621,31.702588584535988 54.24490033148322,32.05425954096427 54.32143168512266,31.772922831427422 54.03061254142085,31.98392540520581 54.26020660228096,31.825673498256947 54.06122508289991,31.772922831427422 54.12245016574161,31.98392540520581 53.55611814913573,32.40592980328074 54.19898151938105,32.05425954096427 53.95408118783962,32.21251124489936 54.04591881216038,31.86084060082794 53.84693729283754,32.30042879746179 53.84693729283754,31.98392540520581 54.41326930944342,31.632254309981363 54.6887821824057,32.01909247653384 54.56633201666409,32.14217717159772 54.994907596788835,32.1773442117119 54.50510693382239,32.40592980328074 53.87754983425839,31.561920007661683 54.56633201666409,31.66742145078024 54.58163828734541,31.333333333328483 53.57142441987526,32.423513298199396 54.44388185092248,32.40592980328074 54.44388185092248,32.1773442117119 53.81632475135848,32.24767827113101 54.6887821824057,31.632254309981363 53.90816237567924,32.14217717159772 54.21428779012058,32.12459364894312 54.33673795580398,31.98392540520581 54.01530627073953,31.825673498256947 54.10714389506029,32.14217717159772 54.58163828734541,31.896007696472225 54.44388185092248,32.159760692491545 54.459188121545594,31.94875832690741 54.24490033148322,32.05425954096427 54.33673795580398,31.808089944330277 54.64286337024532,31.790506388715585 54.53571947524324,32.21251124489936 54.78061980672646,31.878424149545026 54.3979630387621,32.35317930817837 54.59694455808494,32.05425954096427 54.35204422660172,31.386084130353993 54.7959260775242,31.597087162255775 54.10714389506029,32.1773442117119 54.3979630387621,32.30042879746179 54.58163828734541,32.07184307057469 54.459188121545594,32.35317930817837 54.73470099456608,31.685005018487573 54.56633201666409,32.230094758895575 54.75000726536382,32.458680282798014 54.48980066302465,32.19492772920057 52.27039140864508,34.46318693140347 55.010213867528364,31.913591241667746 56.98472279048292,33.496103205674444 57.90309903369052,34.86760220579163 57.00002906116424,50.48084674819256 51.39793397753965,50.62150039237167 50.265269944269676,50.920389017643174 50.09690096630948,53.43454996703076 50.6785392537131,53.856503574192175 51.91834718204336,53.57520128041506 52.469372927967925,54.17296812408313 52.01018480636412,54.542176055460004 52.836723425309174,54.64766389540455 52.989786132471636,54.94654576951871 52.959173591050785,55.33333333332848 52.683660718030296,54.964127040599124 52.530598010867834,55.05203337017156" stroke="#4dd2ff" stroke-linecap="round" stroke-linejoin="round" stroke-width="0.5"><title>2021-06-02 5.9km</title></polyline><polyline fill="none" points="79.56986052158754,54.613640004681656 81.71461582602933,52.648314205231145 85.04019146692008,48.16399817314232 87.90789799776394,42.18479865338304 89.1369150824612,37.617268736095866 89.11281670816243,31.333333333343035 89.59478419239167,31.77625850093318 89.83576793433167,36.59302454843419 88.14888173982035,42.932205561053706 86.2933069257997,47.25051760309725 83.30510852392763,51.6794865631382 79.49756539892405,55.333333333343035" stroke="#4dd2ff" stroke-linecap="round" stroke-linejoin="round" stroke-width="0.5"><title>2021-06-01 2.2km</title></polyline><polyline fill="none" points="127.33333333325572,44.9737314604281 126.8511076765135,45.52762883825926 116.53889747546054,42.24684170738328 109.4538897476159,42.45988058921648 108.86038124677725,43.013781190267764 104.26069036568515,41.39468512948952 103.33333333325572,41.43729299833649 103.37042761477642,41.90597927791532 104.22359608463012,41.139037828397704 109.37970118504018,43.269427381892456 118.727460072143,43.56768108109827" stroke="#4dd2ff" stroke-linecap="round" stroke-linejoin="round" stroke-width="0.5"><title>2021-05-31 1.1km</title></polyline><polyline fill="none" points="147.14109901478514,54.440328362514265 147.62667306349613,50.477601754595526 148.45214894670062,51.0915471353801 151.46270804922096,50.477601754595526 152.48241355153732,49.361335714464076 153.2593320296146,46.068338029959705 155.05595601024106,46.738101827853825 153.9876931027975,46.291592717694584 154.5218245566357,45.51020092476392 154.4247097466141,46.84972905018367 154.5218245566357,45.45438718376681 154.47326715150848,47.5194919204223 152.91943019535393,45.95671065308852 157.87228549318388,48.6915750305634 152.822315385798,46.7939154417254 154.03625050769188,46.23577905423008 153.40500424429774,44.39392505749129 152.91943019535393,47.128797009412665 154.4247097466141,45.733455833105836 153.89057829300873,44.84043566940818 155.2501856298186,46.84972905018367 155.88143189321272,46.570660953002516 154.08480791258626,47.4078648306313 152.43385614664294,46.62647458357969 154.81316898600198,46.40322002826724 153.16221722005866,46.01252434437629 151.94828209793195,49.9752823098097 147.2867712294683,50.756667919573374 147.43244344415143,52.877566263021436 145.49014724884182,54.38451550499303 145.58726205839776,55.33333333331393 146.31562313181348,54.27288977307035 144.17909731692635,48.468321292544715 134.12771450681612,31.33333333331393" stroke="#4dd2ff" stroke-linecap="round" stroke-linejoin="round" stroke-width="0.5"><title>2021-05-30 1.4km</title></polyline><polyline fill="none" points="165.53817504644394,40.96551096744952 168.99068901292048,42.9290779500152 175.29236499068793,45.277645094756735 178.20856610802002,45.00813810728141 181.89571694599,45.701155699265655 188.0968342644628,44.77713196989498 188.66666666662786,44.31511928513646 188.0297951581888,44.81563300231937 182.1303538174834,45.470149971952196 173.91806331463158,44.93113607677515 168.45437616389245,43.468094609561376 164.66666666662786,41.50453033836675" stroke="#4dd2ff" stroke-linecap="round" stroke-linejoin="round" stroke-width="0.5"><title>2021-05-27 1.4km</title></polyline><polyline fill="none" points="35.33333333325572,71.72594447943266 32.32811594195664,71.58211658147047 26.23420289857313,69.28086442511994 17.009855072712526,68.9452642420656 11.333333333255723,67.41108902587439 14.839420289965346,68.75349260485382 24.314202898414806,69.61646437647869 34.08115942007862,72.5889109740965 34.874202898470685,72.34919821252697" stroke="#4dd2ff" stroke-linecap="round" stroke-linejoin="round" stroke-width="0.5"><title>2021-05-25 1.1km</title></polyline><polyline fill="none" points="42.66082603263203,68.05065487482352 43.802252816036344,68.98220428352943 47.617021276499145,69.3272219534847 51.401752190315165,71.50082544976613 55.93742177716922,71.32831772908685 58.490613266592845,71.74233611565433 63.83729662070982,70.98330203280784 66.0,69.91375121154124 66.0,70.70728923057322 57.469336670823395,71.94934512517648 54.22528160200454,71.39732082764385 51.34167709632311,71.63883156495285 45.6345431789523,70.25876796277589 42.0,68.63718627320486" stroke="#4dd2ff" stroke-linecap="round" stroke-linejoin="round" stroke-width="0.5"><title>2021-05-24 1.6km</title></polyline><polyline fill="none" points="82.01550387591124,69.37894909220631 87.59689922467805,69.53922148759011 87.59689922467805,70.22037846289459 91.15503875969443,71.82309625274502 96.66666666662786,71.30221366457408 91.05038759682793,71.86316411645385 87.0736434108112,71.18200989556499 82.92248061997816,71.38234949085745 72.66666666662786,68.13683588354615" stroke="#4dd2ff" stroke-linecap="round" stroke-linejoin="round" stroke-width="0.5"><title>2021-05-21 1.1km</title></polyline><polyline fill="none" points="117.72077405045275,82.0 118.57638864277396,81.17572324647335 118.30038393568248,80.35144437898998 118.74199146707542,76.51534953134251 120.39801971032284,75.94468688164488 120.75682582973968,75.0886910072004 122.74405972170644,75.56424455222441 126.82892938831355,74.99358021377702 126.69092703447677,73.15476600831607 125.31090349855367,70.17459650547244 122.55085642659105,66.30667572937091 120.5636225346243,64.43610717827687 117.38956840184983,62.565527739119716 112.89069167443085,61.93143054304528 111.23466343129985,61.265627140470315 108.80582200794015,61.61438147575245 105.7697702285368,59.80719581944868 105.1901603435399,58.0 103.83773727831431,58.475578832498286 103.92053869040683,59.49014465638902" stroke="#4dd2ff" stroke-linecap="round" stroke-linejoin="round" stroke-width="0.5"><title>2021-05-20 1.7km</title></polyline><polyline fill="none" points="134.11538461549208,67.94570635765558 134.0,65.49377304199152 139.13461538474075,64.56601215660339 157.5961538462434,64.96362412156304 158.0,73.976098875748 156.9038461537566,74.77131143194856 147.55769230774604,73.976098875748 146.40384615398943,74.77131143194856 139.30769230774604,75.43398784339661 135.21153846173547,74.83757910266286 134.28846153849736,74.04236662463518 134.28846153849736,67.1504857223481" stroke="#4dd2ff" stroke-linecap="round" stroke-linejoin="round" stroke-width="0.5"><title>2021-05-18 1.1km</title></polyline><polyline fill="none" points="164.66666666662786,70.81656326903612 165.60035366914235,71.69402655756858 170.16268788673915,73.61956007643312 173.02740937215276,73.54643882444361 174.95844385493547,73.98516601187293 178.29000884166453,73.59518632819527 181.96109637490008,72.52273902489105 183.00088417320512,71.88901797631115 184.67727674625348,70.71906715576188 188.66666666662786,66.79481666500214 188.03006189211737,66.01483398814162 186.45977011485957,67.23355583875673 177.27144120249432,68.2329032713169 175.93457117583603,67.86728882577154 168.6984969052719,67.64791989880905 168.31653404049575,68.25727754842956 168.40141467715148,68.01353466892033 167.9770114942221,68.18415470984473 167.53138815192506,69.1103757336241 166.87356321827974,69.3784916978766 164.96374889474828,68.9885047445714 164.68788682564627,68.47664593446825" stroke="#4dd2ff" stroke-linecap="round" stroke-linejoin="round" stroke-width="0.5"><title>2021-05-10 2.5km</title></polyline><polyline fill="none" points="35.33333333337214,104.3308340878284 35.213831258704886,103.64451240102062 34.39723374845926,102.79804619040806 33.10262793919537,103.43861549896246 32.445366528467275,103.23271841413225 32.405532503616996,102.5921485369181 32.84370677743573,101.86006651098432 32.68437067780178,99.82395122580056 32.206362379016355,99.13761620272999 29.67690179811325,99.91546240879688 27.983955739997327,99.73244000678824 27.92420470272191,99.20624979642162 23.542461964068934,99.27488336987153 21.252005532500334,98.9088374103303 17.587275242083706,99.57229528656171 14.978146611480042,99.64092875161441 12.906777316820808,99.18337193413754 11.333333333372138,96.46089020589716 13.623789764940739,94.81365885249397 14.639557399787009,93.69261971303786 16.730843706871383,92.61733218144218 16.989764868631028,91.83946149748226 19.200553250382654,90.85568013116426 21.331673582433723,89.39143967158452 20.475242047104985,90.35234851604037 18.105117565835826,91.38188928809541 15.874412171542645,89.41431849985383 14.460304287727922,89.00249924548552" stroke="#4dd2ff" stroke-linecap="round" stroke-linejoin="round" stroke-width="0.5"><title>2021-05-08 2.6km</title></polyline><polyline fill="none" points="66.0,92.51579448327539 65.8428805237636,94.18517909396905 61.129296235507354,94.45588953790138 60.42225859244354,95.76432109132293 53.15548281488009,94.09494224382797 49.384615384507924,94.41077114176005 48.00981996720657,95.17778327161795 42.66775777400471,94.00470537570072 42.0,95.08754661717103 47.57774140732363,97.07274890245753 55.66939443536103,97.88487462687772 65.8428805237636,100.81753885006765" stroke="#4dd2ff" stroke-linecap="round" stroke-linejoin="round" stroke-width="0.5"><title>2021-05-08 1.3km</title></polyline><polyline fill="none" points="96.66666666662786,96.2645004047954 96.06189213087782,96.59355123128626 92.49690539354924,95.27734617283568 91.92396109644324,95.78920425093384 88.29531388147734,94.39987353736069 85.93987621576525,95.4967140070803 80.81520778068807,95.82576551503735 77.53669319185428,94.7654873879219 74.22634836426005,95.35046879865695 73.08045976993162,95.167662206979 72.66666666662786,94.58268050776678 77.98231653391849,94.80204875319032 81.10167992929928,96.19137795921415 86.19451812561601,96.04513302483247 96.47568523441441,98.93345979598234" stroke="#4dd2ff" stroke-linecap="round" stroke-linejoin="round" stroke-width="0.5"><title>2021-05-07 1.5km</title></polyline><polyline fill="none" points="103.44410256389529,101.27570189113612 103.33333333325572,100.63851447112393 105.10564102558419,100.04380535610835 105.84410256403498,98.25967305153608 115.11179487174377,92.73731162154581 118.06564102554694,93.5869103273144 118.76717948704027,94.52146695493138 119.61641025636345,92.43995167588582 119.2841025639791,92.0576314421487 119.2841025639791,93.50195053263451 119.09948717942461,93.0346713605104 118.39794871793129,94.64890633703908 119.32102564093657,93.5869103273144 118.43487179465592,94.52146695493138 118.91487179463729,92.94971145619638 118.58256410248578,94.60642654719413 119.3948717948515,93.88426947579137 120.90871794871055,94.13914858130738 123.16102564078756,93.33203089277958 125.22871794854291,93.4169907210744 127.33333333325572,94.64890633703908 125.9671794869937,93.7143499875674 124.30564102553762,93.50195053263451 120.42871794849634,94.43650734590483 118.50871794857085,93.20459111846867" stroke="#4dd2ff" stroke-linecap="round" stroke-linejoin="round" stroke-width="0.5"><title>2021-05-06 1.2km</title></polyline><polyline fill="none" points="139.98865784495138,98.85580834455322 141.0321361059323,96.6146635991172 148.47258979198523,91.08994058187818 151.60302457469516,87.75423077639425 155.7315689981915,85.56515976542141 157.31947069941089,87.07666214735946 158.0,102.45204399089562 157.13799621909857,97.86553625762463 144.66162570891902,104.69316396443173 141.39508506609127,101.56601719203172 135.27032136102207,104.9016397576197 134.0,107.03851189225679 135.31568998121656,107.76817356795073 139.21739130443893,104.11985510902014 140.6691871455405,100.7842276057927 139.85255198483355,99.58548132551368" stroke="#4dd2ff" stroke-linecap="round" stroke-linejoin="round" stroke-width="0.5"><title>2021-05-06 1.8km</title></polyline><polyline fill="none" points="179.20452567446046,92.95452882733662 181.36640556994826,92.30262820480857 181.58572671888396,91.61450959285139 179.07919930375647,90.6004376479541 179.39251523057465,90.67287145371665 179.01653611834627,91.07125712258858 180.8651000870159,91.79559356640675 182.49434290686622,91.54207597786444 181.96170583111234,93.8961609636026 183.59094865096267,92.99074549373472 183.52828546555247,93.67886145980447 184.18624891212676,93.64264486293541 186.63011314184405,95.59833584629814 188.41601392498706,95.99671603288152 188.44734551780857,97.01077268848894 187.8833768493496,97.807529473881 188.66666666662786,101.42912887225975 188.00870322017,102.73289568538894 170.58833768498152,100.6685960382456 165.7319408180192,101.32048142352141 164.66666666662786,102.11722861544695 165.41862489120103,101.35669724352192" stroke="#4dd2ff" stroke-linecap="round" stroke-linejoin="round" stroke-width="0.5"><title>2021-05-02 1.6km</title></polyline><polyline fill="none" points="18.685232067480683,117.6071264857892 20.38649789011106,118.30973692628322 22.452320675132796,116.55320948950248 30.654852320440114,115.21824566053692 34.30042194086127,116.6937318482087 35.33333333325572,119.1528685153462 34.05738396639936,126.17892521253088 23.728270041989163,129.8324465540354 12.062447257107124,131.44842100614915 11.333333333255723,130.25400546990568 16.376371307764202,115.7803360071266" stroke="#4dd2ff" stroke-linecap="round" stroke-linejoin="round" stroke-width="0.5"><title>2021-05-01 1.0km</title></polyline><polyline fill="none" points="53.44851598655805,122.34795108274557 51.994603586848825,124.66679095674772 49.838802443118766,120.20301583199762 49.93907226365991,118.57981624267995 51.693794125225395,115.85514943639282 54.45121419290081,114.69571281713434 61.57037145923823,114.81165658461396 65.7315690163523,111.33333333331393 60.4674034321215,115.04354404943297 48.08408058155328,113.36235780006973 47.03124746470712,113.8841057854006 44.975716141518205,118.28995868860511 44.27382739679888,129.07256082590902 43.42153392150067,131.85513484250987 42.41883571469225,132.26092575595248 42.268430983880535,135.33333333331393 43.070589548908174,134.9275445989333 43.42153392150067,133.01453668880276 44.77517649997026,117.94212942989543 46.580033271806315,116.14500822406262 47.33205692656338,116.60878197883721" stroke="#4dd2ff" stroke-linecap="round" stroke-linejoin="round" stroke-width="0.5"><title>2021-05-01 1.8km</title></polyline><polyline fill="none" points="92.97912631806685,121.15314997560927 92.14245749951806,121.29553180695802 90.77899720252026,122.27440385569935 89.121153432352,122.20321334035543 88.82676995912334,122.5591656362667 88.87325156020233,122.2210109718435 87.75769313541241,122.59476082723995 85.12373574351659,122.25660622947908 83.57434904243564,122.43458241259214 83.10953303216957,122.18541570715024 81.42070152790984,122.50577283662278 77.60921024321578,122.59476082723995 73.81321282550925,122.20321334035543 72.66666666668607,123.18208046417567 72.74413600174012,123.52023332724639 77.20636970089981,124.39230883856362 77.68667957826983,124.24992945116537 78.56982999789761,124.71266204936546 80.9248977835523,124.7482568154519 82.3968151495792,125.31777211773442 83.0320636969991,125.12200143537484 84.7054013342131,125.51354258775245 85.12373574351659,125.83389380767767 86.16182483325247,125.958474684041 86.4407144394354,125.74490741477348 87.19991392298834,126.10085272316064 88.14503981062444,125.94067742128391 89.72541424573865,126.40340568308602 89.86485904885922,125.9762719450955 90.20572412316687,125.94067742128391 90.84097267052857,126.27882511395728 91.05788680870319,125.76270469685551 91.98751882940996,125.26438013456936 93.10307725414168,124.14314483686758 94.34258661506465,123.66261329047848 94.99332902953029,122.8795221021137 96.07789972028695,122.54136803817528 96.66666666668607,121.72267662685772 96.35678932646988,120.77939713360684 95.87647944915807,120.26326098360005 94.9003658274305,120.88618373891222 93.41295459435787,120.79719490556454 93.3199913923745,121.36672268052644 91.22831934579881,122.39898719001212 91.66214762214804,122.80833182552306 91.9565310953185,122.61255842006358 92.96363245102111,123.37785325165896 93.80030126974452,123.2532705933263 93.86227673769463,123.03970012172067" stroke="#4dd2ff" stroke-linecap="round" stroke-linejoin="round" stroke-width="0.5"><title>2021-04-30 3.7km</title></polyline><polyline fill="none" points="127.14375987346284,121.7655411400192 125.62717219558544,123.94304101192392 124.7930489727296,124.0736906628299 116.52764612948522,121.80909124275786 109.17219589231536,121.7655411400192 110.15797788300551,122.59299235630897 103.33333333325572,120.54613652112312 108.7930489727296,122.46234226727393 117.51342811970972,123.28979217782035 126.49921011016704,126.12053014556295 127.33333333325572,125.9463314099412 126.19589257496409,125.55438400385901" stroke="#4dd2ff" stroke-linecap="round" stroke-linejoin="round" stroke-width="0.5"><title>2021-04-29 1.4km</title></polyline><polyline fill="none" points="143.22285714291502,122.74271058212616 145.17714285710827,121.20664165564813 144.49142857140396,119.98565957395476 145.69142857124098,119.5917935896141 153.88571428554133,111.7537796695542 154.8457142856205,111.63561747793574 158.0,115.25924210780067 153.98857142834459,117.85877864068607 154.43428571417462,117.89816542746848 151.93142857111525,120.6158443405875 152.99428571411408,120.22197897810838 153.2342857142212,119.31608716922347 152.03428571415134,120.30075208164635 146.30857142840978,127.23272431871737 142.43428571429104,129.5170978869719 139.79428571416065,131.84084379288834 139.62285714282189,133.33748653618386 137.4628571427893,135.03104918872123 135.68000000005122,134.12519098928897 134.0,131.72268754788092 134.137142857071,129.39894095412455 136.50285714282654,128.29614122700877 137.35999999998603,126.9570231763937 139.72571428574156,125.93298869460705 140.17142857145518,124.9089515855303 141.33714285714086,124.2393874397967 141.6799999999348,123.057800913346 142.57142857136205,122.38823366226279 143.56571428559255,122.62455164387939 143.77142857131548,121.87621088884771" stroke="#4dd2ff" stroke-linecap="round" stroke-linejoin="round" stroke-width="0.5"><title>2021-04-26 2.2km</title></polyline><polyline fill="none" points="178.82635468326043,131.0928693386668 179.48080559750088,130.1906353427621 180.23996865772642,120.7170170735335 182.80541624128819,111.33333333334303 180.44939295039512,120.56663980529993 178.59075235412456,121.43882692803163 175.8944145879941,121.258374624711 173.0933646755293,121.67942983278772 171.62739462789614,122.58168903342448 170.6064512017183,124.02529819656047 170.52791709208395,132.86725507015944 171.7059287376469,135.032593150303 172.49126983445603,135.33333333334303 173.01483056577854,135.0626671819482 175.84205851494335,132.68680953557487 176.81064586772118,133.34844264006824 177.75305518414825,132.6567352693819 177.93630144000053,131.874803307408" stroke="#4dd2ff" stroke-linecap="round" stroke-linejoin="round" stroke-width="0.5"><title>2021-04-25 2.2km</title></polyline><polyline fill="none" points="24.260701155173592,162.0 23.552973080659285,156.72914574379683 23.943443742580712,153.72920097611495 23.552973080659285,148.14978018237161 23.919039326137863,138.4205782059871 23.626186329755,138.0 23.016075920662843,138.4205782059871 22.405965511570685,148.34604307517293 22.650009675184265,158.10294164923835 23.626186329755,158.38330734428018 23.6993995787343,158.13097823120188 23.821421660715714,153.3366824942641 23.504164247890003,157.06558617169503" stroke="#4dd2ff" stroke-linecap="round" stroke-linejoin="round" stroke-width="0.5"><title>2021-04-18 2.2km</title></polyline><polyline fill="none" points="66.0,153.41626409385935 61.702005730592646,152.98182935608202 48.70487106021028,149.07189550652402 42.96275071625132,148.51897248707246 42.0,147.88705952977762 48.84240687673446,147.8080703401065 50.35530085966457,146.58373590616975 53.312320916797034,147.92655411886517" stroke="#4dd2ff" stroke-linecap="round" stroke-linejoin="round" stroke-width="0.5"><title>2021-04-16 1.0km</title></polyline><polyline fill="none" points="96.66666666668607,151.92484040056297 95.96373779635178,152.1122743566957 95.6750348675414,151.52113567868946 95.17294281732757,151.31928289965435 94.53277545323363,151.47788153517467 94.3068340306636,151.29044676554622 93.99302649928723,150.85790407226887 94.54532775451662,149.87746922887163 94.35704323567916,149.15655706032703 93.98047419806244,148.99795590614667 91.05578800564399,149.19981189075042 88.55788005579961,148.98353761083854 87.34030683408491,149.2719032462628 86.82566248258809,149.0700473611796 85.9972105997731,149.15655706032703 85.79637377971085,148.98353761083854 84.16457461647224,149.17097533853666 83.58716875873506,148.96911931411887 82.92189679224975,149.15655706032703 82.25662482570624,148.88260950402764 80.85076708509587,149.14213878072042 79.69595536962152,148.6807530813967 78.74198047426762,148.79609964277188 78.20223152026301,148.13285567193816 77.22315202234313,148.19052918013767 76.33193863322958,147.9165798133472 75.96792189683765,148.0896005257964 75.46582984662382,147.59937464189716 74.72524407255696,147.85890619699785 73.64574616460595,147.49844557934557 73.01813110185321,147.83006938034669 73.4574616458267,147.51286402110418 73.55788005579961,148.00309019515407 72.66666666668607,147.95983501065348 73.41980474203592,147.68588521148195 73.05578800564399,147.77239572985854 73.4449093445437,147.74355889609433 73.13110181316733,147.87332460323523 73.33193863322958,148.0896005257964 73.11854951188434,147.9165798133472 73.41980474203592,147.81565096980194 73.33193863322958,147.65704836063378 73.08089260815177,147.74355889609433 73.1687587168999,147.95983501065348 73.55788005579961,147.80123255790386 73.36959553702036,147.72914047705126 73.34449093451258,147.93099821385113 73.4449093445437,147.67146678679273 73.30683403078001,147.93099821385113 73.39470013946993,147.72914047705126 73.4574616458267,147.88774300801742 73.26917712698923,147.36867953937326 73.38214783830335,147.74355889609433 73.31938633194659,147.49844557934557 73.34449093451258,147.74355889609433 73.09344490937656,147.55611933792534 73.1813110181829,147.42635334911756 73.26917712698923,147.55611933792534 73.08089260815177,147.62821150412492 73.33193863322958,147.75797731366765 73.13110181316733,147.6426299330924 73.36959553702036,147.42635334911756 73.19386331946589,147.72914047705126 72.99302649934543,147.72914047705126 73.19386331946589,147.35426108336833 73.00557880057022,147.48402713616088 73.30683403078001,147.74355889609433 73.09344490937656,147.61379307370225 73.13110181316733,147.74355889609433 73.19386331946589,147.62821150412492 73.25662482570624,148.23378429640434 73.13110181316733,149.58910478814505 74.34867503488204,149.84863281040452 74.44909344497137,150.07932399889978 75.54114365420537,149.97839664873027 76.16875871695811,150.20908763245097 81.17712691775523,150.4253600990487 86.12273361237021,151.05975748841593 88.49511854950106,151.14626601000782 89.54951185500249,151.37695515064115 90.7670850767754,151.99693041216233 92.67503486748319,151.78066027071327 92.87587168760365,152.12669234340137 93.13947001396446,152.01134841020394 94.93444909347454,152.38621586037334 95.24825662485091,152.64573891661712 95.8131101813633,152.5159774460917 95.98884239891777,151.98251241266553 96.4909344491316,151.78066027071327" stroke="#4dd2ff" stroke-linecap="round" stroke-linejoin="round" stroke-width="0.5"><title>2021-04-09 4.9km</title></polyline><polyline fill="none" points="126.84886128385551,151.28418785930262 119.32091097324155,149.10107872981462 118.46376811619848,148.28776075641508 113.17184265027754,148.71582303778268 109.33333333348855,148.33056700360612 110.04140786756761,148.75862924274406 109.70600414089859,148.9298540200689 103.33333333325572,147.47444125884795 108.62525879917666,149.0582725587592 116.22774327127263,149.70036468244507 126.77432712214068,152.52555874118116 125.35817805398256,151.96908257799805 127.33333333325572,151.71224718517624 126.81159420288168,151.0701580379682" stroke="#4dd2ff" stroke-linecap="round" stroke-linejoin="round" stroke-width="0.5"><title>2021-04-09 1.4km</title></polyline><polyline fill="none" points="134.9545454547042,148.66865551209776 136.11363636376336,149.64759621821577 144.50000000011642,152.85850479229703 148.21590909094084,152.70187570818234 151.4545454547042,153.36754888881114 157.45454545482062,152.70187570818234 158.0,152.03620141156716 155.5795454547042,151.40968340693507 152.68181818188168,151.9970440652105 149.68181818188168,150.86147934186738 147.19318181835115,151.05726659490028 142.96590909094084,148.90360150163178 142.42045454564504,147.8855012091226 140.00000000011642,146.94571400637506 138.159090909292,146.63245111115975 134.0,147.65055461696465" stroke="#4dd2ff" stroke-linecap="round" stroke-linejoin="round" stroke-width="0.5"><title>2021-04-08 1.4km</title></polyline><polyline fill="none" points="188.51082251092885,151.00244514914812 188.66666666662786,151.82587624323787 186.64069264079444,151.86167755286442 181.2796536796959,150.03580626379699 173.17575757578015,149.64198968347046 168.90562770562246,148.13832244710648 164.66666666662786,148.78275202546502 168.68744588736445,148.31733077811077 172.95757575752214,149.6061881550413 180.90562770573888,149.96420328097884" stroke="#4dd2ff" stroke-linecap="round" stroke-linejoin="round" stroke-width="0.5"><title>2021-04-06 1.3km</title></polyline><polyline fill="none" points="18.66267465054989,173.062907447631 21.680638722376898,172.12036941485712 22.926147704478353,173.11835081048775 22.926147704478353,174.1717736350838 22.111776447156444,174.61531947850017 23.548902195412666,176.16772708890494 25.03393213544041,176.33405621367274 26.9500998002477,175.44696696236497 29.105788422981277,172.73024715145584 31.021956087788567,173.45101086975774 32.602794411126524,172.50847350800177 35.2854291414842,172.84113393933512 35.2854291414842,169.45907676155912 34.99800399201922,171.5104909959482 33.417165668681264,171.23327330726897 35.33333333325572,171.56593451683875 35.23752494994551,173.0074640789535 31.11776447086595,173.39556754054502 29.105788422981277,172.6748037491343 25.84830339322798,176.77760029805358 26.614770459011197,176.1122840361786 23.021956087788567,176.05684097774792 22.30339321331121,174.83709226496285 23.3572854292579,174.83709226496285 23.261477045947686,174.2826601297129 22.01596806384623,172.0649259503116 21.48902195575647,172.84113393933512 20.435129740508273,172.73024715145584 19.093812375096604,175.6132963069249 14.638722554547712,177.9419018024346 13.20159680629149,180.60315304703545 13.009980039671063,178.5517730267602 12.62674650666304,181.15757875470445 12.291417165426537,179.93784145376412 12.62674650666304,180.76948081859155 12.339321356965229,180.04872677574167 14.303393213544041,181.04669365828158 15.884231536649168,183.43071826099185 17.944111776305363,183.26439130154904 18.518962075700983,182.1001011634944 17.273453093599528,181.54567641450558 18.375249500852078,181.54567641450558 17.84830339299515,182.2109860458295 17.36926147667691,181.76744638185482 17.944111776305363,182.4327557423967 18.087824351154268,181.8783313316526 18.327345309313387,183.15350663359277 17.512974051525816,183.87425657181302 14.878243512706831,183.65248746157158 12.435129740042612,180.76948081859155 12.866267464822158,178.2745589184924 13.153692614519969,180.27049735182663 11.333333333255723,181.32390635693446 11.860279441112652,180.43682522483869 11.52495009964332,181.54567641450558 12.866267464822158,180.60315304703545 13.057884231442586,178.16367323574377" stroke="#4dd2ff" stroke-linecap="round" stroke-linejoin="round" stroke-width="0.5"><title>2021-04-05 1.9km</title></polyline><polyline fill="none" points="60.87448416440748,182.98080966580892 59.933334546745755,183.45463639320224 60.301610484020784,182.8860442044388 60.956323261605576,182.8860442044388 61.09954168170225,182.48329056272632 60.36298980691936,186.86616032636084 58.78758718597237,188.00332384752983 58.705748088657856,188.66666666667152 58.6443687658757,188.00332384752983 60.42436912981793,186.9372332093626 61.01770258450415,184.61550779447134 61.426898070494644,180.9196521652775 60.40390935551841,180.1852123185963 58.19425373128615,179.78245399832667 56.88482817611657,180.8011942824378 54.14321842009667,181.5830151939881 49.151033491129056,184.59181659929163 48.25080342194997,183.14664913022716 47.20735493279062,183.5967842231039 46.71632034960203,183.40725376390037 43.85195194766857,171.11113506062247 43.688273753388785,168.86033000489988 45.140917728538625,175.4468349579547 45.59103276312817,175.63637190662848 50.84919475787319,173.24345659044047 54.90023006906267,171.94037353516615 57.43724208220374,170.5188200535049 60.997242810204625,167.65199409011984 63.10459956305567,164.66666666667152 64.31172624661122,165.28268975061656 64.16850782651454,165.47223498644598 63.67747324332595,165.30638291353534 63.963910083519295,165.06945117555733 63.963910083519295,165.44854184043652 64.08666872931644,164.80882598481548 63.3910364031326,165.02206479890447" stroke="#4dd2ff" stroke-linecap="round" stroke-linejoin="round" stroke-width="0.5"><title>2021-04-05 3.7km</title></polyline><polyline fill="none" points="78.72274143295363,167.96479688893305 82.53582554496825,170.99532444373472 85.67601246153936,179.74050047801575 85.75077881617472,184.15634723333642 87.47040498442948,183.81000714126276 89.19003115268424,185.3685364444391 93.07788162026554,182.51123053743504 96.66666666651145,183.46366690756986 89.33956386288628,181.73196362162707 89.33956386288628,184.58927215024596 89.71339563885704,180.60635459242621 89.56386292818934,184.76244205527473 89.7881619934924,183.37708182726055 86.79750778805465,183.98317720502382 88.81619937717915,182.68440086598275 89.86292834905908,184.58927215024596 87.99376947013661,183.37708182726055 89.33956386288628,183.03074141714023 89.0404984424822,184.6758571070386 89.86292834905908,184.6758571070386 88.89096573228016,182.94415629241848 90.61059190006927,185.10878175927792 88.89096573228016,183.5502519790898 89.0404984424822,182.16488977428526 90.31152647966519,184.15634723333642 89.11526479758322,182.25147497816943 87.09657320892438,182.16488977428526 86.19937694678083,184.41610221005976 86.42367601254955,183.29049673810368 82.61059190053493,180.43318384024315 84.10591900302097,174.89170112536522 82.61059190053493,175.49780255829683 82.68535825563595,173.24656648462405 78.27414330188185,170.82215173193254 72.66666666651145,171.34166976157576 75.8068535826169,172.46729106886778 76.85358255449682,175.4112166656414" stroke="#4dd2ff" stroke-linecap="round" stroke-linejoin="round" stroke-width="0.5"><title>2021-04-04 1.4km</title></polyline><polyline fill="none" points="118.14897579117678,165.92331384605495 110.70763500919566,169.31194172642427 103.53445065161213,177.6294205042068 110.30540037248284,185.0996731024934 114.26070763496682,180.6329327217536 118.88640595902689,178.70760570722632 119.0204841713421,176.16616677481215 123.31098696449772,173.00860990548972 117.00931098684669,164.99914005200844 111.71322160144337,168.54180031851865 103.33333333325572,178.09150005935226 110.17132215993479,184.25253465009155 114.1936685286928,179.55475017882418 120.76350093097426,178.4765661461861 122.70763500942849,177.0133140052203 123.71322160144337,173.16263736621477 123.44506517681293,172.4695135531365 122.6405959033873,174.009787856834 120.29422718798742,175.16499158990337 120.22718808194622,174.47186955524376 127.33333333325572,169.77402620657813 124.71880819369107,168.38777194573777 121.97020484157838,164.99914005200844 120.4283054000698,167.54061535175424 115.73556797020137,165.53824156482005 106.48417132184841,173.85576056333957 103.6014897574205,177.93747357139364 110.30540037248284,184.25253465009155 114.26070763496682,180.093841636437 114.86405959026888,180.5559197324328 113.18808193644509,182.8663061078987 122.37243947852403,184.79162286262726 125.32216014922597,188.3341932813637 119.08752327715047,176.9363006585627 119.75791433895938,174.85693742817966 123.04283054010011,172.08444450248498 119.42271880805492,169.85104025981855 117.41154562379234,166.0003282794496 116.0037243948318,165.4612270858488 114.79702048399486,166.30838593712542 115.40037243952975,166.8474865454482" stroke="#4dd2ff" stroke-linecap="round" stroke-linejoin="round" stroke-width="0.5"><title>2021-04-02 3.1km</title></polyline><polyline fill="none" points="148.72340425522998,185.9416271655209 145.91489361703862,184.96406437354744 140.61702127649914,184.86630788222828 134.87234042561613,184.10869376675691 134.38297872338444,183.64434848650126 134.0,181.32260903154383 134.5531914893072,180.882698051646 135.70212765957695,180.83381900558015 134.65957446815446,177.58334080473287 134.91489361703862,173.18412945981254 136.51063829788473,170.91117299090547 137.14893617026974,169.3714164375997 140.19148936169222,167.26951109002403 141.42553191492334,168.61375493775995 142.57446808507666,168.85816212632926 143.17021276592277,169.56694160972256 145.6808510638075,169.56694160972256 149.5531914893072,170.17795677811955 151.42553191480692,171.15557791299943 154.53191489353776,173.91733677549928 157.4680851062294,179.00084782007616 157.5531914893072,179.66071900905808 156.8723404253833,180.2472697016492 156.5957446808461,181.17597212498367 157.1914893615758,181.1515326321387 158.0,183.22888091907953 157.4680851062294,184.3286464905832 155.61702127649914,184.67079478390224 155.17021276580635,185.23289452583413 154.12765957426745,184.71967307289015 153.6808510638075,184.91518613271182 152.57446808507666,184.5730381768808 152.04255319142248,186.063822243319 151.87234042549971,185.89274911752727" stroke="#4dd2ff" stroke-linecap="round" stroke-linejoin="round" stroke-width="0.5"><title>2021-04-02 3.2km</title></polyline><polyline fill="none" points="167.18125552602578,174.63754334743135 175.29796640132554,178.2570642408682 179.6905393456109,178.22050360037247 182.36427939869463,178.84203399711987 185.96109637490008,177.96457901661051 188.66666666662786,178.00113968213554 182.5552608310245,178.80547341448255 179.88152077805717,178.18394295641338 175.5526083111763,178.40330676650046 169.95048629527446,176.7946358115587 164.66666666662786,174.49129933625227" stroke="#4dd2ff" stroke-linecap="round" stroke-linejoin="round" stroke-width="0.5"><title>2021-04-01 1.4km</title></polyline><polyline fill="none" points="11.333333333255723,200.31045371037908 14.043644299032167,203.0626376029104 17.22531369351782,203.73940159747144 20.956901254830882,205.67945283293375 26.063284233678132,205.58921807419392 28.891434806399047,206.3562129562779 35.33333333325572,205.58921807419392 30.816148390760645,206.26597833103733 25.356246590381488,205.4538659027312 20.485542826121673,205.67945283293375 13.17948717949912,203.69428402892663 12.433169667376205,203.28822571228375 13.297326786909252,202.92728468377027" stroke="#4dd2ff" stroke-linecap="round" stroke-linejoin="round" stroke-width="0.5"><title>2021-03-29 1.2km</title></polyline><polyline fill="none" points="53.56234192685224,215.33333333331393 52.443882406223565,209.0264548745472 51.66582360910252,208.8032012556214 47.8727869738359,203.33346016710857 45.344095883425325,203.1102043093415 53.22194120311178,191.33333333331393 55.84788964292966,192.9519698934746 61.00252917315811,198.1985532239778 60.46761375037022,201.93810961558484 62.655904116807505,214.77520532213384 55.70200361870229,210.14272165170405 53.17331252805889,209.64040187356295 52.93016915419139,210.70085421728436" stroke="#4dd2ff" stroke-linecap="round" stroke-linejoin="round" stroke-width="0.5"><title>2021-03-28 1.4km</title></polyline><polyline fill="none" points="84.3712820513174,198.9861563750601 85.73743589734659,199.79198436369188 86.06974358973093,199.11339247366413 87.39897435903549,199.02856841208995 87.69435897446238,198.34997531719273 88.10051282052882,198.81650818500202 88.72820512834005,198.34997531719273 90.68512820499018,199.45268855261384 91.82974358974025,198.60444785331492 95.18974358960986,199.62233649153495 94.96820512833074,198.7740961269883 96.55589743587188,198.94374433389748 95.37435897439718,198.51962369136163 95.66974358982407,197.84102979316958 95.74358974350616,198.7740961269883 95.55897435895167,198.34997531719273 95.15282051288523,198.9013322883984 95.22666666656733,198.22273899259744 95.74358974350616,198.94374433389748 95.18974358960986,198.7740961269883 96.29743589740247,198.64685992800514 96.29743589740247,199.07098044487066 95.81743589742109,198.47721160401125 95.04205128201284,198.9013322883984 96.59282051282935,198.64685992800514 96.11282051284797,198.26515110500623 95.96512820525095,199.5375125304854 95.30051282048225,198.9861563750601 95.22666666656733,199.45268855261384 96.14974358957261,198.8589202388539 95.74358974350616,198.9013322883984 96.66666666674428,200.04645604634425 96.55589743587188,198.81650818500202 96.00205128220841,198.9013322883984 96.29743589740247,199.49510054357233 95.48512820526958,199.74957240201184 95.37435897439718,199.2830405466084 94.93128205137327,199.91922022381914 93.38051282055676,199.70716043608263 93.38051282055676,198.8589202388539 93.74974358966574,206.1537312491855 89.5774358974304,207.0867795442755 86.18051282060333,205.98408588720486 86.43897435907274,206.53543306927895 85.40512820519507,205.98408588720486 79.42358974344097,205.6872063424671 76.43282051291317,206.5778443616291 76.17435897444375,208.10464810254052 75.47282051295042,208.65599256544374 73.07282051281072,208.8256368735165 72.66666666674428,208.1470592401165" stroke="#4dd2ff" stroke-linecap="round" stroke-linejoin="round" stroke-width="0.5"><title>2021-03-26 1.5km</title></polyline><polyline fill="none" points="105.8699186994927,201.81251697329571 113.47967479692306,204.9181878999807 116.15563298505731,204.72608540576766 118.49709639966022,205.23835847110604 121.86991869925987,204.5659999071213 123.2078977933852,204.72608540576766 127.33333333337214,203.25329584005522 123.68176538927946,204.72608540576766 118.97096399543807,205.11029028054327 116.49012775858864,204.598017013137 113.73054587712977,204.8221366670914 107.79326364700682,203.3813647631905 103.33333333337214,201.42830819558003" stroke="#4dd2ff" stroke-linecap="round" stroke-linejoin="round" stroke-width="0.5"><title>2021-03-26 1.6km</title></polyline><polyline fill="none" points="158.0,205.46288499992806 156.16638370137662,205.2288693258597 153.43633276736364,203.49714975003735 151.11375212226994,203.54395306500373 147.7724957554601,202.23345850370242 139.62308998289518,202.46747565513942 140.84550084895454,203.0759197085572 140.35653650248423,203.21632976384717 134.0,201.2037816666998 139.1341256366577,203.16952641663374 146.4278438030742,203.63755968090845 152.66213921899907,205.1352630238107" stroke="#4dd2ff" stroke-linecap="round" stroke-linejoin="round" stroke-width="0.5"><title>2021-03-24 1.1km</title></polyline><polyline fill="none" points="188.66666666662786,205.09373564532143 186.9384057970019,204.98137004452292 185.24275362316985,203.70789091230836 182.53623188403435,203.2584266694903 180.31884057971183,202.24713017840986 173.53623188415077,202.39695205065073 174.12318840587977,203.03369434861816 168.80797101464123,201.57293102133553 164.66666666662786,202.0973082469427 166.29710144922137,202.32204112189356 168.9384057970019,201.61038656151504 173.82971014501527,203.10860513712396 182.73188405798282,203.48315885741613" stroke="#4dd2ff" stroke-linecap="round" stroke-linejoin="round" stroke-width="0.5"><title>2021-03-23 1.3km</title></polyline><polyline fill="none" points="34.85460992902517,231.19140293070814 26.780141843948513,228.36870498530334 23.492907801410183,228.91858288957155 20.23758865252603,228.5519977103977 21.131205673795193,229.13853382359957 20.780141843948513,229.248509241821 15.641843971563503,227.70885042607551 11.333333333372138,228.3320464293065 15.322695035487413,227.78216765719117 20.14184397167992,229.17519229988102 26.52482269506436,229.61509373402805 35.33333333337214,232.29114957389538 33.89716312056407,231.5946437443199 35.33333333337214,231.19140293070814" stroke="#4dd2ff" stroke-linecap="round" stroke-linejoin="round" stroke-width="0.5"><title>2021-03-22 1.6km</title></polyline><polyline fill="none" points="62.437643458135426,218.14841143561353 62.768171384814195,218.3801885118446 62.58454475889448,219.1176593613054 64.25554705434479,219.3705059260392 64.6962509562727,219.72870471603528 64.54934965563007,220.38188920516404 65.21040550863836,220.8243678904837 66.0,222.19393898942508 65.52257077256218,223.45815070543904 64.82478959439322,223.75313236725924 64.5677123182686,224.51165477823815 61.17061973980162,227.46143866167404 57.424636572250165,228.9152457992459 56.24942616664339,229.6737499606097 55.3496557000326,230.43225144047756 52.723794950172305,234.05616594743333 42.0,241.85158856437192" stroke="#4dd2ff" stroke-linecap="round" stroke-linejoin="round" stroke-width="0.5"><title>2021-03-21 1.3km</title></polyline><polyline fill="none" points="83.54605249606539,227.9149470893608 83.24141951766796,225.9669527692604 81.15250766579993,223.36960377107607 80.30388722592033,223.11985727556748 77.43163342948537,225.74218323256355 74.58113913156558,229.36344600263692 73.86307568254415,229.56323830796464 73.07973373797722,231.686021848378 74.40706314390991,233.58402505236154 77.56219042022713,235.08243861795927 80.97843167802785,237.85448041577183 80.78259619197343,238.00431965135795 81.23954565962777,237.95437324931845 80.82611518900376,237.7296143186977 81.34834315185435,238.60367570970266 82.50159657013137,239.97719467725256 86.87525576015469,242.0 89.13824359967839,241.77524464829185 94.46932072169147,238.0542660435458 95.18738417094573,236.5558700059919 96.25359959539492,231.76094329636544 95.18738417094573,229.91287446429487 91.20539595326409,226.24167082174972 86.89701525866985,220.82217799444334 83.69836898520589,218.0 80.1080517397495,222.99498393567046 80.76083669357467,223.06990794697776 81.65297613025177,223.8940706126159 83.39373600680847,226.11679901654134 83.37197650840972,226.8160803351202" stroke="#4dd2ff" stroke-linecap="round" stroke-linejoin="round" stroke-width="0.5"><title>2021-03-20 3.7km</title></polyline><polyline fill="none" points="124.96880131354555,236.0431297798932 116.77175697823986,233.41767723709927 108.10180623969063,233.14607784088003 103.45155993406661,232.15021201319178 103.33333333325572,230.5206087247061 104.00328407203779,229.7963387389609 103.3727422002703,228.5741305462434 103.53037766809575,226.4465751867392 106.01313628884964,223.9568702201068 110.11165845650248,224.45481229404686 114.28899835771881,225.85810068633873 122.17077175690793,225.6770314575988 126.38752052537166,224.99802121304674 126.89983579609543,224.40954485506518 126.15106732328422,226.12970439574565 125.67816091934219,231.96914526695036 126.07224958948791,234.9567374458711 127.33333333325572,235.1830693942029" stroke="#4dd2ff" stroke-linecap="round" stroke-linejoin="round" stroke-width="0.5"><title>2021-03-19 1.6km</title></polyline><polyline fill="none" points="143.72621809749398,229.75482976532658 148.9419953597244,231.99343712747213 150.96519721590448,231.8655173312436 152.7285382830305,232.24927649278834 154.58468677499332,231.84419735790289 155.5684454756556,231.92947723883844 158.0,231.2045971783955 153.48955916485284,232.22795655720984 151.16937354998663,231.8655173312436 148.57076566130854,231.97211716671882 138.19489559170324,228.66749782467377 134.0,228.2197713181522 134.90951276104897,228.34769327173126 134.2969837586861,228.0918492888013 134.48259860789403,227.98524753988022 135.89327146171127,228.0705289432517 137.7679814385483,227.7507235072262 138.3990719257854,228.2197713181522 138.77030162408482,227.98524753988022 139.2157772622304,228.4116542201955 139.60556844540406,228.28373230446596 140.10672853828873,228.71013839599618 140.73781902552582,228.47561514966947 142.03712296986487,229.41370660801476 142.2969837586861,229.09390315918426 141.62877030158415,228.0918492888013 141.3689095127629,228.1131696322991 141.46171693736687,228.83806005938095 142.66821345710196,229.43502682114195 143.16937354987022,228.24109164904803 143.44779582379851,228.81673978742037 143.81902552209795,228.75277895880572 143.42923433880787,228.8593803292897 143.65197215788066,228.79541951330611 143.11368909513112,228.04920859559206 143.9118329467019,227.98524753988022" stroke="#4dd2ff" stroke-linecap="round" stroke-linejoin="round" stroke-width="0.5"><title>2021-03-19 3.1km</title></polyline><polyline fill="none" points="174.76609744137386,242.0 174.63130529772025,241.5819668899494 174.3752002248657,241.53551869789953 173.99778222263558,241.8916211524338 174.45607551099965,239.27502340682258 174.28084572427906,239.90982331692067 174.36172101047123,241.07103602134157 174.10561593755847,241.27231201659015 172.64986078627408,241.24134649564803 172.47463099949528,240.312378027229 172.59594392875442,239.4917846403987 176.12749809212983,238.70215299149277 178.49983982014237,238.54732279067684 178.4189645340084,223.57452080208168 179.2142381814774,222.5525401474879 180.85870233387686,221.09698045144614 180.56215961783892,220.35371071797272 178.55375667766202,218.0" stroke="#4dd2ff" stroke-linecap="round" stroke-linejoin="round" stroke-width="0.5"><title>2021-03-18 2.7km</title></polyline><polyline fill="none" points="19.472958323953208,266.68623185127217 20.144879097351804,266.80272875225637 20.246301100880373,267.3706498281972 20.4998561097309,267.51627026499773 21.869053157337476,267.7929486992798 23.643938219174743,267.6327665110002 24.873680011951365,267.9822546976211 26.01467755169142,268.6666666666715 26.306265811785124,267.7492626651365 26.14145505608758,263.8611538588011 27.19370834273286,263.75921704446955 25.685056040179916,263.33690663514426 24.227114739420358,263.26409437351685 23.58054946694756,262.5650948346447 22.30009667237755,249.32716615864774 23.694649220909923,247.69600807777897 24.683513755328022,247.12801129986474 23.97355973062804,245.8609336866939 22.756495688285213,244.66666666667152" stroke="#4dd2ff" stroke-linecap="round" stroke-linejoin="round" stroke-width="0.5"><title>2021-03-17 2.8km</title></polyline><polyline fill="none" points="42.80851063854061,255.37146607381874 43.10638297884725,255.37146607381874 44.59574468107894,256.00685986105236 45.02127659576945,256.5445001217304 49.44680851069279,257.76640763587784 54.1276595746167,258.40179835271556 55.70212765969336,258.30404598792666 56.80851063854061,258.54842686414486 57.36170212784782,258.74393147826777 59.57446808530949,259.0860643675842 61.40425531938672,259.819205478183 62.0,259.9658335701097 63.02127659600228,260.50346953613916 63.87234042584896,261.0411049188406 64.2127659576945,261.13885674398625 64.59574468107894,261.3343603363901 65.53191489377059,261.57873971844674 66.0,261.529863851727 65.95744680892676,261.529863851727 65.95744680892676,261.529863851727 65.82978723431006,261.57873971844674 65.91489361715503,261.529863851727 65.95744680892676,261.529863851727 66.0,261.57873971844674 65.74468085123226,261.529863851727 65.19148936192505,261.529863851727 63.31914893630892,261.57873971844674 62.04255319177173,261.187732649385 60.80851063854061,260.94335307451547 59.57446808530949,260.84560121089453 58.34042553207837,260.89447714498965 57.70212765992619,260.94335307451547 56.46808510669507,261.0411049188406 55.91489361715503,261.0411049188406 54.0,260.89447714498965 53.40425531938672,260.7478493277449 52.25531914900057,260.45459356327774 51.65957446815446,260.1613376252644 50.51063829800114,259.7703294377425 49.91489361715503,259.57482522845385 47.48936170223169,259.0860643675842 45.91489361715503,258.45067452805233 45.78723404277116,258.15741740423255 46.29787234053947,258.059664991044 46.51063829800114,258.059664991044 46.68085106392391,257.86416010701214 46.51063829800114,257.81528387381695 46.0851063830778,257.7175313931657 45.87234042561613,257.66865514568053 45.74468085123226,257.6197788932768 45.48936170223169,257.6197788932768 45.31914893630892,257.5220263740339 45.10638297884725,257.5220263740339 44.89361702138558,257.5220263740339 44.59574468107894,257.42427383561153 44.38297872361727,257.32652127789333 44.25531914900057,257.2776449917292 43.82978723407723,257.0332634889346 43.70212765969336,256.93551085403305 43.48936170223169,256.78888186544646 43.36170212784782,256.6911291824945 43.23404255323112,256.5445001217304 43.06382978730835,256.34899463987676 42.76595744700171,256.1046126791625 42.51063829800114,255.95798344479408 42.38297872361727,255.8602305977838 42.1702127661556,255.61584839606076 42.0851063830778,255.17596012924332 42.0851063830778,254.78494800877525 42.04255319177173,254.5405652767222 42.0,254.34505900435033 42.1276595746167,253.95404622837668 42.0851063830778,253.4164031575201 42.0851063830778,253.17201975075295 42.04255319177173,253.025389648712 42.1276595746167,252.87875950351008 42.0851063830778,252.8298827788094 42.1276595746167,252.48774557063007 42.1702127661556,252.24336170579772 42.38297872361727,252.1944849184365 42.80851063854061,252.047854527249 43.02127659576945,251.95010090901633 43.14893617038615,251.901224092755 43.40425531938672,251.80347044570954 43.44680851069279,251.80347044570954 43.44680851069279,251.7545936148672 43.48936170223169,251.7545936148672" stroke="#4dd2ff" stroke-linecap="round" stroke-linejoin="round" stroke-width="0.5"><title>2021-03-02 1.4km</title></polyline><polyline fill="none" points="77.07596899243072,257.0192949818447 77.35503875999711,257.14751012885245 80.42480620159768,257.7244779780158 82.37829457386397,258.42966020910535 83.10387596907094,258.75019733409863 85.0573643411044,259.26305640512146 85.78294573631138,259.26305640512146 87.84806201560423,259.1348416755209 88.51782945729792,258.9425195331569 90.58294573635794,258.81430474005174 91.86666666669771,259.26305640512146 92.53643410862423,259.5194857890601 93.70852713193744,259.9682369673392 94.82480620150454,260.1605588060338 96.22015503887087,260.0323442533263 96.44341085245833,259.90412967524026 96.66666666674428,260.0323442533263 96.610852713231,260.92984559212346 95.60620155045763,261.1862743184902 94.7689922482241,261.8914527941961 94.3782945733983,262.0196669806028 93.98759689903818,262.1478811414563 93.7643410852179,262.1478811414563 93.42945736413822,262.2119882122497 93.20620155055076,262.34020233515184 92.42480620159768,262.66073753195815 92.53643410862423,262.98127257061424 92.92713178298436,263.23770048783626 92.92713178298436,263.30180745141115 92.92713178298436,263.3659144084668 92.98294573649764,263.30180745141115 92.70387596916407,263.23770048783626 92.3689922480844,263.3659144084668 92.25736434129067,263.430021359236 92.14573643403128,263.49412830383517 92.089922480518,263.5582352419733 92.089922480518,263.5582352419733 91.86666666669771,263.23770048783626 91.75503875990398,263.1094865418272 91.58759689913131,262.9171655756072 91.53178294561803,262.78895156644285 90.9736434109509,262.66073753195815 90.75038759689778,262.66073753195815 90.47131782956421,262.66073753195815 90.19224806223065,262.59663050534436 89.85736434115097,262.59663050534436 89.57829457358457,262.59663050534436 89.0201550386846,262.4684164330247 88.74108527135104,262.4043093872606 88.4620155042503,262.34020233515184 88.18294573645107,262.2760952769313 87.62480620178394,262.1478811414563 87.40155038749799,262.0196669806028 87.12248062016442,261.95555989054265 86.84341085283086,261.8273456916795 86.56434108503163,261.69913146761246 86.34108527144417,261.50681008410174 85.83875969005749,261.25038148416206 85.33643410843797,260.99395278305747 84.94573643431067,260.60930954176 84.66666666651145,260.48109507758636 84.38759689917788,260.35288058791775 84.10852713184431,260.2246660730452 83.82945736404508,260.09645153285237 83.66201550420374,260.0323442533263 83.2155038760975,259.84002237650566 82.99224806204438,259.77591507171746 82.76899224799126,259.7118077604682 82.54573643417098,259.58359311922686 82.26666666683741,259.5194857890601 81.98759689927101,259.4553784526652 81.37364341085777,259.39127110975096 81.15038759703748,259.32716376066674 80.87131782947108,259.26305640512146 80.5364341083914,259.26305640512146 80.31317829457112,259.1989490434644 79.75503875967115,259.1348416755209 79.47596899233758,259.0066269203089 78.9736434109509,258.6219825030421 78.41550387605093,258.42966020910535 78.19224806199782,258.36555276514264 77.91317829466425,258.3014453150099 77.5782945738174,258.23733785835793 77.35503875999711,258.17323039547773 77.07596899243072,258.0450154504506 76.5736434108112,257.7885854851338 76.29457364347763,257.6603704644367 76.07131782942452,257.5321554184775 75.51317829475738,257.21161769295577 75.34573643421754,257.0834025585209 75.12248062016442,256.9551873988821 74.62015503877774,256.63464938878315 74.39689922495745,256.44232650694903 74.11782945739105,256.0576805724413 73.72713178303093,255.60892669460736 73.0573643411044,255.09606474050088 73.0573643411044,254.90374140365748 72.94573643431067,254.58320238190936 72.83410852728412,254.32677105080802 72.66666666674428,253.49336852622218 72.83410852728412,253.17282880924176 72.88992248056456,252.85228893422754 72.94573643431067,252.59585692029214 73.00155038782395,252.40353284351295 73.00155038782395,252.082992589043 73.00155038782395,251.24958718783455 73.00155038782395,250.67261359188706 73.6155038762372,250.4161807181663 74.0620155041106,250.1597477432806 74.45271317870356,250.03153121785726 74.73178294603713,249.96742294571595 74.84341085283086,249.83920638239942 75.62480620155111,249.77509809134062" stroke="#4dd2ff" stroke-linecap="round" stroke-linejoin="round" stroke-width="0.5"><title>2020-12-25 1.0km</title></polyline><polyline fill="none" points="103.69423558865674,253.89450938126538 103.96491228044033,254.15359080431517 104.1904761902988,254.41267209971556 104.68671679170802,254.72356948564993 106.62656641588546,255.24173138657352 107.66416040086187,255.5526282818755 108.34085213020444,255.70807666069595 111.49874686682597,256.9516620343784 112.401002506027,257.57345361763146 113.43859649100341,258.0397968219477 114.97243107738905,258.609771287709 115.55889724288136,258.71340294223046 116.64160401001573,258.71340294223046 117.27318295720033,258.71340294223046 118.35588972410187,258.50613961275667 119.34837092738599,258.4025079170824 120.47619047597982,258.45432376745157 121.10776942339726,258.4025079170824 122.86716791964136,258.71340294223046 123.45363408490084,258.9206661900971 124.5814536337275,259.1279293562402 125.21303258137777,259.0761135723442 126.34085213020444,259.0242977833841 126.8370927318465,258.97248198935995 127.33333333325572,259.17974513507215 127.28822055109777,259.2315609086654 127.15288220555522,259.2833766771364 127.10776942339726,259.33519244065974 127.10776942339726,259.3870081988862 127.06265664147213,259.33519244065974 126.97243107762188,259.43882395204855 126.97243107762188,259.33519244065974 127.01754385977983,259.3870081988862 127.06265664147213,259.43882395204855 127.01754385977983,259.3870081988862 127.10776942339726,259.2833766771364 127.06265664147213,259.2833766771364 127.01754385977983,259.2833766771364 127.01754385977983,259.33519244065974 127.01754385977983,259.2833766771364 127.01754385977983,259.2833766771364 127.01754385977983,259.2833766771364 127.01754385977983,259.33519244065974 126.97243107762188,259.33519244065974 126.97243107762188,259.33519244065974 126.92731829546392,259.33519244065974 126.88220551377162,259.33519244065974 126.97243107762188,259.33519244065974 126.97243107762188,259.33519244065974 126.97243107762188,259.33519244065974 126.92731829546392,259.33519244065974 126.92731829546392,259.3870081988862 126.8370927318465,259.33519244065974 125.79949874663725,259.33519244065974 124.62656641588546,259.33519244065974 123.45363408490084,259.0761135723442 122.91228070156649,258.9206661900971 121.78446115273982,258.609771287709 121.19799498748034,258.50613961275667 119.97994987433776,258.50613961275667 119.39348370907828,258.45432376745157 118.17543859640136,258.55795545264846 116.91228070156649,258.71340294223046 116.325814536307,258.71340294223046 115.10776942339726,258.66158711753087 114.47619047597982,258.50613961275667 111.63408521283418,257.57345361763146 111.0476190475747,257.36618983815424 109.37844611518085,256.9516620343784 108.92731829546392,256.89984603592893 107.12280701752752,256.58894993778085 106.08521303231828,256.12260544562014 105.4987468670588,255.81170888763154 104.37092731823213,255.18991521949647 103.33333333325572,254.82720190670807" stroke="#4dd2ff" stroke-linecap="round" stroke-linejoin="round" stroke-width="0.5"><title>2020-12-08 1.1km</title></polyline><polyline fill="none" points="134.0,254.1927825754683 134.23076923075132,254.23695931903785 135.76923076924868,255.42972974435543 136.26923076924868,255.6064362039324 138.23076923075132,256.18073171624565 139.15384615398943,256.4457909351331 139.61538461549208,256.6224969938339 140.6923076924868,257.02008537136135 141.65384615398943,257.5060262423358 142.15384615398943,257.81526106756064 144.61538461549208,258.65461165999295 145.15384615422226,258.69878796333796 146.6923076924868,258.52208272361895 147.15384615398943,258.47790640272433 149.57692307699472,258.52208272361895 150.07692307699472,258.5662590400607 151.57692307699472,259.00802196530276 153.11538461549208,259.14055075787473 153.57692307699472,259.09637449795264 154.57692307722755,259.14055075787473 156.11538461549208,258.91966941498686 156.57692307699472,258.8754931334115 157.5384615387302,258.7871405570768 158.0,258.7429642624629 157.80769230774604,258.389553748013 156.73076923075132,258.34537741405074 156.26923076924868,258.389553748013 155.30769230797887,258.65461165999295 154.96153846173547,258.7429642624629 153.96153846173547,258.96384569234215 153.5,259.00802196530276 152.53846153849736,259.00802196530276 152.03846153849736,258.91966941498686 151.07692307699472,258.7429642624629 150.6153846157249,258.61043535213685 149.11538461549208,258.34537741405074 148.61538461549208,258.34537741405074 147.61538461549208,258.389553748013 147.07692307699472,258.389553748013 146.07692307699472,258.47790640272433 145.07692307699472,258.52208272361895 144.11538461549208,258.47790640272433 143.1923076924868,258.25702473323327 142.73076923098415,258.124495679338 141.73076923098415,257.81526106756064 141.2692307694815,257.63855547926505 140.3461538462434,257.32932053203695 139.11538461525925,256.97590890232823 138.76923076924868,256.93173242907505 137.8461538462434,256.71084999712184 136.57692307722755,256.3132613452326 136.23076923098415,256.0482020480267 135.4230769232381,255.6064362039324 135.0,255.38555311851087" stroke="#4dd2ff" stroke-linecap="round" stroke-linejoin="round" stroke-width="0.5"><title>2020-12-03 1.3km</title></polyline><polyline fill="none" points="188.41314553981647,257.297592390154 188.62441314547323,258.07410980117857 188.66666666674428,258.3167712408176 187.94835680769756,258.7535615306988 186.72300469479524,258.7050292954664 185.032863849774,258.4138357832271 183.4272300468292,257.73438358466956 182.87793427240103,257.6373189082078 179.75117370905355,256.4240088383376 178.6103286384605,256.2298789493507 176.8779342721682,256.27841142885154 175.69483568053693,256.2298789493507 174.84976525814272,256.2298789493507 174.34272300475277,256.2298789493507 173.2018779341597,256.1328139763791 172.82159624411725,256.0842814827338 171.51173708913848,255.9872164807166 171.0046948355157,255.93868397272308 169.23004694841802,255.79308641972602 168.6807511735242,255.6960213604325 167.582159624435,255.59895628198865 166.14553990634158,254.96803280559834 165.59624413144775,254.77390234250925 164.66666666674428,254.57977180264425 165.72300469479524,254.8224349654629 166.65258215973154,255.25922835676465 167.582159624435,255.6960213604325 168.131455399096,255.74455389240757 169.52582159638405,255.89015145975281 169.94835680746473,255.93868397272308 171.04694835678674,256.0357489840826 171.59624413144775,256.0842814827338 172.73708920180798,256.0842814827338 173.24413145543076,256.1328139763791 174.38497652602382,256.2298789493507 174.89201877941377,256.2298789493507 176.45539906108752,256.27841142885154 176.9624413147103,256.27841142885154 177.72300469479524,256.1813464652805 177.97652582172304,256.1813464652805 178.14553990610875,256.1813464652805 178.31455399049446,256.1813464652805 178.483568075113,256.1813464652805 178.69483568076976,256.1328139763791 178.90610328619368,256.1328139763791 179.3286384975072,256.1813464652805 179.49765258212574,256.1813464652805 179.87793427240103,256.32694390340475 180.2582159624435,256.5210737539164 180.21596244140528,256.61813865049044 180.21596244140528,256.66667109151604 180.17370892013423,256.66667109151604" stroke="#4dd2ff" stroke-linecap="round" stroke-linejoin="round" stroke-width="0.5"><title>2020-11-30 1.0km</title></polyline></svg>