<?xml version="1.0" encoding="utf-8" ?>
<svg baseProfile="full" height="300mm" version="1.1" viewBox="0,0,200,300" width="200mm" xmlns="http://www.w3.org/2000/svg" xmlns:ev="http://www.w3.org/2001/xml-events" xmlns:xlink="http://www.w3.org/1999/xlink"><defs /><rect fill="#222222" height="300" width="200" x="0" y="0" /><text fill="#FFFFFF" style="font-size:12px; font-family:Arial; font-weight:bold;" x="10" y="20">Over 3km Runs</text><text fill="#FFFFFF" style="font-size:4px; font-family:Arial" x="10" y="280">ATHLETE</text><text fill="#FFFFFF" style="font-size:9px; font-family:Arial" x="10" y="290">jdzj</text><text fill="#FFFFFF" style="font-size:4px; font-family:Arial" x="120" y="280">STATISTICS</text><text fill="#FFFFFF" style="font-size:3px; font-family:Arial" x="120" y="285">Number: 50</text><text fill="#FFFFFF" style="font-size:3px; font-family:Arial" x="120" y="290">Weekly: 3.3</text><text fill="#FFFFFF" style="font-size:3px; font-family:Arial" x="141" y="285">Total: 92.1 km</text><text fill="#FFFFFF" style="font-size:3px; font-family:Arial" x="141" y="290">Avg: 1.8 km</text><text fill="#FFFFFF" style="font-size:3px; font-family:Arial" x="167" y="285">Min: 1.0 km</text><text fill="#FFFFFF" style="font-size:3px; font-family:Arial" x="167" y="290">Max: 4.9 km</text><polyline fill="none" points="24.474432348040864,54.440328362514265 24.96000639675185,50.477601754595526 25.78548227995634,51.0915471353801 28.796041382476687,50.477601754595526 29.815746884793043,49.361335714464076 30.59266536287032,46.068338029959705 32.389289343496785,46.738101827853825 31.321026436053216,46.291592717694584 31.855157889891416,45.51020092476392 31.75804307986982,46.84972905018367 31.855157889891416,45.45438718376681 31.806600484764203,47.5194919204223 30.25276352860965,45.95671065308852 35.205618826439604,48.6915750305634 30.155648719053715,46.7939154417254 31.369583840947598,46.23577905423008 30.738337577553466,44.39392505749129 30.25276352860965,47.128797009412665 31.75804307986982,45.733455833105836 31.223911626264453,44.84043566940818 32.58351896307431,46.84972905018367 33.214765226468444,46.570660953002516 31.41814124584198,47.4078648306313 29.76718947989866,46.62647458357969 32.146502319257706,46.40322002826724 30.495550553314388,46.01252434437629 29.281615431187674,49.9752823098097 24.62010456272401,50.756667919573374 24.765776777407154,52.877566263021436 22.823480582097545,54.38451550499303 22.920595391653478,55.33333333331393 23.648956465069205,54.27288977307035 21.51243065018207,48.468321292544715 11.461047840071842,31.33333333331393" stroke="#4dd2ff" stroke-linecap="round" stroke-linejoin="round" stroke-width="0.5"><title>2021-05-30 1.4km</title></polyline><polyline fill="none" points="42.87150837981608,40.96551096744952 46.32402234629262,42.9290779500152 52.62569832406007,45.277645094756735 55.54189944139216,45.00813810728141 59.22905027936213,45.701155699265655 65.43016759783495,44.77713196989498 66.0,44.31511928513646 65.36312849156093,44.81563300231937 59.46368715085555,45.470149971952196 51.25139664800372,44.93113607677515 45.787709497264586,43.468094609561376 42.0,41.50453033836675" stroke="#4dd2ff" stroke-linecap="round" stroke-linejoin="round" stroke-width="0.5"><title>2021-05-27 1.4km</title></polyline><polyline fill="none" points="96.66666666674428,45.05927781277569 93.6614492754452,44.91544991481351 87.56753623206168,42.61419775846298 78.34318840620108,42.27859757540864 72.66666666674428,40.744422359217424 76.1727536234539,42.08682593819685 85.64753623190336,42.94979770982172 95.41449275356717,45.92224430743954 96.20753623195924,45.682531545870006" stroke="#4dd2ff" stroke-linecap="round" stroke-linejoin="round" stroke-width="0.5"><title>2021-05-25 1.1km</title></polyline><polyline fill="none" points="103.99415936600417,41.383988208166556 105.13558614940848,42.31553761687246 108.95035460987128,42.66055528682773 112.7350855236873,44.83415878310916 117.27075511054136,44.66165106242988 119.82394659996498,45.07566944899736 125.17062995408196,44.31663536615088 127.33333333337214,43.247084544884274 127.33333333337214,44.04062256391626 118.80267000419553,45.28267845851951 115.55861493537668,44.73065416098689 112.67501042969525,44.97216489829589 106.96787651232444,43.592101296118926 103.33333333337214,41.970519606547896" stroke="#4dd2ff" stroke-linecap="round" stroke-linejoin="round" stroke-width="0.5"><title>2021-05-24 1.6km</title></polyline><polyline fill="none" points="143.34883720928337,42.71228242554935 148.9302325580502,42.872554820933146 148.9302325580502,43.55371179623762 152.48837209306657,45.15642958608805 158.0,44.63554699791712 152.38372093020007,45.19649744979688 148.40697674418334,44.51534322890802 144.2558139533503,44.715682824200485 134.0,41.47016921688919" stroke="#4dd2ff" stroke-linecap="round" stroke-linejoin="round" stroke-width="0.5"><title>2021-05-21 1.1km</title></polyline><polyline fill="none" points="179.05410738382488,55.333333333343035 179.9097219761461,54.50905657981639 179.6337172690546,53.684777712333016 180.07532480044756,49.84868286468554 181.73135304369498,49.27802021498792 182.09015916311182,48.42202434054343 184.07739305507857,48.89757788556744 188.1622627216857,48.32691354712006 188.0242603678489,46.48809934165911 186.6442368319258,43.50792983881547 183.8841897599632,39.64000906271394 181.89695586799644,37.769440511619905 178.72290173522197,35.89886107246275 174.224025007803,35.264763876388315 172.567996764672,34.59896047381335 170.1391553413123,34.94771480909549 167.10310356190894,33.140529152791714 166.52349367691204,31.333333333343035 165.17107061168645,31.80891216584132 165.25387202377897,32.823477989732055" stroke="#4dd2ff" stroke-linecap="round" stroke-linejoin="round" stroke-width="0.5"><title>2021-05-20 1.7km</title></polyline><polyline fill="none" points="11.448717948747799,67.94570635765558 11.333333333255723,65.49377304199152 16.467948717996478,64.56601215660339 34.92948717949912,64.96362412156304 35.33333333325572,73.976098875748 34.23717948701233,74.77131143194856 24.89102564100176,73.976098875748 23.737179487245157,74.77131143194856 16.64102564100176,75.43398784339661 12.544871794991195,74.83757910266286 11.621794871753082,74.04236662463518 11.621794871753082,67.1504857223481" stroke="#4dd2ff" stroke-linecap="round" stroke-linejoin="round" stroke-width="0.5"><title>2021-05-18 1.1km</title></polyline><polyline fill="none" points="42.0,70.81656326903612 42.93368700251449,71.69402655756858 47.49602122011129,73.61956007643312 50.3607427055249,73.54643882444361 52.291777188307606,73.98516601187293 55.62334217503667,73.59518632819527 59.29442970827222,72.52273902489105 60.33421750657726,71.88901797631115 62.01061007962562,70.71906715576188 66.0,66.79481666500214 65.36339522548951,66.01483398814162 63.793103448231705,67.23355583875673 54.604774535866454,68.2329032713169 53.267904509208165,67.86728882577154 46.031830238644034,67.64791989880905 45.64986737386789,68.25727754842956 45.73474801052362,68.01353466892033 45.310344827594236,68.18415470984473 44.864721485297196,69.1103757336241 44.20689655165188,69.3784916978766 42.297082228120416,68.9885047445714 42.02122015901841,68.47664593446825" stroke="#4dd2ff" stroke-linecap="round" stroke-linejoin="round" stroke-width="0.5"><title>2021-05-10 2.5km</title></polyline><polyline fill="none" points="96.66666666662786,77.66416742117144 96.54716459196061,76.97784573436365 95.73056708171498,76.1313795237511 94.4359612724511,76.7719488323055 93.778699861723,76.56605174747529 93.73886583687272,75.92548187026114 94.17704011069145,75.19339984432736 94.0177040110575,73.15728455914359 93.53969571227208,72.47094953607302 91.01023513136897,73.24879574213992 89.31728907325305,73.06577334013127 89.25753803597763,72.53958312976465 84.87579529732466,72.60821670321457 82.58533886575606,72.24217074367334 78.92060857533943,72.90562861990475 76.31147994473577,72.97426208495745 74.24011065007653,72.51670526748057 72.66666666662786,69.79422353924019 74.95712309819646,68.14699218583701 75.97289073304273,67.02595304638089 78.0641770401271,65.95066551478521 78.32309820188675,65.1727948308253 80.53388658363838,64.1890134645073 82.66500691568945,62.724773004927556 81.80857538036071,63.6856818493834 79.43845089909155,64.71522262143844 77.20774550479837,62.74765183319687 75.79363762098365,62.33583257882856" stroke="#4dd2ff" stroke-linecap="round" stroke-linejoin="round" stroke-width="0.5"><title>2021-05-08 2.6km</title></polyline><polyline fill="none" points="127.33333333325572,65.84912781661842 127.17621385701932,67.51851242731209 122.46262956876308,67.78922287124442 121.75559192569926,69.09765442466596 114.48881614813581,67.42827557717101 110.71794871776365,67.74410447510309 109.34315330046229,68.51111660496099 104.00109110726044,67.33803870904376 103.33333333325572,68.42087995051406 108.91107474057935,70.40608223580057 117.00272776861675,71.21820796022075 127.17621385701932,74.15087218341068" stroke="#4dd2ff" stroke-linecap="round" stroke-linejoin="round" stroke-width="0.5"><title>2021-05-08 1.3km</title></polyline><polyline fill="none" points="158.0,69.59783373813843 157.39522546424996,69.92688456462929 153.83023872692138,68.61067950617871 153.25729442981537,69.12253758427687 149.62864721484948,67.73320687070373 147.2732095491374,68.83004734042333 142.1485411140602,69.15909884838038 138.87002652522642,68.09882072126493 135.5596816976322,68.68380213199998 134.41379310330376,68.50099554032204 134.0,67.91601384110982 139.31564986729063,68.13538208653335 142.43501326267142,69.52471129255719 147.52785145898815,69.3784663581755 157.80901856778655,72.26679312932538" stroke="#4dd2ff" stroke-linecap="round" stroke-linejoin="round" stroke-width="0.5"><title>2021-05-07 1.5km</title></polyline><polyline fill="none" points="164.77743589738384,74.60903522447916 164.66666666674428,73.97184780446696 166.43897435907274,73.37713868945139 167.17743589752354,71.59300638487912 176.44512820523232,66.07064495488885 179.3989743590355,66.92024366065743 180.10051282052882,67.85480028827442 180.949743589852,65.77328500922886 180.61743589746766,65.39096477549174 180.61743589746766,66.83528386597754 180.43282051291317,66.36800469385344 179.73128205141984,67.98223967038211 180.65435897442512,66.92024366065743 179.76820512814447,67.85480028827442 180.24820512812585,66.28304478953942 179.91589743597433,67.93975988053717 180.72820512834005,67.2176028091344 182.2420512821991,67.47248191465042 184.4943589742761,66.66536422612262 186.56205128203146,66.75032405441743 188.66666666674428,67.98223967038211 187.30051282048225,67.04768332091044 185.63897435902618,66.83528386597754 181.7620512819849,67.76984067924786 179.8420512820594,66.5379244518117" stroke="#4dd2ff" stroke-linecap="round" stroke-linejoin="round" stroke-width="0.5"><title>2021-05-06 1.2km</title></polyline><polyline fill="none" points="17.3219911782071,98.85580834455322 18.36546943918802,96.6146635991172 25.805923125240952,91.08994058187818 28.936357907950878,87.75423077639425 33.06490233144723,85.56515976542141 34.65280403266661,87.07666214735946 35.33333333325572,102.45204399089562 34.47132955235429,97.86553625762463 21.99495904217474,104.69316396443173 18.728418399346992,101.56601719203172 12.603654694277793,104.9016397576197 11.333333333255723,107.03851189225679 12.649023314472288,107.76817356795073 16.550724637694657,104.11985510902014 18.002520478796214,100.7842276057927 17.185885318089277,99.58548132551368" stroke="#4dd2ff" stroke-linecap="round" stroke-linejoin="round" stroke-width="0.5"><title>2021-05-06 1.8km</title></polyline><polyline fill="none" points="56.537859007832594,92.95452882733662 58.699738903320394,92.30262820480857 58.9190600522561,91.61450959285139 56.412532637128606,90.6004376479541 56.72584856394678,90.67287145371665 56.349869451718405,91.07125712258858 58.19843342038803,91.79559356640675 59.82767624023836,91.54207597786444 59.29503916448448,93.8961609636026 60.92428198433481,92.99074549373472 60.86161879892461,93.67886145980447 61.519582245498896,93.64264486293541 63.96344647521619,95.59833584629814 65.7493472583592,95.99671603288152 65.78067885118071,97.01077268848894 65.21671018272173,97.807529473881 66.0,101.42912887225975 65.34203655354213,102.73289568538894 47.92167101835366,100.6685960382456 43.06527415139135,101.32048142352141 42.0,102.11722861544695 42.75195822457317,101.35669724352192" stroke="#4dd2ff" stroke-linecap="round" stroke-linejoin="round" stroke-width="0.5"><title>2021-05-02 1.6km</title></polyline><polyline fill="none" points="80.01856540096924,90.94045981910313 81.71983122359961,91.64307025959715 83.78565400862135,89.88654282281641 91.98818565392867,88.55157899385085 95.63375527434982,90.02706518152263 96.66666666674428,92.48620184866013 95.39071729988791,99.51225854584482 85.06160337547772,103.16577988734934 73.39578059059568,104.78175433946308 72.66666666674428,103.58733880321961 77.70970464125276,89.11366934044054" stroke="#4dd2ff" stroke-linecap="round" stroke-linejoin="round" stroke-width="0.5"><title>2021-05-01 1.0km</title></polyline><polyline fill="none" points="114.78184931981377,95.6812844161177 113.32793692010455,98.00012429011986 111.17213577637449,93.53634916536976 111.27240559691563,91.91314957605209 113.02712745848112,89.18848276976496 115.78454752615653,88.02904615050647 122.90370479249395,88.1449899179861 127.06490234960802,84.66666666668607 121.80073676537722,88.3768773828051 109.417413914809,86.69569113344187 108.36458079796284,87.21743911877275 106.30904947477393,91.62329202197725 105.6071607300546,102.40589415928116 104.75486725475639,105.18846817588201 103.75216904794797,105.59425908932462 103.60176431713626,108.66666666668607 104.4039228821639,108.26087793230545 104.75486725475639,106.3478700221749 106.10850983322598,91.27546276326757 107.91336660506204,89.47834155743476 108.6653902598191,89.94211531220935" stroke="#4dd2ff" stroke-linecap="round" stroke-linejoin="round" stroke-width="0.5"><title>2021-05-01 1.8km</title></polyline><polyline fill="none" points="154.31245965138078,94.48648330893775 153.475790832832,94.6288651402865 152.1123305358342,95.60773718902783 150.45448676566593,95.53654667368392 150.16010329243727,95.89249896959518 150.20658489351626,95.55434430517198 149.09102646872634,95.92809416056843 146.45706907683052,95.58993956280756 144.90768237574957,95.76791574592062 144.4428663654835,95.51874904047872 142.75403486122377,95.83910616995126 138.94254357652972,95.92809416056843 135.14654615882318,95.53654667368392 134.0,96.51541379750415 134.07746933505405,96.85356666057487 138.53970303421374,97.7256421718921 139.02001291158376,97.58326278449385 139.90316333121154,98.04599538269395 142.25823111686623,98.08159014878038 143.73014848289313,98.6511054510629 144.36539703031303,98.45533476870332 146.03873466752702,98.84687592108094 146.45706907683052,99.16722714100615 147.4951581665664,99.29180801736948 147.77404777274933,99.07824074810196 148.53324725630227,99.43418605648912 149.47837314393837,99.27401075461239 151.05874757905258,99.7367390164145 151.19819238217315,99.30960527842399 151.5390574564808,99.27401075461239 152.1743060038425,99.61215844728576 152.39122014201712,99.09603803018399 153.3208521627239,98.59771346789785 154.4364105874556,97.47647817019606 155.67591994837858,96.99594662380696 156.32666236284422,96.21285543544218 157.41123305360088,95.87470137150376 158.0,95.0560099601862 157.6901226597838,94.11273046693532 157.209812782472,93.59659431692853 156.23369916074444,94.2195170722407 154.7462879276718,94.13052823889302 154.65332472568844,94.70005601385492 152.56165267911274,95.7323205233406 152.99548095546197,96.14166515885154 153.28986442863243,95.94589175339206 154.29696578433504,96.71118658498744 155.13363460305845,96.58660392665479 155.19561007100856,96.37303345504915" stroke="#4dd2ff" stroke-linecap="round" stroke-linejoin="round" stroke-width="0.5"><title>2021-04-30 3.7km</title></polyline><polyline fill="none" points="188.4770932069514,95.09887447336223 186.960505529074,97.27637434526696 186.12638230621815,97.40702399617294 177.86097946297377,95.1424245761009 170.5055292258039,95.09887447336223 171.49131121649407,95.926325689652 164.66666666674428,93.87946985446615 170.12638230621815,95.79567560061696 178.84676145319827,96.62312551116338 187.8325434436556,99.45386347890599 188.66666666674428,99.27966474328423 187.52922590845264,98.88771733720205" stroke="#4dd2ff" stroke-linecap="round" stroke-linejoin="round" stroke-width="0.5"><title>2021-04-29 1.4km</title></polyline><polyline fill="none" points="20.556190476287156,122.74271058212616 22.510476190480404,121.20664165564813 21.824761904776096,119.98565957395476 23.024761904613115,119.5917935896141 31.219047618913464,111.7537796695542 32.17904761899263,111.63561747793574 35.33333333337214,115.25924210780067 31.321904761716723,117.85877864068607 31.76761904754676,117.89816542746848 29.264761904487386,120.6158443405875 30.327619047486223,120.22197897810838 30.567619047593325,119.31608716922347 29.367619047523476,120.30075208164635 23.641904761781916,127.23272431871737 19.767619047663175,129.5170978869719 17.12761904753279,131.84084379288834 16.956190476194024,133.33748653618386 14.796190476161428,135.03104918872123 13.013333333423361,134.12519098928897 11.333333333372138,131.72268754788092 11.47047619044315,129.39894095412455 13.83619047619868,128.29614122700877 14.693333333358169,126.9570231763937 17.0590476191137,125.93298869460705 17.50476190482732,124.9089515855303 18.670476190513,124.2393874397967 19.013333333306946,123.057800913346 19.904761904734187,122.38823366226279 20.899047618964687,122.62455164387939 21.10476190468762,121.87621088884771" stroke="#4dd2ff" stroke-linecap="round" stroke-linejoin="round" stroke-width="0.5"><title>2021-04-26 2.2km</title></polyline><polyline fill="none" points="56.15968801663257,131.0928693386668 56.814138930873014,130.1906353427621 57.57330199109856,120.7170170735335 60.138749574660324,111.33333333334303 57.78272628376726,120.56663980529993 55.9240856874967,121.43882692803163 53.227747921366245,121.258374624711 50.42669800890144,121.67942983278772 48.960727961268276,122.58168903342448 47.93978453509044,124.02529819656047 47.86125042545609,132.86725507015944 49.03926207101904,135.032593150303 49.82460316782817,135.33333333334303 50.34816389915068,135.0626671819482 53.175391848315485,132.68680953557487 54.143979201093316,133.34844264006824 55.08638851752039,132.6567352693819 55.26963477337267,131.874803307408" stroke="#4dd2ff" stroke-linecap="round" stroke-linejoin="round" stroke-width="0.5"><title>2021-04-25 2.2km</title></polyline><polyline fill="none" points="85.59403448842932,135.33333333334303 84.88630641391501,130.06247907713987 85.27677707583643,127.06253430945799 84.88630641391501,121.48311351571465 85.25237265939359,111.75391153933015 84.95951966301072,111.33333333334303 84.34940925391857,111.75391153933015 83.73929884482641,121.67937640851596 83.98334300843999,131.43627498258138 84.95951966301072,131.71664067762322 85.03273291199002,131.46431156454491 85.15475499397144,126.67001582760713 84.83749758114573,130.39891950503807" stroke="#4dd2ff" stroke-linecap="round" stroke-linejoin="round" stroke-width="0.5"><title>2021-04-18 2.2km</title></polyline><polyline fill="none" points="127.33333333337214,126.74959742717328 123.03533906396478,126.31516268939595 110.03820439358242,122.40522883983795 104.29608404962346,121.85230582038639 103.33333333337214,121.22039286309155 110.1757402101066,121.14140367342043 111.6886341930367,119.91706923948368 114.64565425016917,121.2598874521791" stroke="#4dd2ff" stroke-linecap="round" stroke-linejoin="round" stroke-width="0.5"><title>2021-04-16 1.0km</title></polyline><polyline fill="none" points="158.0,125.258173733906 157.2970711296657,125.44560769003874 157.00836820085533,124.8544690120325 156.5062761506415,124.65261623299739 155.86610878654756,124.81121486851771 155.64016736397753,124.62378009888926 155.32635983260116,124.1912374056119 155.87866108783055,123.21080256221467 155.6903765689931,122.48989039367007 155.31380753137637,122.3312892394897 152.38912133895792,122.53314522409346 149.89121338911355,122.31687094418157 148.67364016739884,122.60523657960584 148.15899581590202,122.40338069452264 147.33054393308703,122.48989039367007 147.12970711302478,122.31687094418157 145.49790794978617,122.5043086718797 144.920502092049,122.3024526474619 144.25523012556368,122.48989039367007 143.58995815902017,122.21594283737068 142.1841004184098,122.47547211406345 141.02928870293545,122.01408641473972 140.07531380758155,122.12943297611491 139.53556485357694,121.4661890052812 138.55648535565706,121.52386251348071 137.66527196654351,121.24991314669023 137.30125523015158,121.42293385913945 136.79916317993775,120.93270797524019 136.0585774058709,121.19223953034088 134.97907949791988,120.8317789126886 134.35146443516714,121.16340271368972 134.79079497914063,120.84619735444721 134.89121338911355,121.33642352849711 134.0,121.29316834399651 134.75313807534985,121.01921854482498 134.38912133895792,121.10572906320158 134.77824267785763,121.07689222943736 134.46443514648126,121.20665793657827 134.66527196654351,121.42293385913945 134.45188284519827,121.24991314669023 134.75313807534985,121.14898430314497 134.66527196654351,120.99038169397681 134.4142259414657,121.07689222943736 134.50209205021383,121.29316834399651 134.89121338911355,121.1345658912469 134.7029288703343,121.0624738103943 134.6778242678265,121.26433154719416 134.77824267785763,121.00480012013577 134.64016736409394,121.26433154719416 134.72803347278386,121.0624738103943 134.79079497914063,121.22107634136046 134.60251046030317,120.7020128727163 134.71548117161728,121.07689222943736 134.65271966526052,120.8317789126886 134.6778242678265,121.07689222943736 134.4267782426905,120.88945267126837 134.51464435149683,120.7596866824606 134.60251046030317,120.88945267126837 134.4142259414657,120.96154483746795 134.66527196654351,121.09131064701069 134.46443514648126,120.97596326643543 134.7029288703343,120.7596866824606 134.52719665277982,121.0624738103943 134.32635983265936,121.0624738103943 134.52719665277982,120.68759441671136 134.33891213388415,120.81736046950391 134.64016736409394,121.07689222943736 134.4267782426905,120.94712640704529 134.46443514648126,121.07689222943736 134.52719665277982,120.96154483746795 134.58995815902017,121.56711762974737 134.46443514648126,122.92243812148809 135.68200836819597,123.18196614374756 135.7824267782853,123.41265733224282 136.8744769875193,123.3117299820733 137.50209205027204,123.54242096579401 142.51046025106916,123.75869343239174 147.45606694568414,124.39309082175896 149.828451882815,124.47959934335086 150.88284518831642,124.71028848398419 152.10041841008933,125.33026374550536 154.00836820079712,125.1139936040563 154.20920502091758,125.46002567674441 154.4728033472784,125.34468174354697 156.26778242678847,125.71954919371638 156.58158995816484,125.97907224996015 157.14644351467723,125.84931077943475 157.3221757322317,125.31584574600856 157.82426778244553,125.1139936040563" stroke="#4dd2ff" stroke-linecap="round" stroke-linejoin="round" stroke-width="0.5"><title>2021-04-09 4.9km</title></polyline><polyline fill="none" points="188.18219461734407,124.61752119261655 180.6542443067301,122.43441206312855 179.79710144968703,121.62109408972901 174.5051759837661,122.04915637109661 170.6666666669771,121.66390033692005 171.37474120105617,122.091962576058 171.03933747438714,122.26318735338282 164.66666666674428,120.80777459216188 169.95859213266522,122.39160589207313 177.56107660476118,123.033698015759 188.10766045562923,125.85889207449509 186.6915113874711,125.30241591131198 188.66666666674428,125.04558051849017 188.14492753637023,124.40349137128214" stroke="#4dd2ff" stroke-linecap="round" stroke-linejoin="round" stroke-width="0.5"><title>2021-04-09 1.4km</title></polyline><polyline fill="none" points="12.287878788076341,148.66865551209776 13.4469696971355,149.64759621821577 21.833333333488554,152.85850479229703 25.54924242431298,152.70187570818234 28.78787878807634,153.36754888881114 34.78787878819276,152.70187570818234 35.33333333337214,152.03620141156716 32.91287878807634,151.40968340693507 30.01515151525382,151.9970440652105 27.01515151525382,150.86147934186738 24.526515151723288,151.05726659490028 20.29924242431298,148.90360150163178 19.75378787901718,147.8855012091226 17.333333333488554,146.94571400637506 15.492424242664129,146.63245111115975 11.333333333372138,147.65055461696465" stroke="#4dd2ff" stroke-linecap="round" stroke-linejoin="round" stroke-width="0.5"><title>2021-04-08 1.4km</title></polyline><polyline fill="none" points="65.84415584430099,151.00244514914812 66.0,151.82587624323787 63.97402597416658,151.86167755286442 58.61298701306805,150.03580626379699 50.50909090915229,149.64198968347046 46.2389610389946,148.13832244710648 42.0,148.78275202546502 46.020779220736586,148.31733077811077 50.290909090894274,149.6061881550413 58.23896103911102,149.96420328097884" stroke="#4dd2ff" stroke-linecap="round" stroke-linejoin="round" stroke-width="0.5"><title>2021-04-06 1.3km</title></polyline><polyline fill="none" points="79.99600798403844,146.39624078094494 83.01397205586545,145.45370274817105 84.2594810379669,146.45168414380169 84.2594810379669,147.50510696839774 83.445109780645,147.9486528118141 84.88223552890122,149.50106042221887 86.36726546892896,149.66738954698667 88.28343313373625,148.7803002956789 90.43912175646983,146.06358048476977 92.35528942127712,146.78434420307167 93.93612774461508,145.8418068413157 96.61876247497275,146.17446727264905 96.61876247497275,142.79241009487305 96.33133732550777,144.84382432926213 94.75049900216982,144.5666066405829 96.66666666674428,144.89926785015268 96.57085828343406,146.34079741226742 92.4510978043545,146.72890087385895 90.43912175646983,146.00813708244823 87.18163672671653,150.11093363136752 87.94810379249975,149.44561736949254 84.35528942127712,149.39017431106186 83.63672654679976,148.17042559827678 84.69061876274645,148.17042559827678 84.59481037943624,147.61599346302683 83.34930139733478,145.39825928362552 82.82235528924502,146.17446727264905 81.76846307399683,146.06358048476977 80.42714570858516,148.94662964023883 75.97205588803627,151.27523513574852 74.53493013978004,153.93648638034938 74.34331337315962,151.88510636007413 73.9600798401516,154.49091208801838 73.62475049891509,153.27117478707805 73.9600798401516,154.10281415190548 73.67265469045378,153.3820601090556 75.6367265470326,154.3800269915955 77.21756487013772,156.76405159430578 79.27744510979392,156.59772463486297 79.85229540918954,155.43343449680833 78.60678642708808,154.8790097478195 79.70858283434063,154.8790097478195 79.1816367264837,155.54431937914342 78.70259481016546,155.10077971516876 79.27744510979392,155.76608907571062 79.42115768464282,155.21166466496652 79.66067864280194,156.4868399669067 78.84630738501437,157.20758990512695 76.21157684619538,156.9858207948855 73.76846307353117,154.10281415190548 74.19960079831071,151.60789225180633 74.48702594800852,153.60383068514057 72.66666666674428,154.6572396902484 73.1936127746012,153.77015855815262 72.85828343313187,154.8790097478195 74.19960079831071,153.93648638034938 74.39121756493114,151.4970065690577" stroke="#4dd2ff" stroke-linecap="round" stroke-linejoin="round" stroke-width="0.5"><title>2021-04-05 1.9km</title></polyline><polyline fill="none" points="122.20781749777962,156.3141429991374 121.2666678801179,156.78796972653072 121.63494381739292,156.2193775377673 122.28965659497771,156.2193775377673 122.43287501507439,155.8166238960548 121.6963231402915,160.19949365968932 120.12092051934451,161.3366571808583 120.03908142203,162.0 119.97770209924784,161.3366571808583 121.75770246319007,160.27056654269109 122.35103591787629,157.94884112779982 122.76023140386678,154.252985498606 121.73724268889055,153.5185456519248 119.52758706465829,153.11578733165516 118.21816150948871,154.13452761576627 115.47655175346881,154.9163485273166 110.4843668245012,157.92514993262012 109.5841367553221,156.47998246355564 108.54068826616276,156.93011755643238 108.04965368297417,156.74058709722885 105.1852852810407,144.44446839395096 105.02160708676092,142.19366333822836 106.47425106191076,148.7801682912832 106.92436609650031,148.96970523995697 112.18252809124533,146.57678992376896 116.23356340243481,145.27370686849463 118.77057541557588,143.85215338683338 122.33057614357676,140.98532742344833 124.43793289642781,138.0 125.64505957998335,138.61602308394504 125.50184115988668,138.80556831977447 125.01080657669809,138.63971624686383 125.29724341689143,138.40278450888582 125.29724341689143,138.781875173765 125.42000206268858,138.14215931814397 124.72436973650474,138.35539813223295" stroke="#4dd2ff" stroke-linecap="round" stroke-linejoin="round" stroke-width="0.5"><title>2021-04-05 3.7km</title></polyline><polyline fill="none" points="140.05607476644218,141.29813022224698 143.8691588784568,144.32865777704865 147.0093457950279,153.07383381132968 147.08411214966327,157.48968056665035 148.80373831791803,157.1433404745767 150.5233644861728,158.70186977775302 154.4112149537541,155.84456387074897 158.0,156.7970002408838 150.67289719637483,155.065296954941 150.67289719637483,157.9226054835599 151.0467289723456,153.93968792574015 150.8971962616779,158.09577538858866 151.12149532698095,156.71041516057448 148.1308411215432,157.31651053833775 150.1495327106677,156.01773419929668 151.19626168254763,157.9226054835599 149.32710280362517,156.71041516057448 150.67289719637483,156.36407475045417 150.37383177597076,158.00919044035254 151.19626168254763,158.00919044035254 150.22429906576872,156.27748962573241 151.94392523355782,158.44211509259185 150.22429906576872,156.88358531240374 150.37383177597076,155.4982231075992 151.64485981315374,157.48968056665035 150.44859813107178,155.58480831148336 148.42990654241294,155.4982231075992 147.53271028026938,157.7494355433737 147.7570093460381,156.62383007141761 143.94392523402348,153.76651717355708 145.43925233650953,148.22503445867915 143.94392523402348,148.83113589161076 144.0186915891245,146.57989981793799 139.6074766353704,144.15548506524647 134.0,144.6750030948897 137.14018691610545,145.8006244021817 138.18691588798538,148.74454999895534" stroke="#4dd2ff" stroke-linecap="round" stroke-linejoin="round" stroke-width="0.5"><title>2021-04-04 1.4km</title></polyline><polyline fill="none" points="179.48230912466533,139.25664717936888 172.0409683426842,142.6452750597382 164.8677839851007,150.96275383752072 171.6387337059714,158.43300643580733 175.59404096845537,153.96626605506754 180.21973929251544,152.04093904054025 180.35381750483066,149.49950010812609 184.64432029798627,146.34194323880365 178.34264432033524,138.33247338532237 173.04655493493192,141.87513365183258 164.66666666674428,151.4248333926662 171.50465549342334,157.58586798340548 175.52700186218135,152.8880835121381 182.0968342644628,151.80989947950002 184.04096834291704,150.34664733853424 185.04655493493192,146.4959706995287 184.77839851030149,145.80284688645042 183.97392923687585,147.34312119014794 181.62756052147597,148.4983249232173 181.56052141543478,147.8052028885577 188.66666666674428,143.10735953989206 186.05214152717963,141.7211052790517 183.30353817506693,138.33247338532237 181.76163873355836,140.87394868506817 177.06890130368993,138.87157489813399 167.81750465533696,147.1890938966535 164.93482309090905,151.27080690470757 171.6387337059714,157.58586798340548 175.59404096845537,153.42717496975092 176.19739292375743,153.88925306574674 174.52141526993364,156.19963944121264 183.70577281201258,158.1249561959412 186.65549348271452,161.66752661467763 180.42085661063902,150.26963399187662 181.09124767244793,148.1902707614936 184.37616387358867,145.41777783579892 180.75605214154348,143.18437359313248 178.7448789572809,139.33366161276354 177.33705772832036,138.79456041916274 176.1303538174834,139.64171927043935 176.7337057730183,140.18081987876212" stroke="#4dd2ff" stroke-linecap="round" stroke-linejoin="round" stroke-width="0.5"><title>2021-04-02 3.1km</title></polyline><polyline fill="none" points="26.056737588602118,185.9416271655209 23.248226950410753,184.96406437354744 17.950354609871283,184.86630788222828 12.205673758988269,184.10869376675691 11.716312056756578,183.64434848650126 11.333333333372138,181.32260903154383 11.886524822679348,180.882698051646 13.035460992949083,180.83381900558015 11.992907801526599,177.58334080473287 12.248226950410753,173.18412945981254 13.843971631256863,170.91117299090547 14.482269503641874,169.3714164375997 17.52482269506436,167.26951109002403 18.75886524829548,168.61375493775995 19.9078014184488,168.85816212632926 20.50354609929491,169.56694160972256 23.014184397179633,169.56694160972256 26.88652482267935,170.17795677811955 28.758865248179063,171.15557791299943 31.865248226909898,173.91733677549928 34.80141843960155,179.00084782007616 34.88652482267935,179.66071900905808 34.20567375875544,180.2472697016492 33.92907801421825,181.17597212498367 34.52482269494794,181.1515326321387 35.33333333337214,183.22888091907953 34.80141843960155,184.3286464905832 32.95035460987128,184.67079478390224 32.50354609917849,185.23289452583413 31.460992907639593,184.71967307289015 31.014184397179633,184.91518613271182 29.9078014184488,184.5730381768808 29.375886524794623,186.063822243319 29.205673758871853,185.89274911752727" stroke="#4dd2ff" stroke-linecap="round" stroke-linejoin="round" stroke-width="0.5"><title>2021-04-02 3.2km</title></polyline><polyline fill="none" points="44.51458885939792,174.63754334743135 52.63129973469768,178.2570642408682 57.023872678983025,178.22050360037247 59.69761273206677,178.84203399711987 63.29442970827222,177.96457901661051 66.0,178.00113968213554 59.888594164396636,178.80547341448255 57.214854111429304,178.18394295641338 52.88594164454844,178.40330676650046 47.2838196286466,176.7946358115587 42.0,174.49129933625227" stroke="#4dd2ff" stroke-linecap="round" stroke-linejoin="round" stroke-width="0.5"><title>2021-04-01 1.4km</title></polyline><polyline fill="none" points="72.66666666674428,173.6437870437221 75.37697763252072,176.39597093625343 78.55864702700637,177.07273493081448 82.29023458831944,179.01278616627678 87.39661756716669,178.92255140753696 90.2247681398876,179.68954628962092 96.66666666674428,178.92255140753696 92.1494817242492,179.59931166438037 86.68957992387004,178.78719923607423 81.81887615961023,179.01278616627678 74.51282051298767,177.02761736226967 73.76650300086476,176.62155904562678 74.6306601203978,176.2606180171133" stroke="#4dd2ff" stroke-linecap="round" stroke-linejoin="round" stroke-width="0.5"><title>2021-03-29 1.2km</title></polyline><polyline fill="none" points="114.89567526010796,188.66666666668607 113.77721573947929,182.35978820791934 112.99915694235824,182.13653458899353 109.20612030709162,176.6667935004807 106.67742921668105,176.44353764271364 114.5552745363675,164.66666666668607 117.18122297618538,166.28530322684674 122.33586250641383,171.53188655734994 121.80094708362594,175.27144294895697 123.98923745006323,188.10853865550598 117.03533695195802,183.4760549850762 114.50664586131461,182.9737352069351 114.26350248744711,184.0341875506565" stroke="#4dd2ff" stroke-linecap="round" stroke-linejoin="round" stroke-width="0.5"><title>2021-03-28 1.4km</title></polyline><polyline fill="none" points="145.70461538457312,172.31948970837402 147.0707692306023,173.1253176970058 147.40307692298666,172.44672580697807 148.73230769229122,172.36190174540388 149.0276923077181,171.68330865050666 149.43384615378454,172.14984151831595 150.06153846159577,171.68330865050666 152.0184615382459,172.78602188592777 153.16307692299597,171.93778118662885 156.52307692286558,172.95566982484888 156.30153846158646,172.10742946030223 157.8892307691276,172.27707766721142 156.7076923076529,171.85295702467556 157.0030769230798,171.1743631264835 157.0769230767619,172.10742946030223 156.8923076922074,171.68330865050666 156.48615384614095,172.23466562171234 156.55999999982305,171.55607232591137 157.0769230767619,172.27707766721142 156.52307692286558,172.10742946030223 157.6307692306582,171.98019326131907 157.6307692306582,172.4043137781846 157.15076923067681,171.81054493732518 156.37538461526856,172.23466562171234 157.92615384608507,171.98019326131907 157.4461538461037,171.59848443832016 157.29846153850667,172.87084586379933 156.63384615373798,172.31948970837402 156.55999999982305,172.78602188592777 157.48307692282833,172.19225357216783 157.0769230767619,172.23466562171234 158.0,173.37978937965818 157.8892307691276,172.14984151831595 157.33538461546414,172.23466562171234 157.6307692306582,172.82843387688627 156.8184615385253,173.08290573532577 156.7076923076529,172.61637387992232 156.264615384629,173.25255355713307 154.71384615381248,173.04049376939656 154.71384615381248,172.19225357216783 155.08307692292146,179.48706458249944 150.91076923068613,180.42011287758942 147.51384615385905,179.3174192205188 147.77230769232847,179.86876640259288 146.7384615384508,179.3174192205188 140.7569230766967,179.02053967578104 137.7661538461689,179.91117769494304 137.50769230769947,181.43798143585445 136.80615384620614,181.98932589875767 134.40615384606645,182.15897020683042 134.0,181.48039257343044" stroke="#4dd2ff" stroke-linecap="round" stroke-linejoin="round" stroke-width="0.5"><title>2021-03-26 1.5km</title></polyline><polyline fill="none" points="167.20325203274842,175.14585030660965 174.8130081301788,178.25152123329462 177.48896631831303,178.0594187390816 179.83042973291595,178.57169180441997 183.2032520325156,177.89933324043523 184.54123112664092,178.0594187390816 188.66666666662786,176.58662917336915 185.01509872253519,178.0594187390816 180.3042973286938,178.4436236138572 177.82346109184437,177.93135034645093 175.0638792103855,178.15547000040533 169.12659698026255,176.71469809650443 164.66666666662786,174.76164152889396" stroke="#4dd2ff" stroke-linecap="round" stroke-linejoin="round" stroke-width="0.5"><title>2021-03-26 1.6km</title></polyline><polyline fill="none" points="35.33333333325572,205.46288499992806 33.49971703463234,205.2288693258597 30.76966610061936,203.49714975003735 28.447085455525666,203.54395306500373 25.105829088715836,202.23345850370242 16.956423316150904,202.46747565513942 18.178834182210267,203.0759197085572 17.689869835739955,203.21632976384717 11.333333333255723,201.2037816666998 16.467458969913423,203.16952641663374 23.761177136329934,203.63755968090845 29.995472552254796,205.1352630238107" stroke="#4dd2ff" stroke-linecap="round" stroke-linejoin="round" stroke-width="0.5"><title>2021-03-24 1.1km</title></polyline><polyline fill="none" points="66.0,205.09373564532143 64.27173913037404,204.98137004452292 62.576086956541985,203.70789091230836 59.86956521740649,203.2584266694903 57.65217391308397,202.24713017840986 50.869565217522904,202.39695205065073 51.45652173925191,203.03369434861816 46.141304348013364,201.57293102133553 42.0,202.0973082469427 43.63043478259351,202.32204112189356 46.271739130374044,201.61038656151504 51.16304347838741,203.10860513712396 60.06521739135496,203.48315885741613" stroke="#4dd2ff" stroke-linecap="round" stroke-linejoin="round" stroke-width="0.5"><title>2021-03-23 1.3km</title></polyline><polyline fill="none" points="96.1879432622809,204.52473626405117 88.11347517720424,201.70203831864637 84.8262411346659,202.2519162229146 81.57092198578175,201.88533104374073 82.46453900705092,202.4718671569426 82.11347517720424,202.58184257516405 76.97517730481923,201.04218375941855 72.66666666662786,201.66537976264954 76.65602836874314,201.1155009905342 81.47517730493564,202.50852563322405 87.85815602832008,202.94842706737109 96.66666666662786,205.62448290723842 95.2304964538198,204.92797707766294 96.66666666662786,204.52473626405117" stroke="#4dd2ff" stroke-linecap="round" stroke-linejoin="round" stroke-width="0.5"><title>2021-03-22 1.6km</title></polyline><polyline fill="none" points="123.77097679150756,191.48174476895656 124.10150471818633,191.71352184518764 123.91787809226662,192.45099269464845 125.58888038771693,192.70383925938222 126.02958428964484,193.06203804937832 125.8826829890022,193.71522253850708 126.5437388420105,194.15770122382673 127.33333333337214,195.5272723227681 126.85590410593431,196.79148403878207 126.15812292776536,197.08646570060228 125.90104565164074,197.8449881115812 122.50395307317376,200.79477199501707 118.7579699056223,202.24857913258893 117.58275950001553,203.00708329395275 116.68298903340474,203.7655847738206 114.05712828354444,207.38949928077636 103.33333333337214,215.18492189771496" stroke="#4dd2ff" stroke-linecap="round" stroke-linejoin="round" stroke-width="0.5"><title>2021-03-21 1.3km</title></polyline><polyline fill="none" points="144.87938582943752,201.24828042268928 144.5747528510401,199.30028610258887 142.48584099917207,196.70293710440455 141.63722055929247,196.45319060889597 138.7649667628575,199.07551656589203 135.91447246493772,202.6967793359654 135.1964090159163,202.89657164129312 134.41306707134936,205.0193551817065 135.74039647728205,206.91735838569002 138.89552375359926,208.41577195128775 142.31176501139998,211.18781374910031 142.11592952534556,211.33765298468643 142.5728789929999,211.28770658264693 142.1594485223759,211.0629476520262 142.6816764852265,211.93700904303114 143.8349299035035,213.31052801058104 148.20858909352683,215.33333333332848 150.47157693305053,215.10857798162033 155.8026540550636,211.38759937687428 156.52071750431787,209.88920333932037 157.58693292876706,205.09427662969392 156.52071750431787,203.24620779762336 152.53872928663623,199.5750041550782 148.230348592042,194.15551132777182 145.03170231857803,191.33333333332848 141.44138507312164,196.32831726899894 142.0941700269468,196.40324128030625 142.9863094636239,197.2274039459444 144.7270693401806,199.45013234986982 144.70530984178185,200.1494136684487" stroke="#4dd2ff" stroke-linecap="round" stroke-linejoin="round" stroke-width="0.5"><title>2021-03-20 3.7km</title></polyline><polyline fill="none" points="186.3021346470341,209.37646311320714 178.10509031172842,206.7510105704132 169.43513957317919,206.47941117419396 164.78489326755516,205.4835453465057 164.66666666674428,203.85394205802004 165.33661740552634,203.12967207227484 164.70607553375885,201.90746387955733 164.8637110015843,199.77990852005314 167.3464696223382,197.29020355342072 171.44499178999104,197.7881456273608 175.62233169120736,199.19143401965266 183.50410509039648,199.01036479091272 187.7208538588602,198.33135454636067 188.23316912958398,197.7428781883791 187.48440065677278,199.46303772905958 187.01149425283074,205.3024786002643 187.40558292297646,208.29007077918504 188.66666666674428,208.51640272751683" stroke="#4dd2ff" stroke-linecap="round" stroke-linejoin="round" stroke-width="0.5"><title>2021-03-19 1.6km</title></polyline><polyline fill="none" points="21.059551430866122,229.75482976532658 26.275328693096526,231.99343712747213 28.29853054927662,231.8655173312436 30.06187161640264,232.24927649278834 31.918020108365454,231.84419735790289 32.901778809027746,231.92947723883844 35.33333333337214,231.2045971783955 30.822892498224974,232.22795655720984 28.50270688335877,231.8655173312436 25.90409899468068,231.97211716671882 15.528228925075382,228.66749782467377 11.333333333372138,228.2197713181522 12.242846094421111,228.34769327173126 11.630317092058249,228.0918492888013 11.815931941266172,227.98524753988022 13.226604795083404,228.0705289432517 15.101314771920443,227.7507235072262 15.732405259157531,228.2197713181522 16.10363495745696,227.98524753988022 16.549110595602542,228.4116542201955 16.9389017787762,228.28373230446596 17.440061871660873,228.71013839599618 18.07115235889796,228.47561514966947 19.370456303237006,229.41370660801476 19.63031709205825,229.09390315918426 18.962103634956293,228.0918492888013 18.70224284613505,228.1131696322991 18.79505027073901,228.83806005938095 20.001546790474094,229.43502682114195 20.502706883242354,228.24109164904803 20.781129157170653,228.81673978742037 21.152358855470084,228.75277895880572 20.762567672180012,228.8593803292897 20.985305491252802,228.79541951330611 20.44702242850326,228.04920859559206 21.245166280074045,227.98524753988022" stroke="#4dd2ff" stroke-linecap="round" stroke-linejoin="round" stroke-width="0.5"><title>2021-03-19 3.1km</title></polyline><polyline fill="none" points="52.09943077468779,242.0 51.96463863103418,241.5819668899494 51.708533558179624,241.53551869789953 51.33111555594951,241.8916211524338 51.789408844313584,239.27502340682258 51.61417905759299,239.90982331692067 51.69505434378516,241.07103602134157 51.4389492708724,241.27231201659015 49.983194119588006,241.24134649564803 49.807964332809206,240.312378027229 49.929277262068354,239.4917846403987 53.46083142544376,238.70215299149277 55.8331731534563,238.54732279067684 55.75229786732234,223.57452080208168 56.54757151479134,222.5525401474879 58.192035667190794,221.09698045144614 57.895492951152846,220.35371071797272 55.88709001097595,218.0" stroke="#4dd2ff" stroke-linecap="round" stroke-linejoin="round" stroke-width="0.5"><title>2021-03-18 2.7km</title></polyline><polyline fill="none" points="80.80629165726714,240.01956518460065 81.47821243066574,240.13606208558485 81.5796344341943,240.70398316152568 81.83318944304483,240.8496035983262 83.2023864906514,241.1262820326083 84.97727155248867,240.9660998443287 86.2070133452653,241.31558803094958 87.34801088500535,242.0 87.63959914509906,241.08259599846497 87.47478838940151,237.1944871921296 88.52704167604679,237.09255037779803 87.01838937349385,236.67023996847274 85.56044807273429,236.59742770684534 84.91388280026149,235.89842816797318 83.63343000569148,222.66049949197622 85.02798255422385,221.02934141110745 86.01684708864195,220.46134463319322 85.30689306394197,219.19426702002238 84.08982902159914,218.0" stroke="#4dd2ff" stroke-linecap="round" stroke-linejoin="round" stroke-width="0.5"><title>2021-03-17 2.8km</title></polyline><polyline fill="none" points="104.14184397179633,228.70479940716177 104.43971631210297,228.70479940716177 105.92907801433466,229.3401931943954 106.35460992902517,229.87783345507341 110.78014184394851,231.09974096922087 115.46099290787242,231.7351316860586 117.03546099294908,231.6373793212697 118.14184397179633,231.8817601974879 118.69503546110354,232.0772648116108 120.90780141856521,232.41939770092722 122.73758865264244,233.15253881152603 123.33333333325572,233.29916690345271 124.354609929258,233.8368028694822 125.20567375910468,234.3744382521836 125.54609929095022,234.4721900773293 125.92907801433466,234.66769366973313 126.86524822702631,234.91207305178978 127.33333333325572,234.86319718507002 127.29078014218248,234.86319718507002 127.29078014218248,234.86319718507002 127.16312056756578,234.91207305178978 127.24822695041075,234.86319718507002 127.29078014218248,234.86319718507002 127.33333333325572,234.91207305178978 127.07801418448798,234.86319718507002 126.52482269518077,234.86319718507002 124.65248226956464,234.91207305178978 123.37588652502745,234.52106598272803 122.14184397179633,234.2766864078585 120.90780141856521,234.17893454423756 119.6737588653341,234.22781047833269 119.03546099318191,234.2766864078585 117.8014184399508,234.3744382521836 117.24822695041075,234.3744382521836 115.33333333325572,234.22781047833269 114.73758865264244,234.08118266108795 113.5886524822563,233.78792689662077 112.99290780141018,233.49467095860746 111.84397163125686,233.1036627710855 111.24822695041075,232.90815856179688 108.82269503548741,232.41939770092722 107.24822695041075,231.78400786139537 107.12056737602688,231.49075073757558 107.6312056737952,231.392998324387 107.84397163125686,231.392998324387 108.01418439717963,231.19749344035517 107.84397163125686,231.14861720716 107.41843971633352,231.05086472650873 107.20567375887185,231.00198847902357 107.07801418448798,230.95311222661985 106.82269503548741,230.95311222661985 106.65248226956464,230.85535970737692 106.43971631210297,230.85535970737692 106.2269503546413,230.85535970737692 105.92907801433466,230.75760716895456 105.716312056873,230.65985461123637 105.5886524822563,230.6109783250722 105.16312056733295,230.36659682227764 105.03546099294908,230.2688441873761 104.82269503548741,230.1222151987895 104.69503546110354,230.0244625158375 104.56737588648684,229.87783345507341 104.39716312056407,229.6823279732198 104.09929078025743,229.43794601250556 103.84397163125686,229.29131677813712 103.716312056873,229.19356393112685 103.50354609941132,228.9491817294038 103.41843971633352,228.50929346258636 103.41843971633352,228.11828134211828 103.37588652502745,227.87389861006523 103.33333333325572,227.67839233769337 103.46099290787242,227.28737956171972 103.41843971633352,226.74973649086314 103.41843971633352,226.505353084096 103.37588652502745,226.35872298205504 103.46099290787242,226.21209283685312 103.41843971633352,226.16321611215244 103.46099290787242,225.8210789039731 103.50354609941132,225.57669503914076 103.716312056873,225.52781825177954 104.14184397179633,225.38118786059204 104.35460992902517,225.28343424235936 104.48226950364187,225.23455742609804 104.73758865264244,225.13680377905257 104.78014184394851,225.13680377905257 104.78014184394851,225.08792694821022 104.82269503548741,225.08792694821022" stroke="#4dd2ff" stroke-linecap="round" stroke-linejoin="round" stroke-width="0.5"><title>2021-03-02 1.4km</title></polyline><polyline fill="none" points="138.40930232568644,230.35262831515865 138.68837209325284,230.48084346216638 141.7581395348534,231.05781131132971 143.7116279071197,231.76299354241928 144.43720930232666,232.08353066741256 146.39069767436013,232.5963897384354 147.1162790695671,232.5963897384354 149.18139534885995,232.4681750088348 149.85116279055364,232.2758528664708 151.91627906961367,232.14763807336567 153.19999999995343,232.5963897384354 153.86976744187996,232.85281912237406 155.04186046519317,233.3015703006531 156.15813953476027,233.49389213934774 157.5534883721266,233.36567758664023 157.77674418571405,233.2374630085542 158.0,233.36567758664023 157.94418604648672,234.2631789254374 156.93953488371335,234.5196076518041 156.10232558147982,235.22478612751001 155.71162790665403,235.3530003139167 155.3209302322939,235.48121447477024 155.09767441847362,235.48121447477024 154.76279069739394,235.54532154556364 154.53953488380648,235.67353566846577 153.7581395348534,235.99407086527208 153.86976744187996,236.31460590392817 154.26046511624008,236.5710338211502 154.26046511624008,236.63514078472508 154.26046511624008,236.6992477417807 154.31627906975336,236.63514078472508 154.0372093024198,236.5710338211502 153.70232558134012,236.6992477417807 153.5906976745464,236.7633546925499 153.479069767287,236.8274616371491 153.42325581377372,236.89156857528724 153.42325581377372,236.89156857528724 153.19999999995343,236.5710338211502 153.0883720931597,236.44281987514114 152.92093023238704,236.25049890892114 152.86511627887376,236.12228489975678 152.30697674420662,235.99407086527208 152.0837209301535,235.99407086527208 151.80465116281994,235.99407086527208 151.52558139548637,235.9299638386583 151.1906976744067,235.9299638386583 150.9116279068403,235.9299638386583 150.35348837194033,235.80174976633862 150.07441860460676,235.7376427205745 149.79534883750603,235.67353566846577 149.5162790697068,235.60942861024523 148.95813953503966,235.48121447477024 148.73488372075371,235.3530003139167 148.45581395342015,235.28889322385658 148.17674418608658,235.16067902499344 147.89767441828735,235.0324648009264 147.6744186046999,234.84014341741567 147.1720930233132,234.583714817476 146.6697674416937,234.3272861163714 146.2790697675664,233.94264287507394 145.99999999976717,233.8144284109003 145.7209302324336,233.68621392123168 145.44186046510004,233.55799940635916 145.1627906973008,233.4297848661663 144.99534883745946,233.36567758664023 144.54883720935322,233.1733557098196 144.3255813953001,233.1092484050314 144.102325581247,233.04514109378215 143.8790697674267,232.9169264525408 143.60000000009313,232.85281912237406 143.32093023252673,232.7887117859791 142.7069767441135,232.7246044430649 142.4837209302932,232.66049709398067 142.2046511627268,232.5963897384354 141.86976744164713,232.5963897384354 141.64651162782684,232.5322823767783 141.08837209292687,232.4681750088348 140.8093023255933,232.33996025362285 140.30697674420662,231.95531583635602 139.74883720930666,231.76299354241928 139.52558139525354,231.69888609845657 139.24651162791997,231.63477864832385 138.91162790707313,231.57067119167186 138.68837209325284,231.50656372879166 138.40930232568644,231.37834878376452 137.90697674406692,231.12191881844774 137.62790697673336,230.99370379775064 137.40465116268024,230.86548875179142 136.8465116280131,230.5449510262697 136.67906976747327,230.41673589183483 136.45581395342015,230.28852073219605 135.95348837203346,229.96798272209708 135.73023255821317,229.77565984026296 135.45116279064678,229.39101390575524 135.06046511628665,228.9422600279213 134.39069767436013,228.4293980738148 134.39069767436013,228.2370747369714 134.2790697675664,227.9165357152233 134.16744186053984,227.66010438412195 134.0,226.82670185953612 134.16744186053984,226.5061621425557 134.2232558138203,226.18562226754148 134.2790697675664,225.92919025360607 134.33488372107968,225.73686617682688 134.33488372107968,225.41632592235692 134.33488372107968,224.58292052114848 134.33488372107968,224.005946925201 134.94883720949292,223.74951405148022 135.39534883736633,223.49308107659454 135.78604651195928,223.3648645511712 136.06511627929285,223.30075627902988 136.17674418608658,223.17253971571336 136.95813953480683,223.10843142465455" stroke="#4dd2ff" stroke-linecap="round" stroke-linejoin="round" stroke-width="0.5"><title>2020-12-25 1.0km</title></polyline><polyline fill="none" points="165.0275689221453,227.22784271463752 165.29824561392888,227.4869241376873 165.52380952378735,227.7460054330877 166.02005012519658,228.05690281902207 167.95989974937402,228.57506471994566 168.99749373435043,228.88596161524765 169.674185463693,229.0414099940681 172.83208020031452,230.28499536775053 173.73433583951555,230.9067869510036 174.77192982449196,231.3731301553198 176.3057644108776,231.94310462108115 176.8922305763699,232.0467362756026 177.97493734350428,232.0467362756026 178.6065162906889,232.0467362756026 179.68922305759043,231.8394729461288 180.68170426087454,231.73584125045454 181.80952380946837,231.7876571008237 182.4411027568858,231.73584125045454 184.20050125312991,232.0467362756026 184.7869674183894,232.25399952346925 185.91478696721606,232.46126268961234 186.54636591486633,232.40944690571632 187.674185463693,232.35763111675624 188.17042606533505,232.3058153227321 188.66666666674428,232.5130784684443 188.62155388458632,232.56489424203755 188.48621553904377,232.61671001050854 188.4411027568858,232.66852577403188 188.4411027568858,232.72034153225832 188.39598997496068,232.66852577403188 188.30576441111043,232.7721572854207 188.30576441111043,232.66852577403188 188.3508771932684,232.72034153225832 188.39598997496068,232.7721572854207 188.3508771932684,232.72034153225832 188.4411027568858,232.61671001050854 188.39598997496068,232.61671001050854 188.3508771932684,232.61671001050854 188.3508771932684,232.66852577403188 188.3508771932684,232.61671001050854 188.3508771932684,232.61671001050854 188.3508771932684,232.61671001050854 188.3508771932684,232.66852577403188 188.30576441111043,232.66852577403188 188.30576441111043,232.66852577403188 188.26065162895247,232.66852577403188 188.21553884726018,232.66852577403188 188.30576441111043,232.66852577403188 188.30576441111043,232.66852577403188 188.30576441111043,232.66852577403188 188.26065162895247,232.66852577403188 188.26065162895247,232.72034153225832 188.17042606533505,232.66852577403188 187.1328320801258,232.66852577403188 185.95989974937402,232.66852577403188 184.7869674183894,232.40944690571632 184.24561403505504,232.25399952346925 183.11779448622838,231.94310462108115 182.5313283209689,231.8394729461288 181.31328320782632,231.8394729461288 180.72681704256684,231.7876571008237 179.50877192988992,231.8912887860206 178.24561403505504,232.0467362756026 177.65914786979556,232.0467362756026 176.4411027568858,231.994920450903 175.80952380946837,231.8394729461288 172.96741854632273,230.9067869510036 172.38095238106325,230.69952317152638 170.7117794486694,230.28499536775053 170.26065162895247,230.23317936930107 168.45614035101607,229.922283271153 167.41854636580683,229.45593877899228 166.83208020054735,229.14504222100368 165.7042606517207,228.5232485528686 164.66666666674428,228.1605352400802" stroke="#4dd2ff" stroke-linecap="round" stroke-linejoin="round" stroke-width="0.5"><title>2020-12-08 1.1km</title></polyline><polyline fill="none" points="11.333333333255723,254.1927825754683 11.564102564007044,254.23695931903785 13.102564102504402,255.42972974435543 13.602564102504402,255.6064362039324 15.564102564007044,256.18073171624565 16.487179487245157,256.4457909351331 16.9487179487478,256.6224969938339 18.025641025742516,257.02008537136135 18.987179487245157,257.5060262423358 19.487179487245157,257.81526106756064 21.9487179487478,258.65461165999295 22.487179487477988,258.69878796333796 24.025641025742516,258.52208272361895 24.487179487245157,258.47790640272433 26.91025641025044,258.52208272361895 27.41025641025044,258.5662590400607 28.91025641025044,259.00802196530276 30.4487179487478,259.14055075787473 30.91025641025044,259.09637449795264 31.91025641048327,259.14055075787473 33.4487179487478,258.91966941498686 33.91025641025044,258.8754931334115 34.87179487198591,258.7871405570768 35.33333333325572,258.7429642624629 35.14102564100176,258.389553748013 34.064102564007044,258.34537741405074 33.6025641025044,258.389553748013 32.64102564123459,258.65461165999295 32.294871794991195,258.7429642624629 31.294871794991195,258.96384569234215 30.833333333255723,259.00802196530276 29.87179487175308,259.00802196530276 29.37179487175308,258.91966941498686 28.41025641025044,258.7429642624629 27.94871794898063,258.61043535213685 26.4487179487478,258.34537741405074 25.9487179487478,258.34537741405074 24.9487179487478,258.389553748013 24.41025641025044,258.389553748013 23.41025641025044,258.47790640272433 22.41025641025044,258.52208272361895 21.4487179487478,258.47790640272433 20.525641025742516,258.25702473323327 20.064102564239874,258.124495679338 19.064102564239874,257.81526106756064 18.602564102737233,257.63855547926505 17.67948717949912,257.32932053203695 16.448717948514968,256.97590890232823 16.102564102504402,256.93173242907505 15.17948717949912,256.71084999712184 13.91025641048327,256.3132613452326 13.564102564239874,256.0482020480267 12.756410256493837,255.6064362039324 12.333333333255723,255.38555311851087" stroke="#4dd2ff" stroke-linecap="round" stroke-linejoin="round" stroke-width="0.5"><title>2020-12-03 1.3km</title></polyline><polyline fill="none" points="65.74647887307219,257.297592390154 65.95774647872895,258.07410980117857 66.0,258.3167712408176 65.28169014095329,258.7535615306988 64.05633802805096,258.7050292954664 62.366197183029726,258.4138357832271 60.76056338008493,257.73438358466956 60.21126760565676,257.6373189082078 57.08450704230927,256.4240088383376 55.94366197171621,256.2298789493507 54.21126760542393,256.27841142885154 53.02816901379265,256.2298789493507 52.18309859139845,256.2298789493507 51.67605633800849,256.2298789493507 50.535211267415434,256.1328139763791 50.15492957737297,256.0842814827338 48.8450704223942,255.9872164807166 48.338028168771416,255.93868397272308 46.563380281673744,255.79308641972602 46.01408450677991,255.6960213604325 44.91549295769073,255.59895628198865 43.478873239597306,254.96803280559834 42.92957746470347,254.77390234250925 42.0,254.57977180264425 43.05633802805096,254.8224349654629 43.98591549298726,255.25922835676465 44.91549295769073,255.6960213604325 45.464788732351735,255.74455389240757 46.85915492963977,255.89015145975281 47.28169014072046,255.93868397272308 48.380281690042466,256.0357489840826 48.92957746470347,256.0842814827338 50.0704225350637,256.0842814827338 50.577464788686484,256.1328139763791 51.71830985927954,256.2298789493507 52.2253521126695,256.2298789493507 53.78873239434324,256.27841142885154 54.29577464796603,256.27841142885154 55.05633802805096,256.1813464652805 55.30985915497877,256.1813464652805 55.478873239364475,256.1813464652805 55.64788732375018,256.1813464652805 55.81690140836872,256.1813464652805 56.02816901402548,256.1328139763791 56.23943661944941,256.1328139763791 56.66197183076292,256.1813464652805 56.83098591538146,256.1813464652805 57.21126760565676,256.32694390340475 57.591549295699224,256.5210737539164 57.549295774661005,256.61813865049044 57.549295774661005,256.66667109151604 57.507042253389955,256.66667109151604" stroke="#4dd2ff" stroke-linecap="round" stroke-linejoin="round" stroke-width="0.5"><title>2020-11-30 1.0km</title></polyline></svg>