<?xml version="1.0" encoding="utf-8" ?>
<svg baseProfile="full" height="300mm" version="1.1" viewBox="0,0,200,300" width="200mm" xmlns="http://www.w3.org/2000/svg" xmlns:ev="http://www.w3.org/2001/xml-events" xmlns:xlink="http://www.w3.org/1999/xlink"><defs /><rect fill="#222222" height="300" width="200" x="0" y="0" /><text fill="#FFFFFF" style="font-size:12px; font-family:Arial; font-weight:bold;" x="10" y="20">Over 3km Runs</text><text fill="#FFFFFF" style="font-size:4px; font-family:Arial" x="10" y="280">ATHLETE</text><text fill="#FFFFFF" style="font-size:9px; font-family:Arial" x="10" y="290">jdzj</text><text fill="#FFFFFF" style="font-size:4px; font-family:Arial" x="120" y="280">STATISTICS</text><text fill="#FFFFFF" style="font-size:3px; font-family:Arial" x="120" y="285">Number: 70</text><text fill="#FFFFFF" style="font-size:3px; font-family:Arial" x="120" y="290">Weekly: 3.0</text><text fill="#FFFFFF" style="font-size:3px; font-family:Arial" x="141" y="285">Total: 157.6 km</text><text fill="#FFFFFF" style="font-size:3px; font-family:Arial" x="141" y="290">Avg: 2.3 km</text><text fill="#FFFFFF" style="font-size:3px; font-family:Arial" x="167" y="285">Min: 1.0 km</text><text fill="#FFFFFF" style="font-size:3px; font-family:Arial" x="167" y="290">Max: 13.2 km</text><polyline fill="none" points="18.80710823915433,46.96638714557048 18.423263327917084,47.487043981731404 14.235864297370426,41.87993535483838 14.898869143798947,39.476865173492115 18.63263327954337,33.50917957231286 21.668497576727532,35.83218167562154 27.670436187414452,43.12151606072439 32.800000000046566,48.2480027761776 11.199999999953434,43.481974266585894 13.712439418421127,42.04013952947571 14.794184167985804,42.32049668356194 18.38836833590176,46.80618490820052 18.87689822295215,50.490820427658036" stroke="#4dd2ff" stroke-linecap="round" stroke-linejoin="round" stroke-width="0.5"><title>2021-08-15 2.0km</title></polyline><polyline fill="none" points="37.199999999953434,37.0048861381656 39.01356297091115,36.92474910666351 40.05984930030536,37.272009405336576 49.91819160385057,44.51094954350265 50.52271259413101,45.419142383907456 52.638536060228944,47.07525089336559 56.70742734125815,44.778065401129425 58.288482239004225,44.91162323113531 58.77674919262063,44.243833422107855 58.79999999993015,42.48086040857015 58.544241119525395,42.42743680460262" stroke="#4dd2ff" stroke-linecap="round" stroke-linejoin="round" stroke-width="0.5"><title>2021-08-15 1.2km</title></polyline><polyline fill="none" points="79.18591868752264,52.241692492112634 79.22427202167455,52.45105839422831 79.08729582815431,52.59697966726162 79.14208630559733,52.67945675727606 79.27358345137327,52.64773481249358 79.43247583587072,52.7746224946095 79.52561964749475,52.71752306967028 79.78313489136053,52.79999999999927 80.06804537391872,52.76827811664771 80.07900346937822,52.489124846237246 80.336518713244,52.55891328116559 80.45705776356044,52.43202515947996 80.68169872098952,52.463747214154864 80.73101015065913,52.311481204371375 80.68169872098952,51.53111205986352 80.46801585904905,51.55014556999231 80.19406347195036,51.20754149731874 80.28720728357439,51.1314070029257 80.27077014034148,50.7063210315755 80.0242129919643,50.45888159243259 79.78313489136053,49.76097018354267 79.43247583587072,47.45780702252523 79.0708586849214,46.5695119593729 78.84073867977713,46.52509687346901 78.59966057911515,46.24591560781482 78.57774438819615,46.03018377221815 78.38049866948859,45.9603880182658 78.07915104366839,45.560647192556644 77.72301294046338,45.32587757449073 76.99977863856475,44.54542085790308 76.65459863084834,44.46927821524878 76.17792147732689,43.790335533441976 75.9094481379725,43.28905534276055 75.78890908765607,42.9337150407373 75.82178337409277,42.76238952737549 75.5971424166928,42.591063542375196 75.47112431863206,42.19764653261518 75.01636335608782,41.728081039575045 74.89582430577138,41.38542290322948 74.84651287610177,41.36004074399534 74.83007573283976,41.51867906932239 74.6492671573942,41.12525528038532 74.46297953414614,40.979307113291725 74.39723096124362,40.68106414227441 74.05205095355632,40.420893574762886 74.07396714450442,40.26225245095702 73.7013918980665,39.849783636407665 73.78357761420193,39.621338193472184 74.0136976193462,39.41827487346745 73.991781428369,39.30405146476187 73.3890861767868,39.46269503133226 72.22204900780343,38.72023965693734 71.62483280396555,38.17449757889335 69.2743213227659,34.46840149359923 67.50458890222944,32.526420533286 67.53746318866615,32.28525526732119 67.26898984934087,31.809268446031638 67.3566546131915,31.19999999999709" stroke="#4dd2ff" stroke-linecap="round" stroke-linejoin="round" stroke-width="0.5"><title>2021-07-21 5.3km</title></polyline><polyline fill="none" points="101.02797569287941,43.189049809239805 102.74126851558685,43.88262670050608 105.48253703024238,41.50464673782699 103.42658564355224,43.189049809239805 101.88462210446596,41.4055641136365 101.37063425779343,43.684461924480274 99.57167679443955,42.00005970732309 99.82867071824148,44.378038463706616 92.46151158306748,45.96335441869451 95.63110330421478,50.12479655799689 93.8321458408609,48.935814898693934 94.9457861748524,48.539487357542384 93.74648119974881,50.223878297780175 92.63284086575732,49.1339786091703 92.37584694242105,52.79999999998836 93.40382263530046,47.94499574392103 91.34787124907598,50.818368524487596 95.7167679448612,48.04407770448597 93.48948727641255,50.719286845007446 96.57341435551643,50.32296002714429 97.08740220265463,42.59455493930727 98.88635966554284,42.396389902278315 95.80243258597329,41.60372935171472 94.86012153420597,43.486297108756844 96.83040827931836,49.62938770925393 98.71503038378432,48.836733028583694 97.68705469043925,49.23306044947822 98.54370110156015,46.656929339747876 104.36889669625089,45.07161451084539 101.88462210446596,47.44958578929072 104.62589061958715,47.053257645107806 104.2832320551388,43.88262670050608 102.91259779781103,43.78354431746993 107.7098176991567,46.2606008737348 108.65212875092402,41.60372935171472 107.36715913470834,38.13583188067423 106.1678541591391,39.0275781203527 102.05595138622448,37.838582952914294 100.59965248778462,39.225743841263466 104.19756741356105,36.35233695793431 101.54196353955194,38.5321636433946 99.40034751221538,38.5321636433946 103.94057349022478,37.145001770113595 97.17306684376672,37.838582952914294 101.11364033445716,39.126660985755734 103.16959172068164,37.343167872633785 100.94231105223298,39.0275781203527 102.91259779781103,38.63124655879801 99.05768894823268,39.9193235465209 103.08392707956955,38.63124655879801 101.19930497510359,38.92849524517078 103.94057349022478,37.145001770113595 101.02797569287941,38.92849524517078 104.71155526023358,36.15417065459769 99.40034751221538,38.5321636433946 100.85664641112089,38.92849524517078 104.45456133736297,36.45142009475967 100.42832320556045,39.32482668629382 97.85838397219777,38.829412359860726 104.2832320551388,36.64958633802598 100.34265856444836,39.32482668629382 105.31120774848387,36.64958633802598 99.40034751221538,38.730329464306124 102.74126851558685,37.343167872633785 103.25525636179373,38.33399778191233 101.02797569287941,39.0275781203527 102.91259779781103,38.829412359860726 104.88288454245776,38.03674891463015 99.14335358887911,38.63124655879801 101.11364033445716,37.44225090864347 102.05595138622448,38.730329464306124 101.02797569287941,39.0275781203527 102.56993923289701,38.03674891463015 100.34265856444836,39.32482668629382 105.13987846625969,37.93766593898181 100.77098176954314,39.0275781203527 102.91259779781103,37.343167872633785 101.19930497510359,38.829412359860726 102.22728066891432,38.829412359860726 98.54370110156015,38.829412359860726 102.48427459178492,38.730329464306124 103.51225028513,37.64041695080232 102.31294530956075,37.343167872633785 99.74300607666373,38.730329464306124 101.54196353955194,37.54133393493248 101.11364033445716,38.5321636433946 103.68357956735417,38.92849524517078 97.94404861377552,38.730329464306124 103.59791492624208,37.93766593898181 100.17132928222418,38.33399778191233 103.08392707956955,38.63124655879801 101.54196353955194,38.433080717688426 102.48427459178492,38.63124655879801 99.57167679443955,39.82024076144444 99.74300607666373,40.91015084245009 94.86012153420597,40.216571840806864 98.3723718188703,31.199999999953434 97.08740220265463,33.97433866246138 95.7167679448612,33.677088468219154 92.97549942974001,36.25325381133007 95.37410938041285,37.54133393493248 96.14509115042165,39.82024076144444 100.68531712889671,38.03674891463015 100.34265856444836,41.20739883556962 100.94231105223298,39.32482668629382" stroke="#4dd2ff" stroke-linecap="round" stroke-linejoin="round" stroke-width="0.5"><title>2021-07-17 3.7km</title></polyline><polyline fill="none" points="115.19999999995343,37.32205007082666 118.41296023561154,36.920027209765976 118.8265095729148,33.30180181472679 118.76288659789134,37.28550255598384 119.68541973491665,38.52811603457667 122.96200294559821,41.30570755308145 127.92459499265533,44.19291875389172 135.97290132544003,50.69819818527321 136.79999999993015,50.332736078853486 136.76818851253483,49.27289393040701 135.718409425579,48.35923447078676 134.22326951415744,49.23634759525885 133.3007363770157,48.72469852521317 130.27864506631158,45.874069334357046 127.79734904284123,44.52184012022917 118.95375552284531,37.87026235964731 115.9634756995365,37.94335727006546 115.42268041230273,37.06621739148977" stroke="#4dd2ff" stroke-linecap="round" stroke-linejoin="round" stroke-width="0.5"><title>2021-07-14 1.9km</title></polyline><polyline fill="none" points="161.974245473044,45.31976656994084 161.49617706239223,46.717542436672375 159.71428571431898,47.81579219541163 149.50100603606552,44.37127360459999 142.76458752527833,44.27143213656382 141.46076458739117,43.37285803665873 141.19999999995343,36.6834229255619 142.06921529164538,36.18420780461747 152.15211267606355,37.082794667599956 159.19275653921068,36.43381542660063 160.75734406430274,37.132716113177594 160.23581488919444,44.17159064853331 162.66961770621128,46.717542436672375 161.93078470835462,46.61770143144531 162.80000000004657,46.76746293186443" stroke="#4dd2ff" stroke-linecap="round" stroke-linejoin="round" stroke-width="0.5"><title>2021-06-29 1.4km</title></polyline><polyline fill="none" points="182.6018552876194,46.366136140874005 183.48348794068443,45.061699517435045 183.89758812618675,44.892889272246975 184.08460111316526,45.107738643389894 184.89944341377122,44.708732432089164 184.83265306125395,44.57061465881998 184.9662337662885,44.6473467702308 184.97959183674539,43.143390483470284 185.36697588133393,41.76219332238543 188.06530612247298,39.368089173789485 188.10538033401826,37.97151139329071 188.39925788505934,37.43436275223212 188.7198515771306,37.89477598677331 188.5061224490055,41.34783178122598 188.80000000004657,41.96170033721137 188.13209647504846,42.48348670398991 187.57105751393829,42.130513765179785 187.59777365496848,42.345366953799385 186.72949907241855,42.345366953799385 185.83450834883843,43.25081641499128 185.82115027838154,43.51170765397546 184.9528756957152,43.956756404193584 184.9128014842281,44.67803960418678 184.31168831168907,45.09239226959471 183.73729128018022,45.04635313911422 183.12282003706787,45.337934068753384 182.65528756962158,46.28940487773798 182.29461966606323,46.44286736611684 181.85380333958892,45.399319457952515 179.0486085342709,45.38397311292647 177.75287569576176,45.614168129264726 176.09647495363606,46.56563724778243 168.82968460110715,40.94881591995363 167.68089053803124,40.933469135619816 167.37365491647506,40.733960801240755 167.4938775509363,40.64187994519307 167.9881261595292,40.81069480633596 167.20000000001164,40.36563704974833 167.21335807046853,40.61118631438876 167.94805194804212,40.82604160277697 167.57402597402688,40.94881591995363 167.7476808904903,41.17901750339661" stroke="#4dd2ff" stroke-linecap="round" stroke-linejoin="round" stroke-width="0.5"><title>2021-06-26 3.3km</title></polyline><polyline fill="none" points="11.19999999999709,71.08529209299013 12.250349901310983,71.54384893720635 12.482899694965454,71.73973587765795 12.703821998933563,72.05582437518024 12.541037143368158,72.15821876590053 12.296859860041877,72.53217891516397 12.021675937547116,72.99517290268341 11.971290148925618,73.20440901207257 12.083689215854974,73.31125260875706 12.971254261632566,73.41809595254381 13.017764220348909,73.6451372184165 12.947999282259843,74.42419170389621 13.044895029612235,73.56500513731226 12.77746276689868,72.67909098327073 12.885986003951984,72.46094864941188 13.14566660685523,72.36745875502675 13.50611878700147,72.40752587631869 15.15722232189728,72.79483954864554 15.254118069264223,72.83490629059088 15.211483940423932,73.173246248738 15.610694419534411,73.20440901207257 15.78123093485192,72.7636765025527 16.164938094385434,71.00515546721726 16.28508882111055,70.86714205596218 17.184281356545398,71.10755224156674 17.48272025838378,71.14316845645226 17.614498474780703,71.07193599858147 17.84317243853002,71.1298123791712 18.254010407297756,70.90721050914362 20.261690292492858,69.53150659261883 20.408971828452195,69.64726323058494 20.24618697290134,70.1414516914956 20.184173694608035,70.89385436205339 20.37021352951706,71.27672901193364 20.505867575790035,71.36131715932424 23.645289790059905,71.34350914146853 24.133644356712466,71.42364516647285 24.777032119134674,71.40583717321351 26.641306298217387,71.26337297417558 27.145164184461464,71.09864818345886 27.761421137605794,70.5376889809304 28.172259106417187,69.97227066543564 28.49395298761374,69.20204376702532 28.656737843179144,68.13349913242928 28.524959626767668,67.6081220748456 27.544374663571944,66.42377508303252 27.059895926795434,65.48428975605566 27.028889287641505,65.57779391170334 27.16066750403843,65.98297634678966 27.114157545292983,65.98297634678966 27.19554997308296,65.996333947518 27.57538130271132,66.5796119896986 27.610263771755854,66.61523177849813 27.62964292122342,66.56180208474689 27.335079849290196,66.12100469703364 26.579293019894976,64.52252147830586 26.618051318844664,63.97483871314762 29.5636820383952,61.67271729881759 30.15668401219591,61.12054691636877 31.486093665880617,60.31454414167456 31.993827382000745,59.94048271155043 32.02870985107438,59.824701163925056 31.47834200609941,59.192350543260545 31.896931634677458,58.871718671704 32.528691907413304,58.17255515721263 32.57132603623904,57.95879599534601 32.796124170097755,57.811835983749916 32.80000000000291,57.72276907694322 32.49768526824482,57.57580829610015 32.54419522697572,57.65596878139331 32.594581015611766,57.615888556556456 32.602332675407524,57.71831572700103 32.53256773730391,57.669328848416626" stroke="#4dd2ff" stroke-linecap="round" stroke-linejoin="round" stroke-width="0.5"><title>2021-06-21 11.9km</title></polyline><polyline fill="none" points="40.57755359390285,56.8312897378928 40.49583858763799,56.29929992504185 40.74098360654898,56.4557676097611 40.523076922982,56.79999624416814 41.993947036447935,58.36466714396374 45.45321563689504,60.55519342934713 52.535182849969715,66.46953879517969 54.169482975965366,67.06409651151625 56.294073140015826,69.69265410624212 57.19293820927851,73.6980332970561 58.79999999993015,75.76328717035358 57.41084489261266,73.94836781639606 56.34854981082026,69.72394632725627 54.360151323955506,67.15797394383117 49.64791929360945,63.340269278443884 48.28600252198521,62.87087618676014 46.10693568713032,60.86812452014419 45.0446406052215,60.61777967214584 42.021185372024775,57.83267990456079 40.986128625343554,57.45715896273032 40.305170239531435,56.393180545128416 38.044388398411684,56.64352872944437 37.199999999953434,56.23671282964642" stroke="#4dd2ff" stroke-linecap="round" stroke-linejoin="round" stroke-width="0.5"><title>2021-06-16 2.1km</title></polyline><polyline fill="none" points="64.93047210294753,64.63349313905928 64.68326180253644,64.88195081116282 65.95021459215786,65.52084118037601 72.31587982818019,68.11188493933878 75.99313304724637,67.93441678385716 79.67038626607973,68.4313273987209 84.80000000004657,67.7569485407439 82.76051502139308,67.33102440045332 83.13133047195151,66.83411226628232 80.38111587974709,67.2955306993681 77.26008583675139,66.26621184428222 74.97339055780321,66.65664348073187 73.02660944196396,65.84028593968833 69.28755364811514,66.05324895502417 64.99227467807941,64.98843261809088 63.199999999953434,63.56867260125" stroke="#4dd2ff" stroke-linecap="round" stroke-linejoin="round" stroke-width="0.5"><title>2021-06-16 1.4km</title></polyline><polyline fill="none" points="109.72520064201672,66.45798410879797 109.03178170137107,66.85622427868657 101.88956661312841,64.10835911211325 97.13964686996769,64.66589848417789 94.4006420543883,64.34730465160101 93.91524879599456,64.90484369374462 89.19999999995343,63.55081897013588 94.8166934188921,65.14378876177943 101.3348314606119,65.74115081355558 110.79999999993015,68.44918102986412" stroke="#4dd2ff" stroke-linecap="round" stroke-linejoin="round" stroke-width="0.5"><title>2021-06-15 1.2km</title></polyline><polyline fill="none" points="129.04511278192513,70.75760759520927 127.33984962408431,71.78374124711263 124.66015037591569,71.45724441774655 116.78345864685252,59.143485044070985 115.19999999995343,60.0297132889973 117.02706766920164,63.80782558390638 118.89473684225231,65.53361991653219 121.16842105286196,66.18662153405603 123.40150375943631,69.59154392269556 126.69022556394339,71.83038363300147 129.04511278192513,72.85651495592901 134.9323308269959,70.9908199844358 136.80000000004657,71.2240322586149" stroke="#4dd2ff" stroke-linecap="round" stroke-linejoin="round" stroke-width="0.5"><title>2021-06-11 1.2km</title></polyline><polyline fill="none" points="160.24589489592472,76.79690871739695 160.33216876766528,76.78454358392446 160.53167709601985,76.63925290294719 160.90373316782643,76.24047291715397 160.90912528480112,76.03335264256566 160.7284893658798,76.18482879776457 160.62334308472055,76.05190078225314 160.65839184510696,76.16318939151643 160.7230972489051,76.18792014030805 160.90912528480112,76.0240785686401 160.91182134329574,76.21265086971835 160.82285141308967,76.33939555393044 160.3213845336868,76.79690871739695 160.08952350342588,76.79999999999927 159.48291034286376,75.02864546105411 159.4289891730441,74.00226541477423 159.11085427105718,73.58799413533961 158.55816228030017,73.2479166332505 158.55546622183465,72.98512696283797 158.45301599914092,72.83054378168163 157.98659788013902,72.37606484385105 157.6441984517296,72.17201094696793 157.22361332707806,71.72679786500521 157.08611434401246,71.70206362072895 156.64126469293842,71.78244984373669 156.58464746462414,71.80409225340736 156.71675433068594,71.82573464824054 156.6897937457834,71.86283586197169 156.46332483249716,71.94322167545761 155.7003402794362,72.08544222848832 155.43343048878887,72.07307524931821 155.5143122435402,72.10090094563384 155.4684792491753,72.13800183589228 155.5224004190095,72.11017617228026 155.53048859449336,72.18746962171099 155.53857676996267,72.097809202809 155.42534231331956,72.07925873950808 154.98858083771484,71.83810172432459 153.92363773362013,71.8504687955774 153.637855533525,71.73607320161136 153.10403595223033,71.96486397487206 152.47855038222042,71.83191818688647 152.29521840480447,71.7515320898965 151.97438744433748,71.39906755507036 151.63198801592807,71.10843594217295 151.1547856629477,71.00022135988729 150.6047897307144,70.98785395543382 150.22464548342396,70.80543417657645 149.87954999653448,70.53644037522827 147.87098642042838,69.65832970599695 147.70383079398016,69.6397778085302 147.19427573909343,69.7294452118822 146.93275806543534,69.69852544640344 146.67393645025732,69.5593861268062 146.30457643694535,69.15742464555115 145.74918838770827,68.67506410792521 145.61168940464268,68.18341981676713 145.4175731932628,67.93604872252217 145.04012500448152,67.21247713646517 144.74355857042246,66.9187147041921 143.82150656636804,64.56851674294558 143.80533021541487,64.36750483968171 143.85655532675446,64.11391876464768 144.2501798664889,63.41809283988914 144.34723797217885,63.10573932022271 144.27983650990063,62.849050448201524 143.95091737396433,62.31401752762031 143.69479181726638,61.79134654318477 143.52494013230898,61.253202866369975 143.54920465873147,60.9748490840484 143.770281455043,60.20163123655402 143.79724203994556,59.72222664579749 143.74332087011135,59.3201397537523 143.47641107946401,58.25303813092796 143.52224407382892,57.64369143241129 143.49797954739188,56.762128400836446 143.42248990964436,56.41258956383717 143.43057808511367,56.05686021766451 143.30386333602655,55.53717882308047 143.08817865670426,55.19999999999891" stroke="#4dd2ff" stroke-linecap="round" stroke-linejoin="round" stroke-width="0.5"><title>2021-06-10 13.2km</title></polyline><polyline fill="none" points="175.61048296582885,70.65226723949309 175.89722500985954,71.61285943468101 177.1636690380983,71.4756321812165 177.23535454901867,72.18921316042542 178.14337102207355,72.07943159039132 178.69295993982814,72.82045634766109 179.00359715439845,72.16176777196233 178.35842755506746,71.72264118873863 178.95580681378487,71.77753204954206 179.29033919831272,72.16176777196233 178.8363309619017,72.84790167113533 180.27004118240438,73.01257355528651 179.55318607226945,73.47914336452959 179.48150056123268,72.95768293808214 179.9355087976437,72.68322968957364 180.15056533075403,72.985128247994 179.9832991383737,72.54600296393619 180.36562186374795,72.76556569256354 179.9594039680669,72.73812036099844 180.00719430868048,72.38133080376429 180.60457356716506,73.53403387882281 180.15056533075403,74.19271920694155 178.90801647293847,74.60439674541703 176.9008221643744,74.54950644215569 174.75025683350395,76.05898583793896 174.03340172336902,75.61986540345242 173.57939348684158,76.11387584343902 174.1050872344058,76.69022024865262 174.9175230260007,76.41577068076003 174.24845825647935,76.6353303566284 174.77415200392716,76.69022024865262 174.86973268527072,76.22365582219209 174.89362785569392,76.4981055794633 174.22456308605615,76.38832570906379 174.89362785569392,76.4981055794633 174.46351478958968,76.25110081007006 174.98920853703748,76.22365582219209 173.2687562723877,76.4981055794633 173.98561138263904,76.27854579532868 174.27235342666972,76.79999999998836 174.27235342666972,76.4981055794633 173.67497416818514,76.58044045395218 174.20066791574936,76.3608807346609 174.86973268527072,76.55299549846677 174.3679341080133,76.55299549846677 174.51130513020325,76.00409582149587 174.43961961916648,76.6353303566284 174.03340172336902,76.4432156496332 174.3679341080133,76.19621083157836 174.29624859709293,76.71766519051744 173.96171621233225,75.97665080922889 174.43961961916648,75.94920579425525 174.22456308605615,76.47066061594523 173.72276450879872,76.33343575758045 173.93782104190905,75.26307954033837 172.88643354689702,73.86337673777598 172.7430625249399,72.29899468706571 171.50051366712432,70.48759395891102 171.38103781547397,69.96612792738597 171.835046051885,69.33487826626515 171.33324747474398,67.85280821745982 171.882836392615,66.42562219250249 171.81115088157821,64.83375222256291 173.2687562723877,55.19999999998254 173.77055484964512,55.2274470613047 173.77055484964512,55.7214937012468 174.51130513020325,56.13319856443559 176.853031823528,56.380221190076554 177.06808835663833,56.8468188844854 178.93191164336167,56.13319856443559 180.77183975966182,57.09384087665239 181.70375140290707,56.819371983001474 181.9188079360174,57.258522082847776 183.73484088201076,56.76447817173903 183.99768775573466,57.99958630485344 184.66675252525602,58.438734542171005" stroke="#4dd2ff" stroke-linecap="round" stroke-linejoin="round" stroke-width="0.5"><title>2021-06-08 2.7km</title></polyline><polyline fill="none" points="32.800000000046566,87.40979441913078 25.012724306667224,84.6980505932006 16.94355628057383,84.1718892675708 13.772267536725849,82.39103054400766 13.948450244730338,80.93395856689312 13.596084828488529,81.05538142926525 11.199999999953434,95.38302693981677 11.693311582319438,96.79957488723448 12.856117455055937,97.81139185623033 12.327569331042469,99.06604143307777" stroke="#4dd2ff" stroke-linecap="round" stroke-linejoin="round" stroke-width="0.5"><title>2021-06-08 1.1km</title></polyline><polyline fill="none" points="58.19195710448548,90.9977428719576 51.156032171449624,88.30384848060203 47.47882037528325,89.00226761162048 45.04664879338816,88.80271943609114 44.61233243951574,89.20181566910469 40.87721179611981,88.00452555314405 37.199999999953434,88.53665501839714 40.41394101863261,87.8714930556016 44.49651474528946,89.20181566910469 50.490080428891815,89.46787956194021 55.03592493291944,91.09751632501138 58.77104557643179,92.12850694436929 58.79999999993015,91.79592966960627" stroke="#4dd2ff" stroke-linecap="round" stroke-linejoin="round" stroke-width="0.5"><title>2021-06-07 1.5km</title></polyline><polyline fill="none" points="77.4122946721036,99.42332553342567 77.24685008195229,94.72361416352214 75.92329336050898,93.9165884173417 72.32487352471799,89.16935084125726 69.76048237713985,89.69154925938346 74.02068057376891,84.94427014220855 77.4122946721036,79.20000000001164 70.75314991804771,88.97946036746725 72.15942893433385,88.93198773739277 73.19345762301236,89.78649436563137 77.20548893418163,94.62867002814892 77.24685008195229,99.32838232224458 78.23951762309298,100.79999999998836 77.32957237702794,100.2778135954577" stroke="#4dd2ff" stroke-linecap="round" stroke-linejoin="round" stroke-width="0.5"><title>2021-06-04 1.3km</title></polyline><polyline fill="none" points="102.1903273400385,93.1097840013681 102.42451328207972,93.47373257562867 103.11329546454363,93.47373257562867 102.93421209708322,93.0781362602429 103.30615447560558,92.90407357236836 102.89288516616216,92.96736911709013 102.97553902800428,92.39770831553324 102.5484940749011,92.20782093210437 102.53471843129955,92.44518012627668 102.97553902800428,92.91989746091713 102.98931467172224,93.55285172165895 102.41073763841996,93.5053802387265 101.98369268531678,92.96736911709013 102.06634654721711,93.23637490349938 101.5566477322136,93.33131801447598 100.92296812444692,92.20782093210437 100.20663465477992,91.46409318254155 97.76834572904045,89.73926449069404 97.49283285601996,88.26760699760052 97.78212137258379,86.7801115084585 99.13213445013389,84.54884240710817 100.39949366584187,83.52023272214865 101.69440416875295,82.00104327403824 101.74950674327556,80.76669125058106 101.25358357199002,79.8013580475963 100.82653861888684,79.5165045166359 100.37194237852236,79.95960979055963 100.24796158570098,79.56398014030128 100.44082059670473,79.54815493394563 100.17908336746041,79.50067930571095 100.3581667348626,79.53232972609112 100.22041029832326,79.84883358687512 100.28928851662204,79.59563054828322 100.0275512872613,79.78553286468377 100.23418594204122,79.64310614843271 100.05510257458081,79.59563054828322 100.11020514916163,79.78553286468377 99.60050633421633,80.16533682295994 100.17908336746041,79.84883358687512 99.95867306907894,79.99126012041233 100.04132693097927,79.67475654075679 99.86224356351886,80.07038591771561 99.86224356351886,79.78553286468377 100.37194237852236,79.46902887898614 100.61990396416513,79.81718322889355 100.5096988150035,79.92795945444959 100.89541683712741,79.95960979055963 100.45459624042269,80.16533682295994 99.88979485083837,79.40572800689552 100.5096988150035,79.50067930571095 100.52347445860505,79.19999999999709 99.61428197787609,80.18116196838673 100.39949366584187,80.16533682295994 100.39949366584187,79.95960979055963 99.83469227619935,80.02291044402227 100.61990396416513,79.46902887898614 99.91734613809967,79.92795945444959 100.19285901106196,79.91213428406627 100.30306416022358,79.78553286468377 100.01377564365976,79.64310614843271 100.09642950556008,79.92795945444959 100.52347445860505,79.7064069268381 100.39949366584187,79.94378462326131 100.41326930938521,79.75388249421667 100.22041029832326,79.84883358687512 100.30306416022358,79.62728094990598 100.57857703318587,79.61145574983675 100.4821475277422,79.99126012041233 100.70255782606546,79.6905817345978 100.3581667348626,80.11786137736635 100.5372501022648,79.84883358687512 100.31683980394155,79.2474757173186 100.71633346972521,79.43737844604766 100.09642950556008,79.95960979055963 100.3581667348626,80.07038591771561 100.52347445860505,79.86465876353031 100.41326930938521,80.11786137736635 100.66123089508619,79.5165045166359 100.5096988150035,80.00708528302494 100.67500653880415,80.21281225452549 100.44082059670473,79.97543495628634 98.4433522677864,82.01686823827913 100.90919248072896,79.72223211750679 102.68625051138224,81.1464928851201 103.51278913032729,82.38084198521392 102.700026155042,96.43276207338204 97.65814057982061,96.55935035314178 96.6387429498136,96.82835011588759 96.48721086967271,99.09109497033933 97.01068532833597,99.4708532167715 98.12651246384485,99.21768115236773 98.6224356351886,99.75567131169373 98.20916632574517,100.08795844991982 98.9530510827899,100.18289750587428 99.09080751921283,100.45189119256975 99.06325623195153,100.80000000000291 98.81529464625055,100.46771433655522 98.67753820976941,100.54683003315586" stroke="#4dd2ff" stroke-linecap="round" stroke-linejoin="round" stroke-width="0.5"><title>2021-06-02 5.9km</title></polyline><polyline fill="none" points="121.41287446941715,100.15227600421349 123.3431542434264,98.38348278471676 126.3361723201815,94.34759835581644 128.91710819792934,88.966318788036 130.0232235742733,84.85554186248919 130.00153503741603,79.19999999999709 130.43530577316415,79.59863265082822 130.6521911409218,83.93372209358495 129.1339935658034,89.63898500494543 127.46397623314988,93.52546584278753 124.77459767146502,97.51153790681565 121.34780885907821,100.80000000000291" stroke="#4dd2ff" stroke-linecap="round" stroke-linejoin="round" stroke-width="0.5"><title>2021-06-01 2.2km</title></polyline><polyline fill="none" points="162.79999999993015,91.47635831439402 162.36599690874573,91.97486595442751 153.08500772796106,89.02215753664495 146.70850077271461,89.21389253027155 146.17434312216938,89.71240307122935 142.0346213291632,88.25521661652601 141.19999999995343,88.29356369850575 141.23338485322893,88.71538135013543 142.00123647612054,88.02513404554338 146.64173106651288,89.94248464371776 155.0547140649287,90.21091297297971" stroke="#4dd2ff" stroke-linecap="round" stroke-linejoin="round" stroke-width="0.5"><title>2021-05-31 1.1km</title></polyline><polyline fill="none" points="179.0269891130738,99.99629552630358 179.46400575712323,96.4298415791709 180.206934051821,96.98239242186537 182.91643724404275,96.4298415791709 183.8341721962206,95.42520214305841 184.53339882660657,92.46150422698702 186.15036040893756,93.06429164510337 185.1889237924479,92.6624334459193 185.66964210080914,91.95918083234574 185.58223877171986,93.16475614518276 185.66964210080914,91.90894846542506 185.6259404362645,93.76754272839753 184.2274871757254,92.36103958779131 188.68505694367923,94.82241752752452 184.14008384686895,93.11452389755868 185.2326254567597,92.61220114884782 184.66450381977484,90.9545325517538 184.2274871757254,93.41591730850632 185.58223877171986,92.16011024982436 185.10152046359144,91.35639210251975 186.32516706665047,93.16475614518276 186.89328870363533,92.91359485773137 185.27632712130435,93.66707834758563 183.7904705319088,92.96382712526247 185.93185208714567,92.76289802548126 184.44599549798295,92.4112719099794 183.35345388785936,95.97775407889276 179.15809410624206,96.68100112763932 179.28919909941033,98.58980963676004 177.54113252367824,99.94606395452865 177.6285358525347,100.79999999998836 178.28406081837602,99.8456007958157 176.36118758493103,94.62148916331353 167.31494305608794,79.19999999998254" stroke="#4dd2ff" stroke-linecap="round" stroke-linejoin="round" stroke-width="0.5"><title>2021-05-30 1.4km</title></polyline><polyline fill="none" points="11.984357541659847,111.86895987065509 15.091620111605152,113.6361701549904 20.763128491467796,115.74988058526651 23.387709497124888,115.50732429651543 26.706145251286216,116.1310401293158 32.28715083794668,115.29941877289093 32.79999999993015,114.88360735660535 32.226815642323345,115.33406970204669 26.917318435618654,115.92313497472787 19.526256983168423,115.43802246905398 14.608938547433354,114.12128514857613 11.199999999953434,112.3540773045097" stroke="#4dd2ff" stroke-linecap="round" stroke-linejoin="round" stroke-width="0.5"><title>2021-05-27 1.4km</title></polyline><polyline fill="none" points="58.800000000046566,115.5533500314632 56.09530434780754,115.4239049233147 50.610782608622685,113.35277798259631 42.308869565371424,113.05073781785904 37.199999999953434,111.66998012328986 40.35547826089896,112.87814334436553 48.882782608503476,113.65481793880463 57.673043478047475,116.33001987668104 58.386782608693466,116.11427839126554" stroke="#4dd2ff" stroke-linecap="round" stroke-linejoin="round" stroke-width="0.5"><title>2021-05-25 1.1km</title></polyline><polyline fill="none" points="63.79474342928734,112.24558938734117 64.82202753436286,113.08398385517648 68.25531914876774,113.39449975814205 71.66157697117887,115.35074290478951 75.74367959937081,115.19548595618107 78.04155193991028,115.56810250409762 82.85356695856899,114.8849718295387 84.79999999993015,113.92237609039876 84.79999999993015,114.63656030752463 77.12240300374106,115.75441061265883 74.20275344175752,115.25758874489111 71.60750938672572,115.47494840848958 66.47108886099886,114.2328911665245 63.199999999953434,112.7734676458931" stroke="#4dd2ff" stroke-linecap="round" stroke-linejoin="round" stroke-width="0.5"><title>2021-05-24 1.6km</title></polyline><polyline fill="none" points="97.61395348829683,113.44105418300023 102.63720930216368,113.58529933882528 102.63720930216368,114.1983406166255 105.83953488362022,115.64078662748216 110.79999999993015,115.17199229812832 105.74534883711021,115.67684770480264 102.16627906973008,115.06380890600849 98.43023255793378,115.2441145417688 89.19999999995343,112.32315229519736" stroke="#4dd2ff" stroke-linecap="round" stroke-linejoin="round" stroke-width="0.5"><title>2021-05-21 1.1km</title></polyline><polyline fill="none" points="128.14869664539583,124.79999999998836 128.91874977841508,124.05815092180273 128.6703455420211,123.31629994107061 129.06779232039116,119.86381457818788 130.5582177392207,119.35021819346002 130.88114324677736,118.57982190645998 132.66965374955907,119.00782009700197 136.346036449424,118.49422219238477 136.22183433105238,116.83928940744954 134.97981314873323,114.15713685489027 132.4957707838621,110.67600815641345 130.7072602811968,108.99249646041426 127.85061156167649,107.30897496518446 123.80162250692956,106.7382874887262 122.31119708810002,106.13906442638836 120.12523980706464,106.45294332815683 117.39279320568312,104.82647623747471 116.87114430905785,103.19999999998254 115.6539635504596,103.62802094922517 115.72848482138943,104.5411301907152" stroke="#4dd2ff" stroke-linecap="round" stroke-linejoin="round" stroke-width="0.5"><title>2021-05-20 1.7km</title></polyline><polyline fill="none" points="141.3038461538963,112.1511357218842 141.19999999995343,109.94439573778072 145.8211538461037,109.10941094096052 162.43653846159577,109.46726170938928 162.80000000004657,117.57848898816155 161.81346153840423,118.29418028873624 153.40192307694815,117.57848898816155 152.3634615384508,118.29418028873624 145.97692307690158,118.89058905903948 142.29038461553864,118.35382119234418 141.45961538446136,117.63812996214256 141.45961538446136,111.43543715006672" stroke="#4dd2ff" stroke-linecap="round" stroke-linejoin="round" stroke-width="0.5"><title>2021-05-18 1.1km</title></polyline><polyline fill="none" points="167.19999999995343,114.73490694213251 168.04031830222812,115.52462390180153 172.14641909801867,117.25760406878544 174.72466843493748,117.19179494198761 176.4625994693488,117.58664941068855 179.46100795746315,117.2356676953641 182.76498673739843,116.27046512240486 183.70079575583804,115.70011617867567 185.2095490716165,114.6471604401886 188.79999999993015,111.11533499849611 188.22705570282415,110.413350589326 186.81379310344346,111.51020025488106 178.54429708211683,112.40961294418958 177.3411140581593,112.08055994319147 170.8286472148029,111.88312790892087 170.48488063644618,112.43154979358951 170.56127320951782,112.21218120203412 170.17931034474168,112.3657392388559 169.77824933675583,113.19933816026605 169.18620689644013,113.4406425280904 167.46737400523853,113.08965427010844 167.21909814304672,112.62898134101124" stroke="#4dd2ff" stroke-linecap="round" stroke-linejoin="round" stroke-width="0.5"><title>2021-05-10 2.5km</title></polyline><polyline fill="none" points="32.800000000046566,144.8977506790543 32.69244813278783,144.2800611609273 31.957510373555124,143.51824157139345 30.792365145287476,144.0947539490735 30.200829875539057,143.9094465727394 30.16497925319709,143.3329336832394 30.55933609965723,142.674059859899 30.415933610056527,140.84155610324524 29.985726141021587,140.22385458248027 27.709211618290283,140.92391616792884 26.185560166020878,140.75919600612542 26.131784232449718,140.28562481679546 22.188215767615475,140.3473950329062 20.126804979285225,140.01795366931765 16.828547717886977,140.61506575791282 14.480331950238906,140.67683587648207 12.61609958508052,140.26503474074707 11.199999999953434,137.81480118533364 13.261410788400099,136.33229296727222 14.175601659808308,135.3233577417559 16.05775933607947,134.35559896331688 16.290788381709717,133.65551534775295 18.28049792535603,132.77011211805802 20.198506224085577,131.45229570445372 19.427717842394486,132.31711366445234 17.29460580914747,133.24370035929314 15.28697095438838,131.47288664989173 14.014273858978413,131.10224932096025" stroke="#4dd2ff" stroke-linecap="round" stroke-linejoin="round" stroke-width="0.5"><title>2021-05-08 2.6km</title></polyline><polyline fill="none" points="58.799999999813735,134.26421503492747 58.65859247115441,135.76666118454887 54.416366612073034,136.01030058410834 53.78003273322247,137.1878889821819 47.239934533368796,135.68544801944518 43.846153846010566,135.96969402758987 42.608837970299646,136.66000494445325 37.80098199658096,135.60423483813065 37.199999999953434,136.57879195542773 42.2199672665447,138.3654740121856 49.50245499168523,139.0963871642016 58.65859247115441,141.73578496507253" stroke="#4dd2ff" stroke-linecap="round" stroke-linejoin="round" stroke-width="0.5"><title>2021-05-08 1.3km</title></polyline><polyline fill="none" points="84.79999999993015,137.6380503643304 84.25570291781332,137.93419610816636 81.04721485415939,136.74961155556957 80.53156498679891,137.21028382584336 77.26578249328304,135.95988618361298 75.1458885940956,136.94704260639264 70.53368700260762,137.2431889635336 67.58302387269214,136.28893864914426 64.60371352778748,136.81542191881454 63.5724137929501,136.65089598626946 63.199999999953434,136.124412456993 67.98408488044515,136.3218438778713 70.79151193634607,137.5722401633102 75.37506631296128,137.44061972235795 84.6281167109264,140.04011381638702" stroke="#4dd2ff" stroke-linecap="round" stroke-linejoin="round" stroke-width="0.5"><title>2021-05-07 1.5km</title></polyline><polyline fill="none" points="89.29969230759889,142.14813170203706 89.19999999995343,141.57466302404646 90.79507692309562,141.03942482051207 91.4596923077479,139.43370574639994 99.80061538470909,134.46358045941452 102.45907692296896,135.22821929460042 103.09046153840609,136.06932025947026 103.85476923070382,134.19595650833799 103.55569230765104,133.85186829796294 103.55569230765104,135.15175547939725 103.38953846157528,134.73120422448847 102.75815384613816,136.18401570335845 103.58892307698261,135.22821929460042 102.79138461535331,136.06932025947026 103.22338461515028,134.6547403105942 102.92430769221392,136.14578389251255 103.6553846152965,135.49584252823843 105.01784615393262,135.72523372317664 107.04492307687178,134.99882780353073 108.90584615373518,135.07529164897278 110.79999999993015,136.18401570335845 109.57046153827105,135.34291498883977 108.07507692289073,135.15175547939725 104.5858461537864,135.99285661135218 102.8578461536672,134.88413200664218" stroke="#4dd2ff" stroke-linecap="round" stroke-linejoin="round" stroke-width="0.5"><title>2021-05-06 1.2km</title></polyline><polyline fill="none" points="120.58979206043296,139.97022751005716 121.5289224954322,137.95319723919965 128.22533081285655,132.98094652371947 131.0427221171558,129.97880769876065 134.75841209851205,128.00864378883853 136.18752362951636,129.36899593262933 136.80000000004657,143.2068395917886 136.02419659728184,139.07898263185052 124.79546313802712,145.22384756797692 121.8555765596684,142.40941547282273 116.34328922489658,145.4114757818461 115.19999999995343,147.3346607029962 116.38412098307163,147.99135621113237 119.89565217401832,144.70786959808902 121.20226843096316,141.70580484520178 120.46729678637348,140.62693319297978" stroke="#4dd2ff" stroke-linecap="round" stroke-linejoin="round" stroke-width="0.5"><title>2021-05-06 1.8km</title></polyline><polyline fill="none" points="154.28407310706098,134.65907594456803 156.2297650129767,134.07236538428697 156.42715404706541,133.45305863354588 154.1712793733459,132.54039388312958 154.4532637075754,132.60558430830133 154.11488250654656,132.964131410321 155.77859007834923,133.61603420972824 157.24490861629602,133.38786838002852 156.76553524797782,135.50654486721032 158.2318537859246,134.69167094433215 158.17545691900887,135.31097531376872 158.76762402092572,135.27838037660695 160.9671018277295,137.03850226165378 162.5744125325,137.39704442955554 162.60261096607428,138.30969541962259 162.09503916441463,139.02677652644343 162.79999999993015,142.28621598501923 162.2078328981297,143.45960611684131 146.52950391650666,141.6017364343861 142.15874673624057,142.188433281146 141.19999999995343,142.90550575387897 141.8767624021275,142.22102751914645" stroke="#4dd2ff" stroke-linecap="round" stroke-linejoin="round" stroke-width="0.5"><title>2021-05-02 1.6km</title></polyline><polyline fill="none" points="173.81670886068605,132.84641383722192 175.3478481010534,133.47876323369564 177.20708860759623,131.89788854058133 184.5893670883961,130.6964210945298 187.87037974665873,132.02435866341693 188.79999999981374,134.23758166382322 187.65164556982927,140.56103269133018 178.35544303781353,143.84920189867262 167.85620253137313,145.3035789055284 167.19999999995343,144.2286049229442 171.73873417708091,131.2023024064256" stroke="#4dd2ff" stroke-linecap="round" stroke-linejoin="round" stroke-width="0.5"><title>2021-05-01 1.0km</title></polyline><polyline fill="none" points="21.503664387622848,161.11315597448265 20.195143228163943,163.20011186110787 18.25492219859734,159.18271424883278 18.34516503708437,157.7218346184818 19.924414712470025,155.26963449281175 22.40609277342446,154.22614153544419 28.813334313221276,154.3304909261642 32.558412114623934,151.20000000001164 27.820663088699803,154.53918964450713 16.675672523211688,153.02612202009186 15.72812271816656,153.49569520686055 13.878144527086988,157.46096281975042 13.246444656979293,167.16530474333558 12.479380529141054,169.66962135827634 11.57695214310661,170.03483318036888 11.441587885376066,172.79999999998836 12.16353059397079,172.43479013908654 12.479380529141054,170.71308301994577 13.6976588498801,157.14791648695245 15.322029944509268,155.53050740167964 15.998851233860478,155.94790378096513" stroke="#4dd2ff" stroke-linecap="round" stroke-linejoin="round" stroke-width="0.5"><title>2021-05-01 1.8km</title></polyline><polyline fill="none" points="55.48121368623106,160.0378349780367 54.72821174951969,160.16597862626077 53.501097482279874,161.04696347011486 52.009038089134265,160.98289200631552 51.74409296317026,161.30324907263275 51.78592640411807,160.99890987465915 50.781923821836244,161.33528474450577 48.41136216913583,161.0309456065297 47.016914138162974,161.1911241713242 46.598579728917684,160.9668741364294 45.078631375101395,161.25519555294886 41.648289218836,161.33528474450577 38.23189154290594,160.98289200631552 37.20000000001164,161.86387241774355 37.26972240151372,162.16820999450283 41.285732730757445,162.9530779547058 41.71801162039628,162.82493650604738 42.51284699811367,163.2413958444231 44.632408005185425,163.27343113390089 45.957133634597994,163.78599490594934 46.52885732729919,163.6098012918228 48.03486120078014,163.96218832896557 48.41136216913583,164.25050442690554 49.34564234991558,164.36262721562525 49.596642995486036,164.17041667328158 50.27992253069533,164.49076745082857 51.13053582952125,164.3466096791526 52.55287282116478,164.76306511477742 52.67837314395001,164.37864475056995 52.98515171080362,164.3466096791526 53.55687540344661,164.65094260255864 53.75209812785033,164.18643422715832 54.58876694639912,163.73794212110806 55.59276952868095,162.72883035318227 56.70832795352908,162.29635196141317 57.29399612656562,161.5915698918834 58.27010974823497,161.28723123433883 58.79999999998836,160.55040896416176 58.52111039380543,159.70145742023306 58.0888315042248,159.23693488522258 57.21032924466999,159.797565365021 55.87165913492208,159.71747541498917 55.78799225308467,160.23005041247234 53.905487411189824,161.15908847100218 54.29593285993906,161.52749864295765 54.56087798578665,161.3513025780412 55.46726920589572,162.0400679264858 56.220271142723504,161.92794353398494 56.27604906389024,161.7357301095326" stroke="#4dd2ff" stroke-linecap="round" stroke-linejoin="round" stroke-width="0.5"><title>2021-04-30 3.7km</title></polyline><polyline fill="none" points="84.62938388611656,160.58898702598526 83.26445497618988,162.54873691071407 82.51374407566618,162.66632159650908 75.07488151651341,160.62818211846752 68.45497630327009,160.58898702598526 69.3421800947981,161.3336931206577 63.199999999953434,159.4915228689788 68.1137440756429,161.2161080405058 75.96208530792501,161.96081296002376 84.04928909929004,164.5084771309921 84.79999999993015,164.35169826893252 83.77630331739783,163.9989456034382" stroke="#4dd2ff" stroke-linecap="round" stroke-linejoin="round" stroke-width="0.5"><title>2021-04-29 1.4km</title></polyline><polyline fill="none" points="97.50057142856531,161.46843952391646 99.25942857132759,160.08597749008914 98.6422857142752,158.98709361656802 99.72228571400046,158.63261423064978 107.09714285691734,151.5784017026017 107.96114285697695,151.47205573011888 110.79999999993015,154.73331789701479 107.18971428542864,157.07290077660582 107.59085714269895,157.10834888470708 105.33828571392223,159.55425990652293 106.29485714260954,159.19978108030045 106.51085714274086,158.3844784523244 105.43085714266635,159.2706768734788 100.27771428553388,165.50945188684273 96.7908571427688,167.5653880982718 94.4148571427213,169.6567594135995 94.2605714284582,171.00373788256547 92.31657142844051,172.52794426985201 90.71199999994133,171.71267189036007 89.19999999995343,169.55041879310738 89.32342857134063,167.4590468587121 91.45257142849732,166.46652710431954 92.2239999998128,165.26132085875724 94.35314285708591,164.33968982516672 94.75428571423981,163.41805642697727 95.803428571322,162.81544869582285 96.1119999998482,161.75202082199394 96.914285714156,161.14941029602778 97.80914285697509,161.36209647948272 97.99428571411408,160.68858979997458" stroke="#4dd2ff" stroke-linecap="round" stroke-linejoin="round" stroke-width="0.5"><title>2021-04-26 2.2km</title></polyline><polyline fill="none" points="127.94371921487618,168.98358240476227 128.53272503777407,168.1715718084597 129.21597179200035,159.64531536618597 131.5248746171128,151.19999999998254 129.4044536552392,159.50997582476703 127.73167711868882,160.294944235211 125.30497312918305,160.13253716222243 122.78402820788324,160.51148684948566 121.46465516509488,161.3235201300704 120.5458060814999,162.6227683768666 120.4751253828872,170.58052956312895 121.535335863824,172.52933383526397 122.24214285099879,172.79999999998836 122.71334750915412,172.55640046374174 125.25785266340245,170.41812858200865 126.12958128086757,171.01359837604105 126.97774966561701,170.3910617424408 127.14267129602376,169.68732297664974" stroke="#4dd2ff" stroke-linecap="round" stroke-linejoin="round" stroke-width="0.5"><title>2021-04-25 2.2km</title></polyline><polyline fill="none" points="152.8346310396446,172.8000000000029 152.19767577259336,168.05623116942297 152.54909936827607,165.35628087850637 152.19767577259336,160.33480216412863 152.52713539346587,151.5785203853884 152.26356769679114,151.20000000001164 151.71446832851507,151.5785203853884 151.1653689603554,160.51143876765855 151.38500870764256,169.2926474843116 152.26356769679114,169.54497660984634 152.3294596208725,169.31788040809624 152.4392794945743,165.0030142448377 152.15374782308936,168.359027554543" stroke="#4dd2ff" stroke-linecap="round" stroke-linejoin="round" stroke-width="0.5"><title>2021-04-18 2.2km</title></polyline><polyline fill="none" points="188.80000000004657,165.07463768444723 184.9318051575683,164.68364642042434 173.2343839542009,161.16470595585997 168.06647564459126,160.6670752383361 167.19999999995343,160.0983535767591 173.35816618904937,160.0272633060522 174.71977077366319,158.92536231552367 177.38108882517554,160.1338987069612" stroke="#4dd2ff" stroke-linecap="round" stroke-linejoin="round" stroke-width="0.5"><title>2021-04-16 1.0km</title></polyline><polyline fill="none" points="32.800000000046566,187.7323563605023 32.16736401669914,187.90104692101886 31.907531380769797,187.36902211081178 31.455648535571527,187.18735460967582 30.879497907939367,187.33009338164993 30.676150627608877,187.16140208898287 30.393723849381786,186.77211366503616 30.890794979117345,185.88972230597574 30.721338912146166,185.24090135429287 30.382426778262015,185.09816031553783 27.75020920508541,185.2798307016783 25.502092050213832,185.08518384976196 24.40627615066478,185.34471292163653 23.94309623434674,185.1630426250631 23.19748953980161,185.24090135429287 23.01673640171066,185.08518384976196 21.54811715480173,185.25387780468736 21.028451882884838,185.07220738270553 20.429707113013137,185.24090135429287 19.830962343141437,184.9943485536205 18.565690376621205,185.22792490263237 17.526359832671005,184.8126777732541 16.667782426811755,184.91648967849324 16.182008368254174,184.31957010473707 15.300836820097174,184.3714762621239 14.498744769894984,184.12492183200084 14.171129707188811,184.2806404732255 13.719246861990541,183.83943717771035 13.052719665283803,184.07301557730534 12.081171548110433,183.7486010214052 11.516317991714459,184.0470624423033 11.91171548125567,183.7615776189923 12.002092050213832,184.20278117564158 11.200000000011642,184.16385150958376 11.87782426783815,183.91729669032793 11.55020920507377,183.99515615687415 11.900418410077691,183.96920300649072 11.6179916318506,184.08599214290734 11.79874476994155,184.2806404732255 11.60669456073083,184.12492183200084 11.87782426783815,184.03408587283047 11.79874476994155,183.89134352456313 11.572803347313311,183.96920300649072 11.651882845209911,184.16385150958376 12.002092050213832,184.02110930212075 11.832635983300861,183.95622642934904 11.81004184106132,184.137898392466 11.900418410077691,183.90432010810764 11.776150627702009,184.137898392466 11.855230125540402,183.95622642934904 11.91171548125567,184.09896870721423 11.74225941428449,183.6318115854374 11.843933054478839,183.96920300649072 11.787447698763572,183.7486010214052 11.81004184106132,183.96920300649072 11.584100418433081,183.80050740412844 11.66317991638789,183.6837180142029 11.74225941428449,183.80050740412844 11.572803347313311,183.86539035370515 11.79874476994155,183.9821795822936 11.6179916318506,183.8783669397817 11.832635983300861,183.6837180142029 11.67447698750766,183.95622642934904 11.49372384941671,183.95622642934904 11.67447698750766,183.61883497503004 11.50502092053648,183.73562442255206 11.776150627702009,183.96920300649072 11.584100418433081,183.85241376633348 11.6179916318506,183.96920300649072 11.67447698750766,183.86539035370515 11.730962343106512,184.41040586677263 11.6179916318506,185.63019430932763 12.713807531399652,185.86376952935825 12.804184100474231,186.07139159900544 13.787029288767371,185.98055698386452 14.35188284527976,186.18817886919715 18.859414226026274,186.3828240891453 23.310460251115728,186.95378173956124 25.445606694556773,187.03163940900413 26.394560669490602,187.2392596355785 27.49037656909786,187.797237370949 29.207531380758155,187.60259424363903 29.388284518849105,187.91402310905687 29.625523012597114,187.8102135691879 31.241004184121266,188.14759427434183 31.523430962348357,188.3811650249554 32.03179916320369,188.26437970147526 32.189958159055095,187.78426117140043 32.641841004253365,187.60259424363903" stroke="#4dd2ff" stroke-linecap="round" stroke-linejoin="round" stroke-width="0.5"><title>2021-04-09 4.9km</title></polyline><polyline fill="none" points="58.36397515540011,187.15576907334616 51.58881987584755,185.1909708568419 50.81739130441565,184.45898468076484 46.0546583852265,184.8442407339753 42.60000000009313,184.49751030324842 43.23726708081085,184.88276631844928 42.935403726645745,185.03686861807364 37.199999999953434,183.72699713296606 41.96273291914258,185.15244530286873 48.80496894416865,185.7303282142093 58.29689440992661,188.27300286706304 57.02236024849117,187.7721743201837 58.79999999993015,187.54102246667026 58.330434782546945,186.96314223416266" stroke="#4dd2ff" stroke-linecap="round" stroke-linejoin="round" stroke-width="0.5"><title>2021-04-09 1.4km</title></polyline><polyline fill="none" points="64.05909090908244,184.80178996088216 65.1022727272939,185.68283659638837 72.65000000002328,188.5726543130586 75.99431818176527,188.43168813735247 78.90909090917557,189.03079399993294 84.30909090919886,188.43168813735247 84.79999999993015,187.8325812703988 82.62159090919886,187.2687150662532 80.01363636355381,187.79733965868945 77.31363636360038,186.775331407669 75.07386363646947,186.9515399353986 71.26931818178855,185.0132413514657 70.77840909094084,184.0969510881987 68.59999999997672,183.25114260573173 66.94318181823473,182.96920600003796 63.199999999953434,183.88549915526528" stroke="#4dd2ff" stroke-linecap="round" stroke-linejoin="round" stroke-width="0.5"><title>2021-04-08 1.4km</title></polyline><polyline fill="none" points="110.65974025975447,186.90220063424204 110.79999999993015,187.64328861891408 108.97662337659858,187.6755097975838 104.15168831171468,186.03222563740565 96.85818181815557,185.67779071512632 93.01506493496709,184.3244902024162 89.19999999995343,184.90447682293598 92.81870129867457,184.48559770031716 96.66181818174664,185.6455693395401 103.81506493513007,185.96778295288095" stroke="#4dd2ff" stroke-linecap="round" stroke-linejoin="round" stroke-width="0.5"><title>2021-04-06 1.3km</title></polyline><polyline fill="none" points="121.7964071854949,182.75661670282716 124.51257485011593,181.9083324733365 125.63353293412365,182.80651572940405 125.63353293412365,183.75459627155215 124.90059880237095,184.1537875306385 126.19401197577827,185.55095438001445 127.53053892194293,185.70065059227636 129.2550898201298,184.90227026611683 131.19520958070643,182.4572224362928 132.9197604788933,183.10590978278196 134.342514970107,182.25762615716667 136.75688622728921,182.55702054535504 136.75688622728921,179.5131690853741 136.49820359284058,181.35944189631846 135.07544910162687,181.1099459765246 136.80000000004657,181.40934106512577 136.71377245499752,182.70671767104068 133.0059880237095,183.05601078644395 131.19520958070643,182.40732337423833 128.26347305392846,186.09984026823076 128.95329341315664,185.50105563254328 125.71976047893986,185.45115687994985 125.07305389200337,184.35338303845492 126.02155688614585,184.35338303845492 125.93532934132963,183.85439411672996 124.81437125732191,181.85843335525715 124.34011976025067,182.55702054535504 123.39161676634103,182.4572224362928 122.1844311375171,185.0519666762557 118.17485029902309,187.1477116222086 116.88143712561578,189.54283774230862 116.70898203575052,187.6965957240318 116.36407185602002,190.04182087921072 116.06227544881403,188.94405730837025 116.36407185602002,189.69253273674985 116.10538922133856,189.04385409812676 117.87305389204994,189.94202429242432 119.29580838303082,192.0876464348985 121.14970059855841,191.93795217137085 121.66706586815417,190.8900910471275 120.54610778414644,190.39110877303756 121.53772455081344,190.39110877303756 121.0634730537422,190.98988744121743 120.63233532896265,190.59070174364024 121.14970059855841,191.18948016813374 121.27904191589914,190.69049819846987 121.49461077828892,191.8381559701811 120.76167664653622,192.4868309146259 118.39041916141286,192.28723871539114 116.19161676615477,189.69253273674985 116.57964071817696,187.44710302661406 116.83832335309125,189.24344761660905 115.19999999995343,190.1915157212352 115.67425149702467,189.393142702349 115.37245508958586,190.39110877303756 116.57964071817696,189.54283774230862 116.75209580827504,187.3473059121461" stroke="#4dd2ff" stroke-linecap="round" stroke-linejoin="round" stroke-width="0.5"><title>2021-04-05 1.9km</title></polyline><polyline fill="none" points="158.18703574803658,191.6827286992193 157.34000109205954,192.10917275387328 157.671449435642,191.5974397839891 158.26069093553815,191.5974397839891 158.38958751352038,191.23496150644496 157.72669082635548,195.17954429371457 156.30882846738677,196.2029914627783 156.2351732798852,196.8000000000029 156.17993188928813,196.2029914627783 157.78193221695255,195.24350988841616 158.31593232613523,193.15395701501984 158.68420826352667,189.8276869487454 157.76351842004806,189.16669108673523 155.7748283582041,188.80420859849255 154.5963453585282,189.72107485418383 152.12889657821506,190.42471367458347 147.63593014201615,193.13263493936392 146.8257230798481,191.83198421719135 145.8866194395814,192.23710580078478 145.4446883146884,192.0665283874987 142.86675675294828,181.00002155455877 142.71944637806155,178.97429700440262 144.0268259557197,184.90215146214177 144.4319294868037,185.07273471595545 149.164275282179,182.91911093138333 152.81020706228446,181.74633618164808 155.0935178740183,180.46693804815004 158.29751852923073,177.8867946810933 160.19413960678503,175.1999999999971 161.28055362193845,175.7544207755418 161.15165704395622,175.9250114877941 160.7097259190632,175.7757446221658 160.9675190752605,175.5625060579914 160.9675190752605,175.90368765637686 161.07800185645465,175.3279433863354 160.4519327628659,175.51985831900674" stroke="#4dd2ff" stroke-linecap="round" stroke-linejoin="round" stroke-width="0.5"><title>2021-04-05 3.7km</title></polyline><polyline fill="none" points="172.6504672896117,178.16831719997572 176.0822429903783,180.89579199929722 178.90841121505946,188.76645043020835 178.97570093441755,192.7407125099562 180.52336448570713,192.42900642711902 182.07102803722955,193.83168279996607 185.57009345805272,191.2601074836566 188.79999999981374,192.11730021680705 182.2056074764114,190.5587672594702 182.2056074764114,193.13034493516898 182.54205607483163,189.54571913310792 182.40747663518414,193.28619784972398 182.60934579418972,192.03937364451122 179.91775700915605,192.58485948451562 181.73457943927497,191.41596077935537 182.67663551401347,193.13034493516898 180.99439252307639,192.03937364451122 182.2056074764114,191.72766727540875 181.93644859828055,193.20827139628818 182.67663551401347,193.20827139628818 181.80186915886588,191.64974066318246 183.34953270992264,193.5979035833152 181.80186915886588,192.19522678118665 181.93644859828055,190.94840079679852 183.0803738317918,192.7407125099562 182.00373831763864,191.0263274803292 180.18691588775255,190.94840079679852 179.37943925219588,192.97449198900722 179.58130841120146,191.96144706424093 176.14953271020204,189.3898654562072 177.49532710271887,184.4025310127763 176.14953271020204,184.94802230247296 176.2168224300258,182.9219098361791 172.24672897183336,180.73993655876257 167.19999999995343,181.20750278542982 170.02616822440177,182.22056196193444 170.96822429914027,184.8700949990307" stroke="#4dd2ff" stroke-linecap="round" stroke-linejoin="round" stroke-width="0.5"><title>2021-04-04 1.4km</title></polyline><polyline fill="none" points="24.534078211989254,200.33098246145528 17.83687150804326,203.38074755377602 11.381005586357787,210.86647845379775 17.474860335001722,217.5897057921975 21.03463687119074,213.56963944953168 25.197765363147482,211.8368451365386 25.318435754161328,209.5495500973193 29.179888268001378,206.7077489149524 23.50837988802232,199.49922604684252 18.74189944122918,202.68762028665515 11.199999999953434,211.28235005342867 17.354189943987876,216.82728118507657 20.974301675800234,212.59927516093012 26.887150837806985,211.6289095315733 28.636871508322656,210.311982604675 29.541899441275746,206.84637362958165 29.300558659015223,206.22256219777046 28.57653631293215,207.60880907118553 26.46480446914211,208.64849243091885 26.4044692737516,208.02468259970192 32.799999999813735,203.79662358592032 30.446927374228835,202.54899475112325 27.97318435739726,199.49922604684252 26.585474860155955,201.78655381657882 22.362011173041537,199.9844174083555 14.035754189593717,207.47018450696487 11.441340781748295,211.14372621424263 17.474860335001722,216.82728118507657 21.03463687119074,213.08445747278165 21.577653631102294,213.50032775918953 20.069273742847145,215.57967549713794 28.335195530438796,217.31246057635872 30.989944134140387,220.50077395321568 25.378770949319005,210.2426705926773 25.982122905086726,208.37124368536752 28.938547486206517,205.87600005220156 25.680446927202865,203.86593623377848 23.870391061296687,200.40029545151629 22.60335195506923,199.9151043772581 21.517318435478956,200.67754734342452 22.060335195623338,201.16273789084516" stroke="#4dd2ff" stroke-linecap="round" stroke-linejoin="round" stroke-width="0.5"><title>2021-04-02 3.1km</title></polyline><polyline fill="none" points="50.4510638298234,218.34746444896155 47.92340425529983,217.46765793619852 43.15531914890744,217.37967709400982 37.98510638298467,216.69782439009578 37.54468085116241,216.2799136378453 37.199999999953434,214.19034812839527 37.69787234044634,213.79442824648868 38.73191489360761,213.75043710503087 37.79361702129245,210.8250067242625 38.02340425539296,206.86571651382837 39.45957446808461,204.82005569181638 40.034042553277686,203.43427479383536 42.772340425523,201.542559981026 43.882978723500855,202.75237944399123 44.917021276662126,202.97234591370216 45.45319148933049,203.61024744875613 47.71276595746167,203.61024744875613 51.19787234044634,204.16016110031342 52.88297872338444,205.04002012169803 55.6787234043004,207.5256030979508 58.321276595583186,212.10076303806272 58.39787234039977,212.694647108161 57.78510638291482,213.22254273148428 57.53617021278478,214.05837491249258 58.07234042545315,214.03637936891755 58.800000000046566,215.9059928271745 58.321276595583186,216.89578184153652 56.65531914890744,217.20371530551347 56.253191489260644,217.7096050732507 55.31489361694548,217.24770576560695 54.912765957415104,217.42366751944064 53.91702127654571,217.11573435919126 53.43829787231516,218.45744001898856 53.28510638291482,218.3034742057789" stroke="#4dd2ff" stroke-linecap="round" stroke-linejoin="round" stroke-width="0.5"><title>2021-04-02 3.2km</title></polyline><polyline fill="none" points="65.46312997350469,208.1737890126533 72.76816976128612,211.43135781673482 76.72148541116621,211.39845324031194 79.12785145884845,211.9578305973846 82.36498673749156,211.16812111492618 84.80000000004657,211.20102571387542 79.29973474808503,211.92492607302847 76.89336870028637,211.36554866074584 72.9973474801518,211.56297608980094 67.95543766580522,210.11517223037663 63.199999999953434,208.0421694025863" stroke="#4dd2ff" stroke-linecap="round" stroke-linejoin="round" stroke-width="0.5"><title>2021-04-01 1.4km</title></polyline><polyline fill="none" points="89.19999999995343,207.2794083393528 91.63927986915223,209.75637384262518 94.50278232409619,210.36546143773012 97.86121112946421,212.1115075496491 102.45695581031032,212.03029626677744 105.00229132571258,212.7205916606472 110.80000000004657,212.03029626677744 106.73453355161473,212.63938049794524 101.82062193122692,211.9084793124639 97.43698854348622,212.1115075496491 90.86153846140951,210.32485562603688 90.18985270056874,209.95940314105246 90.96759410807863,209.63455621540197" stroke="#4dd2ff" stroke-linecap="round" stroke-linejoin="round" stroke-width="0.5"><title>2021-03-29 1.2km</title></polyline><polyline fill="none" points="125.60610773414373,220.79999999998836 124.59949416550808,215.12380938709248 123.8992412481457,214.9228811300709 120.48550827638246,210.00011415043264 118.20968629512936,209.79918387840735 125.29974708263762,199.19999999998254 127.66310067870654,200.65677290415624 132.30227625579573,205.37869790161494 131.82085237512365,208.74429865402635 133.79031370510347,220.29768478992628 127.53180325683206,216.12844948653947 125.25598127534613,215.67636168620083 125.03715223865584,216.63076879555592" stroke="#4dd2ff" stroke-linecap="round" stroke-linejoin="round" stroke-width="0.5"><title>2021-03-28 1.4km</title></polyline><polyline fill="none" points="151.73415384616237,206.0875407375279 152.96369230758864,206.8127859272936 153.26276923064142,206.20205322626862 154.45907692308538,206.12571157084312 154.724923076923,205.51497778543853 155.09046153828967,205.93485736649018 155.6553846154129,205.51497778543853 157.41661538451444,206.50741969732917 158.44676923076622,205.74400306795724 161.4707692306256,206.66010284234653 161.2713846154511,205.89668651425745 162.7003076922847,206.04936990048736 161.63692307681777,205.66766132219345 161.9027692307718,205.0569268138206 161.9692307690857,205.89668651425745 161.80307692300994,205.51497778543853 161.43753846152686,206.01119905951782 161.50399999995716,205.40046509329113 161.9692307690857,206.04936990048736 161.4707692306256,205.89668651425745 162.46769230766222,205.78217393517843 162.46769230766222,206.16388240037486 162.035692307516,205.62949044359266 161.3378461538814,206.01119905951782 162.73353846149985,205.78217393517843 162.30153846147005,205.4386359944765 162.16861538449302,206.58376127740485 161.57046153838746,206.0875407375279 161.50399999995716,206.50741969732917 162.33476923056878,205.9730282149394 161.9692307690857,206.01119905951782 162.79999999993015,207.0418104416749 162.7003076922847,205.93485736649018 162.2018461538246,206.01119905951782 162.46769230766222,206.54559048920055 161.73661538469605,206.77461516176118 161.63692307681777,206.35473649192136 161.23815384611953,206.92729820142267 159.84246153838467,206.73644439244526 159.84246153838467,205.9730282149394 160.1747692306526,212.53835812423495 156.41969230771065,213.37810158979846 153.3624615384033,212.38567729844362 153.59507692302577,212.88188976232777 152.66461538453586,212.38567729844362 147.28123076912016,212.1184857081971 144.58953846152872,212.92005992544 144.35692307678983,214.29418329225155 143.72553846158553,214.7903933088819 141.56553846143652,214.9430731861503 141.19999999995343,214.33235331607284" stroke="#4dd2ff" stroke-linecap="round" stroke-linejoin="round" stroke-width="0.5"><title>2021-03-26 1.5km</title></polyline><polyline fill="none" points="169.4829268293688,208.63126527593704 176.33170731714927,211.4263691099477 178.74006968643516,211.25347686518217 180.84738675958943,211.71452262398088 183.88292682927568,211.10939991637133 185.0871080138022,211.25347686518217 188.79999999993015,209.92796625601477 185.5135888501536,211.25347686518217 181.2738675958244,211.59926125247148 179.0411149825668,211.13821531180292 176.5574912892189,211.33992300037062 171.213937282213,210.04322828681325 167.19999999995343,208.28547737599" stroke="#4dd2ff" stroke-linecap="round" stroke-linejoin="round" stroke-width="0.5"><title>2021-03-26 1.6km</title></polyline><polyline fill="none" points="32.799999999813735,235.91659649994108 31.149745330912992,235.705982393265 28.692699490347877,234.14743477504817 26.602376909693703,234.18955775853829 23.595246179727837,233.01011265337002 16.260780984535813,233.22072808965459 17.360950763802975,233.76832773769274 16.920882852049544,233.89469678746536 11.199999999953434,232.08340350005892 15.820713072549552,233.85257377498783 22.385059422580525,234.27380371282925 27.995925297029316,235.62173672145582" stroke="#4dd2ff" stroke-linecap="round" stroke-linejoin="round" stroke-width="0.5"><title>2021-03-24 1.1km</title></polyline><polyline fill="none" points="58.79999999993015,235.58436208078638 57.24456521740649,235.48323304005316 55.71847826091107,234.33710182108916 53.28260869567748,233.9325840025558 51.28695652179886,233.02241716056596 45.182608695700765,233.15725684558856 45.71086956537329,233.7303249137476 40.927173913107254,232.41563791921362 37.199999999953434,232.88757742225425 38.66739130439237,233.08983700969839 41.04456521733664,232.4493479053781 45.446739130537026,233.79774462341447 53.458695652196184,234.13484297165996" stroke="#4dd2ff" stroke-linecap="round" stroke-linejoin="round" stroke-width="0.5"><title>2021-03-23 1.3km</title></polyline><polyline fill="none" points="84.36914893612266,235.07226263763732 77.10212765960023,232.53183448678465 74.14361702115275,233.0267246006115 71.21382978721522,232.69679793936666 72.01808510627598,233.22468044125708 71.70212765957695,233.32365831767675 67.0776595743373,231.93796538349125 63.199999999953434,232.49884178640787 66.79042553191539,232.00395089149242 71.12765957438387,233.25767306992202 76.87234042549971,233.6535843606398 84.80000000004657,236.06203461650875 83.50744680839125,235.43517936990247 84.80000000004657,235.07226263763732" stroke="#4dd2ff" stroke-linecap="round" stroke-linejoin="round" stroke-width="0.5"><title>2021-03-22 1.6km</title></polyline><polyline fill="none" points="107.59387911239173,223.33357029205945 107.89135424635606,223.5421696606645 107.72609028307488,224.20589342516905 109.22999234893359,224.43345533344836 109.626625860692,224.75583424443903 109.49441469012527,225.34370028464764 110.08936495782109,225.74193110143824 110.79999999998836,226.9745450904884 110.37031369539909,228.1123356349126 109.74231063504703,228.3778191305464 109.51094108645339,229.06048930042016 106.45355776586803,231.71529479551828 103.08217291504843,233.0237212193315 102.02448354999069,233.70637496456038 101.21469013008755,234.38902629644144 98.85141545522492,237.65054935270746 89.20000000001164,244.66642970794055" stroke="#4dd2ff" stroke-linecap="round" stroke-linejoin="round" stroke-width="0.5"><title>2021-03-21 1.3km</title></polyline><polyline fill="none" points="124.99144724651705,232.12345238041598 124.71727756597102,230.37025749233726 122.83725689921994,228.03264339396264 122.07349850342143,227.80787154800782 119.48847008659504,230.167964909313 116.92302521842066,233.42710140236886 116.27676811430138,233.60691447717545 115.57176036422607,235.51741966354894 116.76635682955384,237.22562254712102 119.60597137827426,238.5741947561619 122.68058851035312,241.06903237420192 122.50433657283429,241.2038876862207 122.91559109371156,241.15893592438078 122.5435036701383,240.95665288683085 123.01350883673877,241.74330813872803 124.05143691319972,242.97947520951857 127.9877301841043,244.8000000000029 130.0244192397222,244.5977201834612 134.8223886495689,241.24883943918394 135.4686457538046,239.90028300539416 136.42823963589035,235.58484896672599 135.4686457538046,233.92158701785957 131.88485635793768,230.6175037395733 128.0073137327563,225.7399601950019 125.12853208673187,223.1999999999971 121.8972465659026,227.69548554210633 122.4847530242987,227.7629171522858 123.2876785172848,228.50466355135723 124.85436240618583,230.50511911488138 124.83477885765024,231.13447230160818" stroke="#4dd2ff" stroke-linecap="round" stroke-linejoin="round" stroke-width="0.5"><title>2021-03-20 3.7km</title></polyline><polyline fill="none" points="160.671921182191,239.4388168019068 153.29458128055558,237.07590951339807 145.49162561586127,236.8314700568153 141.30640394077636,235.9351908118697 141.19999999995343,234.46854785224423 141.80295566492714,233.81670486507937 141.23546798038296,232.71671749165398 141.3773399014026,230.80191766808275 143.6118226600811,228.5611831981223 147.30049261078238,229.009331064648 151.0600985221099,230.27229061772232 158.15369458124042,230.109328311868 161.94876847276464,229.49821909173625 162.4098522164859,228.96859036956448 161.73596059111878,230.516733956174 161.3103448273614,235.77223074028734 161.66502463049255,238.4610637013102 162.80000000004657,238.6647624548059" stroke="#4dd2ff" stroke-linecap="round" stroke-linejoin="round" stroke-width="0.5"><title>2021-03-19 1.6km</title></polyline><polyline fill="none" points="175.95359628775623,233.77934678878228 180.64779582375195,235.7940934147191 182.46867749432568,235.67896559811197 184.0556844547973,236.02434884350805 185.72621809749398,235.6597776221024 186.61160092806676,235.73652951495023 188.79999999998836,235.08413746055157 184.7406032483559,236.0051609014772 182.6524361949996,235.67896559811197 180.31368909520097,235.77490545003093 170.97540603252128,232.80074804219475 167.20000000001164,232.3977941863268 168.01856148493243,232.5129239445523 167.46728538285242,232.282664359911 167.6343387471279,232.18672278587474 168.9039443155052,232.26347604891635 170.59118329471676,231.97565115649195 171.1591647331952,232.3977941863268 171.4932714617462,232.18672278587474 171.89419953600736,232.57048879817012 172.2450116009568,232.45535907401063 172.6960556845297,232.83912455638347 173.26403712300817,232.62805363468942 174.43341067287838,233.47233594719728 174.66728538280586,233.18451284324692 174.0658932715305,232.282664359911 173.83201856154483,232.30185266905755 173.91554524365347,232.9542540534312 175.00139211135684,233.49152413901174 175.45243619498797,232.41698248412285 175.7030162413721,232.93506580867688 176.03712296986487,232.87750106291787 175.68631090491544,232.973442296352 175.88677494210424,232.91587756195804 175.40232018567622,232.24428773602995 176.12064965203172,232.18672278587474" stroke="#4dd2ff" stroke-linecap="round" stroke-linejoin="round" stroke-width="0.5"><title>2021-03-19 3.1km</title></polyline><polyline fill="none" points="20.289487697242294,268.8000000000029 20.168174767983146,268.4237702009559 19.937680202361662,268.3819668281212 19.59800400037784,268.70245903720206 20.01046795991715,266.3475210661418 19.852761151851155,266.9188409852359 19.925548909406643,267.9639324192249 19.69505434378516,268.14508081495296 18.38487470766995,268.1172118460963 18.227167899545748,267.28114022451336 18.336349535908084,266.5426061763719 21.514748282905202,265.8319376923464 23.649855838157237,265.6925905116077 23.577068080601748,252.21706872188952 24.29281436331803,251.29728613275802 25.77283210051246,249.98728240632045 25.505943656084128,249.31833964618272 23.698381009860896,247.1999999999971" stroke="#4dd2ff" stroke-linecap="round" stroke-linejoin="round" stroke-width="0.5"><title>2021-03-18 2.7km</title></polyline><polyline fill="none" points="44.52566249156371,267.0176086661377 45.13039118767483,267.1224558770191 45.221670990868006,267.63358484537457 45.449870498792734,267.7646432384936 46.682147841667756,268.01365382934455 48.279544397315476,267.8694898598915 49.386312010814436,268.18402922785026 50.41320979659213,268.8000000000029 50.675639230641536,267.9743363986199 50.52730955055449,264.4750384729123 51.4743375084945,264.3832953400124 50.116550436243415,264.0032159716211 48.80440326553071,263.9376849361579 48.22249452030519,263.30858535117295 47.070087005151436,251.39444954277133 48.325184298853856,249.92640727000253 49.215162379841786,249.415210169871 48.57620375760598,248.27484031801578 47.48084611946251,247.1999999999971" stroke="#4dd2ff" stroke-linecap="round" stroke-linejoin="round" stroke-width="0.5"><title>2021-03-17 2.8km</title></polyline><polyline fill="none" points="63.927659574430436,256.83431946646306 64.19574468093924,256.83431946646306 65.53617021278478,257.4061738749733 65.91914893616922,257.89005010956316 69.90212765941396,258.98976687228424 74.11489361710846,259.5616185174731 75.53191489353776,259.4736413891369 76.52765957452357,259.6935841777304 77.02553191501647,259.8695383304439 79.01702127652243,260.1774579308403 80.66382978716865,260.8372849303705 81.19999999995343,260.969250213122 82.11914893635549,261.45312258254853 82.88510638312437,261.93699442697107 83.19148936169222,262.02497106959345 83.53617021278478,262.20092430277145 84.37872340413742,262.42086574662244 84.80000000004657,262.37687746656593 84.76170212775469,262.37687746656593 84.76170212775469,262.37687746656593 84.64680851087905,262.42086574662244 84.72340425546281,262.37687746656593 84.76170212775469,262.37687746656593 84.80000000004657,262.42086574662244 84.57021276582964,262.37687746656593 84.07234042556956,262.37687746656593 82.38723404239863,262.42086574662244 81.23829787247814,262.06895938445814 80.12765957438387,261.849017767061 79.01702127652243,261.7610410898051 77.90638297866099,261.80502943051397 77.33191489381716,261.849017767061 76.22127659572288,261.93699442697107 75.72340425522998,261.93699442697107 74.0,261.80502943051397 73.46382978721522,261.6730643949704 72.42978723393753,261.40913420694415 71.89361702138558,261.1452038627467 70.8595744681079,260.7932964939682 70.32340425532311,260.61734270560555 68.1404255318921,260.1774579308403 66.72340425546281,259.60560707523837 66.60851063835435,259.34167566380347 67.06808510632254,259.25369849195704 67.25957446801476,259.25369849195704 67.4127659574151,259.07774409631384 67.25957446801476,259.0337554864527 66.87659574463032,258.9457782538666 66.6851063829381,258.9017896311416 66.57021276606247,258.8578010039637 66.34042553184554,258.8578010039637 66.18723404267803,258.7698237366567 65.99574468075298,258.7698237366567 65.80425531906076,258.7698237366567 65.53617021278478,258.681846452062 65.34468085109256,258.59386915012146 65.2297872339841,258.54988049255917 64.84680851059966,258.3299371400499 64.7319148934912,258.2419597686385 64.5404255320318,258.1099936789251 64.42553191492334,258.0220162642363 64.31063829781488,257.89005010956316 64.15744680841453,257.71409517590655 63.88936170213856,257.4941514112579 63.65957446815446,257.3621851003263 63.544680851045996,257.2742075380229 63.353191489353776,257.0542635564634 63.27659574453719,256.65836411633063 63.27659574453719,256.3064532079152 63.23829787247814,256.0865087490529 63.199999999953434,255.91055310392403 63.3148936170619,255.55864160554484 63.27659574453719,255.07476284180302 63.27659574453719,254.8548177756893 63.23829787247814,254.72285068387282 63.3148936170619,254.59088355317363 63.27659574453719,254.5468945009343 63.3148936170619,254.2389710135758 63.353191489353776,254.01902553523541 63.544680851045996,253.97503642659285 63.927659574430436,253.84306907452992 64.11914893612266,253.75509081812925 64.23404255323112,253.71110168349696 64.46382978721522,253.62312340116478 64.5021276595071,253.62312340116478 64.5021276595071,253.57913425340666 64.5404255320318,253.57913425340666" stroke="#4dd2ff" stroke-linecap="round" stroke-linejoin="round" stroke-width="0.5"><title>2021-03-02 1.4km</title></polyline><polyline fill="none" points="93.16837209300138,258.3173654836719 93.41953488369472,258.4327591159381 96.18232558132149,258.95203018025495 97.94046511640772,259.5866941881832 98.59348837193102,259.87517760071205 100.35162790701725,260.3367507646326 101.00465116254054,260.3367507646326 102.86325581395067,260.22135750798043 103.46604651142843,260.0482675798703 105.32465116260573,259.9328742660582 106.47999999998137,260.3367507646326 107.08279069769196,260.5675372101832 108.1376744187437,260.97141327062855 109.14232558128424,261.1445029254537 110.39813953498378,261.0291098279995 110.59906976716593,260.9137167077279 110.79999999981374,261.0291098279995 110.7497674417682,261.8368610329344 109.84558139531873,262.0676468866295 109.0920930232387,262.7023075147881 108.74046511598863,262.81770028255414 108.38883720920421,262.93309302732814 108.1879069765564,262.93309302732814 107.88651162781753,262.9907893910422 107.68558139540255,263.1061821016483 106.98232558136806,263.394663778774 107.08279069769196,263.6831453135237 107.43441860447638,263.913930439041 107.43441860447638,263.97162670624675 107.43441860447638,264.02932296763174 107.48465116275474,263.97162670624675 107.2334883720614,263.913930439041 106.93209302308969,264.02932296763174 106.83162790699862,264.0870192233124 106.73116279044189,264.1447154734633 106.68093023239635,264.20241171779344 106.68093023239635,264.20241171779344 106.47999999998137,263.913930439041 106.37953488365747,263.79853788769105 106.2288372090552,263.62544901808724 106.17860465100966,263.5100564098102 105.67627906985581,263.394663778774 105.47534883697517,263.394663778774 105.22418604651466,263.394663778774 104.97302325582132,263.33696745481575 104.67162790708244,263.33696745481575 104.42046511615627,263.33696745481575 103.91813953476958,263.22157478972804 103.66697674407624,263.16387844854034 103.41581395361573,263.1061821016483 103.16465116268955,263.04848574922653 102.6623255815357,262.93309302732814 102.46139534865506,262.81770028255414 102.21023255819455,262.7600039015524 101.9590697675012,262.6446111225523 101.70790697657503,262.5292183208512 101.50697674416006,262.35612907569157 101.0548837208189,262.1253433357924 100.60279069747776,261.8945575047983 100.25116279092617,261.548378587584 99.99999999976717,261.4329855698743 99.74883720930666,261.31759252917254 99.49767441861331,261.2021994657698 99.24651162768714,261.0868063796079 99.09581395355053,261.0291098279995 98.69395348825492,260.85602013889 98.49302325583994,260.79832356458064 98.29209302319214,260.7406269844505 98.09116279054433,260.62523380731 97.84000000008382,260.5675372101832 97.58883720915765,260.5098406074103 97.03627906972542,260.4521439987584 96.83534883731045,260.394447384635 96.58418604638427,260.3367507646326 96.2827906976454,260.3367507646326 96.08186046499759,260.2790541391587 95.5795348836109,260.22135750798043 95.32837209291756,260.105964228278 94.87627906980924,259.75978425279027 94.37395348842256,259.5866941881832 94.17302325577475,259.5289974886691 93.92186046508141,259.4713007835089 93.62046511634253,259.41360407252796 93.41953488369472,259.35590735595906 93.16837209300138,259.2405139054172 92.71627906966023,259.0097269366379 92.46511627919972,258.89433341799304 92.26418604631908,258.7789398766472 91.76186046516523,258.4904559236602 91.61116279079579,258.3750623026863 91.41023255791515,258.25966865901137 90.95813953480683,257.97118444991065 90.75720930239186,257.7980938562541 90.50604651169851,257.45191251521464 90.15441860468127,257.04803402512334 89.55162790697068,256.5864582664799 89.55162790697068,256.41336726327427 89.45116279064678,256.1248821437475 89.3506976745557,255.89409394573886 89.19999999995343,255.1440316736116 89.3506976745557,254.8555459283525 89.40093023236841,254.5670600407757 89.45116279064678,254.33627122826874 89.50139534892514,254.16317955916747 89.50139534892514,253.8746933301445 89.50139534892514,253.12462846905692 89.50139534892514,252.60535223275656 90.05395348835737,252.37456264632056 90.45581395342015,252.14377296896419 90.80744186067022,252.0283780960599 91.05860465136357,251.97068065113854 91.15906976745464,251.85528574418277 91.8623255812563,251.79758828220656" stroke="#4dd2ff" stroke-linecap="round" stroke-linejoin="round" stroke-width="0.5"><title>2020-12-25 1.0km</title></polyline><polyline fill="none" points="115.52481202990748,255.50505844311556 115.76842105272226,255.7382317239244 115.97142857126892,255.9714048897149 116.41804511263035,256.25121253708494 118.16390977427363,256.71755824791035 119.09774436079897,256.99736545371707 119.70676691737026,257.1372689946147 122.54887218028307,258.2564958309231 123.36090225563385,258.81610825585085 124.29473684192635,259.23581713973545 125.67518796981312,259.74879415892065 126.20300751877949,259.8420626479783 127.17744360910729,259.8420626479783 127.74586466164328,259.8420626479783 128.72030075173825,259.65552565146936 129.61353383469395,259.5622571253625 130.62857142859139,259.6088913907006 131.19699248112738,259.5622571253625 132.78045112779364,259.8420626479783 133.30827067652717,260.0285995710874 134.3233082704246,260.2151364206511 134.89172932342626,260.1685022150923 135.9067669173237,260.1218680050515 136.35338345868513,260.0752337904123 136.80000000004657,260.2617706215824 136.7593984962441,260.3084048177989 136.63759398506954,260.35503900944605 136.59699248126708,260.4016731965821 136.59699248126708,260.4483073790034 136.55639097746462,260.4016731965821 136.47518797009252,260.49494155685534 136.47518797009252,260.4016731965821 136.51578947389498,260.4483073790034 136.55639097746462,260.49494155685534 136.51578947389498,260.4483073790034 136.59699248126708,260.35503900944605 136.55639097746462,260.35503900944605 136.51578947389498,260.35503900944605 136.51578947389498,260.4016731965821 136.51578947389498,260.35503900944605 136.51578947389498,260.35503900944605 136.51578947389498,260.35503900944605 136.51578947389498,260.4016731965821 136.47518797009252,260.4016731965821 136.47518797009252,260.4016731965821 136.43458646605723,260.4016731965821 136.3939849624876,260.4016731965821 136.47518797009252,260.4016731965821 136.47518797009252,260.4016731965821 136.47518797009252,260.4016731965821 136.43458646605723,260.4016731965821 136.43458646605723,260.4483073790034 136.35338345868513,260.4016731965821 135.4195488721598,260.4016731965821 134.3639097744599,260.4016731965821 133.30827067652717,260.1685022150923 132.8210526315961,260.0285995710874 131.80601503746584,259.74879415892065 131.2781954887323,259.65552565146936 130.18195488722995,259.65552565146936 129.65413533849642,259.6088913907006 128.55789473699406,259.7021599073778 127.4210526314564,259.8420626479783 126.89323308272287,259.8420626479783 125.79699248122051,259.7954284057778 125.22857142845169,259.65552565146936 122.67067669169046,258.81610825585085 122.14285714295693,258.6295708543621 120.6406015038956,258.2564958309231 120.23458646610379,258.2098614323768 118.6105263158679,257.9300549439795 117.67669172910973,257.51034490103484 117.1488721803762,257.2305379988684 116.13383458647877,256.67092369752936 115.19999999995343,256.3444817160489" stroke="#4dd2ff" stroke-linecap="round" stroke-linejoin="round" stroke-width="0.5"><title>2020-12-08 1.1km</title></polyline><polyline fill="none" points="141.19999999995343,255.77350431791274 141.40769230760634,255.81326338712825 142.79230769223068,256.88675676990533 143.24230769230053,257.0457925835217 145.00769230758306,257.5626585446007 145.8384615384275,257.80121184160816 146.25384615384974,257.96024729442433 147.22307692305185,258.318076834199 148.0884615384275,258.7554236180731 148.53846153849736,259.03373496080167 150.75384615373332,259.7891504939762 151.2384615385672,259.82890916700126 152.62307692307513,259.6698744512396 153.03846153838094,259.63011576244025 155.2192307692021,259.6698744512396 155.66923076903913,259.7096331360517 157.01923076924868,260.1072197687754 158.4038461537566,260.22649568208726 158.81923076917883,260.18673704814864 159.71923076931853,260.22649568208726 161.10384615371004,260.02770247348235 161.51923076913226,259.98794382004417 162.38461538462434,259.90842650135164 162.79999999993015,259.8686678361846 162.62692307692487,259.55059837320005 161.65769230760634,259.51083967264276 161.24230769230053,259.55059837320005 160.37692307692487,259.7891504939762 160.0653846153291,259.8686678361846 159.1653846153058,260.06746112307883 158.74999999988358,260.1072197687754 157.88461538450792,260.1072197687754 157.4346153845545,260.02770247348235 156.56923076906241,259.8686678361846 156.15384615387302,259.7493918169057 154.8038461537799,259.51083967264276 154.35384615382645,259.51083967264276 153.45384615380317,259.55059837320005 152.9692307690857,259.55059837320005 152.06923076917883,259.63011576244025 151.16923076915555,259.6698744512396 150.3038461537799,259.63011576244025 149.47307692305185,259.43132225988666 149.05769230762962,259.31204611138673 148.15769230772275,259.03373496080167 147.74230769230053,258.8746999313298 146.91153846145608,258.5963884788216 145.80384615366347,258.27831801210414 145.4923076921841,258.23855918616755 144.66153846145608,258.03976499740384 143.51923076924868,257.68193521071225 143.2076923076529,257.4433818432153 142.4807692306349,257.0457925835217 142.09999999997672,256.84699780662777" stroke="#4dd2ff" stroke-linecap="round" stroke-linejoin="round" stroke-width="0.5"><title>2020-12-03 1.3km</title></polyline><polyline fill="none" points="188.57183098583482,258.56783315117355 188.76197183085606,259.26669882109854 188.80000000004657,259.48509411676787 188.15352112683468,259.87820537763764 187.0507042251993,259.834526365943 185.5295774647966,259.57245220491313 184.08450704207644,258.960945226223 183.59014084516093,258.87358701741323 180.77605633810163,257.78160795453005 179.74929577461444,257.60689105445636 178.19014084502123,257.6505702859722 177.12535211257637,257.60689105445636 176.3647887322586,257.60689105445636 175.90845070406795,257.60689105445636 174.8816901408136,257.5195325787645 174.53943661949597,257.47585333450115 173.36056338017806,257.38849483264494 172.9042253519874,257.3448155754595 171.30704225343652,257.213777777768 170.81267605605535,257.1264192244271 169.8239436619915,257.0390606537985 168.53098591556773,256.47122952505015 168.03661971818656,256.29651210826705 167.19999999995343,256.12179462239146 168.15070422529243,256.3401914689457 168.98732394375838,256.73330552110565 169.8239436619915,257.1264192244271 170.31830985913984,257.17009850317845 171.57323943660595,257.3011363137921 171.9535211266484,257.3448155754595 172.94225352117792,257.4321740856976 173.43661971809343,257.47585333450115 174.4633802815806,257.47585333450115 174.9197183100041,257.5195325787645 175.94647887325846,257.60689105445636 176.4028169014491,257.60689105445636 177.80985915474594,257.6505702859722 178.26619718316942,257.6505702859722 178.950704225339,257.56321181877865 179.1788732393179,257.56321181877865 179.33098591538146,257.56321181877865 179.483098591445,257.56321181877865 179.63521126750857,257.56321181877865 179.8253521125298,257.5195325787645 180.01549295755103,257.5195325787645 180.39577464782633,257.56321181877865 180.54788732388988,257.56321181877865 180.8901408452075,257.6942495130643 181.23239436605945,257.8689663785335 181.19436619710177,257.95632478545303 181.19436619710177,258.00000398236443 181.1563380281441,258.00000398236443" stroke="#4dd2ff" stroke-linecap="round" stroke-linejoin="round" stroke-width="0.5"><title>2020-11-30 1.0km</title></polyline></svg>