<?xml version="1.0" encoding="utf-8" ?>
<svg baseProfile="full" height="300mm" version="1.1" viewBox="0,0,200,300" width="200mm" xmlns="http://www.w3.org/2000/svg" xmlns:ev="http://www.w3.org/2001/xml-events" xmlns:xlink="http://www.w3.org/1999/xlink"><defs /><rect fill="#222222" height="300" width="200" x="0" y="0" /><text fill="#FFFFFF" style="font-size:12px; font-family:Arial; font-weight:bold;" x="10" y="20">Over 3km Runs</text><text fill="#FFFFFF" style="font-size:4px; font-family:Arial" x="10" y="280">ATHLETE</text><text fill="#FFFFFF" style="font-size:9px; font-family:Arial" x="10" y="290">jdzj</text><text fill="#FFFFFF" style="font-size:4px; font-family:Arial" x="120" y="280">STATISTICS</text><text fill="#FFFFFF" style="font-size:3px; font-family:Arial" x="120" y="285">Number: 22</text><text fill="#FFFFFF" style="font-size:3px; font-family:Arial" x="120" y="290">Weekly: 3.1</text><text fill="#FFFFFF" style="font-size:3px; font-family:Arial" x="141" y="285">Total: 40.1 km</text><text fill="#FFFFFF" style="font-size:3px; font-family:Arial" x="141" y="290">Avg: 1.8 km</text><text fill="#FFFFFF" style="font-size:3px; font-family:Arial" x="167" y="285">Min: 1.0 km</text><text fill="#FFFFFF" style="font-size:3px; font-family:Arial" x="167" y="290">Max: 3.7 km</text><polyline fill="none" points="21.08411214919761,36.947195333312266 26.80373831745237,41.49298666557297 31.514018692076206,54.61075071699452 31.626168224029243,61.23452085000463 34.20560747664422,60.715010711806826 36.78504672879353,63.052804666687734 42.616822429932654,58.76684580615256 48.0,60.19550036138389 37.00934579409659,57.59794543241151 37.00934579409659,61.88390822533984 37.570093458052725,55.90953188855201 37.345794392284006,62.14366308285389 37.68224299047142,60.06562274089083 33.19626168208197,60.97476580750663 36.22429906576872,59.026601298945025 37.79439252335578,61.88390822533984 34.99065420543775,60.06562274089083 37.00934579409659,59.546112125739455 36.560747663956136,62.01378566049971 37.79439252335578,62.01378566049971 36.33644859818742,59.41623443865683 38.91588784987107,62.66317263885867 36.33644859818742,60.32537796860561 36.560747663956136,58.247334661427885 38.467289719730616,61.23452085000463 36.672897196374834,58.37721246725414 33.644859813153744,58.247334661427885 32.29906542040408,61.62415331497323 32.63551401859149,59.93574510712642 26.91588785033673,55.64977576036472 29.15887850476429,47.33755168796051 26.91588785033673,48.246703837416135 27.02803738368675,44.86984972690698 20.411214952822775,41.233227597898804 12.0,42.01250464236364 16.710280374158174,43.70093660324346 18.280373831745237,48.1168249984039" stroke="#4dd2ff" stroke-linecap="round" stroke-linejoin="round" stroke-width="0.5"><title>2021-04-04 1.4km</title></polyline><polyline fill="none" points="80.89013035362586,33.88497076916974 69.7281191800721,38.9679125896655 58.968342644162476,51.44413075631019 69.1247672252357,62.649509653798304 75.05772811872885,55.949399082688615 81.9962756051682,53.0614085609559 82.19739292375743,49.24925016227644 88.63314711349085,44.51291485829279 79.18063314678147,32.49871007807087 71.23649906879291,37.81270047777798 58.666666666511446,52.13725008908659 68.92364990664646,61.378801975166425 74.95716945966706,54.332125268294476 84.81191806308925,52.714849219308235 87.72811918053776,50.51997100783046 89.23649906879291,44.74395604932215 88.83426443208009,43.70427032967564 87.62756052147597,46.01468178536743 84.1080074487254,47.747487384825945 84.00744878966361,46.707804332952946 94.66666666651145,39.6610393099254 90.74487895704806,37.581657918635756 86.62197392899543,32.49871007807087 84.30912476684898,36.31092302768957 77.2700186218135,33.307362347259186 63.39292364940047,45.783640844980255 59.068901302758604,51.90621035709046 69.1247672252357,61.378801975166425 75.05772811872885,55.140762454713695 75.9627560521476,55.83387959864922 73.44878957141191,59.299459161935374 87.22532588429749,62.18743429402821 91.64990689046681,67.50128992204554 82.29795158235356,50.404450987814926 83.30353817529976,47.285406142356806 88.23091247677803,43.12666675366927 82.80074487859383,39.77656038978603 79.78398510208353,34.000492419232614 77.67225325852633,33.1918406287441 75.86219739262015,34.46257890574634 76.7672253260389,35.27122981811408" stroke="#4dd2ff" stroke-linecap="round" stroke-linejoin="round" stroke-width="0.5"><title>2021-04-02 3.1km</title></polyline><polyline fill="none" points="127.41843971621711,63.91244074827409 123.20567375887185,62.446096560306614 115.25886524817906,62.29946182333515 106.64184397167992,61.16304065013537 105.90780141856521,60.46652272972278 105.33333333337214,56.9839135473012 106.16312056744937,56.324047077447176 107.88652482267935,56.25072850837023 106.32269503560383,51.375011207099305 106.70567375887185,44.776194189704256 109.09929078025743,41.36675948635093 110.05673758871853,39.05712465639226 114.62056737591047,35.90426663501421 116.47163120575715,37.92063240663265 118.19503546098713,38.28724318949389 119.0886524822563,39.35041241458384 122.85460992902517,39.35041241458384 128.66312056733295,40.266935167164775 131.47163120564073,41.73336686947732 136.1312056737952,45.87600516324164 140.53546099271625,53.501271730085136 140.66312056733295,54.49107851358713 139.6418439714471,55.37090455245925 139.2269503546413,56.763958187482785 140.12056737579405,56.72729894818622 141.33333333337214,59.84332137860474 140.53546099271625,61.492969735874794 137.75886524817906,62.00619217584608 137.08865248213988,62.84934178873664 135.52482269483153,62.07950960932067 134.85460992902517,62.372779199067736 133.1950354608707,61.85955726529937 132.39716312044766,64.09573336495669 132.1418439715635,63.83912367626908" stroke="#4dd2ff" stroke-linecap="round" stroke-linejoin="round" stroke-width="0.5"><title>2021-04-02 3.2km</title></polyline><polyline fill="none" points="155.7718832893297,46.95631502108881 167.94694960210472,52.38559636118589 174.53580901864916,52.33075540047139 178.54641909827478,53.2630509956507 183.94164456240833,51.94686852482846 188.0,52.0017095230869 178.83289124676958,53.208210121665616 174.82228116714396,52.2759144345182 168.32891246676445,52.604960149677936 159.9257294430863,50.19195371726528 152.0,46.73694900429109" stroke="#4dd2ff" stroke-linecap="round" stroke-linejoin="round" stroke-width="0.5"><title>2021-04-01 1.4km</title></polyline><polyline fill="none" points="12.0,85.46568056556862 16.065466448431835,89.5939564043656 20.837970540160313,90.60910239623627 26.43535188236274,93.51917924941517 34.09492635028437,93.38382711133454 38.33715220959857,94.53431943443138 48.0,93.38382711133454 41.22422258602455,94.3989674965851 33.03436988545582,93.18079885409679 25.728314239066094,93.51917924941517 14.76923076924868,90.5414260433754 13.649754500947893,89.93233856844017 14.945990180363879,89.39092702569906" stroke="#4dd2ff" stroke-linecap="round" stroke-linejoin="round" stroke-width="0.5"><title>2021-03-29 1.2km</title></polyline><polyline fill="none" points="76.01017955690622,108.0 74.33249027607962,98.539682311879 73.16540208039805,98.20480188349029 67.47584712738171,90.00019025075017 63.682810491882265,89.66530646407045 75.49957847129554,72.0 79.43850113125518,74.42795484029921 87.17046042624861,82.29782983608311 86.36808729218319,87.90716442343546 89.65052284160629,107.16280798328808 79.21967209456488,100.21408247761428 75.42663545906544,99.46060281037353 75.06192039791495,101.05128132598475" stroke="#4dd2ff" stroke-linecap="round" stroke-linejoin="round" stroke-width="0.5"><title>2021-03-28 1.4km</title></polyline><polyline fill="none" points="122.89025641046464,83.47923456260469 124.9394871792756,84.68797654553782 125.43794871796854,83.6700887104962 127.43179487180896,83.54285261814948 127.8748717950657,82.5249629758182 128.48410256393254,83.22476227750303 129.42564102564938,82.5249629758182 132.36102564097382,84.17903282894986 134.0779487178661,82.90667177998694 139.11794871767052,84.43350473733153 138.78564102575183,83.1611441904679 141.16717948717996,83.41561650083167 139.3948717948515,82.77943553699879 139.8379487178754,81.76154468976893 139.94871794851497,83.1611441904679 139.67179487179965,82.5249629758182 139.06256410269998,83.35199843259761 139.17333333333954,82.33410848886706 139.94871794851497,83.41561650083167 139.11794871767052,83.1611441904679 140.77948717959225,82.97028989199316 140.77948717959225,83.60647066734964 140.05948717915453,82.71581740601687 138.8964102563914,83.35199843259761 141.22256410238333,82.97028989199316 140.50256410241127,82.39772665750934 140.28102564089932,84.30626879574265 139.28410256421193,83.47923456260469 139.17333333333954,84.17903282894986 140.55794871784747,83.28838035825174 139.94871794851497,83.35199843259761 141.33333333325572,85.06968406954547 141.16717948717996,83.22476227750303 140.33641025656834,83.35199843259761 140.77948717959225,84.24265081534395 139.5610256411601,84.6243586030323 139.3948717948515,83.92456081992714 138.73025641031563,84.87883033574326 136.40410256409086,84.56074065412395 136.40410256409086,83.28838035825174 136.95794871775433,94.23059687373461 130.69948717951775,95.63016931642778 125.6041025640443,93.97612883080728 125.99179487163201,94.80314960394753 124.44102564104833,93.97612883080728 115.4687179485336,93.53080951370066 110.98256410262547,94.8667665424291 110.59487179480493,97.15697215381078 109.54256410268135,97.98398884816561 105.94256410258822,98.23845531028928 105.33333333325572,97.2205888601602" stroke="#4dd2ff" stroke-linecap="round" stroke-linejoin="round" stroke-width="0.5"><title>2021-03-26 1.5km</title></polyline><polyline fill="none" points="155.80487804906443,87.71877545994357 167.2195121953264,92.37728184994194 171.23344947746955,92.08912810866605 174.74564459943213,92.85753770664451 179.8048780488316,91.84899986063829 181.81184668978676,92.08912810866605 188.0,89.87994376005372 182.52264808374457,92.08912810866605 175.4564459931571,92.6654354208149 171.73519163765013,91.89702551972005 167.59581881552003,92.2332050006371 158.68989547039382,90.07204714475665 152.0,87.14246229335549" stroke="#4dd2ff" stroke-linecap="round" stroke-linejoin="round" stroke-width="0.5"><title>2021-03-26 1.6km</title></polyline><polyline fill="none" points="48.0,133.1943274998921 45.249575551832095,132.8433039888041 41.154499150812626,130.24572462507058 37.67062818305567,130.3159295975347 32.65874363319017,128.3501877555973 20.434634974226356,128.70121348276734 22.26825127308257,129.61387956282124 21.53480475372635,129.8244946458144 12.0,126.8056725001079 19.701188454637304,129.75428962497972 30.641765704378486,130.45633952139178 39.993208828382194,132.7028945357306" stroke="#4dd2ff" stroke-linecap="round" stroke-linejoin="round" stroke-width="0.5"><title>2021-03-24 1.1km</title></polyline><polyline fill="none" points="94.66666666674428,132.6406034679967 92.07427536230534,132.47205506678438 89.53079710155725,130.56183636852074 85.47101449291222,129.8876400042791 82.14492753637023,128.37069526768755 71.97101449291222,128.59542807604885 72.85144927562214,129.5505415229709 64.87862318870611,127.35939653206151 58.66666666674428,128.14596237044316 61.112318840576336,128.48306168289855 65.07427536230534,127.41557984234532 72.41123188426718,129.6629077057005 85.76449275389314,130.22473828616785" stroke="#4dd2ff" stroke-linecap="round" stroke-linejoin="round" stroke-width="0.5"><title>2021-03-23 1.3km</title></polyline><polyline fill="none" points="140.61524822679348,131.7871043960913 128.5035460991785,127.55305747798411 123.57269503525458,128.37787433440099 118.68971631210297,127.8279965656111 120.03014184394851,128.70780073542846 119.5035460991785,128.87276386277517 111.79609929048456,126.56327563914238 105.33333333325572,127.49806964403251 111.31737588648684,126.67325148585951 118.5460992907174,128.76278844987974 128.12056737602688,129.42264060105663 141.33333333325572,133.43672436085762 139.17907801410183,132.39196561649442 141.33333333325572,131.7871043960913" stroke="#4dd2ff" stroke-linecap="round" stroke-linejoin="round" stroke-width="0.5"><title>2021-03-22 1.6km</title></polyline><polyline fill="none" points="182.65646518731955,112.22261715342756 183.15225707716309,112.57028276778874 182.87681713839993,113.67648904197267 185.38332058151718,114.05575888909516 186.04437643452547,114.5930570740602 185.8240244834451,115.57283380776062 186.81560826301575,116.23655183572555 188.0,118.29090848416672 187.28385615895968,120.18722605818766 186.23718439170625,120.62969855091069 185.85156847746111,121.76748216737178 180.75592960976064,126.19215799254016 175.13695485831704,128.37286869887612 173.3741392500233,129.51062494094367 172.0244835501071,130.64837716071634 168.08569242537487,136.08424892116454 152.0,147.77738284657244" stroke="#4dd2ff" stroke-linecap="round" stroke-linejoin="round" stroke-width="0.5"><title>2021-03-21 1.3km</title></polyline><polyline fill="none" points="28.319078744156286,166.87242063402664 27.862129276501946,163.95042915389058 24.728761498699896,160.0544056566141 23.4558308388805,159.67978591335122 19.147450144169852,163.61327484884532 14.87170869729016,169.0451690039481 13.794613523758017,169.34485746195423 12.619600606965832,172.52903277258156 14.610594715923071,175.37603757853503 19.343285630340688,177.62365792694618 24.467647517099977,181.78172062366502 24.17389428790193,182.0064794770151 24.859318489441648,181.93155987397768 24.23917278344743,181.59442147804657 25.022514727781527,182.90551356453216 26.75239485525526,184.96579201586428 33.31288364017382,188.0 36.70736539957579,187.66286697244504 44.70398108253721,182.08139906529686 45.781076256302185,179.8338050089951 47.38039939303417,172.64141494454816 45.781076256302185,169.8693116964423 39.808093929779716,164.36250623263186 33.345522887888364,156.23326699167956 28.54755347792525,152.0 23.162077609682456,159.4924759035057 24.14125504042022,159.60486192046665 25.479464195435867,160.84110591892386 28.09060401027091,164.175198524812 28.057964762672782,165.2241205026803" stroke="#4dd2ff" stroke-linecap="round" stroke-linejoin="round" stroke-width="0.5"><title>2021-03-20 3.7km</title></polyline><polyline fill="none" points="91.11986863729544,179.06469466985436 78.82430213456973,175.12651585572166 65.81937602674589,174.71911676140735 58.844006568426266,173.22531801980222 58.66666666674428,170.7809130870737 59.67159277526662,169.69450810848502 58.72577996761538,167.8611958194524 58.96223316923715,164.66986278019613 62.68637110036798,160.93530533020385 68.83415435161442,161.6822184410994 75.10016420367174,163.7871510295663 86.92282430245541,163.51554718642728 93.247947455151,162.49703181959921 94.01642036135308,161.61431728268508 92.89326765201986,164.19455659366213 92.18390804599039,172.9537179004983 92.77504105120897,177.43510616885033 94.66666666674428,177.77460409136256" stroke="#4dd2ff" stroke-linecap="round" stroke-linejoin="round" stroke-width="0.5"><title>2021-03-19 1.6km</title></polyline><polyline fill="none" points="119.92266047967132,169.6322446479753 127.74632637295872,172.99015569119365 130.78112915728707,172.7982759968727 133.42614075809252,173.37391473917523 136.2103634958621,172.7662960368325 137.68600154679734,172.8942158582504 141.33333333337214,171.8068957676005 134.56767208059318,173.3419348358002 131.08739365835208,172.7982759968727 127.18948182545137,172.95817575007095 111.62567672098521,168.0012467369961 105.33333333337214,167.32965697723557 106.6976024749456,167.52153990761144 105.7788089714013,167.13777393320925 106.05723124521319,166.97787130982033 108.17324052588083,167.10579341487028 110.9853054912528,166.62608526082477 111.93194122205023,167.32965697723557 112.488785769674,166.97787130982033 113.15699922665954,167.61748133029323 113.74168600165285,167.42559845669894 114.49342614086345,168.065207593987 115.44006187177729,167.71342272451147 117.38901778811123,169.12055991202942 117.7788089714013,168.64085473876912 116.77648878586479,167.13777393320925 116.38669760257471,167.1697544484632 116.52590873942245,168.25709008905687 118.33565351902507,169.15254023170564 119.08739365835208,167.36163747357205 119.5050270690117,168.22510968113784 120.06187161651906,168.1291684382013 119.47718484152574,168.28907049392 119.81129157019313,168.19312926995917 119.00386697612703,167.0738128933881 120.2010827534832,166.97787130982033" stroke="#4dd2ff" stroke-linecap="round" stroke-linejoin="round" stroke-width="0.5"><title>2021-03-19 3.1km</title></polyline><polyline fill="none" points="167.14914616197348,188.0 166.94695794652216,187.37295033491682 166.56280033721123,187.3032780468493 165.99667333392426,187.8374317286507 166.68411326641217,183.9125351102266 166.42126858630218,184.86473497538827 166.54258151561953,186.6065540320269 166.1584239063086,186.9084680248925 163.9747911794111,186.86201974347932 163.7119464991847,185.46856704085076 163.89391589316074,184.2376769606053 169.19124713819474,183.05322948723915 172.74975973018445,182.820984186008 172.6284468009835,160.3617812031298 173.82135727221612,158.8288102212391 176.2880535008153,156.6454706771765 175.84323942672927,155.53056607696635 172.83063501643483,152.0" stroke="#4dd2ff" stroke-linecap="round" stroke-linejoin="round" stroke-width="0.5"><title>2021-03-18 2.7km</title></polyline><polyline fill="none" points="24.209437485900708,225.02934777688642 25.217318646027707,225.20409312837 25.369451651349664,226.0559747422958 25.74978416459635,226.27440539748932 27.803579736035317,226.68942304889788 30.465907328762114,226.4491497664858 32.310520017985255,226.9733820464171 34.02201632747892,228.0 34.459398717735894,226.62389399770473 34.212182584102266,220.79173078820168 35.79056251409929,220.6388255666825 33.52758406032808,220.00535995270184 31.34067210915964,219.896141560268 30.370824200450443,218.84764225195977 28.450145008508116,198.99074923795706 30.541973831364885,196.54401211666118 32.025270632933825,195.69201694978983 30.960339595912956,193.7914005300263 29.134743532398716,192.0" stroke="#4dd2ff" stroke-linecap="round" stroke-linejoin="round" stroke-width="0.5"><title>2021-03-17 2.8km</title></polyline><polyline fill="none" points="59.87943262420595,208.05719911074266 60.32624113489874,208.05719911074266 62.56028368812986,209.0102897916222 63.19858156028204,209.81675018259557 69.83687943266705,211.64961145381676 76.8581560284365,212.60269752907334 79.21985815605149,212.45606898190454 80.87943262420595,212.82264029618818 81.70921985828318,213.115897217358 85.02836879435927,213.62909655139083 87.77304964559153,214.7288082172745 88.66666666674428,214.94875035516452 90.19858156051487,215.75520430423785 91.47517730528489,216.5616573782754 91.9858156030532,216.70828511595028 92.56028368812986,217.0015405046288 93.96453900728375,217.36810957768466 94.66666666674428,217.29479577759048 94.60283687990159,217.29479577759048 94.60283687990159,217.29479577759048 94.41134751820937,217.36810957768466 94.53900709236041,217.29479577759048 94.60283687990159,217.29479577759048 94.66666666674428,217.36810957768466 94.28368794335984,217.29479577759048 93.45390070951544,217.29479577759048 90.64539007097483,217.36810957768466 88.73049645405263,216.7815989740775 86.87943262420595,216.41502961178776 85.02836879435927,216.2684018163127 83.17730496474542,216.34171571751358 82.21985815628432,216.41502961178776 80.36879432643764,216.5616573782754 79.53900709212758,216.5616573782754 76.66666666674428,216.34171571751358 75.77304964559153,216.12177399161737 74.04964538989589,215.6818903448875 73.15602836897597,215.2420064379112 71.43262411374599,214.6554941565846 70.53900709236041,214.36223784269532 66.9007092199754,213.62909655139083 64.53900709236041,212.67601179209305 64.34751773066819,212.23612610634882 65.11347517743707,212.08949748653686 65.43262411374599,212.08949748653686 65.68794326251373,211.79624016053276 65.43262411374599,211.72292581072543 64.79432624112815,211.57629708974855 64.47517730505206,211.5029827185208 64.28368794359267,211.42966833990067 63.9007092199754,211.42966833990067 63.64539007120766,211.28303956106538 63.32624113489874,211.28303956106538 63.00709219858982,211.28303956106538 62.56028368812986,211.1364107534173 62.24113475182094,210.98978191684 62.04964539012872,210.9164674875792 61.41134751797654,210.54989523341646 61.21985815605149,210.40326628106413 60.9007092199754,210.18332279816968 60.70921985828318,210.03669377375627 60.51773049659096,209.81675018259557 60.26241134759039,209.52349195978604 59.81560283713043,209.1569190187729 59.43262411374599,208.93697516719112 59.24113475182094,208.79034589667572 58.92198581597768,208.4237725941348 58.79432624112815,207.76394019386498 58.79432624112815,207.17742201313376 58.73049645405263,206.81084791506873 58.66666666674428,206.51758850651095 58.8581560284365,205.93106934253592 58.79432624112815,205.12460473628016 58.79432624112815,204.75802962610032 58.73049645405263,204.53808447311167 58.8581560284365,204.31813925527968 58.79432624112815,204.2448241682141 58.8581560284365,203.73161835590145 58.92198581597768,203.3650425586966 59.24113475182094,203.29172737762565 59.87943262420595,203.0717817908735 60.19858156028204,202.92515136353904 60.39007092197426,202.8518361391616 60.77304964559153,202.70520566857886 60.83687943266705,202.70520566857886 60.83687943266705,202.63189042231534 60.9007092199754,202.63189042231534" stroke="#4dd2ff" stroke-linecap="round" stroke-linejoin="round" stroke-width="0.5"><title>2021-03-02 1.4km</title></polyline><polyline fill="none" points="111.9472868219018,210.52894247276708 112.36589147290215,210.72126519324956 116.97054263576865,211.58671696705278 119.90077519416809,212.64449031359982 120.98914728686213,213.12529600114794 123.91937984479591,213.8945846076822 125.00775193795562,213.8945846076822 128.10542635666206,213.7022625132231 129.11007751943544,213.41377929970622 132.20775193767622,213.2214571100776 134.1333333333023,213.8945846076822 135.13798449607566,214.2792286836193 136.89612403139472,214.95235545100877 138.57054263539612,215.2408382090507 140.6635658913292,215.04851638001855 140.99844961194322,214.85619451286038 141.33333333348855,215.04851638001855 141.24961240310222,216.39476838818518 139.74263565894216,216.77941147767706 138.48682170547545,217.83717919129413 137.90077519370243,218.02950047084596 137.3147286819294,218.22182171215536 136.97984496084973,218.22182171215536 136.47751937946305,218.31798231840366 136.14263565884903,218.51030350272777 134.970542635303,218.99110629793722 135.13798449607566,219.47190885589225 135.72403100784868,219.8565507316962 135.72403100784868,219.95271117705852 135.72403100784868,220.04887161270017 135.80775193776935,219.95271117705852 135.389147286769,219.8565507316962 134.88682170538232,220.04887161270017 134.7193798450753,220.14503203879576 134.55193798430264,220.24119245575275 134.4682170539163,220.33735286293086 134.4682170539163,220.33735286293086 134.1333333333023,219.8565507316962 133.96589147299528,219.6642298127408 133.71472868183628,219.37574836343993 133.6310077519156,219.18342734966427 132.7937984499149,218.99110629793722 132.45891472836956,218.99110629793722 132.0403100773692,218.99110629793722 131.62170542636886,218.89494575798744 131.11937984498218,218.89494575798744 130.70077519398183,218.89494575798744 129.86356589151546,218.70262464950792 129.44496124004945,218.60646408086177 129.02635658951476,218.51030350272777 128.6077519375831,218.41414291533874 127.77054263558239,218.22182171215536 127.43565891450271,218.02950047084596 127.01705426350236,217.93333983584307 126.59844961250201,217.74101853754837 126.179844961036,217.54869720136048 125.84496124042198,217.26021512615262 125.09147286834195,216.8755722262431 124.33798449579626,216.4909291745862 123.75193798495457,215.91396431264002 123.33333333302289,215.72164261637954 122.91472868202254,215.52932088187663 122.49612403102219,215.33699910959695 122.07751937955618,215.14467729930766 121.8263565893285,215.04851638001855 121.15658914716914,214.7600335647585 120.82170542655513,214.6638726075762 120.48682170547545,214.56771164073143 120.15193798439577,214.3753896788694 119.73333333339542,214.2792286836193 119.31472868192941,214.18306767899776 118.39379844954237,214.08690666459734 118.05891472892836,213.9907456410001 117.64031007746235,213.8945846076822 117.13798449607566,213.8945846076822 116.80310077499598,213.79842356516747 115.96589147252962,213.7022625132231 115.54728682199493,213.50994038046338 114.79379844944924,212.93297375459224 113.95658914744854,212.64449031359982 113.62170542636886,212.54832914774306 113.20310077536851,212.45216797245666 112.70077519398183,212.3560067875078 112.36589147290215,212.2598455932457 111.9472868219018,212.0675231757341 111.19379844935611,211.68287822772982 110.77519379835576,211.49055569665506 110.44031007727608,211.29823312768713 109.60310077527538,210.81742653943365 109.35193798458204,210.62510383781046 109.01705426350236,210.43278109835228 108.26356589142233,209.95197408314561 107.92868217080832,209.66348976042354 107.5100775193423,209.08652085863287 106.92403100756928,208.41339004185284 105.91937984479591,207.6440971107222 105.91937984479591,207.3556121054571 105.7519379844889,206.87480357283494 105.5844961241819,206.49015657627024 105.33333333348855,205.24005278939148 105.5844961241819,204.75924321386265 105.66821705410257,204.2784334013122 105.7519379844889,203.8937853804091 105.83565891487524,203.60529926529853 105.83565891487524,203.12448888353538 105.83565891487524,201.87438078178093 105.83565891487524,201.00892038783059 106.75658914772794,200.62427107722033 107.42635658942163,200.2396216149209 108.01240310119465,200.0472968267859 108.431007752195,199.95113441854483 108.59844961250201,199.75880957359914 109.77054263558239,199.66264713701094" stroke="#4dd2ff" stroke-linecap="round" stroke-linejoin="round" stroke-width="0.5"><title>2020-12-25 1.0km</title></polyline><polyline fill="none" points="152.54135338333435,205.84176407189807 152.94736842112616,206.23038620653097 153.2857142854482,206.61900814960245 154.03007518779486,207.085354228504 156.9398496239446,207.86259707988938 158.49624060140923,208.32894242287148 159.5112781955395,208.56211499107303 164.24812030047178,210.42749305156758 165.6015037591569,211.3601804264472 167.15789473662153,212.05969523295062 169.45864661643282,212.91465693159262 170.33834586455487,213.0701044133748 171.96240601525642,213.0701044133748 172.90977443591692,213.0701044133748 174.5338345861528,212.759209419135 176.02255639107898,212.6037618756527 177.71428571431898,212.68148565123556 178.66165413544513,212.6037618756527 181.3007518798113,213.0701044133748 182.1804511277005,213.38099928520387 183.8721804509405,213.6918940344476 184.81954887253232,213.61417035851628 186.5112781955395,213.53644667513436 187.25563909788616,213.45872298406903 188.0,213.76961770269554 187.9323308269959,213.84734136302723 187.72932330868207,213.9250650157337 187.66165413544513,214.00278866104782 187.66165413544513,214.08051229838748 187.59398496244103,214.00278866104782 187.45864661666565,214.15823592810193 187.45864661666565,214.00278866104782 187.52631578966975,214.08051229838748 187.59398496244103,214.15823592810193 187.52631578966975,214.08051229838748 187.66165413544513,213.9250650157337 187.59398496244103,213.9250650157337 187.52631578966975,213.9250650157337 187.52631578966975,214.00278866104782 187.52631578966975,213.9250650157337 187.52631578966975,213.9250650157337 187.52631578966975,213.9250650157337 187.52631578966975,214.00278866104782 187.45864661666565,214.00278866104782 187.45864661666565,214.00278866104782 187.3909774434287,214.00278866104782 187.32330827089027,214.00278866104782 187.45864661666565,214.00278866104782 187.45864661666565,214.00278866104782 187.45864661666565,214.00278866104782 187.3909774434287,214.00278866104782 187.3909774434287,214.08051229838748 187.25563909788616,214.00278866104782 185.69924812042154,214.00278866104782 183.9398496239446,214.00278866104782 182.1804511277005,213.61417035851628 181.36842105258256,213.38099928520387 179.67669172910973,212.91465693159262 178.7969924812205,212.759209419135 176.9699248119723,212.759209419135 176.09022556408308,212.68148565123556 174.26315789483488,212.8369331790018 172.36842105258256,213.0701044133748 171.48872180469334,213.0701044133748 169.66165413544513,212.9923806763254 168.71428571408615,212.759209419135 164.4511278194841,211.3601804264472 163.57142857159488,211.04928475728957 161.0676691730041,210.42749305156758 160.3909774434287,210.3497690539807 157.68421052629128,209.88342490670038 156.12781954859383,209.1839081684593 155.2481203007046,208.7175633314764 153.55639097746462,207.7848728292738 152.0,207.2408028601203" stroke="#4dd2ff" stroke-linecap="round" stroke-linejoin="round" stroke-width="0.5"><title>2020-12-08 1.1km</title></polyline><polyline fill="none" points="12.0,246.2891738631879 12.346153846243396,246.35543897852767 14.653846153989434,248.1445946165477 15.403846153989434,248.40965430589858 18.346153846243396,249.2710975743248 19.73076923075132,249.66868640267057 20.423076923238114,249.93374549073633 22.03846153849736,250.53012805699836 23.48076923098415,251.25903936347459 24.23076923098415,251.7228916013264 27.923076923005283,252.98191748996032 28.730769231216982,253.0481819449924 31.03846153849736,252.78312408539932 31.73076923075132,252.7168596040574 35.365384615492076,252.78312408539932 36.115384615259245,252.84938856010558 38.365384615492076,253.5120329479687 40.67307692300528,253.7108261368121 41.365384615492076,253.6445617469144 42.865384615724906,253.7108261368121 45.17307692300528,253.37950412248028 45.865384615259245,253.3132397001027 47.30769230774604,253.18071083561517 48.0,253.11444639367983 47.71153846173547,252.58433062199038 46.096153846010566,252.51806612103246 45.403846153989434,252.58433062199038 43.96153846173547,252.98191748996032 43.44230769248679,253.11444639367983 41.94230769225396,253.445768538455 41.25,253.5120329479687 39.80769230774604,253.5120329479687 39.05769230774604,253.37950412248028 37.615384615259245,253.11444639367983 36.92307692323811,252.91565302817617 34.67307692300528,252.51806612103246 33.92307692323811,252.51806612103246 32.42307692323811,252.58433062199038 31.615384615259245,252.58433062199038 30.115384615492076,252.7168596040574 28.615384615492076,252.78312408539932 27.173076923238114,252.7168596040574 25.78846153873019,252.3855370997917 25.096153846243396,252.1867435189779 23.596153846476227,251.7228916013264 22.903846153989434,251.45783321885392 21.51923076924868,250.99398079805542 19.673076923005283,250.4638633534778 19.153846153756604,250.39759864361258 17.76923076924868,250.06627499568276 15.865384615492076,249.46989201783435 15.346153846243396,249.07230307202553 14.134615384507924,248.40965430589858 13.5,248.07832967775175" stroke="#4dd2ff" stroke-linecap="round" stroke-linejoin="round" stroke-width="0.5"><title>2020-12-03 1.3km</title></polyline><polyline fill="none" points="94.28638497646898,250.94638858520193 94.6032863848377,252.1111647017533 94.66666666674428,252.47515686118277 93.58920187805779,253.13034229603363 91.75117370882072,253.05754394317046 89.21596244117245,252.6207536747679 86.80751173687167,251.60157537698979 85.983568075113,251.45597836223897 81.29342723009177,249.63601325749187 79.58215962420218,249.34481842402602 76.983568075113,249.4176171432482 75.20892018754967,249.34481842402602 73.94131455407478,249.34481842402602 73.18075117352419,249.34481842402602 71.46948356810026,249.19922096451046 70.89906103280373,249.12642222410068 68.934272300452,248.9808247210458 68.1737089199014,248.90802595904097 65.51173708913848,248.68962962954538 64.68779342691414,248.5440320406342 63.03990610339679,248.39843442296842 60.88497652602382,247.4520492083393 60.06103286379948,247.16085351374932 58.66666666674428,246.86965770390816 60.251173708820716,247.23365244816523 61.64553990610875,247.88884253508877 63.03990610339679,248.5440320406342 63.863849765155464,248.61683083855314 65.95539906132035,248.83522718958557 66.58920187782496,248.90802595904097 68.23708920180798,249.0536234761239 69.06103286356665,249.12642222410068 70.77230046945624,249.12642222410068 71.532863849774,249.19922096451046 73.24413145543076,249.34481842402602 74.00469483551569,249.34481842402602 76.34976525814272,249.4176171432482 77.11032863846049,249.4176171432482 78.25117370882072,249.2720196978771 78.63145539909601,249.2720196978771 78.88497652579099,249.2720196978771 79.13849765248597,249.2720196978771 79.39201877918094,249.2720196978771 79.7089201877825,249.19922096451046 80.02582159615122,249.19922096451046 80.65962441288866,249.2720196978771 80.91314553981647,249.2720196978771 81.483568075113,249.49041585507803 82.0539906101767,249.7816106308601 81.99061032873578,249.92720797570655 81.99061032873578,250.00000663724495 81.92723004682921,250.00000663724495" stroke="#4dd2ff" stroke-linecap="round" stroke-linejoin="round" stroke-width="0.5"><title>2020-11-30 1.0km</title></polyline></svg>