<?xml version="1.0" encoding="utf-8" ?>
<svg baseProfile="full" height="300mm" version="1.1" viewBox="0,0,200,300" width="200mm" xmlns="http://www.w3.org/2000/svg" xmlns:ev="http://www.w3.org/2001/xml-events" xmlns:xlink="http://www.w3.org/1999/xlink"><defs /><rect fill="#222222" height="300" width="200" x="0" y="0" /><text fill="#FFFFFF" style="font-size:12px; font-family:Arial; font-weight:bold;" x="10" y="20">Over 3km Runs</text><text fill="#FFFFFF" style="font-size:4px; font-family:Arial" x="10" y="280">ATHLETE</text><text fill="#FFFFFF" style="font-size:9px; font-family:Arial" x="10" y="290">jdzj</text><text fill="#FFFFFF" style="font-size:4px; font-family:Arial" x="120" y="280">STATISTICS</text><text fill="#FFFFFF" style="font-size:3px; font-family:Arial" x="120" y="285">Number: 51</text><text fill="#FFFFFF" style="font-size:3px; font-family:Arial" x="120" y="290">Weekly: 3.2</text><text fill="#FFFFFF" style="font-size:3px; font-family:Arial" x="141" y="285">Total: 93.2 km</text><text fill="#FFFFFF" style="font-size:3px; font-family:Arial" x="141" y="290">Avg: 1.8 km</text><text fill="#FFFFFF" style="font-size:3px; font-family:Arial" x="167" y="285">Min: 1.0 km</text><text fill="#FFFFFF" style="font-size:3px; font-family:Arial" x="167" y="290">Max: 4.9 km</text><polyline fill="none" points="35.33333333325572,44.9737314604281 34.85110767651349,45.52762883825926 24.538897475460544,42.24684170738328 17.453889747615904,42.45988058921648 16.86038124677725,43.013781190267764 12.26069036568515,41.39468512948952 11.333333333255723,41.43729299833649 11.370427614776418,41.90597927791532 12.223596084630117,41.139037828397704 17.379701185040176,43.269427381892456 26.727460072143003,43.56768108109827" stroke="#4dd2ff" stroke-linecap="round" stroke-linejoin="round" stroke-width="0.5"><title>2021-05-31 1.1km</title></polyline><polyline fill="none" points="55.14109901478514,54.440328362514265 55.62667306349613,50.477601754595526 56.45214894670062,51.0915471353801 59.462708049220964,50.477601754595526 60.48241355153732,49.361335714464076 61.2593320296146,46.068338029959705 63.05595601024106,46.738101827853825 61.98769310279749,46.291592717694584 62.52182455663569,45.51020092476392 62.4247097466141,46.84972905018367 62.52182455663569,45.45438718376681 62.47326715150848,47.5194919204223 60.919430195353925,45.95671065308852 65.87228549318388,48.6915750305634 60.82231538579799,46.7939154417254 62.036250507691875,46.23577905423008 61.40500424429774,44.39392505749129 60.919430195353925,47.128797009412665 62.4247097466141,45.733455833105836 61.89057829300873,44.84043566940818 63.25018562981859,46.84972905018367 63.88143189321272,46.570660953002516 62.08480791258626,47.4078648306313 60.43385614664294,46.62647458357969 62.81316898600198,46.40322002826724 61.162217220058665,46.01252434437629 59.94828209793195,49.9752823098097 55.286771229468286,50.756667919573374 55.43244344415143,52.877566263021436 53.49014724884182,54.38451550499303 53.587262058397755,55.33333333331393 54.31562313181348,54.27288977307035 52.179097316926345,48.468321292544715 42.12771450681612,31.33333333331393" stroke="#4dd2ff" stroke-linecap="round" stroke-linejoin="round" stroke-width="0.5"><title>2021-05-30 1.4km</title></polyline><polyline fill="none" points="73.53817504644394,40.96551096744952 76.99068901292048,42.9290779500152 83.29236499068793,45.277645094756735 86.20856610802002,45.00813810728141 89.89571694598999,45.701155699265655 96.09683426446281,44.77713196989498 96.66666666662786,44.31511928513646 96.02979515818879,44.81563300231937 90.13035381748341,45.470149971952196 81.91806331463158,44.93113607677515 76.45437616389245,43.468094609561376 72.66666666662786,41.50453033836675" stroke="#4dd2ff" stroke-linecap="round" stroke-linejoin="round" stroke-width="0.5"><title>2021-05-27 1.4km</title></polyline><polyline fill="none" points="127.33333333325572,45.05927781277569 124.32811594195664,44.91544991481351 118.23420289857313,42.61419775846298 109.00985507271253,42.27859757540864 103.33333333325572,40.744422359217424 106.83942028996535,42.08682593819685 116.3142028984148,42.94979770982172 126.08115942007862,45.92224430743954 126.87420289847068,45.682531545870006" stroke="#4dd2ff" stroke-linecap="round" stroke-linejoin="round" stroke-width="0.5"><title>2021-05-25 1.1km</title></polyline><polyline fill="none" points="134.66082603263203,41.383988208166556 135.80225281603634,42.31553761687246 139.61702127649914,42.66055528682773 143.40175219031516,44.83415878310916 147.93742177716922,44.66165106242988 150.49061326659285,45.07566944899736 155.83729662070982,44.31663536615088 158.0,43.247084544884274 158.0,44.04062256391626 149.4693366708234,45.28267845851951 146.22528160200454,44.73065416098689 143.3416770963231,44.97216489829589 137.6345431789523,43.592101296118926 134.0,41.970519606547896" stroke="#4dd2ff" stroke-linecap="round" stroke-linejoin="round" stroke-width="0.5"><title>2021-05-24 1.6km</title></polyline><polyline fill="none" points="174.01550387591124,42.71228242554935 179.59689922467805,42.872554820933146 179.59689922467805,43.55371179623762 183.15503875969443,45.15642958608805 188.66666666662786,44.63554699791712 183.05038759682793,45.19649744979688 179.0736434108112,44.51534322890802 174.92248061997816,44.715682824200485 164.66666666662786,41.47016921688919" stroke="#4dd2ff" stroke-linecap="round" stroke-linejoin="round" stroke-width="0.5"><title>2021-05-21 1.1km</title></polyline><polyline fill="none" points="25.720774050452746,82.0 26.576388642773964,81.17572324647335 26.300383935682476,80.35144437898998 26.741991467075422,76.51534953134251 28.398019710322842,75.94468688164488 28.756825829739682,75.0886910072004 30.744059721706435,75.56424455222441 34.828929388313554,74.99358021377702 34.69092703447677,73.15476600831607 33.31090349855367,70.17459650547244 30.550856426591054,66.30667572937091 28.5636225346243,64.43610717827687 25.38956840184983,62.565527739119716 20.890691674430855,61.93143054304528 19.23466343129985,61.265627140470315 16.80582200794015,61.61438147575245 13.7697702285368,59.80719581944868 13.190160343539901,58.0 11.837737278314307,58.475578832498286 11.92053869040683,59.49014465638902" stroke="#4dd2ff" stroke-linecap="round" stroke-linejoin="round" stroke-width="0.5"><title>2021-05-20 1.7km</title></polyline><polyline fill="none" points="42.115384615492076,67.94570635765558 42.0,65.49377304199152 47.134615384740755,64.56601215660339 65.5961538462434,64.96362412156304 66.0,73.976098875748 64.9038461537566,74.77131143194856 55.55769230774604,73.976098875748 54.403846153989434,74.77131143194856 47.30769230774604,75.43398784339661 43.21153846173547,74.83757910266286 42.28846153849736,74.04236662463518 42.28846153849736,67.1504857223481" stroke="#4dd2ff" stroke-linecap="round" stroke-linejoin="round" stroke-width="0.5"><title>2021-05-18 1.1km</title></polyline><polyline fill="none" points="72.66666666662786,70.81656326903612 73.60035366914235,71.69402655756858 78.16268788673915,73.61956007643312 81.02740937215276,73.54643882444361 82.95844385493547,73.98516601187293 86.29000884166453,73.59518632819527 89.96109637490008,72.52273902489105 91.00088417320512,71.88901797631115 92.67727674625348,70.71906715576188 96.66666666662786,66.79481666500214 96.03006189211737,66.01483398814162 94.45977011485957,67.23355583875673 85.27144120249432,68.2329032713169 83.93457117583603,67.86728882577154 76.6984969052719,67.64791989880905 76.31653404049575,68.25727754842956 76.40141467715148,68.01353466892033 75.9770114942221,68.18415470984473 75.53138815192506,69.1103757336241 74.87356321827974,69.3784916978766 72.96374889474828,68.9885047445714 72.68788682564627,68.47664593446825" stroke="#4dd2ff" stroke-linecap="round" stroke-linejoin="round" stroke-width="0.5"><title>2021-05-10 2.5km</title></polyline><polyline fill="none" points="127.33333333337214,77.66416742117144 127.21383125870489,76.97784573436365 126.39723374845926,76.1313795237511 125.10262793919537,76.7719488323055 124.44536652846728,76.56605174747529 124.405532503617,75.92548187026114 124.84370677743573,75.19339984432736 124.68437067780178,73.15728455914359 124.20636237901635,72.47094953607302 121.67690179811325,73.24879574213992 119.98395573999733,73.06577334013127 119.92420470272191,72.53958312976465 115.54246196406893,72.60821670321457 113.25200553250033,72.24217074367334 109.5872752420837,72.90562861990475 106.97814661148004,72.97426208495745 104.90677731682081,72.51670526748057 103.33333333337214,69.79422353924019 105.62378976494074,68.14699218583701 106.63955739978701,67.02595304638089 108.73084370687138,65.95066551478521 108.98976486863103,65.1727948308253 111.20055325038265,64.1890134645073 113.33167358243372,62.724773004927556 112.47524204710498,63.6856818493834 110.10511756583583,64.71522262143844 107.87441217154264,62.74765183319687 106.46030428772792,62.33583257882856" stroke="#4dd2ff" stroke-linecap="round" stroke-linejoin="round" stroke-width="0.5"><title>2021-05-08 2.6km</title></polyline><polyline fill="none" points="158.0,65.84912781661842 157.8428805237636,67.51851242731209 153.12929623550735,67.78922287124442 152.42225859244354,69.09765442466596 145.1554828148801,67.42827557717101 141.38461538450792,67.74410447510309 140.00981996720657,68.51111660496099 134.6677577740047,67.33803870904376 134.0,68.42087995051406 139.57774140732363,70.40608223580057 147.66939443536103,71.21820796022075 157.8428805237636,74.15087218341068" stroke="#4dd2ff" stroke-linecap="round" stroke-linejoin="round" stroke-width="0.5"><title>2021-05-08 1.3km</title></polyline><polyline fill="none" points="188.66666666662786,69.59783373813843 188.06189213087782,69.92688456462929 184.49690539354924,68.61067950617871 183.92396109644324,69.12253758427687 180.29531388147734,67.73320687070373 177.93987621576525,68.83004734042333 172.81520778068807,69.15909884838038 169.53669319185428,68.09882072126493 166.22634836426005,68.68380213199998 165.08045976993162,68.50099554032204 164.66666666662786,67.91601384110982 169.9823165339185,68.13538208653335 173.10167992929928,69.52471129255719 178.194518125616,69.3784663581755 188.4756852344144,72.26679312932538" stroke="#4dd2ff" stroke-linecap="round" stroke-linejoin="round" stroke-width="0.5"><title>2021-05-07 1.5km</title></polyline><polyline fill="none" points="11.444102563895285,101.27570189113612 11.333333333255723,100.63851447112393 13.105641025584191,100.04380535610835 13.844102564034984,98.25967305153608 23.11179487174377,92.73731162154581 26.065641025546938,93.5869103273144 26.767179487040266,94.52146695493138 27.61641025636345,92.43995167588582 27.284102563979104,92.0576314421487 27.284102563979104,93.50195053263451 27.099487179424614,93.0346713605104 26.397948717931286,94.64890633703908 27.32102564093657,93.5869103273144 26.43487179465592,94.52146695493138 26.914871794637293,92.94971145619638 26.582564102485776,94.60642654719413 27.394871794851497,93.88426947579137 28.908717948710546,94.13914858130738 31.161025640787557,93.33203089277958 33.22871794854291,93.4169907210744 35.33333333325572,94.64890633703908 33.9671794869937,93.7143499875674 32.305641025537625,93.50195053263451 28.42871794849634,94.43650734590483 26.508717948570848,93.20459111846867" stroke="#4dd2ff" stroke-linecap="round" stroke-linejoin="round" stroke-width="0.5"><title>2021-05-06 1.2km</title></polyline><polyline fill="none" points="47.988657844951376,98.85580834455322 49.032136105932295,96.6146635991172 56.47258979198523,91.08994058187818 59.603024574695155,87.75423077639425 63.731568998191506,85.56515976542141 65.31947069941089,87.07666214735946 66.0,102.45204399089562 65.13799621909857,97.86553625762463 52.66162570891902,104.69316396443173 49.39508506609127,101.56601719203172 43.27032136102207,104.9016397576197 42.0,107.03851189225679 43.315689981216565,107.76817356795073 47.217391304438934,104.11985510902014 48.66918714554049,100.7842276057927 47.85255198483355,99.58548132551368" stroke="#4dd2ff" stroke-linecap="round" stroke-linejoin="round" stroke-width="0.5"><title>2021-05-06 1.8km</title></polyline><polyline fill="none" points="87.20452567446046,92.95452882733662 89.36640556994826,92.30262820480857 89.58572671888396,91.61450959285139 87.07919930375647,90.6004376479541 87.39251523057465,90.67287145371665 87.01653611834627,91.07125712258858 88.86510008701589,91.79559356640675 90.49434290686622,91.54207597786444 89.96170583111234,93.8961609636026 91.59094865096267,92.99074549373472 91.52828546555247,93.67886145980447 92.18624891212676,93.64264486293541 94.63011314184405,95.59833584629814 96.41601392498706,95.99671603288152 96.44734551780857,97.01077268848894 95.88337684934959,97.807529473881 96.66666666662786,101.42912887225975 96.00870322016999,102.73289568538894 78.58833768498152,100.6685960382456 73.73194081801921,101.32048142352141 72.66666666662786,102.11722861544695 73.41862489120103,101.35669724352192" stroke="#4dd2ff" stroke-linecap="round" stroke-linejoin="round" stroke-width="0.5"><title>2021-05-02 1.6km</title></polyline><polyline fill="none" points="110.68523206748068,90.94045981910313 112.38649789011106,91.64307025959715 114.4523206751328,89.88654282281641 122.65485232044011,88.55157899385085 126.30042194086127,90.02706518152263 127.33333333325572,92.48620184866013 126.05738396639936,99.51225854584482 115.72827004198916,103.16577988734934 104.06244725710712,104.78175433946308 103.33333333325572,103.58733880321961 108.3763713077642,89.11366934044054" stroke="#4dd2ff" stroke-linecap="round" stroke-linejoin="round" stroke-width="0.5"><title>2021-05-01 1.0km</title></polyline><polyline fill="none" points="145.44851598655805,95.6812844161177 143.99460358684883,98.00012429011986 141.83880244311877,93.53634916536976 141.9390722636599,91.91314957605209 143.6937941252254,89.18848276976496 146.4512141929008,88.02904615050647 153.57037145923823,88.1449899179861 157.7315690163523,84.66666666668607 152.4674034321215,88.3768773828051 140.08408058155328,86.69569113344187 139.03124746470712,87.21743911877275 136.9757161415182,91.62329202197725 136.27382739679888,102.40589415928116 135.42153392150067,105.18846817588201 134.41883571469225,105.59425908932462 134.26843098388053,108.66666666668607 135.07058954890817,108.26087793230545 135.42153392150067,106.3478700221749 136.77517649997026,91.27546276326757 138.58003327180631,89.47834155743476 139.33205692656338,89.94211531220935" stroke="#4dd2ff" stroke-linecap="round" stroke-linejoin="round" stroke-width="0.5"><title>2021-05-01 1.8km</title></polyline><polyline fill="none" points="184.97912631806685,94.48648330893775 184.14245749951806,94.6288651402865 182.77899720252026,95.60773718902783 181.121153432352,95.53654667368392 180.82676995912334,95.89249896959518 180.87325156020233,95.55434430517198 179.7576931354124,95.92809416056843 177.1237357435166,95.58993956280756 175.57434904243564,95.76791574592062 175.10953303216957,95.51874904047872 173.42070152790984,95.83910616995126 169.60921024321578,95.92809416056843 165.81321282550925,95.53654667368392 164.66666666668607,96.51541379750415 164.74413600174012,96.85356666057487 169.2063697008998,97.7256421718921 169.68667957826983,97.58326278449385 170.5698299978976,98.04599538269395 172.9248977835523,98.08159014878038 174.3968151495792,98.6511054510629 175.0320636969991,98.45533476870332 176.7054013342131,98.84687592108094 177.1237357435166,99.16722714100615 178.16182483325247,99.29180801736948 178.4407144394354,99.07824074810196 179.19991392298834,99.43418605648912 180.14503981062444,99.27401075461239 181.72541424573865,99.7367390164145 181.86485904885922,99.30960527842399 182.20572412316687,99.27401075461239 182.84097267052857,99.61215844728576 183.0578868087032,99.09603803018399 183.98751882940996,98.59771346789785 185.10307725414168,97.47647817019606 186.34258661506465,96.99594662380696 186.9933290295303,96.21285543544218 188.07789972028695,95.87470137150376 188.66666666668607,95.0560099601862 188.35678932646988,94.11273046693532 187.87647944915807,93.59659431692853 186.9003658274305,94.2195170722407 185.41295459435787,94.13052823889302 185.3199913923745,94.70005601385492 183.2283193457988,95.7323205233406 183.66214762214804,96.14166515885154 183.9565310953185,95.94589175339206 184.9636324510211,96.71118658498744 185.80030126974452,96.58660392665479 185.86227673769463,96.37303345504915" stroke="#4dd2ff" stroke-linecap="round" stroke-linejoin="round" stroke-width="0.5"><title>2021-04-30 3.7km</title></polyline><polyline fill="none" points="35.14375987346284,121.7655411400192 33.627172195585445,123.94304101192392 32.79304897272959,124.0736906628299 24.52764612948522,121.80909124275786 17.172195892315358,121.7655411400192 18.157977883005515,122.59299235630897 11.333333333255723,120.54613652112312 16.793048972729594,122.46234226727393 25.513428119709715,123.28979217782035 34.49921011016704,126.12053014556295 35.33333333325572,125.9463314099412 34.19589257496409,125.55438400385901" stroke="#4dd2ff" stroke-linecap="round" stroke-linejoin="round" stroke-width="0.5"><title>2021-04-29 1.4km</title></polyline><polyline fill="none" points="51.22285714291502,122.74271058212616 53.177142857108265,121.20664165564813 52.49142857140396,119.98565957395476 53.69142857124098,119.5917935896141 61.885714285541326,111.7537796695542 62.84571428562049,111.63561747793574 66.0,115.25924210780067 61.988571428344585,117.85877864068607 62.43428571417462,117.89816542746848 59.93142857111525,120.6158443405875 60.994285714114085,120.22197897810838 61.23428571422119,119.31608716922347 60.03428571415134,120.30075208164635 54.30857142840978,127.23272431871737 50.434285714291036,129.5170978869719 47.79428571416065,131.84084379288834 47.622857142821886,133.33748653618386 45.46285714278929,135.03104918872123 43.68000000005122,134.12519098928897 42.0,131.72268754788092 42.13714285707101,129.39894095412455 44.50285714282654,128.29614122700877 45.35999999998603,126.9570231763937 47.72571428574156,125.93298869460705 48.17142857145518,124.9089515855303 49.33714285714086,124.2393874397967 49.67999999993481,123.057800913346 50.57142857136205,122.38823366226279 51.56571428559255,122.62455164387939 51.77142857131548,121.87621088884771" stroke="#4dd2ff" stroke-linecap="round" stroke-linejoin="round" stroke-width="0.5"><title>2021-04-26 2.2km</title></polyline><polyline fill="none" points="86.82635468326043,131.0928693386668 87.48080559750088,130.1906353427621 88.23996865772642,120.7170170735335 90.80541624128819,111.33333333334303 88.44939295039512,120.56663980529993 86.59075235412456,121.43882692803163 83.8944145879941,121.258374624711 81.0933646755293,121.67942983278772 79.62739462789614,122.58168903342448 78.6064512017183,124.02529819656047 78.52791709208395,132.86725507015944 79.7059287376469,135.032593150303 80.49126983445603,135.33333333334303 81.01483056577854,135.0626671819482 83.84205851494335,132.68680953557487 84.81064586772118,133.34844264006824 85.75305518414825,132.6567352693819 85.93630144000053,131.874803307408" stroke="#4dd2ff" stroke-linecap="round" stroke-linejoin="round" stroke-width="0.5"><title>2021-04-25 2.2km</title></polyline><polyline fill="none" points="116.26070115517359,135.33333333334303 115.55297308065929,130.06247907713987 115.94344374258071,127.06253430945799 115.55297308065929,121.48311351571465 115.91903932613786,111.75391153933015 115.626186329755,111.33333333334303 115.01607592066284,111.75391153933015 114.40596551157068,121.67937640851596 114.65000967518426,131.43627498258138 115.626186329755,131.71664067762322 115.6993995787343,131.46431156454491 115.82142166071571,126.67001582760713 115.50416424789,130.39891950503807" stroke="#4dd2ff" stroke-linecap="round" stroke-linejoin="round" stroke-width="0.5"><title>2021-04-18 2.2km</title></polyline><polyline fill="none" points="158.0,126.74959742717328 153.70200573059265,126.31516268939595 140.70487106021028,122.40522883983795 134.96275071625132,121.85230582038639 134.0,121.22039286309155 140.84240687673446,121.14140367342043 142.35530085966457,119.91706923948368 145.31232091679703,121.2598874521791" stroke="#4dd2ff" stroke-linecap="round" stroke-linejoin="round" stroke-width="0.5"><title>2021-04-16 1.0km</title></polyline><polyline fill="none" points="188.66666666668607,125.258173733906 187.96373779635178,125.44560769003874 187.6750348675414,124.8544690120325 187.17294281732757,124.65261623299739 186.53277545323363,124.81121486851771 186.3068340306636,124.62378009888926 185.99302649928723,124.1912374056119 186.54532775451662,123.21080256221467 186.35704323567916,122.48989039367007 185.98047419806244,122.3312892394897 183.055788005644,122.53314522409346 180.55788005579961,122.31687094418157 179.3403068340849,122.60523657960584 178.8256624825881,122.40338069452264 177.9972105997731,122.48989039367007 177.79637377971085,122.31687094418157 176.16457461647224,122.5043086718797 175.58716875873506,122.3024526474619 174.92189679224975,122.48989039367007 174.25662482570624,122.21594283737068 172.85076708509587,122.47547211406345 171.69595536962152,122.01408641473972 170.74198047426762,122.12943297611491 170.202231520263,121.4661890052812 169.22315202234313,121.52386251348071 168.33193863322958,121.24991314669023 167.96792189683765,121.42293385913945 167.46582984662382,120.93270797524019 166.72524407255696,121.19223953034088 165.64574616460595,120.8317789126886 165.0181311018532,121.16340271368972 165.4574616458267,120.84619735444721 165.55788005579961,121.33642352849711 164.66666666668607,121.29316834399651 165.41980474203592,121.01921854482498 165.055788005644,121.10572906320158 165.4449093445437,121.07689222943736 165.13110181316733,121.20665793657827 165.33193863322958,121.42293385913945 165.11854951188434,121.24991314669023 165.41980474203592,121.14898430314497 165.33193863322958,120.99038169397681 165.08089260815177,121.07689222943736 165.1687587168999,121.29316834399651 165.55788005579961,121.1345658912469 165.36959553702036,121.0624738103943 165.34449093451258,121.26433154719416 165.4449093445437,121.00480012013577 165.30683403078,121.26433154719416 165.39470013946993,121.0624738103943 165.4574616458267,121.22107634136046 165.26917712698923,120.7020128727163 165.38214783830335,121.07689222943736 165.3193863319466,120.8317789126886 165.34449093451258,121.07689222943736 165.09344490937656,120.88945267126837 165.1813110181829,120.7596866824606 165.26917712698923,120.88945267126837 165.08089260815177,120.96154483746795 165.33193863322958,121.09131064701069 165.13110181316733,120.97596326643543 165.36959553702036,120.7596866824606 165.1938633194659,121.0624738103943 164.99302649934543,121.0624738103943 165.1938633194659,120.68759441671136 165.00557880057022,120.81736046950391 165.30683403078,121.07689222943736 165.09344490937656,120.94712640704529 165.13110181316733,121.07689222943736 165.1938633194659,120.96154483746795 165.25662482570624,121.56711762974737 165.13110181316733,122.92243812148809 166.34867503488204,123.18196614374756 166.44909344497137,123.41265733224282 167.54114365420537,123.3117299820733 168.1687587169581,123.54242096579401 173.17712691775523,123.75869343239174 178.1227336123702,124.39309082175896 180.49511854950106,124.47959934335086 181.5495118550025,124.71028848398419 182.7670850767754,125.33026374550536 184.6750348674832,125.1139936040563 184.87587168760365,125.46002567674441 185.13947001396446,125.34468174354697 186.93444909347454,125.71954919371638 187.2482566248509,125.97907224996015 187.8131101813633,125.84931077943475 187.98884239891777,125.31584574600856 188.4909344491316,125.1139936040563" stroke="#4dd2ff" stroke-linecap="round" stroke-linejoin="round" stroke-width="0.5"><title>2021-04-09 4.9km</title></polyline><polyline fill="none" points="34.84886128385551,151.28418785930262 27.320910973241553,149.10107872981462 26.46376811619848,148.28776075641508 21.17184265027754,148.71582303778268 17.333333333488554,148.33056700360612 18.041407867567614,148.75862924274406 17.706004140898585,148.9298540200689 11.333333333255723,147.47444125884795 16.625258799176663,149.0582725587592 24.22774327127263,149.70036468244507 34.774327122140676,152.52555874118116 33.358178053982556,151.96908257799805 35.33333333325572,151.71224718517624 34.81159420288168,151.0701580379682" stroke="#4dd2ff" stroke-linecap="round" stroke-linejoin="round" stroke-width="0.5"><title>2021-04-09 1.4km</title></polyline><polyline fill="none" points="42.9545454547042,148.66865551209776 44.11363636376336,149.64759621821577 52.500000000116415,152.85850479229703 56.21590909094084,152.70187570818234 59.4545454547042,153.36754888881114 65.45454545482062,152.70187570818234 66.0,152.03620141156716 63.5795454547042,151.40968340693507 60.68181818188168,151.9970440652105 57.68181818188168,150.86147934186738 55.19318181835115,151.05726659490028 50.96590909094084,148.90360150163178 50.42045454564504,147.8855012091226 48.000000000116415,146.94571400637506 46.15909090929199,146.63245111115975 42.0,147.65055461696465" stroke="#4dd2ff" stroke-linecap="round" stroke-linejoin="round" stroke-width="0.5"><title>2021-04-08 1.4km</title></polyline><polyline fill="none" points="96.51082251092885,151.00244514914812 96.66666666662786,151.82587624323787 94.64069264079444,151.86167755286442 89.27965367969591,150.03580626379699 81.17575757578015,149.64198968347046 76.90562770562246,148.13832244710648 72.66666666662786,148.78275202546502 76.68744588736445,148.31733077811077 80.95757575752214,149.6061881550413 88.90562770573888,149.96420328097884" stroke="#4dd2ff" stroke-linecap="round" stroke-linejoin="round" stroke-width="0.5"><title>2021-04-06 1.3km</title></polyline><polyline fill="none" points="110.66267465054989,146.39624078094494 113.6806387223769,145.45370274817105 114.92614770447835,146.45168414380169 114.92614770447835,147.50510696839774 114.11177644715644,147.9486528118141 115.54890219541267,149.50106042221887 117.03393213544041,149.66738954698667 118.9500998002477,148.7803002956789 121.10578842298128,146.06358048476977 123.02195608778857,146.78434420307167 124.60279441112652,145.8418068413157 127.2854291414842,146.17446727264905 127.2854291414842,142.79241009487305 126.99800399201922,144.84382432926213 125.41716566868126,144.5666066405829 127.33333333325572,144.89926785015268 127.23752494994551,146.34079741226742 123.11776447086595,146.72890087385895 121.10578842298128,146.00813708244823 117.84830339322798,150.11093363136752 118.6147704590112,149.44561736949254 115.02195608778857,149.39017431106186 114.30339321331121,148.17042559827678 115.3572854292579,148.17042559827678 115.26147704594769,147.61599346302683 114.01596806384623,145.39825928362552 113.48902195575647,146.17446727264905 112.43512974050827,146.06358048476977 111.0938123750966,148.94662964023883 106.63872255454771,151.27523513574852 105.20159680629149,153.93648638034938 105.00998003967106,151.88510636007413 104.62674650666304,154.49091208801838 104.29141716542654,153.27117478707805 104.62674650666304,154.10281415190548 104.33932135696523,153.3820601090556 106.30339321354404,154.3800269915955 107.88423153664917,156.76405159430578 109.94411177630536,156.59772463486297 110.51896207570098,155.43343449680833 109.27345309359953,154.8790097478195 110.37524950085208,154.8790097478195 109.84830339299515,155.54431937914342 109.36926147667691,155.10077971516876 109.94411177630536,155.76608907571062 110.08782435115427,155.21166466496652 110.32734530931339,156.4868399669067 109.51297405152582,157.20758990512695 106.87824351270683,156.9858207948855 104.43512974004261,154.10281415190548 104.86626746482216,151.60789225180633 105.15369261451997,153.60383068514057 103.33333333325572,154.6572396902484 103.86027944111265,153.77015855815262 103.52495009964332,154.8790097478195 104.86626746482216,153.93648638034938 105.05788423144259,151.4970065690577" stroke="#4dd2ff" stroke-linecap="round" stroke-linejoin="round" stroke-width="0.5"><title>2021-04-05 1.9km</title></polyline><polyline fill="none" points="152.87448416440748,156.3141429991374 151.93333454674575,156.78796972653072 152.30161048402078,156.2193775377673 152.95632326160558,156.2193775377673 153.09954168170225,155.8166238960548 152.36298980691936,160.19949365968932 150.78758718597237,161.3366571808583 150.70574808865786,162.0 150.6443687658757,161.3366571808583 152.42436912981793,160.27056654269109 153.01770258450415,157.94884112779982 153.42689807049464,154.252985498606 152.4039093555184,153.5185456519248 150.19425373128615,153.11578733165516 148.88482817611657,154.13452761576627 146.14321842009667,154.9163485273166 141.15103349112906,157.92514993262012 140.25080342194997,156.47998246355564 139.20735493279062,156.93011755643238 138.71632034960203,156.74058709722885 135.85195194766857,144.44446839395096 135.68827375338878,142.19366333822836 137.14091772853862,148.7801682912832 137.59103276312817,148.96970523995697 142.8491947578732,146.57678992376896 146.90023006906267,145.27370686849463 149.43724208220374,143.85215338683338 152.99724281020463,140.98532742344833 155.10459956305567,138.0 156.31172624661122,138.61602308394504 156.16850782651454,138.80556831977447 155.67747324332595,138.63971624686383 155.9639100835193,138.40278450888582 155.9639100835193,138.781875173765 156.08666872931644,138.14215931814397 155.3910364031326,138.35539813223295" stroke="#4dd2ff" stroke-linecap="round" stroke-linejoin="round" stroke-width="0.5"><title>2021-04-05 3.7km</title></polyline><polyline fill="none" points="170.72274143295363,141.29813022224698 174.53582554496825,144.32865777704865 177.67601246153936,153.07383381132968 177.75077881617472,157.48968056665035 179.47040498442948,157.1433404745767 181.19003115268424,158.70186977775302 185.07788162026554,155.84456387074897 188.66666666651145,156.7970002408838 181.33956386288628,155.065296954941 181.33956386288628,157.9226054835599 181.71339563885704,153.93968792574015 181.56386292818934,158.09577538858866 181.7881619934924,156.71041516057448 178.79750778805465,157.31651053833775 180.81619937717915,156.01773419929668 181.86292834905908,157.9226054835599 179.9937694701366,156.71041516057448 181.33956386288628,156.36407475045417 181.0404984424822,158.00919044035254 181.86292834905908,158.00919044035254 180.89096573228016,156.27748962573241 182.61059190006927,158.44211509259185 180.89096573228016,156.88358531240374 181.0404984424822,155.4982231075992 182.3115264796652,157.48968056665035 181.11526479758322,155.58480831148336 179.09657320892438,155.4982231075992 178.19937694678083,157.7494355433737 178.42367601254955,156.62383007141761 174.61059190053493,153.76651717355708 176.10591900302097,148.22503445867915 174.61059190053493,148.83113589161076 174.68535825563595,146.57989981793799 170.27414330188185,144.15548506524647 164.66666666651145,144.6750030948897 167.8068535826169,145.8006244021817 168.85358255449682,148.74454999895534" stroke="#4dd2ff" stroke-linecap="round" stroke-linejoin="round" stroke-width="0.5"><title>2021-04-04 1.4km</title></polyline><polyline fill="none" points="26.14897579117678,165.92331384605495 18.707635009195656,169.31194172642427 11.534450651612133,177.6294205042068 18.305400372482836,185.0996731024934 22.26070763496682,180.6329327217536 26.886405959026888,178.70760570722632 27.020484171342105,176.16616677481215 31.310986964497715,173.00860990548972 25.009310986846685,164.99914005200844 19.713221601443365,168.54180031851865 11.333333333255723,178.09150005935226 18.17132215993479,184.25253465009155 22.193668528692797,179.55475017882418 28.76350093097426,178.4765661461861 30.707635009428486,177.0133140052203 31.713221601443365,173.16263736621477 31.445065176812932,172.4695135531365 30.640595903387293,174.009787856834 28.294227187987417,175.16499158990337 28.227188081946224,174.47186955524376 35.33333333325572,169.77402620657813 32.718808193691075,168.38777194573777 29.97020484157838,164.99914005200844 28.428305400069803,167.54061535175424 23.735567970201373,165.53824156482005 14.484171321848407,173.85576056333957 11.601489757420495,177.93747357139364 18.305400372482836,184.25253465009155 22.26070763496682,180.093841636437 22.86405959026888,180.5559197324328 21.188081936445087,182.8663061078987 30.37243947852403,184.79162286262726 33.322160149225965,188.3341932813637 27.087523277150467,176.9363006585627 27.75791433895938,174.85693742817966 31.042830540100113,172.08444450248498 27.422718808054924,169.85104025981855 25.411545623792335,166.0003282794496 24.003724394831806,165.4612270858488 22.797020483994856,166.30838593712542 23.400372439529747,166.8474865454482" stroke="#4dd2ff" stroke-linecap="round" stroke-linejoin="round" stroke-width="0.5"><title>2021-04-02 3.1km</title></polyline><polyline fill="none" points="56.72340425522998,185.9416271655209 53.914893617038615,184.96406437354744 48.617021276499145,184.86630788222828 42.87234042561613,184.10869376675691 42.38297872338444,183.64434848650126 42.0,181.32260903154383 42.55319148930721,180.882698051646 43.702127659576945,180.83381900558015 42.65957446815446,177.58334080473287 42.914893617038615,173.18412945981254 44.510638297884725,170.91117299090547 45.148936170269735,169.3714164375997 48.19148936169222,167.26951109002403 49.42553191492334,168.61375493775995 50.57446808507666,168.85816212632926 51.17021276592277,169.56694160972256 53.680851063807495,169.56694160972256 57.55319148930721,170.17795677811955 59.425531914806925,171.15557791299943 62.53191489353776,173.91733677549928 65.46808510622941,179.00084782007616 65.55319148930721,179.66071900905808 64.8723404253833,180.2472697016492 64.59574468084611,181.17597212498367 65.1914893615758,181.1515326321387 66.0,183.22888091907953 65.46808510622941,184.3286464905832 63.617021276499145,184.67079478390224 63.170212765806355,185.23289452583413 62.127659574267454,184.71967307289015 61.680851063807495,184.91518613271182 60.57446808507666,184.5730381768808 60.042553191422485,186.063822243319 59.872340425499715,185.89274911752727" stroke="#4dd2ff" stroke-linecap="round" stroke-linejoin="round" stroke-width="0.5"><title>2021-04-02 3.2km</title></polyline><polyline fill="none" points="75.18125552602578,174.63754334743135 83.29796640132554,178.2570642408682 87.69053934561089,178.22050360037247 90.36427939869463,178.84203399711987 93.96109637490008,177.96457901661051 96.66666666662786,178.00113968213554 90.5552608310245,178.80547341448255 87.88152077805717,178.18394295641338 83.5526083111763,178.40330676650046 77.95048629527446,176.7946358115587 72.66666666662786,174.49129933625227" stroke="#4dd2ff" stroke-linecap="round" stroke-linejoin="round" stroke-width="0.5"><title>2021-04-01 1.4km</title></polyline><polyline fill="none" points="103.33333333325572,173.6437870437221 106.04364429903217,176.39597093625343 109.22531369351782,177.07273493081448 112.95690125483088,179.01278616627678 118.06328423367813,178.92255140753696 120.89143480639905,179.68954628962092 127.33333333325572,178.92255140753696 122.81614839076065,179.59931166438037 117.35624659038149,178.78719923607423 112.48554282612167,179.01278616627678 105.17948717949912,177.02761736226967 104.4331696673762,176.62155904562678 105.29732678690925,176.2606180171133" stroke="#4dd2ff" stroke-linecap="round" stroke-linejoin="round" stroke-width="0.5"><title>2021-03-29 1.2km</title></polyline><polyline fill="none" points="145.56234192685224,188.66666666668607 144.44388240622357,182.35978820791934 143.66582360910252,182.13653458899353 139.8727869738359,176.6667935004807 137.34409588342533,176.44353764271364 145.22194120311178,164.66666666668607 147.84788964292966,166.28530322684674 153.0025291731581,171.53188655734994 152.46761375037022,175.27144294895697 154.6559041168075,188.10853865550598 147.7020036187023,183.4760549850762 145.1733125280589,182.9737352069351 144.9301691541914,184.0341875506565" stroke="#4dd2ff" stroke-linecap="round" stroke-linejoin="round" stroke-width="0.5"><title>2021-03-28 1.4km</title></polyline><polyline fill="none" points="176.3712820513174,172.31948970837402 177.7374358973466,173.1253176970058 178.06974358973093,172.44672580697807 179.3989743590355,172.36190174540388 179.69435897446238,171.68330865050666 180.10051282052882,172.14984151831595 180.72820512834005,171.68330865050666 182.68512820499018,172.78602188592777 183.82974358974025,171.93778118662885 187.18974358960986,172.95566982484888 186.96820512833074,172.10742946030223 188.55589743587188,172.27707766721142 187.37435897439718,171.85295702467556 187.66974358982407,171.1743631264835 187.74358974350616,172.10742946030223 187.55897435895167,171.68330865050666 187.15282051288523,172.23466562171234 187.22666666656733,171.55607232591137 187.74358974350616,172.27707766721142 187.18974358960986,172.10742946030223 188.29743589740247,171.98019326131907 188.29743589740247,172.4043137781846 187.8174358974211,171.81054493732518 187.04205128201284,172.23466562171234 188.59282051282935,171.98019326131907 188.11282051284797,171.59848443832016 187.96512820525095,172.87084586379933 187.30051282048225,172.31948970837402 187.22666666656733,172.78602188592777 188.1497435895726,172.19225357216783 187.74358974350616,172.23466562171234 188.66666666674428,173.37978937965818 188.55589743587188,172.14984151831595 188.0020512822084,172.23466562171234 188.29743589740247,172.82843387688627 187.48512820526958,173.08290573532577 187.37435897439718,172.61637387992232 186.93128205137327,173.25255355713307 185.38051282055676,173.04049376939656 185.38051282055676,172.19225357216783 185.74974358966574,179.48706458249944 181.5774358974304,180.42011287758942 178.18051282060333,179.3174192205188 178.43897435907274,179.86876640259288 177.40512820519507,179.3174192205188 171.42358974344097,179.02053967578104 168.43282051291317,179.91117769494304 168.17435897444375,181.43798143585445 167.47282051295042,181.98932589875767 165.07282051281072,182.15897020683042 164.66666666674428,181.48039257343044" stroke="#4dd2ff" stroke-linecap="round" stroke-linejoin="round" stroke-width="0.5"><title>2021-03-26 1.5km</title></polyline><polyline fill="none" points="13.8699186994927,201.81251697329571 21.479674796923064,204.9181878999807 24.15563298505731,204.72608540576766 26.497096399660222,205.23835847110604 29.86991869925987,204.5659999071213 31.2078977933852,204.72608540576766 35.33333333337214,203.25329584005522 31.681765389279462,204.72608540576766 26.97096399543807,205.11029028054327 24.490127758588642,204.598017013137 21.73054587712977,204.8221366670914 15.793263647006825,203.3813647631905 11.333333333372138,201.42830819558003" stroke="#4dd2ff" stroke-linecap="round" stroke-linejoin="round" stroke-width="0.5"><title>2021-03-26 1.6km</title></polyline><polyline fill="none" points="66.0,205.46288499992806 64.16638370137662,205.2288693258597 61.43633276736364,203.49714975003735 59.11375212226994,203.54395306500373 55.77249575546011,202.23345850370242 47.62308998289518,202.46747565513942 48.84550084895454,203.0759197085572 48.35653650248423,203.21632976384717 42.0,201.2037816666998 47.1341256366577,203.16952641663374 54.42784380307421,203.63755968090845 60.66213921899907,205.1352630238107" stroke="#4dd2ff" stroke-linecap="round" stroke-linejoin="round" stroke-width="0.5"><title>2021-03-24 1.1km</title></polyline><polyline fill="none" points="96.66666666662786,205.09373564532143 94.9384057970019,204.98137004452292 93.24275362316985,203.70789091230836 90.53623188403435,203.2584266694903 88.31884057971183,202.24713017840986 81.53623188415077,202.39695205065073 82.12318840587977,203.03369434861816 76.80797101464123,201.57293102133553 72.66666666662786,202.0973082469427 74.29710144922137,202.32204112189356 76.9384057970019,201.61038656151504 81.82971014501527,203.10860513712396 90.73188405798282,203.48315885741613" stroke="#4dd2ff" stroke-linecap="round" stroke-linejoin="round" stroke-width="0.5"><title>2021-03-23 1.3km</title></polyline><polyline fill="none" points="126.85460992902517,204.52473626405117 118.78014184394851,201.70203831864637 115.49290780141018,202.2519162229146 112.23758865252603,201.88533104374073 113.1312056737952,202.4718671569426 112.78014184394851,202.58184257516405 107.6418439715635,201.04218375941855 103.33333333337214,201.66537976264954 107.32269503548741,201.1155009905342 112.14184397167992,202.50852563322405 118.52482269506436,202.94842706737109 127.33333333337214,205.62448290723842 125.89716312056407,204.92797707766294 127.33333333337214,204.52473626405117" stroke="#4dd2ff" stroke-linecap="round" stroke-linejoin="round" stroke-width="0.5"><title>2021-03-22 1.6km</title></polyline><polyline fill="none" points="154.43764345813543,191.48174476895656 154.7681713848142,191.71352184518764 154.58454475889448,192.45099269464845 156.2555470543448,192.70383925938222 156.6962509562727,193.06203804937832 156.54934965563007,193.71522253850708 157.21040550863836,194.15770122382673 158.0,195.5272723227681 157.52257077256218,196.79148403878207 156.82478959439322,197.08646570060228 156.5677123182686,197.8449881115812 153.17061973980162,200.79477199501707 149.42463657225017,202.24857913258893 148.2494261666434,203.00708329395275 147.3496557000326,203.7655847738206 144.7237949501723,207.38949928077636 134.0,215.18492189771496" stroke="#4dd2ff" stroke-linecap="round" stroke-linejoin="round" stroke-width="0.5"><title>2021-03-21 1.3km</title></polyline><polyline fill="none" points="175.54605249606539,201.24828042268928 175.24141951766796,199.30028610258887 173.15250766579993,196.70293710440455 172.30388722592033,196.45319060889597 169.43163342948537,199.07551656589203 166.58113913156558,202.6967793359654 165.86307568254415,202.89657164129312 165.07973373797722,205.0193551817065 166.4070631439099,206.91735838569002 169.56219042022713,208.41577195128775 172.97843167802785,211.18781374910031 172.78259619197343,211.33765298468643 173.23954565962777,211.28770658264693 172.82611518900376,211.0629476520262 173.34834315185435,211.93700904303114 174.50159657013137,213.31052801058104 178.8752557601547,215.33333333332848 181.1382435996784,215.10857798162033 186.46932072169147,211.38759937687428 187.18738417094573,209.88920333932037 188.25359959539492,205.09427662969392 187.18738417094573,203.24620779762336 183.2053959532641,199.5750041550782 178.89701525866985,194.15551132777182 175.6983689852059,191.33333333332848 172.1080517397495,196.32831726899894 172.76083669357467,196.40324128030625 173.65297613025177,197.2274039459444 175.39373600680847,199.45013234986982 175.37197650840972,200.1494136684487" stroke="#4dd2ff" stroke-linecap="round" stroke-linejoin="round" stroke-width="0.5"><title>2021-03-20 3.7km</title></polyline><polyline fill="none" points="32.968801313545555,236.0431297798932 24.771756978239864,233.41767723709927 16.10180623969063,233.14607784088003 11.451559934066609,232.15021201319178 11.333333333255723,230.5206087247061 12.003284072037786,229.7963387389609 11.372742200270295,228.5741305462434 11.530377668095753,226.4465751867392 14.013136288849637,223.9568702201068 18.111658456502482,224.45481229404686 22.28899835771881,225.85810068633873 30.170771756907925,225.6770314575988 34.387520525371656,224.99802121304674 34.89983579609543,224.40954485506518 34.151067323284224,226.12970439574565 33.67816091934219,231.96914526695036 34.07224958948791,234.9567374458711 35.33333333325572,235.1830693942029" stroke="#4dd2ff" stroke-linecap="round" stroke-linejoin="round" stroke-width="0.5"><title>2021-03-19 1.6km</title></polyline><polyline fill="none" points="51.726218097493984,229.75482976532658 56.94199535972439,231.99343712747213 58.96519721590448,231.8655173312436 60.7285382830305,232.24927649278834 62.584686774993315,231.84419735790289 63.56844547565561,231.92947723883844 66.0,231.2045971783955 61.489559164852835,232.22795655720984 59.16937354998663,231.8655173312436 56.57076566130854,231.97211716671882 46.194895591703244,228.66749782467377 42.0,228.2197713181522 42.90951276104897,228.34769327173126 42.29698375868611,228.0918492888013 42.48259860789403,227.98524753988022 43.893271461711265,228.0705289432517 45.767981438548304,227.7507235072262 46.39907192578539,228.2197713181522 46.77030162408482,227.98524753988022 47.215777262230404,228.4116542201955 47.60556844540406,228.28373230446596 48.106728538288735,228.71013839599618 48.73781902552582,228.47561514966947 50.03712296986487,229.41370660801476 50.29698375868611,229.09390315918426 49.628770301584154,228.0918492888013 49.36890951276291,228.1131696322991 49.46171693736687,228.83806005938095 50.668213457101956,229.43502682114195 51.169373549870215,228.24109164904803 51.447795823798515,228.81673978742037 51.819025522097945,228.75277895880572 51.42923433880787,228.8593803292897 51.651972157880664,228.79541951330611 51.11368909513112,228.04920859559206 51.91183294670191,227.98524753988022" stroke="#4dd2ff" stroke-linecap="round" stroke-linejoin="round" stroke-width="0.5"><title>2021-03-19 3.1km</title></polyline><polyline fill="none" points="82.76609744137386,242.0 82.63130529772025,241.5819668899494 82.3752002248657,241.53551869789953 81.99778222263558,241.8916211524338 82.45607551099965,239.27502340682258 82.28084572427906,239.90982331692067 82.36172101047123,241.07103602134157 82.10561593755847,241.27231201659015 80.64986078627408,241.24134649564803 80.47463099949528,240.312378027229 80.59594392875442,239.4917846403987 84.12749809212983,238.70215299149277 86.49983982014237,238.54732279067684 86.41896453400841,223.57452080208168 87.21423818147741,222.5525401474879 88.85870233387686,221.09698045144614 88.56215961783892,220.35371071797272 86.55375667766202,218.0" stroke="#4dd2ff" stroke-linecap="round" stroke-linejoin="round" stroke-width="0.5"><title>2021-03-18 2.7km</title></polyline><polyline fill="none" points="111.47295832395321,240.01956518460065 112.1448790973518,240.13606208558485 112.24630110088037,240.70398316152568 112.4998561097309,240.8496035983262 113.86905315733748,241.1262820326083 115.64393821917474,240.9660998443287 116.87368001195136,241.31558803094958 118.01467755169142,242.0 118.30626581178512,241.08259599846497 118.14145505608758,237.1944871921296 119.19370834273286,237.09255037779803 117.68505604017992,236.67023996847274 116.22711473942036,236.59742770684534 115.58054946694756,235.89842816797318 114.30009667237755,222.66049949197622 115.69464922090992,221.02934141110745 116.68351375532802,220.46134463319322 115.97355973062804,219.19426702002238 114.75649568828521,218.0" stroke="#4dd2ff" stroke-linecap="round" stroke-linejoin="round" stroke-width="0.5"><title>2021-03-17 2.8km</title></polyline><polyline fill="none" points="134.8085106385406,228.70479940716177 135.10638297884725,228.70479940716177 136.59574468107894,229.3401931943954 137.02127659576945,229.87783345507341 141.4468085106928,231.09974096922087 146.1276595746167,231.7351316860586 147.70212765969336,231.6373793212697 148.8085106385406,231.8817601974879 149.36170212784782,232.0772648116108 151.5744680853095,232.41939770092722 153.40425531938672,233.15253881152603 154.0,233.29916690345271 155.02127659600228,233.8368028694822 155.87234042584896,234.3744382521836 156.2127659576945,234.4721900773293 156.59574468107894,234.66769366973313 157.5319148937706,234.91207305178978 158.0,234.86319718507002 157.95744680892676,234.86319718507002 157.95744680892676,234.86319718507002 157.82978723431006,234.91207305178978 157.91489361715503,234.86319718507002 157.95744680892676,234.86319718507002 158.0,234.91207305178978 157.74468085123226,234.86319718507002 157.19148936192505,234.86319718507002 155.31914893630892,234.91207305178978 154.04255319177173,234.52106598272803 152.8085106385406,234.2766864078585 151.5744680853095,234.17893454423756 150.34042553207837,234.22781047833269 149.7021276599262,234.2766864078585 148.46808510669507,234.3744382521836 147.91489361715503,234.3744382521836 146.0,234.22781047833269 145.40425531938672,234.08118266108795 144.25531914900057,233.78792689662077 143.65957446815446,233.49467095860746 142.51063829800114,233.1036627710855 141.91489361715503,232.90815856179688 139.4893617022317,232.41939770092722 137.91489361715503,231.78400786139537 137.78723404277116,231.49075073757558 138.29787234053947,231.392998324387 138.51063829800114,231.392998324387 138.6808510639239,231.19749344035517 138.51063829800114,231.14861720716 138.0851063830778,231.05086472650873 137.87234042561613,231.00198847902357 137.74468085123226,230.95311222661985 137.4893617022317,230.95311222661985 137.31914893630892,230.85535970737692 137.10638297884725,230.85535970737692 136.89361702138558,230.85535970737692 136.59574468107894,230.75760716895456 136.38297872361727,230.65985461123637 136.25531914900057,230.6109783250722 135.82978723407723,230.36659682227764 135.70212765969336,230.2688441873761 135.4893617022317,230.1222151987895 135.36170212784782,230.0244625158375 135.23404255323112,229.87783345507341 135.06382978730835,229.6823279732198 134.7659574470017,229.43794601250556 134.51063829800114,229.29131677813712 134.38297872361727,229.19356393112685 134.1702127661556,228.9491817294038 134.0851063830778,228.50929346258636 134.0851063830778,228.11828134211828 134.04255319177173,227.87389861006523 134.0,227.67839233769337 134.1276595746167,227.28737956171972 134.0851063830778,226.74973649086314 134.0851063830778,226.505353084096 134.04255319177173,226.35872298205504 134.1276595746167,226.21209283685312 134.0851063830778,226.16321611215244 134.1276595746167,225.8210789039731 134.1702127661556,225.57669503914076 134.38297872361727,225.52781825177954 134.8085106385406,225.38118786059204 135.02127659576945,225.28343424235936 135.14893617038615,225.23455742609804 135.40425531938672,225.13680377905257 135.4468085106928,225.13680377905257 135.4468085106928,225.08792694821022 135.4893617022317,225.08792694821022" stroke="#4dd2ff" stroke-linecap="round" stroke-linejoin="round" stroke-width="0.5"><title>2021-03-02 1.4km</title></polyline><polyline fill="none" points="169.07596899243072,230.35262831515865 169.35503875999711,230.48084346216638 172.42480620159768,231.05781131132971 174.37829457386397,231.76299354241928 175.10387596907094,232.08353066741256 177.0573643411044,232.5963897384354 177.78294573631138,232.5963897384354 179.84806201560423,232.4681750088348 180.51782945729792,232.2758528664708 182.58294573635794,232.14763807336567 183.8666666666977,232.5963897384354 184.53643410862423,232.85281912237406 185.70852713193744,233.3015703006531 186.82480620150454,233.49389213934774 188.22015503887087,233.36567758664023 188.44341085245833,233.2374630085542 188.66666666674428,233.36567758664023 188.610852713231,234.2631789254374 187.60620155045763,234.5196076518041 186.7689922482241,235.22478612751001 186.3782945733983,235.3530003139167 185.98759689903818,235.48121447477024 185.7643410852179,235.48121447477024 185.42945736413822,235.54532154556364 185.20620155055076,235.67353566846577 184.42480620159768,235.99407086527208 184.53643410862423,236.31460590392817 184.92713178298436,236.5710338211502 184.92713178298436,236.63514078472508 184.92713178298436,236.6992477417807 184.98294573649764,236.63514078472508 184.70387596916407,236.5710338211502 184.3689922480844,236.6992477417807 184.25736434129067,236.7633546925499 184.14573643403128,236.8274616371491 184.089922480518,236.89156857528724 184.089922480518,236.89156857528724 183.8666666666977,236.5710338211502 183.75503875990398,236.44281987514114 183.5875968991313,236.25049890892114 183.53178294561803,236.12228489975678 182.9736434109509,235.99407086527208 182.75038759689778,235.99407086527208 182.4713178295642,235.99407086527208 182.19224806223065,235.9299638386583 181.85736434115097,235.9299638386583 181.57829457358457,235.9299638386583 181.0201550386846,235.80174976633862 180.74108527135104,235.7376427205745 180.4620155042503,235.67353566846577 180.18294573645107,235.60942861024523 179.62480620178394,235.48121447477024 179.401550387498,235.3530003139167 179.12248062016442,235.28889322385658 178.84341085283086,235.16067902499344 178.56434108503163,235.0324648009264 178.34108527144417,234.84014341741567 177.8387596900575,234.583714817476 177.33643410843797,234.3272861163714 176.94573643431067,233.94264287507394 176.66666666651145,233.8144284109003 176.38759689917788,233.68621392123168 176.1085271318443,233.55799940635916 175.82945736404508,233.4297848661663 175.66201550420374,233.36567758664023 175.2155038760975,233.1733557098196 174.99224806204438,233.1092484050314 174.76899224799126,233.04514109378215 174.54573643417098,232.9169264525408 174.2666666668374,232.85281912237406 173.987596899271,232.7887117859791 173.37364341085777,232.7246044430649 173.15038759703748,232.66049709398067 172.87131782947108,232.5963897384354 172.5364341083914,232.5963897384354 172.31317829457112,232.5322823767783 171.75503875967115,232.4681750088348 171.47596899233758,232.33996025362285 170.9736434109509,231.95531583635602 170.41550387605093,231.76299354241928 170.19224806199782,231.69888609845657 169.91317829466425,231.63477864832385 169.5782945738174,231.57067119167186 169.35503875999711,231.50656372879166 169.07596899243072,231.37834878376452 168.5736434108112,231.12191881844774 168.29457364347763,230.99370379775064 168.07131782942452,230.86548875179142 167.51317829475738,230.5449510262697 167.34573643421754,230.41673589183483 167.12248062016442,230.28852073219605 166.62015503877774,229.96798272209708 166.39689922495745,229.77565984026296 166.11782945739105,229.39101390575524 165.72713178303093,228.9422600279213 165.0573643411044,228.4293980738148 165.0573643411044,228.2370747369714 164.94573643431067,227.9165357152233 164.83410852728412,227.66010438412195 164.66666666674428,226.82670185953612 164.83410852728412,226.5061621425557 164.88992248056456,226.18562226754148 164.94573643431067,225.92919025360607 165.00155038782395,225.73686617682688 165.00155038782395,225.41632592235692 165.00155038782395,224.58292052114848 165.00155038782395,224.005946925201 165.6155038762372,223.74951405148022 166.0620155041106,223.49308107659454 166.45271317870356,223.3648645511712 166.73178294603713,223.30075627902988 166.84341085283086,223.17253971571336 167.6248062015511,223.10843142465455" stroke="#4dd2ff" stroke-linecap="round" stroke-linejoin="round" stroke-width="0.5"><title>2020-12-25 1.0km</title></polyline><polyline fill="none" points="11.694235588656738,253.89450938126538 11.96491228044033,254.15359080431517 12.190476190298796,254.41267209971556 12.686716791708022,254.72356948564993 14.626566415885463,255.24173138657352 15.664160400861874,255.5526282818755 16.34085213020444,255.70807666069595 19.498746866825968,256.9516620343784 20.401002506026998,257.57345361763146 21.43859649100341,258.0397968219477 22.972431077389047,258.609771287709 23.558897242881358,258.71340294223046 24.641604010015726,258.71340294223046 25.273182957200333,258.71340294223046 26.35588972410187,258.50613961275667 27.348370927385986,258.4025079170824 28.47619047597982,258.45432376745157 29.107769423397258,258.4025079170824 30.86716791964136,258.71340294223046 31.45363408490084,258.9206661900971 32.581453633727506,259.1279293562402 33.213032581377774,259.0761135723442 34.34085213020444,259.0242977833841 34.8370927318465,258.97248198935995 35.33333333325572,259.17974513507215 35.288220551097766,259.2315609086654 35.152882205555215,259.2833766771364 35.10776942339726,259.33519244065974 35.10776942339726,259.3870081988862 35.06265664147213,259.33519244065974 34.97243107762188,259.43882395204855 34.97243107762188,259.33519244065974 35.017543859779835,259.3870081988862 35.06265664147213,259.43882395204855 35.017543859779835,259.3870081988862 35.10776942339726,259.2833766771364 35.06265664147213,259.2833766771364 35.017543859779835,259.2833766771364 35.017543859779835,259.33519244065974 35.017543859779835,259.2833766771364 35.017543859779835,259.2833766771364 35.017543859779835,259.2833766771364 35.017543859779835,259.33519244065974 34.97243107762188,259.33519244065974 34.97243107762188,259.33519244065974 34.92731829546392,259.33519244065974 34.88220551377162,259.33519244065974 34.97243107762188,259.33519244065974 34.97243107762188,259.33519244065974 34.97243107762188,259.33519244065974 34.92731829546392,259.33519244065974 34.92731829546392,259.3870081988862 34.8370927318465,259.33519244065974 33.799498746637255,259.33519244065974 32.62656641588546,259.33519244065974 31.45363408490084,259.0761135723442 30.912280701566488,258.9206661900971 29.784461152739823,258.609771287709 29.197994987480342,258.50613961275667 27.979949874337763,258.50613961275667 27.393483709078282,258.45432376745157 26.175438596401364,258.55795545264846 24.912280701566488,258.71340294223046 24.325814536307007,258.71340294223046 23.107769423397258,258.66158711753087 22.47619047597982,258.50613961275667 19.63408521283418,257.57345361763146 19.0476190475747,257.36618983815424 17.37844611518085,256.9516620343784 16.92731829546392,256.89984603592893 15.12280701752752,256.58894993778085 14.08521303231828,256.12260544562014 13.498746867058799,255.81170888763154 12.370927318232134,255.18991521949647 11.333333333255723,254.82720190670807" stroke="#4dd2ff" stroke-linecap="round" stroke-linejoin="round" stroke-width="0.5"><title>2020-12-08 1.1km</title></polyline><polyline fill="none" points="42.0,254.1927825754683 42.23076923075132,254.23695931903785 43.76923076924868,255.42972974435543 44.26923076924868,255.6064362039324 46.23076923075132,256.18073171624565 47.153846153989434,256.4457909351331 47.615384615492076,256.6224969938339 48.69230769248679,257.02008537136135 49.653846153989434,257.5060262423358 50.153846153989434,257.81526106756064 52.615384615492076,258.65461165999295 53.153846154222265,258.69878796333796 54.69230769248679,258.52208272361895 55.153846153989434,258.47790640272433 57.57692307699472,258.52208272361895 58.07692307699472,258.5662590400607 59.57692307699472,259.00802196530276 61.115384615492076,259.14055075787473 61.57692307699472,259.09637449795264 62.57692307722755,259.14055075787473 64.11538461549208,258.91966941498686 64.57692307699472,258.8754931334115 65.53846153873019,258.7871405570768 66.0,258.7429642624629 65.80769230774604,258.389553748013 64.73076923075132,258.34537741405074 64.26923076924868,258.389553748013 63.30769230797887,258.65461165999295 62.96153846173547,258.7429642624629 61.96153846173547,258.96384569234215 61.5,259.00802196530276 60.53846153849736,259.00802196530276 60.03846153849736,258.91966941498686 59.07692307699472,258.7429642624629 58.615384615724906,258.61043535213685 57.115384615492076,258.34537741405074 56.615384615492076,258.34537741405074 55.615384615492076,258.389553748013 55.07692307699472,258.389553748013 54.07692307699472,258.47790640272433 53.07692307699472,258.52208272361895 52.115384615492076,258.47790640272433 51.19230769248679,258.25702473323327 50.73076923098415,258.124495679338 49.73076923098415,257.81526106756064 49.26923076948151,257.63855547926505 48.346153846243396,257.32932053203695 47.115384615259245,256.97590890232823 46.76923076924868,256.93173242907505 45.846153846243396,256.71084999712184 44.57692307722755,256.3132613452326 44.23076923098415,256.0482020480267 43.42307692323811,255.6064362039324 43.0,255.38555311851087" stroke="#4dd2ff" stroke-linecap="round" stroke-linejoin="round" stroke-width="0.5"><title>2020-12-03 1.3km</title></polyline><polyline fill="none" points="96.41314553981647,257.297592390154 96.62441314547323,258.07410980117857 96.66666666674428,258.3167712408176 95.94835680769756,258.7535615306988 94.72300469479524,258.7050292954664 93.032863849774,258.4138357832271 91.42723004682921,257.73438358466956 90.87793427240103,257.6373189082078 87.75117370905355,256.4240088383376 86.61032863846049,256.2298789493507 84.8779342721682,256.27841142885154 83.69483568053693,256.2298789493507 82.84976525814272,256.2298789493507 82.34272300475277,256.2298789493507 81.20187793415971,256.1328139763791 80.82159624411725,256.0842814827338 79.51173708913848,255.9872164807166 79.00469483551569,255.93868397272308 77.23004694841802,255.79308641972602 76.68075117352419,255.6960213604325 75.58215962443501,255.59895628198865 74.14553990634158,254.96803280559834 73.59624413144775,254.77390234250925 72.66666666674428,254.57977180264425 73.72300469479524,254.8224349654629 74.65258215973154,255.25922835676465 75.58215962443501,255.6960213604325 76.13145539909601,255.74455389240757 77.52582159638405,255.89015145975281 77.94835680746473,255.93868397272308 79.04694835678674,256.0357489840826 79.59624413144775,256.0842814827338 80.73708920180798,256.0842814827338 81.24413145543076,256.1328139763791 82.38497652602382,256.2298789493507 82.89201877941377,256.2298789493507 84.45539906108752,256.27841142885154 84.9624413147103,256.27841142885154 85.72300469479524,256.1813464652805 85.97652582172304,256.1813464652805 86.14553990610875,256.1813464652805 86.31455399049446,256.1813464652805 86.483568075113,256.1813464652805 86.69483568076976,256.1328139763791 86.90610328619368,256.1328139763791 87.3286384975072,256.1813464652805 87.49765258212574,256.1813464652805 87.87793427240103,256.32694390340475 88.2582159624435,256.5210737539164 88.21596244140528,256.61813865049044 88.21596244140528,256.66667109151604 88.17370892013423,256.66667109151604" stroke="#4dd2ff" stroke-linecap="round" stroke-linejoin="round" stroke-width="0.5"><title>2020-11-30 1.0km</title></polyline></svg>