<?xml version="1.0" encoding="utf-8" ?>
<svg baseProfile="full" height="300mm" version="1.1" viewBox="0,0,200,300" width="200mm" xmlns="http://www.w3.org/2000/svg" xmlns:ev="http://www.w3.org/2001/xml-events" xmlns:xlink="http://www.w3.org/1999/xlink"><defs /><rect fill="#222222" height="300" width="200" x="0" y="0" /><text fill="#FFFFFF" style="font-size:12px; font-family:Arial; font-weight:bold;" x="10" y="20">Over 3km Runs</text><text fill="#FFFFFF" style="font-size:4px; font-family:Arial" x="10" y="280">ATHLETE</text><text fill="#FFFFFF" style="font-size:9px; font-family:Arial" x="10" y="290">jdzj</text><text fill="#FFFFFF" style="font-size:4px; font-family:Arial" x="120" y="280">STATISTICS</text><text fill="#FFFFFF" style="font-size:3px; font-family:Arial" x="120" y="285">Number: 30</text><text fill="#FFFFFF" style="font-size:3px; font-family:Arial" x="120" y="290">Weekly: 3.3</text><text fill="#FFFFFF" style="font-size:3px; font-family:Arial" x="141" y="285">Total: 58.0 km</text><text fill="#FFFFFF" style="font-size:3px; font-family:Arial" x="141" y="290">Avg: 1.9 km</text><text fill="#FFFFFF" style="font-size:3px; font-family:Arial" x="167" y="285">Min: 1.0 km</text><text fill="#FFFFFF" style="font-size:3px; font-family:Arial" x="167" y="290">Max: 4.9 km</text><polyline fill="none" points="29.251946559525095,64.20000000001164 28.296513658948243,57.08434675412718 28.823649052414112,53.034421317745 28.296513658948243,45.502203246200224 28.79070309025701,32.36778057808988 28.395351545186713,31.800000000017462 27.571702492889017,32.36778057808988 26.74805344059132,45.76715815148782 27.077513061580248,58.93897122645285 28.395351545186713,59.31746491478407 28.494189431425184,58.97682061215164 28.658919241977856,52.50452136725653 28.230621734634042,57.538541331799934" stroke="#4dd2ff" stroke-linecap="round" stroke-linejoin="round" stroke-width="0.5"><title>2021-04-18 2.2km</title></polyline><polyline fill="none" points="80.20000000018626,52.61195652669994 74.39770773635246,52.02546963072382 56.85157593153417,46.747058933833614 49.09971346706152,46.000612857576925 47.800000000046566,45.14753036521142 57.03724928363226,45.04089495912194 59.0796561606694,43.388043473358266 63.07163323787972,45.20084806048544" stroke="#4dd2ff" stroke-linecap="round" stroke-linejoin="round" stroke-width="0.5"><title>2021-04-16 1.0km</title></polyline><polyline fill="none" points="116.20000000001164,50.59853454075346 115.2510460250196,50.85157038155012 114.86129707109649,50.05353316622495 114.18347280332819,49.78103191452101 113.31924686185084,49.995140072496724 113.01422594138421,49.74210313349613 112.59058577404357,49.15817049756879 113.3361924685887,47.834583458985435 113.08200836810283,46.86135203145386 112.57364016736392,46.64724047330674 108.62531380756991,46.91974605251744 105.25313807529164,46.62777577464294 103.60941422590986,47.01706938246207 102.9146443514619,46.7445639376092 101.7962343096151,46.86135203145386 101.52510460256599,46.62777577464294 99.32217573217349,46.88081670703832 98.54267782426905,46.60831107405829 97.6445606694324,46.86135203145386 96.74644351465395,46.49152283043077 94.8485355648445,46.8418873539631 93.2895397489192,46.21901665988844 92.00167364021763,46.37473451773985 91.27301255229395,45.47935515712015 89.95125523011666,45.557214393193135 88.74811715481337,45.18738274801581 88.2566945606959,45.42096070983098 87.5788702929276,44.7591557665728 86.5790794978966,45.10952336595801 85.12175732216565,44.622901532115065 84.27447698748438,45.070593663462205 84.8675732218544,44.642366428495734 85.00313807529164,45.304171763462364 83.79999999998836,45.24577726438292 84.81673640169902,44.87594503549917 84.32531380758155,44.99273423530394 84.85062761511654,44.95380450974335 84.42698744771769,45.128988214361016 84.69811715482501,45.42096070983098 84.41004184103804,45.18738274801581 84.81673640169902,45.051128809238435 84.69811715482501,44.83701528685924 84.35920502094086,44.95380450974335 84.47782426775666,45.24577726438292 85.00313807529164,45.03166395318112 84.74895397492219,44.93433964402357 84.71506276156288,45.206847588706296 84.85062761511654,44.85648016218329 84.6642259414657,45.206847588706296 84.7828451882815,44.93433964402357 84.8675732218544,45.148453060828615 84.61338912136853,44.44771737816336 84.76589958166005,44.95380450974335 84.68117154808715,44.622901532115065 84.71506276156288,44.95380450974335 84.37615062762052,44.700761106199934 84.49476987449452,44.52557702132617 84.61338912136853,44.700761106199934 84.35920502094086,44.798085530579556 84.69811715482501,44.97326937345497 84.42698744771769,44.8175504096871 84.74895397492219,44.52557702132617 84.51171548117418,44.93433964402357 84.24058577406686,44.93433964402357 84.51171548117418,44.42825246254506 84.25753138074651,44.603436633828096 84.6642259414657,44.95380450974335 84.37615062762052,44.7786206495075 84.42698744771769,44.95380450974335 84.51171548117418,44.798085530579556 84.59644351463066,45.61560880015895 84.42698744771769,47.44529146399873 86.07071129704127,47.79565429403738 86.20627615065314,48.107087398529984 87.68054393306375,47.97083547580405 88.52782426780323,48.28226830381027 95.289121338923,48.57423613371793 101.96569037664449,49.43067260936368 105.16841004177695,49.54745911351347 106.5918410042068,49.85888945336046 108.23556485358858,50.69585605642351 110.81129707104992,50.403891365465824 111.08242677827366,50.87103466359258 111.43828451883746,50.71532035378914 113.8615062761819,51.22139141151274 114.28514644346433,51.57174753744039 115.04769874480553,51.39656955222017 115.28493723849533,50.67639175710792 115.96276150626363,50.403891365465824" stroke="#4dd2ff" stroke-linecap="round" stroke-linejoin="round" stroke-width="0.5"><title>2021-04-09 4.9km</title></polyline><polyline fill="none" points="151.54596273321658,49.73365360999014 141.38322981400415,46.786456285219174 140.22608695668168,45.68847702111816 133.08198757795617,46.266361100948416 127.9000000001397,45.746265454858076 128.8559006212745,46.32414947764482 128.40310559002683,46.55530292709591 119.80000000004657,44.59049569943454 126.94409937877208,46.72866795427399 137.2074534164276,47.59549232129939 151.44534161500633,51.40950430056546 149.53354037296958,50.65826148027554 152.19999999995343,50.31153369997628 151.49565217387863,49.444713351200335" stroke="#4dd2ff" stroke-linecap="round" stroke-linejoin="round" stroke-width="0.5"><title>2021-04-09 1.4km</title></polyline><polyline fill="none" points="157.0886363638565,46.202684941352345 158.65340909105726,47.524254894582555 169.97500000009313,51.858981469646096 174.99147727293894,51.64753220608691 179.3636363639962,52.54619099991396 187.46363636408933,51.64753220608691 188.20000000018626,50.74887190561276 184.9323863638565,49.90307259937981 181.02045454550534,50.696009488077834 176.9704545456916,49.16299711156171 173.61079545482062,49.42730990314158 167.90397727279924,46.51986202725675 167.1676136367023,45.1454266323708 163.9000000001397,43.8767139086267 161.41477272752672,43.45380900008604 155.80000000004657,44.828248732956126" stroke="#4dd2ff" stroke-linecap="round" stroke-linejoin="round" stroke-width="0.5"><title>2021-04-08 1.4km</title></polyline><polyline fill="none" points="43.9896103895735,90.15330095135141 44.199999999953434,91.26493292837404 41.46493506501429,91.31326469636406 34.22753246757202,88.84833845612593 23.287272727116942,88.31668607270694 17.522597402567044,86.28673530361266 11.800000000046566,87.15671523439232 17.228051947895437,86.52839655044954 22.992727272678167,88.26835400931304 33.72259740275331,88.75167442930979" stroke="#4dd2ff" stroke-linecap="round" stroke-linejoin="round" stroke-width="0.5"><title>2021-04-06 1.3km</title></polyline><polyline fill="none" points="57.69461077847518,83.9349250542 61.76886227540672,82.66249870997854 63.45029940130189,84.00977359409444 63.45029940130189,85.43189440731658 62.35089820367284,86.03068129590247 64.29101796401665,88.12643156998092 66.29580838303082,88.3509758883738 68.88263473031111,87.15340539911995 71.79281437117606,83.485833654413 74.37964071868919,84.45886467414675 76.51377245527692,83.18643923575291 80.13532934128307,83.63553081802092 80.13532934128307,79.06975362804951 79.74730538926087,81.83916284446605 77.61317365267314,81.46491896477528 80.20000000018626,81.91401159769157 80.0706586826127,83.86007650656393 74.50898203579709,84.38401617965428 71.79281437117606,83.41098506131675 67.3952095808927,88.94976040231995 68.42994011985138,88.05158344877418 63.57964071840979,87.97673531988403 62.609580838121474,86.3300745576853 64.03233532956801,86.3300745576853 63.90299401199445,85.5815911750542 62.22155688633211,82.58765003288863 61.510179640492424,83.63553081802092 60.08742514974438,83.485833654413 58.27664670627564,87.37795001437189 52.26227544876747,90.52156743325759 50.322155688656494,94.11425661348039 50.06347305350937,91.34489358606515 49.54610778414644,94.86273131880444 49.09341317345388,93.21608596254373 49.54610778414644,94.33879910508404 49.15808383212425,93.3657811472076 51.80958083830774,94.71303643862484 53.94371257466264,97.93146965233609 56.72455089795403,97.70692825701553 57.50059880223125,96.13513657066505 55.81916167656891,95.38666315953014 57.306586826220155,95.38666315953014 56.59520958084613,96.2848311617854 55.94850299367681,95.68605261546327 56.72455089795403,96.58422025217442 56.91856287419796,95.83574729767861 57.24191616754979,97.55723395524547 56.14251496968791,98.5302463719272 52.58562874235213,98.23085807310417 49.28742514923215,94.33879910508404 49.86946107749827,90.97065453993855 50.2574850297533,93.66517142491648 47.800000000046566,95.0872735818266 48.51137724542059,93.88971405354096 48.0586826344952,95.38666315953014 49.86946107749827,94.11425661348039 50.128143712412566,90.82095886819297" stroke="#4dd2ff" stroke-linecap="round" stroke-linejoin="round" stroke-width="0.5"><title>2021-04-05 1.9km</title></polyline><polyline fill="none" points="109.28055362205487,97.32409304883913 108.0100016380893,97.96375913082738 108.5071741535794,97.19615967597929 109.39103640336543,97.19615967597929 109.58438127033878,96.6524422596558 108.59003623947501,102.56931644058204 106.46324270113837,104.10448719415581 106.3527599198278,105.0 106.2698978340486,104.10448719415581 108.67289832537062,102.66526483261259 109.47389848926105,99.53093552251812 110.02631239534821,94.54153042312828 108.64527763007209,93.55003663009848 105.66224253724795,93.00631289774901 103.89451803790871,94.38161228128592 100.1933448673226,95.43707051186357 93.45389521308243,99.4989524090488 92.23858461971395,97.54797632578993 90.82992915937211,98.1556587011728 90.16703247197438,97.89979258124367 86.30013512948062,81.30003233184107 86.07916956709232,78.26144550659228 88.04023893363774,87.15322719322285 88.64789423032198,87.4091020739288 95.74641292332672,84.17866639708518 101.21531059336849,82.41950427246047 104.64027681108564,80.5004070722207 109.4462777938461,76.6301920216647 112.29120941017754,72.60000000000582 113.9208304330241,73.43163116331561 113.72748556593433,73.68751723170863 113.06458887865301,73.46361693326617 113.45127861283254,73.14375908699003 113.45127861283254,73.65553148457548 113.61700278474018,72.79191507949145 112.67789914435707,73.0797874784912" stroke="#4dd2ff" stroke-linecap="round" stroke-linejoin="round" stroke-width="0.5"><title>2021-04-05 3.7km</title></polyline><polyline fill="none" points="127.97570093441755,77.05247579992283 133.12336448580027,81.14368799887598 137.3626168225892,92.94967564521357 137.46355140162632,98.91106876486447 139.78504672879353,98.44350964063779 142.10654205596074,100.54752419993747 147.35514018684626,96.69016122550238 152.1999999997206,97.97595032514073 142.30841121450067,95.63815088907722 142.30841121450067,99.49551740277093 142.81308411248028,94.11857869965024 142.61121495300904,99.72929677448701 142.91401869105175,97.85906046675518 138.87663551373407,98.67728922667447 141.60186915891245,96.92394116905052 143.0149532710202,99.49551740277093 140.4915887848474,97.85906046675518 142.30841121450067,97.39150091307238 141.90467289742082,99.61240709444974 143.0149532710202,99.61240709444974 141.70280373841524,97.27461099473294 144.0242990651168,100.19685537496116 141.70280373841524,98.09284017176833 141.90467289742082,96.22260119521525 143.6205607475713,98.91106876486447 142.00560747645795,96.33949122042395 139.28037383174524,96.22260119521525 138.0691588781774,99.26173798344098 138.37196261668578,97.74217059637886 133.22429906530306,93.88479818427004 135.2429906539619,86.40379651915282 133.22429906530306,87.2220334536396 133.3252336452715,84.18286475422792 127.37009345786646,80.909904838074 119.79999999981374,81.61125417810399 124.03925233660266,83.13084294286091 125.45233644871041,87.1051424985053" stroke="#4dd2ff" stroke-linecap="round" stroke-linejoin="round" stroke-width="0.5"><title>2021-04-04 1.4km</title></polyline><polyline fill="none" points="175.8011173182167,74.29647369217128 165.75530726229772,78.87112133065239 156.07150838011876,90.0997176807141 165.21229050308466,100.1845586883137 170.5519553073682,94.15445917437319 176.79664804507047,91.55526770476718 176.97765363147482,88.1243251459673 182.76983240200207,83.86162337241694 174.2625698321499,73.04883907025214 167.11284916196018,77.83143042994197 155.79999999981374,90.72352508013137 165.03128491621464,99.04092177760322 170.46145251393318,92.69891274138354 179.33072625705972,91.2433642973192 181.95530726294965,89.26797390705906 183.31284916214645,84.06956044433173 182.95083798887208,83.13384329667315 181.86480446951464,85.21321360673755 178.697206703946,86.77273864636663 178.60670391097665,85.83702389954124 188.20000000018626,79.49493537889794 184.6703910618089,77.62349212670233 180.9597765360959,73.04883907025214 178.87821229035035,76.47983072488569 172.54301675967872,73.77662611252163 160.05363128473982,85.00527676043566 156.16201117262244,90.51558932138141 165.21229050308466,99.04092177760322 170.5519553073682,93.42668620916083 171.36648044688627,94.05049163871445 169.10391061427072,97.16951324569527 181.50279329624027,99.76869086455554 185.484916201327,104.55116092984099 177.06815642444417,89.16400588897523 177.97318435786292,86.35686552803963 182.40782122965902,82.6140000782907 177.52067039115354,79.5989043507725 174.80558659229428,74.40044317720458 172.9050279329531,73.67265656590462 171.27597765345126,74.81632101512514 172.090502793435,75.54410683631431" stroke="#4dd2ff" stroke-linecap="round" stroke-linejoin="round" stroke-width="0.5"><title>2021-04-02 3.1km</title></polyline><polyline fill="none" points="31.676595744793303,142.12119667345542 27.885106383124366,140.80148690429633 20.732978723477572,140.66951564099872 12.977659574593417,139.64673658512766 12.317021276801825,139.0198704567738 11.800000000046566,135.8855221925769 12.546808510785922,135.29164236973156 14.097872340469621,135.2256556575303 12.690425532055087,130.83751008639229 13.03510638314765,124.89857477074838 15.18936170230154,121.83008353773039 16.05106382991653,119.75141219075886 20.158510638400912,116.91383997153025 21.82446808530949,118.72856916597812 23.37553191499319,119.05851887055906 24.179787234170362,120.01537117315456 27.569148936192505,120.01537117315456 32.79680851078592,120.84024165046867 35.324468085193075,122.16003018253832 39.518085106508806,125.88840464691748 43.481914893491194,132.75114455711446 43.59680851059966,133.6419706622255 42.677659574430436,134.43381409722497 42.30425531917717,135.68756236875197 43.108510638354346,135.65456905338215 44.20000000006985,138.4589892407821 43.481914893491194,139.9436727622815 40.98297872347757,140.40557295826147 40.37978723400738,141.16440760987462 38.97234042547643,140.47155864839442 38.36914893623907,140.73550127918134 36.875531914876774,140.27360153879272 36.15744680853095,142.2861600284814 35.927659574430436,142.0552113086742" stroke="#4dd2ff" stroke-linecap="round" stroke-linejoin="round" stroke-width="0.5"><title>2021-04-02 3.2km</title></polyline><polyline fill="none" points="51.19469496048987,126.86068351898575 62.15225464198738,131.74703672513715 68.08222811692394,131.69767986045917 71.69177718833089,132.53674589609727 76.54748010635376,131.35218167238054 80.20000000018626,131.40153857084806 71.94960212218575,132.48738910953398 68.34005305054598,131.6483229911246 62.4960212202277,131.94446413472178 54.93315649894066,129.7727583455562 47.800000000046566,126.66325410391437" stroke="#4dd2ff" stroke-linecap="round" stroke-linejoin="round" stroke-width="0.5"><title>2021-04-01 1.4km</title></polyline><polyline fill="none" points="83.80000000004657,125.51911250897683 87.45891980384476,129.23456076392904 91.7541734862607,130.1481921565719 96.79181669419631,132.76726132445037 103.6854337155819,132.64544440014288 107.50343698868528,133.6808874909766 116.20000000018626,132.64544440014288 110.10180032765493,133.55907074688002 102.7309328969568,132.4627189686871 96.15548281534575,132.76726132445037 86.2923076923471,130.08728343906114 85.28477905108593,129.5391047115554 86.45139116235077,129.05183432309423" stroke="#4dd2ff" stroke-linecap="round" stroke-linejoin="round" stroke-width="0.5"><title>2021-03-29 1.2km</title></polyline><polyline fill="none" points="135.4091616012156,145.79999999998836 133.8992412481457,137.28571408067364 132.84886187198572,136.98432169511216 127.72826241445728,129.60017122566933 124.31452944246121,129.29877581761684 134.94962062384002,113.39999999996508 138.49465101771057,115.58515935624018 145.45341438357718,122.66804685239913 144.73127856268547,127.71644798107445 147.68547055730596,145.04652718489524 138.29770488501526,138.79267422982957 134.88397191278636,138.11454252933618 134.55572835798375,139.5461531933397" stroke="#4dd2ff" stroke-linecap="round" stroke-linejoin="round" stroke-width="0.5"><title>2021-03-28 1.4km</title></polyline><polyline fill="none" points="171.60123076941818,123.73131110635586 173.44553846144117,124.81917889096076 173.89415384619497,123.9030798394233 175.68861538451165,123.78856735629961 176.08738461555913,122.87246667820727 176.63569230749272,123.50228604977019 177.48307692306116,122.87246667820727 180.12492307671346,124.36112954601413 181.67015384626575,123.21600460197078 186.20615384588018,124.59015426354017 185.90707692317665,123.4450297714211 188.05046153836884,123.67405485076597 186.45538461534306,123.10149198333966 186.85415384615771,122.18539022078039 186.95384615380317,123.4450297714211 186.70461538457312,122.87246667820727 186.1563076924067,123.61679858935531 186.25600000005215,122.70069764001528 186.95384615380317,123.67405485076597 186.20615384588018,123.4450297714211 187.70153846149333,123.27326090278802 187.70153846149333,123.84582360059721 187.0535384612158,123.04423566540936 186.0067692308221,123.61679858935531 188.10030769230798,123.27326090278802 187.45230769226328,122.75795399176423 187.25292307697237,124.47564191615675 186.3556923076976,123.73131110635586 186.25600000005215,124.36112954601413 187.5021538459696,123.55954232241493 186.95384615380317,123.61679858935531 188.19999999995343,125.16271566256182 188.05046153836884,123.50228604977019 187.3027692309115,123.61679858935531 187.70153846149333,124.41838573379209 186.60492307692766,124.76192274270579 186.45538461534306,124.13210473791696 185.8572307692375,124.99094730213983 183.7636923075188,124.70466658868827 183.7636923075188,123.55954232241493 184.2621538459789,133.4075371863437 178.62953846156597,134.66715238476172 174.04369230754673,133.1785159477149 174.39261538465507,133.92283464351203 172.9969230769202,133.1785159477149 164.92184615368024,132.7777285623015 160.8843076925259,133.98008988820948 160.53538461541757,136.04127493838314 159.5883076924365,136.78558996337233 156.34830769221298,137.01460977923125 155.80000000004657,136.09852997411508" stroke="#4dd2ff" stroke-linecap="round" stroke-linejoin="round" stroke-width="0.5"><title>2021-03-26 1.5km</title></polyline><polyline fill="none" points="15.224390244111419,168.34689791392884 25.497560975840315,172.53955366491573 29.110104529652745,172.28021529776743 32.27108013955876,172.9717839359655 36.82439024397172,172.06409987455118 38.63066202099435,172.28021529776743 44.199999999953434,170.2919493840309 39.27038327534683,172.28021529776743 32.91080139367841,172.79889187871595 29.561672474024817,172.10732296772767 25.836236933944747,172.4098845005501 17.820905923377723,170.4648424302577 11.800000000046566,167.82821606399375" stroke="#4dd2ff" stroke-linecap="round" stroke-linejoin="round" stroke-width="0.5"><title>2021-03-26 1.6km</title></polyline><polyline fill="none" points="80.19999999995343,173.27489474992035 77.72461799671873,172.95897358993534 74.03904923587106,170.62115216255188 70.9035653648898,170.68433663778706 66.39286926970817,168.9151689800201 55.39117147680372,169.2310921344906 57.04142614570446,170.0524916065624 56.38132427842356,170.24204518122133 47.800000000046566,167.525105250068 54.73106960905716,170.17886066244682 64.5775891339872,170.8107055692235 72.99388794554397,172.83260508213425" stroke="#4dd2ff" stroke-linecap="round" stroke-linejoin="round" stroke-width="0.5"><title>2021-03-24 1.1km</title></polyline><polyline fill="none" points="116.19999999995343,172.77654312117375 113.86684782593511,172.62484956008848 111.5777173913084,170.90565273165703 107.92391304345801,170.2988760038279 104.93043478252366,168.93362574087223 95.77391304355115,169.13588526839158 96.56630434794351,169.9954873706447 89.39076086971909,168.0234568788146 83.80000000004657,168.73136613337556 86.00108695635572,169.0347555145563 89.56684782588854,168.07402185807587 96.17010869574733,170.09661693513044 108.18804347817786,170.60226445752778" stroke="#4dd2ff" stroke-linecap="round" stroke-linejoin="round" stroke-width="0.5"><title>2021-03-23 1.3km</title></polyline><polyline fill="none" points="151.55372340418398,172.00839395646472 140.65319148940034,168.1977517301857 136.21542553184554,168.94008690092596 131.82074468093924,168.44519690907327 133.02712765941396,169.2370206618798 132.5531914893072,169.3854874765093 125.61648936150596,167.3069480752456 119.80000000004657,168.14826267960598 125.18563829781488,167.4059263372328 131.69148936169222,169.28650960486266 140.30851063830778,169.88037654096843 152.19999999995343,173.49305192477186 150.26117021264508,172.55276905483333 152.19999999995343,172.00839395646472" stroke="#4dd2ff" stroke-linecap="round" stroke-linejoin="round" stroke-width="0.5"><title>2021-03-22 1.6km</title></polyline><polyline fill="none" points="183.3908186686458,154.40035543809063 183.8370313695632,154.71325449101278 183.58913542469963,155.70884013775503 185.8449885234004,156.05018300018855 186.4399387910962,156.53375136666 186.2416220352752,157.41555042698747 187.13404743687715,158.01289665215882 188.20000000006985,159.86181763574132 187.55547054321505,161.56850345237763 186.61346595268697,161.9667286958138 186.2664116298547,162.9907339506317 181.68033664883114,166.9729421932716 176.62325937265996,168.93558182899142 175.03672532516066,169.95956244683475 173.82203519518953,170.98353944465634 170.2771231828956,175.87582402906264 155.80000000004657,186.39964456189773" stroke="#4dd2ff" stroke-linecap="round" stroke-linejoin="round" stroke-width="0.5"><title>2021-03-21 1.3km</title></polyline><polyline fill="none" points="26.48717086960096,208.38517857063562 26.07591634884011,205.75538623851025 23.2558853487717,202.2489650909265 22.110247754957527,201.91180732200155 18.232705129659735,205.4519473639666 14.38453782745637,210.34065210353583 13.415152171277441,210.61037171573844 12.35764054628089,213.47612949530594 14.149535244214348,216.03843382067862 18.408957067294978,218.06129213422537 23.020882765296847,221.8035485612927 22.756504859076813,222.00583152932813 23.373386640450917,221.93840388656827 22.815255505032837,221.6349793302361 23.520263254991733,222.8149622080673 25.077155369566754,224.66921281427494 30.981595276040025,227.39999999999418 34.03662885946687,227.0965802751889 41.23358297417872,222.07325915875845 42.202968630590476,220.05042450808105 43.642359453602694,213.57727345006424 42.202968630590476,211.08238052678644 36.8272845367901,206.12625560935703 31.010970599018037,198.80994029249996 26.692798129981384,195.0 21.845869848621078,201.74322831313475 22.72712953633163,201.8443757283967 23.93151777575258,202.95699532702565 26.281543609220535,205.9576786723337 26.252168286358938,206.90170845240937" stroke="#4dd2ff" stroke-linecap="round" stroke-linejoin="round" stroke-width="0.5"><title>2021-03-20 3.7km</title></polyline><polyline fill="none" points="77.00788177340291,219.35822520282818 65.9418719210662,215.81386427010875 54.2374384237919,215.44720508519094 47.95960591128096,214.10278621781617 47.800000000046566,211.90282177831978 48.704433497507125,210.9250572975725 47.85320197045803,209.27507623744896 48.06600985210389,206.40287650207756 51.41773399012163,203.0417747971369 56.95073891640641,203.71399659698363 62.59014778328128,205.60843592655146 73.23054187186062,205.36399246775545 78.92315270937979,204.4473286375869 79.61477832496166,203.65288555435836 78.60394088667817,205.97510093427263 77.96551724127494,213.85834611038445 78.49753694585524,217.89159555191873 80.19999999995343,218.19714368216228" stroke="#4dd2ff" stroke-linecap="round" stroke-linejoin="round" stroke-width="0.5"><title>2021-03-19 1.6km</title></polyline><polyline fill="none" points="96.93039443169255,210.86902018316323 103.97169373568613,213.8911401220539 106.70301624154672,213.7184483971505 109.08352668222506,214.2365232652519 111.58932714629918,213.68966643314343 112.91740139224567,213.8047942724079 116.20000000006985,212.82620619080262 110.11090487265028,214.20774135220563 106.97865429252852,213.7184483971505 103.47053364291787,213.86235817504348 89.46310904889833,209.40112206328195 83.80000000004657,208.79669127948 85.02784222748596,208.96938591680373 84.20092807430774,208.6239965398563 84.45150812075008,208.48008417879464 86.35591647331603,208.5952140733716 88.88677494216245,208.16347673471319 89.73874709988013,208.79669127948 90.23990719264839,208.48008417879464 90.84129930404015,209.05573319725227 91.36751740146428,208.88303861100576 92.04408352682367,209.45868683455046 92.89605568465777,209.14208045203122 94.65011600940488,210.40850392080029 95.0009280743543,209.97676926487475 94.09883990732487,208.6239965398563 93.74802784237545,208.65277900357614 93.87331786553841,209.63138108013663 95.50208816712257,210.43728620850015 96.17865429248195,208.8254737261741 96.55452436220367,209.6025987129833 97.05568445485551,209.51625159435207 96.52946635743137,209.660163444496 96.83016241318546,209.5738163429196 96.10348027863074,208.56643160403473 97.18097447813489,208.48008417879464" stroke="#4dd2ff" stroke-linecap="round" stroke-linejoin="round" stroke-width="0.5"><title>2021-03-19 3.1km</title></polyline><polyline fill="none" points="133.43423154577613,227.39999999999418 133.2522621518001,226.83565530143096 132.90652030345518,226.7729502421571 132.39700600039214,227.25368855577835 133.0157019397011,223.72128159920976 132.7791417276021,224.57826147784363 132.88832336396445,226.14589862881985 132.54258151561953,226.41762122241198 130.5773120613303,226.3758177691343 130.3407518492313,225.12171033676714 130.5045243037166,224.01390926454042 135.27212242421228,222.94790653850941 138.47478375711944,222.73888576740865 138.3656021207571,202.52560308281682 139.43922154488973,201.14592919911956 141.65924815065227,199.18092360945593 141.25891548395157,198.17750946925662 138.54757151473314,194.99999999998545" stroke="#4dd2ff" stroke-linecap="round" stroke-linejoin="round" stroke-width="0.5"><title>2021-03-18 2.7km</title></polyline><polyline fill="none" points="166.78849373728735,224.72641299921088 167.69558678148314,224.88368381554028 167.8325064862147,225.6503772680735 168.1748057481018,225.84696485774475 170.02322176244343,226.2204807440139 172.4193165958859,226.00423478984158 174.07946801616345,226.47604384178703 175.61981469480088,227.39999999999418 176.0134588459041,226.16150459794153 175.79096432571532,220.91255770938005 177.21150626271265,220.77494301002298 175.1748256542487,220.20482395743602 173.20660489820875,220.10652740424848 172.33374178042868,219.16287802677834 170.60513050766895,201.29167431416863 172.48777644825168,199.08961090500816 173.82274356967537,198.32281525481085 172.86430563637987,196.6122604770353 171.22126917913556,195.0" stroke="#4dd2ff" stroke-linecap="round" stroke-linejoin="round" stroke-width="0.5"><title>2021-03-17 2.8km</title></polyline><polyline fill="none" points="12.891489361878484,250.25147919962183 13.293617021525279,250.25147919962183 15.304255319526419,251.10926081240177 15.878723404370248,251.8350751643302 21.853191489353776,253.4846503083827 28.172340425662696,254.3424277761369 30.29787234053947,254.2104620836908 31.791489361785352,254.540376266581 32.53829787252471,254.8043074956513 35.52553191501647,255.26618689624593 37.99574468098581,256.2559273955412 38.800000000046566,256.4538753196248 40.178723404649645,257.17968387377914 41.327659574802965,257.90549164038384 41.78723404277116,258.03745660436107 42.30425531952642,258.30138645414263 43.56808510655537,258.63129861990456 44.200000000186265,258.5653161998489 44.14255319186486,258.5653161998489 44.14255319186486,258.5653161998489 43.970212766435,258.63129861990456 44.08510638331063,258.5653161998489 44.14255319186486,258.5653161998489 44.200000000186265,258.63129861990456 43.85531914886087,258.5653161998489 43.10851063858718,258.5653161998489 40.58085106383078,258.63129861990456 38.85744680883363,258.103439076629 37.19148936192505,257.7735266505624 35.52553191501647,257.64156163466396 33.859574468340725,257.7075441456982 32.997872340725735,257.7735266505624 31.331914893817157,257.90549164038384 30.5851063830778,257.90549164038384 28.0,257.7075441456982 27.195744680939242,257.50959659245564 25.644680850906298,257.1137013104162 24.84042553207837,256.71780579409096 23.289361702278256,256.1899447409087 22.4851063832175,255.92601405835012 19.210638298187405,255.26618689624593 17.08510638331063,254.408410612843 16.912765957647935,254.01251349569065 17.602127659600228,253.88054773787735 17.88936170237139,253.88054773787735 18.119148936355487,253.6166161444271 17.88936170237139,253.55063322966453 17.314893617061898,253.41866738075623 17.027659574523568,253.35268444666872 16.855319149093702,253.28670150588732 16.51063829800114,253.28670150588732 16.280851064017043,253.15473560494138 15.993617021478713,253.15473560494138 15.706382978707552,253.15473560494138 15.304255319526419,253.02276967803482 15.017021276755258,252.89080372510944 14.844680851092562,252.82482073880965 14.270212766015902,252.4949057100457 14.097872340586036,252.36293965292862 13.810638298047706,252.16499051835854 13.63829787261784,252.0330243963399 13.465957446955144,251.8350751643302 13.236170212738216,251.57114276383072 12.834042553324252,251.24122711684322 12.48936170223169,251.04327765043126 12.317021276801825,250.91131130699068 12.029787234263495,250.58139533468056 11.9148936169222,249.98754617443774 11.9148936169222,249.45967981184367 11.857446808833629,249.12976312352112 11.800000000046566,248.8658296558424 11.972340425709262,248.33796240825905 11.9148936169222,247.61214426264632 11.9148936169222,247.2822266634903 11.857446808833629,247.08427602576558 11.972340425709262,246.88632532971678 11.9148936169222,246.82034175138688 11.972340425709262,246.35845652030548 12.029787234263495,246.02853830280947 12.317021276801825,245.96255463984562 12.891489361878484,245.76460361178033 13.178723404416814,245.63263622717932 13.35106382984668,245.56665252521634 13.695744680939242,245.4346851016744 13.753191489493474,245.4346851016744 13.753191489493474,245.36870138003724 13.810638298047706,245.36870138003724" stroke="#4dd2ff" stroke-linecap="round" stroke-linejoin="round" stroke-width="0.5"><title>2021-03-02 1.4km</title></polyline><polyline fill="none" points="53.752558139618486,252.47604822559515 54.1293023256585,252.64913867396535 58.273488372098655,253.42804527038243 60.910697674844414,254.38004128233297 61.890232557896525,254.81276640109718 64.52744186064228,255.5051261470071 65.50697674416006,255.5051261470071 68.29488372104242,255.33203626197064 69.19906976725906,255.07240136980545 71.98697674414143,254.89931139914552 73.71999999973923,255.5051261470071 74.62418604642153,255.85130581533303 76.20651162834838,256.4571199059719 77.71348837204278,256.71675438818056 79.59720930224285,256.54366474208655 79.89860465098172,256.3705750615918 80.20000000018626,256.54366474208655 80.12465116288513,257.7552915494307 78.76837209332734,258.1014703299734 77.63813953474164,259.0534612722113 77.11069767409936,259.2265504238312 76.58325581392273,259.3996395409922 76.28186046518385,259.3996395409922 75.8297674418427,259.4861840865924 75.52837209310383,259.65927315247245 74.47348837181926,260.0919956682483 74.62418604642153,260.5247179703438 75.15162790706381,260.8708956586197 75.15162790706381,260.95744005945744 75.15162790706381,261.0439844514476 75.22697674436495,260.95744005945744 74.85023255832493,260.8708956586197 74.39813953498378,261.0439844514476 74.24744186084718,261.1305288349977 74.09674418577924,261.21707321022404 74.02139534894377,261.30361757666105 74.02139534894377,261.30361757666105 73.71999999973923,260.8708956586197 73.56930232560262,260.6978068315075 73.34325581369922,260.43817352713086 73.26790697686374,260.2650846147444 72.51441860478371,260.0919956682483 72.21302325557917,260.0919956682483 71.83627907000482,260.0919956682483 71.4595348839648,260.0054511822527 71.00744186062366,260.0054511822527 70.63069767458364,260.0054511822527 69.87720930250362,259.83236218465026 69.50046511599794,259.7458176728105 69.12372093042359,259.65927315247245 68.74697674391791,259.5727286238689 67.99348837230355,259.3996395409922 67.692093023099,259.2265504238312 67.31534883752465,259.1400058523286 66.93860465148464,258.96691668382846 66.56186046497896,258.7938274812768 66.26046511624008,258.53419361362467 65.58232558146119,258.18801500368863 64.9041860466823,257.84183625719743 64.37674418650568,257.3225678814342 64.0,257.14947835484054 63.623255813959986,256.9763887937879 63.24651162791997,256.8032991986838 62.8697674414143,256.6302095694118 62.643720930442214,256.54366474208655 62.040930232498795,256.28403020836413 61.739534883759916,256.19748534687096 61.43813953502104,256.11094047670485 61.1367441858165,255.9378507109941 60.760000000242144,255.85130581533303 60.38325581373647,255.76476091117365 59.55441860482097,255.6782159982249 59.25302325608209,255.59167107695248 58.87627906957641,255.5051261470071 58.42418604623526,255.5051261470071 58.122790697496384,255.41858120873803 57.369302325416356,255.33203626197064 56.992558139842004,255.15894634247525 56.31441860459745,254.6396763792145 55.56093023251742,254.38004128233297 55.25953488377854,254.29349623300368 54.88279069773853,254.2069511752925 54.43069767439738,254.12040610879194 54.1293023256585,254.0338610339677 53.752558139618486,253.86077085818397 53.07441860483959,253.51459040498594 52.69767441879958,253.34150012704777 52.39627906959504,253.1684098149999 51.64279069798067,252.7356838855194 51.41674418607727,252.56259345408762 51.11534883733839,252.38950298860436 50.437209302559495,251.95677667489508 50.135813953820616,251.6971407844103 49.75906976731494,251.17786877282197 49.23162790713832,250.57205103774322 48.32744186045602,249.87968739971984 48.32744186045602,249.6200508949696 48.17674418631941,249.1873232156504 48.0260465121828,248.8411409186665 47.799999999813735,247.71604751050472 48.0260465121828,247.28331889252877 48.101395349018276,246.85059006122174 48.17674418631941,246.50440684246132 48.252093023620546,246.24476933880942 48.252093023620546,245.81203999521676 48.252093023620546,244.68694270367268 48.252093023620546,243.90802834916394 49.08093023300171,243.56184396956814 49.68372093047947,243.21565945347538 50.21116279112175,243.04256714414805 50.587906977161765,242.956020976766 50.738604651298374,242.78292861633236 51.79348837211728,242.69638242339715" stroke="#4dd2ff" stroke-linecap="round" stroke-linejoin="round" stroke-width="0.5"><title>2020-12-25 1.0km</title></polyline><polyline fill="none" points="84.28721804521047,248.25758766470244 84.65263157896698,248.60734758590115 84.9571428571362,248.95710733463056 85.62706766906194,249.37681880564196 88.24586466164328,250.07633737189462 89.64661654131487,250.49604818061925 90.56015037605539,250.70590349193662 94.82330827065744,252.38474374642828 96.04135338333435,253.22416238381993 97.44210526323877,253.85372570966138 99.5127819548361,254.62319123843918 100.30451127816923,254.76309397199657 101.76616541366093,254.76309397199657 102.6187969923485,254.76309397199657 104.0804511278402,254.48328847723315 105.42030075215735,254.34338568808744 106.9428571430035,254.41333708609454 107.7954887219239,254.34338568808744 110.17067669192329,254.76309397199657 110.96240601502359,255.0428993566893 112.48496240586974,255.3227046309621 113.33759398525581,255.252753322653 114.86015037610196,255.18280200759182 115.53007518826053,255.11285068566212 116.20000000018626,255.3926559324027 116.13909774436615,255.46260722674197 115.95639097783715,255.53255851415452 115.89548872201703,255.6025097949314 115.89548872201703,255.67246106854873 115.83458646619692,255.6025097949314 115.71278195502236,255.74241233529756 115.71278195502236,255.6025097949314 115.77368421084248,255.67246106854873 115.83458646619692,255.74241233529756 115.77368421084248,255.67246106854873 115.89548872201703,255.53255851415452 115.83458646619692,255.53255851415452 115.77368421084248,255.53255851415452 115.77368421084248,255.6025097949314 115.77368421084248,255.53255851415452 115.77368421084248,255.53255851415452 115.77368421084248,255.53255851415452 115.77368421084248,255.6025097949314 115.71278195502236,255.6025097949314 115.71278195502236,255.6025097949314 115.65187969920225,255.6025097949314 115.59097744408064,255.6025097949314 115.71278195502236,255.6025097949314 115.71278195502236,255.6025097949314 115.71278195502236,255.6025097949314 115.65187969920225,255.6025097949314 115.65187969920225,255.67246106854873 115.53007518826053,255.6025097949314 114.1293233083561,255.6025097949314 112.54586466168985,255.6025097949314 110.96240601502359,255.252753322653 110.23157894751057,255.0428993566893 108.70902255643159,254.62319123843918 107.91729323333129,254.48328847723315 106.27293233084492,254.48328847723315 105.48120300774463,254.41333708609454 103.83684210549109,254.5532398610958 102.13157894741744,254.76309397199657 101.33984962431714,254.76309397199657 99.6954887220636,254.69314260868123 98.84285714291036,254.48328847723315 95.0060150376521,253.22416238381993 94.2142857145518,252.94435628160136 91.96090225572698,252.38474374642828 91.35187969915569,252.31479214859428 88.91578947380185,251.89508241601288 87.51503759389743,251.2655173515668 86.72330827079713,250.84580699831713 85.20075187995099,250.00638554635225 83.80000000004657,249.51672257407336" stroke="#4dd2ff" stroke-linecap="round" stroke-linejoin="round" stroke-width="0.5"><title>2020-12-08 1.1km</title></polyline><polyline fill="none" points="119.80000000004657,248.66025647684 120.11153846164234,248.71989508066326 122.18846153863706,250.3301351548289 122.86346153868362,250.56868887529708 125.51153846178204,251.3439878168865 126.75769230769947,251.7018177623395 127.38076923089102,251.94037094159285 128.8346153846942,252.47711525129853 130.1326923079323,253.13313542708056 130.80769230797887,253.55060244118795 134.13076923089102,254.6837257409352 134.85769230802543,254.74336375045823 136.93461538478732,254.5048116768594 137.55769230774604,254.44517364358762 140.828846154036,254.5048116768594 141.50384615384974,254.56444970407756 143.52884615422226,255.16082965314854 145.60576923075132,255.3397435231018 146.22884615394287,255.28010557219386 147.57884615426883,255.3397435231018 149.6557692307979,255.04155371017987 150.27884615398943,254.9819157300517 151.57692307722755,254.8626397519838 152.20000000018626,254.80300175427692 151.94038461567834,254.3258975597564 150.48653846164234,254.26625950890593 149.86346153868362,254.3258975597564 148.56538461567834,254.6837257409352 148.09807692328468,254.80300175427692 146.74807692319155,255.1011916846037 146.125,255.16082965314854 144.82692307699472,255.16082965314854 144.15192307718098,255.04155371017987 142.85384615394287,254.80300175427692 142.23076923121698,254.62408772535855 140.20576923084445,254.26625950890593 139.53076923103072,254.26625950890593 138.18076923093759,254.3258975597564 137.45384615380317,254.3258975597564 136.10384615394287,254.44517364358762 134.75384615408257,254.5048116768594 133.45576923107728,254.44517364358762 132.20961538492702,254.14698338980088 131.58653846173547,253.968069167051 130.23653846187517,253.55060244118795 129.61346153868362,253.31204989692196 128.36730769230053,252.8945827182033 126.70576923084445,252.41747701808345 126.23846153868362,252.35783877922222 124.99230769253336,252.0596474960912 123.27884615422226,251.52290281601017 122.8115384618286,251.16507276479388 121.7211538462434,250.56868887529708 121.1500000001397,250.27049670991255" stroke="#4dd2ff" stroke-linecap="round" stroke-linejoin="round" stroke-width="0.5"><title>2020-12-03 1.3km</title></polyline><polyline fill="none" points="187.85774647886865,252.85174972674577 188.14295774628408,253.90004823164782 188.19999999995343,254.2276411751518 187.2302816901356,254.817308066471 185.57605633791536,254.75178954889998 183.29436619696207,254.35867830732604 181.12676056311466,253.4414178393199 180.38521126750857,253.31038052606164 176.1640845069196,251.67241193179507 174.62394366180524,251.41033658164088 172.28521126741543,251.4758554289583 170.68802816863172,251.41033658164088 169.54718309850432,251.41033658164088 168.86267605610192,251.41033658164088 167.32253521098755,251.27929886814672 166.80915492936037,251.21378000173718 165.0408450702671,251.08274224895285 164.3563380278647,251.01722336321836 161.96056338003837,250.8206666666665 161.21901408419944,250.68962883658241 159.73591549298726,250.55859098071232 157.7964788733516,249.70684428757522 157.05492957727984,249.44476816238603 155.80000000004657,249.1826919335872 157.22605633782223,249.51028720336035 158.48098591552116,250.09995828161482 159.73591549298726,250.68962883658241 160.47746478859335,250.75514775473857 162.35985915502533,250.95170447067358 162.93028169008903,251.01722336321836 164.41338028153405,251.14826112851733 165.15492957714014,251.21378000173718 166.69507042248733,251.21378000173718 167.37957746488973,251.27929886814672 168.91971830977127,251.41033658164088 169.60422535194084,251.41033658164088 171.7147887321189,251.4758554289583 172.3992957745213,251.4758554289583 173.42605633777566,251.34481772815343 173.76830985909328,251.34481772815343 173.9964788730722,251.34481772815343 174.2246478870511,251.34481772815343 174.45281690103002,251.34481772815343 174.73802816891111,251.27929886814672 175.02323943632655,251.27929886814672 175.59366197162308,251.34481772815343 175.82183098583482,251.34481772815343 176.33521126769483,251.54137426958187 176.84859154908918,251.80344956781482 176.79154929565266,251.934487178165 176.79154929565266,252.0000059735612 176.7345070419833,252.0000059735612" stroke="#4dd2ff" stroke-linecap="round" stroke-linejoin="round" stroke-width="0.5"><title>2020-11-30 1.0km</title></polyline></svg>