<?xml version="1.0" encoding="utf-8" ?>
<svg baseProfile="full" height="300mm" version="1.1" viewBox="0,0,200,300" width="200mm" xmlns="http://www.w3.org/2000/svg" xmlns:ev="http://www.w3.org/2001/xml-events" xmlns:xlink="http://www.w3.org/1999/xlink"><defs /><rect fill="#222222" height="300" width="200" x="0" y="0" /><text fill="#FFFFFF" style="font-size:12px; font-family:Arial; font-weight:bold;" x="10" y="20">Over 3km Runs</text><text fill="#FFFFFF" style="font-size:4px; font-family:Arial" x="10" y="280">ATHLETE</text><text fill="#FFFFFF" style="font-size:9px; font-family:Arial" x="10" y="290">jdzj</text><text fill="#FFFFFF" style="font-size:4px; font-family:Arial" x="120" y="280">STATISTICS</text><text fill="#FFFFFF" style="font-size:3px; font-family:Arial" x="120" y="285">Number: 20</text><text fill="#FFFFFF" style="font-size:3px; font-family:Arial" x="120" y="290">Weekly: 2.9</text><text fill="#FFFFFF" style="font-size:3px; font-family:Arial" x="141" y="285">Total: 35.5 km</text><text fill="#FFFFFF" style="font-size:3px; font-family:Arial" x="141" y="290">Avg: 1.8 km</text><text fill="#FFFFFF" style="font-size:3px; font-family:Arial" x="167" y="285">Min: 1.0 km</text><text fill="#FFFFFF" style="font-size:3px; font-family:Arial" x="167" y="290">Max: 3.7 km</text><polyline fill="none" points="37.09574468084611,68.15149584179744 32.35638297861442,66.50185863036313 23.41622340423055,66.33689455126296 13.72207446815446,65.05842073142412 12.89627659576945,64.27483807096723 12.25,60.356902740721125 13.18351063830778,59.61455296215718 15.1223404253833,59.53206957192742 13.36303191492334,54.046887608012185 13.79388297861442,46.623218463442754 16.48670212761499,42.787604422162985 17.56382978730835,40.189265238441294 22.69813829776831,36.642299964412814 24.78058510646224,38.91071145745809 26.71941489353776,39.32314858818427 27.72473404253833,40.5192139664141 31.96143617015332,40.5192139664141 38.49601063830778,41.55030206308584 41.65558510622941,43.20003772818018 46.89760638284497,47.86050580863957 51.85239361668937,56.438930696371244 51.99601063807495,57.55246332779643 50.84707446792163,58.54226762152393 50.38031914876774,60.10945296092541 51.38563829776831,60.06821131671313 52.75,63.5737365509558 51.85239361668937,65.4295909528737 48.72872340423055,66.00696619783412 47.9747340423055,66.9555095123651 46.21542553161271,66.08944831049303 45.46143617015332,66.41937659896212 43.59441489353776,65.84200192347635 42.69680851045996,68.35770003558719 42.40957446792163,68.06901413583546" stroke="#4dd2ff" stroke-linecap="round" stroke-linejoin="round" stroke-width="0.5"><title>2021-04-02 3.2km</title></polyline><polyline fill="none" points="61.493368700379506,49.075854398775846 75.19031830248423,55.18379590642871 82.60278514609672,55.12209982558852 87.11472148541361,56.17093237012159 93.18435013270937,54.6902270904975 97.75,54.75192321353825 87.4370026527904,56.10923638695385 82.92506631324068,55.06040373892756 75.62002652534284,55.43058016843861 66.16644562361762,52.715947931981646 57.25,48.82906762987841" stroke="#4dd2ff" stroke-linecap="round" stroke-linejoin="round" stroke-width="0.5"><title>2021-04-01 1.4km</title></polyline><polyline fill="none" points="102.25,47.39889063627925 106.82364975474775,52.0432009549113 112.19271685765125,53.185240195773076 118.48977086762898,56.45907665556297 127.10679214424454,56.306805500236806 131.87929623574018,57.60110936372075 142.75,56.306805500236806 135.12725040945224,57.44883843360003 125.913666121196,56.078398710873444 117.69435351900756,56.45907665556297 105.36538461549208,53.10910429881187 104.1059738136828,52.42388088948792 105.56423895293847,51.81479290389689" stroke="#4dd2ff" stroke-linecap="round" stroke-linejoin="round" stroke-width="0.5"><title>2021-03-29 1.2km</title></polyline><polyline fill="none" points="166.7614520015195,72.75 164.87405156018212,62.10714260087116 163.56107734004036,61.73040211893385 157.1603280180134,52.500214032130316 152.8931618030183,52.12346977205016 166.18702577985823,32.25 170.6183137721382,34.98144919535844 179.31676797941327,43.83505856554257 178.41409820318222,50.145559976343066 182.1068381969817,71.80815898114815 170.3721311064437,63.99084278731607 166.10496489098296,63.143178161699325 165.6946604475379,64.93269149173284" stroke="#4dd2ff" stroke-linecap="round" stroke-linejoin="round" stroke-width="0.5"><title>2021-03-28 1.4km</title></polyline><polyline fill="none" points="32.001538461539894,93.91413888288662 34.30692307674326,95.27397361362819 34.86769230756909,94.12884979927912 37.11076923087239,93.9857091953163 37.6092307693325,92.84058334771544 38.294615384424105,93.62785756215453 39.35384615394287,92.84058334771544 42.656153846066445,94.701411932474 44.58769230777398,93.27000575244892 50.25769230746664,94.98769282939611 49.88384615397081,93.55628721421817 52.56307692313567,93.8425685634138 50.569230769062415,93.12686497910181 51.06769230775535,91.98173777596094 51.19230769225396,93.55628721421817 50.88076923089102,92.84058334771544 50.19538461556658,93.77099823660683 50.31999999983236,92.62587204994634 51.19230769225396,93.8425685634138 50.25769230746664,93.55628721421817 52.12692307704128,93.34157612844137 52.12692307704128,94.05727950070286 51.31692307675257,93.05529458174715 50.00846153846942,93.77099823660683 52.62538461526856,93.34157612844137 51.81538461521268,92.69744248967618 51.566153845982626,94.84455239516683 50.444615384563804,93.91413888288662 50.31999999983236,94.701411932474 51.8776923075784,93.69942790298956 51.19230769225396,93.77099823660683 52.75,95.70339457812952 52.56307692313567,93.62785756215453 51.62846153858118,93.77099823660683 52.12692307704128,94.77298216725467 50.75615384639241,95.20240342832403 50.569230769062415,94.4151309223962 49.82153846160509,95.48868412763113 47.20461538457312,95.13083323586034 47.20461538457312,93.69942790298956 47.827692307531834,106.00942148291506 40.786923076957464,107.58394048089394 35.05461538466625,105.72314493457088 35.490769230760634,106.65354330436094 33.746153846150264,105.72314493457088 23.65230769221671,105.22216070286231 18.605384615482762,106.72511236020364 18.169230769155547,109.30159367294982 16.985384615371004,110.23198745417176 12.935384615324438,110.51826222403906 12.25,109.37316246761475" stroke="#4dd2ff" stroke-linecap="round" stroke-linejoin="round" stroke-width="0.5"><title>2021-03-26 1.5km</title></polyline><polyline fill="none" points="61.530487805372104,98.68362239241833 74.3719512198586,103.92444208118832 78.88763066218235,103.60026912222384 82.83885017433204,104.46472991997143 88.53048780513927,103.33012484322535 90.78832752630115,103.60026912222384 97.75,101.11493673006771 91.58797909435816,103.60026912222384 83.63850174238905,104.24861484841676 79.45209059258923,103.38415370968869 74.79529616772197,103.76235562574584 64.77613240433857,101.33105303783668 57.25,98.03527008002857" stroke="#4dd2ff" stroke-linecap="round" stroke-linejoin="round" stroke-width="0.5"><title>2021-03-26 1.6km</title></polyline><polyline fill="none" points="142.75,104.84361843741499 139.655772495782,104.44871698744828 135.0488115446642,101.52644020324806 131.12945670587942,101.60542079724837 125.49108658730984,99.39396122511243 111.73896434600465,99.78886516811326 113.80178268207237,100.8156145082321 112.97665534797125,101.05255647655576 102.25,97.65638156264322 110.91383701143786,100.97357582813129 123.2219864174258,101.76338196161669 133.74235993204638,104.29075635276968" stroke="#4dd2ff" stroke-linecap="round" stroke-linejoin="round" stroke-width="0.5"><title>2021-03-24 1.1km</title></polyline><polyline fill="none" points="187.75,104.22067890147446 184.8335597824771,104.0310619500815 181.97214673901908,101.88206591451308 177.4048913042061,101.12359500478487 173.663043478271,99.41703217604663 162.21739130443893,99.66985658550402 163.2078804350458,100.74435921327677 154.23845108714886,98.27932109846734 147.25,99.1642076667049 150.00135869556107,99.54344439320266 154.4585597824771,98.34252732252935 162.71263586962596,100.87077116890578 177.73505434789695,101.50283057184424" stroke="#4dd2ff" stroke-linecap="round" stroke-linejoin="round" stroke-width="0.5"><title>2021-03-23 1.3km</title></polyline><polyline fill="none" points="51.94215425499715,152.01049244561 38.31648936145939,147.2471896627685 32.76928191469051,148.17510862619383 27.27593085099943,147.55649613635615 28.78390957415104,148.5462758273934 28.19148936145939,148.73185934562935 19.52061170176603,146.13368509407155 12.25,147.1853283495293 18.98204787215218,146.25740792159922 27.11436170199886,148.6081370061147 37.88563829776831,149.35047067626147 52.75,153.86631490598666 50.32646276568994,152.69096131855622 52.75,152.01049244561" stroke="#4dd2ff" stroke-linecap="round" stroke-linejoin="round" stroke-width="0.5"><title>2021-03-22 1.6km</title></polyline><polyline fill="none" points="91.73852333577815,130.00044429762056 92.29628921183757,130.3915681137587 91.98641928075813,131.63605017220834 94.80623565416317,132.06272875022842 95.54992348875385,132.667189208325 95.30202754389029,133.76943803371978 96.41755929589272,134.51612081518397 97.75,136.82727204466937 96.94433817884419,138.96062931543565 95.76683244074229,139.45841086975997 95.33301453711465,140.73841743828962 89.60042081098072,145.7161777415895 83.27907421567943,148.16947728622472 81.2959066563053,149.44945305853616 79.7775439938996,150.72942430581315 75.34640397853218,156.84478003630647 57.25,169.99955570237944" stroke="#4dd2ff" stroke-linecap="round" stroke-linejoin="round" stroke-width="0.5"><title>2021-03-21 1.3km</title></polyline><polyline fill="none" points="120.60896358732134,146.48147321326542 120.09489543619566,143.19423279812327 116.56985668628477,138.8112063636654 115.13780969381332,138.3897591525165 110.2908814123366,142.8149342049437 105.48067228472792,148.9258151294198 104.26894021430053,149.26296464467305 102.94705068296753,152.84516186913243 105.18691905541345,156.04804227585555 110.51119633438066,158.5766151677817 116.2761034569703,163.25443570161588 115.94563107402064,163.50728941164562 116.71673330082558,163.42300485819578 116.01906938152388,163.04372416279512 116.9003290690016,164.51870276010595 118.8464442123659,166.83651601785095 126.22699409537017,170.25 130.04578607459553,169.8707253439643 139.04197871801443,163.59157394847716 140.25371078867465,161.06303063509404 142.0529493172653,152.97159181258758 140.25371078867465,149.85297565849032 133.53410567133687,143.657819511689 126.26371324900538,134.51242536562495 120.86599766276777,129.75 114.80733731109649,138.1790353914257 115.90891192061827,138.30546966052498 117.41439721989445,139.69624415878206 120.35192951164208,143.4470983404026 120.31521035823971,144.62713556550443" stroke="#4dd2ff" stroke-linecap="round" stroke-linejoin="round" stroke-width="0.5"><title>2021-03-20 3.7km</title></polyline><polyline fill="none" points="183.75985221681185,160.19778150354978 169.92733990121633,155.76733033760684 155.29679802968167,155.30900635645958 147.44950738921762,153.628482772212 147.25,150.87852722289972 148.38054187200032,149.65632162196562 147.31650246330537,147.59384529676754 147.58251231512986,144.0035956276115 151.77216748753563,139.80221849639202 158.6884236454498,140.64249574620044 165.7376847290434,143.01054490817478 179.03817733982578,142.70499058469431 186.15394088672474,141.55916079698363 187.01847290620208,140.56610694288975 185.7549261082895,143.46887616778258 184.95689655165188,153.3229326379951 185.62192118237726,158.36449443991296 187.75,158.74642960273195" stroke="#4dd2ff" stroke-linecap="round" stroke-linejoin="round" stroke-width="0.5"><title>2021-03-19 1.6km</title></polyline><polyline fill="none" points="28.66299303958658,198.33627522893948 37.46461716957856,202.11392515257467 40.8787703019334,201.89806049643084 43.854408352752216,202.54565408156486 46.98665893287398,201.8620830414293 48.64675174013246,202.00599284050986 52.75,200.78275773851783 45.13863109075464,202.5096766902425 41.22331786563154,201.89806049643084 36.838167053530924,202.0779477187898 19.328886311035603,196.50140257910243 12.25,195.74586409932817 13.784802784328349,195.96173239601194 12.751160092884675,195.52999567482038 13.064385150908493,195.35010522350785 15.444895591703244,195.49401759169996 18.608468677615747,194.95434591840603 19.67343387485016,195.74586409932817 20.29988399078138,195.35010522350785 21.05162412999198,196.06966649653623 21.709396751830354,195.85379826373537 22.555104408529587,196.57335854318808 23.620069605764,196.1776005650463 25.812645011697896,197.76062990099308 26.251160092884675,197.2209615810716 25.12354988406878,195.52999567482038 24.685034802882,195.56597375447745 24.841647331835702,196.7892263501708 26.877610208815895,197.7966077606252 27.723317865631543,195.78184215771034 28.193155452609062,196.7532483912364 28.819605568540283,196.64531449295464 28.161832946818322,196.82520430564182 28.53770301642362,196.71727042866405 27.629350348142907,195.45803950502886 28.9762180976104,195.35010522350785" stroke="#4dd2ff" stroke-linecap="round" stroke-linejoin="round" stroke-width="0.5"><title>2021-03-19 3.1km</title></polyline><polyline fill="none" points="74.29278943233658,219.0 74.06532768986654,218.29456912676687 73.63315037940629,218.21618780269637 72.996257500723,218.81711069471203 73.7696274247719,214.40160199900856 73.47392715967726,215.4728268473118 73.61040420515928,217.43237328602117 73.17822689458262,217.77202652799315 70.7216400768375,217.7197722114215 70.42593981162645,216.15213792095892 70.63065537984949,214.76738658067188 76.59015303046908,213.43488317311858 80.5934796964284,213.1736072092608 80.45700265117921,187.9070038535283 81.79902693128679,186.1824114988849 84.57406018837355,183.72615451182355 84.07364435505588,182.4718868365744 80.68446439353283,178.5" stroke="#4dd2ff" stroke-linecap="round" stroke-linejoin="round" stroke-width="0.5"><title>2021-03-18 2.7km</title></polyline><polyline fill="none" points="115.98561717162374,215.6580162490136 117.11948347685393,215.85460476942535 117.29063310776837,216.81297158508096 117.71850718511268,217.05870607218822 120.02902720309794,217.52560093002103 123.02414574485738,217.25529348730925 125.0993350201752,217.84505480223743 127.02476836845744,219.0 127.51682355743833,217.45188074742327 127.2387054071296,210.89069713673962 129.01438282837626,210.71867876253964 126.46853206783999,210.0060299468023 124.00825612281915,209.88315925530333 122.91717722546309,208.70359753347293 120.75641313462984,186.36459289271443 123.10972056025639,183.61201363126747 124.77842946210876,182.65351906852447 123.58038204547483,180.51532559629413 121.52658647391945,178.5" stroke="#4dd2ff" stroke-linecap="round" stroke-linejoin="round" stroke-width="0.5"><title>2021-03-17 2.8km</title></polyline><polyline fill="none" points="148.61436170199886,196.5643489995855 149.11702127661556,196.5643489995855 151.6303191492334,197.63657601556042 152.34840425522998,198.54384395538364 159.81648936169222,200.60581288556568 167.71542553184554,201.6780347202439 170.3723404253833,201.5130776046426 172.23936170199886,201.92547033325536 173.17287234030664,202.25538436957868 176.90691489353776,202.8327336203074 179.99468085123226,204.06990924442653 181.0,204.31734414957464 182.72340425569564,205.22460484225303 184.15957446815446,206.13186455052346 184.73404255323112,206.2968207554659 185.3803191492334,206.6267330676783 186.9601063830778,207.0391232749098 187.75,206.95664524979657 187.67819148954004,206.95664524979657 187.67819148954004,206.95664524979657 187.4627659576945,207.0391232749098 187.60638297908008,206.95664524979657 187.67819148954004,206.95664524979657 187.75,207.0391232749098 187.31914893630892,206.95664524979657 186.38563829800114,206.95664524979657 183.22606382984668,207.0391232749098 181.07180851092562,206.3792988458299 178.98936170199886,205.96690831327578 176.90691489353776,205.8019520433736 174.82446808507666,205.8844301821664 173.74734042584896,205.96690831327578 171.66489361738786,206.13186455052346 170.73138297861442,206.13186455052346 167.5,205.8844301821664 166.49468085123226,205.6369957405841 164.55585106369108,205.14212663803482 163.55053191492334,204.6472572426428 161.61170212784782,203.9874309261795 160.60638297908008,203.6575175729813 156.51329787261784,202.8327336203074 153.85638297908008,201.76051326608285 153.64095744676888,201.26564186962787 154.5026595746167,201.10068467236124 154.86170212784782,201.10068467236124 155.14893617015332,200.77077018056298 154.86170212784782,200.68829153710976 154.14361702091992,200.52333422598895 153.78457446815446,200.44085555832135 153.56914893630892,200.35837688238826 153.13829787261784,200.35837688238826 152.85106382984668,200.19341950619128 152.49202127661556,200.19341950619128 152.13297872338444,200.19341950619128 151.6303191492334,200.02846209757263 151.27127659600228,199.8635046564741 151.05585106369108,199.78102592355572 150.3377659576945,199.3686321376008 150.1223404253833,199.20367456617532 149.76329787261784,198.95623814797727 149.54787234030664,198.79128049546853 149.3324468084611,198.54384395538364 149.04521276568994,198.2139284547884 148.5425531915389,197.80153389606858 148.11170212784782,197.55409706308274 147.89627659600228,197.38913913373835 147.53723404277116,196.9767441683798 147.39361702091992,196.23443271807628 147.39361702091992,195.5745997648337 147.32180851092562,195.16220390447415 147.25,194.83228706987575 147.46542553184554,194.17245301039657 147.39361702091992,193.265180328337 147.39361702091992,192.85278332937742 147.32180851092562,192.60534503223607 147.46542553184554,192.35790666216053 147.39361702091992,192.27542718924815 147.46542553184554,191.6980706504546 147.53723404277116,191.2856728785555 147.89627659600228,191.20319329987979 148.61436170199886,190.9557545147254 148.97340425522998,190.79079528397415 149.18882978707552,190.70831565652043 149.61968085123226,190.54335637716576 149.69148936169222,190.54335637716576 149.69148936169222,190.4608767250902 149.76329787261784,190.4608767250902" stroke="#4dd2ff" stroke-linecap="round" stroke-linejoin="round" stroke-width="0.5"><title>2021-03-02 1.4km</title></polyline><polyline fill="none" points="19.690697674639523,248.0950602820376 20.161627907305956,248.31142334244214 25.341860465239733,249.28505658800714 28.638372093439102,250.47505160293076 29.862790697719902,251.01595800137147 33.15930232591927,251.88140768371522 34.38372093020007,251.88140768371522 37.86860465165228,251.66504532750696 38.99883720930666,251.3405017122859 42.4837209302932,251.12413924885914 44.64999999990687,251.88140768371522 45.78023255849257,252.31413226912264 47.75813953531906,253.0713998825522 49.64186046505347,253.395942985313 51.99651162838563,253.17958092759363 52.373255813959986,252.96321882703342 52.75,253.17958092759363 52.65581395383924,254.6941144367447 50.96046511642635,255.12683791248128 49.54767441889271,256.31682659033686 48.88837209297344,256.53318802977446 48.22906976751983,256.7495494262548 47.85232558147982,256.7495494262548 47.287209302186966,256.85773010831326 46.91046511661261,257.0740914406488 45.59186046523973,257.61499458528124 45.78023255849257,258.15589746297337 46.43953488394618,258.5886195732746 46.43953488394618,258.69680007430725 46.43953488394618,258.8049805643968 46.53372093010694,258.69680007430725 46.062790697906166,258.5886195732746 45.497674418613315,258.8049805643968 45.30930232582614,258.9131610437762 45.1209302325733,259.0213415127946 45.02674418594688,259.12952197087 45.02674418594688,259.12952197087 44.64999999990687,258.5886195732746 44.46162790711969,258.372258539428 44.179069767240435,258.0477169089718 44.08488372107968,257.8313557684887 43.14302325621247,257.61499458528124 42.7662790697068,257.61499458528124 42.295348837506026,257.61499458528124 41.82441860483959,257.506813977845 41.2593023260124,257.506813977845 40.78837209334597,257.506813977845 39.846511628013104,257.29045273084193 39.37558139534667,257.18227209104225 38.9046511631459,257.0740914406488 38.433720930013806,256.96591077989433 37.49186046561226,256.7495494262548 37.11511627910659,256.53318802977446 36.644186046905816,256.425007315469 36.17325581423938,256.2086458548438 35.70232558110729,255.99228435161058 35.325581395532936,255.66774201695807 34.47790697682649,255.2350187546108 33.63023255812004,254.80229532148223 32.970930233132094,254.15320985182188 32.5,253.93684794357978 32.02906976733357,253.720485992264 31.558139535132796,253.50412399834022 31.0872093020007,253.28776196180843 30.804651163052768,253.17958092759363 30.05116279097274,252.85503776045516 29.674418604932725,252.74685668363236 29.29767441842705,252.63867559586652 28.920930232852697,252.42231338878628 28.450000000186265,252.31413226912264 27.97906976751983,252.20595113898162 26.94302325602621,252.09776999778114 26.566279069986194,251.9895888462197 26.09534883731976,251.88140768371522 25.53023255802691,251.88140768371522 25.153488371986896,251.7732265109662 24.21162790711969,251.66504532750696 23.74069767445326,251.4486829281086 22.89302325574681,250.79959547403269 21.951162790879607,250.47505160293076 21.574418604839593,250.36687029129826 21.10348837263882,250.25868896907195 20.53837209334597,250.15050763601903 20.161627907305956,250.04232629248872 19.690697674639523,249.8259635727154 18.843023255933076,249.39323800627608 18.372093023732305,249.17687515879516 17.99534883722663,248.96051226882264 17.053488372359425,248.41960485698655 16.77093023294583,248.20324181765318 16.394186046440154,247.9868787357118 15.546511628199369,247.4459708436625 15.169767442159355,247.12142598058563 14.698837209492922,246.4723359660711 14.039534884039313,245.71506379719358 12.90930232545361,244.8496092496207 12.90930232545361,244.52506361866836 12.720930232666433,243.98415401950479 12.532558139879256,243.55142614839133 12.25,242.1450593881309 12.532558139879256,241.60414861573372 12.626744186040014,241.06323757651262 12.720930232666433,240.6305085531203 12.815116279758513,240.30596167349722 12.815116279758513,239.76504999410827 12.815116279758513,238.35867837956175 12.815116279758513,237.38503543648403 13.851162791252136,236.95230496197473 14.604651162866503,236.519574316917 15.263953488785774,236.30320893018506 15.734883721452206,236.19502622098662 15.923255814239383,235.9786607704591 17.2418604651466,235.87047802924644" stroke="#4dd2ff" stroke-linecap="round" stroke-linejoin="round" stroke-width="0.5"><title>2020-12-25 1.0km</title></polyline><polyline fill="none" points="57.85902255633846,242.8219845808926 58.31578947370872,243.25918448233278 58.69642857136205,243.69638416823 59.53383458638564,244.2210235070088 62.807330827228725,245.09542171488283 64.55827067652717,245.62006022571586 65.70018796995282,245.88237936492078 71.02913533849642,247.9809296830208 72.55169172910973,249.0302029797458 74.30263157887384,249.81715713703306 76.89097744366154,250.77898904803442 77.88063909765333,250.9538674650248 79.70770676713437,250.9538674650248 80.77349624037743,250.9538674650248 82.60056390985847,250.60411059652688 84.2753759403713,250.42923211009474 86.17857142863795,250.51667135755997 87.24436090234667,250.42923211009474 90.2133458647877,250.9538674650248 91.20300751877949,251.30362419580342 93.1062030075118,251.65338078868808 94.17199248168617,251.5659416533308 96.07518797041848,251.47850250947522 96.91259398544207,251.3910633570631 97.75,251.74081991548883 97.67387218028307,251.8282590333838 97.44548872252926,251.91569814272225 97.36936090234667,252.00313724362059 97.36936090234667,252.09057633567136 97.29323308262974,252.00313724362059 97.1409774441272,252.1780154191074 97.1409774441272,252.00313724362059 97.21710526384413,252.09057633567136 97.29323308262974,252.1780154191074 97.21710526384413,252.09057633567136 97.36936090234667,251.91569814272225 97.29323308262974,251.91569814272225 97.21710526384413,251.91569814272225 97.21710526384413,252.00313724362059 97.21710526384413,251.91569814272225 97.21710526384413,251.91569814272225 97.21710526384413,251.91569814272225 97.21710526384413,252.00313724362059 97.1409774441272,252.00313724362059 97.1409774441272,252.00313724362059 97.06484962394461,252.00313724362059 96.988721805159,252.00313724362059 97.1409774441272,252.00313724362059 97.1409774441272,252.00313724362059 97.1409774441272,252.00313724362059 97.06484962394461,252.00313724362059 97.06484962394461,252.09057633567136 96.91259398544207,252.00313724362059 95.16165413567796,252.00313724362059 93.18233082722872,252.00313724362059 91.20300751877949,251.5659416533308 90.28947368450463,251.30362419580342 88.38627819530666,250.77898904803442 87.39661654178053,250.60411059652688 85.34116541361436,250.60411059652688 84.35150375962257,250.51667135755997 82.29605263192207,250.69154982635519 80.16447368403897,250.9538674650248 79.17481203051284,250.9538674650248 77.11936090234667,250.8664282608661 76.05357142863795,250.60411059652688 71.25751879718155,249.0302029797458 70.26785714318976,248.68044535192894 67.45112781971693,247.9809296830208 66.68984962394461,247.8934901856701 63.644736842252314,247.3688530200161 61.893796992488205,246.58189668948762 60.90413533849642,246.0572587478673 59.00093984976411,245.00798193289666 57.25,244.39590321760625" stroke="#4dd2ff" stroke-linecap="round" stroke-linejoin="round" stroke-width="0.5"><title>2020-12-08 1.1km</title></polyline><polyline fill="none" points="102.25,243.3253205961082 102.63942307699472,243.3998688508873 105.23557692323811,245.41266894357977 106.07932692323811,245.71086109412136 109.38942307699472,246.6799847711227 110.94711538474075,247.12727220298257 111.72596153873019,247.42546367709292 113.54326923075132,248.0963940641377 115.16586538474075,248.91641928389436 116.00961538497359,249.43825305148493 120.16346153849736,250.85465717618354 121.07211538497359,250.92920468811644 123.66826923098415,250.6310145960888 124.44711538474075,250.55646705452818 128.5360576924868,250.6310145960888 129.37980769225396,250.7055621300824 131.9110576924868,251.45103706646478 134.50721153849736,251.6746794038918 135.2860576924868,251.60013196524233 136.97355769271962,251.6746794038918 139.56971153849736,251.3019421377685 140.34855769225396,251.22739466262283 141.9711538462434,251.07829969003797 142.75,251.0037521928898 142.4254807694815,250.40737194975372 140.60817307699472,250.33282438619062 139.8293269232381,250.40737194975372 138.2067307694815,250.85465717618354 137.62259615398943,251.0037521928898 135.93509615398943,251.3764896057546 135.15625,251.45103706646478 133.5336538462434,251.45103706646478 132.6899038462434,251.3019421377685 131.06730769225396,251.0037521928898 130.2884615387302,250.78010965674184 127.75721153849736,250.33282438619062 126.91346153873019,250.33282438619062 125.22596153873019,250.40737194975372 124.31730769225396,250.40737194975372 122.62980769248679,250.55646705452818 120.94230769248679,250.6310145960888 119.31971153873019,250.55646705452818 117.76201923098415,250.18372923729476 116.98317307699472,249.9600864588283 115.29567307722755,249.43825305148493 114.51682692323811,249.14006237121066 112.95913461525925,248.6182283977978 110.88221153826453,248.02184627269162 110.29807692323811,247.94729847408598 108.74038461549208,247.574559370114 106.59855769271962,246.90362852008548 106.01442307722755,246.456340956036 104.65144230774604,245.71086109412136 103.9375,245.33812088746345" stroke="#4dd2ff" stroke-linecap="round" stroke-linejoin="round" stroke-width="0.5"><title>2020-12-03 1.3km</title></polyline><polyline fill="none" points="187.32218309864402,248.56468715838855 187.6786971827969,249.8750602895161 187.75,250.28455146891065 186.5378521126695,251.02163508307422 184.47007042216137,250.93973693606677 181.61795774614438,250.4483478841721 178.90845070406795,249.30177229916444 177.98151408461854,249.1379756575916 172.70510563394055,247.09051491471473 170.77992957737297,246.7629207270802 167.85651408415288,246.8448192861979 165.86003521084785,246.7629207270802 164.43397887330502,246.7629207270802 163.5783450701274,246.7629207270802 161.65316901402548,246.5991235851543 161.01144366152585,246.51722500211326 158.8010563380085,246.35342781117652 157.94542253483087,246.2715292039793 154.950704225339,246.0258333333186 154.02376760495827,245.86203604575712 152.16989436605945,245.6982387258322 149.74559859139845,244.63355535943992 148.81866197148338,244.30596020299708 147.25,243.97836491692578 149.03257042216137,244.38785900420044 150.6012323941104,245.12494785204763 152.16989436605945,245.86203604575712 153.09683098550886,245.94393469346687 155.44982394389808,246.18963058834197 156.1628521126695,246.2715292039793 158.01672535203397,246.43532641069032 158.94366197148338,246.51722500211326 160.86883802805096,246.51722500211326 161.72447183076292,246.5991235851543 163.6496478873305,246.7629207270802 164.50528169004247,246.7629207270802 167.14348591538146,246.8448192861979 167.99911971809343,246.8448192861979 169.28257042216137,246.68102216016268 169.710387323983,246.68102216016268 169.99559859139845,246.68102216016268 170.28080985881388,246.68102216016268 170.56602112622932,246.68102216016268 170.92253521084785,246.5991235851543 171.2790492954664,246.5991235851543 171.9920774642378,246.68102216016268 172.2772887321189,246.68102216016268 172.91901408461854,246.92671783699188 173.56073943618685,247.25431195972487 173.4894366194494,247.4181089727208 173.4894366194494,247.50000746693695 173.4181338022463,247.50000746693695" stroke="#4dd2ff" stroke-linecap="round" stroke-linejoin="round" stroke-width="0.5"><title>2020-11-30 1.0km</title></polyline></svg>