<?xml version="1.0" encoding="utf-8" ?>
<svg baseProfile="full" height="300mm" version="1.1" viewBox="0,0,200,300" width="200mm" xmlns="http://www.w3.org/2000/svg" xmlns:ev="http://www.w3.org/2001/xml-events" xmlns:xlink="http://www.w3.org/1999/xlink"><defs /><rect fill="#222222" height="300" width="200" x="0" y="0" /><text fill="#FFFFFF" style="font-size:12px; font-family:Arial; font-weight:bold;" x="10" y="20">Over 3km Runs</text><text fill="#FFFFFF" style="font-size:4px; font-family:Arial" x="10" y="280">ATHLETE</text><text fill="#FFFFFF" style="font-size:9px; font-family:Arial" x="10" y="290">jdzj</text><text fill="#FFFFFF" style="font-size:4px; font-family:Arial" x="120" y="280">STATISTICS</text><text fill="#FFFFFF" style="font-size:3px; font-family:Arial" x="120" y="285">Number: 9</text><text fill="#FFFFFF" style="font-size:3px; font-family:Arial" x="120" y="290">Weekly: 1.8</text><text fill="#FFFFFF" style="font-size:3px; font-family:Arial" x="141" y="285">Total: 16.1 km</text><text fill="#FFFFFF" style="font-size:3px; font-family:Arial" x="141" y="290">Avg: 1.8 km</text><text fill="#FFFFFF" style="font-size:3px; font-family:Arial" x="167" y="285">Min: 1.0 km</text><text fill="#FFFFFF" style="font-size:3px; font-family:Arial" x="167" y="290">Max: 3.1 km</text><polyline fill="none" points="61.679802955593914,73.59704200475244 43.23645320162177,67.68977378349518 23.729064039420336,67.0786751419655 13.266009852290154,64.83797702967422 13.0,61.17136963055236 14.507389162667096,59.541762162640225 13.088669951073825,56.791793729003984 13.443349753506482,52.00479417020688 19.02955665020272,46.40295799524756 28.251231527421623,47.52332766161999 37.65024630539119,50.68072654417483 55.38423645310104,50.27332077961182 64.87192118214443,48.7455477292533 66.02463054144755,47.4214759239112 64.33990147756413,51.291834890434984 63.27586206886917,64.43057685060194 64.1625615763478,71.15265925315907 67.0,71.66190613695653" stroke="#4dd2ff" stroke-linecap="round" stroke-linejoin="round" stroke-width="0.5"><title>2021-03-19 1.6km</title></polyline><polyline fill="none" points="94.88399071944878,59.44836697194842 106.61948955943808,64.48523353680503 111.17169373598881,64.19741399530903 115.13921113708057,65.06087210876285 119.31554524390958,64.14944405524875 121.52900232025422,64.34132378737559 127.0,62.71034365138621 116.85150812100619,65.01290225368575 111.63109048758633,64.19741399530903 105.78422273811884,64.43726362509187 82.4385150813032,57.001870105508715 73.0,55.99448546583881 75.04640371236019,56.28230986138806 73.66821345710196,55.70666089979932 74.08584686787799,55.46680696471594 77.25986078893766,55.658690122305416 81.477958236821,54.93912789123715 82.89791183313355,55.99448546583881 83.73317865445279,55.46680696471594 84.7354988399893,56.426221995439846 85.61252900236286,56.1383976850484 86.74013921129517,57.097811390965944 88.16009280760773,56.57013408676721 91.08352668234147,58.68083986802958 91.66821345710196,57.96128210815368 90.1647331789136,55.70666089979932 89.58004640392028,55.75463167266571 89.78886310919188,57.38563513359986 92.5034802784212,58.728810347558465 93.63109048758633,56.042456210328965 94.25754060363397,57.337664521706756 95.09280742472038,57.19375265730196 94.21577726234682,57.43360574089456 94.7169373552315,57.289693904924206 93.50580046419054,55.61071934006759 95.30162413022481,55.46680696471594" stroke="#4dd2ff" stroke-linecap="round" stroke-linejoin="round" stroke-width="0.5"><title>2021-03-19 3.1km</title></polyline><polyline fill="none" points="155.72371924307663,87.0 155.42043691989966,86.05942550237523 154.84420050599147,85.95491707028123 153.9950100008864,86.75614759296877 155.02616989973467,80.86880266535445 154.63190287956968,82.29710246308241 154.8138722735457,84.90983104804764 154.2376358595211,85.3627020373533 150.96218676911667,85.29302961521898 150.56791974883527,83.20285056129796 150.84087383979931,81.35651544091525 158.7868707072921,79.57984423084417 164.1246395953931,79.23147627900471 163.94267020153347,45.54267180469469 165.7320359083824,43.24321533186594 169.43208025128115,39.968206015764736 168.7648591401521,38.29584911544225 164.24595252471045,33.0" stroke="#4dd2ff" stroke-linecap="round" stroke-linejoin="round" stroke-width="0.5"><title>2021-03-18 2.7km</title></polyline><polyline fill="none" points="31.314156228792854,172.54402166532236 32.82597796909977,172.80613969254773 33.05417747690808,174.08396211342188 33.62467624677811,174.41160809624125 36.705369604052976,175.03413457336137 40.698860993026756,174.67372464973596 43.46578002686147,175.4600730696111 46.03302449127659,177.0 46.68909807642922,174.93584099656437 46.318273876211606,166.1875961823098 48.68584377109073,165.95823835002375 45.29137609037571,165.00803992906003 42.011008163681254,164.84421234039473 40.556236300617456,163.2714633779542 37.675217512762174,133.48612385694287 40.81296074704733,129.8160181749845 43.03790594940074,128.5380254246702 41.44050939392764,125.68710079503944 38.70211529848166,123.0" stroke="#4dd2ff" stroke-linecap="round" stroke-linejoin="round" stroke-width="0.5"><title>2021-03-17 2.8km</title></polyline><polyline fill="none" points="74.81914893630892,147.08579866599757 75.48936170199886,147.08579866599757 78.84042553184554,148.5154346873751 79.79787234030664,149.72512527380604 89.75531914876774,152.47441718063783 100.2872340423055,153.9040462935809 103.8297872338444,153.6841034727404 106.31914893630892,154.23396044422407 107.56382978707552,154.6738458260661 112.54255319107324,155.44364482699893 116.65957446815446,157.09321232582442 118.0,157.42312553268857 120.2978723407723,158.63280645629857 122.2127659576945,159.8424860673258 122.97872340446338,160.0624276738381 123.84042553184554,160.50231075682677 125.94680851045996,161.0521643664688 127.0,160.94219366635662 126.90425531938672,160.94219366635662 126.90425531938672,160.94219366635662 126.61702127708122,161.0521643664688 126.80851063830778,160.94219366635662 126.90425531938672,160.94219366635662 127.0,161.0521643664688 126.42553191445768,160.94219366635662 125.18085106369108,160.94219366635662 120.96808510599658,161.0521643664688 118.09574468107894,160.17239846102893 115.31914893630892,159.62254441762343 112.54255319107324,159.40260272438172 109.76595744676888,159.51257357618306 108.32978723431006,159.62254441762343 105.55319148954004,159.8424860673258 104.30851063784212,159.8424860673258 100.0,159.51257357618306 98.65957446815446,159.18266098736785 96.074468084611,158.52283551730216 94.73404255323112,157.86300965677947 92.14893617015332,156.9832412347896 90.80851063830778,156.54335676389746 85.35106382984668,155.44364482699893 81.80851063830778,154.01401768799406 81.52127659553662,153.35418915946502 82.67021276568994,153.13424622977618 83.14893617015332,153.13424622977618 83.53191489353776,152.69436024071183 83.14893617015332,152.58438871602993 82.19148936122656,152.3644456345355 81.71276595722884,152.254474077723 81.42553191492334,152.144502509851 80.85106382984668,152.144502509851 80.46808510646224,151.92455934151076 79.98936170199886,151.92455934151076 79.51063829753548,151.92455934151076 78.84042553184554,151.70461612998042 78.36170212738216,151.4846728751436 78.07446808507666,151.37470123136882 77.11702127661556,150.8248428500956 76.8297872338444,150.60489942145068 76.35106382984668,150.27498419722542 76.06382978707552,150.0550406605471 75.77659574477002,149.72512527380604 75.39361702091992,149.28523793967906 74.72340425522998,148.73537852801383 74.14893617015332,148.40546275069937 73.86170212738216,148.18551884498447 73.38297872338444,147.63565889105666 73.19148936122656,146.64591029076837 73.19148936122656,145.76613301970065 73.09574468107894,145.2162718725158 73.0,144.7763827596791 73.2872340423055,143.89660401374567 73.19148936122656,142.68690710433293 73.19148936122656,142.13704443909228 73.09574468107894,141.8071267096093 73.2872340423055,141.4772088828031 73.19148936122656,141.36723625229206 73.2872340423055,140.59742753382307 73.38297872338444,140.04756383795757 73.86170212738216,139.93759106635116 74.81914893630892,139.60767268622294 75.29787234030664,139.38772704522125 75.58510638261214,139.2777542086551 76.15957446815446,139.05780850281008 76.25531914876774,139.05780850281008 76.25531914876774,138.9478356334148 76.35106382984668,138.9478356334148" stroke="#4dd2ff" stroke-linecap="round" stroke-linejoin="round" stroke-width="0.5"><title>2021-03-02 1.4km</title></polyline><polyline fill="none" points="142.9209302328527,150.79341370926704 143.54883721005172,151.08189778984524 150.45581395365298,152.38007545063738 154.85116279125214,153.96673547045793 156.4837209302932,154.68794400175102 160.87906976789236,155.8418769115815 162.51162790693343,155.8418769115815 167.15813953522593,155.55339376989286 168.66511627938598,155.12066894967575 173.31162790721282,154.83218566514552 176.20000000018626,155.8418769115815 177.70697674434632,156.41884302545805 180.34418604709208,157.42853317654226 182.85581395355985,157.86125731363427 185.9953488376923,157.57277457008604 186.49767441861331,157.28429176926147 187.0,157.57277457008604 186.874418605119,159.59215258224867 184.6139534888789,160.1691172166029 182.73023255821317,161.7557687869994 181.8511627903208,162.04425070632715 180.97209302335978,162.33273256826214 180.4697674419731,162.33273256826214 179.71627906989306,162.4769734776346 179.21395348897204,162.76545525412075 177.45581395365298,163.48665944696404 177.70697674434632,164.2078632839257 178.58604651177302,164.78482609754428 178.58604651177302,164.9290667657042 178.58604651177302,165.07330741907936 178.7116279071197,164.9290667657042 178.08372093038633,164.78482609754428 177.3302325583063,165.07330741907936 177.07906976807863,165.21754805825185 176.82790697645396,165.36178868368734 176.70232558157295,165.5060292944545 176.70232558157295,165.5060292944545 176.20000000018626,164.78482609754428 175.94883720949292,164.49634471919853 175.57209302298725,164.0636225452181 175.44651162810624,163.77514102461282 174.19069767510518,163.48665944696404 173.68837209325284,163.48665944696404 173.06046511651948,163.48665944696404 172.43255814025179,163.34241863701027 171.67906976817176,163.34241863701027 171.05116279097274,163.34241863701027 169.79534883750603,163.0539369743783 169.167441860307,162.90969612135086 168.53953488450497,162.76545525412075 167.9116279068403,162.62121437303722 166.65581395383924,162.33273256826214 166.1534883719869,162.04425070632715 165.5255813957192,161.9000097537646 164.89767441898584,161.61152780626435 164.26976744178683,161.32304580206983 163.7674418608658,160.89032268931624 162.63720930274576,160.31335833936464 161.50697674416006,159.7363937619375 160.62790697766468,158.87094646901824 160.0,158.58246392465662 159.37209302326664,158.29398132290225 158.74418604699895,158.00549866445363 158.11627906933427,157.7170159489615 157.73953488422558,157.57277457008604 156.7348837214522,157.14005034719594 156.23255814006552,156.9958089113934 155.73023255821317,156.85156746115535 155.2279069768265,156.5630845183041 154.6000000005588,156.41884302545805 153.97209302335978,156.27460151852574 152.5906976745464,156.1303599969251 152.08837209362537,155.98611846158747 151.46046511642635,155.8418769115815 150.70697674434632,155.8418769115815 150.20465116295964,155.6976353478385 148.94883720949292,155.55339376989286 148.32093023275957,155.26491057069506 147.19069767463952,154.39946063188836 145.9348837211728,153.96673547045793 145.43255813978612,153.8224937216146 144.80465116351843,153.678251958685 144.05116279097274,153.5340101813199 143.54883721005172,153.38976838986855 142.9209302328527,153.10128476365935 141.79069767473266,152.52431734162383 141.1627906979993,152.2358335449826 140.66046511614695,151.9473496916471 139.4046511631459,151.22613980912138 139.02790697710589,150.93765575671569 138.52558139525354,150.64917164761573 137.39534883759916,149.92796112480573 136.89302325621247,149.49523464066442 136.26511627947912,148.6297812879784 135.38604651205242,147.62008506280836 133.8790697674267,146.46614566608332 133.8790697674267,146.03341815818567 133.62790697719902,145.3122053593397 133.37674418697134,144.73523486440536 133.0,142.86007918405812 133.37674418697134,142.13886482082307 133.50232558138669,141.41765010193922 133.62790697719902,140.84067807067186 133.75348837301135,140.4079488979187 133.75348837301135,139.68673332536127 133.75348837301135,137.8115711726714 133.75348837301135,136.5133805818623 135.13488372135907,135.9364066158887 136.13953488413244,135.35943242243957 137.0186046520248,135.07094524020795 137.64651162875816,134.92670162790455 137.89767441898584,134.6382143604569 139.65581395383924,134.4939707055455" stroke="#4dd2ff" stroke-linecap="round" stroke-linejoin="round" stroke-width="0.5"><title>2020-12-25 1.0km</title></polyline><polyline fill="none" points="13.812030075117946,233.76264610793442 14.421052631456405,234.34557930985466 14.928571428637952,234.92851222434547 16.045112781692296,235.628031342756 20.409774436149746,236.7938956199214 22.74436090234667,237.49341363436542 24.26691729342565,237.84317248663865 31.372180451173335,240.64123957743868 33.4022556389682,242.04027063969988 35.736842105165124,243.08954284945503 39.187969924882054,244.37198539741803 40.507518796715885,244.60515662003309 42.943609023001045,244.60515662003309 44.36466165399179,244.60515662003309 46.800751879345626,244.1388141287025 49.0338345868513,243.90564281353727 51.57142857182771,244.02222847682424 52.992481203284115,243.90564281353727 56.95112781971693,244.60515662003309 58.27067669155076,245.0714989277767 60.80827067652717,245.53784105170052 62.2293233089149,245.4212555377744 64.76691729342565,245.30467001267243 65.88345864694566,245.18808447616175 67.0,245.65442655410152 66.89849624037743,245.77101204462815 66.59398496290669,245.88759752362967 66.49248120328411,246.00418299157172 66.49248120328411,246.12076844763942 66.39097744366154,246.00418299157172 66.18796992488205,246.237353892182 66.18796992488205,246.00418299157172 66.28947368497029,246.12076844763942 66.39097744366154,246.237353892182 66.28947368497029,246.12076844763942 66.49248120328411,245.88759752362967 66.39097744366154,245.88759752362967 66.28947368497029,245.88759752362967 66.28947368497029,246.00418299157172 66.28947368497029,245.88759752362967 66.28947368497029,245.88759752362967 66.28947368497029,245.88759752362967 66.28947368497029,246.00418299157172 66.18796992488205,246.00418299157172 66.18796992488205,246.00418299157172 66.08646616525948,246.00418299157172 65.98496240656823,246.00418299157172 66.18796992488205,246.00418299157172 66.18796992488205,246.00418299157172 66.18796992488205,246.00418299157172 66.08646616525948,246.00418299157172 66.08646616525948,246.12076844763942 65.88345864694566,246.00418299157172 63.54887218074873,246.00418299157172 60.909774436149746,246.00418299157172 58.27067669155076,245.4212555377744 57.052631579339504,245.0714989277767 54.51503759389743,244.37198539741803 53.1954887220636,244.1388141287025 50.45488721784204,244.1388141287025 49.13533834600821,244.02222847682424 46.394736842252314,244.25539976859 43.55263157887384,244.60515662003309 42.23308270704001,244.60515662003309 39.492481203284115,244.48857101448812 38.07142857136205,244.1388141287025 31.676691729109734,242.04027063969988 30.357142857275903,241.57392713602167 26.601503759622574,240.64123957743868 25.58646616525948,240.52465358097106 21.526315789669752,239.82513736002147 19.191729323007166,238.77586225268897 17.872180451173335,238.07634499727283 15.334586466196924,236.67730924393982 13.0,235.86120429018047" stroke="#4dd2ff" stroke-linecap="round" stroke-linejoin="round" stroke-width="0.5"><title>2020-12-08 1.1km</title></polyline><polyline fill="none" points="73.0,234.43376079475274 73.51923076948151,234.5331584677915 76.98076923098415,237.21689192473423 78.10576923098415,237.61448145878967 82.51923076948151,238.90664636151632 84.59615384647623,239.50302960397676 85.63461538497359,239.90061823604628 88.05769230797887,240.79519208549755 90.22115384647623,241.88855904515367 91.34615384647623,242.5843374019605 96.88461538450792,244.47287623491138 98.09615384694189,244.57227291743038 101.55769230797887,244.17468612809898 102.59615384647623,244.07528940605698 108.04807692347094,244.17468612809898 109.17307692300528,244.27408284012927 112.54807692347094,245.26804942189483 116.00961538497359,245.56623920518905 117.04807692347094,245.4668426203425 119.2980769239366,245.56623920518905 122.75961538450792,245.06925618369132 123.79807692347094,244.96985955012497 125.9615384619683,244.77106625336455 127.0,244.67166959046153 126.56730769248679,243.87649593298556 124.14423076948151,243.7770991815487 123.10576923098415,243.87649593298556 120.94230769295245,244.47287623491138 120.16346153896302,244.67166959046153 117.91346153896302,245.16865280771162 116.875,245.26804942189483 114.7115384619683,245.26804942189483 113.5865384619683,245.06925618369132 111.42307692300528,244.67166959046153 110.38461538543925,244.37347954226425 107.00961538497359,243.7770991815487 105.88461538497359,243.7770991815487 103.63461538497359,243.87649593298556 102.42307692300528,243.87649593298556 100.17307692347094,244.07528940605698 97.92307692347094,244.17468612809898 95.75961538497359,244.07528940605698 93.68269230797887,243.57830564968754 92.64423076948151,243.28011527843773 90.39423076994717,242.5843374019605 89.35576923098415,242.18674982828088 87.27884615398943,241.49097119702492 84.50961538450792,240.6957950302167 83.73076923098415,240.59639796538977 81.65384615398943,240.09941249346593 78.79807692347094,239.20483802672243 78.01923076948151,238.6084546080092 76.20192307699472,237.61448145878967 75.25000000046566,237.11749451659853" stroke="#4dd2ff" stroke-linecap="round" stroke-linejoin="round" stroke-width="0.5"><title>2020-12-03 1.3km</title></polyline><polyline fill="none" points="186.42957746470347,241.4195828778902 186.90492957737297,243.16674705268815 187.0,243.71273529191967 185.3838028172031,244.69551344413776 182.6267605633475,244.5863159147557 178.8239436619915,243.93113051226828 175.21126760542393,242.40236306551378 173.9753521126695,242.18396754353307 166.94014084525406,239.4540198863251 164.3732394366525,239.01722763606813 160.4753521126695,239.12642571493052 157.8133802814409,239.01722763606813 155.91197183122858,239.01722763606813 154.77112676063552,239.01722763606813 152.20422535203397,238.7988314469112 151.348591549322,238.68963333615102 148.401408450678,238.4712370815687 147.26056338008493,238.36203893867787 143.26760563394055,238.0344444444636 142.03169014072046,237.8160480610095 139.5598591552116,237.59765163448174 136.32746478915215,236.17807381262537 135.09154929593205,235.74128027062397 133.0,235.30448655597866 135.3767605633475,235.85047867230605 137.46830985927954,236.83326380269136 139.5598591552116,237.8160480610095 140.79577464796603,237.92524625791702 143.9330985918641,238.25284078449477 144.88380281673744,238.36203893867787 147.35563380317762,238.58043521421496 148.5915492954664,238.68963333615102 151.1584507045336,238.68963333615102 152.29929577512667,238.7988314469112 154.86619718326256,239.01722763606813 156.00704225338995,239.01722763606813 159.5246478873305,239.12642571493052 160.66549295792356,239.12642571493052 162.3767605633475,238.90802954684477 162.94718309864402,238.90802954684477 163.32746478868648,238.90802954684477 163.70774647872895,238.90802954684477 164.08802816877142,238.90802954684477 164.56338028190657,238.7988314469112 165.0387323941104,238.7988314469112 165.9894366194494,238.90802954684477 166.36971830995753,238.90802954684477 167.22535211313516,239.23562378261704 168.08098591538146,239.67241594637744 167.9859154932201,239.89081196358893 167.9859154932201,240.00000995595474 167.8908450701274,240.00000995595474" stroke="#4dd2ff" stroke-linecap="round" stroke-linejoin="round" stroke-width="0.5"><title>2020-11-30 1.0km</title></polyline></svg>