<?xml version="1.0" encoding="utf-8" ?>
<svg baseProfile="full" height="300mm" version="1.1" viewBox="0,0,200,300" width="200mm" xmlns="http://www.w3.org/2000/svg" xmlns:ev="http://www.w3.org/2001/xml-events" xmlns:xlink="http://www.w3.org/1999/xlink"><defs /><rect fill="#222222" height="300" width="200" x="0" y="0" /><text fill="#FFFFFF" style="font-size:12px; font-family:Arial; font-weight:bold;" x="10" y="20">Over 3km Runs</text><text fill="#FFFFFF" style="font-size:4px; font-family:Arial" x="10" y="280">ATHLETE</text><text fill="#FFFFFF" style="font-size:9px; font-family:Arial" x="10" y="290">jdzj</text><text fill="#FFFFFF" style="font-size:4px; font-family:Arial" x="120" y="280">STATISTICS</text><text fill="#FFFFFF" style="font-size:3px; font-family:Arial" x="120" y="285">Number: 46</text><text fill="#FFFFFF" style="font-size:3px; font-family:Arial" x="120" y="290">Weekly: 3.3</text><text fill="#FFFFFF" style="font-size:3px; font-family:Arial" x="141" y="285">Total: 86.6 km</text><text fill="#FFFFFF" style="font-size:3px; font-family:Arial" x="141" y="290">Avg: 1.9 km</text><text fill="#FFFFFF" style="font-size:3px; font-family:Arial" x="167" y="285">Min: 1.0 km</text><text fill="#FFFFFF" style="font-size:3px; font-family:Arial" x="167" y="290">Max: 4.9 km</text><polyline fill="none" points="22.01744186040014,44.30131772873574 28.296511627733707,44.48162417355343 28.296511627733707,45.24792577076005 32.299418604699895,47.050983284338145 38.5,46.46499037265312 32.18168604653329,47.0960596310033 27.707848837133497,46.329761132539716 23.037790697533637,46.55514317721827 11.5,42.9039403689967" stroke="#4dd2ff" stroke-linecap="round" stroke-linejoin="round" stroke-width="0.5"><title>2021-05-21 1.1km</title></polyline><polyline fill="none" points="57.685870806802996,58.5 58.648437223164365,57.5726886522898 58.337931927642785,56.645374926389195 58.83474040054716,52.329768222756684 60.6977721741423,51.68777274186141 61.10142905858811,50.72477738308953 63.33706718694884,51.259775121259736 67.93254556192551,50.617777740524616 67.77729291387368,48.54911175934831 66.22476643603295,45.19642106865649 63.11971348000225,40.845010195538634 60.8840753515251,38.7406205755542 57.31326445215382,36.63621870649513 52.252028133836575,35.92285936095868 50.388996360241435,35.17383053302183 47.656549758976325,35.56617916023242 44.24099150719121,33.533095296879765 43.58893038646784,31.5 42.06745443807449,32.035026186553296 42.16060602676589,33.1764127384522" stroke="#4dd2ff" stroke-linecap="round" stroke-linejoin="round" stroke-width="0.5"><title>2021-05-20 1.7km</title></polyline><polyline fill="none" points="71.62980769225396,42.68891965242801 71.5,39.93049467226956 77.27644230774604,38.8867636762443 98.04567307676189,39.33407713682391 98.5,49.4731112352456 97.26682692300528,50.36772536096396 86.7524038462434,49.4731112352456 85.45432692300528,50.36772536096396 77.4711538462434,51.11323632381391 72.86298076924868,50.44227649050299 71.82451923051849,49.547662452736404 71.82451923051849,41.794296437641606" stroke="#4dd2ff" stroke-linecap="round" stroke-linejoin="round" stroke-width="0.5"><title>2021-05-18 1.1km</title></polyline><polyline fill="none" points="101.5,45.91863367764745 102.55039787793066,46.905779877241 107.68302387266885,49.07200508596725 110.90583554375917,48.989743677462684 113.0782493368024,49.48331176335341 116.82625994691625,49.04458461920149 120.95623342180625,47.83808140299516 122.12599469488487,47.12514522334095 124.01193633954972,45.80895055021392 128.5,41.39416874811286 127.7838196286466,40.51668823664659 126.01724137936253,41.88775031856494 115.68037135282066,43.01201618020423 114.17639257281553,42.600699928967515 106.03580901853275,42.35390988612198 105.60610079567414,43.0394372419687 105.70159151195548,42.765226502524456 105.22413793101441,42.957174048555316 104.7228116709739,43.9991727003071 103.98275862063747,44.300803160091164 101.83421750657726,43.86206783761736 101.52387267898303,43.286226676253136" stroke="#4dd2ff" stroke-linecap="round" stroke-linejoin="round" stroke-width="0.5"><title>2021-05-10 2.5km</title></polyline><polyline fill="none" points="158.5,53.62218834881787 158.36556016595569,52.850076451170025 157.4468879668275,51.89780196425272 155.99045643152203,52.618442436360056 155.25103734445293,52.386808215931524 155.20622406643815,51.66616710406379 155.69917012448423,50.8425748248701 155.51991701254155,48.551945129060186 154.9821576763643,47.7798182280967 152.13651452283375,48.65489520991105 150.231950207497,48.44899500766769 150.16473029053304,47.85703102100524 145.23526970960665,47.93424379112548 142.65850622404832,47.522442086657975 138.53568464738782,48.26883219741285 135.60041493782774,48.34604484558804 133.27012448140886,47.8312934259302 131.5,44.76850148165249 134.07676348555833,42.915366209083004 135.21950207476038,41.654197177209426 137.57219917012844,40.444498704135185 137.86348547716625,39.569394184683915 140.35062240669504,38.46264014756889 142.74813278007787,36.815369630552595 141.7846473029349,37.896392080554506 139.11825726146344,39.05462544912007 136.60871369298548,36.84110831236467 135.0178423236357,36.37781165118213" stroke="#4dd2ff" stroke-linecap="round" stroke-linejoin="round" stroke-width="0.5"><title>2021-05-08 2.6km</title></polyline><polyline fill="none" points="188.5,40.33026879368117 188.32324058911763,42.208326480700634 183.0204582652077,42.51287573011359 182.2250409165863,43.98486122771283 174.0499181668274,42.10681002429919 169.80769230774604,42.46211753448006 168.2610474631656,43.32500618058839 162.25122749595903,42.005293547641486 161.5,43.22348994429922 167.7749590834137,45.45684251523926 176.87806873978116,46.37048395522288 188.32324058911763,49.66973120631883" stroke="#4dd2ff" stroke-linecap="round" stroke-linejoin="round" stroke-width="0.5"><title>2021-05-08 1.3km</title></polyline><polyline fill="none" points="38.5,74.54756295541301 37.81962864729576,74.91774513520068 33.80901856790297,73.43701444446924 33.164456233615056,74.01285478231148 29.082228116691113,72.44985772951622 26.432360742706805,73.68380325799808 20.667108753230423,74.05398620440974 16.978779840981588,72.86117331142304 13.254641909850761,73.51927739850362 11.965517241274938,73.31361998285865 11.5,72.65551557124127 17.480106100672856,72.90230484734639 20.98938992060721,74.46530020414502 26.71883289143443,74.30077465294744 38.28514588880353,77.55014227048378" stroke="#4dd2ff" stroke-linecap="round" stroke-linejoin="round" stroke-width="0.5"><title>2021-05-07 1.5km</title></polyline><polyline fill="none" points="41.62461538449861,80.18516462753178 41.5,79.46832878002897 43.49384615384042,78.79928102562553 44.324615384684876,76.7921321829781 54.75076923076995,70.57947557425359 58.0738461536821,71.53527411821415 58.8630769229494,72.586650324316 59.8184615385253,70.24494563540793 59.444615384563804,69.81483537243912 59.444615384563804,71.43969434921746 59.2369230769109,70.91400528058875 58.44769230764359,72.73001962917624 59.48615384614095,71.53527411821415 58.48923076922074,72.586650324316 59.02923076902516,70.81842538825003 58.6553846152965,72.68222986560431 59.569230769062415,71.86980316028348 61.27230769232847,72.1565421539708 63.80615384597331,71.24853475438431 66.13230769219808,71.34411456121597 68.5,72.73001962917624 66.9630769228097,71.67864373602788 65.09384615370072,71.43969434921746 60.732307692291215,72.4910707641684 58.5723076921422,71.10516500828089" stroke="#4dd2ff" stroke-linecap="round" stroke-linejoin="round" stroke-width="0.5"><title>2021-05-06 1.2km</title></polyline><polyline fill="none" points="78.23724007583223,77.46278438757872 79.41115311929025,74.94149654899957 87.7816635160707,68.72618315467844 91.30340264644474,64.97350962349446 95.94801512314007,62.510804736055434 97.73440453689545,64.21124491578666 98.5,81.5085494897794 97.53024574671872,76.3487282898277 83.4943289225921,84.0298094599857 79.81947069941089,80.51176934101386 72.92911153123714,84.26434472732944 71.5,86.66832587873796 72.98015122883953,87.48919526394457 77.3695652175229,83.3848369976622 79.00283553870395,79.63225605653133 78.08412098302506,78.28366649121745" stroke="#4dd2ff" stroke-linecap="round" stroke-linejoin="round" stroke-width="0.5"><title>2021-05-06 1.8km</title></polyline><polyline fill="none" points="117.8550913836807,70.82384493073914 120.28720626607537,70.09045673039509 120.53394255880266,69.3163232919469 117.71409921674058,68.17549235391198 118.06657963432372,68.25698038539849 117.64360313303769,68.70516426290851 119.72323759784922,69.5200427621894 121.55613577016629,69.23483547507203 120.95691905985586,71.88318108403473 122.78981723240577,70.86458868044429 122.71932114870287,71.63871914224 123.45953002618626,71.59797547079506 126.20887728454545,73.79812782708905 128.2180156656541,74.24630553697352 128.25326370750554,75.38711927455734 127.61879895534366,76.28347065809066 128.5,80.35776998128858 127.75979112274945,81.82450764605892 108.1618798954878,79.50217054301174 102.6984334201552,80.23554160146159 101.5,81.13188219236326 102.34595300257206,80.27628439894761" stroke="#4dd2ff" stroke-linecap="round" stroke-linejoin="round" stroke-width="0.5"><title>2021-05-02 1.6km</title></polyline><polyline fill="none" points="139.7708860761486,68.55801729654195 141.68481012666598,69.348454042105 144.00886075990275,67.37236067571212 153.23670886084437,65.8705263681477 157.33797468361445,67.53044832928572 158.5,70.29697707982268 157.0645569623448,78.20129086408997 145.44430379755795,82.31150237331167 132.32025316450745,84.12947363191051 131.5,82.78575615363661 137.17341772140935,66.50287800800288" stroke="#4dd2ff" stroke-linecap="round" stroke-linejoin="round" stroke-width="0.5"><title>2021-05-01 1.0km</title></polyline><polyline fill="none" points="174.37958048470318,73.89144496811787 172.74392903526314,76.50013982632663 170.31865274859592,71.47839281102642 170.4314562967047,69.65229327307316 172.40551839070395,66.58704311598558 175.50761596718803,65.28267691930523 183.51666789175943,65.41311365773436 188.19801514339633,61.5 182.2758288611658,65.67398705566302 168.34459065436386,63.78265252505662 167.16015339782462,64.36961900861934 164.8476806592662,69.32620352465892 164.05805582134053,81.45663092919858 163.09922566148452,84.58702669781633 161.97119017899968,85.0435414754902 161.8019848568365,88.5 162.7044132426381,88.04348767379997 163.09922566148452,85.89135377493221 164.62207356258295,68.93489560863236 166.65253743086942,66.91313425207045 167.4985640423838,67.43487972620642" stroke="#4dd2ff" stroke-linecap="round" stroke-linejoin="round" stroke-width="0.5"><title>2021-05-01 1.8km</title></polyline><polyline fill="none" points="34.351517107803375,102.54729372254224 33.41026468691416,102.70747328280413 31.87637185282074,103.80870433762902 30.01129761134507,103.72861500787258 29.680116203962825,104.12906134077639 29.732408005162142,103.74863734330575 28.477404777309857,104.16910593061766 25.514202711405233,103.78868200814759 23.771142672689166,103.98890521413705 23.24822466110345,103.70859267051856 21.34828921884764,104.06899444117153 17.060361523530446,104.16910593061766 12.789864428632427,103.72861500787258 11.5,104.82984052217216 11.587153001863044,105.21026249312854 16.607165913446806,106.1913474433677 17.147514525509905,106.03117063254467 18.141058747598436,106.55174480551796 20.790510006423574,106.59178891735792 22.44641704321839,107.2324936324294 23.161071659065783,107.01225161476759 25.043576500960626,107.45273541120696 25.514202711405233,107.81313053362828 26.682052937394474,107.95328401951701 26.995803744299337,107.71302084159106 27.849903163325507,108.11345931352116 28.913169786857907,107.93326209892984 30.691091026412323,108.45383139346086 30.847966429952066,107.97330593819788 31.231439638475422,107.93326209892984 31.946094254264608,108.31367825318011 32.19012265978381,107.73304278393334 33.23595868301345,107.17242765137053 34.490961910865735,105.91103794146329 35.88540994183859,105.37043995175918 36.617495158163365,104.4894623648579 37.837637185293715,104.10903904291627 38.5,103.18801120518765 38.15138799225679,102.1268217752804 37.611039380251896,101.54616860652459 36.51291155582294,102.24695670625078 34.83957391860895,102.14684426873282 34.73499031632673,102.78756301557587 32.38185926398728,103.94886058874545 32.86991607490927,104.4093733037007 33.20109748223331,104.1891282225406 34.3340865073842,105.05008490809996 35.27533892838983,104.90992941746663 35.345061329891905,104.66966263690847" stroke="#4dd2ff" stroke-linecap="round" stroke-linejoin="round" stroke-width="0.5"><title>2021-04-30 3.7km</title></polyline><polyline fill="none" points="68.28672985779122,103.23623378251796 66.58056872035377,105.68592113841441 65.64218009449542,105.83290199568728 56.34360189572908,103.28522764809895 48.068720379145816,103.23623378251796 49.17772511858493,104.16711640084395 41.5,101.86440358625259 47.642180094495416,104.02013505066861 57.452606634935364,104.95101620003697 67.56161137414165,108.13559641374741 68.5,107.93962283618748 67.22037914698012,107.49868200431229" stroke="#4dd2ff" stroke-linecap="round" stroke-linejoin="round" stroke-width="0.5"><title>2021-04-29 1.4km</title></polyline><polyline fill="none" points="81.87571428576484,104.33554940490285 84.07428571442142,102.60747186263325 83.30285714287311,101.23386702072457 84.65285714273341,100.79076778833405 93.87142857140861,91.97300212824484 94.95142857148312,91.84006966266315 98.5,95.91664737128303 93.98714285693131,98.84112597076455 94.488571428461,98.88543610589113 91.6728571425192,101.94282488318277 92.86857142834924,101.49972635036102 93.1385714286007,100.48059806539095 91.78857142850757,101.58834609185578 85.34714285703376,109.38681485856068 80.98857142869383,111.95673512283247 78.01857142848894,114.57094926701393 77.82571428571828,116.25467235324322 75.39571428578347,118.15993033730774 73.39000000013039,117.14083986292826 71.5,114.43802349138423 71.6542857142631,111.82380857339012 74.31571428570896,110.58315888041398 75.28000000002794,109.07665107343928 77.9414285714738,107.92461228143657 78.4428571430035,106.77257053373614 79.75428571435623,106.01931086977129 80.14000000013039,104.6900260274997 81.14285714295693,103.93676287005655 82.26142857130617,104.20262059936067 82.49285714281723,103.36073724998278" stroke="#4dd2ff" stroke-linecap="round" stroke-linejoin="round" stroke-width="0.5"><title>2021-04-26 2.2km</title></polyline><polyline fill="none" points="117.42964901856612,113.72947800598922 118.16590629715938,112.71446476058918 119.01996473991312,102.05664420773974 121.9060932713328,91.5 119.255567069049,101.8874697809515 117.16459639824461,102.86868029402103 114.1312164113624,102.6656714527926 110.98003525985405,103.13935856189346 109.33081895625219,104.15440016260254 108.18225760187488,105.77846047110506 108.09390672855079,115.72566195391119 109.41916982969269,118.16166729407269 110.30267856363207,118.5 110.89168438641354,118.19550057966262 114.07231582922395,115.52266072752536 115.16197660111357,116.26699797008769 116.22218708205037,115.488827178051 116.4283391200006,114.60915372084128" stroke="#4dd2ff" stroke-linecap="round" stroke-linejoin="round" stroke-width="0.5"><title>2021-04-25 2.2km</title></polyline><polyline fill="none" points="146.04328879958484,118.5 145.2470947157126,112.57028896175325 145.68637421028689,109.19535109811113 145.2470947157126,102.9185027051426 145.65891924186144,91.97315048170276 145.32945962098893,91.5 144.64308541070204,91.97315048170276 143.95671120041516,103.13929845957318 144.2312608845532,114.11580935536767 145.32945962098893,114.4312207622861 145.41182452614885,114.14735051008756 145.54909936827607,108.753767806018 145.1921847788617,112.94878444314236" stroke="#4dd2ff" stroke-linecap="round" stroke-linejoin="round" stroke-width="0.5"><title>2021-04-18 2.2km</title></polyline><polyline fill="none" points="188.5,108.84329710557358 183.66475644684397,108.35455802554497 169.0429799426347,103.95588244483224 162.58309455565177,103.33384404791286 161.5,102.62294197097071 169.1977077361662,102.53407913257251 170.89971346687526,101.15670289442642 174.22636103141122,102.66737338370876" stroke="#4dd2ff" stroke-linecap="round" stroke-linejoin="round" stroke-width="0.5"><title>2021-04-16 1.0km</title></polyline><polyline fill="none" points="38.5,137.16544545063516 37.70920502085937,137.37630865129177 37.38441422593314,136.71127763851837 36.81956066942075,136.4841932621057 36.099372384895105,136.66261672708788 35.84518828446744,136.45175261124677 35.49215481168358,135.96514208130247 36.113493723853026,134.86215288248786 35.9016736401245,134.05112669288064 35.47803347278386,133.87270039442228 32.18776150629856,134.09978837710514 29.37761506275274,133.85647981220973 28.007845188316423,134.1808911520493 27.42887029290432,133.95380328134343 26.496861924708355,134.05112669288064 26.270920502138324,133.85647981220973 24.43514644348761,134.06734725587012 23.785564853576943,133.84025922839646 23.03713389125187,134.05112669288064 22.288702928868588,133.74293569203292 20.707112970761955,134.034906128305 19.407949790824205,133.51584721657855 18.334728033514693,133.6456120981311 17.727510460303165,132.8994626309286 16.626046025077812,132.9643453276658 15.623430962325074,132.6561522900156 15.213912133942358,132.85080059153552 14.649058577429969,132.29929647214885 13.815899581590202,132.59126947163895 12.601464435167145,132.18575127677468 11.895397489599418,132.55882805289002 12.389644351555035,132.20197202375857 12.502615062752739,132.75347646955925 11.5,132.70481438699062 12.34728033473948,132.39662086291355 11.937761506356765,132.49394519609632 12.375523012597114,132.4615037581243 12.022489539755043,132.60749017864873 12.248430962383281,132.85080059153552 12.00836820085533,132.6561522900156 12.34728033473948,132.54260734103445 12.248430962383281,132.36417940571846 11.966004184097983,132.4615037581243 12.06485355651239,132.70481438699062 12.502615062752739,132.52638662765094 12.29079497908242,132.44528303669358 12.262552301341202,132.67237299059343 12.375523012597114,132.38040013515274 12.220188284583855,132.67237299059343 12.319037656881846,132.44528303669358 12.389644351555035,132.6237108840287 12.177824267826509,132.03976448181493 12.304916318040341,132.4615037581243 12.23430962342536,132.18575127677468 12.262552301341202,132.4615037581243 11.980125522997696,132.2506342551642 12.07897489547031,132.1046475177718 12.177824267826509,132.2506342551642 11.966004184097983,132.33173794214963 12.248430962383281,132.47772447788157 12.022489539755043,132.34795867474168 12.29079497908242,132.1046475177718 12.093096234370023,132.44528303669358 11.867154811741784,132.44528303669358 12.093096234370023,132.02354371879483 11.881276150641497,132.16953052819008 12.220188284583855,132.4615037581243 11.980125522997696,132.31551720792777 12.022489539755043,132.4615037581243 12.093096234370023,132.33173794214963 12.163702928868588,133.01300733347307 12.022489539755043,134.53774288666318 13.392259414249565,134.8297119117051 13.505230125563685,135.089239498775 14.733786610944662,134.97569622984156 15.43985355651239,135.23522358651098 21.07426778244553,135.4785301114316 26.63807531388011,136.19222717446974 29.307008368195966,136.28954926127335 30.493200836877804,136.54907454446948 31.86297071131412,137.24654671369353 34.009414225874934,137.00324280455243 34.23535564856138,137.39252888633928 34.531903765688185,137.26276696148852 36.55125523015158,137.68449284293456 36.904288702935446,137.97645628120517 37.53974895400461,137.830474626855 37.73744769877521,137.23032646426873 38.302301255229395,137.00324280455243" stroke="#4dd2ff" stroke-linecap="round" stroke-linejoin="round" stroke-width="0.5"><title>2021-04-09 4.9km</title></polyline><polyline fill="none" points="67.95496894442476,136.44471134166815 59.48602484492585,133.98871357101598 58.521739130606875,133.0737308509415 52.56832298170775,133.5553009174473 48.25000000023283,133.1218878790387 49.04658385110088,133.60345789804705 48.66925465851091,133.79608577254112 41.5,132.15874641618575 47.453416149131954,133.94055662854225 56.006211180239916,134.66291026771069 67.87111801258288,137.84125358381425 66.27795031084679,137.2152179002005 68.5,136.92627808329416 67.91304347827099,136.20392779266695" stroke="#4dd2ff" stroke-linecap="round" stroke-linejoin="round" stroke-width="0.5"><title>2021-04-09 1.4km</title></polyline><polyline fill="none" points="72.57386363646947,133.50223745114636 73.87784090917557,134.60354574551457 83.31250000023283,138.21581789135234 87.4928977272939,138.0396101717488 91.1363636367023,138.788492499938 97.8863636367023,138.0396101717488 98.5,137.29072658804944 95.7769886367023,136.5858938328456 92.51704545458779,137.2466745733982 89.14204545458779,135.96916425964446 86.34232954564504,136.18942491928465 81.5866477272939,133.76655168936122 80.97301136376336,132.6211888602993 78.25000000023283,131.56392825720832 76.17897727293894,131.2115075000911 71.5,132.3568739441107" stroke="#4dd2ff" stroke-linecap="round" stroke-linejoin="round" stroke-width="0.5"><title>2021-04-08 1.4km</title></polyline><polyline fill="none" points="128.3246753248386,136.12775079283165 128.5,137.05411077366443 126.22077922080643,137.0943872469943 120.18961038975976,135.0402820468007 111.07272727275267,134.597238393937 106.26883116876706,132.9056127530348 101.5,133.63059602869907 106.02337662340142,133.10699712540372 110.82727272738703,134.55696167447604 119.7688311689999,134.95972869111574" stroke="#4dd2ff" stroke-linecap="round" stroke-linejoin="round" stroke-width="0.5"><title>2021-04-06 1.3km</title></polyline><polyline fill="none" points="139.74550898186862,130.9457708785194 143.14071856276132,129.88541559164878 144.54191616759636,131.00814466172596 144.54191616759636,132.19324533944018 143.6257485030219,132.69223441329086 145.24251497001387,134.4386929749744 146.91317365248688,134.62581324036 149.06886227522045,133.62783783260966 151.49401197605766,130.57152804534417 153.64970059879124,131.38238722848473 155.42814371269196,130.32203269645106 158.44610778428614,130.6962756817229 158.44610778428614,126.89146135671763 158.12275449116714,129.19930237036897 156.34431137726642,128.88743247062666 158.5,129.26167633139994 158.3922155688051,130.88339708879357 153.7574850297533,131.32001348305494 151.49401197605766,130.50915421778336 147.82934131729417,135.12480033526663 148.69161676662043,134.37631954066455 144.64970059879124,134.31394609995186 143.841317364946,132.94172879809048 145.02694610785693,132.94172879809048 144.91916167666204,132.3179926458979 143.517964071827,129.82304169406416 142.92514970037155,130.6962756817229 141.7395209579263,130.57152804534417 140.23053892189637,133.8149583453196 135.2185628740117,136.43463952775346 133.60179640701972,139.42854717787122 133.38622754462995,137.1207446550252 132.95508982008323,140.0522760989843 132.57784431125037,138.6800716354628 132.95508982008323,139.61566592089366 132.6317365267314,138.8048176226439 134.84131736517884,139.9275303655304 136.61976047884673,142.609558043594 138.93712574825622,142.422440214199 139.5838323351927,141.11261380888755 138.18263473035768,140.48888596630422 139.4221556885168,140.48888596630422 138.82934131729417,141.23735930153634 138.29041916131973,140.73837717954302 138.93712574825622,141.48685021017445 139.09880239493214,140.8631227480946 139.36826347303577,142.29769496276276 138.45209580799565,143.10853864328237 135.4880239518825,142.85904839425348 132.73952095769346,139.61566592089366 133.22455089795403,136.80887878325302 133.54790419130586,139.05430952075403 131.5,140.23939465155127 132.09281437122263,139.2414283779217 131.7155688619241,140.48888596630422 133.22455089795403,139.42854717787122 133.4401197603438,136.68413239018992" stroke="#4dd2ff" stroke-linecap="round" stroke-linejoin="round" stroke-width="0.5"><title>2021-04-05 1.9km</title></polyline><polyline fill="none" points="182.73379468498752,142.10341087402776 181.67500136501621,142.6364659423416 182.0893117946107,141.9967997299682 182.82586366939358,141.9967997299682 182.98698439181317,141.5437018830562 182.15836353285704,146.47443036714685 180.38603558414616,147.75373932847288 180.2939665997401,148.5 180.22491486161016,147.75373932847288 182.22741527110338,146.5543873605202 182.89491540763993,143.9424462687748 183.35526032932103,139.78460868593538 182.20439802494366,138.95836385842995 179.7185354476096,138.50526074811933 178.24543169816025,139.65134356773342 175.1611207226524,140.53089209322934 169.54491267749108,143.91579367421218 168.53215384972282,142.2899802714819 167.35827429941855,142.79638225099188 166.8058603933314,142.58316048438428 163.58344594121445,128.7500269431912 163.39930797251873,126.21787125550327 165.0335324446205,133.6276893276954 165.53991185850464,133.84091839494067 171.45534410269465,131.1488886642328 176.01275882776827,129.6829202270601 178.86689734249376,128.08367256019847 182.8718981614802,124.85849335137755 185.24267450836487,121.5 186.60069202748127,122.19302596943453 186.43957130482886,122.40626435974264 185.8871573987417,122.2196807777218 186.2093988439301,121.95313257249654 186.2093988439301,122.37960957048927 186.3475023205392,121.65992923290469 185.56491595355328,121.89982289876207" stroke="#4dd2ff" stroke-linecap="round" stroke-linejoin="round" stroke-width="0.5"><title>2021-04-05 3.7km</title></polyline><polyline fill="none" points="18.31308411201462,155.2103965000133 22.602803737856448,158.61973999917973 26.135514019057155,168.45806303771678 26.2196261677891,173.42589063744526 28.154205607250333,173.03625803388422 30.088785046711564,174.7896034999867 34.46261682221666,171.57513435458532 38.5,172.64662527100882 30.257009345572442,170.69845907430863 30.257009345572442,173.91293116903398 30.677570093423128,169.432148916414 30.50934579409659,174.10774731216952 30.761682242620736,172.54921705560992 27.39719626121223,173.23107435565908 29.66822429932654,171.76995097420877 30.845794392284006,173.91293116903398 28.742990653961897,172.54921705560992 30.257009345572442,172.15958409424638 29.920560747850686,174.01033924537478 30.845794392284006,174.01033924537478 29.752336448524147,172.06217582896352 31.686915887519717,174.4973794791731 29.752336448524147,172.7440334765124 29.920560747850686,171.1855009960709 31.35046728979796,173.42589063744526 30.004672897048295,171.2829093504115 27.733644859865308,171.1855009960709 26.724299065303057,173.71811498625902 26.976635513827205,172.4518088303157 22.68691588798538,169.23733182030264 24.3691588784568,163.0031637659995 22.68691588798538,163.6850278780912 22.771028037648648,161.15238729520934 17.808411214500666,158.4249206984532 11.5,159.00937848177273 15.032710280269384,160.2757024524617 16.210280373692513,163.58761874877382" stroke="#4dd2ff" stroke-linecap="round" stroke-linejoin="round" stroke-width="0.5"><title>2021-04-04 1.4km</title></polyline><polyline fill="none" points="58.167597765568644,152.9137280768482 49.79608938563615,156.72593444224913 41.72625698335469,166.08309806726174 49.34357541939244,174.48713224026142 53.79329608939588,169.46204931195825 58.99720670422539,167.29605642065872 59.14804469328374,164.43693762167823 63.97486033523455,160.88468614366138 56.88547486020252,151.87403255852405 50.92737430194393,155.8595253583626 41.5,166.60293756675674 49.19273743033409,173.5341014813166 53.71787709509954,168.24909395119175 61.1089385477826,167.03613691445207 63.29608938563615,165.38997825584374 64.42737430194393,161.05796703702072 64.1256983242929,160.27820274728583 63.22067039133981,162.01101133896736 60.58100558677688,163.31061553861946 60.50558659248054,162.5308532496565 68.5,157.24577948241495 65.5586592182517,155.6862434389186 62.4664804469794,151.87403255852405 60.73184357536957,154.73319227073807 55.452513966709375,152.4805217604153 45.044692737516016,161.8377306337352 41.80167597765103,166.42965776781784 49.34357541939244,173.5341014813166 53.79329608939588,168.85557184100617 54.472067039459944,169.3754096989869 52.58659217879176,171.97459437139332 62.91899441368878,174.14057572046295 66.2374301678501,178.12596744153416 59.22346368711442,165.3033382408903 59.97765363147482,162.9640546067385 63.673184358049184,159.84500006528106 59.60055865952745,157.3324202922522 57.3379888269119,153.00036931439536 55.754189944360405,152.39388047158718 54.39664804469794,153.34693417925155 55.075418994762,153.95342236361466" stroke="#4dd2ff" stroke-linecap="round" stroke-linejoin="round" stroke-width="0.5"><title>2021-04-02 3.1km</title></polyline><polyline fill="none" points="88.06382978719193,175.4343305611983 84.90425531915389,174.3345724202518 78.9441489361925,174.22459636750864 72.48138297873084,173.37228048761608 71.93085106392391,172.8498920472921 71.5,170.23793516049045 72.12234042549971,169.74303530808538 73.41489361703862,169.68804638125584 72.24202127661556,166.03125840533176 72.52925531915389,161.08214564228547 74.32446808519308,158.52506961475592 75.0425531915389,156.7928434922942 78.46542553184554,154.4281999762752 79.85372340434697,155.94047430498176 81.14627659576945,156.21543239211314 81.81648936169222,157.01280931095243 84.64095744676888,157.01280931095243 88.99734042549971,157.70020137538086 91.10372340423055,158.80002515210072 94.5984042553464,161.90700387241668 97.90159574453719,167.62595379757113 97.99734042549971,168.36830888519762 97.23138297861442,169.028178414359 96.92021276592277,170.07296864059754 97.59042553184554,170.0454742111324 98.5,172.38249103396083 97.90159574453719,173.6197273019061 95.81914893607609,174.00464413187 95.3164893615758,174.63700634156703 94.14361702115275,174.05963220700505 93.64095744676888,174.27958439930808 92.39627659565303,173.89466794897453 91.79787234030664,175.5718000237248 91.60638297861442,175.37934275722364" stroke="#4dd2ff" stroke-linecap="round" stroke-linejoin="round" stroke-width="0.5"><title>2021-04-02 3.2km</title></polyline><polyline fill="none" points="104.32891246699728,162.71723626583116 113.46021220157854,166.78919727093307 118.40185676398687,166.74806655038265 121.40981432353146,167.44728824673803 125.45623342180625,166.4601513936359 128.5,166.50128214235883 121.62466843496077,167.40615759126376 118.61671087541617,166.7069358259323 113.74668435007334,166.953720112273 107.44429708225653,165.14396528797806 101.5,162.55271175326197" stroke="#4dd2ff" stroke-linecap="round" stroke-linejoin="round" stroke-width="0.5"><title>2021-04-01 1.4km</title></polyline><polyline fill="none" points="131.5,161.59926042420557 134.54909983626567,164.6954673033033 138.1284779049456,165.45682679719175 142.32651391159743,167.63938443706138 148.0711947628297,167.5378703335009 151.2528641570825,168.40073957582354 158.5,167.5378703335009 153.418166939402,168.29922562243883 147.27577741397545,167.3855991406017 141.79623567918316,167.63938443706138 133.5769230767619,165.40606953256065 132.73731587571092,164.94925392634468 133.7094926352147,164.5431952692743" stroke="#4dd2ff" stroke-linecap="round" stroke-linejoin="round" stroke-width="0.5"><title>2021-03-29 1.2km</title></polyline><polyline fill="none" points="174.50763466744684,178.5 173.24936770671047,171.4047617338947 172.37405155971646,171.15360141260317 168.10688534518704,165.00014268804807 165.26210786867887,164.74897984799463 174.12468385323882,151.5 177.07887584809214,153.32096613023896 182.87784531945363,159.22337237704778 182.27606546878815,163.43037331756204 184.7378921310883,177.8721059873933 176.91475407057442,172.6605618582107 174.06997659383342,172.09545210778015 173.79644029820338,173.28846099448856" stroke="#4dd2ff" stroke-linecap="round" stroke-linejoin="round" stroke-width="0.5"><title>2021-03-28 1.4km</title></polyline><polyline fill="none" points="24.667692307848483,190.10942592195352 26.204615384573117,191.01598240912426 26.57846153830178,190.25256653287215 28.07384615391493,190.157139463583 28.406153846299276,189.3937222318491 28.863076922949404,189.91857170814183 29.569230769295245,189.3937222318491 31.770769230555743,190.63427462166874 33.058461538515985,189.68000383497565 36.838461538311094,190.82512855296955 36.58923076931387,189.87085814285092 38.37538461526856,190.0617123756092 37.046153845964,189.58457665276364 37.37846153834835,188.8211585173267 37.46153846150264,189.87085814285092 37.253846153849736,189.3937222318491 36.79692307696678,190.01399882443366 36.87999999988824,189.2505813666503 37.46153846150264,190.0617123756092 36.838461538311094,189.87085814285092 38.08461538469419,189.72771741898032 38.08461538469419,190.20485300049768 37.544615384424105,189.5368630544981 36.672307692235336,190.01399882443366 38.416923076845706,189.72771741898032 37.87692307680845,189.29829499311745 37.710769230732694,190.7297015967779 36.963076923042536,190.10942592195352 36.87999999988824,190.63427462166874 37.9184615383856,189.9662852686888 37.46153846150264,190.01399882443366 38.5,191.30226305214455 38.37538461526856,189.91857170814183 37.75230769230984,190.01399882443366 38.08461538469419,190.68198811152251 37.17076923092827,190.96826895224513 37.046153845964,190.4434206149308 36.547692307736725,191.1591227517929 34.803076922893524,190.92055549059296 34.803076922893524,189.9662852686888 35.218461538432166,198.1729476553155 30.52461538463831,199.22262698729173 26.703076923033223,197.98209662307636 26.993846153840423,198.602362202917 25.830769230844453,197.98209662307636 19.101538461400196,197.64810713526094 15.736923076910898,198.65007490682183 15.446153846103698,200.36772911532898 14.656923077069223,200.9879916361242 11.956923076882958,201.1788414827024 11.5,200.4154416451056" stroke="#4dd2ff" stroke-linecap="round" stroke-linejoin="round" stroke-width="0.5"><title>2021-03-26 1.5km</title></polyline><polyline fill="none" points="44.353658536914736,193.28908159493585 52.914634146611206,196.78296138744918 55.92508710816037,196.56684608149226 58.5592334496323,197.14315327999066 62.353658536681905,196.38674989546416 63.85888501745649,196.56684608149226 68.5,194.90995782002574 64.39198606286664,196.56684608149226 59.092334494926035,196.99907656561118 56.30139372847043,196.42276913978276 53.19686411181465,196.67490375047782 46.517421602853574,195.0540353585675 41.5,192.85684672000934" stroke="#4dd2ff" stroke-linecap="round" stroke-linejoin="round" stroke-width="0.5"><title>2021-03-26 1.6km</title></polyline><polyline fill="none" points="98.5,197.39574562490452 96.43718166393228,197.13247799157398 93.36587436310947,195.18429346877383 90.75297113740817,195.23694719810737 86.99405772495084,193.76264081668342 77.82597623066977,194.0259101120173 79.20118845487013,194.71040967211593 78.65110356523655,194.8683709843317 71.5,192.60425437503727 77.27589134103619,194.81571721867658 85.48132427828386,195.34225464100018 92.49490662128665,197.02717090176884" stroke="#4dd2ff" stroke-linecap="round" stroke-linejoin="round" stroke-width="0.5"><title>2021-03-24 1.1km</title></polyline><polyline fill="none" points="128.5,196.98045260098297 126.55570652172901,196.85404130007373 124.64809782616794,195.42137727636145 121.60326086962596,194.91573000318022 119.10869565233588,193.77802145073656 111.47826086962596,193.94657105699298 112.13858695677482,194.6629061421845 106.1589673915878,193.01954739898792 101.5,193.60947177780326 103.33423913037404,193.8622962621157 106.30570652172901,193.06168488171534 111.8084239133168,194.74718077926082 121.82336956541985,195.16855371458223" stroke="#4dd2ff" stroke-linecap="round" stroke-linejoin="round" stroke-width="0.5"><title>2021-03-23 1.3km</title></polyline><polyline fill="none" points="157.96143617015332,196.34032829705393 148.87765957438387,193.16479310847353 145.17952127661556,193.78340575075708 141.51728723407723,193.37099742420833 142.52260638284497,194.0308505515568 142.12765957438387,194.15457289706683 136.34707446792163,192.42245672934223 131.5,193.12355223300983 135.98803191492334,192.50493861435098 141.40957446815446,194.0720913373807 148.59042553184554,194.56698045079247 158.5,197.57754327062867 156.88430851045996,196.7939742123708 158.5,196.34032829705393" stroke="#4dd2ff" stroke-linecap="round" stroke-linejoin="round" stroke-width="0.5"><title>2021-03-22 1.6km</title></polyline><polyline fill="none" points="184.49234889051877,181.66696286508522 184.86419280793052,181.92771207584883 184.65761285379995,182.75736678148678 186.53749043610878,183.0418191668141 187.0332823258359,183.4447928055597 186.86801836267114,184.17962535582774 187.6117061972618,184.6774138768087 188.5,186.21818136313232 187.96289211930707,187.64041954364802 187.17788829375058,187.97227391318302 186.88867635803763,188.8256116255361 183.06694720732048,192.1441184944124 178.8527161438251,193.77965152416436 177.53060443745926,194.63296870570048 176.51836266263854,195.4862828705518 173.56426931906026,199.56318669089524 161.5,208.33303713492933" stroke="#4dd2ff" stroke-linecap="round" stroke-linejoin="round" stroke-width="0.5"><title>2021-03-21 1.3km</title></polyline><polyline fill="none" points="23.73930905794259,222.65431547551998 23.39659695723094,220.4628218654252 21.046571123879403,217.5408042424533 20.091873129014857,217.2598394350207 16.86058760806918,220.20995613664854 13.653781522880308,224.28387675297563 12.845960142672993,224.5086430964584 11.96470045519527,226.89677457942162 13.457946036825888,229.032028183894 17.007464222609997,230.7177434452169 20.850735637708567,233.83629046773422 20.63042071578093,234.00485960778315 21.144488866906613,233.94866990548326 20.679379587527364,233.69581610852038 21.266886045690626,234.67913517341367 22.564296141266823,236.22434401192004 27.48466273001395,238.5 30.030524049536325,238.24715022931923 36.0279858118156,234.06104929899448 36.83580719213933,232.37535375673906 38.035299544688314,226.98106120841112 36.83580719213933,224.90198377234628 32.356070447247475,220.77187967445934 27.50914216588717,214.67495024375967 23.91066510824021,211.5 19.87155820708722,217.11935692763655 20.60594128014054,217.20364644034998 21.609598146402277,218.13082943920745 23.567953007644974,220.63139889360173 23.54347357188817,221.41809037700295" stroke="#4dd2ff" stroke-linecap="round" stroke-linejoin="round" stroke-width="0.5"><title>2021-03-20 3.7km</title></polyline><polyline fill="none" points="65.83990147779696,231.79852100237622 56.618226600810885,228.8448868917476 46.86453201971017,228.53933757098275 41.63300492614508,227.4189885148371 41.5,225.58568481527618 42.25369458133355,224.7708810813201 41.54433497553691,223.395896864502 41.72167487675324,221.00239708510344 44.51477832510136,218.20147899762378 49.12561576371081,218.76166383081 53.825123152695596,220.34036327208742 62.69211822655052,220.1366603898059 67.43596059107222,219.37277386462665 68.01231527072378,218.7107379619556 67.16995073878206,220.6459174452175 66.63793103443459,227.21528842530097 67.0812807881739,230.57632962657954 68.5,230.83095306847827" stroke="#4dd2ff" stroke-linecap="round" stroke-linejoin="round" stroke-width="0.5"><title>2021-03-19 1.6km</title></polyline><polyline fill="none" points="82.44199535972439,224.7241834859742 88.30974477971904,227.2426167684025 90.5858468679944,227.09870699765452 92.56960556854028,227.53043605438143 94.65777262195479,227.07472202762438 95.76450116012711,227.1706618936878 98.5,226.3551718256931 93.4257540605031,227.50645112684288 90.81554524379317,227.09870699765452 87.89211136905942,227.21863181254594 76.2192575406516,223.50093505275436 71.5,222.9972427329194 72.5232018561801,223.14115493069403 71.83410672855098,222.85333044989966 72.042923433939,222.73340348235797 73.62993039446883,222.8293450611527 75.7389791184105,222.46956394561857 76.44895591656677,222.9972427329194 76.8665893272264,222.73340348235797 77.36774941999465,223.21311099771992 77.80626450118143,223.0691988425242 78.37006960564759,223.54890569548297 79.08004640380386,223.2850670433836 80.54176334117074,224.3404199340148 80.83410672855098,223.98064105407684 80.0823665894568,222.85333044989966 79.79002320196014,222.87731583633285 79.89443155459594,223.69281756679993 81.2517401392106,224.36440517377923 81.81554524379317,223.02122810516448 82.12877030181699,223.66883226085338 82.54640371236019,223.59687632865098 82.10788863117341,223.71680287044728 82.35846867761575,223.6448469524621 81.75290023209527,222.8053596700338 82.6508120651124,222.73340348235797" stroke="#4dd2ff" stroke-linecap="round" stroke-linejoin="round" stroke-width="0.5"><title>2021-03-19 3.1km</title></polyline><polyline fill="none" points="112.86185962153831,238.5 112.71021845994983,238.02971275118762 112.42210025299573,237.9774585351406 111.9975050004432,238.3780737964844 112.51308494986733,235.43440133267723 112.31595143978484,236.1485512315412 112.40693613677286,237.45491552402382 112.11881792976055,237.68135101867665 110.48109338455833,237.6465148076095 110.28395987441763,236.60142528064898 110.42043691989966,235.67825772045762 114.39343535364605,234.7899221154221 117.06231979769655,234.61573813950235 116.97133510076674,217.77133590234735 117.8660179541912,216.62160766593297 119.71604012564057,214.98410300788237 119.38242957007606,214.14792455772113 117.12297626235522,211.5" stroke="#4dd2ff" stroke-linecap="round" stroke-linejoin="round" stroke-width="0.5"><title>2021-03-18 2.7km</title></polyline><polyline fill="none" points="140.65707811439643,236.27201083266118 141.41298898454988,236.40306984627387 141.52708873845404,237.04198105671094 141.81233812338905,237.20580404812063 143.3526848020265,237.51706728668069 145.34943049651338,237.33686232486798 146.73289001343073,237.73003653480555 148.0165122456383,238.5 148.3445490382146,237.46792049828218 148.1591369381058,233.0937980911549 149.34292188554537,232.97911917501187 147.64568804518785,232.50401996453002 146.00550408184063,232.42210617019737 145.27811815030873,231.6357316889771 143.8376087563811,216.74306192847143 145.40648037352366,214.90800908749225 146.51895297470037,214.2690127123351 145.72025469696382,212.84355039751972 144.35105764924083,211.5" stroke="#4dd2ff" stroke-linecap="round" stroke-linejoin="round" stroke-width="0.5"><title>2021-03-17 2.8km</title></polyline><polyline fill="none" points="162.40957446815446,223.5428993329988 162.74468085099943,223.5428993329988 164.42021276592277,224.25771734368755 164.89893617015332,224.86256263690302 169.87765957438387,226.23720859031891 175.14361702115275,226.95202314679045 176.9148936169222,226.8420517363702 178.15957446815446,227.11698022211203 178.78191489353776,227.33692291303305 181.27127659553662,227.72182241349947 183.32978723407723,228.5466061629122 184.0,228.7115627663443 185.14893617038615,229.31640322814928 186.10638297884725,229.9212430336629 186.4893617022317,230.03121383691905 186.92021276592277,230.2511553784134 187.97340425522998,230.5260821832344 188.5,230.4710968331783 188.45212765969336,230.4710968331783 188.45212765969336,230.4710968331783 188.3085106385406,230.5260821832344 188.4042553191539,230.4710968331783 188.45212765969336,230.4710968331783 188.5,230.5260821832344 188.21276595722884,230.4710968331783 187.59042553184554,230.4710968331783 185.4840425529983,230.5260821832344 184.04787234053947,230.08619923051447 182.65957446815446,229.81127220881172 181.27127659553662,229.70130136219086 179.88297872338444,229.75628678809153 179.16489361715503,229.81127220881172 177.77659574477002,229.9212430336629 177.15425531892106,229.9212430336629 175.0,229.75628678809153 174.32978723407723,229.59133049368393 173.0372340423055,229.26141775865108 172.36702127661556,228.93150482838973 171.07446808507666,228.4916206173948 170.4042553191539,228.27167838194873 167.67553191492334,227.72182241349947 165.9042553191539,227.00700884399703 165.7606382977683,226.6770945797325 166.33510638284497,226.5671231148881 166.57446808507666,226.5671231148881 166.76595744676888,226.34718012035592 166.57446808507666,226.29219435801497 166.09574468061328,226.18222281726776 165.85638297861442,226.1272370388615 165.71276595746167,226.0722512549255 165.42553191492334,226.0722512549255 165.23404255323112,225.96227967075538 164.99468085099943,225.96227967075538 164.75531914876774,225.96227967075538 164.42021276592277,225.8523080649902 164.18085106369108,225.7423364375718 164.03723404253833,225.6873506156844 163.55851063830778,225.4124214250478 163.4148936169222,225.30244971072534 163.17553191492334,225.1374920986127 163.03191489353776,225.02752033027355 162.888297872385,224.86256263690302 162.69680851045996,224.64261896983953 162.361702127615,224.3676892640069 162.07446808507666,224.20273137534969 161.93085106369108,224.09275942249224 161.69148936169222,223.81782944552833 161.59574468061328,223.32295514538419 161.59574468061328,222.88306650985032 161.54787234053947,222.6081359362579 161.5,222.38819137983955 161.64361702115275,221.94830200687284 161.59574468061328,221.34345355216647 161.59574468061328,221.06852221954614 161.54787234053947,220.90356335480465 161.64361702115275,220.73860444140155 161.59574468061328,220.68361812614603 161.64361702115275,220.29871376691153 161.69148936169222,220.02378191897878 161.93085106369108,219.96879553317558 162.40957446815446,219.80383634311147 162.64893617015332,219.69386352261063 162.79255319130607,219.63887710432755 163.07978723407723,219.52890425140504 163.12765957438387,219.52890425140504 163.12765957438387,219.4739178167074 163.17553191492334,219.4739178167074" stroke="#4dd2ff" stroke-linecap="round" stroke-linejoin="round" stroke-width="0.5"><title>2021-03-02 1.4km</title></polyline><polyline fill="none" points="16.46046511642635,255.39670685463352 16.774418605025858,255.54094889492262 20.22790697682649,256.1900377253187 22.425581395626068,256.98336773522897 23.2418604651466,257.3439720008755 25.43953488394618,257.92093845579075 26.255813953466713,257.92093845579075 28.579069767612964,257.77669688494643 29.332558139692992,257.5603344748379 31.655813953606412,257.41609283257276 33.10000000009313,257.92093845579075 33.85348837217316,258.209421512729 35.17209302354604,258.71426658827113 36.42790697677992,258.93062865681713 37.997674418846145,258.786387285043 38.24883720930666,258.64214588463074 38.5,258.786387285043 38.437209302559495,259.79607629112434 37.30697674443945,260.08455860830145 36.36511627910659,260.8778843934997 35.92558139516041,261.0221253531636 35.48604651167989,261.1663662841311 35.234883720986545,261.1663662841311 34.85813953494653,261.2384867388173 34.60697674448602,261.3827276270604 33.72790697682649,261.743329723482 33.85348837217316,262.10393164196284 34.29302325588651,262.39241304877214 34.29302325588651,262.4645333828521 34.29302325588651,262.5366537095397 34.355813953559846,262.4645333828521 34.04186046519317,262.39241304877214 33.66511627915315,262.5366537095397 33.53953488403931,262.6087740291259 33.41395348822698,262.68089434184367 33.351162790786475,262.75301464722725 33.351162790786475,262.75301464722725 33.10000000009313,262.39241304877214 32.97441860474646,262.24817235959927 32.78604651149362,262.03181127260905 32.72325581405312,261.8875705123064 32.09534883755259,261.743329723482 31.84418604662642,261.743329723482 31.53023255825974,261.743329723482 31.216279070125893,261.67120931850513 30.83953488408588,261.67120931850513 30.52558139548637,261.67120931850513 29.897674418753013,261.52696848718915 29.583720930153504,261.45484806067543 29.269767442252487,261.3827276270604 28.955813953420147,261.3106071865186 28.32790697691962,261.1663662841311 28.076744185993448,261.0221253531636 27.7627906978596,260.9500048768823 27.448837209492922,260.8057639031322 27.134883720893413,260.6615229010349 26.8837209304329,260.4451613446581 26.31860465137288,260.1566791696823 25.753488372080028,259.86819688096875 25.31395348883234,259.4354732345091 25.0,259.2912319623283 24.68604651163332,259.1469906614511 24.372093023499474,259.0027493322268 24.058139534667134,258.85850797448074 23.86976744211279,258.786387285043 23.367441860726103,258.57002517359797 23.11627907003276,258.4979044556967 22.865116279106587,258.4257837305777 22.613953488413244,258.28154225915205 22.300000000279397,258.209421512729 21.986046511679888,258.13730075926287 21.295348837273195,258.06517999846255 21.044186046812683,257.99305923079373 20.730232558213174,257.92093845579075 20.35348837217316,257.92093845579075 20.102325581479818,257.84881767391926 19.47441860474646,257.77669688494643 19.160465116379783,257.63245528534753 18.59534883731976,257.1997303159442 17.967441860586405,256.98336773522897 17.716279069893062,256.9112468608073 17.402325581759214,256.8391259793425 17.02558139548637,256.76700509065995 16.774418605025858,256.6948841949343 16.46046511642635,256.5506423818297 15.895348837366328,256.2621586708119 15.58139534899965,256.1179167724913 15.330232558073476,255.97367484582355 14.70232558157295,255.6130699045607 14.513953488552943,255.46882787835784 14.26279069762677,255.32458582380787 13.69767441879958,254.96398056240287 13.446511628106236,254.7476173203322 13.132558139739558,254.3148906439892 12.693023256026208,253.81004253140418 11.93953488371335,253.23307283304166 11.93953488371335,253.01670907909283 11.813953488599509,252.65610267966986 11.688372093485668,252.36761743220268 11.5,251.43003959202906 11.688372093485668,251.06943241041154 11.751162790693343,250.7088250509696 11.813953488599509,250.42033903533593 11.876744186505675,250.20397444895934 11.876744186505675,249.84336666268064 11.876744186505675,248.9057855863357 11.876744186505675,248.25669029093115 12.567441860679537,247.96820330794435 13.069767442066222,247.67971621121978 13.509302326012403,247.53547262010397 13.823255814379081,247.46335081395227 13.948837209492922,247.31910718022846 14.827906976919621,247.24698535277275" stroke="#4dd2ff" stroke-linecap="round" stroke-linejoin="round" stroke-width="0.5"><title>2020-12-25 1.0km</title></polyline><polyline fill="none" points="41.90601503755897,251.8813230539672 42.2105263157282,252.17278965492733 42.464285714318976,252.46425611217273 43.02255639084615,252.814015671378 45.20488721807487,253.3969478099607 46.372180451173335,253.7467068171827 47.133458646712825,253.92158624331933 50.68609022558667,255.32061978871934 51.7011278194841,256.02013531984994 52.86842105258256,256.5447714247275 54.59398496244103,257.185992698709 55.25375939835794,257.30257831001654 56.47180451150052,257.30257831001654 57.182330826995894,257.30257831001654 58.40037593967281,257.06940706435125 59.51691729342565,256.95282140676863 60.785714285913855,257.0111142384121 61.49624060164206,256.95282140676863 63.475563909858465,257.30257831001654 64.13533834577538,257.53574946388835 65.40413533826359,257.76892052585026 66.11466165445745,257.7106277688872 67.38345864671282,257.6523350063362 67.94172932347283,257.5940422380809 68.5,257.82721327705076 68.44924812018871,257.8855060223141 68.29699248145334,257.94379876181483 68.24624060164206,258.00209149578586 68.24624060164206,258.0603842238197 68.19548872183077,258.00209149578586 68.09398496244103,258.118676946091 68.09398496244103,258.00209149578586 68.14473684248514,258.0603842238197 68.19548872183077,258.118676946091 68.14473684248514,258.0603842238197 68.24624060164206,257.94379876181483 68.19548872183077,257.94379876181483 68.14473684248514,257.94379876181483 68.14473684248514,258.00209149578586 68.14473684248514,257.94379876181483 68.14473684248514,257.94379876181483 68.14473684248514,257.94379876181483 68.14473684248514,258.00209149578586 68.09398496244103,258.00209149578586 68.09398496244103,258.00209149578586 68.04323308262974,258.00209149578586 67.99248120328411,258.00209149578586 68.09398496244103,258.00209149578586 68.09398496244103,258.00209149578586 68.09398496244103,258.00209149578586 68.04323308262974,258.00209149578586 68.04323308262974,258.0603842238197 67.94172932347283,258.00209149578586 66.77443609037437,258.00209149578586 65.45488721807487,258.00209149578586 64.13533834577538,257.7106277688872 63.52631578966975,257.53574946388835 62.257518796948716,257.185992698709 61.5977443610318,257.06940706435125 60.22744360892102,257.06940706435125 59.567669173004106,257.0111142384121 58.19736842112616,257.127699884295 56.77631578943692,257.30257831001654 56.116541353520006,257.30257831001654 54.74624060164206,257.24428550724406 54.035714285681024,257.06940706435125 50.83834586455487,256.02013531984994 50.17857142863795,255.78696356801083 48.30075187981129,255.32061978871934 47.79323308262974,255.26232679048553 45.763157894834876,254.91256868001074 44.59586466150358,254.38793112634448 43.93609022558667,254.0381724986364 42.66729323309846,253.3386546219699 41.5,252.93060214509023" stroke="#4dd2ff" stroke-linecap="round" stroke-linejoin="round" stroke-width="0.5"><title>2020-12-08 1.1km</title></polyline><polyline fill="none" points="71.5,252.21688039737637 71.75961538474075,252.26657923389575 73.49038461549208,253.6084459623671 74.05288461549208,253.80724072939483 76.25961538474075,254.45332318075816 77.29807692323811,254.75151480198838 77.81730769248679,254.95030911802314 79.02884615398943,255.39759604274877 80.11057692323811,255.94427952257684 80.67307692323811,256.29216870098026 83.44230769225396,257.2364381174557 84.04807692347094,257.2861364587152 85.77884615398943,257.0873430640495 86.29807692323811,257.0376447030285 89.02403846173547,257.0873430640495 89.58653846150264,257.13704142006463 91.27403846173547,257.6340247109474 93.00480769248679,257.7831196025945 93.52403846173547,257.73342131017125 94.6490384619683,257.7831196025945 96.37980769225396,257.53462809184566 96.89903846173547,257.4849297750625 97.98076923098415,257.3855331266823 98.5,257.33583479523077 98.2836538462434,256.9382479664928 97.07211538474075,256.88854959077435 96.55288461549208,256.9382479664928 95.47115384647623,257.2364381174557 95.08173076948151,257.33583479523077 93.95673076948151,257.5843264038558 93.4375,257.6340247109474 92.35576923098415,257.6340247109474 91.79326923098415,257.53462809184566 90.71153846150264,257.33583479523077 90.19230769271962,257.1867397711321 88.50480769248679,256.88854959077435 87.94230769248679,256.88854959077435 86.81730769248679,256.9382479664928 86.21153846150264,256.9382479664928 85.08653846173547,257.0376447030285 83.96153846173547,257.0873430640495 82.87980769248679,257.0376447030285 81.84134615398943,256.78915282484377 81.32211538474075,256.64005763921887 80.19711538497359,256.29216870098026 79.67788461549208,256.09337491414044 78.63942307699472,255.74548559851246 77.25480769225396,255.34789751510834 76.86538461549208,255.29819898269488 75.82692307699472,255.04970624673297 74.39903846173547,254.6024190133612 74.00961538474075,254.3042273040046 73.10096153849736,253.80724072939483 72.62500000023283,253.55874725829926" stroke="#4dd2ff" stroke-linecap="round" stroke-linejoin="round" stroke-width="0.5"><title>2020-12-03 1.3km</title></polyline><polyline fill="none" points="128.21478873235174,255.7097914389451 128.45246478868648,256.5833735263441 128.5,256.85636764595984 127.69190140860155,257.3477567220689 126.31338028167374,257.29315795737784 124.41197183099575,256.96556525613414 122.60563380271196,256.2011815327569 121.98767605633475,256.09198377176654 118.47007042262703,254.72700994316256 117.18661971832626,254.50861381803406 115.23767605633475,254.56321285746526 113.90669014072046,254.50861381803406 112.95598591561429,254.50861381803406 112.38556338031776,254.50861381803406 111.10211267601699,254.3994157234556 110.674295774661,254.3448166680755 109.200704225339,254.23561854078434 108.63028169004247,254.18101946933893 106.63380281697027,254.0172222222318 106.01584507036023,253.90802403050475 104.7799295776058,253.79882581724087 103.16373239457607,253.08903690631269 102.54577464796603,252.870640135312 101.5,252.65224327798933 102.68838028167374,252.92523933615303 103.73415492963977,253.41663190134568 104.7799295776058,253.90802403050475 105.39788732398301,253.9626231289585 106.96654929593205,254.12642039224738 107.44190140836872,254.18101946933893 108.67781690158881,254.29021760710748 109.2957746477332,254.3448166680755 110.5792253522668,254.3448166680755 111.14964788756333,254.3994157234556 112.43309859163128,254.50861381803406 113.00352112669498,254.50861381803406 114.76232394366525,254.56321285746526 115.33274647896178,254.56321285746526 116.18838028167374,254.4540147734224 116.47359154932201,254.4540147734224 116.66373239434324,254.4540147734224 116.85387323936448,254.4540147734224 117.04401408438571,254.4540147734224 117.28169014095329,254.3994157234556 117.5193661970552,254.3994157234556 117.9947183097247,254.4540147734224 118.18485915497877,254.4540147734224 118.61267605656758,254.61781189130852 119.04049295769073,254.83620797318872 118.99295774661005,254.94540598179447 118.99295774661005,255.00000497797737 118.9454225350637,255.00000497797737" stroke="#4dd2ff" stroke-linecap="round" stroke-linejoin="round" stroke-width="0.5"><title>2020-11-30 1.0km</title></polyline></svg>