<?xml version="1.0" encoding="utf-8" ?>
<svg baseProfile="full" height="300mm" version="1.1" viewBox="0,0,200,300" width="200mm" xmlns="http://www.w3.org/2000/svg" xmlns:ev="http://www.w3.org/2001/xml-events" xmlns:xlink="http://www.w3.org/1999/xlink"><defs /><rect fill="#222222" height="300" width="200" x="0" y="0" /><text fill="#FFFFFF" style="font-size:12px; font-family:Arial; font-weight:bold;" x="10" y="20">Over 3km Runs</text><text fill="#FFFFFF" style="font-size:4px; font-family:Arial" x="10" y="280">ATHLETE</text><text fill="#FFFFFF" style="font-size:9px; font-family:Arial" x="10" y="290">jdzj</text><text fill="#FFFFFF" style="font-size:4px; font-family:Arial" x="120" y="280">STATISTICS</text><text fill="#FFFFFF" style="font-size:3px; font-family:Arial" x="120" y="285">Number: 24</text><text fill="#FFFFFF" style="font-size:3px; font-family:Arial" x="120" y="290">Weekly: 3.0</text><text fill="#FFFFFF" style="font-size:3px; font-family:Arial" x="141" y="285">Total: 45.7 km</text><text fill="#FFFFFF" style="font-size:3px; font-family:Arial" x="141" y="290">Avg: 1.9 km</text><text fill="#FFFFFF" style="font-size:3px; font-family:Arial" x="167" y="285">Min: 1.0 km</text><text fill="#FFFFFF" style="font-size:3px; font-family:Arial" x="167" y="290">Max: 3.7 km</text><polyline fill="none" points="22.994011975824833,44.594361171359196 27.520958083681762,43.18055412219837 29.3892215564847,44.677526215673424 29.3892215564847,46.25766045256751 28.16766467038542,46.92297921772115 30.323353292886168,49.2515906332992 32.550898203160614,49.501084320421796 35.42514970013872,48.17045044351835 38.65868263458833,44.095370727125555 41.532934131566435,45.1765163046075 43.904191616456956,43.762710261915345 47.9281437122263,44.261700908944476 47.9281437122263,39.18861514230957 47.49700598791242,42.2657364938641 45.125748502556235,41.849909960874356 48.0,42.34890177519992 47.856287424918264,44.51119611837203 41.67664670618251,45.09335131075932 38.65868263458833,44.012205623672344 33.772455089725554,50.16640044702217 34.922155688516796,49.16842605423881 29.532934131566435,49.08526146656368 28.45508982008323,47.25563839741517 30.03592814365402,47.25563839741517 29.892215568572283,46.423990194511134 28.023952095303684,43.09738892543828 27.23353293351829,44.261700908944476 25.652694610413164,44.095370727125555 23.64071856252849,48.41994446038734 16.958083831705153,51.91285270365188 14.802395209204406,55.904729570494965 14.514970059506595,52.82765954005299 13.940119760110974,56.73636813199846 13.43712574802339,54.90676218061708 13.940119760110974,56.154221227858216 13.508982035331428,55.073090163525194 16.45508982008323,56.57004048739327 18.82634730497375,60.146077391458675 21.91616766434163,59.89658695226535 22.77844311343506,58.15015174518339 20.91017964016646,57.31851462175837 22.562874251045287,57.31851462175837 21.772455089725554,58.31647906865692 21.053892214782536,57.65116957272403 21.91616766434163,58.64913361356594 22.13173652626574,57.817496997420676 22.49101796373725,59.73025995033095 21.26946107717231,60.81138485769043 17.317365269176662,60.478731192299165 13.652694609947503,56.154221227858216 14.299401197116822,52.4118383777095 14.730538921430707,55.40574602765264 12.0,56.98585953540169 12.790419161319733,55.655237837228924 12.28742514923215,57.31851462175837 14.299401197116822,55.904729570494965 14.586826346814632,52.24550985352835" stroke="#4dd2ff" stroke-linecap="round" stroke-linejoin="round" stroke-width="0.5"><title>2021-04-05 1.9km</title></polyline><polyline fill="none" points="86.97839291335549,59.47121449871338 85.5666684868047,60.1819545897888 86.11908239277545,59.329066306643654 87.10115155915264,59.329066306643654 87.31597918923944,58.724935844074935 86.21115137718152,65.29924048951943 83.84804744564462,67.00498577128747 83.72528879973106,68.0 83.63321981555782,67.00498577128747 86.30322036147118,65.40584981403663 87.19322054355871,61.923261691699736 87.80701377254445,56.37947824789444 86.27253069996368,55.277818477887195 82.95804726355709,54.673680997482734 80.99390893091913,56.20179142363486 76.8814942969475,57.37452279095305 69.39321690343786,61.88772489893017 68.04287179966923,59.71997369531891 66.47769906593021,60.395176334655844 65.74114719114732,60.110880645836005 61.44459458824713,41.666702590940986 61.19907729676925,38.29049500732799 63.37804325961042,48.17025243691751 64.05321581137832,48.4545578599209 71.94045880367048,44.865184885653434 78.0170117703965,42.91056030272739 81.82252978999168,40.77823008026462 87.16253088205121,36.47799113515066 90.32356601126958,32.0 92.13425603660289,32.924034625903005 91.91942840651609,33.20835247964715 91.1828765317332,32.95957437029574 91.61253179202322,32.604176763328724 91.61253179202322,33.17281276063295 91.79666976071894,32.21323897721595 90.75322127144318,32.53309719832032" stroke="#4dd2ff" stroke-linecap="round" stroke-linejoin="round" stroke-width="0.5"><title>2021-04-05 3.7km</title></polyline><polyline fill="none" points="114.41744548268616,36.947195333312266 120.13707165094092,41.49298666557297 124.84735202556476,54.61075071699452 124.9595015575178,61.23452085000463 127.53894081013277,60.715010711806826 130.11838006228209,63.052804666687734 135.9501557634212,58.76684580615256 141.33333333348855,60.19550036138389 130.34267912758514,57.59794543241151 130.34267912758514,61.88390822533984 130.90342679154128,55.90953188855201 130.67912772577256,62.14366308285389 131.01557632395998,60.06562274089083 126.52959501557052,60.97476580750663 129.55763239925727,59.026601298945025 131.12772585684434,61.88390822533984 128.3239875389263,60.06562274089083 130.34267912758514,59.546112125739455 129.8940809974447,62.01378566049971 131.12772585684434,62.01378566049971 129.66978193167597,59.41623443865683 132.24922118335962,62.66317263885867 129.66978193167597,60.32537796860561 129.8940809974447,58.247334661427885 131.80062305321917,61.23452085000463 130.0062305298634,58.37721246725414 126.9781931466423,58.247334661427885 125.63239875389263,61.62415331497323 125.96884735208005,59.93574510712642 120.24922118382528,55.64977576036472 122.49221183825284,47.33755168796051 120.24922118382528,48.246703837416135 120.3613707171753,44.86984972690698 113.74454828631133,41.233227597898804 105.33333333348855,42.01250464236364 110.04361370764673,43.70093660324346 111.61370716523379,48.1168249984039" stroke="#4dd2ff" stroke-linecap="round" stroke-linejoin="round" stroke-width="0.5"><title>2021-04-04 1.4km</title></polyline><polyline fill="none" points="174.22346368711442,33.88497076916974 163.06145251356065,38.9679125896655 152.30167597765103,51.44413075631019 162.45810055872425,62.649509653798304 168.3910614522174,55.949399082688615 175.32960893865675,53.0614085609559 175.530726257246,49.24925016227644 181.9664804469794,44.51291485829279 172.51396648027003,32.49871007807087 164.56983240228146,37.81270047777798 152.0,52.13725008908659 162.256983240135,61.378801975166425 168.2905027931556,54.332125268294476 178.1452513965778,52.714849219308235 181.0614525140263,50.51997100783046 182.56983240228146,44.74395604932215 182.16759776556864,43.70427032967564 180.96089385496452,46.01468178536743 177.44134078221396,47.747487384825945 177.34078212315217,46.707804332952946 188.0,39.6610393099254 184.0782122905366,37.581657918635756 179.95530726248398,32.49871007807087 177.64245810033754,36.31092302768957 170.60335195530206,33.307362347259186 156.72625698288903,45.783640844980255 152.40223463624716,51.90621035709046 162.45810055872425,61.378801975166425 168.3910614522174,55.140762454713695 169.29608938563615,55.83387959864922 166.78212290490046,59.299459161935374 180.55865921778604,62.18743429402821 184.98324022395536,67.50128992204554 175.63128491584212,50.404450987814926 176.63687150878832,47.285406142356806 181.56424581026658,43.12666675366927 176.1340782120824,39.77656038978603 173.1173184355721,34.000492419232614 171.00558659201488,33.1918406287441 169.1955307261087,34.46257890574634 170.10055865952745,35.27122981811408" stroke="#4dd2ff" stroke-linecap="round" stroke-linejoin="round" stroke-width="0.5"><title>2021-04-02 3.1km</title></polyline><polyline fill="none" points="34.08510638284497,103.9124407482741 29.872340425499715,102.44609656030661 21.925531914806925,102.29946182333515 13.30851063830778,101.16304065013537 12.574468085193075,100.46652272972278 12.0,96.9839135473012 12.82978723407723,96.32404707744718 14.55319148930721,96.25072850837023 12.98936170223169,91.3750112070993 13.372340425499715,84.77619418970426 15.765957446885295,81.36675948635093 16.723404255346395,79.05712465639226 21.28723404253833,75.90426663501421 23.13829787238501,77.92063240663265 24.86170212761499,78.28724318949389 25.755319148884155,79.35041241458384 29.521276595653035,79.35041241458384 35.329787233960815,80.26693516716477 38.138297872268595,81.73336686947732 42.797872340423055,85.87600516324164 47.202127659344114,93.50127173008514 47.329787233960815,94.49107851358713 46.30851063807495,95.37090455245925 45.893617021269165,96.76395818748279 46.787234042421915,96.72729894818622 48.0,99.84332137860474 47.202127659344114,101.4929697358748 44.425531914806925,102.00619217584608 43.75531914876774,102.84934178873664 42.19148936145939,102.07950960932067 41.521276595653035,102.37277919906774 39.861702127498575,101.85955726529937 39.06382978707552,104.09573336495669 38.808510638191365,103.83912367626908" stroke="#4dd2ff" stroke-linecap="round" stroke-linejoin="round" stroke-width="0.5"><title>2021-04-02 3.2km</title></polyline><polyline fill="none" points="62.438549956073985,86.95631502108881 74.613616268849,92.38559636118589 81.20247568539344,92.33075540047139 85.21308576501906,93.2630509956507 90.6083112291526,91.94686852482846 94.66666666674428,92.0017095230869 85.49955791351385,93.20821012166562 81.48894783388823,92.2759144345182 74.99557913350873,92.60496014967794 66.59239610983059,90.19195371726528 58.66666666674428,86.73694900429109" stroke="#4dd2ff" stroke-linecap="round" stroke-linejoin="round" stroke-width="0.5"><title>2021-04-01 1.4km</title></polyline><polyline fill="none" points="105.33333333325572,85.46568056556862 109.39879978168756,89.5939564043656 114.17130387341604,90.60910239623627 119.76868521561846,93.51917924941517 127.42825968354009,93.38382711133454 131.6704855428543,94.53431943443138 141.33333333325572,93.38382711133454 134.55755591928028,94.3989674965851 126.36770321871154,93.18079885409679 119.06164757232182,93.51917924941517 108.1025641025044,90.5414260433754 106.98308783420362,89.93233856844017 108.2793235136196,89.39092702569906" stroke="#4dd2ff" stroke-linecap="round" stroke-linejoin="round" stroke-width="0.5"><title>2021-03-29 1.2km</title></polyline><polyline fill="none" points="169.34351288992912,108.0 167.66582360910252,98.539682311879 166.49873541342095,98.20480188349029 160.8091804604046,90.00019025075017 157.01614382490516,89.66530646407045 168.83291180431843,72.0 172.77183446427807,74.42795484029921 180.5037937592715,82.29782983608311 179.70142062520608,87.90716442343546 182.98385617462918,107.16280798328808 172.55300542758778,100.21408247761428 168.75996879208833,99.46060281037353 168.39525373093784,101.05128132598475" stroke="#4dd2ff" stroke-linecap="round" stroke-linejoin="round" stroke-width="0.5"><title>2021-03-28 1.4km</title></polyline><polyline fill="none" points="29.55692307720892,123.47923456260469 31.60615384601988,124.68797654553782 32.104615384712815,123.6700887104962 34.09846153855324,123.54285261814948 34.54153846180998,122.5249629758182 35.150769230676815,123.22476227750303 36.09230769239366,122.5249629758182 39.0276923077181,124.17903282894986 40.74461538461037,122.90667177998694 45.78461538441479,124.43350473733153 45.452307692496106,123.1611441904679 47.83384615392424,123.41561650083167 46.061538461595774,122.77943553699879 46.50461538461968,121.76154468976893 46.615384615259245,123.1611441904679 46.338461538543925,122.5249629758182 45.72923076944426,123.35199843259761 45.84000000008382,122.33410848886706 46.615384615259245,123.41561650083167 45.78461538441479,123.1611441904679 47.44615384633653,122.97028989199316 47.44615384633653,123.60647066734964 46.72615384589881,122.71581740601687 45.56307692313567,123.35199843259761 47.88923076912761,122.97028989199316 47.16923076915555,122.39772665750934 46.94769230764359,124.30626879574265 45.95076923095621,123.47923456260469 45.84000000008382,124.17903282894986 47.22461538459174,123.28838035825174 46.615384615259245,123.35199843259761 48.0,125.06968406954547 47.83384615392424,123.22476227750303 47.00307692331262,123.35199843259761 47.44615384633653,124.24265081534395 46.22769230790436,124.6243586030323 46.061538461595774,123.92456081992714 45.39692307705991,124.87883033574326 43.07076923083514,124.56074065412395 43.07076923083514,123.28838035825174 43.62461538449861,134.2305968737346 37.36615384626202,135.63016931642778 32.270769230788574,133.97612883080728 32.65846153837629,134.80314960394753 31.107692307792604,133.97612883080728 22.13538461527787,133.53080951370066 17.64923076936975,134.8667665424291 17.261538461549208,137.15697215381078 16.20923076942563,137.9839888481656 12.609230769332498,138.23845531028928 12.0,137.2205888601602" stroke="#4dd2ff" stroke-linecap="round" stroke-linejoin="round" stroke-width="0.5"><title>2021-03-26 1.5km</title></polyline><polyline fill="none" points="62.471544715808704,127.71877545994357 73.88617886207066,132.37728184994194 77.90011614421383,132.08912810866605 81.4123112661764,132.8575377066445 86.47154471557587,131.8489998606383 88.47851335653104,132.08912810866605 94.66666666674428,129.87994376005372 89.18931475048885,132.08912810866605 82.12311265990138,132.6654354208149 78.40185830439441,131.89702551972005 74.26248548226431,132.2332050006371 65.3565621371381,130.07204714475665 58.66666666674428,127.14246229335549" stroke="#4dd2ff" stroke-linecap="round" stroke-linejoin="round" stroke-width="0.5"><title>2021-03-26 1.6km</title></polyline><polyline fill="none" points="141.33333333325572,133.1943274998921 138.58290888508782,132.8433039888041 134.48783248406835,130.24572462507058 131.0039615163114,130.3159295975347 125.9920769664459,128.3501877555973 113.76796830748208,128.70121348276734 115.60158460633829,129.61387956282124 114.86813808698207,129.8244946458144 105.33333333325572,126.8056725001079 113.03452178789303,129.75428962497972 123.97509903763421,130.45633952139178 133.32654216163792,132.7028945357306" stroke="#4dd2ff" stroke-linecap="round" stroke-linejoin="round" stroke-width="0.5"><title>2021-03-24 1.1km</title></polyline><polyline fill="none" points="188.0,132.6406034679967 185.40760869556107,132.47205506678438 182.86413043481298,130.56183636852074 178.80434782616794,129.8876400042791 175.47826086962596,128.37069526768755 165.30434782616794,128.59542807604885 166.18478260887787,129.5505415229709 158.21195652196184,127.35939653206151 152.0,128.14596237044316 154.44565217383206,128.48306168289855 158.40760869556107,127.41557984234532 165.7445652175229,129.6629077057005 179.09782608714886,130.22473828616785" stroke="#4dd2ff" stroke-linecap="round" stroke-linejoin="round" stroke-width="0.5"><title>2021-03-23 1.3km</title></polyline><polyline fill="none" points="47.28191489353776,171.7871043960913 35.17021276592277,167.5530574779841 30.23936170199886,168.37787433440099 25.35638297884725,167.8279965656111 26.69680851069279,168.70780073542846 26.17021276592277,168.87276386277517 18.46276595722884,166.56327563914238 12.0,167.4980696440325 17.98404255323112,166.6732514858595 25.21276595746167,168.76278844987974 34.78723404277116,169.42264060105663 48.0,173.43672436085762 45.84574468084611,172.39196561649442 48.0,171.7871043960913" stroke="#4dd2ff" stroke-linecap="round" stroke-linejoin="round" stroke-width="0.5"><title>2021-03-22 1.6km</title></polyline><polyline fill="none" points="89.32313185394742,152.22261715342756 89.81892374379095,152.57028276778874 89.54348380502779,153.67648904197267 92.04998724814504,154.05575888909516 92.71104310115334,154.5930570740602 92.49069115007296,155.57283380776062 93.48227492964361,156.23655183572555 94.66666666662786,158.29090848416672 93.95052282558754,160.18722605818766 92.90385105833411,160.6296985509107 92.51823514408898,161.76748216737178 87.4225962763885,166.19215799254016 81.8036215249449,168.37286869887612 80.04080591665115,169.51062494094367 78.69115021673497,170.64837716071634 74.75235909200273,176.08424892116454 58.66666666662786,187.77738284657244" stroke="#4dd2ff" stroke-linecap="round" stroke-linejoin="round" stroke-width="0.5"><title>2021-03-21 1.3km</title></polyline><polyline fill="none" points="121.65241207752842,166.87242063402664 121.19546260987408,163.95042915389058 118.06209483207203,160.0544056566141 116.78916417225264,159.67978591335122 112.48078347754199,163.61327484884532 108.2050420306623,169.0451690039481 107.12794685713015,169.34485746195423 105.95293394033797,172.52903277258156 107.94392804929521,175.37603757853503 112.67661896371283,177.62365792694618 117.80098085047211,181.78172062366502 117.50722762127407,182.0064794770151 118.19265182281379,181.93155987397768 117.57250611681957,181.59442147804657 118.35584806115367,182.90551356453216 120.0857281886274,184.96579201586428 126.64621697354596,188.0 130.04069873294793,187.66286697244504 138.03731441590935,182.08139906529686 139.11440958967432,179.8338050089951 140.7137327264063,172.64141494454816 139.11440958967432,169.8693116964423 133.14142726315185,164.36250623263186 126.6788562212605,156.23326699167956 121.88088681129739,152.0 116.4954109430546,159.4924759035057 117.47458837379236,159.60486192046665 118.812797528808,160.84110591892386 121.42393734364305,164.175198524812 121.39129809604492,165.2241205026803" stroke="#4dd2ff" stroke-linecap="round" stroke-linejoin="round" stroke-width="0.5"><title>2021-03-20 3.7km</title></polyline><polyline fill="none" points="184.45320197055116,179.06469466985436 172.15763546782546,175.12651585572166 159.1527093600016,174.71911676140735 152.177339901682,173.22531801980222 152.0,170.7809130870737 153.00492610852234,169.69450810848502 152.0591133008711,167.8611958194524 152.29556650249287,164.66986278019613 156.0197044336237,160.93530533020385 162.16748768487014,161.6822184410994 168.43349753692746,163.7871510295663 180.25615763571113,163.51554718642728 186.58128078840673,162.49703181959921 187.3497536946088,161.61431728268508 186.22660098527558,164.19455659366213 185.51724137924612,172.9537179004983 186.1083743844647,177.43510616885033 188.0,177.77460409136256" stroke="#4dd2ff" stroke-linecap="round" stroke-linejoin="round" stroke-width="0.5"><title>2021-03-19 1.6km</title></polyline><polyline fill="none" points="26.589327146299183,209.6322446479753 34.41299303958658,212.99015569119365 37.44779582391493,212.7982759968727 40.09280742472038,213.37391473917523 42.87703016248997,212.7662960368325 44.352668213425204,212.8942158582504 48.0,211.8068957676005 41.234338747221045,213.3419348358002 37.754060324979946,212.7982759968727 33.85614849207923,212.95817575007095 18.292343387613073,208.0012467369961 12.0,207.32965697723557 13.364269141573459,207.52153990761144 12.445475638029166,207.13777393320925 12.72389791184105,206.97787130982033 14.83990719250869,207.10579341487028 17.651972157880664,206.62608526082477 18.59860788867809,207.32965697723557 19.155452436301857,206.97787130982033 19.823665893287398,207.61748133029323 20.408352668280713,207.42559845669894 21.16009280749131,208.065207593987 22.10672853840515,207.71342272451147 24.055684454739094,209.12055991202942 24.445475638029166,208.64085473876912 23.443155452492647,207.13777393320925 23.053364269202575,207.1697544484632 23.19257540605031,208.25709008905687 25.002320185652934,209.15254023170564 25.754060324979946,207.36163747357205 26.171693735639565,208.22510968113784 26.728538283146918,208.1291684382013 26.143851508153602,208.28907049392 26.477958236820996,208.19312926995917 25.67053364275489,207.0738128933881 26.867749420111068,206.97787130982033" stroke="#4dd2ff" stroke-linecap="round" stroke-linejoin="round" stroke-width="0.5"><title>2021-03-19 3.1km</title></polyline><polyline fill="none" points="73.81581282871775,228.0 73.61362461326644,227.37295033491682 73.2294670039555,227.3032780468493 72.66334000066854,227.8374317286507 73.35077993315645,223.9125351102266 73.08793525304645,224.86473497538827 73.20924818236381,226.6065540320269 72.82509057305288,226.9084680248925 70.64145784615539,226.86201974347932 70.37861316592898,225.46856704085076 70.56058255990501,224.2376769606053 75.85791380493902,223.05322948723915 79.41642639692873,222.820984186008 79.29511346772779,200.3617812031298 80.4880239389604,198.8288102212391 82.95472016755957,196.6454706771765 82.50990609347355,195.53056607696635 79.4973016831791,192.0" stroke="#4dd2ff" stroke-linecap="round" stroke-linejoin="round" stroke-width="0.5"><title>2021-03-18 2.7km</title></polyline><polyline fill="none" points="117.54277081927285,225.02934777688642 118.55065197939985,225.20409312837 118.7027849847218,226.0559747422958 119.08311749796849,226.27440539748932 121.13691306940746,226.68942304889788 123.79924066213425,226.4491497664858 125.6438533513574,226.9733820464171 127.35534966085106,228.0 127.79273205110803,226.62389399770473 127.5455159174744,220.79173078820168 129.12389584747143,220.6388255666825 126.86091739370022,220.00535995270184 124.67400544253178,219.896141560268 123.70415753382258,218.84764225195977 121.78347834188025,198.99074923795706 123.87530716473702,196.54401211666118 125.35860396630596,195.69201694978983 124.2936729292851,193.7914005300263 122.46807686577085,192.0" stroke="#4dd2ff" stroke-linecap="round" stroke-linejoin="round" stroke-width="0.5"><title>2021-03-17 2.8km</title></polyline><polyline fill="none" points="153.21276595746167,208.05719911074266 153.65957446815446,208.05719911074266 155.89361702138558,209.0102897916222 156.53191489353776,209.81675018259557 163.17021276592277,211.64961145381676 170.19148936169222,212.60269752907334 172.5531914893072,212.45606898190454 174.21276595746167,212.82264029618818 175.0425531915389,213.115897217358 178.361702127615,213.62909655139083 181.10638297884725,214.7288082172745 182.0,214.94875035516452 183.5319148937706,215.75520430423785 184.8085106385406,216.5616573782754 185.31914893630892,216.70828511595028 185.89361702138558,217.0015405046288 187.29787234053947,217.36810957768466 188.0,217.29479577759048 187.9361702131573,217.29479577759048 187.9361702131573,217.29479577759048 187.7446808514651,217.36810957768466 187.87234042561613,217.29479577759048 187.9361702131573,217.29479577759048 188.0,217.36810957768466 187.61702127661556,217.29479577759048 186.78723404277116,217.29479577759048 183.97872340423055,217.36810957768466 182.06382978730835,216.7815989740775 180.21276595746167,216.41502961178776 178.361702127615,216.2684018163127 176.51063829800114,216.34171571751358 175.55319148954004,216.41502961178776 173.70212765969336,216.5616573782754 172.8723404253833,216.5616573782754 170.0,216.34171571751358 169.10638297884725,216.12177399161737 167.3829787231516,215.6818903448875 166.4893617022317,215.2420064379112 164.7659574470017,214.6554941565846 163.87234042561613,214.36223784269532 160.23404255323112,213.62909655139083 157.87234042561613,212.67601179209305 157.6808510639239,212.23612610634882 158.4468085106928,212.08949748653686 158.7659574470017,212.08949748653686 159.02127659576945,211.79624016053276 158.7659574470017,211.72292581072543 158.12765957438387,211.57629708974855 157.80851063830778,211.5029827185208 157.6170212768484,211.42966833990067 157.23404255323112,211.42966833990067 156.97872340446338,211.28303956106538 156.65957446815446,211.28303956106538 156.34042553184554,211.28303956106538 155.89361702138558,211.1364107534173 155.57446808507666,210.98978191684 155.38297872338444,210.9164674875792 154.74468085123226,210.54989523341646 154.5531914893072,210.40326628106413 154.23404255323112,210.18332279816968 154.0425531915389,210.03669377375627 153.85106382984668,209.81675018259557 153.5957446808461,209.52349195978604 153.14893617038615,209.1569190187729 152.7659574470017,208.93697516719112 152.57446808507666,208.79034589667572 152.2553191492334,208.4237725941348 152.12765957438387,207.76394019386498 152.12765957438387,207.17742201313376 152.06382978730835,206.81084791506873 152.0,206.51758850651095 152.19148936169222,205.93106934253592 152.12765957438387,205.12460473628016 152.12765957438387,204.75802962610032 152.06382978730835,204.53808447311167 152.19148936169222,204.31813925527968 152.12765957438387,204.2448241682141 152.19148936169222,203.73161835590145 152.2553191492334,203.3650425586966 152.57446808507666,203.29172737762565 153.21276595746167,203.0717817908735 153.53191489353776,202.92515136353904 153.72340425522998,202.8518361391616 154.10638297884725,202.70520566857886 154.17021276592277,202.70520566857886 154.17021276592277,202.63189042231534 154.23404255323112,202.63189042231534" stroke="#4dd2ff" stroke-linecap="round" stroke-linejoin="round" stroke-width="0.5"><title>2021-03-02 1.4km</title></polyline><polyline fill="none" points="18.613953488413244,250.52894247276708 19.032558139413595,250.72126519324956 23.637209302280098,251.58671696705278 26.567441860679537,252.64449031359982 27.65581395337358,253.12529600114794 30.58604651130736,253.8945846076822 31.674418604467064,253.8945846076822 34.77209302317351,253.7022625132231 35.77674418594688,253.41377929970622 38.87441860418767,253.2214571100776 40.799999999813735,253.8945846076822 41.804651162587106,254.2792286836193 43.562790697906166,254.95235545100877 45.23720930190757,255.2408382090507 47.330232557840645,255.04851638001855 47.66511627845466,254.85619451286038 48.0,255.04851638001855 47.916279069613665,256.3947683881852 46.40930232545361,256.77941147767706 45.153488371986896,257.8371791912941 44.567441860213876,258.02950047084596 43.981395348440856,258.22182171215536 43.64651162736118,258.22182171215536 43.14418604597449,258.31798231840366 42.80930232536048,258.51030350272777 41.63720930181444,258.9911062979372 41.804651162587106,259.47190885589225 42.390697674360126,259.8565507316962 42.390697674360126,259.9527111770585 42.390697674360126,260.04887161270017 42.4744186042808,259.9527111770585 42.05581395328045,259.8565507316962 41.55348837189376,260.04887161270017 41.386046511586756,260.14503203879576 41.218604650814086,260.24119245575275 41.13488372042775,260.33735286293086 41.13488372042775,260.33735286293086 40.799999999813735,259.8565507316962 40.63255813950673,259.6642298127408 40.38139534834772,259.3757483634399 40.29767441842705,259.18342734966427 39.46046511642635,258.9911062979372 39.12558139488101,258.9911062979372 38.70697674388066,258.9911062979372 38.28837209288031,258.89494575798744 37.78604651149362,258.89494575798744 37.36744186049327,258.89494575798744 36.53023255802691,258.7026246495079 36.1116279065609,258.60646408086177 35.69302325602621,258.51030350272777 35.274418604094535,258.41414291533874 34.437209302093834,258.22182171215536 34.102325581014156,258.02950047084596 33.683720930013806,257.93333983584307 33.265116279013455,257.74101853754837 32.84651162754744,257.5486972013605 32.51162790693343,257.2602151261526 31.7581395348534,256.8755722262431 31.00465116230771,256.4909291745862 30.418604651466012,255.91396431264002 29.99999999953434,255.72164261637954 29.581395348533988,255.52932088187663 29.162790697533637,255.33699910959695 28.744186046067625,255.14467729930766 28.493023255839944,255.04851638001855 27.82325581368059,254.7600335647585 27.488372093066573,254.6638726075762 27.153488371986896,254.56771164073143 26.81860465090722,254.3753896788694 26.399999999906868,254.2792286836193 25.981395348440856,254.18306767899776 25.06046511605382,254.08690666459734 24.725581395439804,253.9907456410001 24.30697674397379,253.8945846076822 23.804651162587106,253.8945846076822 23.46976744150743,253.79842356516747 22.632558139041066,253.7022625132231 22.213953488506377,253.50994038046338 21.460465115960687,252.93297375459224 20.623255813959986,252.64449031359982 20.28837209288031,252.54832914774306 19.869767441879958,252.45216797245666 19.367441860493273,252.3560067875078 19.032558139413595,252.2598455932457 18.613953488413244,252.0675231757341 17.860465115867555,251.68287822772982 17.441860464867204,251.49055569665506 17.106976743787527,251.29823312768713 16.269767441786826,250.81742653943365 16.018604651093483,250.62510383781046 15.683720930013806,250.43278109835228 14.930232557933778,249.95197408314561 14.595348837319762,249.66348976042354 14.17674418585375,249.08652085863287 13.59069767408073,248.41339004185284 12.586046511307359,247.6440971107222 12.586046511307359,247.3556121054571 12.41860465100035,246.87480357283494 12.251162790693343,246.49015657627024 12.0,245.24005278939148 12.251162790693343,244.75924321386265 12.334883720614016,244.2784334013122 12.41860465100035,243.8937853804091 12.502325581386685,243.60529926529853 12.502325581386685,243.12448888353538 12.502325581386685,241.87438078178093 12.502325581386685,241.00892038783059 13.423255814239383,240.62427107722033 14.093023255933076,240.2396216149209 14.679069767706096,240.0472968267859 15.097674418706447,239.95113441854483 15.265116279013455,239.75880957359914 16.437209302093834,239.66264713701094" stroke="#4dd2ff" stroke-linecap="round" stroke-linejoin="round" stroke-width="0.5"><title>2020-12-25 1.0km</title></polyline><polyline fill="none" points="59.20802005007863,245.84176407189807 59.614035087870434,246.23038620653097 59.95238095219247,246.61900814960245 60.69674185453914,247.085354228504 63.60651629068889,247.86259707988938 65.1629072681535,248.32894242287148 66.17794486228377,248.56211499107303 70.91478696721606,250.42749305156758 72.26817042590119,251.3601804264472 73.8245614033658,252.05969523295062 76.12531328317709,252.91465693159262 77.00501253129914,253.0701044133748 78.6290726820007,253.0701044133748 79.57644110266119,253.0701044133748 81.20050125289708,252.759209419135 82.68922305782326,252.6037618756527 84.38095238106325,252.68148565123556 85.32832080218941,252.6037618756527 87.96741854655556,253.0701044133748 88.84711779444478,253.38099928520387 90.53884711768478,253.6918940344476 91.4862155392766,253.61417035851628 93.17794486228377,253.53644667513436 93.92230576463044,253.45872298406903 94.66666666674428,253.76961770269554 94.59899749374017,253.84734136302723 94.39598997542635,253.9250650157337 94.32832080218941,254.00278866104782 94.32832080218941,254.08051229838748 94.2606516291853,254.00278866104782 94.12531328340992,254.15823592810193 94.12531328340992,254.00278866104782 94.19298245641403,254.08051229838748 94.2606516291853,254.15823592810193 94.19298245641403,254.08051229838748 94.32832080218941,253.9250650157337 94.2606516291853,253.9250650157337 94.19298245641403,253.9250650157337 94.19298245641403,254.00278866104782 94.19298245641403,253.9250650157337 94.19298245641403,253.9250650157337 94.19298245641403,253.9250650157337 94.19298245641403,254.00278866104782 94.12531328340992,254.00278866104782 94.12531328340992,254.00278866104782 94.05764411017299,254.00278866104782 93.98997493763454,254.00278866104782 94.12531328340992,254.00278866104782 94.12531328340992,254.00278866104782 94.12531328340992,254.00278866104782 94.05764411017299,254.00278866104782 94.05764411017299,254.08051229838748 93.92230576463044,254.00278866104782 92.36591478716582,254.00278866104782 90.60651629068889,254.00278866104782 88.84711779444478,253.61417035851628 88.03508771932684,253.38099928520387 86.34335839585401,252.91465693159262 85.46365914796479,252.759209419135 83.63659147871658,252.759209419135 82.75689223082736,252.68148565123556 80.92982456157915,252.8369331790018 79.03508771932684,253.0701044133748 78.15538847143762,253.0701044133748 76.32832080218941,252.9923806763254 75.38095238083042,252.759209419135 71.11779448622838,251.3601804264472 70.23809523833916,251.04928475728957 67.73433583974838,250.42749305156758 67.05764411017299,250.3497690539807 64.35087719303556,249.88342490670038 62.79448621533811,249.1839081684593 61.91478696744889,248.7175633314764 60.22305764420889,247.7848728292738 58.66666666674428,247.2408028601203" stroke="#4dd2ff" stroke-linecap="round" stroke-linejoin="round" stroke-width="0.5"><title>2020-12-08 1.1km</title></polyline><polyline fill="none" points="105.33333333325572,246.2891738631879 105.67948717949912,246.35543897852767 107.98717948724516,248.1445946165477 108.73717948724516,248.40965430589858 111.67948717949912,249.2710975743248 113.06410256400704,249.66868640267057 113.75641025649384,249.93374549073633 115.37179487175308,250.53012805699836 116.81410256423987,251.25903936347459 117.56410256423987,251.7228916013264 121.256410256261,252.98191748996032 122.0641025644727,253.0481819449924 124.37179487175308,252.78312408539932 125.06410256400704,252.7168596040574 128.6987179487478,252.78312408539932 129.44871794851497,252.84938856010558 131.6987179487478,253.5120329479687 134.006410256261,253.7108261368121 134.6987179487478,253.6445617469144 136.19871794898063,253.7108261368121 138.506410256261,253.37950412248028 139.19871794851497,253.3132397001027 140.64102564100176,253.18071083561517 141.33333333325572,253.11444639367983 141.0448717949912,252.58433062199038 139.4294871792663,252.51806612103246 138.73717948724516,252.58433062199038 137.2948717949912,252.98191748996032 136.77564102574252,253.11444639367983 135.27564102550969,253.445768538455 134.58333333325572,253.5120329479687 133.14102564100176,253.5120329479687 132.39102564100176,253.37950412248028 130.94871794851497,253.11444639367983 130.25641025649384,252.91565302817617 128.006410256261,252.51806612103246 127.25641025649384,252.51806612103246 125.75641025649384,252.58433062199038 124.94871794851497,252.58433062199038 123.4487179487478,252.7168596040574 121.9487179487478,252.78312408539932 120.50641025649384,252.7168596040574 119.12179487198591,252.3855370997917 118.42948717949912,252.1867435189779 116.92948717973195,251.7228916013264 116.23717948724516,251.45783321885392 114.8525641025044,250.99398079805542 113.006410256261,250.4638633534778 112.48717948701233,250.39759864361258 111.1025641025044,250.06627499568276 109.1987179487478,249.46989201783435 108.67948717949912,249.07230307202553 107.46794871776365,248.40965430589858 106.83333333325572,248.07832967775175" stroke="#4dd2ff" stroke-linecap="round" stroke-linejoin="round" stroke-width="0.5"><title>2020-12-03 1.3km</title></polyline><polyline fill="none" points="187.6197183097247,250.94638858520193 187.93661971809343,252.1111647017533 188.0,252.47515686118277 186.92253521131352,253.13034229603363 185.08450704207644,253.05754394317046 182.54929577442817,252.6207536747679 180.1408450701274,251.60157537698979 179.31690140836872,251.45597836223897 174.6267605633475,249.63601325749187 172.9154929574579,249.34481842402602 170.31690140836872,249.4176171432482 168.5422535208054,249.34481842402602 167.2746478873305,249.34481842402602 166.5140845067799,249.34481842402602 164.80281690135598,249.19922096451046 164.23239436605945,249.12642222410068 162.26760563370772,248.9808247210458 161.50704225315712,248.90802595904097 158.8450704223942,248.68962962954538 158.02112676016986,248.5440320406342 156.3732394366525,248.39843442296842 154.21830985927954,247.4520492083393 153.3943661970552,247.16085351374932 152.0,246.86965770390816 153.58450704207644,247.23365244816523 154.97887323936448,247.88884253508877 156.3732394366525,248.5440320406342 157.1971830984112,248.61683083855314 159.28873239457607,248.83522718958557 159.92253521108069,248.90802595904097 161.5704225350637,249.0536234761239 162.39436619682238,249.12642222410068 164.10563380271196,249.12642222410068 164.86619718302973,249.19922096451046 166.57746478868648,249.34481842402602 167.33802816877142,249.34481842402602 169.68309859139845,249.4176171432482 170.4436619717162,249.4176171432482 171.58450704207644,249.2720196978771 171.96478873235174,249.2720196978771 172.2183098590467,249.2720196978771 172.4718309857417,249.2720196978771 172.72535211243667,249.2720196978771 173.04225352103822,249.19922096451046 173.35915492940694,249.19922096451046 173.99295774614438,249.2720196978771 174.2464788730722,249.2720196978771 174.81690140836872,249.49041585507803 175.38732394343242,249.7816106308601 175.3239436619915,249.92720797570655 175.3239436619915,250.00000663724495 175.26056338008493,250.00000663724495" stroke="#4dd2ff" stroke-linecap="round" stroke-linejoin="round" stroke-width="0.5"><title>2020-11-30 1.0km</title></polyline></svg>