<?xml version="1.0" encoding="utf-8" ?>
<svg baseProfile="full" height="300mm" version="1.1" viewBox="0,0,200,300" width="200mm" xmlns="http://www.w3.org/2000/svg" xmlns:ev="http://www.w3.org/2001/xml-events" xmlns:xlink="http://www.w3.org/1999/xlink"><defs /><rect fill="#222222" height="300" width="200" x="0" y="0" /><text fill="#FFFFFF" style="font-size:12px; font-family:Arial; font-weight:bold;" x="10" y="20">Over 3km Runs</text><text fill="#FFFFFF" style="font-size:4px; font-family:Arial" x="10" y="280">ATHLETE</text><text fill="#FFFFFF" style="font-size:9px; font-family:Arial" x="10" y="290">jdzj</text><text fill="#FFFFFF" style="font-size:4px; font-family:Arial" x="120" y="280">STATISTICS</text><text fill="#FFFFFF" style="font-size:3px; font-family:Arial" x="120" y="285">Number: 64</text><text fill="#FFFFFF" style="font-size:3px; font-family:Arial" x="120" y="290">Weekly: 3.4</text><text fill="#FFFFFF" style="font-size:3px; font-family:Arial" x="141" y="285">Total: 142.2 km</text><text fill="#FFFFFF" style="font-size:3px; font-family:Arial" x="141" y="290">Avg: 2.2 km</text><text fill="#FFFFFF" style="font-size:3px; font-family:Arial" x="167" y="285">Min: 1.0 km</text><text fill="#FFFFFF" style="font-size:3px; font-family:Arial" x="167" y="290">Max: 13.2 km</text><polyline fill="none" points="26.6018552876194,46.366136140874005 27.483487940684427,45.061699517435045 27.897588126186747,44.892889272246975 28.084601113165263,45.107738643389894 28.899443413771223,44.708732432089164 28.83265306125395,44.57061465881998 28.966233766288497,44.6473467702308 28.979591836745385,43.143390483470284 29.36697588133393,41.76219332238543 32.065306122472975,39.368089173789485 32.105380334018264,37.97151139329071 32.39925788505934,37.43436275223212 32.71985157713061,37.89477598677331 32.50612244900549,41.34783178122598 32.800000000046566,41.96170033721137 32.132096475048456,42.48348670398991 31.571057513938285,42.130513765179785 31.597773654968478,42.345366953799385 30.729499072418548,42.345366953799385 29.834508348838426,43.25081641499128 29.821150278381538,43.51170765397546 28.952875695715193,43.956756404193584 28.912801484228112,44.67803960418678 28.311688311689068,45.09239226959471 27.737291280180216,45.04635313911422 27.122820037067868,45.337934068753384 26.655287569621578,46.28940487773798 26.294619666063227,46.44286736611684 25.85380333958892,45.399319457952515 23.048608534270898,45.38397311292647 21.75287569576176,45.614168129264726 20.09647495363606,46.56563724778243 12.829684601107147,40.94881591995363 11.680890538031235,40.933469135619816 11.373654916475061,40.733960801240755 11.493877550936304,40.64187994519307 11.988126159529202,40.81069480633596 11.200000000011642,40.36563704974833 11.21335807046853,40.61118631438876 11.94805194804212,40.82604160277697 11.574025974026881,40.94881591995363 11.747680890490301,41.17901750339661" stroke="#4dd2ff" stroke-linecap="round" stroke-linejoin="round" stroke-width="0.5"><title>2021-06-26 3.3km</title></polyline><polyline fill="none" points="37.19999999999709,47.08529209299013 38.25034990131098,47.54384893720635 38.482899694965454,47.73973587765795 38.70382199893356,48.05582437518024 38.54103714336816,48.15821876590053 38.29685986004188,48.53217891516397 38.021675937547116,48.99517290268341 37.97129014892562,49.204409012072574 38.083689215854974,49.31125260875706 38.971254261632566,49.41809595254381 39.01776422034891,49.645137218416494 38.94799928225984,50.42419170389621 39.044895029612235,49.565005137312255 38.77746276689868,48.679090983270726 38.885986003951984,48.460948649411876 39.14566660685523,48.367458755026746 39.50611878700147,48.40752587631869 41.15722232189728,48.79483954864554 41.25411806926422,48.83490629059088 41.21148394042393,49.173246248737996 41.61069441953441,49.204409012072574 41.78123093485192,48.7636765025527 42.164938094385434,47.005155467217264 42.28508882111055,46.86714205596218 43.1842813565454,47.10755224156674 43.48272025838378,47.14316845645226 43.6144984747807,47.071935998581466 43.84317243853002,47.1298123791712 44.254010407297756,46.907210509143624 46.26169029249286,45.531506592618825 46.408971828452195,45.64726323058494 46.24618697290134,46.141451691495604 46.184173694608035,46.89385436205339 46.37021352951706,47.27672901193364 46.505867575790035,47.361317159324244 49.645289790059905,47.34350914146853 50.133644356712466,47.42364516647285 50.777032119134674,47.40583717321351 52.64130629821739,47.26337297417558 53.145164184461464,47.09864818345886 53.761421137605794,46.5376889809304 54.17225910641719,45.972270665435644 54.49395298761374,45.202043767025316 54.656737843179144,44.13349913242928 54.52495962676767,43.608122074845596 53.54437466357194,42.423775083032524 53.059895926795434,41.48428975605566 53.028889287641505,41.57779391170334 53.16066750403843,41.982976346789656 53.11415754529298,41.982976346789656 53.19554997308296,41.996333947517996 53.57538130271132,42.579611989698606 53.610263771755854,42.61523177849813 53.62964292122342,42.56180208474689 53.335079849290196,42.12100469703364 52.579293019894976,40.52252147830586 52.618051318844664,39.97483871314762 55.5636820383952,37.67271729881759 56.15668401219591,37.12054691636877 57.48609366588062,36.31454414167456 57.993827382000745,35.94048271155043 58.02870985107438,35.824701163925056 57.47834200609941,35.192350543260545 57.89693163467746,34.871718671704 58.528691907413304,34.17255515721263 58.57132603623904,33.95879599534601 58.796124170097755,33.811835983749916 58.80000000000291,33.72276907694322 58.49768526824482,33.57580829610015 58.54419522697572,33.65596878139331 58.594581015611766,33.615888556556456 58.602332675407524,33.71831572700103 58.53256773730391,33.669328848416626" stroke="#4dd2ff" stroke-linecap="round" stroke-linejoin="round" stroke-width="0.5"><title>2021-06-21 11.9km</title></polyline><polyline fill="none" points="66.57755359390285,32.8312897378928 66.49583858763799,32.29929992504185 66.74098360654898,32.4557676097611 66.523076922982,32.79999624416814 67.99394703644793,34.36466714396374 71.45321563689504,36.55519342934713 78.53518284996971,42.46953879517969 80.16948297596537,43.064096511516254 82.29407314001583,45.69265410624212 83.19293820927851,49.6980332970561 84.79999999993015,51.76328717035358 83.41084489261266,49.94836781639606 82.34854981082026,45.72394632725627 80.3601513239555,43.157973943831166 75.64791929360945,39.340269278443884 74.28600252198521,38.87087618676014 72.10693568713032,36.86812452014419 71.0446406052215,36.61777967214584 68.02118537202477,33.83267990456079 66.98612862534355,33.45715896273032 66.30517023953144,32.393180545128416 64.04438839841168,32.64352872944437 63.199999999953434,32.23671282964642" stroke="#4dd2ff" stroke-linecap="round" stroke-linejoin="round" stroke-width="0.5"><title>2021-06-16 2.1km</title></polyline><polyline fill="none" points="90.93047210294753,40.63349313905928 90.68326180253644,40.881950811162824 91.95021459215786,41.52084118037601 98.31587982818019,44.11188493933878 101.99313304724637,43.93441678385716 105.67038626607973,44.431327398720896 110.80000000004657,43.756948540743906 108.76051502139308,43.331024400453316 109.13133047195151,42.83411226628232 106.38111587974709,43.2955306993681 103.26008583675139,42.266211844282225 100.97339055780321,42.65664348073187 99.02660944196396,41.84028593968833 95.28755364811514,42.05324895502417 90.99227467807941,40.98843261809088 89.19999999995343,39.56867260125" stroke="#4dd2ff" stroke-linecap="round" stroke-linejoin="round" stroke-width="0.5"><title>2021-06-16 1.4km</title></polyline><polyline fill="none" points="135.72520064201672,42.45798410879797 135.03178170137107,42.85622427868657 127.88956661312841,40.10835911211325 123.13964686996769,40.66589848417789 120.4006420543883,40.34730465160101 119.91524879599456,40.904843693744624 115.19999999995343,39.55081897013588 120.8166934188921,41.14378876177943 127.3348314606119,41.74115081355558 136.79999999993015,44.44918102986412" stroke="#4dd2ff" stroke-linecap="round" stroke-linejoin="round" stroke-width="0.5"><title>2021-06-15 1.2km</title></polyline><polyline fill="none" points="155.04511278192513,46.757607595209265 153.3398496240843,47.78374124711263 150.6601503759157,47.45724441774655 142.78345864685252,35.143485044070985 141.19999999995343,36.0297132889973 143.02706766920164,39.80782558390638 144.8947368422523,41.53361991653219 147.16842105286196,42.18662153405603 149.4015037594363,45.591543922695564 152.6902255639434,47.830383633001475 155.04511278192513,48.856514955929015 160.9323308269959,46.9908199844358 162.80000000004657,47.2240322586149" stroke="#4dd2ff" stroke-linecap="round" stroke-linejoin="round" stroke-width="0.5"><title>2021-06-11 1.2km</title></polyline><polyline fill="none" points="186.24589489592472,52.796908717396946 186.33216876766528,52.78454358392446 186.53167709601985,52.63925290294719 186.90373316782643,52.240472917153966 186.90912528480112,52.03335264256566 186.7284893658798,52.18482879776457 186.62334308472055,52.05190078225314 186.65839184510696,52.163189391516426 186.7230972489051,52.18792014030805 186.90912528480112,52.02407856864011 186.91182134329574,52.212650869718345 186.82285141308967,52.339395553930444 186.3213845336868,52.796908717396946 186.08952350342588,52.79999999999927 185.48291034286376,51.02864546105411 185.4289891730441,50.00226541477423 185.11085427105718,49.58799413533961 184.55816228030017,49.2479166332505 184.55546622183465,48.98512696283797 184.45301599914092,48.83054378168163 183.98659788013902,48.376064843851054 183.6441984517296,48.17201094696793 183.22361332707806,47.72679786500521 183.08611434401246,47.70206362072895 182.64126469293842,47.782449843736686 182.58464746462414,47.80409225340736 182.71675433068594,47.82573464824054 182.6897937457834,47.86283586197169 182.46332483249716,47.94322167545761 181.7003402794362,48.08544222848832 181.43343048878887,48.07307524931821 181.5143122435402,48.10090094563384 181.4684792491753,48.13800183589228 181.5224004190095,48.11017617228026 181.53048859449336,48.18746962171099 181.53857676996267,48.097809202809 181.42534231331956,48.07925873950808 180.98858083771484,47.83810172432459 179.92363773362013,47.8504687955774 179.637855533525,47.73607320161136 179.10403595223033,47.96486397487206 178.47855038222042,47.83191818688647 178.29521840480447,47.7515320898965 177.97438744433748,47.39906755507036 177.63198801592807,47.108435942172946 177.1547856629477,47.00022135988729 176.6047897307144,46.98785395543382 176.22464548342396,46.805434176576455 175.87954999653448,46.53644037522827 173.87098642042838,45.65832970599695 173.70383079398016,45.6397778085302 173.19427573909343,45.729445211882194 172.93275806543534,45.69852544640344 172.67393645025732,45.5593861268062 172.30457643694535,45.157424645551146 171.74918838770827,44.67506410792521 171.61168940464268,44.18341981676713 171.4175731932628,43.93604872252217 171.04012500448152,43.21247713646517 170.74355857042246,42.9187147041921 169.82150656636804,40.568516742945576 169.80533021541487,40.367504839681715 169.85655532675446,40.11391876464768 170.2501798664889,39.41809283988914 170.34723797217885,39.10573932022271 170.27983650990063,38.849050448201524 169.95091737396433,38.31401752762031 169.69479181726638,37.79134654318477 169.52494013230898,37.253202866369975 169.54920465873147,36.9748490840484 169.770281455043,36.20163123655402 169.79724203994556,35.72222664579749 169.74332087011135,35.3201397537523 169.47641107946401,34.25303813092796 169.52224407382892,33.64369143241129 169.49797954739188,32.762128400836446 169.42248990964436,32.41258956383717 169.43057808511367,32.05686021766451 169.30386333602655,31.537178823080467 169.08817865670426,31.19999999999891" stroke="#4dd2ff" stroke-linecap="round" stroke-linejoin="round" stroke-width="0.5"><title>2021-06-10 13.2km</title></polyline><polyline fill="none" points="19.61048296582885,70.65226723949309 19.89722500985954,71.61285943468101 21.163669038098305,71.4756321812165 21.235354549018666,72.18921316042542 22.143371022073552,72.07943159039132 22.692959939828143,72.82045634766109 23.00359715439845,72.16176777196233 22.358427555067465,71.72264118873863 22.955806813784875,71.77753204954206 23.290339198312722,72.16176777196233 22.836330961901695,72.84790167113533 24.270041182404384,73.01257355528651 23.553186072269455,73.47914336452959 23.48150056123268,72.95768293808214 23.935508797643706,72.68322968957364 24.150565330754034,72.985128247994 23.983299138373695,72.54600296393619 24.365621863747947,72.76556569256354 23.95940396806691,72.73812036099844 24.007194308680482,72.38133080376429 24.604573567165062,73.53403387882281 24.150565330754034,74.19271920694155 22.90801647293847,74.60439674541703 20.900822164374404,74.54950644215569 18.750256833503954,76.05898583793896 18.033401723369025,75.61986540345242 17.57939348684158,76.11387584343902 18.1050872344058,76.69022024865262 18.91752302600071,76.41577068076003 18.248458256479353,76.6353303566284 18.774152003927156,76.69022024865262 18.86973268527072,76.22365582219209 18.89362785569392,76.4981055794633 18.22456308605615,76.38832570906379 18.89362785569392,76.4981055794633 18.46351478958968,76.25110081007006 18.989208537037484,76.22365582219209 17.26875627238769,76.4981055794633 17.985611382639036,76.27854579532868 18.272353426669724,76.79999999998836 18.272353426669724,76.4981055794633 17.674974168185145,76.58044045395218 18.200667915749364,76.3608807346609 18.86973268527072,76.55299549846677 18.367934108013287,76.55299549846677 18.511305130203255,76.00409582149587 18.43961961916648,76.6353303566284 18.033401723369025,76.4432156496332 18.367934108013287,76.19621083157836 18.296248597092927,76.71766519051744 17.96171621233225,75.97665080922889 18.43961961916648,75.94920579425525 18.22456308605615,76.47066061594523 17.72276450879872,76.33343575758045 17.937821041909046,75.26307954033837 16.886433546897024,73.86337673777598 16.743062524939887,72.29899468706571 15.500513667124324,70.48759395891102 15.381037815473974,69.96612792738597 15.835046051885001,69.33487826626515 15.333247474743985,67.85280821745982 15.88283639261499,66.42562219250249 15.811150881578214,64.83375222256291 17.26875627238769,55.19999999998254 17.770554849645123,55.2274470613047 17.770554849645123,55.7214937012468 18.511305130203255,56.13319856443559 20.853031823528,56.380221190076554 21.068088356638327,56.8468188844854 22.931911643361673,56.13319856443559 24.771839759661816,57.09384087665239 25.703751402907073,56.819371983001474 25.9188079360174,57.258522082847776 27.734840882010758,56.76447817173903 27.99768775573466,57.99958630485344 28.666752525256015,58.438734542171005" stroke="#4dd2ff" stroke-linecap="round" stroke-linejoin="round" stroke-width="0.5"><title>2021-06-08 2.7km</title></polyline><polyline fill="none" points="58.800000000046566,63.409794419130776 51.012724306667224,60.698050593200605 42.94355628057383,60.171889267570805 39.77226753672585,58.39103054400766 39.94845024473034,56.933958566893125 39.59608482848853,57.05538142926525 37.199999999953434,71.38302693981677 37.69331158231944,72.79957488723448 38.85611745505594,73.81139185623033 38.32756933104247,75.06604143307777" stroke="#4dd2ff" stroke-linecap="round" stroke-linejoin="round" stroke-width="0.5"><title>2021-06-08 1.1km</title></polyline><polyline fill="none" points="84.19195710448548,66.9977428719576 77.15603217144962,64.30384848060203 73.47882037528325,65.00226761162048 71.04664879338816,64.80271943609114 70.61233243951574,65.20181566910469 66.87721179611981,64.00452555314405 63.199999999953434,64.53665501839714 66.41394101863261,63.871493055601604 70.49651474528946,65.20181566910469 76.49008042889182,65.46787956194021 81.03592493291944,67.09751632501138 84.77104557643179,68.12850694436929 84.79999999993015,67.79592966960627" stroke="#4dd2ff" stroke-linecap="round" stroke-linejoin="round" stroke-width="0.5"><title>2021-06-07 1.5km</title></polyline><polyline fill="none" points="103.4122946721036,75.42332553342567 103.24685008195229,70.72361416352214 101.92329336050898,69.9165884173417 98.32487352471799,65.16935084125726 95.76048237713985,65.69154925938346 100.02068057376891,60.94427014220855 103.4122946721036,55.20000000001164 96.75314991804771,64.97946036746725 98.15942893433385,64.93198773739277 99.19345762301236,65.78649436563137 103.20548893418163,70.62867002814892 103.24685008195229,75.32838232224458 104.23951762309298,76.79999999998836 103.32957237702794,76.2778135954577" stroke="#4dd2ff" stroke-linecap="round" stroke-linejoin="round" stroke-width="0.5"><title>2021-06-04 1.3km</title></polyline><polyline fill="none" points="128.1903273400385,69.1097840013681 128.42451328207972,69.47373257562867 129.11329546454363,69.47373257562867 128.93421209708322,69.0781362602429 129.30615447560558,68.90407357236836 128.89288516616216,68.96736911709013 128.97553902800428,68.39770831553324 128.5484940749011,68.20782093210437 128.53471843129955,68.44518012627668 128.97553902800428,68.91989746091713 128.98931467172224,69.55285172165895 128.41073763841996,69.5053802387265 127.98369268531678,68.96736911709013 128.0663465472171,69.23637490349938 127.5566477322136,69.33131801447598 126.92296812444692,68.20782093210437 126.20663465477992,67.46409318254155 123.76834572904045,65.73926449069404 123.49283285601996,64.26760699760052 123.78212137258379,62.7801115084585 125.13213445013389,60.54884240710817 126.39949366584187,59.52023272214865 127.69440416875295,58.00104327403824 127.74950674327556,56.76669125058106 127.25358357199002,55.801358047596295 126.82653861888684,55.516504516635905 126.37194237852236,55.959609790559625 126.24796158570098,55.56398014030128 126.44082059670473,55.548154933945625 126.17908336746041,55.500679305710946 126.3581667348626,55.53232972609112 126.22041029832326,55.84883358687512 126.28928851662204,55.595630548283225 126.0275512872613,55.78553286468377 126.23418594204122,55.64310614843271 126.05510257458081,55.595630548283225 126.11020514916163,55.78553286468377 125.60050633421633,56.165336822959944 126.17908336746041,55.84883358687512 125.95867306907894,55.991260120412335 126.04132693097927,55.67475654075679 125.86224356351886,56.07038591771561 125.86224356351886,55.78553286468377 126.37194237852236,55.46902887898614 126.61990396416513,55.817183228893555 126.5096988150035,55.92795945444959 126.89541683712741,55.959609790559625 126.45459624042269,56.165336822959944 125.88979485083837,55.405728006895515 126.5096988150035,55.500679305710946 126.52347445860505,55.19999999999709 125.61428197787609,56.18116196838673 126.39949366584187,56.165336822959944 126.39949366584187,55.959609790559625 125.83469227619935,56.02291044402227 126.61990396416513,55.46902887898614 125.91734613809967,55.92795945444959 126.19285901106196,55.91213428406627 126.30306416022358,55.78553286468377 126.01377564365976,55.64310614843271 126.09642950556008,55.92795945444959 126.52347445860505,55.7064069268381 126.39949366584187,55.94378462326131 126.41326930938521,55.75388249421667 126.22041029832326,55.84883358687512 126.30306416022358,55.62728094990598 126.57857703318587,55.61145574983675 126.4821475277422,55.991260120412335 126.70255782606546,55.6905817345978 126.3581667348626,56.11786137736635 126.5372501022648,55.84883358687512 126.31683980394155,55.24747571731859 126.71633346972521,55.43737844604766 126.09642950556008,55.959609790559625 126.3581667348626,56.07038591771561 126.52347445860505,55.864658763530315 126.41326930938521,56.11786137736635 126.66123089508619,55.516504516635905 126.5096988150035,56.007085283024935 126.67500653880415,56.21281225452549 126.44082059670473,55.975434956286335 124.4433522677864,58.01686823827913 126.90919248072896,55.72223211750679 128.68625051138224,57.1464928851201 129.5127891303273,58.38084198521392 128.700026155042,72.43276207338204 123.65814057982061,72.55935035314178 122.6387429498136,72.82835011588759 122.48721086967271,75.09109497033933 123.01068532833597,75.4708532167715 124.12651246384485,75.21768115236773 124.6224356351886,75.75567131169373 124.20916632574517,76.08795844991982 124.9530510827899,76.18289750587428 125.09080751921283,76.45189119256975 125.06325623195153,76.80000000000291 124.81529464625055,76.46771433655522 124.67753820976941,76.54683003315586" stroke="#4dd2ff" stroke-linecap="round" stroke-linejoin="round" stroke-width="0.5"><title>2021-06-02 5.9km</title></polyline><polyline fill="none" points="147.41287446941715,76.15227600421349 149.3431542434264,74.38348278471676 152.3361723201815,70.34759835581644 154.91710819792934,64.966318788036 156.0232235742733,60.85554186248919 156.00153503741603,55.19999999999709 156.43530577316415,55.59863265082822 156.6521911409218,59.93372209358495 155.1339935658034,65.63898500494543 153.46397623314988,69.52546584278753 150.77459767146502,73.51153790681565 147.3478088590782,76.80000000000291" stroke="#4dd2ff" stroke-linecap="round" stroke-linejoin="round" stroke-width="0.5"><title>2021-06-01 2.2km</title></polyline><polyline fill="none" points="188.79999999993015,67.47635831439402 188.36599690874573,67.97486595442751 179.08500772796106,65.02215753664495 172.70850077271461,65.21389253027155 172.17434312216938,65.71240307122935 168.0346213291632,64.25521661652601 167.19999999995343,64.29356369850575 167.23338485322893,64.71538135013543 168.00123647612054,64.02513404554338 172.64173106651288,65.94248464371776 181.0547140649287,66.21091297297971" stroke="#4dd2ff" stroke-linecap="round" stroke-linejoin="round" stroke-width="0.5"><title>2021-05-31 1.1km</title></polyline><polyline fill="none" points="23.026989113073796,99.99629552630358 23.464005757123232,96.4298415791709 24.20693405182101,96.98239242186537 26.916437244042754,96.4298415791709 27.834172196220607,95.42520214305841 28.53339882660657,92.46150422698702 30.15036040893756,93.06429164510337 29.188923792447895,92.6624334459193 29.669642100809142,91.95918083234574 29.582238771719858,93.16475614518276 29.669642100809142,91.90894846542506 29.6259404362645,93.76754272839753 28.2274871757254,92.36103958779131 32.68505694367923,94.82241752752452 28.140083846868947,93.11452389755868 29.232625456759706,92.61220114884782 28.664503819774836,90.9545325517538 28.2274871757254,93.41591730850632 29.582238771719858,92.16011024982436 29.10152046359144,91.35639210251975 30.325167066650465,93.16475614518276 30.893288703635335,92.91359485773137 29.276327121304348,93.66707834758563 27.790470531908795,92.96382712526247 29.93185208714567,92.76289802548126 28.44599549798295,92.4112719099794 27.35345388785936,95.97775407889276 23.15809410624206,96.68100112763932 23.289199099410325,98.58980963676004 21.541132523678243,99.94606395452865 21.628535852534696,100.79999999998836 22.28406081837602,99.8456007958157 20.36118758493103,94.62148916331353 11.314943056087941,79.19999999998254" stroke="#4dd2ff" stroke-linecap="round" stroke-linejoin="round" stroke-width="0.5"><title>2021-05-30 1.4km</title></polyline><polyline fill="none" points="37.98435754165985,87.86895987065509 41.09162011160515,89.6361701549904 46.763128491467796,91.74988058526651 49.38770949712489,91.50732429651543 52.706145251286216,92.1310401293158 58.28715083794668,91.29941877289093 58.79999999993015,90.88360735660535 58.226815642323345,91.33406970204669 52.917318435618654,91.92313497472787 45.52625698316842,91.43802246905398 40.608938547433354,90.12128514857613 37.199999999953434,88.3540773045097" stroke="#4dd2ff" stroke-linecap="round" stroke-linejoin="round" stroke-width="0.5"><title>2021-05-27 1.4km</title></polyline><polyline fill="none" points="84.80000000004657,91.5533500314632 82.09530434780754,91.4239049233147 76.61078260862269,89.35277798259631 68.30886956537142,89.05073781785904 63.199999999953434,87.66998012328986 66.35547826089896,88.87814334436553 74.88278260850348,89.65481793880463 83.67304347804748,92.33001987668104 84.38678260869347,92.11427839126554" stroke="#4dd2ff" stroke-linecap="round" stroke-linejoin="round" stroke-width="0.5"><title>2021-05-25 1.1km</title></polyline><polyline fill="none" points="89.79474342928734,88.24558938734117 90.82202753436286,89.08398385517648 94.25531914876774,89.39449975814205 97.66157697117887,91.35074290478951 101.74367959937081,91.19548595618107 104.04155193991028,91.56810250409762 108.85356695856899,90.8849718295387 110.79999999993015,89.92237609039876 110.79999999993015,90.63656030752463 103.12240300374106,91.75441061265883 100.20275344175752,91.25758874489111 97.60750938672572,91.47494840848958 92.47108886099886,90.2328911665245 89.19999999995343,88.7734676458931" stroke="#4dd2ff" stroke-linecap="round" stroke-linejoin="round" stroke-width="0.5"><title>2021-05-24 1.6km</title></polyline><polyline fill="none" points="123.61395348829683,89.44105418300023 128.63720930216368,89.58529933882528 128.63720930216368,90.1983406166255 131.83953488362022,91.64078662748216 136.79999999993015,91.17199229812832 131.7453488371102,91.67684770480264 128.16627906973008,91.06380890600849 124.43023255793378,91.2441145417688 115.19999999995343,88.32315229519736" stroke="#4dd2ff" stroke-linecap="round" stroke-linejoin="round" stroke-width="0.5"><title>2021-05-21 1.1km</title></polyline><polyline fill="none" points="154.14869664539583,100.79999999998836 154.91874977841508,100.05815092180273 154.6703455420211,99.31629994107061 155.06779232039116,95.86381457818788 156.5582177392207,95.35021819346002 156.88114324677736,94.57982190645998 158.66965374955907,95.00782009700197 162.346036449424,94.49422219238477 162.22183433105238,92.83928940744954 160.97981314873323,90.15713685489027 158.4957707838621,86.67600815641345 156.7072602811968,84.99249646041426 153.8506115616765,83.30897496518446 149.80162250692956,82.7382874887262 148.31119708810002,82.13906442638836 146.12523980706464,82.45294332815683 143.39279320568312,80.82647623747471 142.87114430905785,79.19999999998254 141.6539635504596,79.62802094922517 141.72848482138943,80.5411301907152" stroke="#4dd2ff" stroke-linecap="round" stroke-linejoin="round" stroke-width="0.5"><title>2021-05-20 1.7km</title></polyline><polyline fill="none" points="167.3038461538963,88.1511357218842 167.19999999995343,85.94439573778072 171.8211538461037,85.10941094096052 188.43653846159577,85.46726170938928 188.80000000004657,93.57848898816155 187.81346153840423,94.29418028873624 179.40192307694815,93.57848898816155 178.3634615384508,94.29418028873624 171.97692307690158,94.89058905903948 168.29038461553864,94.35382119234418 167.45961538446136,93.63812996214256 167.45961538446136,87.43543715006672" stroke="#4dd2ff" stroke-linecap="round" stroke-linejoin="round" stroke-width="0.5"><title>2021-05-18 1.1km</title></polyline><polyline fill="none" points="11.199999999953434,114.73490694213251 12.040318302228115,115.52462390180153 16.14641909801867,117.25760406878544 18.724668434937485,117.19179494198761 20.46259946934879,117.58664941068855 23.461007957463153,117.2356676953641 26.76498673739843,116.27046512240486 27.700795755838044,115.70011617867567 29.209549071616493,114.6471604401886 32.79999999993015,111.11533499849611 32.227055702824146,110.413350589326 30.81379310344346,111.51020025488106 22.544297082116827,112.40961294418958 21.34111405815929,112.08055994319147 14.828647214802913,111.88312790892087 14.484880636446178,112.43154979358951 14.561273209517822,112.21218120203412 14.17931034474168,112.3657392388559 13.778249336755835,113.19933816026605 13.186206896440126,113.4406425280904 11.467374005238526,113.08965427010844 11.219098143046722,112.62898134101124" stroke="#4dd2ff" stroke-linecap="round" stroke-linejoin="round" stroke-width="0.5"><title>2021-05-10 2.5km</title></polyline><polyline fill="none" points="58.800000000046566,120.8977506790543 58.69244813278783,120.28006116092729 57.957510373555124,119.51824157139345 56.79236514528748,120.09475394907349 56.20082987553906,119.9094465727394 56.16497925319709,119.33293368323939 56.55933609965723,118.67405985989899 56.41593361005653,116.84155610324524 55.98572614102159,116.22385458248027 53.70921161829028,116.92391616792884 52.18556016602088,116.75919600612542 52.13178423244972,116.28562481679546 48.188215767615475,116.3473950329062 46.126804979285225,116.01795366931765 42.82854771788698,116.61506575791282 40.480331950238906,116.67683587648207 38.61609958508052,116.26503474074707 37.199999999953434,113.81480118533364 39.2614107884001,112.33229296727222 40.17560165980831,111.3233577417559 42.05775933607947,110.35559896331688 42.29078838170972,109.65551534775295 44.28049792535603,108.77011211805802 46.19850622408558,107.45229570445372 45.427717842394486,108.31711366445234 43.29460580914747,109.24370035929314 41.28697095438838,107.47288664989173 40.01427385897841,107.10224932096025" stroke="#4dd2ff" stroke-linecap="round" stroke-linejoin="round" stroke-width="0.5"><title>2021-05-08 2.6km</title></polyline><polyline fill="none" points="84.79999999981374,110.26421503492747 84.6585924711544,111.76666118454887 80.41636661207303,112.01030058410834 79.78003273322247,113.1878889821819 73.2399345333688,111.68544801944518 69.84615384601057,111.96969402758987 68.60883797029965,112.66000494445325 63.80098199658096,111.60423483813065 63.199999999953434,112.57879195542773 68.2199672665447,114.36547401218559 75.50245499168523,115.09638716420159 84.6585924711544,117.73578496507253" stroke="#4dd2ff" stroke-linecap="round" stroke-linejoin="round" stroke-width="0.5"><title>2021-05-08 1.3km</title></polyline><polyline fill="none" points="110.79999999993015,113.63805036433041 110.25570291781332,113.93419610816636 107.04721485415939,112.74961155556957 106.53156498679891,113.21028382584336 103.26578249328304,111.95988618361298 101.1458885940956,112.94704260639264 96.53368700260762,113.24318896353361 93.58302387269214,112.28893864914426 90.60371352778748,112.81542191881454 89.5724137929501,112.65089598626946 89.19999999995343,112.12441245699301 93.98408488044515,112.32184387787129 96.79151193634607,113.5722401633102 101.37506631296128,113.44061972235795 110.6281167109264,116.04011381638702" stroke="#4dd2ff" stroke-linecap="round" stroke-linejoin="round" stroke-width="0.5"><title>2021-05-07 1.5km</title></polyline><polyline fill="none" points="115.29969230759889,118.14813170203706 115.19999999995343,117.57466302404646 116.79507692309562,117.03942482051207 117.4596923077479,115.43370574639994 125.80061538470909,110.46358045941452 128.45907692296896,111.22821929460042 129.0904615384061,112.06932025947026 129.85476923070382,110.19595650833799 129.55569230765104,109.85186829796294 129.55569230765104,111.15175547939725 129.38953846157528,110.73120422448847 128.75815384613816,112.18401570335845 129.5889230769826,111.22821929460042 128.7913846153533,112.06932025947026 129.22338461515028,110.6547403105942 128.92430769221392,112.14578389251255 129.6553846152965,111.49584252823843 131.01784615393262,111.72523372317664 133.04492307687178,110.99882780353073 134.90584615373518,111.07529164897278 136.79999999993015,112.18401570335845 135.57046153827105,111.34291498883977 134.07507692289073,111.15175547939725 130.5858461537864,111.99285661135218 128.8578461536672,110.88413200664218" stroke="#4dd2ff" stroke-linecap="round" stroke-linejoin="round" stroke-width="0.5"><title>2021-05-06 1.2km</title></polyline><polyline fill="none" points="146.58979206043296,115.97022751005716 147.5289224954322,113.95319723919965 154.22533081285655,108.98094652371947 157.0427221171558,105.97880769876065 160.75841209851205,104.00864378883853 162.18752362951636,105.36899593262933 162.80000000004657,119.2068395917886 162.02419659728184,115.07898263185052 150.79546313802712,121.22384756797692 147.8555765596684,118.40941547282273 142.34328922489658,121.4114757818461 141.19999999995343,123.33466070299619 142.38412098307163,123.99135621113237 145.89565217401832,120.70786959808902 147.20226843096316,117.70580484520178 146.46729678637348,116.62693319297978" stroke="#4dd2ff" stroke-linecap="round" stroke-linejoin="round" stroke-width="0.5"><title>2021-05-06 1.8km</title></polyline><polyline fill="none" points="180.28407310706098,110.65907594456803 182.2297650129767,110.07236538428697 182.42715404706541,109.45305863354588 180.1712793733459,108.54039388312958 180.4532637075754,108.60558430830133 180.11488250654656,108.96413141032099 181.77859007834923,109.61603420972824 183.24490861629602,109.38786838002852 182.76553524797782,111.50654486721032 184.2318537859246,110.69167094433215 184.17545691900887,111.31097531376872 184.76762402092572,111.27838037660695 186.9671018277295,113.03850226165378 188.5744125325,113.39704442955554 188.60261096607428,114.30969541962259 188.09503916441463,115.02677652644343 188.79999999993015,118.28621598501923 188.2078328981297,119.45960611684131 172.52950391650666,117.60173643438611 168.15874673624057,118.18843328114599 167.19999999995343,118.90550575387897 167.8767624021275,118.22102751914645" stroke="#4dd2ff" stroke-linecap="round" stroke-linejoin="round" stroke-width="0.5"><title>2021-05-02 1.6km</title></polyline><polyline fill="none" points="17.81670886068605,132.84641383722192 19.347848101053387,133.47876323369564 21.207088607596233,131.89788854058133 28.589367088396102,130.6964210945298 31.870379746658728,132.02435866341693 32.799999999813735,134.23758166382322 31.65164556982927,140.56103269133018 22.35544303781353,143.84920189867262 11.856202531373128,145.3035789055284 11.199999999953434,144.2286049229442 15.738734177080914,131.2023024064256" stroke="#4dd2ff" stroke-linecap="round" stroke-linejoin="round" stroke-width="0.5"><title>2021-05-01 1.0km</title></polyline><polyline fill="none" points="47.50366438762285,137.11315597448265 46.19514322816394,139.20011186110787 44.25492219859734,135.18271424883278 44.34516503708437,133.7218346184818 45.924414712470025,131.26963449281175 48.40609277342446,130.22614153544419 54.813334313221276,130.3304909261642 58.558412114623934,127.20000000001164 53.8206630886998,130.53918964450713 42.67567252321169,129.02612202009186 41.72812271816656,129.49569520686055 39.87814452708699,133.46096281975042 39.24644465697929,143.16530474333558 38.479380529141054,145.66962135827634 37.57695214310661,146.03483318036888 37.441587885376066,148.79999999998836 38.16353059397079,148.43479013908654 38.479380529141054,146.71308301994577 39.6976588498801,133.14791648695245 41.32202994450927,131.53050740167964 41.99885123386048,131.94790378096513" stroke="#4dd2ff" stroke-linecap="round" stroke-linejoin="round" stroke-width="0.5"><title>2021-05-01 1.8km</title></polyline><polyline fill="none" points="81.48121368623106,136.0378349780367 80.72821174951969,136.16597862626077 79.50109748227987,137.04696347011486 78.00903808913426,136.98289200631552 77.74409296317026,137.30324907263275 77.78592640411807,136.99890987465915 76.78192382183624,137.33528474450577 74.41136216913583,137.0309456065297 73.01691413816297,137.1911241713242 72.59857972891768,136.9668741364294 71.0786313751014,137.25519555294886 67.648289218836,137.33528474450577 64.23189154290594,136.98289200631552 63.20000000001164,137.86387241774355 63.26972240151372,138.16820999450283 67.28573273075745,138.9530779547058 67.71801162039628,138.82493650604738 68.51284699811367,139.2413958444231 70.63240800518543,139.27343113390089 71.957133634598,139.78599490594934 72.52885732729919,139.6098012918228 74.03486120078014,139.96218832896557 74.41136216913583,140.25050442690554 75.34564234991558,140.36262721562525 75.59664299548604,140.17041667328158 76.27992253069533,140.49076745082857 77.13053582952125,140.3466096791526 78.55287282116478,140.76306511477742 78.67837314395001,140.37864475056995 78.98515171080362,140.3466096791526 79.55687540344661,140.65094260255864 79.75209812785033,140.18643422715832 80.58876694639912,139.73794212110806 81.59276952868095,138.72883035318227 82.70832795352908,138.29635196141317 83.29399612656562,137.5915698918834 84.27010974823497,137.28723123433883 84.79999999998836,136.55040896416176 84.52111039380543,135.70145742023306 84.0888315042248,135.23693488522258 83.21032924466999,135.797565365021 81.87165913492208,135.71747541498917 81.78799225308467,136.23005041247234 79.90548741118982,137.15908847100218 80.29593285993906,137.52749864295765 80.56087798578665,137.3513025780412 81.46726920589572,138.0400679264858 82.2202711427235,137.92794353398494 82.27604906389024,137.7357301095326" stroke="#4dd2ff" stroke-linecap="round" stroke-linejoin="round" stroke-width="0.5"><title>2021-04-30 3.7km</title></polyline><polyline fill="none" points="110.62938388611656,136.58898702598526 109.26445497618988,138.54873691071407 108.51374407566618,138.66632159650908 101.07488151651341,136.62818211846752 94.45497630327009,136.58898702598526 95.3421800947981,137.3336931206577 89.19999999995343,135.4915228689788 94.1137440756429,137.2161080405058 101.96208530792501,137.96081296002376 110.04928909929004,140.5084771309921 110.79999999993015,140.35169826893252 109.77630331739783,139.9989456034382" stroke="#4dd2ff" stroke-linecap="round" stroke-linejoin="round" stroke-width="0.5"><title>2021-04-29 1.4km</title></polyline><polyline fill="none" points="123.50057142856531,137.46843952391646 125.25942857132759,136.08597749008914 124.6422857142752,134.98709361656802 125.72228571400046,134.63261423064978 133.09714285691734,127.5784017026017 133.96114285697695,127.47205573011888 136.79999999993015,130.73331789701479 133.18971428542864,133.07290077660582 133.59085714269895,133.10834888470708 131.33828571392223,135.55425990652293 132.29485714260954,135.19978108030045 132.51085714274086,134.3844784523244 131.43085714266635,135.2706768734788 126.27771428553388,141.50945188684273 122.7908571427688,143.5653880982718 120.4148571427213,145.6567594135995 120.2605714284582,147.00373788256547 118.31657142844051,148.52794426985201 116.71199999994133,147.71267189036007 115.19999999995343,145.55041879310738 115.32342857134063,143.4590468587121 117.45257142849732,142.46652710431954 118.2239999998128,141.26132085875724 120.35314285708591,140.33968982516672 120.75428571423981,139.41805642697727 121.803428571322,138.81544869582285 122.1119999998482,137.75202082199394 122.914285714156,137.14941029602778 123.80914285697509,137.36209647948272 123.99428571411408,136.68858979997458" stroke="#4dd2ff" stroke-linecap="round" stroke-linejoin="round" stroke-width="0.5"><title>2021-04-26 2.2km</title></polyline><polyline fill="none" points="153.94371921487618,144.98358240476227 154.53272503777407,144.1715718084597 155.21597179200035,135.64531536618597 157.5248746171128,127.19999999998254 155.4044536552392,135.50997582476703 153.73167711868882,136.294944235211 151.30497312918305,136.13253716222243 148.78402820788324,136.51148684948566 147.46465516509488,137.3235201300704 146.5458060814999,138.6227683768666 146.4751253828872,146.58052956312895 147.535335863824,148.52933383526397 148.2421428509988,148.79999999998836 148.71334750915412,148.55640046374174 151.25785266340245,146.41812858200865 152.12958128086757,147.01359837604105 152.977749665617,146.3910617424408 153.14267129602376,145.68732297664974" stroke="#4dd2ff" stroke-linecap="round" stroke-linejoin="round" stroke-width="0.5"><title>2021-04-25 2.2km</title></polyline><polyline fill="none" points="178.8346310396446,148.8000000000029 178.19767577259336,144.05623116942297 178.54909936827607,141.35628087850637 178.19767577259336,136.33480216412863 178.52713539346587,127.5785203853884 178.26356769679114,127.20000000001164 177.71446832851507,127.5785203853884 177.1653689603554,136.51143876765855 177.38500870764256,145.2926474843116 178.26356769679114,145.54497660984634 178.3294596208725,145.31788040809624 178.4392794945743,141.0030142448377 178.15374782308936,144.359027554543" stroke="#4dd2ff" stroke-linecap="round" stroke-linejoin="round" stroke-width="0.5"><title>2021-04-18 2.2km</title></polyline><polyline fill="none" points="32.800000000046566,165.07463768444723 28.931805157568306,164.68364642042434 17.234383954200894,161.16470595585997 12.066475644591264,160.6670752383361 11.199999999953434,160.0983535767591 17.35816618904937,160.0272633060522 18.719770773663186,158.92536231552367 21.38108882517554,160.1338987069612" stroke="#4dd2ff" stroke-linecap="round" stroke-linejoin="round" stroke-width="0.5"><title>2021-04-16 1.0km</title></polyline><polyline fill="none" points="58.800000000046566,163.7323563605023 58.16736401669914,163.90104692101886 57.9075313807698,163.36902211081178 57.45564853557153,163.18735460967582 56.87949790793937,163.33009338164993 56.67615062760888,163.16140208898287 56.393723849381786,162.77211366503616 56.890794979117345,161.88972230597574 56.721338912146166,161.24090135429287 56.382426778262015,161.09816031553783 53.75020920508541,161.2798307016783 51.50209205021383,161.08518384976196 50.40627615066478,161.34471292163653 49.94309623434674,161.1630426250631 49.19748953980161,161.24090135429287 49.01673640171066,161.08518384976196 47.54811715480173,161.25387780468736 47.02845188288484,161.07220738270553 46.42970711301314,161.24090135429287 45.83096234314144,160.9943485536205 44.565690376621205,161.22792490263237 43.526359832671005,160.8126777732541 42.667782426811755,160.91648967849324 42.18200836825417,160.31957010473707 41.300836820097174,160.3714762621239 40.498744769894984,160.12492183200084 40.17112970718881,160.2806404732255 39.71924686199054,159.83943717771035 39.0527196652838,160.07301557730534 38.08117154811043,159.7486010214052 37.51631799171446,160.0470624423033 37.91171548125567,159.7615776189923 38.00209205021383,160.20278117564158 37.20000000001164,160.16385150958376 37.87782426783815,159.91729669032793 37.55020920507377,159.99515615687415 37.90041841007769,159.96920300649072 37.6179916318506,160.08599214290734 37.79874476994155,160.2806404732255 37.60669456073083,160.12492183200084 37.87782426783815,160.03408587283047 37.79874476994155,159.89134352456313 37.57280334731331,159.96920300649072 37.65188284520991,160.16385150958376 38.00209205021383,160.02110930212075 37.83263598330086,159.95622642934904 37.81004184106132,160.137898392466 37.90041841007769,159.90432010810764 37.77615062770201,160.137898392466 37.8552301255404,159.95622642934904 37.91171548125567,160.09896870721423 37.74225941428449,159.6318115854374 37.84393305447884,159.96920300649072 37.78744769876357,159.7486010214052 37.81004184106132,159.96920300649072 37.58410041843308,159.80050740412844 37.66317991638789,159.6837180142029 37.74225941428449,159.80050740412844 37.57280334731331,159.86539035370515 37.79874476994155,159.9821795822936 37.6179916318506,159.8783669397817 37.83263598330086,159.6837180142029 37.67447698750766,159.95622642934904 37.49372384941671,159.95622642934904 37.67447698750766,159.61883497503004 37.50502092053648,159.73562442255206 37.77615062770201,159.96920300649072 37.58410041843308,159.85241376633348 37.6179916318506,159.96920300649072 37.67447698750766,159.86539035370515 37.73096234310651,160.41040586677263 37.6179916318506,161.63019430932763 38.71380753139965,161.86376952935825 38.80418410047423,162.07139159900544 39.78702928876737,161.98055698386452 40.35188284527976,162.18817886919715 44.859414226026274,162.3828240891453 49.31046025111573,162.95378173956124 51.44560669455677,163.03163940900413 52.3945606694906,163.2392596355785 53.49037656909786,163.797237370949 55.207531380758155,163.60259424363903 55.388284518849105,163.91402310905687 55.625523012597114,163.8102135691879 57.241004184121266,164.14759427434183 57.52343096234836,164.3811650249554 58.03179916320369,164.26437970147526 58.189958159055095,163.78426117140043 58.641841004253365,163.60259424363903" stroke="#4dd2ff" stroke-linecap="round" stroke-linejoin="round" stroke-width="0.5"><title>2021-04-09 4.9km</title></polyline><polyline fill="none" points="84.36397515540011,163.15576907334616 77.58881987584755,161.1909708568419 76.81739130441565,160.45898468076484 72.0546583852265,160.8442407339753 68.60000000009313,160.49751030324842 69.23726708081085,160.88276631844928 68.93540372664575,161.03686861807364 63.199999999953434,159.72699713296606 67.96273291914258,161.15244530286873 74.80496894416865,161.7303282142093 84.29689440992661,164.27300286706304 83.02236024849117,163.7721743201837 84.79999999993015,163.54102246667026 84.33043478254694,162.96314223416266" stroke="#4dd2ff" stroke-linecap="round" stroke-linejoin="round" stroke-width="0.5"><title>2021-04-09 1.4km</title></polyline><polyline fill="none" points="90.05909090908244,160.80178996088216 91.1022727272939,161.68283659638837 98.65000000002328,164.5726543130586 101.99431818176527,164.43168813735247 104.90909090917557,165.03079399993294 110.30909090919886,164.43168813735247 110.79999999993015,163.8325812703988 108.62159090919886,163.2687150662532 106.01363636355381,163.79733965868945 103.31363636360038,162.775331407669 101.07386363646947,162.9515399353986 97.26931818178855,161.0132413514657 96.77840909094084,160.0969510881987 94.59999999997672,159.25114260573173 92.94318181823473,158.96920600003796 89.19999999995343,159.88549915526528" stroke="#4dd2ff" stroke-linecap="round" stroke-linejoin="round" stroke-width="0.5"><title>2021-04-08 1.4km</title></polyline><polyline fill="none" points="136.65974025975447,162.90220063424204 136.79999999993015,163.64328861891408 134.97662337659858,163.6755097975838 130.15168831171468,162.03222563740565 122.85818181815557,161.67779071512632 119.01506493496709,160.3244902024162 115.19999999995343,160.90447682293598 118.81870129867457,160.48559770031716 122.66181818174664,161.6455693395401 129.81506493513007,161.96778295288095" stroke="#4dd2ff" stroke-linecap="round" stroke-linejoin="round" stroke-width="0.5"><title>2021-04-06 1.3km</title></polyline><polyline fill="none" points="147.7964071854949,158.75661670282716 150.51257485011593,157.9083324733365 151.63353293412365,158.80651572940405 151.63353293412365,159.75459627155215 150.90059880237095,160.1537875306385 152.19401197577827,161.55095438001445 153.53053892194293,161.70065059227636 155.2550898201298,160.90227026611683 157.19520958070643,158.4572224362928 158.9197604788933,159.10590978278196 160.342514970107,158.25762615716667 162.75688622728921,158.55702054535504 162.75688622728921,155.5131690853741 162.49820359284058,157.35944189631846 161.07544910162687,157.1099459765246 162.80000000004657,157.40934106512577 162.71377245499752,158.70671767104068 159.0059880237095,159.05601078644395 157.19520958070643,158.40732337423833 154.26347305392846,162.09984026823076 154.95329341315664,161.50105563254328 151.71976047893986,161.45115687994985 151.07305389200337,160.35338303845492 152.02155688614585,160.35338303845492 151.93532934132963,159.85439411672996 150.8143712573219,157.85843335525715 150.34011976025067,158.55702054535504 149.39161676634103,158.4572224362928 148.1844311375171,161.0519666762557 144.1748502990231,163.1477116222086 142.88143712561578,165.54283774230862 142.70898203575052,163.6965957240318 142.36407185602002,166.04182087921072 142.06227544881403,164.94405730837025 142.36407185602002,165.69253273674985 142.10538922133856,165.04385409812676 143.87305389204994,165.94202429242432 145.29580838303082,168.0876464348985 147.1497005985584,167.93795217137085 147.66706586815417,166.8900910471275 146.54610778414644,166.39110877303756 147.53772455081344,166.39110877303756 147.0634730537422,166.98988744121743 146.63233532896265,166.59070174364024 147.1497005985584,167.18948016813374 147.27904191589914,166.69049819846987 147.49461077828892,167.8381559701811 146.76167664653622,168.4868309146259 144.39041916141286,168.28723871539114 142.19161676615477,165.69253273674985 142.57964071817696,163.44710302661406 142.83832335309125,165.24344761660905 141.19999999995343,166.1915157212352 141.67425149702467,165.393142702349 141.37245508958586,166.39110877303756 142.57964071817696,165.54283774230862 142.75209580827504,163.3473059121461" stroke="#4dd2ff" stroke-linecap="round" stroke-linejoin="round" stroke-width="0.5"><title>2021-04-05 1.9km</title></polyline><polyline fill="none" points="184.18703574803658,167.6827286992193 183.34000109205954,168.10917275387328 183.671449435642,167.5974397839891 184.26069093553815,167.5974397839891 184.38958751352038,167.23496150644496 183.72669082635548,171.17954429371457 182.30882846738677,172.2029914627783 182.2351732798852,172.8000000000029 182.17993188928813,172.2029914627783 183.78193221695255,171.24350988841616 184.31593232613523,169.15395701501984 184.68420826352667,165.8276869487454 183.76351842004806,165.16669108673523 181.7748283582041,164.80420859849255 180.5963453585282,165.72107485418383 178.12889657821506,166.42471367458347 173.63593014201615,169.13263493936392 172.8257230798481,167.83198421719135 171.8866194395814,168.23710580078478 171.4446883146884,168.0665283874987 168.86675675294828,157.00002155455877 168.71944637806155,154.97429700440262 170.0268259557197,160.90215146214177 170.4319294868037,161.07273471595545 175.164275282179,158.91911093138333 178.81020706228446,157.74633618164808 181.0935178740183,156.46693804815004 184.29751852923073,153.8867946810933 186.19413960678503,151.1999999999971 187.28055362193845,151.7544207755418 187.15165704395622,151.9250114877941 186.7097259190632,151.7757446221658 186.9675190752605,151.5625060579914 186.9675190752605,151.90368765637686 187.07800185645465,151.3279433863354 186.4519327628659,151.51985831900674" stroke="#4dd2ff" stroke-linecap="round" stroke-linejoin="round" stroke-width="0.5"><title>2021-04-05 3.7km</title></polyline><polyline fill="none" points="16.650467289611697,178.16831719997572 20.08224299037829,180.89579199929722 22.90841121505946,188.76645043020835 22.975700934417546,192.7407125099562 24.523364485707134,192.42900642711902 26.071028037229553,193.83168279996607 29.570093458052725,191.2601074836566 32.799999999813735,192.11730021680705 26.205607476411387,190.5587672594702 26.205607476411387,193.13034493516898 26.542056074831635,189.54571913310792 26.40747663518414,193.28619784972398 26.60934579418972,192.03937364451122 23.91775700915605,192.58485948451562 25.734579439274967,191.41596077935537 26.67663551401347,193.13034493516898 24.994392523076385,192.03937364451122 26.205607476411387,191.72766727540875 25.93644859828055,193.20827139628818 26.67663551401347,193.20827139628818 25.801869158865884,191.64974066318246 27.34953270992264,193.5979035833152 25.801869158865884,192.19522678118665 25.93644859828055,190.94840079679852 27.080373831791803,192.7407125099562 26.003738317638636,191.0263274803292 24.186915887752548,190.94840079679852 23.37943925219588,192.97449198900722 23.581308411201462,191.96144706424093 20.14953271020204,189.3898654562072 21.495327102718875,184.4025310127763 20.14953271020204,184.94802230247296 20.216822430025786,182.9219098361791 16.246728971833363,180.73993655876257 11.199999999953434,181.20750278542982 14.026168224401772,182.22056196193444 14.968224299140275,184.8700949990307" stroke="#4dd2ff" stroke-linecap="round" stroke-linejoin="round" stroke-width="0.5"><title>2021-04-04 1.4km</title></polyline><polyline fill="none" points="50.534078211989254,176.33098246145528 43.83687150804326,179.38074755377602 37.38100558635779,186.86647845379775 43.47486033500172,193.5897057921975 47.03463687119074,189.56963944953168 51.19776536314748,187.8368451365386 51.31843575416133,185.5495500973193 55.17988826800138,182.7077489149524 49.50837988802232,175.49922604684252 44.74189944122918,178.68762028665515 37.199999999953434,187.28235005342867 43.354189943987876,192.82728118507657 46.974301675800234,188.59927516093012 52.887150837806985,187.6289095315733 54.636871508322656,186.311982604675 55.541899441275746,182.84637362958165 55.30055865901522,182.22256219777046 54.57653631293215,183.60880907118553 52.46480446914211,184.64849243091885 52.4044692737516,184.02468259970192 58.799999999813735,179.79662358592032 56.446927374228835,178.54899475112325 53.97318435739726,175.49922604684252 52.585474860155955,177.78655381657882 48.36201117304154,175.9844174083555 40.03575418959372,183.47018450696487 37.441340781748295,187.14372621424263 43.47486033500172,192.82728118507657 47.03463687119074,189.08445747278165 47.577653631102294,189.50032775918953 46.069273742847145,191.57967549713794 54.335195530438796,193.31246057635872 56.98994413414039,196.50077395321568 51.378770949319005,186.2426705926773 51.982122905086726,184.37124368536752 54.93854748620652,181.87600005220156 51.680446927202865,179.86593623377848 49.87039106129669,176.40029545151629 48.60335195506923,175.9151043772581 47.517318435478956,176.67754734342452 48.06033519562334,177.16273789084516" stroke="#4dd2ff" stroke-linecap="round" stroke-linejoin="round" stroke-width="0.5"><title>2021-04-02 3.1km</title></polyline><polyline fill="none" points="76.4510638298234,194.34746444896155 73.92340425529983,193.46765793619852 69.15531914890744,193.37967709400982 63.98510638298467,192.69782439009578 63.54468085116241,192.2799136378453 63.199999999953434,190.19034812839527 63.69787234044634,189.79442824648868 64.73191489360761,189.75043710503087 63.79361702129245,186.8250067242625 64.02340425539296,182.86571651382837 65.45957446808461,180.82005569181638 66.03404255327769,179.43427479383536 68.772340425523,177.542559981026 69.88297872350086,178.75237944399123 70.91702127666213,178.97234591370216 71.4531914893305,179.61024744875613 73.71276595746167,179.61024744875613 77.19787234044634,180.16016110031342 78.88297872338444,181.04002012169803 81.6787234043004,183.5256030979508 84.32127659558319,188.10076303806272 84.39787234039977,188.694647108161 83.78510638291482,189.22254273148428 83.53617021278478,190.05837491249258 84.07234042545315,190.03637936891755 84.80000000004657,191.9059928271745 84.32127659558319,192.89578184153652 82.65531914890744,193.20371530551347 82.25319148926064,193.7096050732507 81.31489361694548,193.24770576560695 80.9127659574151,193.42366751944064 79.91702127654571,193.11573435919126 79.43829787231516,194.45744001898856 79.28510638291482,194.3034742057789" stroke="#4dd2ff" stroke-linecap="round" stroke-linejoin="round" stroke-width="0.5"><title>2021-04-02 3.2km</title></polyline><polyline fill="none" points="91.46312997350469,184.1737890126533 98.76816976128612,187.43135781673482 102.72148541116621,187.39845324031194 105.12785145884845,187.9578305973846 108.36498673749156,187.16812111492618 110.80000000004657,187.20102571387542 105.29973474808503,187.92492607302847 102.89336870028637,187.36554866074584 98.9973474801518,187.56297608980094 93.95543766580522,186.11517223037663 89.19999999995343,184.0421694025863" stroke="#4dd2ff" stroke-linecap="round" stroke-linejoin="round" stroke-width="0.5"><title>2021-04-01 1.4km</title></polyline><polyline fill="none" points="115.19999999995343,183.2794083393528 117.63927986915223,185.75637384262518 120.50278232409619,186.36546143773012 123.86121112946421,188.1115075496491 128.45695581031032,188.03029626677744 131.00229132571258,188.7205916606472 136.80000000004657,188.03029626677744 132.73453355161473,188.63938049794524 127.82062193122692,187.9084793124639 123.43698854348622,188.1115075496491 116.86153846140951,186.32485562603688 116.18985270056874,185.95940314105246 116.96759410807863,185.63455621540197" stroke="#4dd2ff" stroke-linecap="round" stroke-linejoin="round" stroke-width="0.5"><title>2021-03-29 1.2km</title></polyline><polyline fill="none" points="151.60610773414373,196.79999999998836 150.59949416550808,191.12380938709248 149.8992412481457,190.9228811300709 146.48550827638246,186.00011415043264 144.20968629512936,185.79918387840735 151.29974708263762,175.19999999998254 153.66310067870654,176.65677290415624 158.30227625579573,181.37869790161494 157.82085237512365,184.74429865402635 159.79031370510347,196.29768478992628 153.53180325683206,192.12844948653947 151.25598127534613,191.67636168620083 151.03715223865584,192.63076879555592" stroke="#4dd2ff" stroke-linecap="round" stroke-linejoin="round" stroke-width="0.5"><title>2021-03-28 1.4km</title></polyline><polyline fill="none" points="177.73415384616237,182.0875407375279 178.96369230758864,182.8127859272936 179.26276923064142,182.20205322626862 180.45907692308538,182.12571157084312 180.724923076923,181.51497778543853 181.09046153828967,181.93485736649018 181.6553846154129,181.51497778543853 183.41661538451444,182.50741969732917 184.44676923076622,181.74400306795724 187.4707692306256,182.66010284234653 187.2713846154511,181.89668651425745 188.7003076922847,182.04936990048736 187.63692307681777,181.66766132219345 187.9027692307718,181.0569268138206 187.9692307690857,181.89668651425745 187.80307692300994,181.51497778543853 187.43753846152686,182.01119905951782 187.50399999995716,181.40046509329113 187.9692307690857,182.04936990048736 187.4707692306256,181.89668651425745 188.46769230766222,181.78217393517843 188.46769230766222,182.16388240037486 188.035692307516,181.62949044359266 187.3378461538814,182.01119905951782 188.73353846149985,181.78217393517843 188.30153846147005,181.4386359944765 188.16861538449302,182.58376127740485 187.57046153838746,182.0875407375279 187.50399999995716,182.50741969732917 188.33476923056878,181.9730282149394 187.9692307690857,182.01119905951782 188.79999999993015,183.0418104416749 188.7003076922847,181.93485736649018 188.2018461538246,182.01119905951782 188.46769230766222,182.54559048920055 187.73661538469605,182.77461516176118 187.63692307681777,182.35473649192136 187.23815384611953,182.92729820142267 185.84246153838467,182.73644439244526 185.84246153838467,181.9730282149394 186.1747692306526,188.53835812423495 182.41969230771065,189.37810158979846 179.3624615384033,188.38567729844362 179.59507692302577,188.88188976232777 178.66461538453586,188.38567729844362 173.28123076912016,188.1184857081971 170.58953846152872,188.92005992544 170.35692307678983,190.29418329225155 169.72553846158553,190.7903933088819 167.56553846143652,190.9430731861503 167.19999999995343,190.33235331607284" stroke="#4dd2ff" stroke-linecap="round" stroke-linejoin="round" stroke-width="0.5"><title>2021-03-26 1.5km</title></polyline><polyline fill="none" points="13.482926829368807,208.63126527593704 20.331707317149267,211.4263691099477 22.740069686435163,211.25347686518217 24.847386759589426,211.71452262398088 27.882926829275675,211.10939991637133 29.087108013802208,211.25347686518217 32.79999999993015,209.92796625601477 29.51358885015361,211.25347686518217 25.273867595824413,211.59926125247148 23.041114982566796,211.13821531180292 20.557491289218888,211.33992300037062 15.21393728221301,210.04322828681325 11.199999999953434,208.28547737599" stroke="#4dd2ff" stroke-linecap="round" stroke-linejoin="round" stroke-width="0.5"><title>2021-03-26 1.6km</title></polyline><polyline fill="none" points="58.799999999813735,211.91659649994108 57.14974533091299,211.705982393265 54.69269949034788,210.14743477504817 52.6023769096937,210.18955775853829 49.59524617972784,209.01011265337002 42.26078098453581,209.22072808965459 43.360950763802975,209.76832773769274 42.920882852049544,209.89469678746536 37.199999999953434,208.08340350005892 41.82071307254955,209.85257377498783 48.385059422580525,210.27380371282925 53.995925297029316,211.62173672145582" stroke="#4dd2ff" stroke-linecap="round" stroke-linejoin="round" stroke-width="0.5"><title>2021-03-24 1.1km</title></polyline><polyline fill="none" points="84.79999999993015,211.58436208078638 83.24456521740649,211.48323304005316 81.71847826091107,210.33710182108916 79.28260869567748,209.9325840025558 77.28695652179886,209.02241716056596 71.18260869570076,209.15725684558856 71.71086956537329,209.7303249137476 66.92717391310725,208.41563791921362 63.199999999953434,208.88757742225425 64.66739130439237,209.08983700969839 67.04456521733664,208.4493479053781 71.44673913053703,209.79774462341447 79.45869565219618,210.13484297165996" stroke="#4dd2ff" stroke-linecap="round" stroke-linejoin="round" stroke-width="0.5"><title>2021-03-23 1.3km</title></polyline><polyline fill="none" points="110.36914893612266,211.07226263763732 103.10212765960023,208.53183448678465 100.14361702115275,209.0267246006115 97.21382978721522,208.69679793936666 98.01808510627598,209.22468044125708 97.70212765957695,209.32365831767675 93.0776595743373,207.93796538349125 89.19999999995343,208.49884178640787 92.79042553191539,208.00395089149242 97.12765957438387,209.25767306992202 102.87234042549971,209.6535843606398 110.80000000004657,212.06203461650875 109.50744680839125,211.43517936990247 110.80000000004657,211.07226263763732" stroke="#4dd2ff" stroke-linecap="round" stroke-linejoin="round" stroke-width="0.5"><title>2021-03-22 1.6km</title></polyline><polyline fill="none" points="133.59387911239173,199.33357029205945 133.89135424635606,199.5421696606645 133.72609028307488,200.20589342516905 135.2299923489336,200.43345533344836 135.626625860692,200.75583424443903 135.49441469012527,201.34370028464764 136.0893649578211,201.74193110143824 136.79999999998836,202.9745450904884 136.3703136953991,204.1123356349126 135.74231063504703,204.3778191305464 135.51094108645339,205.06048930042016 132.45355776586803,207.71529479551828 129.08217291504843,209.0237212193315 128.0244835499907,209.70637496456038 127.21469013008755,210.38902629644144 124.85141545522492,213.65054935270746 115.20000000001164,220.66642970794055" stroke="#4dd2ff" stroke-linecap="round" stroke-linejoin="round" stroke-width="0.5"><title>2021-03-21 1.3km</title></polyline><polyline fill="none" points="150.99144724651705,208.12345238041598 150.71727756597102,206.37025749233726 148.83725689921994,204.03264339396264 148.07349850342143,203.80787154800782 145.48847008659504,206.167964909313 142.92302521842066,209.42710140236886 142.27676811430138,209.60691447717545 141.57176036422607,211.51741966354894 142.76635682955384,213.22562254712102 145.60597137827426,214.5741947561619 148.68058851035312,217.06903237420192 148.5043365728343,217.2038876862207 148.91559109371156,217.15893592438078 148.5435036701383,216.95665288683085 149.01350883673877,217.74330813872803 150.05143691319972,218.97947520951857 153.9877301841043,220.8000000000029 156.0244192397222,220.5977201834612 160.8223886495689,217.24883943918394 161.4686457538046,215.90028300539416 162.42823963589035,211.58484896672599 161.4686457538046,209.92158701785957 157.88485635793768,206.6175037395733 154.0073137327563,201.7399601950019 151.12853208673187,199.1999999999971 147.8972465659026,203.69548554210633 148.4847530242987,203.7629171522858 149.2876785172848,204.50466355135723 150.85436240618583,206.50511911488138 150.83477885765024,207.13447230160818" stroke="#4dd2ff" stroke-linecap="round" stroke-linejoin="round" stroke-width="0.5"><title>2021-03-20 3.7km</title></polyline><polyline fill="none" points="186.671921182191,215.4388168019068 179.29458128055558,213.07590951339807 171.49162561586127,212.8314700568153 167.30640394077636,211.9351908118697 167.19999999995343,210.46854785224423 167.80295566492714,209.81670486507937 167.23546798038296,208.71671749165398 167.3773399014026,206.80191766808275 169.6118226600811,204.5611831981223 173.30049261078238,205.009331064648 177.0600985221099,206.27229061772232 184.15369458124042,206.109328311868 187.94876847276464,205.49821909173625 188.4098522164859,204.96859036956448 187.73596059111878,206.516733956174 187.3103448273614,211.77223074028734 187.66502463049255,214.4610637013102 188.80000000004657,214.6647624548059" stroke="#4dd2ff" stroke-linecap="round" stroke-linejoin="round" stroke-width="0.5"><title>2021-03-19 1.6km</title></polyline><polyline fill="none" points="19.953596287756227,233.77934678878228 24.64779582375195,235.7940934147191 26.468677494325675,235.67896559811197 28.0556844547973,236.02434884350805 29.726218097493984,235.6597776221024 30.611600928066764,235.73652951495023 32.79999999998836,235.08413746055157 28.74060324835591,236.0051609014772 26.65243619499961,235.67896559811197 24.31368909520097,235.77490545003093 14.975406032521278,232.80074804219475 11.200000000011642,232.3977941863268 12.018561484932434,232.5129239445523 11.467285382852424,232.282664359911 11.634338747127913,232.18672278587474 12.903944315505214,232.26347604891635 14.591183294716757,231.97565115649195 15.159164733195212,232.3977941863268 15.49327146174619,232.18672278587474 15.894199536007363,232.57048879817012 16.245011600956786,232.45535907401063 16.69605568452971,232.83912455638347 17.264037123008166,232.62805363468942 18.43341067287838,233.47233594719728 18.667285382805858,233.18451284324692 18.065893271530513,232.282664359911 17.832018561544828,232.30185266905755 17.91554524365347,232.9542540534312 19.001392111356836,233.49152413901174 19.452436194987968,232.41698248412285 19.703016241372097,232.93506580867688 20.037122969864868,232.87750106291787 19.686310904915445,232.973442296352 19.88677494210424,232.91587756195804 19.402320185676217,232.24428773602995 20.120649652031716,232.18672278587474" stroke="#4dd2ff" stroke-linecap="round" stroke-linejoin="round" stroke-width="0.5"><title>2021-03-19 3.1km</title></polyline><polyline fill="none" points="46.28948769724229,244.8000000000029 46.168174767983146,244.42377020095591 45.93768020236166,244.38196682812122 45.59800400037784,244.70245903720206 46.01046795991715,242.34752106614178 45.852761151851155,242.91884098523587 45.92554890940664,243.96393241922488 45.69505434378516,244.14508081495296 44.38487470766995,244.11721184609632 44.22716789954575,243.28114022451336 44.336349535908084,242.54260617637192 47.5147482829052,241.8319376923464 49.64985583815724,241.6925905116077 49.57706808060175,228.21706872188952 50.29281436331803,227.29728613275802 51.77283210051246,225.98728240632045 51.50594365608413,225.31833964618272 49.698381009860896,223.1999999999971" stroke="#4dd2ff" stroke-linecap="round" stroke-linejoin="round" stroke-width="0.5"><title>2021-03-18 2.7km</title></polyline><polyline fill="none" points="70.52566249156371,243.01760866613768 71.13039118767483,243.1224558770191 71.221670990868,243.63358484537457 71.44987049879273,243.7646432384936 72.68214784166776,244.01365382934455 74.27954439731548,243.86948985989147 75.38631201081444,244.18402922785026 76.41320979659213,244.8000000000029 76.67563923064154,243.97433639861993 76.52730955055449,240.47503847291227 77.4743375084945,240.3832953400124 76.11655043624341,240.0032159716211 74.80440326553071,239.9376849361579 74.22249452030519,239.30858535117295 73.07008700515144,227.39444954277133 74.32518429885386,225.92640727000253 75.21516237984179,225.415210169871 74.57620375760598,224.27484031801578 73.48084611946251,223.1999999999971" stroke="#4dd2ff" stroke-linecap="round" stroke-linejoin="round" stroke-width="0.5"><title>2021-03-17 2.8km</title></polyline><polyline fill="none" points="89.92765957443044,232.83431946646306 90.19574468093924,232.83431946646306 91.53617021278478,233.40617387497332 91.91914893616922,233.89005010956316 95.90212765941396,234.98976687228424 100.11489361710846,235.5616185174731 101.53191489353776,235.4736413891369 102.52765957452357,235.69358417773037 103.02553191501647,235.8695383304439 105.01702127652243,236.17745793084032 106.66382978716865,236.83728493037052 107.19999999995343,236.969250213122 108.11914893635549,237.45312258254853 108.88510638312437,237.93699442697107 109.19148936169222,238.02497106959345 109.53617021278478,238.20092430277145 110.37872340413742,238.42086574662244 110.80000000004657,238.37687746656593 110.76170212775469,238.37687746656593 110.76170212775469,238.37687746656593 110.64680851087905,238.42086574662244 110.72340425546281,238.37687746656593 110.76170212775469,238.37687746656593 110.80000000004657,238.42086574662244 110.57021276582964,238.37687746656593 110.07234042556956,238.37687746656593 108.38723404239863,238.42086574662244 107.23829787247814,238.06895938445814 106.12765957438387,237.849017767061 105.01702127652243,237.76104108980508 103.90638297866099,237.80502943051397 103.33191489381716,237.849017767061 102.22127659572288,237.93699442697107 101.72340425522998,237.93699442697107 100.0,237.80502943051397 99.46382978721522,237.67306439497042 98.42978723393753,237.40913420694415 97.89361702138558,237.1452038627467 96.8595744681079,236.79329649396823 96.32340425532311,236.61734270560555 94.1404255318921,236.17745793084032 92.72340425546281,235.60560707523837 92.60851063835435,235.34167566380347 93.06808510632254,235.25369849195704 93.25957446801476,235.25369849195704 93.4127659574151,235.07774409631384 93.25957446801476,235.03375548645272 92.87659574463032,234.9457782538666 92.6851063829381,234.90178963114158 92.57021276606247,234.8578010039637 92.34042553184554,234.8578010039637 92.18723404267803,234.7698237366567 91.99574468075298,234.7698237366567 91.80425531906076,234.7698237366567 91.53617021278478,234.68184645206202 91.34468085109256,234.59386915012146 91.2297872339841,234.54988049255917 90.84680851059966,234.32993714004988 90.7319148934912,234.24195976863848 90.5404255320318,234.1099936789251 90.42553191492334,234.0220162642363 90.31063829781488,233.89005010956316 90.15744680841453,233.71409517590655 89.88936170213856,233.49415141125792 89.65957446815446,233.36218510032631 89.544680851046,233.2742075380229 89.35319148935378,233.0542635564634 89.27659574453719,232.65836411633063 89.27659574453719,232.30645320791518 89.23829787247814,232.08650874905288 89.19999999995343,231.91055310392403 89.3148936170619,231.55864160554484 89.27659574453719,231.07476284180302 89.27659574453719,230.8548177756893 89.23829787247814,230.72285068387282 89.3148936170619,230.59088355317363 89.27659574453719,230.5468945009343 89.3148936170619,230.2389710135758 89.35319148935378,230.01902553523541 89.544680851046,229.97503642659285 89.92765957443044,229.84306907452992 90.11914893612266,229.75509081812925 90.23404255323112,229.71110168349696 90.46382978721522,229.62312340116478 90.5021276595071,229.62312340116478 90.5021276595071,229.57913425340666 90.5404255320318,229.57913425340666" stroke="#4dd2ff" stroke-linecap="round" stroke-linejoin="round" stroke-width="0.5"><title>2021-03-02 1.4km</title></polyline><polyline fill="none" points="119.16837209300138,234.3173654836719 119.41953488369472,234.4327591159381 122.18232558132149,234.95203018025495 123.94046511640772,235.58669418818317 124.59348837193102,235.87517760071205 126.35162790701725,236.3367507646326 127.00465116254054,236.3367507646326 128.86325581395067,236.22135750798043 129.46604651142843,236.0482675798703 131.32465116260573,235.9328742660582 132.47999999998137,236.3367507646326 133.08279069769196,236.56753721018322 134.1376744187437,236.97141327062855 135.14232558128424,237.1445029254537 136.39813953498378,237.0291098279995 136.59906976716593,236.91371670772787 136.79999999981374,237.0291098279995 136.7497674417682,237.8368610329344 135.84558139531873,238.06764688662952 135.0920930232387,238.70230751478812 134.74046511598863,238.81770028255414 134.3888372092042,238.93309302732814 134.1879069765564,238.93309302732814 133.88651162781753,238.9907893910422 133.68558139540255,239.1061821016483 132.98232558136806,239.39466377877397 133.08279069769196,239.6831453135237 133.43441860447638,239.913930439041 133.43441860447638,239.97162670624675 133.43441860447638,240.02932296763174 133.48465116275474,239.97162670624675 133.2334883720614,239.913930439041 132.9320930230897,240.02932296763174 132.83162790699862,240.08701922331238 132.73116279044189,240.1447154734633 132.68093023239635,240.20241171779344 132.68093023239635,240.20241171779344 132.47999999998137,239.913930439041 132.37953488365747,239.79853788769105 132.2288372090552,239.62544901808724 132.17860465100966,239.5100564098102 131.6762790698558,239.39466377877397 131.47534883697517,239.39466377877397 131.22418604651466,239.39466377877397 130.97302325582132,239.33696745481575 130.67162790708244,239.33696745481575 130.42046511615627,239.33696745481575 129.91813953476958,239.22157478972804 129.66697674407624,239.16387844854034 129.41581395361573,239.1061821016483 129.16465116268955,239.04848574922653 128.6623255815357,238.93309302732814 128.46139534865506,238.81770028255414 128.21023255819455,238.7600039015524 127.9590697675012,238.6446111225523 127.70790697657503,238.52921832085121 127.50697674416006,238.35612907569157 127.0548837208189,238.12534333579242 126.60279069747776,237.89455750479829 126.25116279092617,237.548378587584 125.99999999976717,237.4329855698743 125.74883720930666,237.31759252917254 125.49767441861331,237.2021994657698 125.24651162768714,237.08680637960788 125.09581395355053,237.0291098279995 124.69395348825492,236.85602013889002 124.49302325583994,236.79832356458064 124.29209302319214,236.7406269844505 124.09116279054433,236.62523380731 123.84000000008382,236.56753721018322 123.58883720915765,236.5098406074103 123.03627906972542,236.4521439987584 122.83534883731045,236.394447384635 122.58418604638427,236.3367507646326 122.2827906976454,236.3367507646326 122.08186046499759,236.2790541391587 121.5795348836109,236.22135750798043 121.32837209291756,236.10596422827803 120.87627906980924,235.75978425279027 120.37395348842256,235.58669418818317 120.17302325577475,235.52899748866912 119.92186046508141,235.47130078350892 119.62046511634253,235.41360407252796 119.41953488369472,235.35590735595906 119.16837209300138,235.24051390541717 118.71627906966023,235.0097269366379 118.46511627919972,234.89433341799304 118.26418604631908,234.7789398766472 117.76186046516523,234.4904559236602 117.61116279079579,234.37506230268627 117.41023255791515,234.25966865901137 116.95813953480683,233.97118444991065 116.75720930239186,233.79809385625413 116.50604651169851,233.45191251521464 116.15441860468127,233.04803402512334 115.55162790697068,232.5864582664799 115.55162790697068,232.41336726327427 115.45116279064678,232.12488214374753 115.3506976745557,231.89409394573886 115.19999999995343,231.1440316736116 115.3506976745557,230.8555459283525 115.40093023236841,230.5670600407757 115.45116279064678,230.33627122826874 115.50139534892514,230.16317955916747 115.50139534892514,229.8746933301445 115.50139534892514,229.12462846905692 115.50139534892514,228.60535223275656 116.05395348835737,228.37456264632056 116.45581395342015,228.14377296896419 116.80744186067022,228.0283780960599 117.05860465136357,227.97068065113854 117.15906976745464,227.85528574418277 117.8623255812563,227.79758828220656" stroke="#4dd2ff" stroke-linecap="round" stroke-linejoin="round" stroke-width="0.5"><title>2020-12-25 1.0km</title></polyline><polyline fill="none" points="141.52481202990748,231.50505844311556 141.76842105272226,231.7382317239244 141.97142857126892,231.9714048897149 142.41804511263035,232.25121253708494 144.16390977427363,232.71755824791035 145.09774436079897,232.99736545371707 145.70676691737026,233.13726899461471 148.54887218028307,234.2564958309231 149.36090225563385,234.81610825585085 150.29473684192635,235.23581713973545 151.67518796981312,235.74879415892065 152.2030075187795,235.8420626479783 153.17744360910729,235.8420626479783 153.74586466164328,235.8420626479783 154.72030075173825,235.65552565146936 155.61353383469395,235.56225712536252 156.62857142859139,235.6088913907006 157.19699248112738,235.56225712536252 158.78045112779364,235.8420626479783 159.30827067652717,236.0285995710874 160.3233082704246,236.2151364206511 160.89172932342626,236.1685022150923 161.9067669173237,236.1218680050515 162.35338345868513,236.0752337904123 162.80000000004657,236.2617706215824 162.7593984962441,236.30840481779887 162.63759398506954,236.35503900944605 162.59699248126708,236.40167319658212 162.59699248126708,236.44830737900338 162.55639097746462,236.40167319658212 162.47518797009252,236.49494155685534 162.47518797009252,236.40167319658212 162.51578947389498,236.44830737900338 162.55639097746462,236.49494155685534 162.51578947389498,236.44830737900338 162.59699248126708,236.35503900944605 162.55639097746462,236.35503900944605 162.51578947389498,236.35503900944605 162.51578947389498,236.40167319658212 162.51578947389498,236.35503900944605 162.51578947389498,236.35503900944605 162.51578947389498,236.35503900944605 162.51578947389498,236.40167319658212 162.47518797009252,236.40167319658212 162.47518797009252,236.40167319658212 162.43458646605723,236.40167319658212 162.3939849624876,236.40167319658212 162.47518797009252,236.40167319658212 162.47518797009252,236.40167319658212 162.47518797009252,236.40167319658212 162.43458646605723,236.40167319658212 162.43458646605723,236.44830737900338 162.35338345868513,236.40167319658212 161.4195488721598,236.40167319658212 160.3639097744599,236.40167319658212 159.30827067652717,236.1685022150923 158.8210526315961,236.0285995710874 157.80601503746584,235.74879415892065 157.2781954887323,235.65552565146936 156.18195488722995,235.65552565146936 155.65413533849642,235.6088913907006 154.55789473699406,235.7021599073778 153.4210526314564,235.8420626479783 152.89323308272287,235.8420626479783 151.7969924812205,235.79542840577778 151.2285714284517,235.65552565146936 148.67067669169046,234.81610825585085 148.14285714295693,234.6295708543621 146.6406015038956,234.2564958309231 146.2345864661038,234.20986143237678 144.6105263158679,233.93005494397948 143.67669172910973,233.51034490103484 143.1488721803762,233.23053799886839 142.13383458647877,232.67092369752936 141.19999999995343,232.3444817160489" stroke="#4dd2ff" stroke-linecap="round" stroke-linejoin="round" stroke-width="0.5"><title>2020-12-08 1.1km</title></polyline><polyline fill="none" points="167.19999999995343,231.77350431791274 167.40769230760634,231.81326338712825 168.79230769223068,232.88675676990533 169.24230769230053,233.0457925835217 171.00769230758306,233.5626585446007 171.8384615384275,233.80121184160816 172.25384615384974,233.96024729442433 173.22307692305185,234.31807683419902 174.0884615384275,234.7554236180731 174.53846153849736,235.03373496080167 176.75384615373332,235.7891504939762 177.2384615385672,235.82890916700126 178.62307692307513,235.6698744512396 179.03846153838094,235.63011576244025 181.2192307692021,235.6698744512396 181.66923076903913,235.7096331360517 183.01923076924868,236.1072197687754 184.4038461537566,236.22649568208726 184.81923076917883,236.18673704814864 185.71923076931853,236.22649568208726 187.10384615371004,236.02770247348235 187.51923076913226,235.98794382004417 188.38461538462434,235.90842650135164 188.79999999993015,235.8686678361846 188.62692307692487,235.55059837320005 187.65769230760634,235.51083967264276 187.24230769230053,235.55059837320005 186.37692307692487,235.7891504939762 186.0653846153291,235.8686678361846 185.1653846153058,236.06746112307883 184.74999999988358,236.1072197687754 183.88461538450792,236.1072197687754 183.4346153845545,236.02770247348235 182.56923076906241,235.8686678361846 182.15384615387302,235.7493918169057 180.8038461537799,235.51083967264276 180.35384615382645,235.51083967264276 179.45384615380317,235.55059837320005 178.9692307690857,235.55059837320005 178.06923076917883,235.63011576244025 177.16923076915555,235.6698744512396 176.3038461537799,235.63011576244025 175.47307692305185,235.43132225988666 175.05769230762962,235.31204611138673 174.15769230772275,235.03373496080167 173.74230769230053,234.87469993132981 172.91153846145608,234.5963884788216 171.80384615366347,234.27831801210414 171.4923076921841,234.23855918616755 170.66153846145608,234.03976499740384 169.51923076924868,233.68193521071225 169.2076923076529,233.44338184321532 168.4807692306349,233.0457925835217 168.09999999997672,232.84699780662777" stroke="#4dd2ff" stroke-linecap="round" stroke-linejoin="round" stroke-width="0.5"><title>2020-12-03 1.3km</title></polyline><polyline fill="none" points="32.57183098583482,258.56783315117355 32.761971830856055,259.26669882109854 32.800000000046566,259.48509411676787 32.153521126834676,259.87820537763764 31.050704225199297,259.834526365943 29.529577464796603,259.57245220491313 28.08450704207644,258.960945226223 27.59014084516093,258.87358701741323 24.776056338101625,257.78160795453005 23.74929577461444,257.60689105445636 22.190140845021233,257.6505702859722 21.125352112576365,257.60689105445636 20.364788732258603,257.60689105445636 19.908450704067945,257.60689105445636 18.88169014081359,257.5195325787645 18.539436619495973,257.47585333450115 17.360563380178064,257.38849483264494 16.904225351987407,257.3448155754595 15.30704225343652,257.213777777768 14.812676056055352,257.1264192244271 13.823943661991507,257.0390606537985 12.530985915567726,256.47122952505015 12.036619718186557,256.29651210826705 11.199999999953434,256.12179462239146 12.15070422529243,256.3401914689457 12.987323943758383,256.73330552110565 13.823943661991507,257.1264192244271 14.318309859139845,257.17009850317845 15.573239436605945,257.3011363137921 15.953521126648411,257.3448155754595 16.942253521177918,257.4321740856976 17.436619718093425,257.47585333450115 18.463380281580612,257.47585333450115 18.9197183100041,257.5195325787645 19.946478873258457,257.60689105445636 20.402816901449114,257.60689105445636 21.809859154745936,257.6505702859722 22.266197183169425,257.6505702859722 22.950704225338995,257.56321181877865 23.17887323931791,257.56321181877865 23.33098591538146,257.56321181877865 23.483098591445014,257.56321181877865 23.635211267508566,257.56321181877865 23.8253521125298,257.5195325787645 24.015492957551032,257.5195325787645 24.39577464782633,257.56321181877865 24.54788732388988,257.56321181877865 24.890140845207497,257.6942495130643 25.232394366059452,257.8689663785335 25.194366197101772,257.95632478545303 25.194366197101772,258.00000398236443 25.15633802814409,258.00000398236443" stroke="#4dd2ff" stroke-linecap="round" stroke-linejoin="round" stroke-width="0.5"><title>2020-11-30 1.0km</title></polyline></svg>