<?xml version="1.0" encoding="utf-8" ?>
<svg baseProfile="full" height="300mm" version="1.1" viewBox="0,0,200,300" width="200mm" xmlns="http://www.w3.org/2000/svg" xmlns:ev="http://www.w3.org/2001/xml-events" xmlns:xlink="http://www.w3.org/1999/xlink"><defs /><rect fill="#222222" height="300" width="200" x="0" y="0" /><text fill="#FFFFFF" style="font-size:12px; font-family:Arial; font-weight:bold;" x="10" y="20">Over 3km Runs</text><text fill="#FFFFFF" style="font-size:4px; font-family:Arial" x="10" y="280">ATHLETE</text><text fill="#FFFFFF" style="font-size:9px; font-family:Arial" x="10" y="290">jdzj</text><text fill="#FFFFFF" style="font-size:4px; font-family:Arial" x="120" y="280">STATISTICS</text><text fill="#FFFFFF" style="font-size:3px; font-family:Arial" x="120" y="285">Number: 19</text><text fill="#FFFFFF" style="font-size:3px; font-family:Arial" x="120" y="290">Weekly: 2.7</text><text fill="#FFFFFF" style="font-size:3px; font-family:Arial" x="141" y="285">Total: 32.3 km</text><text fill="#FFFFFF" style="font-size:3px; font-family:Arial" x="141" y="290">Avg: 1.7 km</text><text fill="#FFFFFF" style="font-size:3px; font-family:Arial" x="167" y="285">Min: 1.0 km</text><text fill="#FFFFFF" style="font-size:3px; font-family:Arial" x="167" y="290">Max: 3.7 km</text><polyline fill="none" points="16.493368700379506,49.075854398775846 30.19031830248423,55.18379590642871 37.60278514609672,55.12209982558852 42.11472148541361,56.17093237012159 48.18435013270937,54.6902270904975 52.75,54.75192321353825 42.4370026527904,56.10923638695385 37.92506631324068,55.06040373892756 30.620026525342837,55.43058016843861 21.16644562361762,52.715947931981646 12.25,48.82906762987841" stroke="#4dd2ff" stroke-linecap="round" stroke-linejoin="round" stroke-width="0.5"><title>2021-04-01 1.4km</title></polyline><polyline fill="none" points="57.25,47.39889063627925 61.82364975474775,52.0432009549113 67.19271685765125,53.185240195773076 73.48977086762898,56.45907665556297 82.10679214424454,56.306805500236806 86.87929623574018,57.60110936372075 97.75,56.306805500236806 90.12725040945224,57.44883843360003 80.913666121196,56.078398710873444 72.69435351900756,56.45907665556297 60.365384615492076,53.10910429881187 59.105973813682795,52.42388088948792 60.56423895293847,51.81479290389689" stroke="#4dd2ff" stroke-linecap="round" stroke-linejoin="round" stroke-width="0.5"><title>2021-03-29 1.2km</title></polyline><polyline fill="none" points="121.7614520015195,72.75 119.87405156018212,62.10714260087116 118.56107734004036,61.73040211893385 112.16032801801339,52.500214032130316 107.8931618030183,52.12346977205016 121.18702577985823,32.25 125.61831377213821,34.98144919535844 134.31676797941327,43.83505856554257 133.41409820318222,50.145559976343066 137.1068381969817,71.80815898114815 125.3721311064437,63.99084278731607 121.10496489098296,63.143178161699325 120.6946604475379,64.93269149173284" stroke="#4dd2ff" stroke-linecap="round" stroke-linejoin="round" stroke-width="0.5"><title>2021-03-28 1.4km</title></polyline><polyline fill="none" points="167.0015384615399,45.16413888288662 169.30692307674326,46.523973613628186 169.8676923075691,45.37884979927912 172.1107692308724,45.2357091953163 172.6092307693325,44.09058334771544 173.2946153844241,44.87785756215453 174.35384615394287,44.09058334771544 177.65615384606645,45.951411932474 179.58769230777398,44.520005752448924 185.25769230746664,46.23769282939611 184.8838461539708,44.80628721421817 187.56307692313567,45.092568563413806 185.56923076906241,44.37686497910181 186.06769230775535,43.23173777596094 186.19230769225396,44.80628721421817 185.88076923089102,44.09058334771544 185.19538461556658,45.02099823660683 185.31999999983236,43.87587204994634 186.19230769225396,45.092568563413806 185.25769230746664,44.80628721421817 187.12692307704128,44.591576128441375 187.12692307704128,45.30727950070286 186.31692307675257,44.30529458174715 185.00846153846942,45.02099823660683 187.62538461526856,44.591576128441375 186.81538461521268,43.94744248967618 186.56615384598263,46.09455239516683 185.4446153845638,45.16413888288662 185.31999999983236,45.951411932474 186.8776923075784,44.949427902989555 186.19230769225396,45.02099823660683 187.75,46.95339457812952 187.56307692313567,44.87785756215453 186.62846153858118,45.02099823660683 187.12692307704128,46.02298216725467 185.7561538463924,46.45240342832403 185.56923076906241,45.6651309223962 184.8215384616051,46.73868412763113 182.20461538457312,46.38083323586034 182.20461538457312,44.949427902989555 182.82769230753183,57.25942148291506 175.78692307695746,58.83394048089394 170.05461538466625,56.97314493457088 170.49076923076063,57.90354330436094 168.74615384615026,56.97314493457088 158.6523076922167,56.47216070286231 153.60538461548276,57.97511236020364 153.16923076915555,60.55159367294982 151.985384615371,61.48198745417176 147.93538461532444,61.76826222403906 147.25,60.62316246761475" stroke="#4dd2ff" stroke-linecap="round" stroke-linejoin="round" stroke-width="0.5"><title>2021-03-26 1.5km</title></polyline><polyline fill="none" points="16.530487805372104,98.68362239241833 29.3719512198586,103.92444208118832 33.887630662182346,103.60026912222384 37.83885017433204,104.46472991997143 43.53048780513927,103.33012484322535 45.788327526301146,103.60026912222384 52.75,101.11493673006771 46.58797909435816,103.60026912222384 38.63850174238905,104.24861484841676 34.45209059258923,103.38415370968869 29.795296167721972,103.76235562574584 19.77613240433857,101.33105303783668 12.25,98.03527008002857" stroke="#4dd2ff" stroke-linecap="round" stroke-linejoin="round" stroke-width="0.5"><title>2021-03-26 1.6km</title></polyline><polyline fill="none" points="97.75,104.84361843741499 94.655772495782,104.44871698744828 90.0488115446642,101.52644020324806 86.12945670587942,101.60542079724837 80.49108658730984,99.39396122511243 66.73896434600465,99.78886516811326 68.80178268207237,100.8156145082321 67.97665534797125,101.05255647655576 57.25,97.65638156264322 65.91383701143786,100.97357582813129 78.2219864174258,101.76338196161669 88.74235993204638,104.29075635276968" stroke="#4dd2ff" stroke-linecap="round" stroke-linejoin="round" stroke-width="0.5"><title>2021-03-24 1.1km</title></polyline><polyline fill="none" points="142.75,104.22067890147446 139.8335597824771,104.0310619500815 136.97214673901908,101.88206591451308 132.4048913042061,101.12359500478487 128.663043478271,99.41703217604663 117.21739130443893,99.66985658550402 118.20788043504581,100.74435921327677 109.23845108714886,98.27932109846734 102.25,99.1642076667049 105.00135869556107,99.54344439320266 109.4585597824771,98.34252732252935 117.71263586962596,100.87077116890578 132.73505434789695,101.50283057184424" stroke="#4dd2ff" stroke-linecap="round" stroke-linejoin="round" stroke-width="0.5"><title>2021-03-23 1.3km</title></polyline><polyline fill="none" points="186.94215425499715,103.26049244561 173.3164893614594,98.4971896627685 167.7692819146905,99.42510862619383 162.27593085099943,98.80649613635615 163.78390957415104,99.7962758273934 163.1914893614594,99.98185934562935 154.52061170176603,97.38368509407155 147.25,98.4353283495293 153.98204787215218,97.50740792159922 162.11436170199886,99.8581370061147 172.8856382977683,100.60047067626147 187.75,105.11631490598666 185.32646276568994,103.94096131855622 187.75,103.26049244561" stroke="#4dd2ff" stroke-linecap="round" stroke-linejoin="round" stroke-width="0.5"><title>2021-03-22 1.6km</title></polyline><polyline fill="none" points="46.738523335778154,130.00044429762056 47.296289211837575,130.3915681137587 46.98641928075813,131.63605017220834 49.806235654163174,132.06272875022842 50.54992348875385,132.667189208325 50.30202754389029,133.76943803371978 51.417559295892715,134.51612081518397 52.75,136.82727204466937 51.94433817884419,138.96062931543565 50.76683244074229,139.45841086975997 50.33301453711465,140.73841743828962 44.60042081098072,145.7161777415895 38.27907421567943,148.16947728622472 36.295906656305306,149.44945305853616 34.7775439938996,150.72942430581315 30.34640397853218,156.84478003630647 12.25,169.99955570237944" stroke="#4dd2ff" stroke-linecap="round" stroke-linejoin="round" stroke-width="0.5"><title>2021-03-21 1.3km</title></polyline><polyline fill="none" points="75.60896358732134,146.48147321326542 75.09489543619566,143.19423279812327 71.56985668628477,138.8112063636654 70.13780969381332,138.3897591525165 65.2908814123366,142.8149342049437 60.480672284727916,148.9258151294198 59.26894021430053,149.26296464467305 57.94705068296753,152.84516186913243 60.186919055413455,156.04804227585555 65.51119633438066,158.5766151677817 71.2761034569703,163.25443570161588 70.94563107402064,163.50728941164562 71.71673330082558,163.42300485819578 71.01906938152388,163.04372416279512 71.9003290690016,164.51870276010595 73.8464442123659,166.83651601785095 81.22699409537017,170.25 85.04578607459553,169.8707253439643 94.04197871801443,163.59157394847716 95.25371078867465,161.06303063509404 97.0529493172653,152.97159181258758 95.25371078867465,149.85297565849032 88.53410567133687,143.657819511689 81.26371324900538,134.51242536562495 75.86599766276777,129.75 69.80733731109649,138.1790353914257 70.90891192061827,138.30546966052498 72.41439721989445,139.69624415878206 75.35192951164208,143.4470983404026 75.31521035823971,144.62713556550443" stroke="#4dd2ff" stroke-linecap="round" stroke-linejoin="round" stroke-width="0.5"><title>2021-03-20 3.7km</title></polyline><polyline fill="none" points="138.75985221681185,160.19778150354978 124.92733990121633,155.76733033760684 110.29679802968167,155.30900635645958 102.44950738921762,153.628482772212 102.25,150.87852722289972 103.38054187200032,149.65632162196562 102.31650246330537,147.59384529676754 102.58251231512986,144.0035956276115 106.77216748753563,139.80221849639202 113.6884236454498,140.64249574620044 120.7376847290434,143.01054490817478 134.03817733982578,142.70499058469431 141.15394088672474,141.55916079698363 142.01847290620208,140.56610694288975 140.7549261082895,143.46887616778258 139.95689655165188,153.3229326379951 140.62192118237726,158.36449443991296 142.75,158.74642960273195" stroke="#4dd2ff" stroke-linecap="round" stroke-linejoin="round" stroke-width="0.5"><title>2021-03-19 1.6km</title></polyline><polyline fill="none" points="163.66299303958658,149.58627522893948 172.46461716957856,153.36392515257467 175.8787703019334,153.14806049643084 178.85440835275222,153.79565408156486 181.98665893287398,153.1120830414293 183.64675174013246,153.25599284050986 187.75,152.03275773851783 180.13863109075464,153.7596766902425 176.22331786563154,153.14806049643084 171.83816705353092,153.3279477187898 154.3288863110356,147.75140257910243 147.25,146.99586409932817 148.78480278432835,147.21173239601194 147.75116009288467,146.77999567482038 148.0643851509085,146.60010522350785 150.44489559170324,146.74401759169996 153.60846867761575,146.20434591840603 154.67343387485016,146.99586409932817 155.29988399078138,146.60010522350785 156.05162412999198,147.31966649653623 156.70939675183035,147.10379826373537 157.5551044085296,147.82335854318808 158.620069605764,147.4276005650463 160.8126450116979,149.01062990099308 161.25116009288467,148.4709615810716 160.12354988406878,146.77999567482038 159.685034802882,146.81597375447745 159.8416473318357,148.0392263501708 161.8776102088159,149.0466077606252 162.72331786563154,147.03184215771034 163.19315545260906,148.0032483912364 163.81960556854028,147.89531449295464 163.16183294681832,148.07520430564182 163.53770301642362,147.96727042866405 162.6293503481429,146.70803950502886 163.9762180976104,146.60010522350785" stroke="#4dd2ff" stroke-linecap="round" stroke-linejoin="round" stroke-width="0.5"><title>2021-03-19 3.1km</title></polyline><polyline fill="none" points="29.292789432336576,219.0 29.065327689866535,218.29456912676687 28.63315037940629,218.21618780269637 27.996257500723004,218.81711069471203 28.769627424771897,214.40160199900856 28.47392715967726,215.4728268473118 28.610404205159284,217.43237328602117 28.17822689458262,217.77202652799315 25.721640076837502,217.7197722114215 25.42593981162645,216.15213792095892 25.630655379849486,214.76738658067188 31.590153030469082,213.43488317311858 35.5934796964284,213.1736072092608 35.45700265117921,187.9070038535283 36.79902693128679,186.1824114988849 39.57406018837355,183.72615451182355 39.073644355055876,182.4718868365744 35.684464393532835,178.5" stroke="#4dd2ff" stroke-linecap="round" stroke-linejoin="round" stroke-width="0.5"><title>2021-03-18 2.7km</title></polyline><polyline fill="none" points="70.98561717162374,215.6580162490136 72.11948347685393,215.85460476942535 72.29063310776837,216.81297158508096 72.71850718511268,217.05870607218822 75.02902720309794,217.52560093002103 78.02414574485738,217.25529348730925 80.0993350201752,217.84505480223743 82.02476836845744,219.0 82.51682355743833,217.45188074742327 82.2387054071296,210.89069713673962 84.01438282837626,210.71867876253964 81.46853206783999,210.0060299468023 79.00825612281915,209.88315925530333 77.91717722546309,208.70359753347293 75.75641313462984,186.36459289271443 78.10972056025639,183.61201363126747 79.77842946210876,182.65351906852447 78.58038204547483,180.51532559629413 76.52658647391945,178.5" stroke="#4dd2ff" stroke-linecap="round" stroke-linejoin="round" stroke-width="0.5"><title>2021-03-17 2.8km</title></polyline><polyline fill="none" points="103.61436170199886,196.5643489995855 104.11702127661556,196.5643489995855 106.6303191492334,197.63657601556042 107.34840425522998,198.54384395538364 114.81648936169222,200.60581288556568 122.71542553184554,201.6780347202439 125.3723404253833,201.5130776046426 127.23936170199886,201.92547033325536 128.17287234030664,202.25538436957868 131.90691489353776,202.8327336203074 134.99468085123226,204.06990924442653 136.0,204.31734414957464 137.72340425569564,205.22460484225303 139.15957446815446,206.13186455052346 139.73404255323112,206.2968207554659 140.3803191492334,206.6267330676783 141.9601063830778,207.0391232749098 142.75,206.95664524979657 142.67819148954004,206.95664524979657 142.67819148954004,206.95664524979657 142.4627659576945,207.0391232749098 142.60638297908008,206.95664524979657 142.67819148954004,206.95664524979657 142.75,207.0391232749098 142.31914893630892,206.95664524979657 141.38563829800114,206.95664524979657 138.22606382984668,207.0391232749098 136.07180851092562,206.3792988458299 133.98936170199886,205.96690831327578 131.90691489353776,205.8019520433736 129.82446808507666,205.8844301821664 128.74734042584896,205.96690831327578 126.66489361738786,206.13186455052346 125.73138297861442,206.13186455052346 122.5,205.8844301821664 121.49468085123226,205.6369957405841 119.55585106369108,205.14212663803482 118.55053191492334,204.6472572426428 116.61170212784782,203.9874309261795 115.60638297908008,203.6575175729813 111.51329787261784,202.8327336203074 108.85638297908008,201.76051326608285 108.64095744676888,201.26564186962787 109.5026595746167,201.10068467236124 109.86170212784782,201.10068467236124 110.14893617015332,200.77077018056298 109.86170212784782,200.68829153710976 109.14361702091992,200.52333422598895 108.78457446815446,200.44085555832135 108.56914893630892,200.35837688238826 108.13829787261784,200.35837688238826 107.85106382984668,200.19341950619128 107.49202127661556,200.19341950619128 107.13297872338444,200.19341950619128 106.6303191492334,200.02846209757263 106.27127659600228,199.8635046564741 106.05585106369108,199.78102592355572 105.3377659576945,199.3686321376008 105.1223404253833,199.20367456617532 104.76329787261784,198.95623814797727 104.54787234030664,198.79128049546853 104.3324468084611,198.54384395538364 104.04521276568994,198.2139284547884 103.5425531915389,197.80153389606858 103.11170212784782,197.55409706308274 102.89627659600228,197.38913913373835 102.53723404277116,196.9767441683798 102.39361702091992,196.23443271807628 102.39361702091992,195.5745997648337 102.32180851092562,195.16220390447415 102.25,194.83228706987575 102.46542553184554,194.17245301039657 102.39361702091992,193.265180328337 102.39361702091992,192.85278332937742 102.32180851092562,192.60534503223607 102.46542553184554,192.35790666216053 102.39361702091992,192.27542718924815 102.46542553184554,191.6980706504546 102.53723404277116,191.2856728785555 102.89627659600228,191.20319329987979 103.61436170199886,190.9557545147254 103.97340425522998,190.79079528397415 104.18882978707552,190.70831565652043 104.61968085123226,190.54335637716576 104.69148936169222,190.54335637716576 104.69148936169222,190.4608767250902 104.76329787261784,190.4608767250902" stroke="#4dd2ff" stroke-linecap="round" stroke-linejoin="round" stroke-width="0.5"><title>2021-03-02 1.4km</title></polyline><polyline fill="none" points="154.69069767463952,199.3450602820376 155.16162790730596,199.56142334244214 160.34186046523973,200.53505658800714 163.6383720934391,201.72505160293076 164.8627906977199,202.26595800137147 168.15930232591927,203.13140768371522 169.38372093020007,203.13140768371522 172.86860465165228,202.91504532750696 173.99883720930666,202.5905017122859 177.4837209302932,202.37413924885914 179.64999999990687,203.13140768371522 180.78023255849257,203.56413226912264 182.75813953531906,204.3213998825522 184.64186046505347,204.645942985313 186.99651162838563,204.42958092759363 187.37325581396,204.21321882703342 187.75,204.42958092759363 187.65581395383924,205.9441144367447 185.96046511642635,206.37683791248128 184.5476744188927,207.56682659033686 183.88837209297344,207.78318802977446 183.22906976751983,207.99954942625482 182.85232558147982,207.99954942625482 182.28720930218697,208.10773010831326 181.9104651166126,208.32409144064877 180.59186046523973,208.86499458528124 180.78023255849257,209.40589746297337 181.43953488394618,209.83861957327463 181.43953488394618,209.94680007430725 181.43953488394618,210.05498056439683 181.53372093010694,209.94680007430725 181.06279069790617,209.83861957327463 180.49767441861331,210.05498056439683 180.30930232582614,210.1631610437762 180.1209302325733,210.2713415127946 180.02674418594688,210.37952197086997 180.02674418594688,210.37952197086997 179.64999999990687,209.83861957327463 179.4616279071197,209.622258539428 179.17906976724043,209.29771690897178 179.08488372107968,209.08135576848872 178.14302325621247,208.86499458528124 177.7662790697068,208.86499458528124 177.29534883750603,208.86499458528124 176.8244186048396,208.756813977845 176.2593023260124,208.756813977845 175.78837209334597,208.756813977845 174.8465116280131,208.54045273084193 174.37558139534667,208.43227209104225 173.9046511631459,208.32409144064877 173.4337209300138,208.21591077989433 172.49186046561226,207.99954942625482 172.1151162791066,207.78318802977446 171.64418604690582,207.67500731546897 171.17325581423938,207.45864585484378 170.7023255811073,207.24228435161058 170.32558139553294,206.91774201695807 169.4779069768265,206.4850187546108 168.63023255812004,206.05229532148223 167.9709302331321,205.40320985182188 167.5,205.18684794357978 167.02906976733357,204.970485992264 166.5581395351328,204.75412399834022 166.0872093020007,204.53776196180843 165.80465116305277,204.42958092759363 165.05116279097274,204.10503776045516 164.67441860493273,203.99685668363236 164.29767441842705,203.88867559586652 163.9209302328527,203.67231338878628 163.45000000018626,203.56413226912264 162.97906976751983,203.45595113898162 161.9430232560262,203.34776999778114 161.5662790699862,203.2395888462197 161.09534883731976,203.13140768371522 160.5302325580269,203.13140768371522 160.1534883719869,203.0232265109662 159.2116279071197,202.91504532750696 158.74069767445326,202.6986829281086 157.8930232557468,202.04959547403269 156.9511627908796,201.72505160293076 156.5744186048396,201.61687029129826 156.10348837263882,201.50868896907195 155.53837209334597,201.40050763601903 155.16162790730596,201.29232629248872 154.69069767463952,201.0759635727154 153.84302325593308,200.64323800627608 153.3720930237323,200.42687515879516 152.99534883722663,200.21051226882264 152.05348837235942,199.66960485698655 151.77093023294583,199.45324181765318 151.39418604644015,199.2368787357118 150.54651162819937,198.6959708436625 150.16976744215935,198.37142598058563 149.69883720949292,197.7223359660711 149.0395348840393,196.96506379719358 147.9093023254536,196.0996092496207 147.9093023254536,195.77506361866836 147.72093023266643,195.23415401950479 147.53255813987926,194.80142614839133 147.25,193.3950593881309 147.53255813987926,192.85414861573372 147.62674418604,192.31323757651262 147.72093023266643,191.8805085531203 147.8151162797585,191.55596167349722 147.8151162797585,191.01504999410827 147.8151162797585,189.60867837956175 147.8151162797585,188.63503543648403 148.85116279125214,188.20230496197473 149.6046511628665,187.769574316917 150.26395348878577,187.55320893018506 150.7348837214522,187.44502622098662 150.92325581423938,187.2286607704591 152.2418604651466,187.12047802924644" stroke="#4dd2ff" stroke-linecap="round" stroke-linejoin="round" stroke-width="0.5"><title>2020-12-25 1.0km</title></polyline><polyline fill="none" points="12.85902255633846,242.8219845808926 13.315789473708719,243.25918448233278 13.696428571362048,243.69638416823 14.533834586385638,244.2210235070088 17.807330827228725,245.09542171488283 19.558270676527172,245.62006022571586 20.70018796995282,245.88237936492078 26.029135338496417,247.9809296830208 27.551691729109734,249.0302029797458 29.302631578873843,249.81715713703306 31.89097744366154,250.77898904803442 32.88063909765333,250.9538674650248 34.70770676713437,250.9538674650248 35.773496240377426,250.9538674650248 37.600563909858465,250.60411059652688 39.275375940371305,250.42923211009474 41.17857142863795,250.51667135755997 42.24436090234667,250.42923211009474 45.2133458647877,250.9538674650248 46.203007518779486,251.30362419580342 48.106203007511795,251.65338078868808 49.171992481686175,251.5659416533308 51.07518797041848,251.47850250947522 51.91259398544207,251.3910633570631 52.75,251.74081991548883 52.67387218028307,251.8282590333838 52.44548872252926,251.91569814272225 52.36936090234667,252.00313724362059 52.36936090234667,252.09057633567136 52.29323308262974,252.00313724362059 52.1409774441272,252.1780154191074 52.1409774441272,252.00313724362059 52.21710526384413,252.09057633567136 52.29323308262974,252.1780154191074 52.21710526384413,252.09057633567136 52.36936090234667,251.91569814272225 52.29323308262974,251.91569814272225 52.21710526384413,251.91569814272225 52.21710526384413,252.00313724362059 52.21710526384413,251.91569814272225 52.21710526384413,251.91569814272225 52.21710526384413,251.91569814272225 52.21710526384413,252.00313724362059 52.1409774441272,252.00313724362059 52.1409774441272,252.00313724362059 52.06484962394461,252.00313724362059 51.988721805159,252.00313724362059 52.1409774441272,252.00313724362059 52.1409774441272,252.00313724362059 52.1409774441272,252.00313724362059 52.06484962394461,252.00313724362059 52.06484962394461,252.09057633567136 51.91259398544207,252.00313724362059 50.16165413567796,252.00313724362059 48.182330827228725,252.00313724362059 46.203007518779486,251.5659416533308 45.28947368450463,251.30362419580342 43.38627819530666,250.77898904803442 42.39661654178053,250.60411059652688 40.34116541361436,250.60411059652688 39.351503759622574,250.51667135755997 37.296052631922066,250.69154982635519 35.16447368403897,250.9538674650248 34.17481203051284,250.9538674650248 32.11936090234667,250.8664282608661 31.05357142863795,250.60411059652688 26.257518797181547,249.0302029797458 25.267857143189758,248.68044535192894 22.45112781971693,247.9809296830208 21.68984962394461,247.8934901856701 18.644736842252314,247.3688530200161 16.893796992488205,246.58189668948762 15.904135338496417,246.0572587478673 14.000939849764109,245.00798193289666 12.25,244.39590321760625" stroke="#4dd2ff" stroke-linecap="round" stroke-linejoin="round" stroke-width="0.5"><title>2020-12-08 1.1km</title></polyline><polyline fill="none" points="57.25,243.3253205961082 57.63942307699472,243.3998688508873 60.23557692323811,245.41266894357977 61.07932692323811,245.71086109412136 64.38942307699472,246.6799847711227 65.94711538474075,247.12727220298257 66.72596153873019,247.42546367709292 68.54326923075132,248.0963940641377 70.16586538474075,248.91641928389436 71.00961538497359,249.43825305148493 75.16346153849736,250.85465717618354 76.07211538497359,250.92920468811644 78.66826923098415,250.6310145960888 79.44711538474075,250.55646705452818 83.53605769248679,250.6310145960888 84.37980769225396,250.7055621300824 86.91105769248679,251.45103706646478 89.50721153849736,251.6746794038918 90.28605769248679,251.60013196524233 91.97355769271962,251.6746794038918 94.56971153849736,251.3019421377685 95.34855769225396,251.22739466262283 96.9711538462434,251.07829969003797 97.75,251.0037521928898 97.42548076948151,250.40737194975372 95.60817307699472,250.33282438619062 94.82932692323811,250.40737194975372 93.20673076948151,250.85465717618354 92.62259615398943,251.0037521928898 90.93509615398943,251.3764896057546 90.15625,251.45103706646478 88.5336538462434,251.45103706646478 87.6899038462434,251.3019421377685 86.06730769225396,251.0037521928898 85.28846153873019,250.78010965674184 82.75721153849736,250.33282438619062 81.91346153873019,250.33282438619062 80.22596153873019,250.40737194975372 79.31730769225396,250.40737194975372 77.62980769248679,250.55646705452818 75.94230769248679,250.6310145960888 74.31971153873019,250.55646705452818 72.76201923098415,250.18372923729476 71.98317307699472,249.9600864588283 70.29567307722755,249.43825305148493 69.51682692323811,249.14006237121066 67.95913461525925,248.6182283977978 65.88221153826453,248.02184627269162 65.29807692323811,247.94729847408598 63.740384615492076,247.574559370114 61.59855769271962,246.90362852008548 61.01442307722755,246.456340956036 59.65144230774604,245.71086109412136 58.9375,245.33812088746345" stroke="#4dd2ff" stroke-linecap="round" stroke-linejoin="round" stroke-width="0.5"><title>2020-12-03 1.3km</title></polyline><polyline fill="none" points="142.32218309864402,248.56468715838855 142.6786971827969,249.8750602895161 142.75,250.28455146891065 141.5378521126695,251.02163508307422 139.47007042216137,250.93973693606677 136.61795774614438,250.4483478841721 133.90845070406795,249.30177229916444 132.98151408461854,249.1379756575916 127.70510563394055,247.09051491471473 125.77992957737297,246.7629207270802 122.85651408415288,246.8448192861979 120.86003521084785,246.7629207270802 119.43397887330502,246.7629207270802 118.5783450701274,246.7629207270802 116.65316901402548,246.5991235851543 116.01144366152585,246.51722500211326 113.8010563380085,246.35342781117652 112.94542253483087,246.2715292039793 109.950704225339,246.0258333333186 109.02376760495827,245.86203604575712 107.16989436605945,245.6982387258322 104.74559859139845,244.63355535943992 103.81866197148338,244.30596020299708 102.25,243.97836491692578 104.03257042216137,244.38785900420044 105.60123239411041,245.12494785204763 107.16989436605945,245.86203604575712 108.09683098550886,245.94393469346687 110.44982394389808,246.18963058834197 111.1628521126695,246.2715292039793 113.01672535203397,246.43532641069032 113.94366197148338,246.51722500211326 115.86883802805096,246.51722500211326 116.72447183076292,246.5991235851543 118.6496478873305,246.7629207270802 119.50528169004247,246.7629207270802 122.14348591538146,246.8448192861979 122.99911971809343,246.8448192861979 124.28257042216137,246.68102216016268 124.71038732398301,246.68102216016268 124.99559859139845,246.68102216016268 125.28080985881388,246.68102216016268 125.56602112622932,246.68102216016268 125.92253521084785,246.5991235851543 126.2790492954664,246.5991235851543 126.99207746423781,246.68102216016268 127.2772887321189,246.68102216016268 127.91901408461854,246.92671783699188 128.56073943618685,247.25431195972487 128.4894366194494,247.4181089727208 128.4894366194494,247.50000746693695 128.4181338022463,247.50000746693695" stroke="#4dd2ff" stroke-linecap="round" stroke-linejoin="round" stroke-width="0.5"><title>2020-11-30 1.0km</title></polyline></svg>