<?xml version="1.0" encoding="utf-8" ?>
<svg baseProfile="full" height="300mm" version="1.1" viewBox="0,0,200,300" width="200mm" xmlns="http://www.w3.org/2000/svg" xmlns:ev="http://www.w3.org/2001/xml-events" xmlns:xlink="http://www.w3.org/1999/xlink"><defs /><rect fill="#222222" height="300" width="200" x="0" y="0" /><text fill="#FFFFFF" style="font-size:12px; font-family:Arial; font-weight:bold;" x="10" y="20">Over 3km Runs</text><text fill="#FFFFFF" style="font-size:4px; font-family:Arial" x="10" y="280">ATHLETE</text><text fill="#FFFFFF" style="font-size:9px; font-family:Arial" x="10" y="290">jdzj</text><text fill="#FFFFFF" style="font-size:4px; font-family:Arial" x="120" y="280">STATISTICS</text><text fill="#FFFFFF" style="font-size:3px; font-family:Arial" x="120" y="285">Number: 72</text><text fill="#FFFFFF" style="font-size:3px; font-family:Arial" x="120" y="290">Weekly: 2.9</text><text fill="#FFFFFF" style="font-size:3px; font-family:Arial" x="141" y="285">Total: 161.6 km</text><text fill="#FFFFFF" style="font-size:3px; font-family:Arial" x="141" y="290">Avg: 2.2 km</text><text fill="#FFFFFF" style="font-size:3px; font-family:Arial" x="167" y="285">Min: 1.0 km</text><text fill="#FFFFFF" style="font-size:3px; font-family:Arial" x="167" y="290">Max: 13.2 km</text><polyline fill="none" points="27.487777894712053,50.64211715833517 28.952710582059808,49.393497448734706 27.369638161966577,47.35769228829304 26.80256744415965,44.75183969331556 25.668426008778624,42.68885554460576 20.493905709823593,38.399970547965495 13.972592456149869,33.73098172276514 13.75994093704503,33.51381752247107 14.137988082133234,32.943760680704145 12.93296280701179,31.125 14.185243975371122,33.106634184659924 14.303383708233014,34.02958221815061 21.5571633054642,38.97001607902348 23.63642260362394,41.27733115790761 25.550286275916733,42.525987715867814 26.80256744415965,44.26323958294233 27.582289680955,47.60198970322381 29.543409246369265,50.04495191742899 29.56703719298821,50.88641165586887 28.385639864369296,51.375 27.77131325355731,50.96784310680232" stroke="#4dd2ff" stroke-linecap="round" stroke-linejoin="round" stroke-width="0.5"><title>2021-09-12 2.3km</title></polyline><polyline fill="none" points="53.4099686848931,44.18559424488922 52.860386221436784,39.430497878056485 48.590553235961124,34.14161238653469 47.28001043852419,33.85047942926758 44.44754697312601,35.79136256733909 33.625,48.64952057073242 35.31602296466008,45.73826885074959 38.78262004186399,43.360733873792924 39.33220250532031,41.565444771171315 43.644311064854264,36.47066986237769 45.29305845522322,34.82092195242876 47.57593945716508,33.89900160068646 49.43606471829116,35.209098427469144 52.14170146174729,35.306142498360714 49.90109603339806,35.88840652385261 53.11403966601938,39.867192312085535 53.875,45.398621698026545" stroke="#4dd2ff" stroke-linecap="round" stroke-linejoin="round" stroke-width="0.5"><title>2021-08-22 1.7km</title></polyline><polyline fill="none" points="63.25666397425812,45.90598794899415 62.89680937002413,46.39410373289138 58.971122778835706,41.13743939518463 59.59268982242793,38.88456110015977 63.09309369965922,33.28985584908514 65.9392164782621,35.467670320911566 71.5660339257447,42.30142130696913 76.375,47.10750260268105 56.125,42.63935087493155 58.4804119549226,41.28763080891804 59.494547657552175,41.55046564084478 62.864095314987935,45.75579835145618 63.322092084097676,49.21014415094396" stroke="#4dd2ff" stroke-linecap="round" stroke-linejoin="round" stroke-width="0.5"><title>2021-08-15 2.0km</title></polyline><polyline fill="none" points="78.625,36.567080754524795 80.32521528529469,36.49195228748431 81.3061087190872,36.81750881749031 90.54830462869722,43.60401519702282 91.11504305712879,44.455445984902326 93.09862755658105,46.00804771253024 96.91321313253138,43.854436313558836 98.39545209915377,43.97964677918935 98.85320236813277,43.35359383322066 98.875,41.70080663301633 98.63522604957689,41.65072200431314" stroke="#4dd2ff" stroke-linecap="round" stroke-linejoin="round" stroke-width="0.5"><title>2021-08-15 1.2km</title></polyline><polyline fill="none" points="116.11179876953247,50.851586711356504 116.14775502032717,51.047867244589725 116.01933983888011,51.184668438058 116.07070591149386,51.261990709946986 116.1939844856388,51.23225138671478 116.3429460961197,51.35120858869777 116.43026841949904,51.29767787781748 116.67168896066141,51.375 116.93879253804334,51.345260734357 116.94906575256027,51.083554543351056 117.19048629366443,51.14898120109501 117.30349165332154,51.03002358701269 117.51409255090402,51.05976301326882 117.56032201624475,50.91701362909589 117.51409255090402,50.185417556123866 117.31376486783847,50.203261471866426 117.05693450494437,49.882070153737004 117.14425682835281,49.8106940652433 117.12884700656286,49.412175967103394 116.89769967997563,49.180201492905326 116.67168896066141,48.52590954707193 116.3429460961197,46.36669408361922 116.00393001711927,45.533917461914825 115.78819251229288,45.49227831887765 115.56218179292046,45.23054588232844 115.5416353639157,45.0282972864552 115.3567175026401,44.96286376712669 115.07420410343911,44.58810674302367 114.7403246316826,44.36801022608415 114.06229247365263,43.63633205428778 113.73868621641304,43.56494832679891 113.29180138497031,42.92843956260549 113.04010762934922,42.45848938384006 112.92710226966301,42.125357850691216 112.9579219132138,41.96474018191293 112.74732101563131,41.80412207097834 112.62917904870119,41.43529362432673 112.20284064632142,40.995075974602514 112.0898352866352,40.67383397178128 112.04360582135268,40.65003819749472 112.02819599953364,40.79876162749133 111.85868796004797,40.42992682535987 111.68404331326019,40.29310041871213 111.62240402615862,40.01349763338294 111.29879776894813,39.76958772634316 111.31934419798199,39.62086167277084 110.97005490443553,39.23417215913287 111.04710401329794,39.02000455637972 111.26284151812433,38.82963269387619 111.24229508909048,38.72254824821357 110.67726829074672,38.87127659187536 109.58317094482481,38.17522467837989 109.02328075372498,37.663591480213654 106.81967624009121,34.18912640025155 105.16055209582555,32.36851924995426 105.19137173937634,32.14242681311225 104.93967798375525,31.696189168156707 105.02186369986157,31.125" stroke="#4dd2ff" stroke-linecap="round" stroke-linejoin="round" stroke-width="0.5"><title>2021-07-21 5.3km</title></polyline><polyline fill="none" points="134.71372721204534,42.36473419616232 136.319939232897,43.01496253174264 138.88987846579403,40.78560631669825 136.96242404077202,42.36473419616232 135.51683322247118,40.69271635648329 135.03496961621568,42.82918305421481 133.34844699455425,41.25005597562995 133.58937879791483,43.47941105969949 126.6826671087183,44.96564476756612 129.65415934706107,48.86699677311117 127.9676367258653,47.752326467540115 129.0116745387204,47.380769397714175 127.88732612458989,48.959885904158 126.84328831126913,47.93810494610807 126.60235650837421,51.375 127.56608372041956,46.82343350991141 125.63862929586321,49.517220491718035 129.73446994833648,46.916322847944684 127.64639432122931,49.42433141719084 130.53757595829666,49.05277502548415 131.01943956455216,41.80739525560057 132.70596218621358,41.62161553342594 129.81478054914623,40.87849626719253 128.9313639383763,42.643403539434075 130.77850776165724,48.402550977421924 132.54534098459408,47.6594372143154 131.58161377208307,48.030994171393104 132.3847197825089,45.61587125598453 137.84584065247327,44.12963860388845 135.51683322247118,46.35898667742731 138.0867724553682,45.98742904228857 137.76553005119786,43.01496253174264 136.48056043498218,42.92207279766444 140.9779540929012,45.24431331909727 141.8613707041368,40.87849626719253 140.65671168873087,37.627342388092075 139.5323632741347,38.463354487787 135.67745442455634,37.348671518382616 134.31217420706525,38.64913485117722 137.68521944992244,35.95531589805614 135.19559081830084,37.99890341568971 133.18782579246908,37.99890341568971 137.44428764702752,36.69843915948877 131.09975016582757,37.348671518382616 134.79403781332076,38.556244674138725 136.7214922378771,36.88421988062328 134.6334166112356,38.463354487787 136.48056043498218,38.0917936488986 132.8665833887644,39.299365824845154 136.64118163706735,38.0917936488986 134.87434841366485,38.37046429235488 137.44428764702752,36.69843915948877 134.71372721204534,38.37046429235488 138.16708305617794,35.76953498867806 133.18782579246908,37.99890341568971 134.55310600996017,38.37046429235488 137.92615125374869,36.04820633889176 134.1515530049801,38.742025018436834 131.74223497370258,38.277574087376706 137.76553005119786,36.233987191924825 134.07124240370467,38.742025018436834 138.72925726370886,36.233987191924825 133.18782579246908,38.18468387279427 136.319939232897,36.88421988062328 136.80180283868685,37.81312292057555 134.71372721204534,38.463354487787 136.48056043498218,38.277574087376706 138.3277042582631,37.53445210750215 132.94689398957416,38.0917936488986 134.79403781332076,36.977110226871446 135.67745442455634,38.18468387279427 134.71372721204534,38.463354487787 136.15931803081185,37.53445210750215 134.07124240370467,38.742025018436834 138.5686360616237,37.44156181777362 134.47279540868476,38.463354487787 136.48056043498218,36.88421988062328 134.87434841366485,38.277574087376706 135.8380756266415,38.277574087376706 132.3847197825089,38.277574087376706 136.07900742953643,38.18468387279427 137.04273464204744,37.162890891428106 135.91838622745126,36.88421988062328 133.50906819663942,38.18468387279427 135.19559081830084,37.07000056398101 134.79403781332076,37.99890341568971 137.2033558441326,38.37046429235488 131.822545574978,38.18468387279427 137.12304524332285,37.44156181777362 133.91062120208517,37.81312292057555 136.64118163706735,38.0917936488986 135.19559081830084,37.906013172876555 136.07900742953643,38.0917936488986 133.34844699455425,39.20647571387235 133.50906819663942,40.22826641483698 128.9313639383763,39.57803610077826 132.22409857995808,31.125 131.01943956455216,33.725942496035714 129.73446994833648,33.44727043900639 127.16453071497381,35.86242544814013 129.4132275437005,37.07000056398101 130.13602295331657,39.20647571387235 134.39248480834067,37.53445210750215 134.07124240370467,40.50693640834652 134.6334166112356,38.742025018436834" stroke="#4dd2ff" stroke-linecap="round" stroke-linejoin="round" stroke-width="0.5"><title>2021-07-17 3.7km</title></polyline><polyline fill="none" points="146.125,36.86442194136907 149.1371502209222,36.48752550914651 149.52485272462945,33.09543920130818 149.4652061855886,36.83015864621848 150.3300810015062,37.995108782401076 153.40187776146922,40.59910083102295 158.0543078056071,43.305861331755295 165.5995949927019,49.40456079869182 166.375,49.06194007390877 166.3451767305378,48.06833805973292 165.36100883653853,47.21178231635713 163.95931516948622,48.03407587055699 163.09444035345223,47.554404867376434 160.26122974965256,44.881940000952454 157.93501472775824,43.61422511268756 149.64414580271114,37.3783709621639 146.84075846837368,37.446897440677276 146.33376288658474,36.62457880450529" stroke="#4dd2ff" stroke-linecap="round" stroke-linejoin="round" stroke-width="0.5"><title>2021-07-14 1.9km</title></polyline><polyline fill="none" points="188.1008551309351,44.36228115929407 187.65266599599272,45.6726960343658 185.9821428572759,46.70230518319295 176.40719315898605,43.473069004307035 170.09180080494843,43.37946762802312 168.86946680070832,42.53705440936028 168.625,36.26570899269427 169.43988933600485,35.79769481680705 178.89260563394055,36.6401200008695 185.49320925562643,36.031701962434454 186.96001006034203,36.686921356100356 186.47107645869255,43.28586623299634 188.75276659964584,45.6726960343658 188.06011066399515,45.57909509196179 188.875,45.71949649861199" stroke="#4dd2ff" stroke-linecap="round" stroke-linejoin="round" stroke-width="0.5"><title>2021-06-29 1.4km</title></polyline><polyline fill="none" points="25.56423933210317,72.53075263205392 26.390769944351632,71.30784329758899 26.77898886828916,71.14958369270607 26.954313543625176,71.35100497816165 27.71822820045054,70.9769366550754 27.655612244911026,70.84745124263281 27.780844155873638,70.91938759708137 27.793367346923333,69.50942857823975 28.156539888761472,68.21455623971997 30.686224489822052,65.9700836004049 30.723794063087553,64.66079193119367 30.99930426722858,64.15721508020943 31.299860853527207,64.58885248757724 31.099489795975387,67.82609229488298 31.375,68.40159406611929 30.748840445303358,68.89076878497144 30.222866419295315,68.55985665484332 30.24791280151112,68.76128151916782 29.43390538037056,68.76128151916782 28.594851577014197,69.61014038904977 28.5823283859645,69.85472592558654 27.768320964765735,70.27195912890602 27.730751391442027,70.94816212891601 27.16720779222669,71.33661775273504 26.628710575110745,71.29345606789866 26.052643784787506,71.56681318943447 25.61433209653478,72.45881707286753 25.276205936912447,72.60268815570453 24.86294063081732,71.62436199180956 22.23307050089352,71.6099747933622 21.018320964765735,71.8257826211775 19.465445269015618,72.71778491979057 12.652829313534312,67.4520149249438 11.575834879360627,67.43762731463357 11.287801484169904,67.25058825114684 11.400510204024613,67.16426244859758 11.86386827455135,67.3225263809145 11.125,66.90528473412269 11.137523191049695,67.13548716972582 11.82629870128585,67.33691400257521 11.475649350613821,67.4520149249438 11.638450834841933,67.66782890942704" stroke="#4dd2ff" stroke-linecap="round" stroke-linejoin="round" stroke-width="0.5"><title>2021-06-26 3.3km</title></polyline><polyline fill="none" points="33.625,73.20496133718189 34.60970303248905,73.63485837863482 34.82771846403193,73.81850238531115 35.03483312399476,74.1148353517383 34.8822223219031,74.21083009303766 34.65330611879472,74.56141773296986 34.395321191463154,74.99547459627138 34.34808451462595,75.19163344882327 34.45345863988041,75.29179932071565 35.2855508702778,75.39196495551369 35.32915395658347,75.6048161422732 35.263749327117694,76.33517972240588 35.35458909026056,75.52969231623501 35.10387134397752,74.69914779682222 35.20561187871499,74.49463935882886 35.44906244393496,74.40699258284076 35.78698636281479,74.44455550905332 37.33489592678961,74.80766207685883 37.42573568993248,74.8452246474335 37.38576619415835,75.16241835819528 37.76002601830987,75.19163344882327 37.9199040014355,74.77844672114952 38.27962946348998,73.12983325052119 38.39227076979296,73.00044567746954 39.235263771770406,73.2258302264745 39.515050242232974,73.25922042792808 39.63859232010145,73.19243999867831 39.85297416112735,73.24669910547891 40.238134756858926,73.03800985232738 42.120334649211145,71.74828743058606 42.25841108919121,71.85680927867725 42.105800287099555,72.3201109607835 42.04766283869685,73.02548846443096 42.222075183919515,73.38443344869302 42.349250852304976,73.46373483687057 45.29245917817752,73.4470398201338 45.750291584423394,73.52216734357353 46.35346761169785,73.50547234989062 48.101224654572434,73.37191216329302 48.573591422944446,73.21748267199655 49.15133231651271,72.69158341962611 49.536492912258836,72.16150374885183 49.838080925896065,71.43941603158964 49.99069172797317,70.43765543665722 49.86714965010469,69.94511444517411 48.94785124709597,68.8347891403464 48.49365243136708,67.9540216463065 48.464583707173006,68.04168179222688 48.588125785041484,68.4215403251219 48.544522698706714,68.4215403251219 48.620828099767095,68.43406307580517 48.976919971304596,68.9808862403479 49.009622286015656,69.01427979234722 49.02779023865878,68.96418945445475 48.7516373587132,68.55094190347154 48.04308720615518,67.05236388591584 48.079423111412325,66.5389112935809 50.84095191099914,64.38067246764695 51.396891261436394,63.86301273409845 52.64321281175944,63.107385132821946 53.119213170633884,62.756702542083076 53.1519154853886,62.64815734118383 52.63594563072547,62.05532863430926 53.02837340750557,61.754736254726595 53.62064866319997,61.09927045989025 53.6606181589741,60.89887124564484 53.871366409468465,60.761096234771685 53.875,60.677596009642 53.591579938991345,60.539820277597755 53.63518302529701,60.61497073256032 53.68241970213421,60.57739552177736 53.68968688319728,60.6734209940696 53.624282253716956,60.62749579539741" stroke="#4dd2ff" stroke-linecap="round" stroke-linejoin="round" stroke-width="0.5"><title>2021-06-21 11.9km</title></polyline><polyline fill="none" points="59.291456494363956,59.841834129270865 59.21484867599793,59.3430936797231 59.44467213121243,59.4897821341292 59.24038461537566,59.812496478902176 60.61932534677908,61.279375447455095 63.86238965962548,63.33299384001293 70.50173392193392,68.87769262047368 72.0338902900694,69.4350904795283 74.0256935688667,71.89936322459835 74.86837957124226,75.65440621596645 76.375,77.5905817222083 75.07266708696261,75.8890948278713 74.07676544773858,71.9286996817973 72.2126418662956,69.52310057231807 67.79492433788255,65.94400244852295 66.51812736445572,65.50394642507308 64.47525220678654,63.62636673761881 63.479350567562506,63.39166844263673 60.64486128638964,60.78063741052756 59.67449558642693,60.42858652755967 59.03609709965531,59.431106761068804 56.91661412362009,59.665808183839545 56.125,59.2844182777917" stroke="#4dd2ff" stroke-linecap="round" stroke-linejoin="round" stroke-width="0.5"><title>2021-06-16 2.1km</title></polyline><polyline fill="none" points="80.24731759657152,67.15639981784625 80.01555793988518,67.38932888544514 81.20332618022803,67.98828860660433 87.17113733896986,70.41739213062101 90.61856223177165,70.25101573485881 94.06598712445702,70.71686943629174 98.875,70.0846392569365 96.96298283257056,69.6853353754268 97.31062231748365,69.2194802496233 94.73229613737203,69.65206003066851 91.80633047199808,68.68707360400003 89.66255364799872,69.05310326316976 87.83744635188486,68.28776806846145 84.33208154514432,68.48742089534062 80.3052575107431,67.48915557947475 78.625,66.15813056367915" stroke="#4dd2ff" stroke-linecap="round" stroke-linejoin="round" stroke-width="0.5"><title>2021-06-16 1.4km</title></polyline><polyline fill="none" points="120.36737560201436,68.866860101989 119.7172953451518,69.2402102612541 113.02146869990975,66.66408666758798 108.56841894064564,67.18677982891677 106.00060192612,66.8880981108814 105.54554574633949,67.41079096286558 101.125,66.1413927844842 106.3906500802841,67.63480196415912 112.50140449439641,68.1948288877029 121.375,70.7336072154867" stroke="#4dd2ff" stroke-linecap="round" stroke-linejoin="round" stroke-width="0.5"><title>2021-06-15 1.2km</title></polyline><polyline fill="none" points="136.60479323309846,72.89775712051778 135.00610902253538,73.85975741918082 132.49389097746462,73.55366664161556 125.10949248145334,62.00951722881291 123.625,62.84035620841314 125.33787593990564,66.38233648490859 127.08881578966975,68.00026867174893 129.2203947370872,68.61245768817025 131.31390977441333,71.80457242752891 134.39708646619692,73.90348465595162 136.60479323309846,74.86548277118709 142.12406015046872,73.11639373539947 143.875,73.33503024245147" stroke="#4dd2ff" stroke-linecap="round" stroke-linejoin="round" stroke-width="0.5"><title>2021-06-11 1.2km</title></polyline><polyline fill="none" points="163.98052646493306,78.55960192255952 164.06140821968438,78.54800960992907 164.24844727752497,78.41179959651345 164.59724984482455,78.03794335983184 164.60230495450378,77.8437681024061 164.4329587805114,77.9857769979044 164.33438414192642,77.86115698336289 164.36724235478323,77.96549005454654 164.42790367084672,77.98867513153891 164.60230495450378,77.83507365809965 164.6048325093434,78.0118601903614 164.521423199767,78.13068333181036 164.05129800032591,78.55960192255952 163.83392828446813,78.5625 163.2652284464275,76.90185511973868 163.21467734972248,75.93962382635073 162.91642587911338,75.55124450188123 162.39827713777777,75.23242184367155 162.39574958296726,74.98605652766128 162.2997024991928,74.84113479532607 161.8624355126376,74.41506079111059 161.5414360484865,74.22376026278289 161.14713749413204,73.80637299844238 161.01823219751532,73.78318464443328 160.6011856496334,73.85854672850292 160.54810699807422,73.87883648756906 160.67195718502626,73.8991262327254 160.6466816366592,73.93390862059823 160.4343670304661,74.00927032074105 159.71906901197508,74.14260208920678 159.46884108324593,74.13100804623537 159.54466772831802,74.15709463653002 159.50169929610274,74.19187672114822 159.55225039282232,74.16579016151263 159.55983305734117,74.23825277035394 159.5674157218309,74.15419612763253 159.46125841872708,74.1368050682886 159.05179453534947,73.91072036655532 158.0534103752725,73.92231449585415 157.7854895626806,73.81506862651077 157.28503370520775,74.0295599764413 156.69864098333346,73.90492330020606 156.52676725450146,73.82956133427797 156.2259882290673,73.49912583287733 155.9049887649453,73.22665869578668 155.4576115590171,73.125207524894 154.94199037253566,73.1136130832183 154.58560514071723,72.94259454054009 154.26207812174107,72.69041285177627 152.3790497691516,71.86718409937203 152.22234136934276,71.8497916954966 151.74463350539736,71.93385488613967 151.4994606863329,71.90486760600288 151.2568154221226,71.77442449388036 150.91054040963354,71.39758560520386 150.38986411347287,70.94537260117977 150.26095881685615,70.4844560782185 150.07897486868023,70.25254567736374 149.72511719170143,69.57419731543632 149.4470861597656,69.29879503517986 148.58266240597004,67.09548444651227 148.5674970769469,66.90703578720058 148.61552061882685,66.66929884185811 148.9845436248288,66.0169620373963 149.07553559892403,65.7241306127089 149.01234672803548,65.4834847951879 148.70398503808246,64.98189143214404 148.46386732869723,64.49188738423618 148.30463137403422,63.98737768722276 148.32737936756166,63.72642101629572 148.53463886409008,63.001529284269054 148.55991441245715,62.55208748043515 148.50936331572302,62.17513101914301 148.25913538700843,61.17472324774462 148.30210381920915,60.603460717886264 148.2793558256817,59.77699537578337 148.20858429028885,59.44930271609701 148.21616695479315,59.115806454061385 148.09737187752035,58.62860514663953 147.8951674906566,58.3125" stroke="#4dd2ff" stroke-linecap="round" stroke-linejoin="round" stroke-width="0.5"><title>2021-06-10 13.2km</title></polyline><polyline fill="none" points="176.5098277805373,72.79900053702295 176.7786484467797,73.699555720028 177.96593972330447,73.57090516990866 178.03314488974866,74.23988733792794 178.8844103332376,74.13696711600642 179.39964994357433,74.83167782594683 179.69087233231403,74.2141572862165 179.0860258329194,73.80247611447703 179.6460688879015,73.85393629648024 179.95969299844,74.2141572862165 179.53406027681194,74.85740781668574 180.87816360848956,75.01178770809202 180.20611194276717,75.44919690428651 180.13890677620657,74.96032775446656 180.56453949783463,74.70302783398074 180.76615499763284,74.9860577325162 180.60934294224717,74.57437777871382 180.96777049731463,74.7802178367856 180.5869412200991,74.75448783847969 180.63174466439523,74.41999762854539 181.1917877192609,75.50065676140366 180.76615499763284,76.11817425652407 179.60126544337254,76.50412194884848 177.71952077909373,76.45266228952096 175.7033657814609,77.86779922308051 175.0313141157385,77.45612381573301 174.60568139399402,77.91925860324409 175.0985192822991,78.45958148312639 175.86017783696298,78.20228501321981 175.2329296155367,78.40812220933731 175.72576750372536,78.45958148312639 175.81537439255044,78.02217733333237 175.8377761146985,78.27947398077231 175.21052789327223,78.1765553522564 175.8377761146985,78.27947398077231 175.4345451153349,78.04790700945887 175.92738300352357,78.02217733333237 174.31445900548715,78.27947398077231 174.98651067132596,78.07363668314065 175.25533133756835,78.5625 175.25533133756835,78.27947398077231 174.69528828270268,78.35666292559472 175.18812617112417,78.15082568876096 175.81537439255044,78.33093327982351 175.344938226277,78.33093327982351 175.47934855963103,77.81633983267238 175.41214339307044,78.40812220933731 175.0313141157385,78.22801467156387 175.344938226277,77.99644765461562 175.27773305983283,78.48531111612101 174.96410894906148,77.79061013364117 175.41214339307044,77.76488043213612 175.21052789327223,78.25374432746321 174.7400917271152,78.12509602276259 174.94170722691342,77.12163706909632 173.95603145030327,75.80941569167771 173.82162111718208,74.3428075191623 172.6567315630382,72.64461933649727 172.54472295206506,72.15574493195163 172.97035567369312,71.56394837464904 172.49991950765252,70.17450770389405 173.01515911810566,68.83652080548927 172.94795395142864,67.34414270866546 174.31445900548715,58.3125 174.78489517164417,58.33823161997134 174.78489517164417,58.801400344935246 175.47934855963103,59.18737365416018 177.67471733456478,59.418957365705865 177.87633283436298,59.85639270421234 179.62366716563702,59.18737365416018 181.34859977464657,60.08797582186526 182.2222669402836,59.83066123406752 182.42388243996538,60.24236445268616 184.12641332682688,59.77919828603626 184.37283227103762,60.93711216081283 185.0000804924639,61.348813633288955" stroke="#4dd2ff" stroke-linecap="round" stroke-linejoin="round" stroke-width="0.5"><title>2021-06-08 2.7km</title></polyline><polyline fill="none" points="31.375,93.19668226796784 24.07442903763149,90.65442243113648 16.509584013023414,90.16114618835854 13.536500815767795,88.49159113501082 13.70167210442014,87.1255861564714 13.371329526766203,87.239420089958 11.125,100.67158775610733 11.587479608482681,101.99960145680234 12.677610114216805,102.94817986522685 12.182096247910522,104.1244138435286" stroke="#4dd2ff" stroke-linecap="round" stroke-linejoin="round" stroke-width="0.5"><title>2021-06-08 1.1km</title></polyline><polyline fill="none" points="53.30495978554245,96.56038394250209 46.70878016075585,94.03485795060988 43.26139410189353,94.68962588594877 40.9812332438305,94.50254947136273 40.57406166207511,94.87670218982385 37.07238605886232,93.75424270611256 33.625,94.25311407979461 36.6380697049899,93.62952473966288 40.46548257372342,94.87670218982385 46.08445040206425,95.1261370893626 50.34617962455377,96.65392155470909 53.847855227882974,97.62047526036622 53.875,97.30868406526861" stroke="#4dd2ff" stroke-linecap="round" stroke-linejoin="round" stroke-width="0.5"><title>2021-06-07 1.5km</title></polyline><polyline fill="none" points="69.44902625493705,104.4593676875811 69.2939219516702,100.0533882782911 68.05308752530254,99.2968016412342 64.6795689293649,94.84626641366049 62.27545222849585,95.33582743065199 66.26938803773373,90.88525325831142 69.44902625493705,85.5 63.20607804809697,94.66824409450055 64.52446462586522,94.62373850381118 65.49386652139947,95.42483846776304 69.25514587573707,99.96437815137324 69.2939219516702,104.37035842708428 70.22454777150415,105.75 69.37147410330363,105.26045024572522" stroke="#4dd2ff" stroke-linecap="round" stroke-linejoin="round" stroke-width="0.5"><title>2021-06-04 1.3km</title></polyline><polyline fill="none" points="90.80343188130064,98.54042250130442 91.02298120193882,98.88162428965734 91.6687144979951,98.88162428965734 91.50082384096459,98.51075274398318 91.84951982088387,98.34756897410261 91.46207984327339,98.4069085472729 91.53956783871399,97.8728515458206 91.13921319524525,97.69483212385967 91.12629852932878,97.91735636838712 91.53956783871399,98.3624038696289 91.55248250468867,98.95579848907073 91.01006653602235,98.91129397381155 90.60971189243719,98.4069085472729 90.68719988799421,98.65910147203249 90.20935724896844,98.74811063858215 89.61528261663625,97.69483212385967 88.94371998880524,96.9975873586518 86.65782412094995,95.38056046003476 86.39953080250416,94.00088156024867 86.67073878680822,92.60635453918076 87.93637604702963,90.51453975666664 89.12452531169401,89.55021817701345 90.33850390819134,88.12597806940903 90.39016257179901,86.9687730474252 89.92523459874792,86.06377316963335 89.52487995522097,85.79672298436344 89.09869597986108,86.2121341786551 88.98246398661286,85.84123138153518 89.16326930944342,85.82639525058039 88.9178906569723,85.78188684911584 89.08578131394461,85.81155911821406 88.9566346546635,86.10828148770088 89.02120798430406,85.87090363902098 88.77582933183294,86.04893706065195 88.96954932063818,85.91541201416112 88.80165866366588,85.87090363902098 88.85331732733175,86.04893706065195 88.37547468830599,86.40500327153131 88.9178906569723,86.10828148770088 88.7112560022506,86.24180636290112 88.7887439977494,85.94508425696404 88.6208533407771,86.31598679786839 88.6208533407771,86.04893706065195 89.09869597986108,85.75221457405132 89.33115996635752,86.0786092770868 89.22784263902577,86.18246198854467 89.58945328480331,86.2121341786551 89.17618397535989,86.40500327153131 88.64668267266825,85.69287000647455 89.22784263902577,85.78188684911584 89.24075730494224,85.5 88.38838935422245,86.41983934536984 89.12452531169401,86.40500327153131 89.12452531169401,86.2121341786551 88.59502400894416,86.2714785412827 89.33115996635752,85.75221457405132 88.67251200444298,86.18246198854467 88.93080532288877,86.16762589132122 89.03412265022052,86.04893706065195 88.76291466591647,85.91541201416112 88.84040266141528,86.18246198854467 89.24075730494224,85.97475649391708 89.12452531169401,86.19729808431293 89.13743997755228,86.01926483833813 88.9566346546635,86.10828148770088 89.03412265022052,85.9005758905405 89.29241596860811,85.88573976549378 89.20201330725104,86.24180636290112 89.40864796191454,85.95992037618998 89.08578131394461,86.3604950412846 89.2536719708587,86.10828148770088 89.0470373161952,85.54450848499255 89.42156262788922,85.72254229316604 88.84040266141528,86.2121341786551 89.08578131394461,86.31598679786839 89.24075730494224,86.12311759081786 89.13743997755228,86.3604950412846 89.36990396416513,85.79672298436344 89.22784263902577,86.25664245283406 89.3828186300816,86.4495114886231 89.16326930944342,86.22697027152753 87.29064275103156,88.1408139733976 89.60236795071978,85.98959261017444 91.26835985440994,87.3248370798101 92.0432398096309,88.48203936114442 91.2812745203264,101.65571444381203 86.55450679356,101.77439095608133 85.59882151545025,102.02657823365007 85.45676019031089,104.14790153469949 85.94751749531133,104.50392489074147 86.99360543483635,104.26657608036476 87.45853340794565,104.77094185471651 87.07109343033517,105.08246104681166 87.76848539011553,105.17146641176078 87.89763204922201,105.4236479930405 87.87180271744728,105.75 87.63933873083442,105.43848219052597 87.51019207161153,105.51265315609635" stroke="#4dd2ff" stroke-linecap="round" stroke-linejoin="round" stroke-width="0.5"><title>2021-06-02 5.9km</title></polyline><polyline fill="none" points="106.94956981495488,105.14275875395106 108.75920710316859,103.48451511067105 111.5651615500683,99.70087345856882 113.9847889355151,94.65592386377102 115.021772100823,90.80207049607998 115.00143909745384,85.5 115.4080991622759,85.87371811016055 115.61142919457052,89.93786446272861 114.18811896792613,95.28654844213452 112.62247771851253,98.9301242276124 110.10118531691842,102.66706678764604 106.88857080531307,105.75" stroke="#4dd2ff" stroke-linecap="round" stroke-linejoin="round" stroke-width="0.5"><title>2021-06-01 2.2km</title></polyline><polyline fill="none" points="143.875,97.00908591973712 143.46812210197095,97.47643683227943 134.767194744898,94.70827269062283 128.78921947441995,94.88802424713504 128.2884466770338,95.35537787928479 124.40745749603957,93.98926557801315 123.625,94.0252159673546 123.65629829990212,94.42067001573741 124.37615919637028,93.77356316769146 128.72662287484854,95.57107935348176 136.61379443586338,95.82273091215757" stroke="#4dd2ff" stroke-linecap="round" stroke-linejoin="round" stroke-width="0.5"><title>2021-05-31 1.1km</title></polyline><polyline fill="none" points="157.2128022937104,104.9965270559187 157.62250539730303,101.65297648045816 158.31900067371316,102.17099289552425 160.8591599164065,101.65297648045816 161.71953643416055,100.71112700912636 162.37506140000187,97.93266021279851 163.89096288359724,98.49777341730078 162.9896160555072,98.12103135554935 163.44028946966864,97.46173203032231 163.35834884876385,98.59195888612885 163.44028946966864,97.4146391863469 163.39931915909983,99.1570713078836 162.08826922718436,97.83847461355617 166.26724088494666,100.1460164320597 162.00632860674523,98.54486615397036 163.0305863658432,98.07393857705756 162.49797233124264,96.5198742672801 162.08826922718436,98.82742247672286 163.35834884876385,97.65010335922125 162.90767543460242,96.8966175960959 164.05484412494116,98.59195888612885 164.58745815977454,98.35649517914862 163.07155667617917,99.06288595087244 161.67856612382457,98.40358792993356 163.68611133191735,98.21521689888323 162.2931207793299,97.88556741559296 161.26886301999912,101.22914444896742 157.33571322471835,101.88843855715822 157.45862415595911,103.67794653447345 155.81981174112298,104.94943495737971 155.90175236179493,105.75 156.5163070175331,104.85525074606994 154.71361336112022,99.95764609059552 146.23275911505334,85.5" stroke="#4dd2ff" stroke-linecap="round" stroke-linejoin="round" stroke-width="0.5"><title>2021-05-30 1.4km</title></polyline><polyline fill="none" points="169.36033519543707,93.62714987873915 172.27339385461528,95.28390952030895 177.5904329607729,97.2655130486819 180.05097765359096,97.03811652798322 183.16201117320452,97.62285012123175 188.39420391060412,96.84320509957615 188.875,96.45338189680479 188.33763966476545,96.8756903456815 183.35998603352346,97.42793903881102 176.4308659217786,96.97314606473083 171.82087988825515,95.73870482679922 168.625,94.08194747296511" stroke="#4dd2ff" stroke-linecap="round" stroke-linejoin="round" stroke-width="0.5"><title>2021-05-27 1.4km</title></polyline><polyline fill="none" points="31.375,124.26876565456041 28.839347826084122,124.14741086564027 23.69760869559832,122.20572935871314 15.91456521768123,121.92256670427741 11.125,120.62810636562062 14.08326086960733,121.76075938538997 22.07760869548656,122.48889181768754 30.318478260654956,124.99689363440848 30.987608695635572,124.79463599185692" stroke="#4dd2ff" stroke-linecap="round" stroke-linejoin="round" stroke-width="0.5"><title>2021-05-25 1.1km</title></polyline><polyline fill="none" points="34.182571965036914,121.16774005061598 35.14565081358887,121.95373486418976 38.36436170199886,122.24484352322179 41.55772841058206,124.07882147320197 45.38469962449744,123.93326808389975 47.53895494365133,124.2825960975606 52.050219023716636,123.64216109015979 53.875,122.73972758473246 53.875,123.40927528828615 46.677252816036344,124.45725994935492 43.940081351669505,123.99148944829358 41.507040050113574,124.19526413292624 36.691645807237364,123.03083546858397 33.625,121.66262591799023" stroke="#4dd2ff" stroke-linecap="round" stroke-linejoin="round" stroke-width="0.5"><title>2021-05-24 1.6km</title></polyline><polyline fill="none" points="64.01308139541652,122.28848829655908 68.7223837209167,122.4237181301578 68.7223837209167,122.99844432808459 71.72456395346671,124.35073746327544 76.375,123.91124277951894 71.63626453489996,124.38454472325975 68.28088662785012,123.80982084941934 64.77834302315023,123.97885738292825 56.125,121.24045527674025" stroke="#4dd2ff" stroke-linecap="round" stroke-linejoin="round" stroke-width="0.5"><title>2021-05-21 1.1km</title></polyline><polyline fill="none" points="90.76440310524777,132.9375 91.48632791743148,132.24201648921007 91.2534489458194,131.5465311947628 91.62605530046858,128.3098261670675 93.02332913072314,127.82832955638878 93.3260717940284,127.1060830373026 95.00280039035715,127.50733134092297 98.44940917147323,127.02583330537891 98.33296968555078,125.47433381949668 97.16857482714113,122.95981580147054 94.839785110089,119.69625764663215 93.16305651376024,118.1179654316511 90.48494833917357,116.53966402987135 86.68902110040653,116.00464452069718 85.29174727026839,115.4428728997591 83.24241231940687,115.73713437016704 80.68074363050982,114.21232147264527 80.19169778993819,112.6875 79.05059082864318,113.08876963990042 79.12045452021994,113.9448095538246" stroke="#4dd2ff" stroke-linecap="round" stroke-linejoin="round" stroke-width="0.5"><title>2021-05-20 1.7km</title></polyline><polyline fill="none" points="101.22235576924868,121.07918973924825 101.125,119.01037100411486 105.45733173075132,118.22757275711047 121.03425480774604,118.56305785255972 121.375,126.16733342636144 120.45012019225396,126.83829402067931 112.56430288474075,126.16733342636144 111.59074519248679,126.83829402067931 105.60336538474075,127.39742724283133 102.14723557699472,126.89420736784814 101.36838942300528,126.22324683947954 101.36838942300528,120.408222328173" stroke="#4dd2ff" stroke-linecap="round" stroke-linejoin="round" stroke-width="0.5"><title>2021-05-18 1.1km</title></polyline><polyline fill="none" points="123.625,123.50147525823559 124.4127984084189,124.24183490793803 128.26226790447254,125.86650381448271 130.67937665781938,125.80480775810429 132.3086870026309,126.17498382250778 135.1196949601872,125.84593846439384 138.21717506635468,124.94106105224637 139.09449602116365,124.40635891750571 140.5089522546623,123.41921291266044 143.875,120.10812656108465 143.33786472154316,119.45001617747766 142.012931034551,120.47831273893826 134.2602785145864,121.32151213516772 133.13229442969896,121.01302494673291 127.02685676387046,120.82793241459876 126.7045755967265,121.34207793147652 126.7761936339084,121.13641987690062 126.4181034482317,121.28038053642376 126.04210875323042,122.0618795252376 125.487068965449,122.28810237007565 123.87566312996205,121.95905087822757 123.64290450920817,121.52717000718985" stroke="#4dd2ff" stroke-linecap="round" stroke-linejoin="round" stroke-width="0.5"><title>2021-05-10 2.5km</title></polyline><polyline fill="none" points="166.375,129.27914126160613 166.27417012443766,128.70005733837024 165.58516597514972,127.98585147317499 164.49284232367063,128.5263318272482 163.9382780083106,128.3526061619341 163.90466804982862,127.81212532802601 164.27437759336317,127.19443111865257 164.13993775937706,125.47645884678059 163.73661825724412,124.89736367107253 161.6023858921253,125.55367140742601 160.17396265559364,125.39924625573622 160.12354771787068,124.95527326574665 156.4264522821759,125.01318284333684 154.49387966800714,124.70433156497893 151.40176348551176,125.26412414804508 149.2003112033126,125.32203363419103 147.45259336102754,124.9359700694331 146.125,122.6388761112321 148.05757261416875,121.24902465680498 148.91462655604118,120.30314788289252 150.67914937762544,119.39587402809411 150.89761410781648,118.73954563849838 152.76296680496307,117.90948011066939 154.5610995850875,116.67402722290717 153.83848547720117,117.4847940604086 151.83869294606848,118.3534690868255 149.9565352696809,116.69333123425895 148.76338174275588,116.34585873837932" stroke="#4dd2ff" stroke-linecap="round" stroke-linejoin="round" stroke-width="0.5"><title>2021-05-08 2.6km</title></polyline><polyline fill="none" points="188.875,119.31020159527543 188.74243044189643,120.71874486052548 184.76534369878937,120.94715679759975 184.1687806873815,122.051145920821 178.03743862512056,120.64260751823895 174.85576923075132,120.90908815088915 173.69578559719957,121.55625463544857 169.18842062191106,120.56647016076022 168.625,121.48011745823896 173.33121931250207,123.15513188645127 180.15855155477766,123.84036296643899 188.74243044189643,126.31479840475367" stroke="#4dd2ff" stroke-linecap="round" stroke-linejoin="round" stroke-width="0.5"><title>2021-05-08 1.3km</title></polyline><polyline fill="none" points="31.375,149.66067221653066 30.86472148541361,149.93830885138595 27.856763925752603,148.82776083334466 27.373342175153084,149.25964108671178 24.311671087518334,148.08739329711534 22.324270557030104,149.01285244346946 18.000331564922817,149.29048965330003 15.234084880677983,148.39587998355273 12.440981432329863,148.8894580488559 11.474137930897996,148.73521498712944 11.125,148.24163667843095 15.610079575446434,148.4267286355025 18.24204244033899,149.59897515308694 22.539124668459408,149.4755809897033 31.213859416428022,151.91260670285556" stroke="#4dd2ff" stroke-linecap="round" stroke-linejoin="round" stroke-width="0.5"><title>2021-05-07 1.5km</title></polyline><polyline fill="none" points="33.718461538432166,153.8888734706561 33.625,153.35124658502173 35.12038461538032,152.84946076924098 35.74346153845545,151.34409913726267 43.56307692313567,146.68460668070475 46.05538461531978,147.4014555886679 46.64730769232847,148.18998774324427 47.363846153835766,146.43370922654867 47.08346153842285,146.1111265293439 47.08346153842285,147.32977076192037 46.92769230774138,146.93550396047067 46.335769230732694,148.29751472189673 47.11461538472213,147.4014555886679 46.366923076915555,148.18998774324427 46.771923076710664,146.86381904120208 46.491538461414166,148.2616723992105 47.17692307685502,147.65235237020534 48.45423076930456,147.86740661549265 50.3546153845964,147.18640106578823 52.09923076920677,147.25808592091198 53.875,148.29751472189673 52.72230769216549,147.50898280204274 51.32038461533375,147.32977076192037 48.049230769160204,148.11830307313357 46.429230769048445,147.07887375622522" stroke="#4dd2ff" stroke-linecap="round" stroke-linejoin="round" stroke-width="0.5"><title>2021-05-06 1.2km</title></polyline><polyline fill="none" points="61.177930056583136,151.8470882906695 62.05836483929306,149.95612241173512 68.3362476369366,145.29463736596517 70.97755198483355,142.4801322175772 74.46101134223863,140.63310355204158 75.80080340267159,141.90843368682545 76.375,154.88141211730544 75.64768430986442,151.01154621737078 65.12074669194408,156.77235709497472 62.36460302444175,154.13382700574584 57.19683364848606,156.94825854545343 56.125,158.75124440903892 57.235113421455026,159.36689644792932 60.52717391308397,156.288627748203 61.752126653911546,153.4741920423694 61.06309073721059,152.46274986839853" stroke="#4dd2ff" stroke-linecap="round" stroke-linejoin="round" stroke-width="0.5"><title>2021-05-06 1.8km</title></polyline><polyline fill="none" points="90.89131853787694,146.86788369805436 92.71540469978936,146.31784254781087 92.900456919102,145.737242468982 90.78557441267185,144.88161926544853 91.04993472597562,144.94273528904887 90.73270234989468,145.27887319718138 92.29242819850333,145.89003207164933 93.66710182779934,145.67612660629675 93.21768929506652,147.66238581301877 94.59236292436253,146.8984415103332 94.53949086170178,147.47903935669456 95.0946475196397,147.44848160311813 97.1566579635255,149.0985958703095 98.66351174935699,149.43472915273742 98.68994778068736,150.29033945591073 98.21409921674058,150.96260299356072 98.875,154.0183274859737 98.31984334206209,155.11838073455147 83.62140992179047,153.37662790727336 79.52382506523281,153.92665620110347 78.625,154.59891164427972 79.25946475204546,153.95721329923254" stroke="#4dd2ff" stroke-linecap="round" stroke-linejoin="round" stroke-width="0.5"><title>2021-05-02 1.6km</title></polyline><polyline fill="none" points="107.32816455699503,145.1685129723628 108.76360759488307,145.76134053152055 110.50664556981064,144.27927050675498 117.42753164563328,143.15289477608167 120.50348101276904,144.39783624687698 121.375,146.4727328097797 120.29841772187501,152.40096814802382 111.58322784816846,155.48362677992554 101.74018987338059,156.84710522391833 101.125,155.83931711519836 105.38006329117343,143.6271585059585" stroke="#4dd2ff" stroke-linecap="round" stroke-linejoin="round" stroke-width="0.5"><title>2021-05-01 1.0km</title></polyline><polyline fill="none" points="133.28468536376022,149.16858372607385 132.05794677650556,151.12510486977408 130.23898956133053,147.35879460824071 130.32359222252853,145.98921995479031 131.80413879314438,143.69028233698918 134.13071197550744,142.71200768946437 140.13750091870315,142.80983524330077 143.64851135760546,139.875 139.20687164599076,143.00549029174726 128.75844299071468,141.58698939380702 127.87011504848488,142.0272142564354 126.13576049450785,145.74465264350874 125.54354186612181,154.84247319688438 124.82441924628802,157.19027002339135 123.97839263430797,157.5326561066031 123.85148864262737,160.125 124.52830993197858,159.78261575536453 124.82441924628802,158.16851533119916 125.96655517187901,145.45117170648882 127.48940307321027,143.93485068905284 128.12392303184606,144.32615979464026" stroke="#4dd2ff" stroke-linecap="round" stroke-linejoin="round" stroke-width="0.5"><title>2021-05-01 1.8km</title></polyline><polyline fill="none" points="163.26363783085253,148.16047029191395 162.55769851518562,148.280604962114 161.40727888967376,149.10652825323632 160.00847320858156,149.04646125591535 159.76008715300122,149.34679600560048 159.7993060039007,149.0614780074975 158.8580535830115,149.37682944798144 156.63565203361213,149.0915115061216 155.32835700456053,149.24167891062098 154.9361684958567,149.0314445029071 153.51121691416483,149.30174583088956 150.29527114267694,149.37682944798144 147.09239832148887,149.04646125591535 146.125,149.8723803916364 146.19036475144094,150.15769686985004 149.9553744351142,150.8935105825367 150.36063589417608,150.77337797441578 151.10579406074248,151.16380860414938 153.09288250486134,151.19384168802935 154.334812782472,151.67437022434024 154.87080374435754,151.50918871109025 156.28268237574957,151.8395515584125 156.63565203361213,152.10984790022485 157.5115397030604,152.2149630146596 157.7468528082827,152.03476563120785 158.38742737250868,152.33509448515542 159.1848773402162,152.19994657421194 160.51831826986745,152.59037354509928 160.6359748225077,152.2299794536666 160.92357972887112,152.19994657421194 161.45957069075666,152.4852586899069 161.64259199483786,152.0497820879682 162.42696901230374,151.62932073853153 163.36822143319296,150.68327845611202 164.4140574564226,150.2778299638303 164.96312136866618,149.61709677365434 165.87822788901394,149.3317792822054 166.375,148.64100840390893 166.11354099423625,147.84511633147486 165.70827953523258,147.40962645490072 164.8846836669254,147.93521752970992 163.62968043901492,147.8601332015678 163.55124273727415,148.34067226169282 161.78639444801956,149.2116454415809 162.15243705618195,149.55702997779008 162.40082311170409,149.39184616692364 163.2505648805527,150.0375636810786 163.95650419633603,149.93244706311089 164.00879599741893,149.75224697770318" stroke="#4dd2ff" stroke-linecap="round" stroke-linejoin="round" stroke-width="0.5"><title>2021-04-30 3.7km</title></polyline><polyline fill="none" points="188.7150473933434,148.67717533686664 187.43542654020712,150.51444085378898 186.73163507098798,150.6246764967509 179.75770142185502,148.71392073607421 173.55154028430115,148.67717533686664 174.3832938389387,149.3753373006184 168.625,147.64830268966034 173.23163507098798,149.26510128797963 180.58945497625973,149.963262150035 188.17120853066444,152.35169731031056 188.875,152.2047171271115 187.91528436017688,151.8740115032415" stroke="#4dd2ff" stroke-linecap="round" stroke-linejoin="round" stroke-width="0.5"><title>2021-04-29 1.4km</title></polyline><polyline fill="none" points="18.906785714323632,176.6891620536917 20.55571428569965,175.3931038969895 19.97714285715483,174.3629002655507 20.98964285699185,174.03057584125781 27.903571428381838,167.41725159619818 28.713571428437717,167.31755224702647 31.375,170.37498552846955 27.990357142640278,172.56834447808797 28.366428571287543,172.60157707944745 26.254642856889404,174.89461866239435 27.151428571203724,174.5622947627853 27.35392857133411,173.79794854906504 26.34142857126426,174.6287595689064 21.51035714277532,180.4776111439569 18.241428571403958,182.40505134215346 16.013928571366705,184.36571195026045 15.8692857142305,185.62850426495424 14.046785714221187,187.05744775300263 12.542499999981374,186.29312989721075 11.125,184.26601761856 11.240714285639115,182.30535643006442 13.236785714281723,181.37486916032503 13.959999999962747,180.24498830508674 15.95607142848894,179.38095921109198 16.332142857136205,178.51692790031666 17.315714285708964,177.95198315236485 17.604999999981374,176.95501952065388 18.357142857159488,176.39007215254242 19.196071428479627,176.58946544953506 19.369642856996506,175.95805293749436" stroke="#4dd2ff" stroke-linecap="round" stroke-linejoin="round" stroke-width="0.5"><title>2021-04-26 2.2km</title></polyline><polyline fill="none" points="45.57223676389549,183.7346085044992 46.12442972289864,182.9733485704637 46.76497355487663,174.97998315581935 48.92956995347049,167.0625 46.94167530175764,174.85310233573546 45.37344729877077,175.58901022053033 43.0984123084927,175.43675358961627 40.735026444890536,175.7920189214201 39.49811421718914,176.55330012195918 38.63669320137706,177.77134535335063 38.570430046413094,185.23174646544794 39.56437737226952,187.05875047057634 40.22700892272405,187.3125 40.66876328981016,187.08412543477607 43.05423687188886,185.0794955456513 43.87148245086428,185.63774847757304 44.66664031147957,185.05412038354552 44.82125434000045,184.39436529063096" stroke="#4dd2ff" stroke-linecap="round" stroke-linejoin="round" stroke-width="0.5"><title>2021-04-25 2.2km</title></polyline><polyline fill="none" points="67.03246659971774,187.3125 66.43532103684265,182.86521672131494 66.76478065783158,180.33401332359063 66.43532103684265,175.62637702886423 66.74418943142518,167.41736286129162 66.49709471582901,167.0625 65.98231405811384,167.41736286129162 65.46753340039868,175.7919738446799 65.67344566353131,184.02435701653303 66.49709471582901,184.26091557172185 66.55886839458253,184.04801288257295 66.66182452626526,180.00282585452078 66.39413858426269,183.14908833237132" stroke="#4dd2ff" stroke-linecap="round" stroke-linejoin="round" stroke-width="0.5"><title>2021-04-18 2.2km</title></polyline><polyline fill="none" points="98.875,180.06997282919474 95.24856733519118,179.70341851917328 84.28223495709244,176.4044118336169 79.43732091691345,175.9378830359492 78.625,175.4047064782353 84.39828080229927,175.3380593494512 85.67478510038927,174.30502717083436 88.16977077361662,175.43803003779612" stroke="#4dd2ff" stroke-linecap="round" stroke-linejoin="round" stroke-width="0.5"><title>2021-04-16 1.0km</title></polyline><polyline fill="none" points="121.375,178.81158408797637 120.78190376562998,178.96973148846882 120.53831066942075,178.4709582288924 120.11467050208012,178.3006449465829 119.57452928868588,178.43446254530863 119.38389121333603,178.27631445843872 119.11911610880634,177.9113565609805 119.58512029284611,177.08411466186226 119.42625523009337,176.47584501966048 119.1085251045879,176.3420252958167 116.64082112972392,176.51234128282522 114.53321129706455,176.3298598591573 113.50588389119366,176.5731683640406 113.07165271969279,176.40285246100393 112.37264644354582,176.47584501966048 112.20319037663285,176.3298598591573 110.82635983260116,176.48801044189895 110.33917364018271,176.31769442129007 109.7778504184098,176.47584501966048 109.21652719663689,176.24470176902832 108.03033472807147,176.46367959622876 107.05596234311815,176.07438541243755 106.25104602513602,176.17170907359105 105.79563284519827,175.6120969732001 104.96953451883746,175.66075899574935 104.21757322177291,175.42961421751534 103.91043410042766,175.575600443648 103.48679393308703,175.161972354108 102.8619246861781,175.38095210372558 101.9510983263608,175.07681345757737 101.42154811718501,175.35662103966752 101.79223326366628,175.08897901781893 101.87696129706455,175.5026073521658 101.125,175.46611079024296 101.76046025106916,175.23496564719244 101.45332112972392,175.30795889707224 101.78164225944784,175.28362781858596 101.51686715480173,175.3931176339829 101.68632322177291,175.575600443648 101.5062761506415,175.42961421751534 101.76046025106916,175.34445550577948 101.68632322177291,175.21063455429248 101.47450313810259,175.28362781858596 101.54864016739884,175.46611079024296 101.87696129706455,175.33228997074184 101.71809623431182,175.27146227751655 101.69691422599135,175.4417797429487 101.78164225944784,175.22280010136456 101.66514121345244,175.4417797429487 101.73927824269049,175.27146227751655 101.79223326366628,175.40528316302516 101.63336820085533,174.96732336135756 101.72868723853026,175.28362781858596 101.67573221755447,175.07681345757737 101.69691422599135,175.28362781858596 101.48509414226282,175.12547569137678 101.55923117161728,175.0159856383325 101.63336820085533,175.12547569137678 101.47450313810259,175.18630345661222 101.68632322177291,175.29579335841117 101.51686715480173,175.19846900605626 101.71809623431182,175.0159856383325 101.56982217577752,175.27146227751655 101.40036610880634,175.27146227751655 101.56982217577752,174.95515778909612 101.41095711296657,175.06464789614984 101.66514121345244,175.28362781858596 101.48509414226282,175.17413790593855 101.51686715480173,175.28362781858596 101.56982217577752,175.18630345661222 101.62277719663689,175.6972555001048 101.51686715480173,176.8408071649974 102.54419456067262,177.05978393377882 102.62892259418732,177.25442962408124 103.55033995822305,177.1692721723739 104.07989016739884,177.36391768988688 108.3057008368778,177.5463975835737 112.47855648538098,178.0816703808523 114.48025627614697,178.154661945955 115.3699006276438,178.34930590835575 116.3972280335147,178.87241003527015 118.00706066942075,178.68993210341432 118.17651673639193,178.98189666475082 118.39892782428069,178.88457522112003 119.91344142262824,179.20086963220092 120.17821652721614,179.41984221090388 120.65481171553256,179.31035597014125 120.80308577406686,178.8602448481979 121.2267259414657,178.68993210341432" stroke="#4dd2ff" stroke-linecap="round" stroke-linejoin="round" stroke-width="0.5"><title>2021-04-09 4.9km</title></polyline><polyline fill="none" points="143.46622670814395,178.2710335062584 137.1145186336944,176.42903517826926 136.39130434789695,175.74279813820613 131.9262422361644,176.1039756881073 128.68750000011642,175.77891590929357 129.28493788826745,176.14009342354257 129.00194099382497,176.28456432942767 123.625,175.05655981213204 128.09006211173255,176.39291747141397 134.50465838517994,176.93468270081212 143.40333850937895,179.31844018786796 142.20846273307689,178.8489134251722 143.875,178.63220856248518 143.43478260876145,178.09044584451476" stroke="#4dd2ff" stroke-linecap="round" stroke-linejoin="round" stroke-width="0.5"><title>2021-04-09 1.4km</title></polyline><polyline fill="none" points="146.9303977272939,176.06417808833066 147.90838068188168,176.8901593091141 154.984375,179.5993634184997 158.1196732954122,179.46720762879704 160.8522727272939,180.02886937494623 165.9147727274103,179.46720762879704 166.375,178.90554494102253 164.3327414772939,178.3769203746051 161.88778409094084,178.87250593004865 159.35653409094084,177.91437319471152 157.25674715917557,178.0795686894562 153.6899857954122,176.26241376702092 153.2297585227061,175.40339164520265 151.1875,174.61044619287713 149.6342329545878,174.34613062505377 146.125,175.20515545806848" stroke="#4dd2ff" stroke-linecap="round" stroke-linejoin="round" stroke-width="0.5"><title>2021-04-08 1.4km</title></polyline><polyline fill="none" points="188.74350649362896,178.03331309460918 188.875,178.72808308023377 187.16558441566303,178.75829043524573 182.64220779226162,177.2177115350787 175.8045454545645,176.88542879544548 172.2016233765753,175.61670956478338 168.625,176.16044702150975 172.01753246749286,175.76774784404552 175.62045454548206,176.85522125582793 182.32662337680813,177.15729651832953" stroke="#4dd2ff" stroke-linecap="round" stroke-linejoin="round" stroke-width="0.5"><title>2021-04-06 1.3km</title></polyline><polyline fill="none" points="17.30913173640147,201.3343281589041 19.8555389221292,200.5390616937657 20.906437125755474,201.38110849630903 20.906437125755474,202.26993400458014 20.219311377266422,202.6441758099536 21.43188622733578,203.9540197312599 22.684880239423364,204.09435993025545 24.30164670641534,203.3458783744718 26.120508981868625,201.05364603403723 27.73727544909343,201.661790421349 29.07110778428614,200.8665245223383 31.334580838214606,201.14720676129218 31.334580838214606,198.29359601755277 31.092065868200734,200.02447677779128 29.758233532775193,199.79057435298455 31.375,200.07125724857906 31.294161676662043,201.28754781660973 27.818113772198558,201.6150101122912 26.120508981868625,201.00686566333752 23.372005987912416,204.46860025144997 24.018712574848905,203.90723965549842 20.98727544909343,203.8604595749639 20.380988023709506,202.83129659856786 21.270209580892697,202.83129659856786 21.18937125755474,202.36349448442343 20.138473053695634,200.49228127056267 19.693862275220454,201.14720676129218 18.804640718502924,201.05364603403723 17.67290419130586,203.48621875897516 13.913922155508772,205.45097964580054 12.701347305206582,207.69641038341797 12.539670658530667,205.965558491298 12.216317365178838,208.16420707423822 11.933383233379573,207.13505372661166 12.216317365178838,207.83674944069935 11.973802394932136,207.22861321701203 13.630988023942336,208.0706477741478 14.964820359135047,210.08216853271006 16.702844311250374,209.94183016064926 17.187874251278117,208.9594603566802 16.136976047651842,208.49166447474272 17.066616766387597,208.49166447474272 16.622005987912416,209.05301947612315 16.2178143709898,208.67878288467182 16.702844311250374,209.2401376576454 16.824101796140894,208.77234206104185 17.026197604602203,209.84827122205752 16.33907185611315,210.45640398244723 14.11601796397008,210.2692862956901 12.054640718270093,207.83674944069935 12.418413173407316,205.73165908746887 12.660928143421188,207.41573214056552 11.125,208.304545988678 11.56961077847518,207.55607128347037 11.286676646443084,208.49166447474272 12.418413173407316,207.69641038341797 12.580089820316061,205.63809929261333" stroke="#4dd2ff" stroke-linecap="round" stroke-linejoin="round" stroke-width="0.5"><title>2021-04-05 1.9km</title></polyline><polyline fill="none" points="49.550346013740636,209.70255815553537 48.756251023791265,210.10234945676348 49.06698384595802,209.62259979749797 49.61939775204519,209.62259979749797 49.74023829388898,209.28277641229215 49.118772649613675,212.98082277536741 47.789526688167825,213.94030449635466 47.720474949805066,214.5 47.66868614620762,213.94030449635466 49.17056145332754,213.04079052039015 49.67118655575905,211.08183470158838 50.01644524704898,207.96345651445154 49.15329851873685,207.34377289381518 47.28890158573631,207.00394556108222 46.184073773620185,207.86350767580734 43.87084054201841,208.52316906992928 39.65868450811831,211.06184525565186 38.89911538729211,209.84248520362598 38.018705724563915,210.2222866882512 37.604395294969436,210.0623703632882 35.18758445588173,199.68752020740067 35.049480979389045,197.78840344163473 36.27514933346538,203.34576699577156 36.65493389387848,203.50568879621278 41.091508077050094,201.48666649818188 44.5095691208262,200.38719017029507 46.65017300687032,199.18775442014157 49.65392362111015,196.76887001353316 51.43200588133186,194.25 52.450519020610955,194.7697694770759 52.32967847865075,194.92969826981425 51.91536804911448,194.78976058329863 52.15704913297668,194.58984942937968 52.15704913297668,194.90970717786695 52.260626740404405,194.36994692469307 51.673686965194065,194.54986717406427" stroke="#4dd2ff" stroke-linecap="round" stroke-linejoin="round" stroke-width="0.5"><title>2021-04-05 3.7km</title></polyline><polyline fill="none" points="61.23481308412738,197.03279737499543 64.45210280362517,199.5898049993557 67.10163551429287,206.9685472783167 67.16471962607466,210.69441797811305 68.61565420543775,210.40219352539862 70.06658878503367,211.71720262500457 73.34696261677891,209.30635076598264 76.375,210.10996895330027 70.19275700906292,208.64884430577513 70.19275700906292,211.05969837674638 70.50817757030018,207.6991116873105 70.38200934557244,211.20581048412714 70.57126168208197,210.036912791722 68.047897196142,210.5483057667152 69.7511682244949,209.45246323070023 70.63434579432942,211.05969837674638 69.05724299047142,210.036912791722 70.19275700906292,209.74468807072844 69.9404205607716,211.13275443407474 70.63434579432942,211.13275443407474 69.81425233650953,209.67163187172264 71.26518691563979,211.49803460936528 69.81425233650953,210.18302510736976 69.9404205607716,209.01412574702408 71.01285046734847,210.69441797811305 70.00350467301905,209.08718201285228 68.30023364489898,209.01412574702408 67.54322429909371,210.91358623967972 67.7324766353704,209.96385662275134 64.51518691587262,207.55299886519788 65.77686915895902,202.87737282452872 64.51518691587262,203.38877090858296 64.5782710283529,201.48929047142155 60.85630841110833,199.44369052385446 56.125,199.88203386135865 58.77453271043487,200.83177683933172 59.657710280502215,203.31571406160947" stroke="#4dd2ff" stroke-linecap="round" stroke-linejoin="round" stroke-width="0.5"><title>2021-04-04 1.4km</title></polyline><polyline fill="none" points="91.12569832382724,195.31029605760705 84.84706703899428,198.16945083171595 78.79469273751602,205.18732355046086 84.50768156419508,211.49034918023972 87.84497206704691,207.7215369839687 91.74790502805263,206.09704231552314 91.86103351972997,203.95270321628777 95.4811452513095,201.2885146077606 90.16410614503548,194.53052441892214 85.69553072634153,197.5196440187283 78.625,205.5772031751112 84.39455307251774,210.77557611098746 87.78840782120824,206.81182046339381 93.33170391060412,205.9021026858245 94.97206703922711,204.6674836918828 95.82053072634153,201.4184752777801 95.59427374298684,200.83365206042072 94.91550279338844,202.13325850421097 92.93575418996625,203.1079616539646 92.87918994412757,202.52313993725693 98.875,198.5593346118112 96.66899441345595,197.3896825792035 94.34986033500172,194.53052441892214 93.04888268141076,196.67489420302445 89.0893854747992,194.98539132031146 81.28351955278777,202.00329797528684 78.85125698288903,205.44724332587793 84.50768156419508,210.77557611098746 87.84497206704691,207.26667888072552 88.35405027936213,207.65655727422563 86.93994413386099,209.605945778545 94.68924581003375,211.2304317903472 97.17807262577116,214.21947558113607 91.91759776510298,204.60250368062407 92.4832402234897,202.84804095502477 95.25488826842047,200.5087500489317 92.20041899429634,198.6243152192328 90.5034916200675,195.37527698581107 89.31564245815389,194.9204103536904 88.29748603329062,195.63520063448232 88.8065642460715,196.090066772711" stroke="#4dd2ff" stroke-linecap="round" stroke-linejoin="round" stroke-width="0.5"><title>2021-04-02 3.1km</title></polyline><polyline fill="none" points="113.54787234042305,212.20074792089872 111.17819148930721,211.37592931518157 106.70811170211527,211.29344727563148 101.86103723407723,210.65421036571206 101.44813829788473,210.26241903548362 101.125,208.30345137036056 101.59175531915389,207.9322764810786 102.56117021269165,207.8910347859637 101.68151595746167,205.1484438040061 101.89694148930721,201.43660923172138 103.2433510638075,199.5188022110815 103.78191489365418,198.21963261922065 106.34906914888415,196.4461499822064 107.39029255323112,197.58035572872905 108.35970744676888,197.78657429409213 108.86236702126916,198.38460698320705 110.98071808507666,198.38460698320705 114.24800531915389,198.90015103154292 115.8277925531147,199.7250188640901 118.44880319142248,202.0552529043198 120.92619680834468,206.34446534818562 120.99800531903747,206.90123166389822 120.42353723396081,207.39613381076197 120.19015957438387,208.1797264804627 120.69281914888415,208.15910565835657 121.375,209.9118682754779 120.92619680834468,210.83979547643685 119.36436170211527,211.12848309891706 118.98736702115275,211.60275475618255 118.10771276580635,211.1697241552465 117.73071808507666,211.33468829948106 116.79720744676888,211.04600096173817 116.34840425522998,212.3038500177936 116.20478723396081,212.15950706791773" stroke="#4dd2ff" stroke-linecap="round" stroke-linejoin="round" stroke-width="0.5"><title>2021-04-02 3.2km</title></polyline><polyline fill="none" points="125.74668435018975,202.66292719938792 132.59515915124211,205.71689795321436 136.30139257304836,205.68604991279426 138.5573607427068,206.2104661850608 141.59217506635468,205.47011354524875 143.875,205.50096160676912 138.7185013263952,206.17961819347693 136.46253315662034,205.65520186946378 132.81001326267142,205.8402900842193 128.0832228118088,204.48297396599082 123.625,202.5395338149392" stroke="#4dd2ff" stroke-linecap="round" stroke-linejoin="round" stroke-width="0.5"><title>2021-04-01 1.4km</title></polyline><polyline fill="none" points="146.125,201.82444531813962 148.41182487737387,204.14660047745565 151.09635842882562,204.71762009788654 154.2448854338145,206.35453832778148 158.55339607212227,206.2784027501184 160.9396481178701,206.92555468186038 166.375,206.2784027501184 162.56362520472612,206.84941921680002 157.956833060598,206.16419935543672 153.84717675950378,206.35453832778148 147.68269230774604,204.67955214940594 147.0529869068414,204.33694044474396 147.78211947646923,204.03239645194844" stroke="#4dd2ff" stroke-linecap="round" stroke-linejoin="round" stroke-width="0.5"><title>2021-03-29 1.2km</title></polyline><polyline fill="none" points="178.38072600075975,214.5 177.43702578009106,209.17857130043558 176.78053867002018,208.99020105946693 173.5801640090067,204.37510701606516 171.44658090150915,204.18673488602508 178.09351288992912,194.25 180.3091568860691,195.61572459767922 184.65838398970664,200.04252928277128 184.2070491015911,203.19777998817153 186.05341909849085,214.02907949057408 180.18606555322185,210.12042139365803 178.05248244549148,209.69658908084966 177.84733022376895,210.59134574586642" stroke="#4dd2ff" stroke-linecap="round" stroke-linejoin="round" stroke-width="0.5"><title>2021-03-28 1.4km</title></polyline><polyline fill="none" points="21.000769230769947,227.8945694414433 22.15346153837163,228.5744868068141 22.433846153784543,228.00192489963956 23.555384615436196,227.93035459765815 23.80461538466625,227.35779167385772 24.147307692212053,227.75142878107727 24.676923076971434,227.35779167385772 26.328076923033223,228.288205966237 27.29384615388699,227.57250287622446 30.12884615373332,228.43134641469806 29.941923076985404,227.7156436071091 31.281538461567834,227.8587842817069 30.284615384531207,227.5009324895509 30.533846153877676,226.92836888798047 30.59615384612698,227.7156436071091 30.44038461544551,227.35779167385772 30.09769230778329,227.82299911830341 30.15999999991618,227.25043602497317 30.59615384612698,227.8587842817069 30.12884615373332,227.7156436071091 31.06346153852064,227.6082880642207 31.06346153852064,227.96613975035143 30.658461538376287,227.46514729087357 30.00423076923471,227.82299911830341 31.31269230763428,227.6082880642207 30.90769230760634,227.2862212448381 30.783076922991313,228.35977619758341 30.222307692281902,227.8945694414433 30.15999999991618,228.288205966237 30.9388461537892,227.78721395149478 30.59615384612698,227.82299911830341 31.375,228.78919728906476 31.281538461567834,227.75142878107727 30.81423076929059,227.82299911830341 31.06346153852064,228.32399108362733 30.378076923196204,228.53870171416202 30.284615384531207,228.1450654611981 29.910769230802543,228.68184206381557 28.60230769228656,228.50291661793017 28.60230769228656,227.78721395149478 28.913846153765917,233.94221074145753 25.393461538478732,234.72947024044697 22.527307692333125,233.79907246728544 22.745384615380317,234.26427165218047 21.873076923075132,233.79907246728544 16.826153846108355,233.54858035143116 14.302692307741381,234.30005618010182 14.084615384577774,235.5882968364749 13.492692307685502,236.05349372708588 11.467692307662219,236.19663111201953 11.125,235.62408123380737" stroke="#4dd2ff" stroke-linecap="round" stroke-linejoin="round" stroke-width="0.5"><title>2021-03-26 1.5km</title></polyline><polyline fill="none" points="35.76524390268605,230.27931119620916 42.1859756099293,232.89972104059416 44.44381533109117,232.73763456111192 46.41942508716602,233.16986495998572 49.26524390256964,232.60256242161267 50.39416376315057,232.73763456111192 53.875,231.49496836503386 50.79398954717908,232.73763456111192 46.81925087119453,233.06180742420838 44.726045296294615,232.62957685484434 42.397648083860986,232.81867781287292 37.388066202169284,231.60302651891834 33.625,229.95513504001428" stroke="#4dd2ff" stroke-linecap="round" stroke-linejoin="round" stroke-width="0.5"><title>2021-03-26 1.6km</title></polyline><polyline fill="none" points="76.375,233.3593092187075 74.827886247891,233.16185849372414 72.5244057723321,231.70072010162403 70.56472835293971,231.74021039862419 67.74554329365492,230.63448061255622 60.869482173002325,230.83193258405663 61.900891341036186,231.34530725411605 61.48832767398562,231.46377823827788 56.125,229.7656907813216 60.45691850571893,231.42428791406564 66.6109932087129,231.81919098080834 71.87117996602319,233.08287817638484" stroke="#4dd2ff" stroke-linecap="round" stroke-linejoin="round" stroke-width="0.5"><title>2021-03-24 1.1km</title></polyline><polyline fill="none" points="98.875,233.04783945073723 97.41677989123855,232.95303097504075 95.98607336950954,231.87853295725654 93.70244565210305,231.49929750239244 91.8315217391355,230.64601608802332 86.10869565221947,230.772428292752 86.6039402175229,231.30967960663838 82.11922554357443,230.07716054923367 78.625,230.51960383335245 80.00067934778053,230.70922219660133 82.22927989123855,230.10876366126467 86.35631793481298,231.3728855844529 93.86752717394847,231.68891528592212" stroke="#4dd2ff" stroke-linecap="round" stroke-linejoin="round" stroke-width="0.5"><title>2021-03-23 1.3km</title></polyline><polyline fill="none" points="120.97107712749857,232.567746222805 114.1582446807297,230.18609483138425 111.38464095734525,230.65005431309692 108.63796542549971,230.34074806817807 109.39195478707552,230.8356379136967 109.0957446807297,230.92842967281467 104.76030585088301,229.62934254703578 101.125,230.15516417476465 104.49102393607609,229.6912039607996 108.55718085099943,230.86656850305735 113.94281914888415,231.23773533813073 121.375,233.49565745299333 120.16323138284497,232.9079806592781 121.375,232.567746222805" stroke="#4dd2ff" stroke-linecap="round" stroke-linejoin="round" stroke-width="0.5"><title>2021-03-22 1.6km</title></polyline><polyline fill="none" points="140.86926166788908,221.56272214881028 141.1481446059188,221.75828405687935 140.99320964037906,222.38052508610417 142.4031178270816,222.5938643751142 142.77496174437692,222.8960946041625 142.65101377194514,223.4472190168599 143.20877964794636,223.82056040759198 143.875,224.97613602233469 143.4721690894221,226.04281465771783 142.88341622037115,226.29170543488 142.66650726855733,226.9317087191448 139.80021040549036,229.42058887079475 136.63953710783971,230.64723864311236 135.64795332815265,231.28722652926808 134.8887719969498,231.92721215290658 132.6732019892661,234.98489001815324 123.625,241.56227785118972" stroke="#4dd2ff" stroke-linecap="round" stroke-linejoin="round" stroke-width="0.5"><title>2021-03-21 1.3km</title></polyline><polyline fill="none" points="155.30448179366067,229.8032366066327 155.04744771809783,228.15961639906163 153.28492834314238,225.9681031818327 152.56890484690666,225.75737957625824 150.1454407061683,227.96996710247186 147.74033614236396,231.0254075647099 147.13447010715026,231.19398232233652 146.47352534148376,232.9850809345662 147.59345952770673,234.58652113792778 150.25559816719033,235.85080758389086 153.13805172848515,238.18971785080794 152.97281553701032,238.3161447058228 153.3583666504128,238.2740024290979 153.00953469076194,238.08436208139756 153.4501645345008,238.82185138005298 154.42322210618295,239.98075800892548 158.1134970476851,241.6875 160.02289303729776,241.49786267198215 164.52098935900722,238.35828697423858 165.12685539433733,237.09401531754702 166.02647465863265,233.0482959062938 165.12685539433733,231.48898782924516 161.76705283566844,228.3914097558445 158.1318566245027,223.81871268281247 155.43299883138388,221.4375 152.40366865554824,225.65201769571286 152.95445596030913,225.7152348302625 153.70719860994723,226.41062207939103 155.17596475582104,228.2860491702013 155.15760517911986,228.87606778275222" stroke="#4dd2ff" stroke-linecap="round" stroke-linejoin="round" stroke-width="0.5"><title>2021-03-20 3.7km</title></polyline><polyline fill="none" points="186.87992610840593,236.6613907517749 179.96366995060816,234.44616516880342 172.64839901484083,234.2170031782298 168.7247536946088,233.376741386106 168.625,232.00176361144986 169.19027093600016,231.3906608109828 168.65825123165268,230.35942264838377 168.79125615756493,228.56429781380575 170.8860837437678,226.463609248196 174.3442118227249,226.88374787310022 177.8688423645217,228.0677724540874 184.5190886699129,227.91499529234716 188.07697044336237,227.34208039849182 188.50923645310104,226.84555347144487 187.87746305414476,228.2969380838913 187.47844827582594,233.22396631899755 187.81096059118863,235.74474721995648 188.875,235.93571480136598" stroke="#4dd2ff" stroke-linecap="round" stroke-linejoin="round" stroke-width="0.5"><title>2021-03-19 1.6km</title></polyline><polyline fill="none" points="19.33149651979329,258.54313761446974 23.73230858478928,260.43196257628733 25.4393851509667,260.3240302482154 26.927204176376108,260.64782704078243 28.49332946643699,260.30604152071464 29.32337587006623,260.37799642025493 31.375,259.7663788692589 27.56931554537732,260.62983834512124 25.61165893281577,260.3240302482154 23.419083526765462,260.4139738593949 14.664443155517802,257.6257012895512 11.125,257.2479320496641 11.892401392164174,257.35586619800597 11.375580046442337,257.1399978374102 11.532192575454246,257.0500526117539 12.722447795851622,257.12200879585 14.304234338807873,256.852172959203 14.83671693742508,257.2479320496641 15.14994199539069,257.0500526117539 15.52581206499599,257.4098332482681 15.854698375915177,257.3018991318677 16.277552204264794,257.66167927159404 16.810034802882,257.46380028252315 17.906322505848948,258.25531495049654 18.125580046442337,257.9854807905358 17.56177494203439,257.1399978374102 17.342517401441,257.1579868772387 17.42082366591785,257.7696131750854 18.438805104407948,258.2733038803126 18.86165893281577,257.2659210788552 19.09657772630453,257.7516241956182 19.40980278427014,257.6976572464773 19.08091647340916,257.7876021528209 19.26885150821181,257.733635214332 18.814675174071454,257.10401975251443 19.4881090488052,257.0500526117539" stroke="#4dd2ff" stroke-linecap="round" stroke-linejoin="round" stroke-width="0.5"><title>2021-03-19 3.1km</title></polyline><polyline fill="none" points="42.14639471616829,268.875 42.03266384493327,268.52228456338344 41.816575189703144,268.4830939013482 41.4981287503615,268.783555347356 41.88481371238595,266.5758009995043 41.73696357983863,267.1114134236559 41.80520210257964,268.0911866430106 41.58911344729131,268.2610132639966 40.36082003841875,268.23488610571076 40.212969905813225,267.45106896047946 40.31532768992474,266.75869329033594 43.29507651523454,266.0924415865593 45.2967398482142,265.9618036046304 45.228501325589605,253.32850192676415 45.899513465643395,252.46620574944245 47.287030094186775,251.23807725591178 47.03682217752794,250.6109434182872 45.34223219676642,248.625" stroke="#4dd2ff" stroke-linecap="round" stroke-linejoin="round" stroke-width="0.5"><title>2021-03-18 2.7km</title></polyline><polyline fill="none" points="62.99280858581187,267.2040081245068 63.559741738426965,267.3023023847127 63.645316553884186,267.7814857925405 63.85925359255634,267.9043530360941 65.01451360154897,268.1378004650105 66.51207287242869,268.0026467436546 67.5496675100876,268.2975274011187 68.51238418422872,268.875 68.75841177871916,268.10094037371164 68.6193527035648,264.8203485683698 69.50719141418813,264.7343393812698 68.23426603392,264.37801497340115 67.00412806140957,264.31657962765166 66.45858861273155,263.72679876673647 65.37820656731492,252.5572964463572 66.5548602801282,251.18100681563374 67.38921473105438,250.70175953426224 66.79019102273742,249.63266279814707 65.76329323695973,248.625" stroke="#4dd2ff" stroke-linecap="round" stroke-linejoin="round" stroke-width="0.5"><title>2021-03-17 2.8km</title></polyline><polyline fill="none" points="79.30718085099943,257.65717449979275 79.55851063830778,257.65717449979275 80.8151595746167,258.1932880077802 81.17420212761499,258.6469219776918 84.90824468084611,259.67790644278284 88.85771276592277,260.21401736012194 90.18617021269165,260.1315388023213 91.11968085099943,260.3377351666277 91.58643617015332,260.50269218478934 93.45345744676888,260.7913668101537 94.99734042561613,261.40995462221326 95.5,261.5336720747873 96.36170212784782,261.9873024211265 97.07978723407723,262.44093227526173 97.36702127661556,262.52341037773294 97.6901595746167,262.68836653383914 98.4800531915389,262.8945616374549 98.875,262.8533226248983 98.83909574477002,262.8533226248983 98.83909574477002,262.8533226248983 98.73138297884725,262.8945616374549 98.80319148954004,262.8533226248983 98.83909574477002,262.8533226248983 98.875,262.8945616374549 98.65957446815446,262.8533226248983 98.19281914900057,262.8533226248983 96.61303191492334,262.8945616374549 95.53590425546281,262.56464942291495 94.49468085099943,262.3584541566379 93.45345744676888,262.2759760216868 92.41223404253833,262.3172150910832 91.87367021292448,262.3584541566379 90.83244680869393,262.44093227526173 90.36569148930721,262.44093227526173 88.75,262.3172150910832 88.24734042561613,262.19349787029205 87.27792553184554,261.9460633190174 86.77526595746167,261.6986286213214 85.80585106392391,261.36871546308976 85.30319148954004,261.20375878649065 83.25664893630892,260.7913668101537 81.92819148954004,260.2552566330414 81.82047872338444,260.00782093481394 82.25132978730835,259.9253423361806 82.43085106392391,259.9253423361806 82.57446808507666,259.7603850902815 82.43085106392391,259.7191457685549 82.07180851045996,259.6366671129945 81.89228723407723,259.5954277791607 81.78457446815446,259.5541884411941 81.56914893630892,259.5541884411941 81.42553191492334,259.47170975309564 81.24601063830778,259.47170975309564 81.06648936169222,259.47170975309564 80.8151595746167,259.3892310487863 80.63563829800114,259.30675232823705 80.52792553184554,259.26551296177786 80.16888297884725,259.0593160688004 80.06117021269165,258.97683728308766 79.88164893630892,258.85311907398864 79.77393617015332,258.77064024773426 79.66622340423055,258.6469219776918 79.52260638284497,258.4819642273942 79.27127659576945,258.2757669480343 79.05585106392391,258.15204853154137 78.94813829800114,258.0695695668692 78.76861702138558,257.8633720841899 78.69680851045996,257.49221635903814 78.69680851045996,257.16229988241685 78.66090425546281,256.9561019522371 78.625,256.7911435349379 78.73271276592277,256.4612265051983 78.69680851045996,256.0075901641685 78.69680851045996,255.8013916646887 78.66090425546281,255.67767251611804 78.73271276592277,255.55395333108027 78.69680851045996,255.51271359462407 78.73271276592277,255.2240353252273 78.76861702138558,255.01783643927774 78.94813829800114,254.9765966499399 79.30718085099943,254.8528772573627 79.48670212761499,254.77039764198707 79.59441489353776,254.7291578282602 79.80984042561613,254.64667818858288 79.84574468084611,254.64667818858288 79.84574468084611,254.6054383625451 79.88164893630892,254.6054383625451" stroke="#4dd2ff" stroke-linecap="round" stroke-linejoin="round" stroke-width="0.5"><title>2021-03-02 1.4km</title></polyline><polyline fill="none" points="104.84534883731976,259.0475301410188 105.08081395365298,259.15571167122107 107.67093023261987,259.64252829400357 109.31918604671955,260.2375258014654 109.93139534885995,260.50797900068574 111.57965116295964,260.9407038418576 112.19186046510004,260.9407038418576 113.93430232582614,260.8325226637535 114.49941860465333,260.67025085614296 116.2418604651466,260.56206962442957 117.32499999995343,260.9407038418576 117.89011627924629,261.1570661345613 118.87906976765953,261.5356999412761 119.82093023252673,261.6979714926565 120.99825581419282,261.5897904637968 121.18662790698,261.4816094135167 121.375,261.5897904637968 121.32790697691962,262.34705721837236 120.48023255821317,262.56341895624064 119.77383720944636,263.15841329516843 119.44418604648672,263.26659401488723 119.11453488375992,263.3747747131274 118.92616279073991,263.3747747131274 118.64360465109348,263.42886505415663 118.4552325583063,263.5370457203244 117.79593023261987,263.8074972926406 117.89011627924629,264.0779487314867 118.21976744197309,264.2943097866373 118.21976744197309,264.3484000371536 118.21976744197309,264.4024902821984 118.26686046505347,264.3484000371536 118.03139534895308,264.2943097866373 117.74883720930666,264.4024902821984 117.65465116291307,264.4565805218881 117.56046511628665,264.5106707563973 117.51337209297344,264.564760985435 117.51337209297344,264.564760985435 117.32499999995343,264.2943097866373 117.23081395355985,264.186129269714 117.08953488362022,264.0238584544859 117.04244186053984,263.91567788424436 116.57151162810624,263.8074972926406 116.3831395348534,263.8074972926406 116.14767441875301,263.8074972926406 115.9122093024198,263.7534069889225 115.6296511630062,263.7534069889225 115.39418604667298,263.7534069889225 114.92325581400655,263.64522636542097 114.68779069767334,263.5911360455211 114.45232558157295,263.5370457203244 114.2168604650069,263.48295538994716 113.74593023280613,263.3747747131274 113.5575581395533,263.26659401488723 113.32209302345291,263.2125036577345 113.08662790711969,263.1043229274219 112.85116279055364,262.9961421758053 112.66279069776647,262.83387100847904 112.23895348841324,262.6175093773054 111.81511627906002,262.4011476607411 111.48546511656605,262.07660492591094 111.25,261.9684239717899 111.01453488366678,261.860242996132 110.7790697675664,261.7520619991701 110.54360465100035,261.6438809809042 110.40232558152638,261.5897904637968 110.02558139548637,261.4275188802276 109.83720930246636,261.3734283418162 109.64883720921353,261.31933779793326 109.46046511642635,261.21115669439314 109.22500000009313,261.1570661345613 108.98953488375992,261.1029755694908 108.4715116280131,261.04888499889057 108.2831395349931,260.99479442310985 108.04767441865988,260.9407038418576 107.76511627901345,260.9407038418576 107.57674418599345,260.8866132554831 107.10581395355985,260.8325226637535 106.87034883722663,260.7243414640543 106.4465116278734,260.39979773701634 105.9755813954398,260.2375258014654 105.7872093024198,260.1834351456491 105.55174418631941,260.129344484536 105.26918604667298,260.0752538180095 105.08081395365298,260.02116314624436 104.84534883731976,259.9129817863577 104.42151162796654,259.69661900313804 104.18604651186615,259.5884375793976 103.99767441861331,259.4802561344113 103.52674418617971,259.2098024284933 103.38546511647291,259.1016209088266 103.19709302322008,258.9934393678559 102.77325581409968,258.72298542183125 102.58488372107968,258.5607129902928 102.34941860474646,258.23616798303556 102.01976744201966,257.8575318985968 101.4546511627268,257.42480462481035 101.4546511627268,257.2625318093342 101.36046511633322,256.9920770097524 101.26627906993963,256.77571307419566 101.125,256.07252969406545 101.26627906993963,255.80207430786686 101.31337209302,255.5316187882563 101.36046511633322,255.31525427656015 101.40755813987926,255.1529808367486 101.40755813987926,254.88252499705413 101.40755813987926,254.17933918978088 101.40755813987926,253.69251771824202 101.92558139562607,253.47615248098737 102.30232558143325,253.2597871584585 102.63197674439289,253.15160446509253 102.8674418607261,253.0975131104933 102.96162790711969,252.98933038522955 103.6209302325733,252.93523901462322" stroke="#4dd2ff" stroke-linecap="round" stroke-linejoin="round" stroke-width="0.5"><title>2020-12-25 1.0km</title></polyline><polyline fill="none" points="123.92951127816923,256.4109922904463 124.15789473685436,256.6295922411664 124.34821428568102,256.848192084115 124.76691729319282,257.1105117535044 126.40366541361436,257.5477108574414 127.27913533826359,257.81003011285793 127.85009398497641,257.9411896824604 130.5145676692482,258.9904648415104 131.27584586455487,259.5151014898729 132.15131578943692,259.90857856851653 133.44548872183077,260.3894945240172 133.94031954882666,260.4769337325124 134.85385338356718,260.4769337325124 135.3867481201887,260.4769337325124 136.30028195492923,260.30205529826344 137.13768797018565,260.2146160550474 138.08928571431898,260.25833567878 138.62218045117334,260.2146160550474 140.10667293239385,260.4769337325124 140.60150375938974,260.6518120979017 141.5531015037559,260.82669039434404 142.0859962408431,260.7829708266654 143.03759398520924,260.7392512547376 143.45629699272104,260.69553167853155 143.875,260.8704099577444 143.83693609014153,260.9141295166919 143.72274436126463,260.9578490713611 143.68468045117334,261.0015686218103 143.68468045117334,261.0452881678357 143.64661654131487,261.0015686218103 143.5704887220636,261.0890077095537 143.5704887220636,261.0015686218103 143.60855263192207,261.0452881678357 143.64661654131487,261.0890077095537 143.60855263192207,261.0452881678357 143.68468045117334,260.9578490713611 143.64661654131487,260.9578490713611 143.60855263192207,260.9578490713611 143.60855263192207,261.0015686218103 143.60855263192207,260.9578490713611 143.60855263192207,260.9578490713611 143.60855263192207,260.9578490713611 143.60855263192207,261.0015686218103 143.5704887220636,261.0015686218103 143.5704887220636,261.0015686218103 143.5324248119723,261.0015686218103 143.4943609025795,261.0015686218103 143.5704887220636,261.0015686218103 143.5704887220636,261.0015686218103 143.5704887220636,261.0015686218103 143.5324248119723,261.0015686218103 143.5324248119723,261.0452881678357 143.45629699272104,261.0015686218103 142.58082706783898,261.0015686218103 141.59116541361436,261.0015686218103 140.60150375938974,260.7829708266654 140.1447368422523,260.6518120979017 139.19313909765333,260.3894945240172 138.69830827089027,260.30205529826344 137.67058270680718,260.30205529826344 137.1757518798113,260.25833567878 136.14802631596103,260.3457749131776 135.08223684201948,260.4769337325124 134.58740601525642,260.4769337325124 133.55968045117334,260.43321413043304 133.02678571431898,260.30205529826344 130.62875939859077,259.5151014898729 130.13392857159488,259.34022267596447 128.72556390985847,258.9904648415104 128.3449248119723,258.94674509283504 126.82236842112616,258.68442651000805 125.9468984962441,258.2909483447438 125.45206766924821,258.02862937393365 124.50046992488205,257.5039909664483 123.625,257.1979516088031" stroke="#4dd2ff" stroke-linecap="round" stroke-linejoin="round" stroke-width="0.5"><title>2020-12-08 1.1km</title></polyline><polyline fill="none" points="146.125,256.6626602980541 146.31971153849736,256.69993442544364 147.61778846161906,257.7063344717899 148.03966346161906,257.8554305470607 149.69471153849736,258.33999238556135 150.47355769237038,258.5636361014913 150.8629807693651,258.71273183854646 151.77163461537566,259.04819703206886 152.58293269237038,259.4582096419472 153.0048076924868,259.71912652574247 155.08173076924868,260.42732858809177 155.5360576924868,260.4646023440582 156.83413461549208,260.3155072980444 157.22355769237038,260.2782335272641 159.2680288462434,260.3155072980444 159.68990384612698,260.3527810650412 160.9555288462434,260.7255185332324 162.25360576924868,260.8373397019459 162.6430288462434,260.80006598262116 163.4867788463598,260.8373397019459 164.78485576924868,260.65097106888425 165.17427884612698,260.6136973313114 165.9855769231217,260.539149845019 166.375,260.5018760964449 166.21274038474075,260.20368597487686 165.30408653849736,260.1664121930953 164.91466346161906,260.20368597487686 164.10336538474075,260.42732858809177 163.81129807699472,260.5018760964449 162.96754807699472,260.6882448028773 162.578125,260.7255185332324 161.7668269231217,260.7255185332324 161.3449519231217,260.65097106888425 160.53365384612698,260.5018760964449 160.1442307693651,260.3900548283709 158.87860576924868,260.1664121930953 158.4567307693651,260.1664121930953 157.6129807693651,260.20368597487686 157.15865384612698,260.20368597487686 156.3149038462434,260.2782335272641 155.4711538462434,260.3155072980444 154.6598557693651,260.2782335272641 153.88100961549208,260.0918646186474 153.49158653849736,259.98004322941415 152.64783653861377,259.71912652574247 152.25841346161906,259.57003118560533 151.47956730762962,259.3091141988989 150.44110576913226,259.0109231363458 150.14903846161906,258.973649237043 149.37019230774604,258.787279685057 148.2992788463598,258.45181426004274 148.00721153861377,258.228170478018 147.32572115387302,257.8554305470607 146.96875,257.6690604437317" stroke="#4dd2ff" stroke-linecap="round" stroke-linejoin="round" stroke-width="0.5"><title>2020-12-03 1.3km</title></polyline><polyline fill="none" points="188.661091549322,259.2823435791943 188.83934859139845,259.93753014475806 188.875,260.1422757344553 188.26892605633475,260.5108175415371 187.23503521108069,260.4698684680334 185.8089788730722,260.22417394208605 184.45422535203397,259.6508861495822 183.99075704230927,259.5689878287958 181.35255281697027,258.54525745735737 180.38996478868648,258.3814603635401 178.92825704207644,258.42240964309894 177.93001760542393,258.3814603635401 177.2169894366525,258.3814603635401 176.7891725350637,258.3814603635401 175.82658450701274,258.29956179257715 175.50572183076292,258.25861250105663 174.40052816900425,258.17671390558826 173.97271126741543,258.13576460198965 172.4753521126695,258.0129166666593 172.01188380247913,257.93101802287856 171.08494718302973,257.8491193629161 169.87279929569922,257.31677767971996 169.4093309857417,257.15298010149854 168.625,256.9891824584629 169.51628521108069,257.1939295021002 170.3006161970552,257.5624739260238 171.08494718302973,257.93101802287856 171.54841549275443,257.97196734673344 172.72491197194904,258.094815294171 173.08142605633475,258.13576460198965 174.008362676017,258.21766320534516 174.4718309857417,258.25861250105663 175.43441901402548,258.25861250105663 175.86223591538146,258.29956179257715 176.82482394366525,258.3814603635401 177.25264084502123,258.3814603635401 178.57174295769073,258.42240964309894 178.9995598590467,258.42240964309894 179.64128521108069,258.34051108008134 179.8551936619915,258.34051108008134 179.99779929569922,258.34051108008134 180.14040492940694,258.34051108008134 180.28301056311466,258.34051108008134 180.46126760542393,258.29956179257715 180.6395246477332,258.29956179257715 180.9960387321189,258.34051108008134 181.13864436605945,258.34051108008134 181.45950704230927,258.46335891849594 181.78036971809343,258.62715597986244 181.7447183097247,258.7090544863604 181.7447183097247,258.7500037334685 181.70906690112315,258.7500037334685" stroke="#4dd2ff" stroke-linecap="round" stroke-linejoin="round" stroke-width="0.5"><title>2020-11-30 1.0km</title></polyline></svg>