<?xml version="1.0" encoding="utf-8" ?>
<svg baseProfile="full" height="300mm" version="1.1" viewBox="0,0,200,300" width="200mm" xmlns="http://www.w3.org/2000/svg" xmlns:ev="http://www.w3.org/2001/xml-events" xmlns:xlink="http://www.w3.org/1999/xlink"><defs /><rect fill="#222222" height="300" width="200" x="0" y="0" /><text fill="#FFFFFF" style="font-size:12px; font-family:Arial; font-weight:bold;" x="10" y="20">Over 3km Runs</text><text fill="#FFFFFF" style="font-size:4px; font-family:Arial" x="10" y="280">ATHLETE</text><text fill="#FFFFFF" style="font-size:9px; font-family:Arial" x="10" y="290">jdzj</text><text fill="#FFFFFF" style="font-size:4px; font-family:Arial" x="120" y="280">STATISTICS</text><text fill="#FFFFFF" style="font-size:3px; font-family:Arial" x="120" y="285">Number: 60</text><text fill="#FFFFFF" style="font-size:3px; font-family:Arial" x="120" y="290">Weekly: 3.3</text><text fill="#FFFFFF" style="font-size:3px; font-family:Arial" x="141" y="285">Total: 123.5 km</text><text fill="#FFFFFF" style="font-size:3px; font-family:Arial" x="141" y="290">Avg: 2.1 km</text><text fill="#FFFFFF" style="font-size:3px; font-family:Arial" x="167" y="285">Min: 1.0 km</text><text fill="#FFFFFF" style="font-size:3px; font-family:Arial" x="167" y="290">Max: 13.2 km</text><polyline fill="none" points="33.277000687783584,43.34784011656302 32.5340518229641,43.77452601285768 24.881678513949737,40.83038476295769 19.792478789109737,41.427748375892406 16.857830772642046,41.086397840990685 16.337766567245126,41.683761100430274 11.285714285681024,40.23302032513311 17.30360009148717,41.93977367330808 24.28731942200102,42.57980444308487 34.42857142840512,45.48126538912766" stroke="#4dd2ff" stroke-linecap="round" stroke-linejoin="round" stroke-width="0.5"><title>2021-06-15 1.2km</title></polyline><polyline fill="none" points="51.834049409022555,47.95457956628525 50.00698174000718,49.05400847905548 47.13587540271692,48.704190447577275 38.69656283594668,35.510876832937356 37.0,36.46040709532099 38.95757250254974,40.50838455418125 40.958646616665646,42.357449910545256 43.394736842252314,43.057094500778476 45.78732545627281,46.70522563144914 49.31095596123487,49.1039824639156 51.834049409022555,50.203408881352516 58.14178302884102,48.20444998331368 60.1428571427241,48.45432027708739" stroke="#4dd2ff" stroke-linecap="round" stroke-linejoin="round" stroke-width="0.5"><title>2021-06-11 1.2km</title></polyline><polyline fill="none" points="83.12060167420714,54.425259340070625 83.21303796533903,54.412010982778156 83.42679688858334,54.25634239601641 83.82542839409143,53.829078125523665 83.83120566228172,53.60716354561009 83.63766717772523,53.76945942617749 83.52501044792007,53.62703655241421 83.56256269117875,53.74627434805734 83.63188990953495,53.77277157890421 83.83120566228172,53.597227037829725 83.83409429638414,53.7992687889855 83.73876937116438,53.935066664926126 83.2014834289439,54.425259340070625 82.95306089652877,54.42857142857247 82.30311822448857,52.53069156541824 82.24534554254205,51.43099865868862 81.90448671898048,50.987136573581665 81.3123167288868,50.62276782133995 81.30942809481348,50.341207460187434 81.19965999908163,50.17558262323291 80.69992630014895,49.68864090412899 80.3330697696947,49.47001172889577 79.88244285043038,48.99299771250662 79.73512251143984,48.96649673649881 79.25849788528285,49.05262483257684 79.19783656923391,49.07581312865295 79.33937964001962,49.0990014088311 79.31049329903908,49.13875270925564 79.06784803481423,49.22488036656432 78.25036458511022,49.37725953052359 77.9643898094073,49.3640091956986 78.05104883236345,49.39382244175067 78.00194205268053,49.433573395599524 78.0597147346416,49.403760184588464 78.06838063694886,49.486574594691774 78.07704653922701,49.39050986015354 77.95572390711459,49.37063436376047 77.4877651832503,49.11225184749492 76.34675471458468,49.12550228097825 76.04055950019392,49.00293557315672 75.46860994880262,49.24806854450799 74.79844683808915,49.10562662880693 74.6020197194157,49.01949866774885 74.2582722617808,48.6418580947211 73.89141573135566,48.330467080901144 73.38012749599875,48.214522885595215 72.79084614003659,48.20127209510974 72.3835487322358,48.00582233204841 72.01380356770824,47.71761468774639 69.86177116473846,46.7767818278553 69.68267585067952,46.75690479485638 69.13672400616633,46.85297701273521 68.85652649866825,46.81984869257576 68.57921762527258,46.67077085015262 68.18347475385235,46.24009783452129 67.5884161296708,45.72328297278 67.44109579068027,45.19652123225387 67.23311413562624,44.93148077413207 66.82870536192786,44.156225503356836 66.51095561115653,43.84148004020972 65.52304274967173,41.323410796016105 65.50571094508632,41.10804089966041 65.56059499294497,40.836341533551604 65.98233557122876,40.0908137570259 66.08632639875577,39.7561492716668 66.01411054631171,39.48112548021527 65.66169718638412,38.90787592245397 65.38727694706176,38.34787129627148 65.2052929989004,37.77128878539952 65.23129070577852,37.47305259005225 65.46815870181308,36.64460489631165 65.49704504279362,36.13095712049835 65.43927236083255,35.70014973616344 65.15329758514417,34.55682656885256 65.20240436479799,33.90395510615781 65.17640665791987,32.95942328661113 65.0955249031831,32.58491738982775 65.10419080547581,32.20377880464366 64.96842500286584,31.646977310447255 64.73733427503612,31.285714285717404" stroke="#4dd2ff" stroke-linecap="round" stroke-linejoin="round" stroke-width="0.5"><title>2021-06-10 13.2km</title></polyline><polyline fill="none" points="97.43980317772366,47.84171489946311 97.74702679633629,48.87092082289746 99.10393111221492,48.72389162276522 99.18073701683898,49.4884426719218 100.15361180936452,49.37081956115435 100.74245707842056,50.16477465824573 101.07528266543522,49.459036898537306 100.38402952323668,48.98854413081426 101.02407872898038,49.047355767397676 101.38250628393143,49.459036898537306 100.89606888778508,50.19418036195566 102.43218698108103,50.370614523562836 101.66412793449126,50.87051074774354 101.58732202986721,50.31180314795347 102.07375942601357,50.01774609601125 102.30417714011855,50.34120883716969 102.1249633624684,49.87071746139554 102.53459485399071,50.10596324206563 102.0993613942992,50.07655752968276 102.15056533075403,49.694283004064346 102.79061453626491,50.929322013049386 102.30417714011855,51.63505629316205 100.97287479240913,52.076139370095916 98.82230946177151,52.017328330897726 96.51813232165296,53.63462768352474 95.75007327506319,53.164141503715655 95.26363587880041,53.693438403715845 95.82687917968724,54.310950266430154 96.6973460993031,54.016897157998756 95.98049098905176,54.252139667834854 96.54373428993858,54.310950266430154 96.64614216284826,53.8110598095227 96.67174413113389,54.10511312086601 95.95488902076613,53.98749183118343 96.67174413113389,54.10511312086601 96.21090870315675,53.84046515368391 96.77415200392716,53.8110598095227 94.93081029190216,54.10511312086601 95.69886933860835,53.86987049502204 96.00609295722097,54.428571428579744 96.00609295722097,54.10511312086601 95.3660437517101,54.19332905783085 95.92928705259692,53.95808650145773 96.64614216284826,54.163923748390516 96.10850083001424,54.163923748390516 96.26211263949517,53.5758169516339 96.18530673487112,54.252139667834854 95.75007327506319,54.04630248178728 96.10850083001424,53.781654462451115 96.0316949255066,54.34035556128947 95.67326737032272,53.54641158133745 96.18530673487112,53.51700620815973 95.95488902076613,54.07570780284004 95.41724768804852,53.92868116887985 95.64766540203709,52.78187093610177 94.52117880026344,51.2821893619257 94.36756699101534,49.606065736181336 93.03626464342233,47.665279241715325 92.90825480234344,47.106565636524465 93.39469219848979,46.43022671388462 92.8570508658886,44.84229451874853 93.44589613494463,43.31316663484904 93.36909023020416,41.60759166706703 94.93081029190216,31.285714285739232 95.46845162461977,31.31512185142492 95.46845162461977,31.844457537081325 96.26211263949517,32.28556989048957 98.77110552520026,32.55023698936566 99.00152323930524,33.05016309054918 100.99847676069476,32.28556989048957 102.96982831391506,33.31482951072394 103.9683050744934,33.02075569608132 104.19872278859839,33.491273660212755 106.14447237353306,32.96194089832716 106.42609402397648,34.285271040920634 107.1429491341114,34.75578700948972" stroke="#4dd2ff" stroke-linecap="round" stroke-linejoin="round" stroke-width="0.5"><title>2021-06-08 2.7km</title></polyline><polyline fill="none" points="137.28571428591385,40.081922591954935 128.94220461463556,37.17648277845001 120.29666744358838,36.61273850098951 116.89885807526298,34.704675582877826 117.08762526232749,33.14352703597979 116.71009088796563,33.27362295993953 114.14285714295693,48.62467172124889 114.6714052669704,50.14240166492527 115.91726870206185,51.22649127457407 115.35096714063548,52.570758678310085" stroke="#4dd2ff" stroke-linecap="round" stroke-linejoin="round" stroke-width="0.5"><title>2021-06-08 1.1km</title></polyline><polyline fill="none" points="162.34852546919137,43.92615307710366 154.81003446946852,41.03983765779412 150.8701646878617,41.78814386960585 148.26426656451076,41.574342252948554 147.79892761376686,42.00194535974879 143.79701263876632,40.71913452123408 139.8571428571595,41.28927323399694 143.30065109138377,40.57659970244276 147.67483722709585,42.00194535974879 154.09651474526618,42.28701381635619 158.96706242812797,44.03305320534855 162.96897740336135,45.137686011818005 163.0,44.7813532174041" stroke="#4dd2ff" stroke-linecap="round" stroke-linejoin="round" stroke-width="0.5"><title>2021-06-07 1.5km</title></polyline><polyline fill="none" points="180.7988871484995,52.95356307155453 180.6216250876896,47.91815803234931 179.20352860051207,47.053487589990254 175.34807877638377,41.967161615611985 172.60051683243364,42.526659920753445 177.16501490049995,37.44028943806188 180.7988871484995,31.285714285739232 173.66408919775859,41.76370753656374 175.17081671534106,41.7128440043889 176.2787045959849,42.628386820317246 180.57730957237072,47.81643217301462 180.6216250876896,52.851838202390354 181.68519745324738,54.428571428579744 180.71025611832738,53.86908599513117" stroke="#4dd2ff" stroke-linecap="round" stroke-linejoin="round" stroke-width="0.5"><title>2021-06-04 1.3km</title></polyline><polyline fill="none" points="25.203922150074504,72.97476857290894 25.45483565935865,73.36471347388579 26.19281656917883,73.36471347388579 26.000941532605793,72.94086027883168 26.39945122390054,72.75436454183364 25.956662678043358,72.82218119688332 26.04522038716823,72.21183033807029 25.58767222316237,72.00837957010663 25.57291260495549,72.26269299242995 26.04522038716823,72.771318708139 26.059980005433317,73.44948398749693 25.440076041209977,73.39862168434775 24.982527877145912,72.82218119688332 25.07108558632899,73.11040168232284 24.524979713140056,73.21212644409388 23.846037276205607,72.00837957010663 23.078537130146287,71.21152840986906 20.466084709682036,69.36349766860076 20.170892345777247,67.78672178313718 20.480844327772502,66.19297661620658 21.927286910882685,63.80233115046576 23.28517178480979,62.70024934515823 24.672575895150658,61.072546365030576 24.73161436780356,59.75002633991244 24.200268112879712,58.71574076528486 23.742719948873855,58.41054055355198 23.25565254839603,58.88529620417103 23.122815984708723,58.46140729317267 23.329450639372226,58.444451714953175 23.049017893732525,58.39358497039939 23.240892930247355,58.427496135089314 23.093296748236753,58.76660741450905 23.167094839271158,58.49531844459125 22.886662093515042,58.69878521216742 23.10805636650184,58.54618515903712 22.916181329928804,58.49531844459125 22.97521980269812,58.69878521216742 22.429113929509185,59.10571802461345 23.049017893732525,58.76660741450905 22.812864002597053,58.91920727187244 22.90142171178013,58.58009629367734 22.709546675207093,59.00398491184751 22.709546675207093,58.69878521216742 23.25565254839603,58.35967379891372 23.521325675887056,58.732696316670626 23.403248730348423,58.851385129761184 23.816518039791845,58.88529620417103 23.344210257579107,59.10571802461345 22.739065911620855,58.29185143597715 23.403248730348423,58.39358497039939 23.418008348555304,58.07142857143481 22.443873547774274,59.12267353756761 23.28517178480979,59.10571802461345 23.28517178480979,58.88529620417103 22.68002743879333,58.95311833289452 23.521325675887056,58.35967379891372 22.76858514797641,58.851385129761184 23.0637775118812,58.83442959007516 23.18185445741983,58.69878521216742 22.87190247536637,58.54618515903712 22.960460184549447,58.851385129761184 23.418008348555304,58.61400742160913 23.28517178480979,58.86834066777374 23.299931402958464,58.664874100955785 23.093296748236753,58.76660741450905 23.18185445741983,58.52922958918498 23.47704682132462,58.51227401768847 23.37372949399287,58.91920727187244 23.609883385070134,58.597051858494524 23.240892930247355,59.05485147575382 23.432767966703977,58.76660741450905 23.19661407568492,58.122295411420055 23.624643003335223,58.32576262076327 22.960460184549447,58.88529620417103 23.240892930247355,59.00398491184751 23.418008348555304,58.78356296093261 23.299931402958464,59.05485147575382 23.5656045305077,58.41054055355198 23.403248730348423,58.936162803234765 23.58036414871458,59.15658455841185 23.329450639372226,58.902251738880295 21.189306001237128,61.08950168386218 23.831277657998726,58.630962983035715 25.735268405114766,60.156956662627636 26.620845496770926,61.47947355559154 25.75002802326344,76.53510222148907 20.348007764085196,76.67073252121918 19.255796017707326,76.95894655273878 19.093440217489842,79.38331603964616 19.654305708943866,79.79019987511856 20.849834782711696,79.51894409183296 21.38118103769375,80.0953621196677 20.938392491894774,80.4513840534928 21.735411874426063,80.55310447057127 21.88300805632025,80.84131199204421 21.853488819964696,81.21428571428987 21.58781569241546,80.85826536059903 21.440219510463066,80.94303217838751" stroke="#4dd2ff" stroke-linecap="round" stroke-linejoin="round" stroke-width="0.5"><title>2021-06-02 5.9km</title></polyline><polyline fill="none" points="43.656651217257604,80.52029571883031 45.72480811807327,78.6251601264812 48.93161320022773,74.300998238381 51.69690164073836,68.53534155862872 52.88202525814995,64.13093770982232 52.85878754011355,58.07142857144936 53.32354189979378,58.498534983053105 53.55591907957569,63.14327367171063 51.92927882063668,69.2560553624644 50.139974535559304,73.42014197443496 47.25849750521593,77.69093347160378 43.586938063264824,81.21428571428987" stroke="#4dd2ff" stroke-linecap="round" stroke-linejoin="round" stroke-width="0.5"><title>2021-06-01 2.2km</title></polyline><polyline fill="none" points="85.8571428572759,71.22466962254839 85.39213954517618,71.7587849511765 75.4482225656975,68.59516878926661 68.61625082814135,68.80059913959121 68.04393905960023,69.33471757633379 63.60852285264991,67.77344637486385 62.714285714318976,67.81453253410291 62.75005519995466,68.2664800179773 63.57275336747989,67.52692933450453 68.54471185710281,69.5812335468363 77.55862221261486,69.86883532820502" stroke="#4dd2ff" stroke-linecap="round" stroke-linejoin="round" stroke-width="0.5"><title>2021-05-31 1.1km</title></polyline><polyline fill="none" points="101.10034547839314,80.35317377815954 101.56857759691775,76.53197312052362 102.36457219859585,77.12399188056588 105.26761133293621,76.53197312052362 106.2508987816982,75.4555737246992 107.0000701714307,72.28018310031621 108.73252900969237,72.92602676257957 107.70241834898479,72.49546440632548 108.217473679455,71.74197946320055 108.12382725556381,73.03366729838308 108.217473679455,71.68815907009412 108.1706504675094,73.6795100661111 106.67230768827721,72.17254241544288 111.44827529694885,74.80973306519445 106.57866126461886,72.97984703310067 107.74924156093039,72.44164408801589 107.14053980703466,70.66557059111074 106.67230768827721,73.30276854481781 108.12382725556381,71.95726098190062 107.60877192532644,71.09613439551322 108.91982185724191,73.03366729838308 109.52852361113764,72.76456591900205 107.79606477287598,73.57186965807341 106.20407556998543,72.81838620558847 108.4984129506629,72.6031050272868 106.90642374777235,72.2263627606444 105.73584345146082,76.04759365593782 101.24081511399709,76.80107263673563 101.38128474960104,78.84622461081017 99.50835627550259,80.29935423698043 99.60200269916095,81.21428571426077 100.30435087694786,80.19171513838228 98.24412955553271,74.5944526749663 88.55172470305115,58.071428571420256" stroke="#4dd2ff" stroke-linecap="round" stroke-linejoin="round" stroke-width="0.5"><title>2021-05-30 1.4km</title></polyline><polyline fill="none" points="114.98324022337329,67.3595998614328 118.31245011964347,69.25303945178166 124.38906624098308,71.51772919850191 127.20111731835641,71.25784746056888 130.75658419786487,71.92611442427733 136.73623304069042,71.0350915423769 137.28571428568102,70.58957931064651 136.6715881882701,71.0722175379342 130.98284118110314,71.7033589015191 123.06384676776361,71.18359550257446 117.79529130086303,69.77280551634612 114.14285714284051,67.87936854053987" stroke="#4dd2ff" stroke-linecap="round" stroke-linejoin="round" stroke-width="0.5"><title>2021-05-27 1.4km</title></polyline><polyline fill="none" points="163.0,71.30716074805241 160.10211180127226,71.16846956071095 154.22583850915544,68.94940498139476 145.3309316772502,68.62579051917419 139.85714285704307,67.146407274995 143.23801242257468,68.4408678690088 152.37440993776545,69.27301922018523 161.79254658380523,72.13930701074423 162.5572670805268,71.90815541925258" stroke="#4dd2ff" stroke-linecap="round" stroke-linejoin="round" stroke-width="0.5"><title>2021-05-25 1.1km</title></polyline><polyline fill="none" points="166.20865367434453,67.76313148642657 167.3093152155634,68.66141127340961 170.98784194525797,68.9941068837361 174.6374038978247,71.09008168370929 179.01108528510667,70.92373495304491 181.4730913642561,71.32296696866979 186.62882174144033,70.59104124593432 188.71428571431898,69.55968866829062 188.71428571431898,70.32488604378887 180.48828893259633,71.52258279928355 177.360092973453,70.9902736552176 174.57947434298694,71.22315900909598 169.0761666368926,69.8923833926965 165.57142857147846,68.32871533487923" stroke="#4dd2ff" stroke-linecap="round" stroke-linejoin="round" stroke-width="0.5"><title>2021-05-24 1.6km</title></polyline><polyline fill="none" points="20.30066445178818,95.82970091036987 25.682724252343178,95.98424929162138 25.682724252343178,96.64107923212578 29.11378737539053,98.18655710088206 34.428571428521536,97.68427746230736 29.012873754138127,98.22519396943972 25.178156146081164,97.5683666850382 21.175249169347808,97.76155129476683 11.285714285681024,94.63194888771977" stroke="#4dd2ff" stroke-linecap="round" stroke-linejoin="round" stroke-width="0.5"><title>2021-05-21 1.1km</title></polyline><polyline fill="none" points="50.87360354862176,108.0 51.698660476948135,107.20516170194605 51.43251308077015,106.41032136545982 51.858348914654925,102.71122990522417 53.45523329207208,102.16094806444016 53.80122490727808,101.33552347120713 55.717486160225235,101.79409296109225 59.65646762447432,101.24380949186161 59.5233939262107,99.47066722231102 58.19265694508795,96.59693234454608 55.53118298272602,92.86715159617597 53.614921729895286,91.06338906477322 50.55422667320818,89.25961603413452 46.21602411463391,88.64816516652354 44.61913973733317,88.00614045688417 42.277042650501244,88.34243928018259 39.34942129184492,86.59979596876656 38.790511759812944,84.85714285715949 37.486389518366195,85.31573673133971 37.5662337372778,86.29406806151383" stroke="#4dd2ff" stroke-linecap="round" stroke-linejoin="round" stroke-width="0.5"><title>2021-05-20 1.7km</title></polyline><polyline fill="none" points="62.825549450702965,94.44764541630866 62.714285714318976,92.08328114758478 67.66552197816782,91.18865457957145 85.46771978028119,91.57206611719448 85.8571428572759,100.26266677299282 84.80013736267574,101.02947888080962 75.78777472535148,100.26266677299282 74.67513736267574,101.02947888080962 67.83241758262739,101.66848827752983 63.88255494530313,101.09337984892773 62.9924450549297,100.32656781654805 62.9924450549297,93.68082551792031" stroke="#4dd2ff" stroke-linecap="round" stroke-linejoin="round" stroke-width="0.5"><title>2021-05-18 1.1km</title></polyline><polyline fill="none" points="88.42857142852154,97.21597172370821 89.32891246664803,98.06209703764762 93.72830617649015,99.9188615022722 96.49071618029848,99.84835172355815 98.35278514574748,100.27141008287435 101.56536566873547,99.895358245034 105.10534293286037,98.8612126311491 106.10799545270856,98.25012447715562 107.7245168624213,97.12195761447947 111.57142857136205,93.33785892695596 110.95755968161393,92.58573277427058 109.4433497536229,93.76092884450918 100.58317544520833,94.72458529734286 99.2940507766325,94.37202851056645 92.3164077301044,94.16049418812327 91.94808639620896,94.74808906455291 92.0299355816096,94.51305128788226 91.62068965507206,94.67757775592327 91.19098143221345,95.57071945742064 90.55665024614427,95.82925985152542 88.71504357701633,95.45320100369281 88.44903372472618,94.95962286536815" stroke="#4dd2ff" stroke-linecap="round" stroke-linejoin="round" stroke-width="0.5"><title>2021-05-10 2.5km</title></polyline><polyline fill="none" points="137.28571428568102,103.81901858469064 137.1704801422311,103.15720838669222 136.38304682867602,102.34097311219375 135.13467694132123,102.95866494542861 134.50088915228844,102.7601213279122 134.46247777121607,102.14242894631752 134.885002963827,101.43649270702736 134.7313574393047,99.47309582488379 134.2704208653886,98.81127276693587 131.8312981624622,99.56133875134401 130.19881446345244,99.38485286370269 130.1411973919021,98.87745516083669 125.91594546532724,98.94363753523794 123.70729104918428,98.59066464568605 120.17344398342539,99.23042759775126 117.65749851812143,99.29660986764065 115.66010669828393,98.85539436506224 114.14285714284051,96.23014412712655 116.35151155898347,94.64174246491166 117.33100177824963,93.5607404375769 119.34759928868152,92.52385603210132 119.59727326605935,91.77376644400647 121.72910491994116,90.8251201264793 123.78411381144542,89.41317396903469 122.95826911670156,90.33976464046282 120.67279193841387,91.33253609923122 118.52175459393766,89.43523569629178 117.15815056313295,89.03812427243975" stroke="#4dd2ff" stroke-linecap="round" stroke-linejoin="round" stroke-width="0.5"><title>2021-05-08 2.6km</title></polyline><polyline fill="none" points="162.99999999976717,92.42594468028983 162.8484919334296,94.03570841200417 158.3032499414403,94.29675062579918 157.62146364268847,95.55845248090918 150.6142155714333,93.94869430654217 146.978021977935,94.25324360097875 145.6523263968993,94.99286244047107 140.50105213932693,93.86168018370518 139.85714285704307,94.9058485236892 145.23567921412177,96.82015072734794 153.03834463399835,97.60327196161961 162.8484919334296,100.43119817684055" stroke="#4dd2ff" stroke-linecap="round" stroke-linejoin="round" stroke-width="0.5"><title>2021-05-08 1.3km</title></polyline><polyline fill="none" points="188.7142857144354,96.04076824750518 188.13111026922707,96.35806725875591 184.69344448670745,95.08886952380999 184.14096248603892,95.58244695627945 180.6419098144397,94.24273519671988 178.37059492245317,95.300402792549 173.42895036004484,95.6177024609351 170.2675255780341,94.59529140978702 167.07540735136718,95.15938062727218 165.97044334979728,94.9831028424378 165.57142857147846,94.41901334677823 170.6972338006599,94.63054701199871 173.70519136055373,95.97025731782196 178.61614247842226,95.82923541680793 188.53012504754588,98.6144076604105" stroke="#4dd2ff" stroke-linecap="round" stroke-linejoin="round" stroke-width="0.5"><title>2021-05-07 1.5km</title></polyline><polyline fill="none" points="11.392527472693473,127.65871253790101 11.285714285681024,127.0442818114825 12.994725274853408,126.47081230769982 13.70681318687275,124.75039901401033 22.643516483716667,119.42526477796491 25.491868132026866,120.24452067280072 26.168351648375392,121.14570027802256 26.987252747407183,119.13852483037044 26.666813186835498,118.76985889070784 26.666813186835498,120.1625951564929 26.488791208947077,119.71200452625635 25.81230769236572,121.26858825361705 26.702417582506314,120.24452067280072 25.847912088036537,121.14570027802256 26.310769230592996,119.63007890424342 25.99032967025414,121.22762559913099 26.773626373615116,120.53125985170482 28.233406593557447,120.77703613199992 30.40527472528629,119.99874407521565 32.39912087912671,120.08066962391604 34.42857142863795,121.26858825361705 33.111208791146055,120.36740891664522 31.50901098898612,120.1625951564929 27.770549450535327,121.0637749407324 25.91912087914534,119.87585572141688" stroke="#4dd2ff" stroke-linecap="round" stroke-linejoin="round" stroke-width="0.5"><title>2021-05-06 1.2km</title></polyline><polyline fill="none" points="42.774777207756415,125.32524376077345 43.78098838799633,123.16413989913417 50.95571158523671,117.83672841824591 53.9743451254908,114.62015110583161 57.955441534053534,112.50926120232907 59.486632460262626,113.96678135640104 60.1428571427241,128.79304241976934 59.311639211373404,124.3703385341505 47.280853362288326,130.95412239426514 44.130974885309115,127.93865943516721 38.224952741060406,131.15515262339613 37.0,133.21570789607358 38.268701053224504,133.91931022622157 42.03105590073392,130.4012888551224 43.431001890450716,127.18479090556502 42.64353227126412,126.02885699245962" stroke="#4dd2ff" stroke-linecap="round" stroke-linejoin="round" stroke-width="0.5"><title>2021-05-06 1.8km</title></polyline><polyline fill="none" points="76.73293547192588,119.63472422634368 78.81760537112132,119.00610576893087 79.02909362188075,118.34256282169372 76.61208504298702,117.36470773193287 76.91421111533418,117.43455461607664 76.55165982851759,117.81871222535847 78.33420365548227,118.51717951043975 79.90525923180394,118.27271612148616 79.39164490869734,120.54272664344171 80.96270048501901,119.6696474404016 80.90227527043317,120.33318783622235 81.53674002247863,120.29826468924875 83.89332338690292,122.18410956606385 85.61544199916534,122.5682618888386 85.64565460651647,123.54610223532654 85.10182767617516,124.31440342121641 85.85714285715949,127.8066599839658 85.22267810523044,129.06386369661777 68.42446848202962,127.07328903686721 63.741514360299334,127.70189280124032 62.714285714318976,128.47018473630305 63.439388288068585,127.73681519911042" stroke="#4dd2ff" stroke-linecap="round" stroke-linejoin="round" stroke-width="0.5"><title>2021-05-02 1.6km</title></polyline><polyline fill="none" points="95.51790235098451,117.69258625415387 97.15840867999941,118.37010346463649 99.1504520799499,116.67630915058544 107.06003616657108,115.3890226012445 110.57540687173605,116.81181285361527 111.57142857159488,119.18312321125995 110.34104882506654,125.9582493120688 100.38083182647824,129.48128774855286 89.13164556957781,131.03954882733524 88.42857142863795,129.8877909888397 93.29150090413168,115.93103829259053" stroke="#4dd2ff" stroke-linecap="round" stroke-linejoin="round" stroke-width="0.5"><title>2021-05-01 1.0km</title></polyline><polyline fill="none" points="125.18249755818397,122.26409568695817 123.7805106015876,124.50011985120364 121.70170235564001,120.1957652666024 121.79839111119509,118.63053709123051 123.49044433468953,116.00317981373519 126.14938511443324,114.88515164516866 133.01428676396608,114.99695456383051 137.02687012264505,111.64285714289872 131.95071045216173,115.2205603334587 120.00964913214557,113.59941645013168 118.99441719800234,114.10253057884984 117.01229770760983,118.35103159263963 116.33547641802579,128.74854079651413 115.51362199545838,131.43173716962337 114.54673443897627,131.82303555042017 114.40170130576007,134.78571428573923 115.17521135066636,134.39441800618079 115.51362199545838,132.54973180714296 116.81892019626684,118.01562480744906 118.55931779765524,116.28268650179962 119.28448346466757,116.7298969082185" stroke="#4dd2ff" stroke-linecap="round" stroke-linejoin="round" stroke-width="0.5"><title>2021-05-01 1.8km</title></polyline><polyline fill="none" points="159.44415752100758,121.11196604790166 158.63736973167397,121.2492628138425 157.32260444533313,122.19317514655995 155.7239693812444,122.12452714961546 155.44009960343828,122.46776686352678 155.48492114734836,122.14168915140908 154.40920409490354,122.50209079768683 151.86931660986738,122.17601314984495 150.37526514806086,122.3476330406993 149.9270497096004,122.10736514616292 148.29853361623827,122.41628094959015 144.62316702021053,122.50209079768683 140.9627409388777,122.12452714961546 139.8571428571595,123.06843473330082 139.93184543022653,123.39451070840005 144.2347136401222,124.23544066575414 144.69786959333578,124.09814625648141 145.54947892657947,124.54435269045644 147.82043714844622,124.57867621489277 149.23978603706928,125.12785168494156 149.85234713641694,124.93907281266002 151.46592271514237,125.31663035246311 151.86931660986738,125.62554045740399 152.87033108924516,125.74567201673926 153.13926035235636,125.53973214994767 153.87134556862293,125.88296512588568 154.78271696023876,125.72851037052169 156.30664945126045,126.17471262297477 156.44111408287426,125.76283366132702 156.76980540447403,125.72851037052169 157.38236650370527,126.05458135988738 157.59153370844433,125.5568938148208 158.48796458548168,125.07636655832175 159.5636816379265,123.99517537841166 160.75892280734843,123.53180567294476 161.38642442133278,122.77668202701898 162.43226044456242,122.45060489393654 163.0000000000582,121.66115246160189 162.70118970767362,120.75156152168347 162.23803375451826,120.25385880560498 161.29678133362904,120.85453431966016 159.86249193031108,120.76872365892632 159.77284884260735,121.31791115620581 157.7558793692151,122.31330907608208 158.1742137785186,122.70803426031489 158.4580835562083,122.5192527621839 159.4292170063709,123.25721563551633 160.23600479582092,123.1370823578327 160.29576685425127,122.93113940308103" stroke="#4dd2ff" stroke-linecap="round" stroke-linejoin="round" stroke-width="0.5"><title>2021-04-30 3.7km</title></polyline><polyline fill="none" points="188.5314827351831,121.70248609929695 187.06905890302733,123.8022181186243 186.26472579548135,123.92820171057247 178.2945159105584,121.74448084121104 171.20176032488234,121.70248609929695 172.15233581583016,122.50038548643352 165.57142857136205,120.52663164533442 170.8361543668434,122.37440147198504 179.24509140150622,123.17229960003169 187.90995260654017,125.90193978321622 188.71428571431898,125.73396243099705 187.61746784020215,125.35601314654923" stroke="#4dd2ff" stroke-linecap="round" stroke-linejoin="round" stroke-width="0.5"><title>2021-04-29 1.4km</title></polyline><polyline fill="none" points="20.17918367346283,149.43047091850895 22.063673469470814,147.94926159654278 21.402448979672045,146.7718860177556 22.559591836528853,146.39208667571074 30.461224489612505,138.83400182423065 31.386938775423914,138.72005971087492 34.428571428521536,142.21426917539793 30.56040816300083,144.7209651178273 30.99020408152137,144.75894523365423 28.57673469360452,147.3795641855977 29.60163265292067,146.99976544317906 29.83306122443173,146.12622691321303 28.675918367225677,147.075725221599 23.154693877440877,153.76012702164007 19.418775510275736,155.96291581957485 16.87306122435257,158.20367080028518 16.707755101961084,159.6468620170781 14.624897959176451,161.27994028912508 12.905714285792783,160.40643416825333 11.285714285681024,158.08973442119895 11.417959183687344,155.84897877721232 13.699183673481457,154.78556475465302 14.525714285671711,153.4942723486747 16.806938775465824,152.50681052697473 17.23673469386995,151.5193461717863 18.360816326458007,150.873695031245 18.69142857135739,149.7343080235878 19.55102040816564,149.0886538886116 20.5097959182458,149.3165319423424 20.70816326525528,148.59491764285485" stroke="#4dd2ff" stroke-linecap="round" stroke-linejoin="round" stroke-width="0.5"><title>2021-04-26 2.2km</title></polyline><polyline fill="none" points="50.65398487308994,157.48240971943596 51.28506254043896,156.6123983662401 52.01711263414472,147.4771236066299 54.49093708966393,138.42857142857974 52.21905748778954,147.33211695510545 50.42679691279773,148.17315453774063 47.82675692404155,147.99914695954067 45.12574450846296,148.40516448163544 43.71213053399697,149.27520013938192 42.72764937300235,150.66725183240487 42.65192005306017,159.19342453192803 43.78785985405557,161.2814291092218 44.545153054525144,161.57142857142026 45.050015188287944,161.31042906831135 47.77627071074676,159.0194234807277 48.71026565809734,159.6574268315162 49.619017498916946,158.99042329547228 49.79571924568154,158.23641747501097" stroke="#4dd2ff" stroke-linecap="round" stroke-linejoin="round" stroke-width="0.5"><title>2021-04-25 2.2km</title></polyline><polyline fill="none" points="75.17996182816569,161.57142857142026 74.49750975635834,156.48881911006174 74.8740350373555,153.59601522693993 74.49750975635834,148.21585946154664 74.85050220729318,138.83412898430834 74.56810824654531,138.42857142855064 73.97978749487083,138.83412898430834 73.39146674319636,148.4051129653235 73.626795043936,157.81355087601696 74.56810824654531,158.08390351053094 74.63870673661586,157.84058615152026 74.7563708871603,153.21751526230946 74.45044409611728,156.81324380839942" stroke="#4dd2ff" stroke-linecap="round" stroke-linejoin="round" stroke-width="0.5"><title>2021-04-18 2.2km</title></polyline><polyline fill="none" points="111.57142857136205,153.29425466191606 107.42693409731146,152.8753354504588 94.89398280810565,149.10504209555802 89.35693819064181,148.57186632679077 88.42857142852154,147.962521689391 95.02660663111601,147.88635354221333 96.48546868609264,146.70574533808394 99.33688088401686,148.00060575746465" stroke="#4dd2ff" stroke-linecap="round" stroke-linejoin="round" stroke-width="0.5"><title>2021-04-16 1.0km</title></polyline><polyline fill="none" points="137.28571428568102,151.85609610054235 136.60789001785452,152.03683598682983 136.3294979078928,151.4668094044464 135.84533771662973,151.2721656532376 135.22803347272566,151.42510005178337 135.01016138668638,151.2443593810749 134.7075612671324,150.82726464112056 135.24013747752178,149.8818453278509 135.05857740575448,149.18668002246704 134.69545726239448,149.03374319522118 131.87522414821433,149.2283900375187 129.4665271966369,149.01983983903483 128.2924387328094,149.29790670175862 127.79617453675019,149.10325995543099 126.99731022113701,149.18668002246704 126.80364614463178,149.01983983903483 125.23012552293949,149.20058336216607 124.67334130301606,149.0059364814806 124.03182904957794,149.18668002246704 123.39031679613981,148.92251630745886 122.03466826060321,149.1727766814147 120.92109982063994,148.72786904277746 120.0011954572401,148.83909608410613 119.48072325164685,148.19953939794505 118.53661087859655,148.25515313800133 117.67722653911915,147.99098767715623 117.32621040049708,148.15782907845278 116.8420502091758,147.68511126183148 116.12791392707732,147.93537383283547 115.0869695157744,147.58778680866817 114.48176927672466,147.90756690247508 114.9054094441235,147.60169030608085 115.00224148231791,148.07440840247727 114.14285714284051,148.03269804599404 114.86909742973512,147.768532168222 114.51808129111305,147.85195302522334 114.89330543932738,147.82414607839019 114.5907053197734,147.9492772959784 114.78436939627863,148.15782907845278 114.57860131497728,147.99098767715623 114.86909742973512,147.89366343518486 114.78436939627863,147.74072520490154 114.5422893006471,147.82414607839019 114.62701733410358,148.03269804599404 115.00224148231791,147.87975996655587 114.82068141060881,147.81024260287813 114.79647340107476,148.00489113479853 114.89330543932738,147.7546286872821 114.76016138674458,148.00489113479853 114.84488942014286,147.81024260287813 114.9054094441235,147.96318075773888 114.7238493724144,147.46265527012292 114.83278541546315,147.82414607839019 114.7722653914825,147.58778680866817 114.79647340107476,147.82414607839019 114.55439330538502,147.64340079014073 114.63912133889971,147.51826930095558 114.7238493724144,147.64340079014073 114.5422893006471,147.7129182361241 114.78436939627863,147.83804955247615 114.5907053197734,147.7268217212113 114.82068141060881,147.51826930095558 114.65122534369584,147.81024260287813 114.45756126719061,147.81024260287813 114.65122534369584,147.44875175897323 114.46966527192853,147.5738833098876 114.76016138674458,147.82414607839019 114.55439330538502,147.69901474965445 114.5907053197734,147.82414607839019 114.65122534369584,147.7129182361241 114.71174536756007,148.29686342869536 114.5907053197734,149.60377961714403 115.76479378360091,149.8540387814719 115.86162582185352,150.07649099895207 116.91467423789436,149.97916819700913 117.5198744770023,150.20162021700526 122.34937238495331,150.41016866694554 127.11835026898189,151.0219090066821 129.40600717271445,151.10532793823222 130.4227435744251,151.32777818097384 131.59683203825261,151.92561146889057 133.43664076499408,151.71706526105118 133.63030484155752,152.0507390454295 133.88448894198518,151.93951453841873 135.61536162579432,152.3009938653704 135.9179617453483,152.55124824102677 136.4626419605338,152.4261211087287 136.63209802744677,151.9117083979363 137.11625821876805,151.71706526105118" stroke="#4dd2ff" stroke-linecap="round" stroke-linejoin="round" stroke-width="0.5"><title>2021-04-09 4.9km</title></polyline><polyline fill="none" points="162.53283052355982,151.23832400713582 155.2737355811987,149.1331830608833 154.44720496912487,148.34891215793323 149.34427684126422,148.76168650068576 145.64285714295693,148.39018961059628 146.3256433007773,148.80296391260345 146.0022182785906,148.96807351932512 139.85714285704307,147.5646397852979 144.96007098490372,149.09190568162012 152.29103815439157,149.71106594376033 162.4609582964331,152.4353602147021 161.0953859805595,151.89875820017187 163.0,151.65109549998306 162.49689440988004,151.0319381080044" stroke="#4dd2ff" stroke-linecap="round" stroke-linejoin="round" stroke-width="0.5"><title>2021-04-09 1.4km</title></polyline><polyline fill="none" points="166.4918831170071,148.71620352956234 167.6095779222669,149.66018206757144 175.69642857159488,152.7564153354615 179.27962662349455,152.60538014720078 182.40259740280453,153.247279285657 188.18831168860197,152.60538014720078 188.71428571431898,151.96347993260133 186.380275974283,151.35933757101884 183.58603896119166,151.92572106292937 180.69318181835115,150.8307122225524 178.2934253248386,151.01950707368087 174.21712662349455,148.9427585908852 173.69115259754471,147.96101902311784 171.3571428572759,147.05479564901907 169.5819805196952,146.75272071437212 165.57142857147846,147.7344633806788" stroke="#4dd2ff" stroke-linecap="round" stroke-linejoin="round" stroke-width="0.5"><title>2021-04-08 1.4km</title></polyline><polyline fill="none" points="34.278293135459535,177.75235782240634 34.428571428521536,178.5463806631451 32.474953617784195,178.58090335456654 27.30538033391349,176.82024175437982 19.49090909084771,176.44049005192937 15.373283858876675,174.99052521688282 11.285714285681024,175.61193945314153 15.162894248496741,175.1631403931824 19.280519480467774,176.40596714953426 26.944712430471554,176.7511960209522" stroke="#4dd2ff" stroke-linecap="round" stroke-linejoin="round" stroke-width="0.5"><title>2021-04-06 1.3km</title></polyline><polyline fill="none" points="44.06757912738249,173.3106607530499 46.97775876801461,172.4017847928917 48.178785286610946,173.36412399582332 48.178785286610946,174.37992457667133 47.39349871687591,174.80762949713971 48.77929854555987,176.30459397862433 50.21129170199856,176.4649827774847 52.059024807298556,175.60957528511062 54.13772455067374,172.9898811817984 55.98545765597373,173.68490333872614 57.5098374679219,172.7760280255461 60.09666381496936,173.09680772718275 60.09666381496936,169.83553830580786 59.81950384937227,171.8136877460638 58.29512403765693,171.5463706891751 60.1428571427241,171.8671511412249 60.050470487447456,173.25719750468852 56.077844311250374,173.63144012837438 54.13772455067374,172.93641790095717 50.99657827196643,176.89268600166542 51.73567151394673,176.25113103486365 48.27117194165476,176.19766808568966 47.57827202719636,175.02148182695964 48.594525235239416,175.02148182695964 48.502138579962775,174.48685083934106 47.30111206136644,172.34832145209657 46.79298545746133,173.09680772718275 45.776732249651104,172.9898811817984 44.48331907577813,175.7699642960215 40.187339606229216,178.01540530950297 38.80153977731243,180.5816118667717 38.616766466759145,178.60349541861797 38.24721984565258,181.11623665632214 37.92386655230075,179.94006140186684 38.24721984565258,180.74199936079094 37.97005987982266,180.04698653373634 39.86398631287739,181.00931174191646 41.38836612459272,183.3081926088198 43.37467921269126,183.14780589792645 43.92899914435111,182.02509755053325 42.727972625987604,181.49047368543688 43.79041916155256,181.49047368543688 43.28229255764745,182.13202225847635 42.820359281031415,181.70432329678442 43.37467921269126,182.34587160876254 43.51325919572264,181.8112480698037 43.74422583379783,183.04088139667874 42.95893926406279,183.7358902656706 40.418306244304404,183.52204148081364 38.0624465350993,180.74199936079094 38.47818648372777,178.33618181425845 38.75534644955769,180.26083673210815 37.0,181.2766239870689 37.50812660390511,180.42122432397446 37.18477331032045,181.49047368543688 38.47818648372777,180.5816118667717 38.66295979451388,178.22925633442355" stroke="#4dd2ff" stroke-linecap="round" stroke-linejoin="round" stroke-width="0.5"><title>2021-04-05 1.9km</title></polyline><polyline fill="none" points="80.9146811584942,182.874352177736 80.00714402715676,183.33125652201124 80.36226725240704,182.78297119712806 80.99359743087552,182.78297119712806 81.1317009072518,182.39460161403986 80.42145445675123,186.62094031469314 78.90231621498242,187.7174908529705 78.8233999426011,188.35714285714494 78.76421273848973,187.7174908529705 80.48064166097902,186.68947488044796 81.05278463510331,184.45066823037632 81.44736599654425,180.88680744508747 80.46091259282548,180.17859759292332 78.33017324085813,179.7902234983776 77.06751288415398,180.77258020092268 74.42381776229013,181.5264789370558 69.60992515215185,184.4278231493081 68.74184615688864,183.0342688041419 67.73566368524916,183.468327643699 67.26216605131049,183.28556612947432 64.50009652099106,171.4285945227457 64.34226397646125,169.25817536185787 65.74302780965809,175.6094479951571 66.17706730728969,175.79221576709824 71.24743780225981,173.48476171219954 75.15379328094423,172.22821733748424 77.60019772208761,170.8574336230231 81.03305556694977,168.09299430117244 83.06514957861509,165.21428571428987 84.2291645949008,165.80830797379895 84.0910611184081,165.99108373692434 83.61756348470226,165.83115495233505 83.89377043768764,165.60268506214197 83.89377043768764,165.96823677470093 84.0121448461432,165.3513679139287 83.34135653160047,165.55699105607346" stroke="#4dd2ff" stroke-linecap="round" stroke-linejoin="round" stroke-width="0.5"><title>2021-04-05 3.7km</title></polyline><polyline fill="none" points="94.26835781056434,168.39462557143997 97.9452603473328,171.31691999925533 100.9732977305539,179.74976831802633 101.0453938585706,184.00790626066737 102.70360480668023,183.67393545759842 104.3618157543242,185.17680299998028 108.11081441957504,182.42154373251833 111.57142857136205,183.3399645179743 104.50600801082328,181.67010777798714 104.50600801082328,184.4253695734078 104.86648865183815,180.58469907118706 104.72229639533907,184.5923548389692 104.93858477985486,183.256471761968 102.0547396526672,183.84092087624595 104.00133511377499,182.58852940646466 105.01068090787157,184.4253695734078 103.20827770372853,183.256471761968 104.50600801082328,182.92250065220287 104.21762349829078,184.50886221032124 105.01068090787157,184.50886221032124 104.0734312417917,182.83900785335572 105.73164218943566,184.92632526782108 104.0734312417917,183.4234572655405 104.21762349829078,182.0875722822966 105.44325767736882,184.00790626066737 104.28971962630749,182.1710651575122 102.34312416566536,182.0875722822966 101.47797062760219,184.25838427391136 101.69425901211798,183.17297899740515 98.01735647534952,180.41771298879758 99.45927903894335,175.07414037082344 98.01735647534952,175.65859532402828 98.08945260383189,173.48776053875918 93.83578104153275,171.14993202721234 88.42857142863795,171.6508958415361 91.45660881185904,172.73631638777442 92.46595460642129,175.57510178466327" stroke="#4dd2ff" stroke-linecap="round" stroke-linejoin="round" stroke-width="0.5"><title>2021-04-04 1.4km</title></polyline><polyline fill="none" points="128.42936951317824,166.42605263722362 121.25379090174101,169.69365809333976 114.33679169998504,177.71408405760303 120.86592178791761,184.91754192020744 124.67996807675809,180.61032798164524 129.14046288933605,178.753762646229 129.26975259417668,176.30308938998496 133.40702314442024,173.25830240885261 127.33040702319704,165.53488505014684 122.22346368734725,168.95102173567284 114.14285714295693,178.15966077148914 120.73663208307698,184.1006584125571 124.61532322433777,179.57065195811447 130.9505187550094,178.53097449807683 132.82521947356872,177.11998136213515 133.7948922587093,173.40682888880838 133.53631284926087,172.738459497632 132.7605746211484,174.22372400481254 130.49800478853285,175.33767046168214 130.43335993634537,174.66930278541986 137.28571428591385,170.1392395562725 134.7645650440827,168.80249437619932 132.11412609741092,165.53488505014684 130.62729449314065,167.98559337487677 126.10215482860804,166.05473293748219 117.18116520345211,174.0751976860338 114.40143655217253,178.01113522954984 120.86592178791761,184.1006584125571 124.67996807675809,180.09049014939228 125.26177174784243,180.5360654562246 123.64565043896437,182.76393803261453 132.50199521146715,184.62049347464927 135.34636871539988,188.03654352127342 129.33439744613133,177.04571849212516 129.98084596986882,175.04061823431402 133.14844373543747,172.36714291304816 129.65762170800008,170.21350310766138 127.71827613725327,166.50031655514613 126.36073423805647,165.9804689756129 125.19712689542212,166.79737215361092 125.77893056697212,167.31721916876268" stroke="#4dd2ff" stroke-linecap="round" stroke-linejoin="round" stroke-width="0.5"><title>2021-04-02 3.1km</title></polyline><polyline fill="none" points="154.05471124628093,185.72942619532114 151.34650455939118,184.78677636021166 146.23784194537438,184.6925111721357 140.6983282675501,183.96195470365637 140.226443769061,183.51419318340777 139.8571428571595,181.27537299469986 140.39057750767097,180.8511731212202 141.4984802432591,180.80403975537047 140.49316109437495,177.66965006171085 140.7393617022317,173.42755340767326 142.27811550162733,171.23577395551547 142.89361702138558,169.75100870768074 145.82750759879127,167.72417140823381 147.0174772037426,169.0204065471189 148.12537993933074,169.25608490752347 148.6998480244074,169.939550837953 151.12082066875882,169.939550837953 154.85486322198994,170.52874403604073 156.6603343465831,171.47145013038244 159.6557750760112,174.13457474780444 162.48708206682932,179.03653182649578 162.5691489361925,179.67283618729562 161.91261398175266,180.23843864086666 161.64589665655512,181.13397312052257 162.22036474163178,181.11040646670153 163.00000000011642,183.1135637434054 162.48708206682932,184.17405197306653 160.70212765957695,184.50398068447248 160.27127659576945,185.04600543562265 159.26595744676888,184.55111332028173 158.8351063830778,184.73964377082302 157.76823708205484,184.40971538484155 157.25531914888415,185.847257163201 157.0911854103906,185.68229379189142" stroke="#4dd2ff" stroke-linecap="round" stroke-linejoin="round" stroke-width="0.5"><title>2021-04-02 3.2km</title></polyline><polyline fill="none" points="167.99621068604756,174.8290596564475 175.82303903007414,178.31931194654317 180.05873436911497,178.28405704320176 182.6369837060338,178.88338992578792 186.1053429330932,178.03727262315806 188.71428571431898,178.07252755062655 182.8211443729233,178.84813507826766 180.2428950361209,178.2488021365425 176.06858658592682,178.4603315248387 170.66654035635293,176.9091131039895 165.57142857147846,174.68803864566144" stroke="#4dd2ff" stroke-linecap="round" stroke-linejoin="round" stroke-width="0.5"><title>2021-04-01 1.4km</title></polyline><polyline fill="none" points="11.285714285681024,200.65650893500424 13.899228431051597,203.31040054565528 16.967266775667667,203.96299439755967 20.565583352930844,205.8337580889056 25.489595510996878,205.7467460001062 28.216740706004202,206.48634820783627 34.42857142863795,205.7467460001062 30.072714519454166,206.39933624776313 24.807809212012216,205.6162278347765 20.111059153685346,205.8337580889056 13.06593406596221,203.91948817073717 12.346270750509575,203.52793193684192 13.179565115831792,203.1798816593655" stroke="#4dd2ff" stroke-linecap="round" stroke-linejoin="round" stroke-width="0.5"><title>2021-03-29 1.2km</title></polyline><polyline fill="none" points="48.14940114389174,215.1428571428405 47.07088660611771,209.06122434331337 46.320615622913465,208.84594406792894 42.663044581888244,203.57155087549472 40.2246638876386,203.35626844118815 47.821157588623464,192.0 50.35332215577364,193.56082811160013 55.32386741694063,198.62003346602432 54.80805611633696,202.2260342721711 56.91819325555116,214.6046622749418 50.21264634653926,210.13762444985332 47.77426565205678,209.6532446637866 47.5398059701547,210.67582370952005" stroke="#4dd2ff" stroke-linecap="round" stroke-linejoin="round" stroke-width="0.5"><title>2021-03-28 1.4km</title></polyline><polyline fill="none" points="74.00087912101299,199.379507933103 75.31824175827205,200.15655635067378 75.63868131884374,199.502199885319 76.92043956066482,199.42040525449556 77.20527472556569,198.76604762728675 77.59692307701334,199.21591860699118 78.20219780225307,198.76604762728675 80.08923076931387,199.82937824717374 81.1929670330137,199.01143185855472 84.43296703300439,199.9929673311126 84.21934065967798,199.17502126528416 85.75032967049628,199.33861060769414 84.61098901112564,198.92963713093195 84.89582417602651,198.2752787291247 84.96703296713531,199.17502126528416 84.78901098924689,198.76604762728675 84.3973626375664,199.2977132780943 84.4685714286752,198.6433554571413 84.96703296713531,199.33861060769414 84.43296703300439,199.17502126528416 85.50109890126623,199.05232921626884 85.50109890126623,199.46130257184268 85.03824175824411,198.88873976102332 84.29054945078678,199.2977132780943 85.78593406593427,199.05232921626884 85.32307692314498,198.68425285126432 85.18065934069455,199.91117279726313 84.53978022001684,199.379507933103 84.4685714286752,199.82937824717374 85.35868131858297,199.25681594459456 84.96703296713531,199.2977132780943 85.8571428572759,200.40193975897273 85.75032967049628,199.21591860699118 85.21626373636536,199.2977132780943 85.50109890126623,199.87027552415384 84.71780219790526,200.1156591019244 84.61098901112564,199.66578909853706 84.18373626377434,200.2792480729695 82.68835164839402,200.07476184910047 82.68835164839402,199.25681594459456 83.04439560440369,206.29109799026628 79.02109890128486,207.1908231319685 75.74549450562336,206.12751139121247 75.99472527485341,206.65916760251275 74.9978021979332,206.12751139121247 69.22989010997117,205.84123468736652 66.34593406622298,206.7000642058556 66.0967032967601,208.17233924171887 65.42021978041157,208.70399283096776 63.10593406599946,208.86757841374492 62.714285714318976,208.21323569581727" stroke="#4dd2ff" stroke-linecap="round" stroke-linejoin="round" stroke-width="0.5"><title>2021-03-26 1.5km</title></polyline><polyline fill="none" points="90.87456446001306,202.1049270813528 98.21254355402198,205.09968118922552 100.79293180687819,204.91443949838867 103.05077152815647,205.40841709711822 106.30313588841818,204.76007133896928 107.59333001484629,204.91443949838867 111.57142857136205,203.49424955999712 108.05027376802173,204.91443949838867 103.5077152812155,205.28492277048645 101.11548033845611,204.79094497693586 98.45445495285094,205.0070603575441 92.72921851661522,203.61774459303706 88.42857142852154,201.7344400457223" stroke="#4dd2ff" stroke-linecap="round" stroke-linejoin="round" stroke-width="0.5"><title>2021-03-26 1.6km</title></polyline><polyline fill="none" points="137.28571428591385,205.62492482137168 135.51758428337052,205.39926684994134 132.88503516861238,203.7293944018311 130.6454038321972,203.77452616984374 127.4234780499246,202.5108349857619 119.56512248353101,202.73649438176653 120.7438758185599,203.3232082904142 120.27237448468804,203.45860370088485 114.14285714295693,201.51793232149794 119.09362114965916,203.4134719017602 126.12684938148595,203.86478969233576 132.1384913898073,205.30900363012915" stroke="#4dd2ff" stroke-linecap="round" stroke-linejoin="round" stroke-width="0.5"><title>2021-03-24 1.1km</title></polyline><polyline fill="none" points="163.0,205.26895937227528 161.33346273284405,205.16060682866373 159.69836956530344,203.9326090940449 157.088509316789,203.49919714560383 154.950310559012,202.52401838634978 148.40993788826745,202.66848947745166 148.9759316771524,203.28249097903608 143.8505434783874,201.87389777059434 139.8571428571595,202.3795472381462 141.42934782605153,202.59625393897295 143.97631987580098,201.91001561292796 148.69293478270993,203.3547263822402 157.27717391308397,203.7159031839401" stroke="#4dd2ff" stroke-linecap="round" stroke-linejoin="round" stroke-width="0.5"><title>2021-03-23 1.3km</title></polyline><polyline fill="none" points="188.25265957438387,204.72028139748727 180.46656534948852,201.99839409301057 177.29673252278008,202.5286335006822 174.1576747719664,202.1751406493422 175.01937689969782,202.74072904419154 174.6808510638075,202.84677676894353 169.72606382961385,201.3621057680284 165.57142857147846,201.9630447711388 169.41831306985114,201.43280452661566 174.06534954404924,202.7760782892001 180.22036474163178,203.20026895785122 188.71428571431898,205.7807513748412 187.3294072947465,205.10912075347733 188.71428571431898,204.72028139748727" stroke="#4dd2ff" stroke-linecap="round" stroke-linejoin="round" stroke-width="0.5"><title>2021-03-22 1.6km</title></polyline><polyline fill="none" points="30.99344190605916,218.9288253129198 31.3121652638074,219.1523246364377 31.135096731828526,219.86345724125567 32.7464203737909,220.10727357154246 33.17138485063333,220.4526795476122 33.02973002498038,221.08253601926845 33.66717674047686,221.50921189438668 34.428571428521536,222.82986973981315 33.96819324500393,224.04893103739596 33.295332823181525,224.33337763986492 33.04743687831797,225.06480996473692 29.77166903472971,227.90924442376127 26.15947098028846,229.3111298778531 25.02623237494845,230.04254460487573 24.15859656780958,230.7739567461831 21.62651655904483,234.2684457350406 11.285714285681024,241.78546040135552" stroke="#4dd2ff" stroke-linecap="round" stroke-linejoin="round" stroke-width="0.5"><title>2021-03-21 1.3km</title></polyline><polyline fill="none" points="47.49083633546252,228.34655612187635 47.19708310626447,226.4681330274907 45.18277524912264,223.96354649352725 44.36446268216241,223.72271951571747 41.59478937834501,226.25139097425563 38.846098448266275,229.7433229310991 38.15368012234103,229.93597979696642 37.39831467589829,231.98294963951048 38.67823946021963,233.81316701477044 41.72068361949641,235.25806581016514 45.01491626095958,237.9311061151966 44.82607489929069,238.07559394951386 45.266704743145965,238.02743134753837 44.86803964653518,237.81069952159305 45.37161661067512,238.65354443434626 46.483682406833395,239.9780091530556 50.70113948290236,241.9285714285652 52.883306328207254,241.71184305369388 58.023987838765606,238.1237565419724 58.71640616480727,236.67887464862724 59.74454246694222,232.05519532147446 58.71640616480727,230.27312894770876 54.87663181195967,226.7330397209589 50.72212185652461,221.50710020892438 47.63771295000333,218.78571428571013 44.17562132049352,223.60230593796587 44.80509252590127,223.67455409171816 45.665369839873165,224.46928237644897 47.3439597209217,226.61262762307888 47.32297734741587,227.28693460885552" stroke="#4dd2ff" stroke-linecap="round" stroke-linejoin="round" stroke-width="0.5"><title>2021-03-20 3.7km</title></polyline><polyline fill="none" points="83.57705840957351,236.18444657346117 75.67276565800421,233.6527601929265 67.31245601712726,233.3908607751655 62.8282899367623,232.43056158415857 62.714285714318976,230.85915841310634 63.36030964110978,230.16075521256425 62.752287121955305,228.98219731246354 62.9042927515693,226.93062607294996 65.29838142148219,224.5298391408287 69.25052779749967,225.0099975692574 73.27867698809132,226.36316851896117 80.87895847996697,226.18856604839675 84.94510907819495,225.53380616972572 85.43912737513892,224.9663468245417 84.71710063354112,226.6250720959215 84.26108374376781,232.2559615074424 84.64109781873412,235.1368539656687 85.8571428572759,235.3551026301575" stroke="#4dd2ff" stroke-linecap="round" stroke-linejoin="round" stroke-width="0.5"><title>2021-03-19 1.6km</title></polyline><polyline fill="none" points="97.8074245940661,230.12072870226984 102.83692409680225,232.27938580149203 104.78786874387879,232.15603456941608 106.48823334439658,232.52608804662304 108.27809081866872,232.13547602368635 109.22671528009232,232.21771019458538 111.57142857136205,231.51871870773903 107.22207490890287,232.5055295373022 104.9847530660918,232.15603456941608 102.47895260201767,232.2588272678986 92.47364932054188,229.07223004521802 88.42857142852154,228.64049377107585 89.30560159101151,228.76384708344995 88.7149486244889,228.51714038562204 88.89393437188119,228.41434584201488 90.2542260523187,228.49658148099843 92.06198210141156,228.18819766766683 92.67053364263847,228.64049377107585 93.02850513753947,228.41434584201488 93.4580709313741,228.8255237123376 93.8339410009794,228.70217043644516 94.31720251915976,229.11334773898125 94.92575406038668,228.88720032288984 96.17865429236554,229.79178851486358 96.42923433869146,229.48340661777183 95.78488564805593,228.51714038562204 95.5343056016136,228.5376992882957 95.62379847525153,229.23670077153656 96.78720583359245,229.8123472918087 97.27046735165641,228.66105266156956 97.53894597291946,229.2161419378681 97.89691746770404,229.1544654245663 97.52104739809874,229.25725960324053 97.73583029501606,229.19558310210414 97.21677162742708,228.476022574323 97.9864103414584,228.41434584201488" stroke="#4dd2ff" stroke-linecap="round" stroke-linejoin="round" stroke-width="0.5"><title>2021-03-19 3.1km</title></polyline><polyline fill="none" points="123.88159396132687,241.9285714285652 123.75161582278088,241.52546807244653 123.50465735967737,241.48067874439585 123.14071857178351,241.8240632541274 123.58264424273511,239.30091542800074 123.41367266263114,239.91304391274753 123.4916595457471,241.03278473486716 123.24470108264359,241.22687230171869 121.84093718673103,241.1970126922388 121.67196560662705,240.3012216691277 121.78894593130099,239.50993518896576 125.19437316025142,238.74850467036595 127.48198839800898,238.59920411957137 127.40400151489303,224.16114505915903 128.1708725321223,223.17566371365683 129.7566058219527,221.77208829247684 129.4706539171748,221.0553639066202 127.53397965343902,218.78571428571013" stroke="#4dd2ff" stroke-linecap="round" stroke-linejoin="round" stroke-width="0.5"><title>2021-03-18 2.7km</title></polyline><polyline fill="none" points="147.7060669552302,240.01886642799946 148.35399055818561,240.131202725388 148.4517903472879,240.67884090576263 148.6962898200727,240.8192606126686 150.01658697315725,241.0860576742998 151.72808328276733,240.93159627846035 152.9139057258144,241.2686027441232 154.01415335340425,241.9285714285652 154.29532774706604,241.04393185566005 154.13640308979666,237.29468407812237 155.1510759019293,237.19638786430005 153.69630403874908,236.78915996958676 152.2904320701491,236.71894814589177 151.66695841454202,236.04491287627025 150.4322360769147,223.27976736726123 151.77698317728937,221.70686493214453 152.7305311211967,221.15915375344048 152.0459325973643,219.93732891215768 150.8723351279623,218.78571428571013" stroke="#4dd2ff" stroke-linecap="round" stroke-linejoin="round" stroke-width="0.5"><title>2021-03-17 2.8km</title></polyline><polyline fill="none" points="166.35106382984668,229.1081994283304 166.638297872385,229.1081994283304 168.0744680853095,229.72090058031608 168.48480243165977,230.23933940310962 172.75227963528596,231.41760736316792 177.26595744676888,232.03030555442092 178.78419452882372,231.93604434552253 179.85106382984668,232.17169733328046 180.38449848024175,232.3602196397551 182.51823708205484,232.69013349735178 184.2826747719664,233.39709099684842 184.85714285704307,233.53848237119382 185.84194528893568,234.05691705274512 186.66261398186907,234.57535117174848 186.990881459089,234.66961186027038 187.36018237099051,234.85813318155124 188.2629179332871,235.09378472852404 188.71428571431898,235.0466544284718 188.6732522798702,235.0466544284718 188.6732522798702,235.0466544284718 188.55015197582543,235.09378472852404 188.63221884518862,235.0466544284718 188.6732522798702,235.0466544284718 188.71428571431898,235.09378472852404 188.46808510646224,235.0466544284718 187.93465045606717,235.0466544284718 186.12917933124118,235.09378472852404 184.8981762919575,234.71674219763372 183.70820668688975,234.48109046471654 182.51823708205484,234.38682973908726 181.32826747721992,234.43396010412835 180.7127659576945,234.48109046471654 179.52279635262676,234.57535117174848 178.98936170199886,234.57535117174848 177.14285714295693,234.43396010412835 176.56838905788027,234.2925689946278 175.4604863221757,234.0097866503056 174.88601823709905,233.7270041386655 173.77811550162733,233.34996052924544 173.20364741655067,233.1614386131696 170.8647416413296,232.69013349735178 169.34650455927476,232.07743615205982 169.2234042554628,231.79465249695932 169.71580547117628,231.70039124137838 169.92097264435142,231.70039124137838 170.0851063830778,231.5118686746282 169.92097264435142,231.46473802119726 169.5106382977683,231.37047670056927 169.30547112459317,231.3233460333431 169.18237082078122,231.27621536140214 168.93617021292448,231.27621536140214 168.7720364741981,231.18195400355035 168.56686930102296,231.18195400355035 168.361702127615,231.18195400355035 168.0744680853095,231.08769262718852 167.86930091190152,230.99343123225844 167.74620060785674,230.94630052775028 167.33586626150645,230.71064693579683 167.21276595746167,230.61638546639006 167.00759878428653,230.47499322742806 166.88449848024175,230.380731711688 166.7613981764298,230.23933940310962 166.59726443770342,230.05081625989988 166.3100303951651,229.815162226354 166.06382978730835,229.6737697503413 165.94072948326357,229.57950807645102 165.73556231008843,229.34385381051106 165.65349544072524,228.91967583892983 165.65349544072524,228.54262843704782 165.61246200627647,228.30697365969536 165.57142857136205,228.11844975422719 165.69452887540683,227.74140172023908 165.65349544072524,227.2229601876461 165.65349544072524,226.9873047596775 165.61246200627647,226.845911447017 165.69452887540683,226.7045180926798 165.65349544072524,226.65738696529297 165.69452887540683,226.32746894311276 165.73556231008843,226.09181307346444 165.94072948326357,226.04468188565806 166.35106382984668,225.90328829412465 166.55623100302182,225.8090258765733 166.6793313070666,225.76189466088545 166.92553191492334,225.66763221553992 166.96656534960493,225.66763221553992 166.96656534960493,225.62050098579493 167.00759878428653,225.62050098579493" stroke="#4dd2ff" stroke-linecap="round" stroke-linejoin="round" stroke-width="0.5"><title>2021-03-02 1.4km</title></polyline><polyline fill="none" points="15.537541528232396,257.4828915896942 15.806644518394023,257.60652762424434 18.76677740854211,258.1628894788446 20.650498338975012,258.8428866302129 21.350166112883016,259.15197600075044 23.233887043083087,259.6465186763671 23.93355481699109,259.6465186763671 25.92491694353521,259.52288304426474 26.57076411950402,259.3374295498361 28.562126245582476,259.21379385649925 29.799999999813735,259.6465186763671 30.445847176015377,259.89378986804513 31.57607973436825,260.3265142185264 32.65249169431627,260.51196742011234 33.998006644425914,260.3883319586166 34.21328903618269,260.26469647255726 34.42857142840512,260.3883319586166 34.37475083046593,261.25377967813984 33.405980066396296,261.5010502357036 32.598671096377075,262.1810437658569 32.22192691010423,262.3046788741485 31.845182724064216,262.4283139578183 31.629900332074612,262.4283139578183 31.30697674397379,262.4901314903982 31.09169435221702,262.6137665374554 30.33820597990416,262.9228540487238 30.445847176015377,263.2319414073718 30.82259136205539,263.47921118466184 30.82259136205539,263.5410286138649 30.82259136205539,263.60284603672335 30.876411959994584,263.5410286138649 30.607308970065787,263.47921118466184 30.284385381964967,263.60284603672335 30.17674418608658,263.6646634535282 30.069102989742532,263.72648086445406 30.01528239180334,263.7882982690353 30.01528239180334,263.7882982690353 29.799999999813735,263.47921118466184 29.69235880393535,263.3555763082113 29.530897009652108,263.1701239479007 29.477076411712915,263.0464890105068 28.93887043185532,262.9228540487238 28.723588039632887,262.9228540487238 28.45448504970409,262.9228540487238 28.185382059775293,262.86103655869374 27.862458471674472,262.86103655869374 27.593355481745675,262.86103655869374 27.05514950165525,262.7374015604146 26.786046511493623,262.6755840519909 26.516943521797657,262.6137665374554 26.2478405314032,262.5519490170409 25.709634551545605,262.4283139578183 25.49435215932317,262.3046788741485 25.225249169394374,262.2428613230586 24.956146179465577,262.119226202718 24.68704318907112,261.99559105804656 24.471760797314346,261.8101382954046 23.987375415163115,261.5628678597277 23.502990033011883,261.31559732655296 23.1262458472047,260.9446913438733 22.857142856810242,260.82105596771 22.588039866881445,260.69742056692485 22.31893687718548,260.5737851418671 22.04983388679102,260.4501496924204 21.88837209320627,260.3883319586166 21.457807308994234,260.20287872024346 21.24252491700463,260.1410609620507 21.027242524782196,260.0792431976297 20.811960132792592,259.9556076506851 20.542857142863795,259.89378986804513 20.273754152702168,259.83197207935154 19.68172757467255,259.77015428437153 19.466445182682946,259.70833648351254 19.19734219252132,259.6465186763671 18.874418604420498,259.6465186763671 18.659136212430894,259.58470086334273 18.12093023234047,259.52288304426474 17.851827242411673,259.3992473874241 17.367441860260442,259.028340270801 16.829235880402848,258.8428866302129 16.613953488413244,258.78106873785146 16.344850498484448,258.7192508394364 16.021926910383627,258.6574329348514 15.806644518394023,258.59561502427096 15.537541528232396,258.47197918442544 15.053156146081164,258.22470743209124 14.784053156152368,258.1010715193115 14.568770763929933,257.9774355820846 14.03056478407234,257.6683456324972 13.86910299002193,257.54470960999606 13.653820597799495,257.4210735632223 13.169435215881094,257.1119833391858 12.95415282389149,256.9265291317133 12.685049833729863,256.55562055198243 12.30830564768985,256.1228935983381 11.662458471721038,255.62834814260714 11.662458471721038,255.4428934963653 11.554817275842652,255.13380229682662 11.447176079964265,254.8865292276023 11.285714285681024,254.08289107889868 11.447176079964265,253.77379920892417 11.500996677670628,253.464707186562 11.554817275842652,253.21743345883442 11.608637874014676,253.03197809914127 11.608637874014676,252.72288571088575 11.608637874014676,251.91924478829606 11.608637874014676,251.36287739221007 12.200664451811463,251.11560283537256 12.63122923579067,250.8683281810372 13.007973422063515,250.74469081725692 13.277076411992311,250.68287212622818 13.384717607870698,250.55923472589348 14.138205979950726,250.49741601670394" stroke="#4dd2ff" stroke-linecap="round" stroke-linejoin="round" stroke-width="0.5"><title>2020-12-25 1.0km</title></polyline><polyline fill="none" points="37.34801288950257,254.46970547479577 37.60902255657129,254.71953398990445 37.82653061230667,254.96936238187482 38.30504833511077,255.26915628972347 40.17561761545949,255.76881240849616 41.176154672401026,256.06860584329115 41.828678840072826,256.2185024942446 44.87379162199795,257.4176741045958 45.74382384540513,258.0172588455607 46.74436090234667,258.4669469354558 48.22341568209231,259.0165651703137 48.78893662733026,259.11649569429574 49.83297529560514,259.11649569429574 50.44199785171077,259.11649569429574 51.486036519752815,258.91663462657016 52.443071965826675,258.8167040629196 53.530612244969234,258.8666693471896 54.13963480130769,258.8167040629196 55.83619763702154,259.11649569429574 56.40171858225949,259.31635668332456 57.48925886140205,259.5162175935693 58.09828141820617,259.46625237332773 59.18582169734873,259.416287148284 59.66433942015283,259.3663219183218 60.14285714295693,259.56618280886323 60.09935553162359,259.6161480190931 59.96885069855489,259.6661132244044 59.92534908722155,259.7160784249427 59.92534908722155,259.7660436203878 59.88184747588821,259.7160784249427 59.79484425368719,259.81600881091435 59.79484425368719,259.7160784249427 59.83834586502053,259.7660436203878 59.88184747588821,259.81600881091435 59.83834586502053,259.7660436203878 59.92534908722155,259.6661132244044 59.88184747588821,259.6661132244044 59.83834586502053,259.6661132244044 59.83834586502053,259.7160784249427 59.83834586502053,259.6661132244044 59.83834586502053,259.6661132244044 59.83834586502053,259.6661132244044 59.83834586502053,259.7160784249427 59.79484425368719,259.7160784249427 59.79484425368719,259.7160784249427 59.75134264235385,259.7160784249427 59.70784103148617,259.7160784249427 59.79484425368719,259.7160784249427 59.79484425368719,259.7160784249427 59.79484425368719,259.7160784249427 59.75134264235385,259.7160784249427 59.75134264235385,259.7660436203878 59.66433942015283,259.7160784249427 58.66380236321129,259.7160784249427 57.53276047273539,259.7160784249427 56.40171858225949,259.46625237332773 55.87969924835488,259.31635668332456 54.79215896897949,259.0165651703137 54.22663802374154,258.91663462657016 53.052094521932304,258.91663462657016 52.486573576927185,258.8666693471896 51.312030075350776,258.96659990079934 50.09398496244103,259.11649569429574 49.52846401743591,259.11649569429574 48.3539205158595,259.066530434764 47.74489795928821,258.91663462657016 45.00429645553231,258.0172588455607 44.43877551029436,257.81739734398434 42.829215897014365,257.4176741045958 42.394199785077944,257.3677086775424 40.65413533849642,257.0679160114378 39.65359828132205,256.61822667971137 39.08807733631693,256.318433570239 38.00053705717437,255.71884681881056 37.0,255.3690875529137" stroke="#4dd2ff" stroke-linecap="round" stroke-linejoin="round" stroke-width="0.5"><title>2020-12-08 1.1km</title></polyline><polyline fill="none" points="62.714285714318976,254.75732605491066 62.936813186854124,254.79992505762493 64.42032967018895,255.9500965391926 64.90247252746485,256.12049205377116 66.7939560438972,256.6742770120618 67.68406593403779,256.9298698302882 68.12912087910809,257.1002649583097 69.16758241760544,257.48365375094 70.09478021971881,257.9522395907843 70.57692307699472,258.2504303151509 72.95054945047013,259.0598041006888 73.46978021995164,259.1024026789237 74.95329670328647,258.93200834063464 75.39835164835677,258.8894097454613 77.7348901098594,258.93200834063464 78.21703296690248,258.9746069314715 79.66346153849736,259.40059260939597 81.14697802183218,259.52838823079946 81.59203296690248,259.485789694445 82.55631868145429,259.52838823079946 84.03983516478911,259.3153955073212 84.4848901098594,259.2727969500702 85.4120879122056,259.18759982287884 85.85714285704307,259.14500125305494 85.67170329671353,258.8042125427164 84.63324175821617,258.7616139349702 84.18818681314588,258.8042125427164 83.2609890110325,259.0598041006888 82.92719780211337,259.14500125305494 81.9629120877944,259.3579940604395 81.5178571427241,259.40059260939597 80.59065934061073,259.40059260939597 80.10851648356766,259.3153955073212 79.18131868122146,259.14500125305494 78.73626373638399,259.0172055181174 77.28983516478911,258.7616139349702 76.80769230774604,258.7616139349702 75.84340659342706,258.8042125427164 75.32417582394555,258.8042125427164 74.3598901098594,258.8894097454613 73.39560439554043,258.93200834063464 72.46840659342706,258.8894097454613 71.57829670328647,258.6764167070214 71.13324175821617,258.54862083363696 70.16895604413003,258.2504303151509 69.7239010988269,258.0800356406835 68.8337912086863,257.78184479873744 67.64697802183218,257.44105501295417 67.31318681314588,257.3984562708938 66.42307692300528,257.18546249720384 65.19917582417838,256.80207344004884 64.86538461549208,256.54648054629797 64.08653846150264,256.12049205377116 63.67857142863795,255.90749764998327" stroke="#4dd2ff" stroke-linecap="round" stroke-linejoin="round" stroke-width="0.5"><title>2020-12-03 1.3km</title></polyline><polyline fill="none" points="111.32696177065372,257.75124980477267 111.53068410442211,258.50003445113543 111.57142857136205,258.7340294107853 110.87877263571136,259.15522004745435 109.69718309841119,259.108421106328 108.06740442640148,258.8276273623633 106.51911468803883,258.17244131377083 105.98943661968224,258.07884323288454 102.97434607637115,256.90886566552217 101.87424547271803,256.72166898686555 100.20372233376838,256.7684681635292 99.06287726340815,256.72166898686555 98.2479879274033,256.72166898686555 97.75905432575382,256.72166898686555 96.65895372233354,256.6280706200632 96.29225352103822,256.581271429779 95.029175050091,256.4876730349497 94.54024144844152,256.44087383081205 92.8289738430176,256.30047619043035 92.29929577442817,256.20687774042017 91.23993963794783,256.11327927189996 89.85462776664644,255.50488877680618 89.32494969805703,255.3176915445365 88.42857142863795,255.13049423822667 89.44718309841119,255.36449085953063 90.34356136806309,255.7856844868511 91.23993963794783,256.20687774042017 91.76961770607159,256.25367696766625 93.11418511066586,256.3940746219014 93.52162977866828,256.44087383081205 94.58098591538146,256.53447223463445 95.11066398373805,256.581271429779 96.21076458739117,256.581271429779 96.69969818904065,256.6280706200632 97.79979879269376,256.72166898686555 98.28873239434324,256.72166898686555 99.79627766576596,256.7684681635292 100.28521126764826,256.7684681635292 101.01861167000607,256.67486980577814 101.26307847071439,256.67486980577814 101.4260563380085,256.67486980577814 101.58903420506977,256.67486980577814 101.75201207236387,256.67486980577814 101.95573440636508,256.6280706200632 102.1594567403663,256.6280706200632 102.56690140836872,256.67486980577814 102.72987927566282,256.67486980577814 103.09657947695814,256.8152673353907 103.46327967802063,257.002463976969 103.42253521131352,257.09606227008044 103.42253521131352,257.1428614096367 103.38179074437357,257.1428614096367" stroke="#4dd2ff" stroke-linecap="round" stroke-linejoin="round" stroke-width="0.5"><title>2020-11-30 1.0km</title></polyline></svg>