<?xml version="1.0" encoding="utf-8" ?>
<svg baseProfile="full" height="300mm" version="1.1" viewBox="0,0,200,300" width="200mm" xmlns="http://www.w3.org/2000/svg" xmlns:ev="http://www.w3.org/2001/xml-events" xmlns:xlink="http://www.w3.org/1999/xlink"><defs /><rect fill="#222222" height="300" width="200" x="0" y="0" /><text fill="#FFFFFF" style="font-size:12px; font-family:Arial; font-weight:bold;" x="10" y="20">Over 3km Runs</text><text fill="#FFFFFF" style="font-size:4px; font-family:Arial" x="10" y="280">ATHLETE</text><text fill="#FFFFFF" style="font-size:9px; font-family:Arial" x="10" y="290">jdzj</text><text fill="#FFFFFF" style="font-size:4px; font-family:Arial" x="120" y="280">STATISTICS</text><text fill="#FFFFFF" style="font-size:3px; font-family:Arial" x="120" y="285">Number: 33</text><text fill="#FFFFFF" style="font-size:3px; font-family:Arial" x="120" y="290">Weekly: 3.0</text><text fill="#FFFFFF" style="font-size:3px; font-family:Arial" x="141" y="285">Total: 63.8 km</text><text fill="#FFFFFF" style="font-size:3px; font-family:Arial" x="141" y="290">Avg: 1.9 km</text><text fill="#FFFFFF" style="font-size:3px; font-family:Arial" x="167" y="285">Min: 1.0 km</text><text fill="#FFFFFF" style="font-size:3px; font-family:Arial" x="167" y="290">Max: 4.9 km</text><polyline fill="none" points="42.327691266080365,45.12712432281114 40.37779282336123,47.926767015247606 39.30534867965616,48.094745137845166 28.678402166813612,45.18311731208814 19.221394719090313,45.12712432281114 20.48882870702073,46.190990172326565 11.714285714318976,43.55931838421384 18.733920108294114,46.02301148645347 29.945836154278368,47.08687565714354 41.49898442765698,50.72639590140898 42.57142857159488,50.50242609845009 41.109004739439115,49.99849371914752" stroke="#4dd2ff" stroke-linecap="round" stroke-linejoin="round" stroke-width="0.5"><title>2021-04-29 1.4km</title></polyline><polyline fill="none" points="60.00081632658839,46.38348503416637 62.51346938800998,44.40853927156422 61.631836734944955,42.838705166534055 63.17469387734309,42.33230604379787 73.71020408160985,32.25485957515775 74.94448979594745,32.10293675735011 79.00000000023283,36.76188271003775 73.84244897938333,40.10414396660053 74.415510204155,40.154784121055854 71.19755102018826,43.64894272363745 72.56408163253218,43.14254440044169 72.8726530612912,41.97782636046759 71.32979591842741,43.243824104982195 63.96816326538101,52.15635983838001 58.98693877574988,55.09341156895971 55.59265306126326,58.08108487658319 55.37224489799701,60.00533983227797 52.59510204079561,62.18277752836002 50.30285714310594,61.01810270050191 48.14285714295693,57.92916970443912 48.3191836734768,54.941495512466645 51.36081632669084,53.52361014904454 52.46285714278929,51.801886941102566 55.50448979600333,50.48527117879712 56.07755102054216,49.16865203855559 57.57632653065957,48.30778385119629 58.017142857192084,46.788601174310315 59.16326530626975,45.92772899434203 60.441632653120905,46.23156639930676 60.706122448900715,45.269413999980316" stroke="#4dd2ff" stroke-linecap="round" stroke-linejoin="round" stroke-width="0.5"><title>2021-04-26 2.2km</title></polyline><polyline fill="none" points="102.77674173552077,57.119403435412096 103.61817862535827,55.959388297836995 104.59424541704357,43.77902195171919 107.89267802448012,31.714285714289872 104.86350522190332,43.58567974969628 102.47382445528638,44.70706319317105 99.00710447027814,44.47505308894324 95.4057545827236,45.0164097850211 93.52093595010228,46.17645732869278 92.20829440210946,48.032526252703974 92.10732197551988,59.400756518763956 93.6219083769247,62.1847626218223 94.63163264421746,62.571428571420256 95.3047821559012,62.223429233941715 98.93978951917961,59.16875511719263 100.18511611560825,60.019426251528785 101.39678523666225,59.13008820349933 101.63238756579813,58.124747109541204" stroke="#4dd2ff" stroke-linecap="round" stroke-linejoin="round" stroke-width="0.5"><title>2021-04-25 2.2km</title></polyline><polyline fill="none" points="137.62090148520656,62.571428571420256 136.71096538938582,55.794615956314374 137.21299909753725,51.937544112151954 136.71096538938582,44.764003091608174 137.18162199063227,32.2550291219668 136.80509670975152,31.714285714289872 136.0206690407358,32.2550291219668 135.23624137195293,45.01634109666338 135.55001243948936,57.560924977588 136.80509670975152,57.921395156910876 136.8992280298844,57.59697201155359 137.05611356382724,51.43287749259616 136.6482111759251,56.22718222075491" stroke="#4dd2ff" stroke-linecap="round" stroke-linejoin="round" stroke-width="0.5"><title>2021-04-18 2.2km</title></polyline><polyline fill="none" points="188.28571428568102,51.535196692100726 182.75972165353596,50.97663774350076 166.0491199346725,45.94957993697608 158.66639377805404,45.238678911933675 157.42857142863795,44.42621939542005 166.2259516986087,44.32466186583042 168.1711011051666,42.750517593638506 171.97298403596506,44.47699815282249" stroke="#4dd2ff" stroke-linecap="round" stroke-linejoin="round" stroke-width="0.5"><title>2021-04-16 1.0km</title></polyline><polyline fill="none" points="42.57142857136205,83.90336622930772 41.6676628809073,84.144352744348 41.296473401016556,83.38431730118464 40.65092647931306,83.12479229956807 39.82785415410763,83.32870483095758 39.53735803934978,83.0877172699984 39.13389121333603,82.53159095007868 39.84399282716913,81.27103186570457 39.60191273147939,80.34414479187399 39.11775254027452,80.14022902220313 35.35744172142586,80.39975814527133 32.14584578596987,80.12169121394982 30.580394500866532,80.49244703091972 29.91870890610153,80.23291803582106 28.85355648532277,80.34414479187399 28.595337716687936,80.12169121394982 26.497310221078806,80.36268257813936 25.7549312611809,80.10315340387751 24.899581589910667,80.34414479187399 24.044231918640435,79.99192650518671 22.236700537905563,80.32560700378963 20.751942617993336,79.73239681895939 19.52540346683236,79.88069954072125 18.831440526002552,79.02795729250647 17.57262402860215,79.10210894591 16.42677824263228,78.74988833145471 15.958756724430714,78.97234353318345 15.313209802727215,78.34205311103142 14.361028093204368,78.67573653902218 12.973102211544756,78.21228717346094 12.166168559459038,78.6386606318847 12.731022115971427,78.23082517001603 12.860131500230636,78.86111596520641 11.714285714260768,78.80550215656694 12.682606096786913,78.45328098619939 12.214584578585345,78.56450879554905 12.714883442909922,78.52743286642362 12.311416616779752,78.69427448988426 12.569635385472793,78.97234353318345 12.295277943776455,78.74988833145471 12.682606096786913,78.62012267547834 12.569635385472793,78.41620503511513 12.246861924650148,78.52743286642362 12.359832635964267,78.80550215656694 12.860131500230636,78.60158471732575 12.618051404657308,78.50889489907422 12.585774058592506,78.76842627496808 12.714883442909922,78.43474301161768 12.537358039466199,78.76842627496808 12.650328750663903,78.50889489907422 12.731022115971427,78.71281243889825 12.488942020339891,78.04544512207212 12.634190077718813,78.52743286642362 12.553496712411288,78.21228717346094 12.585774058592506,78.52743286642362 12.263000597653445,78.28643914876739 12.375971309025772,78.11959716318233 12.488942020339891,78.28643914876739 12.246861924650148,78.37912907675491 12.569635385472793,78.54597083188128 12.311416616779752,78.39766705685179 12.618051404657308,78.11959716318233 12.39210998202907,78.50889489907422 12.133891213336028,78.50889489907422 12.39210998202907,78.02690710721072 12.150029886397533,78.19374917508685 12.537358039466199,78.52743286642362 12.263000597653445,78.36059109478083 12.311416616779752,78.52743286642362 12.39210998202907,78.37912907675491 12.472803347220179,79.15772266683052 12.311416616779752,80.90027758476208 13.876867901941296,81.23395647053258 14.00597728631692,81.53055942717765 15.41004184097983,81.40079569125373 16.216975493123755,81.69739838459645 22.65630603703903,81.97546298449743 29.014943215763196,82.79111677082255 32.06515242072055,82.90234201289422 33.42080095631536,83.19894233654486 34.986252241476905,83.9960533870908 37.43933054379886,83.71799177663343 37.69754931260832,84.16289015581424 38.03646144643426,84.01459081313806 40.344291691551916,84.49656324907846 40.74775851756567,84.83023574994877 41.47399880451849,84.66339957356104 41.69994022708852,83.97751595916634 42.34548714879202,83.71799177663343" stroke="#4dd2ff" stroke-linecap="round" stroke-linejoin="round" stroke-width="0.5"><title>2021-04-09 4.9km</title></polyline><polyline fill="none" points="78.37710736505687,83.07967010472203 68.698314108653,80.27281550969929 67.59627329232171,79.22712097247131 60.792369121918455,79.77748676278861 55.857142857508734,79.28215757600265 56.76752440119162,79.8325233120122 56.33629103843123,80.05266945430776 48.14285714295693,78.18142447556602 54.946761313360184,80.21777900401503 64.72138420608826,81.04332602024078 78.28127772873268,84.67571838147705 76.46051464090124,83.9602490287507 79.00000000023283,83.63003209518502 78.32919254666194,82.80448890588013" stroke="#4dd2ff" stroke-linecap="round" stroke-linejoin="round" stroke-width="0.5"><title>2021-04-09 1.4km</title></polyline><polyline fill="none" points="85.79870129865594,79.71684280128102 87.28896103892475,80.97548085200833 98.07142857136205,85.10379187582294 102.84902597405016,84.90241162481834 107.01298701320775,85.75827714276966 114.72727272752672,84.90241162481834 115.42857142840512,84.04654467201908 112.31655844161287,83.24102152325213 108.59090909082443,83.99619951244676 104.73376623378135,82.53618772528716 101.53409090917557,82.78791419346817 96.09902597405016,80.01891621641698 95.3977272727061,78.7099301260605 92.28571428568102,77.5016322939191 89.91883116890676,77.09886571438983 84.57142857136205,78.40785593612236" stroke="#4dd2ff" stroke-linecap="round" stroke-linejoin="round" stroke-width="0.5"><title>2021-04-08 1.4km</title></polyline><polyline fill="none" points="151.6567717997823,82.71742947748862 151.85714285704307,83.77612659844453 149.25231910962611,83.82215685368283 142.35955473105423,81.47460805345327 131.94025974022225,80.9682724502054 126.45009276433848,79.03498600344756 121.0,79.86353831845918 126.16957328375429,79.26513957185671 131.65974025963806,80.92224191364949 141.87866419320926,81.38254707554006" stroke="#4dd2ff" stroke-linecap="round" stroke-linejoin="round" stroke-width="0.5"><title>2021-04-06 1.3km</title></polyline><polyline fill="none" points="166.85201026522554,76.79516671830788 170.73224978614599,75.58333210478304 172.33361847745255,76.86645104200579 172.33361847745255,78.22085181652801 171.28656971780583,78.79112504376099 173.134302822873,80.78707768570166 175.0436270313803,81.00092941755429 177.5072711717803,79.86038609442767 180.2788708298467,76.3674606232671 182.74251497001387,77.2941568325623 184.77502138586715,76.08232308167499 188.22412318200804,76.51002935052384 188.22412318200804,72.16167012200458 187.85457656136714,74.79920270905131 185.82207014551386,74.44277996645542 188.28571428568102,74.87048723589396 188.1625320785679,76.7238823872176 182.86569717689417,77.22287255205447 180.2788708298467,76.29617624887032 176.09067579125986,81.5712003831868 177.07613344746642,80.71579376078444 172.45680068433285,80.64450982847484 171.53293413156644,79.07626148354029 172.8879384091124,79.07626148354029 172.76475620199926,78.36342016671551 171.1633875106927,75.51204765035072 170.48588537191972,76.51002935052384 169.13088109483942,76.3674606232671 167.40633019641973,80.0742381089367 161.6783575701993,83.06815946026472 159.83062446536496,86.48976820328971 159.5842600511387,83.85227960575139 159.09153122315183,87.20260125602363 158.66039349860512,85.63436758337775 159.09153122315183,86.70361819531536 158.72198460204527,85.77693442592863 161.2472198458854,87.06003470346332 163.27972626150586,90.12520919268718 165.92814371245913,89.91136024479056 166.66723695467226,88.41441578161903 165.0658682633657,87.70158396149054 166.48246364411898,87.70158396149054 165.80496150557883,88.5569820588571 165.189050470246,87.9867167766206 165.92814371245913,88.84211452590534 166.11291702301241,88.1292831406463 166.42087254067883,89.76879424310755 165.37382378079928,90.69547273515491 161.9863130878657,90.41034102201229 158.84516680892557,86.70361819531536 159.39948674058542,83.49586146662477 159.76903336169198,86.0620680237189 157.42857142863795,87.41645103035262 158.1060735671781,86.27591814624611 157.67493584239855,87.70158396149054 159.39948674058542,86.48976820328971 159.64585115481168,83.35329416021705" stroke="#4dd2ff" stroke-linecap="round" stroke-linejoin="round" stroke-width="0.5"><title>2021-04-05 1.9km</title></polyline><polyline fill="none" points="35.98147964000236,123.83246957033407 34.771430131513625,124.44167536270106 35.24492776521947,123.71062826286652 36.08670133643318,123.71062826286652 36.27083930501249,123.19280215207255 35.32384403760079,128.82792041960056 33.298326381947845,130.2899878039898 33.19310468551703,131.14285714286962 33.11418841325212,130.2899878039898 35.4027603098657,128.91929984060698 36.1656176088145,125.93422430718783 36.691726090735756,121.1824099267833 35.376454885699786,120.23813012393657 32.53546908311546,119.7202979978756 30.85192194080446,121.03010693457327 27.32699511165265,122.03530524941743 20.908471631468274,125.90376419911627 19.751032971194945,124.04569173886557 18.409456342225894,124.62443685828475 17.778126163757406,124.38075483930879 14.095366789959371,108.57145936368033 13.884923397214152,105.67756714916322 15.752608508220874,114.14593066021916 16.331327838357538,114.38962102282676 23.091821831651032,111.31301561629516 28.300295803230256,109.63762311666505 31.562168391421437,107.80991149737383 36.13931218464859,104.12399240158265 38.8487708667526,100.28571428573923 40.40079088858329,101.07774396508466 40.216652919887565,101.32144498257549 39.58532274153549,101.10820660312311 39.95359867892694,100.80358008286566 39.95359867892694,101.2909823662776 40.11143122345675,100.46849055192433 39.21704680414405,100.74265474145068" stroke="#4dd2ff" stroke-linecap="round" stroke-linejoin="round" stroke-width="0.5"><title>2021-04-05 3.7km</title></polyline><polyline fill="none" points="55.92923898529261,104.52616742858663 60.83177570067346,108.42255999904592 64.86915887892246,119.66635775740724 64.96528704930097,125.34387501422316 67.17623497964814,124.89858061017003 69.38718291046098,126.9024039999349 74.38584779715165,123.2287249766523 79.0,124.45328602404334 69.57943925214931,122.22681037068833 69.57943925214931,125.90049276454374 70.06008010683581,120.77959876158275 69.86782376468182,126.12313978536986 70.15620827721432,124.34196234925184 66.31108144158497,125.12122783495579 68.90654205624014,123.45137254195288 70.25233644852415,125.90049276454374 67.84913217602298,124.34196234925184 69.57943925214931,123.8966675363481 69.19492656877264,126.01181628042832 70.25233644852415,126.01181628042832 69.00267022708431,123.7853438045131 71.21361815696582,126.56843369046692 69.00267022708431,124.56460968742613 69.19492656877264,122.78342970972881 70.82910547405481,125.34387501422316 69.29105473961681,122.8947535433108 66.6955941254273,122.78342970972881 65.54205607436597,125.67784569854848 65.83044058736414,124.23063866328448 60.92790387198329,120.5569506516913 62.85046728979796,113.43218716117553 60.92790387198329,114.21146043203771 61.02403204282746,111.31701405160129 55.35246995976195,108.19990936957765 48.1428571427241,108.86786112200934 52.18024032050744,110.31508851703256 53.52603471279144,114.10013571288437" stroke="#4dd2ff" stroke-linecap="round" stroke-linejoin="round" stroke-width="0.5"><title>2021-04-04 1.4km</title></polyline><polyline fill="none" points="103.62011173181236,101.90140351635637 94.05267358291894,106.25821079115849 84.83000798057765,116.95211207686225 93.53551476448774,126.5567225603154 98.62090981611982,120.81377064221306 104.56823623320088,118.33835019503022 104.74062250601128,115.07078585337149 110.25698324013501,111.01106987847015 102.15482841152698,100.71318006690126 95.34557063039392,105.26802898093592 84.57142857136205,117.54621436202433 93.36312849121168,125.46754455007613 98.53471667971462,119.42753594421083 106.98164405394346,118.0412993307691 109.48124501202255,116.15997514955234 110.77414205903187,111.20910518511664 110.42936951294541,110.31794599688146 109.39505187561736,112.29829867312219 106.37829209910706,113.78356061555678 106.29209896270186,112.89240371389315 115.42857142863795,106.85231940844096 112.0670391060412,105.0699925016379 108.53312051063403,100.71318006690126 106.5506783714518,103.98079116654117 100.51715881889686,101.40631058334839 88.6225059852004,112.1002635814366 84.91620111698285,117.34818030608585 93.53551476448774,125.46754455007613 98.62090981611982,120.12065353256185 99.39664804469794,120.71475394169101 97.2418196327053,123.68525071017211 109.0502793295309,126.16065796621842 112.84277733461931,130.7153913617367 104.82681564195082,116.06095798953902 105.6887470073998,113.38749097910477 109.91221069451421,109.82285721745575 105.25778132490814,106.95133747690124 102.67198723042384,102.00042207358638 100.86193136451766,101.30729196750326 99.31045490782708,102.39649620489217 100.0861931364052,103.08962555840844" stroke="#4dd2ff" stroke-linecap="round" stroke-linejoin="round" stroke-width="0.5"><title>2021-04-02 3.1km</title></polyline><polyline fill="none" points="139.93009118537884,127.63923492707545 136.3191489361925,126.38236848026281 129.5075987841701,126.25668156283791 122.12158054718748,125.28260627153213 121.4924012159463,124.68559091119096 121.0,121.70049732623738 121.71124620072078,121.13489749495056 123.18844984809402,121.07205300714122 121.84802431624848,116.8928667489381 122.176291793352,111.23673787686857 124.22796352591831,108.31436527401092 125.04863221896812,106.33467827687855 128.9604863221757,103.63222854430205 130.54711246211082,105.36054206281551 132.02431610948406,105.67477987668826 132.79027355625294,106.58606778390822 136.01823708205484,106.58606778390822 140.9969604864018,107.37165871472098 143.4042553191539,108.62860017383355 147.39817629184108,112.17943299704348 151.17325227952097,118.71537576866103 151.2826747719664,119.56378158307052 150.4072948327521,120.31791818782222 150.05167173256632,121.51196416068706 150.8176291793352,121.48054195559234 151.8571428571595,124.15141832453082 151.17325227952097,125.56540263074567 148.79331306985114,126.00530757926754 148.21884498465806,126.72800724749686 146.87841945281252,126.06815109369927 146.30395136785228,126.31952502776403 144.88145896652713,125.87962051312206 144.19756838900503,127.79634288424859 143.97872340423055,127.5763917225122" stroke="#4dd2ff" stroke-linecap="round" stroke-linejoin="round" stroke-width="0.5"><title>2021-04-02 3.2km</title></polyline><polyline fill="none" points="160.66161424783058,113.10541287524393 171.09738537319936,117.75908259535208 176.74497915874235,117.71207605759264 180.18264494114555,118.51118656771723 184.8071239106357,117.38303016417194 188.28571428568102,117.43003673414933 180.42819249723107,118.46418010431807 176.99052671459503,117.66506951538031 171.42478211433627,117.94710869976552 164.22205380839296,115.87881747196661 157.42857142863795,112.91738486086251" stroke="#4dd2ff" stroke-linecap="round" stroke-linejoin="round" stroke-width="0.5"><title>2021-04-01 1.4km</title></polyline><polyline fill="none" points="11.714285714318976,146.11344048473984 15.19897124171257,149.65196263231337 19.289689034456387,150.52208776818588 24.08744447072968,153.01643935660832 30.652794014895335,152.90042323822854 34.288987608393654,153.88655951520195 42.57142857159488,152.90042323822854 36.76361935958266,153.77054356847657 29.74374561617151,152.72639901778894 23.481412204913795,153.01643935660832 14.087912088027224,150.46407946577528 13.128361000912264,149.9420044872095 14.23942015459761,149.47793745057425" stroke="#4dd2ff" stroke-linecap="round" stroke-linejoin="round" stroke-width="0.5"><title>2021-03-29 1.2km</title></polyline><polyline fill="none" points="63.008725334424525,165.42857142857974 61.570705950725824,157.3197276958963 60.57034463994205,157.03268732869765 55.69358325190842,150.00016307207989 52.442408992908895,149.7131198263378 62.571067260811105,134.57142857142026 65.9472866836004,136.65253272023983 72.57468036538921,143.3981398594333 71.8869319644291,148.20614093437325 74.7004481498152,164.71097827132326 65.75971893803217,158.75492783793015 62.50854467879981,158.10908812313573 62.19593176944181,159.47252685081912" stroke="#4dd2ff" stroke-linecap="round" stroke-linejoin="round" stroke-width="0.5"><title>2021-03-28 1.4km</title></polyline><polyline fill="none" points="99.620219780365,144.41077248216607 101.3767032965552,145.4468370389659 101.80395604390651,144.57436175178736 103.51296703284606,144.4653022440616 103.89274725294672,143.5928254078026 104.41494505479932,144.19265338068362 105.22197802201845,143.5928254078026 107.7380219779443,145.0105995676131 109.20967032969929,143.92000438278774 113.52967032953165,145.22871834621765 113.24483516486362,144.13812359177973 115.28615384618752,144.35624271497363 113.76703296694905,143.81094474595739 114.14681318681687,142.93846687691985 114.241758241551,144.13812359177973 114.00439560436644,143.5928254078026 113.48219780228101,144.30171294219326 113.57714285701513,143.42923584755044 114.241758241551,144.35624271497363 113.52967032953165,144.13812359177973 114.95384615380317,143.97453419311205 114.95384615380317,144.51983200054383 114.33670329651795,143.75641491939314 113.33978021983057,144.30171294219326 115.33362637343816,143.97453419311205 114.71648351638578,143.48376570641994 114.52659340645187,145.1196589677129 113.67208791198209,144.41077248216607 113.57714285701513,145.0105995676131 114.76395604386926,144.2471831641742 114.241758241551,144.30171294219326 115.42857142863795,145.77401491667842 115.28615384618752,144.19265338068362 114.57406593416817,144.30171294219326 114.95384615380317,145.06512927025324 113.90945054963231,145.3923073739861 113.76703296694905,144.7924807027448 113.19736263738014,145.61042600200744 111.20351648353972,145.3377777034766 111.20351648353972,144.2471831641742 111.67824175814167,153.6262258917559 106.31384615390562,154.82585941400612 101.94637362635694,153.4081104263314 102.27868131850846,154.1169853747706 100.94945054943673,153.4081104263314 93.25890109874308,153.02640815457562 89.4136263737455,154.17151417920832 89.08131868136115,156.13454756035935 88.1793406594079,156.8434190126718 85.09362637368031,157.06153312308015 84.57142857136205,156.18907616578508" stroke="#4dd2ff" stroke-linecap="round" stroke-linejoin="round" stroke-width="0.5"><title>2021-03-26 1.5km</title></polyline><polyline fill="none" points="124.2613240419887,148.04466467993916 134.0452961672563,152.03767015706399 137.48581383773126,151.790681235987 140.49626679928042,152.44931803425425 144.83275261311792,151.5848570234084 146.5530114483554,151.790681235987 151.85714285704307,149.89709465147462 147.16226978600025,151.790681235987 141.10552513692528,152.28465893209795 137.91587854665704,151.6260218740208 134.36784469895065,151.9141757148318 126.73419611738063,150.06175469548907 121.0,147.55068196571665" stroke="#4dd2ff" stroke-linecap="round" stroke-linejoin="round" stroke-width="0.5"><title>2021-03-26 1.6km</title></polyline><polyline fill="none" points="188.28571428568102,152.73799499991583 185.92820761585608,152.43711770471418 182.41814212943427,150.21062110725325 179.43196701421402,150.27079679793678 175.13606597133912,148.5858752190834 164.6582585494034,148.88675441383384 166.22992966277525,149.66903962532524 165.60126121761277,149.84956683928613 157.42857142863795,147.26200500008417 164.0295901040081,149.78939110715874 173.40722774667665,150.39114816120127 181.42275042436086,152.3167667449452" stroke="#4dd2ff" stroke-linecap="round" stroke-linejoin="round" stroke-width="0.5"><title>2021-03-24 1.1km</title></polyline><polyline fill="none" points="42.57142857136205,186.54908868685015 40.34937888197601,186.40461862867232 38.16925465827808,184.7672883158666 34.689440993824974,184.1894057179452 31.838509316788986,182.88916737228283 23.118012422462925,183.081795493752 23.872670807642862,183.90046416252153 17.038819875800982,182.0223398845992 11.714285714318976,182.69653917464893 13.810559006175026,182.98548144244705 17.20652173901908,182.0704970076913 23.495341615052894,183.99677803347004 34.94099378888495,184.47834710241295" stroke="#4dd2ff" stroke-linecap="round" stroke-linejoin="round" stroke-width="0.5"><title>2021-03-23 1.3km</title></polyline><polyline fill="none" points="78.38449848024175,185.81751805375097 68.00303951371461,182.18833498109598 63.77659574453719,182.89532085802057 59.59118541027419,182.42399705623393 60.74012158042751,183.17811491605244 60.288753799395636,183.31951188234962 53.682370820548385,181.33995054781553 48.14285714295693,182.14120255198213 53.2720364741981,181.43421555924579 59.46808510622941,183.2252472427208 67.67477203649469,183.7908348008932 79.0,187.23147802357562 77.15349544072524,186.33597052839468 79.0,185.81751805375097" stroke="#4dd2ff" stroke-linecap="round" stroke-linejoin="round" stroke-width="0.5"><title>2021-03-22 1.6km</title></polyline><polyline fill="none" points="110.84839873202145,169.04795756010571 111.27336320909671,169.34595665812958 111.03727183293086,170.29413346454385 113.18570335558616,170.61922190495534 113.75232265819795,171.07976320636226 113.56344955728855,171.91957183522754 114.41337851120625,172.48847300207126 115.42857142863795,174.24935012930655 114.81473385065328,175.8747651927406 113.91758662159555,176.25402732935618 113.58705869503319,177.2292704291758 109.21936823695432,181.02184970790404 104.4031041644048,182.8910303133307 102.89211935724597,183.8662499493803 101.73527161439415,184.84146613779012 98.35916493611876,189.5007847895904 84.57142857147846,199.52347101134364" stroke="#4dd2ff" stroke-linecap="round" stroke-linejoin="round" stroke-width="0.5"><title>2021-03-21 1.3km</title></polyline><polyline fill="none" points="134.9877817806555,181.60493197204778 134.59611080843024,179.10036784620024 131.910366998869,175.76091913424898 130.81928357621655,175.43981649714988 127.12638583790977,178.81137844186742 123.46146459761076,183.46728771767812 122.53824016323779,183.72416353880544 121.53108623460867,186.45345666221692 123.23765261354856,188.89374649588717 127.29424482595641,190.8202782230801 131.68655501469038,194.38433196314145 131.434766532504,194.5769824088784 132.0222729909001,194.5127656062541 131.49071952863596,194.22378983831732 132.16215548093896,195.3475830553216 133.64490987581667,197.11353601361043 139.26818597724196,199.71428571428987 142.1777417709818,199.4253145478142 149.031983784982,194.64119919884251 149.95520821970422,192.71469000770594 151.32605662255082,186.5497842381883 149.95520821970422,184.17369573979522 144.8355090826517,179.45357677081483 139.29616247536615,172.48565742143546 135.18361726670992,168.8571428571595 130.56749509403016,175.27926506014774 131.40679003461264,175.37559593183687 132.55382645316422,176.43523364479188 134.79194629448466,179.2930273069942 134.7639697965933,180.19210328802" stroke="#4dd2ff" stroke-linecap="round" stroke-linejoin="round" stroke-width="0.5"><title>2021-03-20 3.7km</title></polyline><polyline fill="none" points="185.24560168897733,192.05545257416088 174.70654468680732,188.6798707334674 163.55946516571566,188.33067150972784 157.58057705848478,187.05027258838527 157.42857142863795,184.95506836037384 158.28993666451424,184.0238640930038 157.47923997207545,182.45245355949737 157.6819141448941,179.71702524012653 160.87403237167746,176.51597599731758 166.14356087287888,177.1561872352613 171.5144264602568,178.9604151681997 181.64813511632383,178.7276118741138 187.06966924713925,177.8545987025136 187.72836030973122,177.09798624226823 186.7656579874456,179.3096199374413 186.1576354680583,186.81747248611646 186.66432090103626,190.6586624304764 188.28571428591385,190.94966064975597" stroke="#4dd2ff" stroke-linecap="round" stroke-linejoin="round" stroke-width="0.5"><title>2021-03-19 1.6km</title></polyline><polyline fill="none" points="24.219423268339597,218.25620969827287 30.925422605476342,221.13441916389274 33.52668213483412,220.96995085445815 35.7938349355245,221.4633554907341 38.180311567964964,220.94253946014214 39.44514418300241,221.05218502136995 42.571428571478464,220.12019637221238 36.77229035482742,221.4359441449633 33.78919456433505,220.96995085445815 30.448127278941683,221.10700778575847 17.10772290371824,216.85821148887044 11.714285714318976,216.28256312332815 12.883659264305606,216.4470342065033 12.096121975569986,216.11809194274247 12.334769638837315,215.98103255126625 14.148491879343055,216.09068006990128 16.55883327824995,215.6795016521355 17.37023533321917,216.28256312332815 17.84753065975383,215.98103255126625 18.42028505145572,216.52926971166744 18.92144514422398,216.36479867715389 19.565793835092336,216.91303508056444 20.377195890177973,216.61150519244256 22.047729532700032,217.8176227817312 22.38183626125101,217.4064469189325 21.522704673698172,216.11809194274247 21.188597945147194,216.1455038129643 21.307921776664443,217.0775057906285 22.85913158778567,217.84503448431497 23.50348027853761,216.30997497733915 23.861451773555018,217.05009401240386 24.338747099856846,216.9678586613154 23.837587007088587,217.10491756623378 24.123964203055948,217.02268223138526 23.431885979603976,216.06326819432434 24.458070931606926,215.98103255126625" stroke="#4dd2ff" stroke-linecap="round" stroke-linejoin="round" stroke-width="0.5"><title>2021-03-19 3.1km</title></polyline><polyline fill="none" points="61.12783956748899,234.0 60.954535382799804,233.46252885850845 60.625257431936916,233.40280975445057 60.14000571478391,233.86065576742112 60.72923994268058,230.4964586659189 60.50394450261956,231.31262997890008 60.60792701342143,232.8056177417311 60.27864906255854,233.0644011641998 58.40696386806667,233.02458835155994 58.181668427889235,231.83020032073546 58.337642194121145,230.77515168052923 62.87821183272172,229.75991098905797 65.92836548300693,229.56084358801309 65.82438297226327,210.3100981741154 66.84687766194111,208.99612304678885 68.96118871495128,207.12468915186764 68.57991950865835,206.1690566374018 65.99768715695245,203.14285714285506" stroke="#4dd2ff" stroke-linecap="round" stroke-linejoin="round" stroke-width="0.5"><title>2021-03-18 2.7km</title></polyline><polyline fill="none" points="95.0366607022006,231.45372666590265 95.9005588394939,231.60350839575403 96.03095855831634,232.33369263625355 96.35695785540156,232.52091891213786 98.11735405947547,232.8766483276413 100.39934913895559,232.67069979985536 101.98044572968502,233.1200417540822 103.44744256645208,234.0 103.82234175805934,232.8204805694695 103.61044221499469,227.8214835327526 104.9633392978576,227.69042191430344 103.02364348026458,227.14745138803846 101.14914752211189,227.05383562309726 100.31784931471338,226.1551219302637 98.67155286448542,209.13492791824683 100.4645489983377,207.03772467143426 101.735946256842,206.307443099824 100.82314822514309,204.6783433114615 99.25835159921553,203.14285714285506" stroke="#4dd2ff" stroke-linecap="round" stroke-linejoin="round" stroke-width="0.5"><title>2021-03-17 2.8km</title></polyline><polyline fill="none" points="122.03951367782429,216.90617066639243 122.42249240120873,216.90617066639243 124.33738601836376,217.72310553566786 124.88449848024175,218.41435729939258 130.57446808507666,219.98538124613697 136.5927051671315,220.80231216782704 138.61702127661556,220.67663055594312 140.0395136778243,220.99083453963976 140.75075987842865,221.24219761491986 143.5957446808461,221.6820827583433 145.9483282675501,222.62469275767216 146.71428571431898,222.8132145901327 148.02735562319867,223.5044608322205 149.12158054718748,224.19570632424438 149.55927051673643,224.32138724229299 150.05167173268273,224.5727490039426 151.25531914900057,224.8869510666118 151.85714285704307,224.82411066652276 151.8024316111114,224.82411066652276 151.8024316111114,224.82411066652276 151.63829787261784,224.8869510666118 151.74772036471404,224.82411066652276 151.8024316111114,224.82411066652276 151.85714285704307,224.8869510666118 151.52887537982315,224.82411066652276 150.81762917945161,224.82411066652276 148.41033434635028,224.8869510666118 146.7689969604835,224.38422769209137 145.18237082078122,224.07002538151573 143.5957446808461,223.94434441404883 142.00911854114383,224.00718490075087 141.18844984821044,224.07002538151573 139.60182370827533,224.19570632424438 138.89057750743814,224.19570632424438 136.42857142840512,224.00718490075087 135.66261398163624,223.8186634214362 134.18541033403017,223.4416202956345 133.41945288749412,223.06457694678102 131.94224924012087,222.56185213424033 131.176291793352,222.31048957945313 128.05775075987913,221.6820827583433 126.0334346506279,220.8651529646595 125.86930091190152,220.48810809117276 126.52583586610854,220.36242641706485 126.79939209739678,220.36242641706485 127.01823708205484,220.11106299475068 126.79939209739678,220.04822212352883 126.25227963505313,219.9225403626333 125.97872340423055,219.85969947301783 125.814589665737,219.79685857711593 125.48632218851708,219.79685857711593 125.26747720385902,219.67117676668568 124.99392097257078,219.67117676668568 124.72036474151537,219.67117676668568 124.33738601836376,219.54549493151717 124.06382978730835,219.4198130716104 123.89969604858197,219.35697213222738 123.35258358670399,219.0427673429367 123.18844984797761,218.9170853837859 122.91489361715503,218.72856239846442 122.75075987842865,218.60288037749706 122.5866261399351,218.41435729939258 122.36778115481138,218.16299310844624 121.98480243165977,217.84878773038508 121.65653495443985,217.66026442905422 121.49240121571347,217.5345821972005 121.2188449848909,217.22037650924176 121.1094224920962,216.65480588044738 121.1094224920962,216.15207601129077 121.05471124639735,215.8378696414875 121.0,215.5865044341772 121.16413373849355,215.08377372223185 121.1094224920962,214.3925183454412 121.1094224920962,214.07831110811094 121.05471124639735,213.88978669123026 121.16413373849355,213.70126221881947 121.1094224920962,213.63842071563704 121.16413373849355,213.19853001937736 121.2188449848909,212.8843221932184 121.49240121571347,212.82148060941836 122.03951367782429,212.63295582076535 122.31306990864687,212.50727259734413 122.47720364737324,212.4444309764076 122.80547112459317,212.3187477159663 122.86018237075768,212.3187477159663 122.86018237075768,212.25590607628692 122.91489361715503,212.25590607628692" stroke="#4dd2ff" stroke-linecap="round" stroke-linejoin="round" stroke-width="0.5"><title>2021-03-02 1.4km</title></polyline><polyline fill="none" points="163.09767441870645,219.02480783383362 163.45647840574384,219.18965587991988 167.40332225942984,219.93147168605356 169.91495016636327,220.83813455456402 170.84784053172916,221.25025371526135 173.3594684386626,221.90964394947514 174.29235880402848,221.90964394947514 176.94750830577686,221.7447964399471 177.80863787373528,221.49752511404222 180.46378737548366,221.33267752290703 182.11428571445867,221.90964394947514 182.9754152824171,222.23933887167368 184.4823920270428,222.8163046723348 185.91760797332972,223.0635756077827 187.7116279071197,222.8987283257302 187.99867109628394,222.7338810110232 188.28571428591385,222.8987283257302 188.21395348850638,224.0526586184278 186.92225913656875,224.3823526952183 185.8458471763879,225.28901073540328 185.34352159453556,225.4538575464976 184.84119601314887,225.6187043247046 184.55415282398462,225.6187043247046 184.12358803953975,225.70112770149717 183.83654485084116,225.86597443092614 182.83189368760213,226.2780911125592 182.9754152824171,226.69020759075647 183.47774086380377,227.01990062720142 183.47774086380377,227.10232386610005 183.47774086380377,227.18474709661677 183.54950166121125,227.10232386610005 183.19069767463952,227.01990062720142 182.76013289066032,227.18474709661677 182.61661129584536,227.26717031898443 182.4730897010304,227.34959353355225 182.40132890362293,227.43201673967997 182.40132890362293,227.43201673967997 182.11428571445867,227.01990062720142 181.97076411964372,226.855054125248 181.75548172742128,226.60778431151994 181.6837209300138,226.4429377283086 180.96611295687035,226.2780911125592 180.67906976724043,226.2780911125592 180.3202657806687,226.2780911125592 179.96146179409698,226.1956677925773 179.53089701011777,226.1956677925773 179.17209302354604,226.1956677925773 178.45448504993692,226.03082112816628 178.09568106289953,225.94839778362075 177.73687707679346,225.86597443092614 177.37807308975607,225.7835510703153 176.6604651166126,225.6187043247046 176.3734219269827,225.4538575464976 176.01461794041097,225.37143414502498 175.65581395383924,225.20658731786534 175.29700996680185,225.04174045834225 175.0099667776376,224.7944701081724 174.36411960143596,224.4647761939559 173.71827242523432,224.13508214970352 173.2159468443133,223.64054083946394 172.85714285681024,223.4756936712074 172.4983388702385,223.31084647023818 172.13953488413244,223.14599923678907 171.7807308966294,222.98115197086008 171.56544850533828,222.8987283257302 170.99136212654412,222.65145734127145 170.7043189369142,222.56903366366168 170.4172757472843,222.48660997778643 170.13023255812004,222.32176258187974 169.7714285715483,222.23933887167368 169.41262458451092,222.15691515343497 168.62325581396,222.07449142681435 168.33621262479573,221.9920676922775 167.97740863775834,221.90964394947514 167.54684385377914,221.90964394947514 167.2598006646149,221.82722019875655 166.54219269100577,221.7447964399471 166.18338870443404,221.57994889753172 165.5375415282324,221.08540607540635 164.81993355508894,220.83813455456402 164.53289036545902,220.7557106980821 164.1740863788873,220.67328683356754 163.7435215949081,220.59086296072928 163.45647840574384,220.50843907991657 163.09767441870645,220.34359129349468 162.4518272425048,220.01389562379336 162.09302325593308,219.84904773999006 161.80598006630316,219.68419982376508 161.0883720931597,219.27207989094313 160.87308970140293,219.1072318609804 160.58604651177302,218.94238379859598 159.94019933557138,218.53026349988068 159.65315614640713,218.28299122321187 159.29435215936974,217.78844645025674 158.79202657798305,217.2114771787892 157.93089701002464,216.55208323779516 157.93089701002464,216.30481037608115 157.78737541567534,215.89268877671566 157.6438538208604,215.56299135106383 157.42857142863795,214.49147381947841 157.6438538208604,214.07935132615967 157.7156146178022,213.66722862969618 157.78737541567534,213.3375303260982 157.85913621308282,213.0902565130964 157.85913621308282,212.6781333287363 157.85913621308282,211.6066120986943 157.85913621308282,210.864788903913 158.64850498363376,210.5350894947769 159.22259136242792,210.20538995566312 159.7249169438146,210.04054013727 160.08372093038633,209.95811521593714 160.2272425252013,209.7932653488242 161.23189368797466,209.71084040316055" stroke="#4dd2ff" stroke-linecap="round" stroke-linejoin="round" stroke-width="0.5"><title>2020-12-25 1.0km</title></polyline><polyline fill="none" points="12.178302899934351,249.29294063308043 12.526315789436921,249.6260453199502 12.816326530417427,249.95914984249976 13.454350160900503,250.35887505300343 15.948442534776405,251.02508321136702 17.28249194403179,251.42480779107427 18.1525241676718,251.62466999236494 22.212674543261528,253.2235654728138 23.372717507882044,254.02301179413917 24.70676691713743,254.62259591399925 26.67883995687589,255.35542022710433 27.432867883937433,255.48866092576645 28.824919441482052,255.48866092576645 29.636949516599998,255.48866092576645 31.029001073911786,255.22217950213235 32.3050483353436,255.08893875055946 33.75510204094462,255.15555912960554 34.56713211606257,255.08893875055946 36.829215897014365,255.48866092576645 37.58324382384308,255.75514224445214 39.0332975294441,256.0216234581312 39.845327605027705,255.95500316447578 41.29538131062873,255.8883828644175 41.9334049411118,255.82176255778177 42.57142857136205,256.0882437452092 42.513426423072815,256.15486402547685 42.33941997890361,256.22148429922527 42.28141783038154,256.28810456662904 42.28141783038154,256.3547248272225 42.22341568209231,256.28810456662904 42.10741138574667,256.42134508123854 42.10741138574667,256.28810456662904 42.165413534035906,256.3547248272225 42.22341568209231,256.42134508123854 42.165413534035906,256.3547248272225 42.28141783038154,256.22148429922527 42.22341568209231,256.22148429922527 42.165413534035906,256.22148429922527 42.165413534035906,256.28810456662904 42.165413534035906,256.22148429922527 42.165413534035906,256.22148429922527 42.165413534035906,256.22148429922527 42.165413534035906,256.28810456662904 42.10741138574667,256.28810456662904 42.10741138574667,256.28810456662904 42.04940923722461,256.28810456662904 41.99140708940104,256.28810456662904 42.10741138574667,256.28810456662904 42.10741138574667,256.28810456662904 42.10741138574667,256.28810456662904 42.04940923722461,256.28810456662904 42.04940923722461,256.3547248272225 41.9334049411118,256.28810456662904 40.59935553162359,256.28810456662904 39.09129967773333,256.28810456662904 37.58324382384308,255.95500316447578 36.88721804507077,255.75514224445214 35.437164339236915,255.35542022710433 34.68313641264103,255.22217950213235 33.117078410228714,255.22217950213235 32.3630504834,255.15555912960554 30.796992481220514,255.28879986773245 29.17293233075179,255.48866092576645 28.41890440392308,255.48866092576645 26.85284640174359,255.42204057972413 26.040816326392815,255.22217950213235 22.38668098812923,254.02301179413917 21.632653061300516,253.75652979197912 19.486573576927185,253.2235654728138 18.90655209426768,253.15694490342867 16.58646616549231,252.7572213485837 15.252416756004095,252.1576355729485 14.498388829175383,251.75791142700473 13.048335123574361,250.95846242510015 11.714285714318976,250.49211673723767" stroke="#4dd2ff" stroke-linecap="round" stroke-linejoin="round" stroke-width="0.5"><title>2020-12-08 1.1km</title></polyline><polyline fill="none" points="48.14285714295693,249.6764347399003 48.43956043967046,249.73323341022478 50.417582417838275,251.26679538562894 51.06043956056237,251.49398940510582 53.582417582627386,252.23236934945453 54.76923076948151,252.57315977377584 55.36263736290857,252.8003532778239 56.747252747416496,253.31153833464487 57.983516483800486,253.93631945445668 58.62637362675741,254.33390708692605 61.79120879131369,255.4130721343099 62.483516484033316,255.46987023862312 64.46153846173547,255.24267778755166 65.05494505516253,255.18587966065388 68.17032967042178,255.24267778755166 68.81318681314588,255.29947590868687 70.74175824201666,255.86745681258617 72.71978021995164,256.0378509744187 73.3131868133787,255.98105292598484 74.59890109929256,256.0378509744187 76.57692307699472,255.7538606764865 77.17032967042178,255.697062600113 78.40659340680577,255.58346643054392 79.00000000023283,255.5266683374648 78.75274725304917,255.07228339032736 77.36813186830841,255.01548524666578 76.77472527488135,255.07228339032736 75.53846153873019,255.4130721343099 75.09340659365989,255.5266683374648 73.80769230797887,255.8106587473303 73.21428571431898,255.86745681258617 71.97802197816782,255.86745681258617 71.33516483544372,255.7538606764865 70.09890109905973,255.5266683374648 69.5054945058655,255.35627402423415 67.57692307699472,255.01548524666578 66.93406593427062,255.01548524666578 65.6483516485896,255.07228339032736 64.9560439561028,255.07228339032736 63.67032967065461,255.18587966065388 62.384615384740755,255.24267778755166 61.148351648589596,255.18587966065388 59.96153846173547,254.90188894275343 59.36813186830841,254.73149444488809 58.08241758286022,254.33390708692605 57.489010989200324,254.1067141876556 56.3021978023462,253.7091263983748 54.719780219718814,253.25474001734983 54.27472527488135,253.19794169458328 53.087912088027224,252.9139499963494 51.456043956335634,252.40276458679 51.01098901126534,252.06197406176943 49.97252747276798,251.49398940510582 49.42857142887078,251.20999686670257" stroke="#4dd2ff" stroke-linecap="round" stroke-linejoin="round" stroke-width="0.5"><title>2020-12-03 1.3km</title></polyline><polyline fill="none" points="115.10261569404975,253.66833307308843 115.37424547271803,254.66671260155272 115.42857142840512,254.97870588110527 114.50503018102609,255.5402933966252 112.92957746470347,255.47789480845677 110.7565392353572,255.1035031498759 108.69215291715227,254.22992175177205 107.98591549298726,254.10512431059033 103.96579476865008,252.54515422077384 102.49899396346882,252.29555864923168 100.27162977843545,252.35795755143045 98.75050301779993,252.29555864923168 97.66398390335962,252.29555864923168 97.01207243441604,252.29555864923168 95.54527162970044,252.17076082678977 95.05633802805096,252.10836190643022 93.37223340012133,251.9835640466772 92.72032193141058,251.9211651078076 90.43863179069012,251.73396825394593 89.73239436582662,251.60917032061843 88.31991951703094,251.48437236261088 86.47283702227287,250.6731850358192 85.76659959740937,250.42358872608747 84.57142857136205,250.17399231769377 85.92957746470347,250.48598781274632 87.12474849075079,251.04757931584027 88.31991951703094,251.60917032061843 89.02615694142878,251.67156929027988 90.81891348096542,251.85876616259338 91.36217303806916,251.9211651078076 92.7746478873305,252.0459629795514 93.48088531149551,252.10836190643022 94.94768611667678,252.10836190643022 95.59959758538753,252.17076082678977 97.06639839033596,252.29555864923168 97.71830985904671,252.29555864923168 99.72837022109888,252.35795755143045 100.38028169004247,252.35795755143045 101.35814889310859,252.23315974109573 101.6841046276968,252.23315974109573 101.90140845044516,252.23315974109573 102.11871227342635,252.23315974109573 102.33601609640755,252.23315974109573 102.60764587507583,252.17076082678977 102.87927565374412,252.17076082678977 103.42253521108069,252.23315974109573 103.63983903406188,252.23315974109573 104.12877263571136,252.42035644722637 104.61770623736084,252.66995196935022 104.56338028167374,252.7947496934794 104.56338028167374,252.85714854625985 104.50905432575382,252.85714854625985" stroke="#4dd2ff" stroke-linecap="round" stroke-linejoin="round" stroke-width="0.5"><title>2020-11-30 1.0km</title></polyline></svg>