<?xml version="1.0" encoding="utf-8" ?>
<svg baseProfile="full" height="300mm" version="1.1" viewBox="0,0,200,300" width="200mm" xmlns="http://www.w3.org/2000/svg" xmlns:ev="http://www.w3.org/2001/xml-events" xmlns:xlink="http://www.w3.org/1999/xlink"><defs /><rect fill="#222222" height="300" width="200" x="0" y="0" /><text fill="#FFFFFF" style="font-size:12px; font-family:Arial; font-weight:bold;" x="10" y="20">Over 3km Runs</text><text fill="#FFFFFF" style="font-size:4px; font-family:Arial" x="10" y="280">ATHLETE</text><text fill="#FFFFFF" style="font-size:9px; font-family:Arial" x="10" y="290">jdzj</text><text fill="#FFFFFF" style="font-size:4px; font-family:Arial" x="120" y="280">STATISTICS</text><text fill="#FFFFFF" style="font-size:3px; font-family:Arial" x="120" y="285">Number: 40</text><text fill="#FFFFFF" style="font-size:3px; font-family:Arial" x="120" y="290">Weekly: 3.3</text><text fill="#FFFFFF" style="font-size:3px; font-family:Arial" x="141" y="285">Total: 76.4 km</text><text fill="#FFFFFF" style="font-size:3px; font-family:Arial" x="141" y="290">Avg: 1.9 km</text><text fill="#FFFFFF" style="font-size:3px; font-family:Arial" x="167" y="285">Min: 1.0 km</text><text fill="#FFFFFF" style="font-size:3px; font-family:Arial" x="167" y="290">Max: 4.9 km</text><polyline fill="none" points="38.5,44.547562955413014 37.81962864729576,44.917745135200676 33.80901856790297,43.43701444446924 33.164456233615056,44.01285478231148 29.082228116691113,42.449857729516225 26.432360742706805,43.68380325799808 20.667108753230423,44.05398620440974 16.978779840981588,42.861173311423045 13.254641909850761,43.51927739850362 11.965517241274938,43.313619982858654 11.5,42.65551557124127 17.480106100672856,42.902304847346386 20.98938992060721,44.465300204145024 26.71883289143443,44.30077465294744 38.28514588880353,47.550142270483775" stroke="#4dd2ff" stroke-linecap="round" stroke-linejoin="round" stroke-width="0.5"><title>2021-05-07 1.5km</title></polyline><polyline fill="none" points="49.12461538449861,50.185164627531776 49.0,49.46832878002897 50.99384615384042,48.79928102562553 51.824615384684876,46.792132182978094 62.25076923076995,40.57947557425359 65.5738461536821,41.53527411821415 66.3630769229494,42.586650324316 67.3184615385253,40.24494563540793 66.9446153845638,39.81483537243912 66.9446153845638,41.43969434921746 66.7369230769109,40.91400528058875 65.94769230764359,42.73001962917624 66.98615384614095,41.53527411821415 65.98923076922074,42.586650324316 66.52923076902516,40.818425388250034 66.1553846152965,42.68222986560431 67.06923076906241,41.86980316028348 68.77230769232847,42.156542153970804 71.30615384597331,41.24853475438431 73.63230769219808,41.344114561215974 76.0,42.73001962917624 74.4630769228097,41.67864373602788 72.59384615370072,41.43969434921746 68.23230769229122,42.4910707641684 66.0723076921422,41.10516500828089" stroke="#4dd2ff" stroke-linecap="round" stroke-linejoin="round" stroke-width="0.5"><title>2021-05-06 1.2km</title></polyline><polyline fill="none" points="93.23724007583223,47.46278438757872 94.41115311929025,44.94149654899957 102.7816635160707,38.72618315467844 106.30340264644474,34.973509623494465 110.94801512314007,32.510804736055434 112.73440453689545,34.211244915786665 113.5,51.5085494897794 112.53024574671872,46.348728289827704 98.4943289225921,54.0298094599857 94.81947069941089,50.51176934101386 87.92911153123714,54.264344727329444 86.5,56.66832587873796 87.98015122883953,57.489195263944566 92.3695652175229,53.384836997662205 94.00283553870395,49.63225605653133 93.08412098302506,48.283666491217446" stroke="#4dd2ff" stroke-linecap="round" stroke-linejoin="round" stroke-width="0.5"><title>2021-05-06 1.8km</title></polyline><polyline fill="none" points="140.3550913836807,40.82384493073914 142.78720626607537,40.09045673039509 143.03394255880266,39.3163232919469 140.21409921674058,38.17549235391198 140.56657963432372,38.25698038539849 140.1436031330377,38.70516426290851 142.22323759784922,39.520042762189405 144.0561357701663,39.23483547507203 143.45691905985586,41.88318108403473 145.28981723240577,40.864588680444285 145.21932114870287,41.63871914224001 145.95953002618626,41.59797547079506 148.70887728454545,43.79812782708905 150.7180156656541,44.24630553697352 150.75326370750554,45.387119274557335 150.11879895534366,46.283470658090664 151.0,50.357769981288584 150.25979112274945,51.82450764605892 130.6618798954878,49.502170543011744 125.1984334201552,50.23554160146159 124.0,51.131882192363264 124.84595300257206,50.27628439894761" stroke="#4dd2ff" stroke-linecap="round" stroke-linejoin="round" stroke-width="0.5"><title>2021-05-02 1.6km</title></polyline><polyline fill="none" points="169.7708860761486,38.55801729654195 171.68481012666598,39.348454042105004 174.00886075990275,37.372360675712116 183.23670886084437,35.870526368147694 187.33797468361445,37.53044832928572 188.5,40.29697707982268 187.0645569623448,48.20129086408997 175.44430379755795,52.31150237331167 162.32025316450745,54.129473631910514 161.5,52.78575615363661 167.17341772140935,36.50287800800288" stroke="#4dd2ff" stroke-linecap="round" stroke-linejoin="round" stroke-width="0.5"><title>2021-05-01 1.0km</title></polyline><polyline fill="none" points="24.379580484703183,73.89144496811787 22.743929035263136,76.50013982632663 20.318652748595923,71.47839281102642 20.43145629670471,69.65229327307316 22.405518390703946,66.58704311598558 25.50761596718803,65.28267691930523 33.516667891759425,65.41311365773436 38.19801514339633,61.5 32.27582886116579,65.67398705566302 18.344590654363856,63.78265252505662 17.160153397824615,64.36961900861934 14.847680659266189,69.32620352465892 14.058055821340531,81.45663092919858 13.099225661484525,84.58702669781633 11.971190178999677,85.0435414754902 11.801984856836498,88.5 12.704413242638111,88.04348767379997 13.099225661484525,85.89135377493221 14.622073562582955,68.93489560863236 16.652537430869415,66.91313425207045 17.498564042383805,67.43487972620642" stroke="#4dd2ff" stroke-linecap="round" stroke-linejoin="round" stroke-width="0.5"><title>2021-05-01 1.8km</title></polyline><polyline fill="none" points="71.85151710780337,72.54729372254224 70.91026468691416,72.70747328280413 69.37637185282074,73.80870433762902 67.51129761134507,73.72861500787258 67.18011620396283,74.12906134077639 67.23240800516214,73.74863734330575 65.97740477730986,74.16910593061766 63.01420271140523,73.78868200814759 61.271142672689166,73.98890521413705 60.74822466110345,73.70859267051856 58.84828921884764,74.06899444117153 54.560361523530446,74.16910593061766 50.28986442863243,73.72861500787258 49.0,74.82984052217216 49.087153001863044,75.21026249312854 54.107165913446806,76.1913474433677 54.647514525509905,76.03117063254467 55.641058747598436,76.55174480551796 58.290510006423574,76.59178891735792 59.94641704321839,77.2324936324294 60.66107165906578,77.01225161476759 62.543576500960626,77.45273541120696 63.01420271140523,77.81313053362828 64.18205293739447,77.95328401951701 64.49580374429934,77.71302084159106 65.34990316332551,78.11345931352116 66.4131697868579,77.93326209892984 68.19109102641232,78.45383139346086 68.34796642995207,77.97330593819788 68.73143963847542,77.93326209892984 69.44609425426461,78.31367825318011 69.69012265978381,77.73304278393334 70.73595868301345,77.17242765137053 71.99096191086574,75.91103794146329 73.38540994183859,75.37043995175918 74.11749515816336,74.4894623648579 75.33763718529372,74.10903904291627 76.0,73.18801120518765 75.65138799225679,72.1268217752804 75.1110393802519,71.54616860652459 74.01291155582294,72.24695670625078 72.33957391860895,72.14684426873282 72.23499031632673,72.78756301557587 69.88185926398728,73.94886058874545 70.36991607490927,74.4093733037007 70.70109748223331,74.1891282225406 71.8340865073842,75.05008490809996 72.77533892838983,74.90992941746663 72.8450613298919,74.66966263690847" stroke="#4dd2ff" stroke-linecap="round" stroke-linejoin="round" stroke-width="0.5"><title>2021-04-30 3.7km</title></polyline><polyline fill="none" points="113.28672985779122,73.23623378251796 111.58056872035377,75.68592113841441 110.64218009449542,75.83290199568728 101.34360189572908,73.28522764809895 93.06872037914582,73.23623378251796 94.17772511858493,74.16711640084395 86.5,71.86440358625259 92.64218009449542,74.02013505066861 102.45260663493536,74.95101620003697 112.56161137414165,78.13559641374741 113.5,77.93962283618748 112.22037914698012,77.49868200431229" stroke="#4dd2ff" stroke-linecap="round" stroke-linejoin="round" stroke-width="0.5"><title>2021-04-29 1.4km</title></polyline><polyline fill="none" points="134.37571428576484,74.33554940490285 136.57428571442142,72.60747186263325 135.8028571428731,71.23386702072457 137.1528571427334,70.79076778833405 146.37142857140861,61.97300212824484 147.45142857148312,61.840069662663154 151.0,65.91664737128303 146.4871428569313,68.84112597076455 146.988571428461,68.88543610589113 144.1728571425192,71.94282488318277 145.36857142834924,71.49972635036102 145.6385714286007,70.48059806539095 144.28857142850757,71.58834609185578 137.84714285703376,79.38681485856068 133.48857142869383,81.95673512283247 130.51857142848894,84.57094926701393 130.32571428571828,86.25467235324322 127.89571428578347,88.15993033730774 125.89000000013039,87.14083986292826 124.0,84.43802349138423 124.1542857142631,81.82380857339012 126.81571428570896,80.58315888041398 127.78000000002794,79.07665107343928 130.4414285714738,77.92461228143657 130.9428571430035,76.77257053373614 132.25428571435623,76.01931086977129 132.64000000013039,74.6900260274997 133.64285714295693,73.93676287005655 134.76142857130617,74.20262059936067 134.99285714281723,73.36073724998278" stroke="#4dd2ff" stroke-linecap="round" stroke-linejoin="round" stroke-width="0.5"><title>2021-04-26 2.2km</title></polyline><polyline fill="none" points="177.42964901856612,83.72947800598922 178.16590629715938,82.71446476058918 179.01996473991312,72.05664420773974 181.9060932713328,61.5 179.255567069049,71.8874697809515 177.1645963982446,72.86868029402103 174.1312164113624,72.6656714527926 170.98003525985405,73.13935856189346 169.3308189562522,74.15440016260254 168.18225760187488,75.77846047110506 168.0939067285508,85.72566195391119 169.4191698296927,88.16166729407269 170.30267856363207,88.5 170.89168438641354,88.19550057966262 174.07231582922395,85.52266072752536 175.16197660111357,86.26699797008769 176.22218708205037,85.488827178051 176.4283391200006,84.60915372084128" stroke="#4dd2ff" stroke-linecap="round" stroke-linejoin="round" stroke-width="0.5"><title>2021-04-25 2.2km</title></polyline><polyline fill="none" points="26.043288799584843,118.5 25.247094715712592,112.57028896175325 25.686374210286885,109.19535109811113 25.247094715712592,102.9185027051426 25.65891924186144,91.97315048170276 25.329459620988928,91.5 24.643085410702042,91.97315048170276 23.956711200415157,103.13929845957318 24.231260884553194,114.11580935536767 25.329459620988928,114.4312207622861 25.41182452614885,114.14735051008756 25.549099368276075,108.753767806018 25.1921847788617,112.94878444314236" stroke="#4dd2ff" stroke-linecap="round" stroke-linejoin="round" stroke-width="0.5"><title>2021-04-18 2.2km</title></polyline><polyline fill="none" points="76.0,108.84329710557358 71.16475644684397,108.35455802554497 56.5429799426347,103.95588244483224 50.08309455565177,103.33384404791286 49.0,102.62294197097071 56.697707736166194,102.53407913257251 58.399713466875255,101.15670289442642 61.726361031411216,102.66737338370876" stroke="#4dd2ff" stroke-linecap="round" stroke-linejoin="round" stroke-width="0.5"><title>2021-04-16 1.0km</title></polyline><polyline fill="none" points="113.5,107.16544545063516 112.70920502085937,107.37630865129177 112.38441422593314,106.71127763851837 111.81956066942075,106.48419326210569 111.0993723848951,106.66261672708788 110.84518828446744,106.45175261124677 110.49215481168358,105.96514208130247 111.11349372385303,104.86215288248786 110.9016736401245,104.05112669288064 110.47803347278386,103.87270039442228 107.18776150629856,104.09978837710514 104.37761506275274,103.85647981220973 103.00784518831642,104.1808911520493 102.42887029290432,103.95380328134343 101.49686192470836,104.05112669288064 101.27092050213832,103.85647981220973 99.43514644348761,104.06734725587012 98.78556485357694,103.84025922839646 98.03713389125187,104.05112669288064 97.28870292886859,103.74293569203292 95.70711297076195,104.03490612830501 94.4079497908242,103.51584721657855 93.3347280335147,103.6456120981311 92.72751046030317,102.89946263092861 91.62604602507781,102.9643453276658 90.62343096232507,102.6561522900156 90.21391213394236,102.85080059153552 89.64905857742997,102.29929647214885 88.8158995815902,102.59126947163895 87.60146443516714,102.18575127677468 86.89539748959942,102.55882805289002 87.38964435155503,102.20197202375857 87.50261506275274,102.75347646955925 86.5,102.70481438699062 87.34728033473948,102.39662086291355 86.93776150635676,102.49394519609632 87.37552301259711,102.46150375812431 87.02248953975504,102.60749017864873 87.24843096238328,102.85080059153552 87.00836820085533,102.6561522900156 87.34728033473948,102.54260734103445 87.24843096238328,102.36417940571846 86.96600418409798,102.46150375812431 87.06485355651239,102.70481438699062 87.50261506275274,102.52638662765094 87.29079497908242,102.44528303669358 87.2625523013412,102.67237299059343 87.37552301259711,102.38040013515274 87.22018828458386,102.67237299059343 87.31903765688185,102.44528303669358 87.38964435155503,102.6237108840287 87.17782426782651,102.03976448181493 87.30491631804034,102.46150375812431 87.23430962342536,102.18575127677468 87.2625523013412,102.46150375812431 86.9801255229977,102.25063425516419 87.07897489547031,102.10464751777181 87.17782426782651,102.25063425516419 86.96600418409798,102.33173794214963 87.24843096238328,102.47772447788157 87.02248953975504,102.34795867474168 87.29079497908242,102.10464751777181 87.09309623437002,102.44528303669358 86.86715481174178,102.44528303669358 87.09309623437002,102.02354371879483 86.8812761506415,102.16953052819008 87.22018828458386,102.46150375812431 86.9801255229977,102.31551720792777 87.02248953975504,102.46150375812431 87.09309623437002,102.33173794214963 87.16370292886859,103.01300733347307 87.02248953975504,104.53774288666318 88.39225941424957,104.82971191170509 88.50523012556368,105.08923949877499 89.73378661094466,104.97569622984156 90.43985355651239,105.23522358651098 96.07426778244553,105.47853011143161 101.63807531388011,106.19222717446974 104.30700836819597,106.28954926127335 105.4932008368778,106.54907454446948 106.86297071131412,107.24654671369353 109.00941422587493,107.00324280455243 109.23535564856138,107.39252888633928 109.53190376568818,107.26276696148852 111.55125523015158,107.68449284293456 111.90428870293545,107.97645628120517 112.53974895400461,107.830474626855 112.73744769877521,107.23032646426873 113.3023012552294,107.00324280455243" stroke="#4dd2ff" stroke-linecap="round" stroke-linejoin="round" stroke-width="0.5"><title>2021-04-09 4.9km</title></polyline><polyline fill="none" points="150.45496894442476,106.44471134166815 141.98602484492585,103.98871357101598 141.02173913060687,103.0737308509415 135.06832298170775,103.55530091744731 130.75000000023283,103.1218878790387 131.54658385110088,103.60345789804705 131.1692546585109,103.79608577254112 124.0,102.15874641618575 129.95341614913195,103.94055662854225 138.50621118023992,104.66291026771069 150.37111801258288,107.84125358381425 148.7779503108468,107.21521790020051 151.0,106.92627808329416 150.413043478271,106.20392779266695" stroke="#4dd2ff" stroke-linecap="round" stroke-linejoin="round" stroke-width="0.5"><title>2021-04-09 1.4km</title></polyline><polyline fill="none" points="162.57386363646947,103.50223745114636 163.87784090917557,104.60354574551457 173.31250000023283,108.21581789135234 177.4928977272939,108.03961017174879 181.1363636367023,108.788492499938 187.8863636367023,108.03961017174879 188.5,107.29072658804944 185.7769886367023,106.58589383284561 182.5170454545878,107.2466745733982 179.1420454545878,105.96916425964446 176.34232954564504,106.18942491928465 171.5866477272939,103.76655168936122 170.97301136376336,102.6211888602993 168.25000000023283,101.56392825720832 166.17897727293894,101.2115075000911 161.5,102.3568739441107" stroke="#4dd2ff" stroke-linecap="round" stroke-linejoin="round" stroke-width="0.5"><title>2021-04-08 1.4km</title></polyline><polyline fill="none" points="38.32467532483861,136.12775079283165 38.5,137.05411077366443 36.220779220806435,137.0943872469943 30.189610389759764,135.0402820468007 21.072727272752672,134.597238393937 16.268831168767065,132.9056127530348 11.5,133.63059602869907 16.02337662340142,133.10699712540372 20.827272727387026,134.55696167447604 29.768831168999895,134.95972869111574" stroke="#4dd2ff" stroke-linecap="round" stroke-linejoin="round" stroke-width="0.5"><title>2021-04-06 1.3km</title></polyline><polyline fill="none" points="57.245508981868625,130.9457708785194 60.64071856276132,129.88541559164878 62.041916167596355,131.00814466172596 62.041916167596355,132.19324533944018 61.125748503021896,132.69223441329086 62.74251497001387,134.4386929749744 64.41317365248688,134.62581324036 66.56886227522045,133.62783783260966 68.99401197605766,130.57152804534417 71.14970059879124,131.38238722848473 72.92814371269196,130.32203269645106 75.94610778428614,130.6962756817229 75.94610778428614,126.89146135671763 75.62275449116714,129.19930237036897 73.84431137726642,128.88743247062666 76.0,129.26167633139994 75.89221556880511,130.88339708879357 71.2574850297533,131.32001348305494 68.99401197605766,130.50915421778336 65.32934131729417,135.12480033526663 66.19161676662043,134.37631954066455 62.14970059879124,134.31394609995186 61.34131736494601,132.94172879809048 62.52694610785693,132.94172879809048 62.41916167666204,132.3179926458979 61.01796407182701,129.82304169406416 60.42514970037155,130.6962756817229 59.23952095792629,130.57152804534417 57.73053892189637,133.8149583453196 52.718562874011695,136.43463952775346 51.10179640701972,139.42854717787122 50.886227544629946,137.1207446550252 50.45508982008323,140.0522760989843 50.077844311250374,138.6800716354628 50.45508982008323,139.61566592089366 50.1317365267314,138.8048176226439 52.34131736517884,139.9275303655304 54.11976047884673,142.609558043594 56.43712574825622,142.422440214199 57.08383233519271,141.11261380888755 55.68263473035768,140.48888596630422 56.922155688516796,140.48888596630422 56.329341317294165,141.23735930153634 55.79041916131973,140.73837717954302 56.43712574825622,141.48685021017445 56.598802394932136,140.8631227480946 56.86826347303577,142.29769496276276 55.95209580799565,143.10853864328237 52.9880239518825,142.85904839425348 50.23952095769346,139.61566592089366 50.72455089795403,136.80887878325302 51.04790419130586,139.05430952075403 49.0,140.23939465155127 49.59281437122263,139.2414283779217 49.21556886192411,140.48888596630422 50.72455089795403,139.42854717787122 50.940119760343805,136.68413239018992" stroke="#4dd2ff" stroke-linecap="round" stroke-linejoin="round" stroke-width="0.5"><title>2021-04-05 1.9km</title></polyline><polyline fill="none" points="107.73379468498752,142.10341087402776 106.67500136501621,142.6364659423416 107.0893117946107,141.9967997299682 107.82586366939358,141.9967997299682 107.98698439181317,141.5437018830562 107.15836353285704,146.47443036714685 105.38603558414616,147.75373932847288 105.29396659974009,148.5 105.22491486161016,147.75373932847288 107.22741527110338,146.5543873605202 107.89491540763993,143.9424462687748 108.35526032932103,139.78460868593538 107.20439802494366,138.95836385842995 104.71853544760961,138.50526074811933 103.24543169816025,139.65134356773342 100.16112072265241,140.53089209322934 94.54491267749108,143.91579367421218 93.53215384972282,142.2899802714819 92.35827429941855,142.79638225099188 91.80586039333139,142.58316048438428 88.58344594121445,128.7500269431912 88.39930797251873,126.21787125550327 90.0335324446205,133.6276893276954 90.53991185850464,133.84091839494067 96.45534410269465,131.1488886642328 101.01275882776827,129.6829202270601 103.86689734249376,128.08367256019847 107.8718981614802,124.85849335137755 110.24267450836487,121.5 111.60069202748127,122.19302596943453 111.43957130482886,122.40626435974264 110.88715739874169,122.2196807777218 111.2093988439301,121.95313257249654 111.2093988439301,122.37960957048927 111.3475023205392,121.65992923290469 110.56491595355328,121.89982289876207" stroke="#4dd2ff" stroke-linecap="round" stroke-linejoin="round" stroke-width="0.5"><title>2021-04-05 3.7km</title></polyline><polyline fill="none" points="130.81308411201462,125.2103965000133 135.10280373785645,128.61973999917973 138.63551401905715,138.45806303771678 138.7196261677891,143.42589063744526 140.65420560725033,143.03625803388422 142.58878504671156,144.7896034999867 146.96261682221666,141.57513435458532 151.0,142.64662527100882 142.75700934557244,140.69845907430863 142.75700934557244,143.91293116903398 143.17757009342313,139.432148916414 143.0093457940966,144.10774731216952 143.26168224262074,142.54921705560992 139.89719626121223,143.23107435565908 142.16822429932654,141.76995097420877 143.345794392284,143.91293116903398 141.2429906539619,142.54921705560992 142.75700934557244,142.15958409424638 142.4205607478507,144.01033924537478 143.345794392284,144.01033924537478 142.25233644852415,142.06217582896352 144.18691588751972,144.4973794791731 142.25233644852415,142.7440334765124 142.4205607478507,141.1855009960709 143.85046728979796,143.42589063744526 142.5046728970483,141.2829093504115 140.2336448598653,141.1855009960709 139.22429906530306,143.71811498625902 139.4766355138272,142.4518088303157 135.18691588798538,139.23733182030264 136.8691588784568,133.0031637659995 135.18691588798538,133.6850278780912 135.27102803764865,131.15238729520934 130.30841121450067,128.4249206984532 124.0,129.00937848177273 127.53271028026938,130.2757024524617 128.7102803736925,133.58761874877382" stroke="#4dd2ff" stroke-linecap="round" stroke-linejoin="round" stroke-width="0.5"><title>2021-04-04 1.4km</title></polyline><polyline fill="none" points="178.16759776556864,122.9137280768482 169.79608938563615,126.72593444224913 161.7262569833547,136.08309806726174 169.34357541939244,144.48713224026142 173.79329608939588,139.46204931195825 178.9972067042254,137.29605642065872 179.14804469328374,134.43693762167823 183.97486033523455,130.88468614366138 176.88547486020252,121.87403255852405 170.92737430194393,125.85952535836259 161.5,136.60293756675674 169.1927374303341,143.5341014813166 173.71787709509954,138.24909395119175 181.1089385477826,137.03613691445207 183.29608938563615,135.38997825584374 184.42737430194393,131.05796703702072 184.1256983242929,130.27820274728583 183.2206703913398,132.01101133896736 180.58100558677688,133.31061553861946 180.50558659248054,132.5308532496565 188.5,127.24577948241495 185.5586592182517,125.68624343891861 182.4664804469794,121.87403255852405 180.73184357536957,124.73319227073807 175.45251396670938,122.48052176041529 165.04469273751602,131.8377306337352 161.80167597765103,136.42965776781784 169.34357541939244,143.5341014813166 173.79329608939588,138.85557184100617 174.47206703945994,139.3754096989869 172.58659217879176,141.97459437139332 182.91899441368878,144.14057572046295 186.2374301678501,148.12596744153416 179.22346368711442,135.3033382408903 179.97765363147482,132.9640546067385 183.67318435804918,129.84500006528106 179.60055865952745,127.33242029225221 177.3379888269119,123.00036931439536 175.7541899443604,122.39388047158718 174.39664804469794,123.34693417925155 175.075418994762,123.95342236361466" stroke="#4dd2ff" stroke-linecap="round" stroke-linejoin="round" stroke-width="0.5"><title>2021-04-02 3.1km</title></polyline><polyline fill="none" points="28.063829787191935,175.4343305611983 24.90425531915389,174.3345724202518 18.944148936192505,174.22459636750864 12.481382978730835,173.37228048761608 11.93085106392391,172.8498920472921 11.5,170.23793516049045 12.122340425499715,169.74303530808538 13.414893617038615,169.68804638125584 12.24202127661556,166.03125840533176 12.52925531915389,161.08214564228547 14.324468085193075,158.52506961475592 15.0425531915389,156.7928434922942 18.46542553184554,154.4281999762752 19.853723404346965,155.94047430498176 21.14627659576945,156.21543239211314 21.81648936169222,157.01280931095243 24.64095744676888,157.01280931095243 28.997340425499715,157.70020137538086 31.10372340423055,158.80002515210072 34.598404255346395,161.90700387241668 37.90159574453719,167.62595379757113 37.997340425499715,168.36830888519762 37.23138297861442,169.028178414359 36.92021276592277,170.07296864059754 37.59042553184554,170.0454742111324 38.5,172.38249103396083 37.90159574453719,173.6197273019061 35.81914893607609,174.00464413187 35.316489361575805,174.63700634156703 34.14361702115275,174.05963220700505 33.64095744676888,174.27958439930808 32.396276595653035,173.89466794897453 31.79787234030664,175.5718000237248 31.60638297861442,175.37934275722364" stroke="#4dd2ff" stroke-linecap="round" stroke-linejoin="round" stroke-width="0.5"><title>2021-04-02 3.2km</title></polyline><polyline fill="none" points="51.82891246699728,162.71723626583116 60.96021220157854,166.78919727093307 65.90185676398687,166.74806655038265 68.90981432353146,167.44728824673803 72.95623342180625,166.4601513936359 76.0,166.50128214235883 69.12466843496077,167.40615759126376 66.11671087541617,166.7069358259323 61.24668435007334,166.953720112273 54.944297082256526,165.14396528797806 49.0,162.55271175326197" stroke="#4dd2ff" stroke-linecap="round" stroke-linejoin="round" stroke-width="0.5"><title>2021-04-01 1.4km</title></polyline><polyline fill="none" points="86.5,161.59926042420557 89.54909983626567,164.6954673033033 93.12847790494561,165.45682679719175 97.32651391159743,167.63938443706138 103.07119476282969,167.5378703335009 106.25286415708251,168.40073957582354 113.5,167.5378703335009 108.418166939402,168.29922562243883 102.27577741397545,167.3855991406017 96.79623567918316,167.63938443706138 88.57692307676189,165.40606953256065 87.73731587571092,164.94925392634468 88.7094926352147,164.5431952692743" stroke="#4dd2ff" stroke-linecap="round" stroke-linejoin="round" stroke-width="0.5"><title>2021-03-29 1.2km</title></polyline><polyline fill="none" points="137.00763466744684,178.5 135.74936770671047,171.4047617338947 134.87405155971646,171.15360141260317 130.60688534518704,165.00014268804807 127.76210786867887,164.74897984799463 136.62468385323882,151.5 139.57887584809214,153.32096613023896 145.37784531945363,159.22337237704778 144.77606546878815,163.43037331756204 147.2378921310883,177.8721059873933 139.41475407057442,172.6605618582107 136.56997659383342,172.09545210778015 136.29644029820338,173.28846099448856" stroke="#4dd2ff" stroke-linecap="round" stroke-linejoin="round" stroke-width="0.5"><title>2021-03-28 1.4km</title></polyline><polyline fill="none" points="174.66769230784848,160.10942592195352 176.20461538457312,161.01598240912426 176.57846153830178,160.25256653287215 178.07384615391493,160.157139463583 178.40615384629928,159.3937222318491 178.8630769229494,159.91857170814183 179.56923076929525,159.3937222318491 181.77076923055574,160.63427462166874 183.05846153851599,159.68000383497565 186.8384615383111,160.82512855296955 186.58923076931387,159.87085814285092 188.37538461526856,160.0617123756092 187.046153845964,159.58457665276364 187.37846153834835,158.8211585173267 187.46153846150264,159.87085814285092 187.25384615384974,159.3937222318491 186.79692307696678,160.01399882443366 186.87999999988824,159.2505813666503 187.46153846150264,160.0617123756092 186.8384615383111,159.87085814285092 188.0846153846942,159.72771741898032 188.0846153846942,160.20485300049768 187.5446153844241,159.5368630544981 186.67230769223534,160.01399882443366 188.4169230768457,159.72771741898032 187.87692307680845,159.29829499311745 187.7107692307327,160.7297015967779 186.96307692304254,160.10942592195352 186.87999999988824,160.63427462166874 187.9184615383856,159.9662852686888 187.46153846150264,160.01399882443366 188.5,161.30226305214455 188.37538461526856,159.91857170814183 187.75230769230984,160.01399882443366 188.0846153846942,160.68198811152251 187.17076923092827,160.96826895224513 187.046153845964,160.4434206149308 186.54769230773672,161.1591227517929 184.80307692289352,160.92055549059296 184.80307692289352,159.9662852686888 185.21846153843217,168.1729476553155 180.5246153846383,169.22262698729173 176.70307692303322,167.98209662307636 176.99384615384042,168.602362202917 175.83076923084445,167.98209662307636 169.1015384614002,167.64810713526094 165.7369230769109,168.65007490682183 165.4461538461037,170.36772911532898 164.65692307706922,170.9879916361242 161.95692307688296,171.1788414827024 161.5,170.4154416451056" stroke="#4dd2ff" stroke-linecap="round" stroke-linejoin="round" stroke-width="0.5"><title>2021-03-26 1.5km</title></polyline><polyline fill="none" points="14.353658536914736,193.28908159493585 22.914634146611206,196.78296138744918 25.92508710816037,196.56684608149226 28.559233449632302,197.14315327999066 32.353658536681905,196.38674989546416 33.85888501745649,196.56684608149226 38.5,194.90995782002574 34.391986062866636,196.56684608149226 29.092334494926035,196.99907656561118 26.30139372847043,196.42276913978276 23.196864111814648,196.67490375047782 16.517421602853574,195.0540353585675 11.5,192.85684672000934" stroke="#4dd2ff" stroke-linecap="round" stroke-linejoin="round" stroke-width="0.5"><title>2021-03-26 1.6km</title></polyline><polyline fill="none" points="76.0,197.39574562490452 73.93718166393228,197.13247799157398 70.86587436310947,195.18429346877383 68.25297113740817,195.23694719810737 64.49405772495084,193.76264081668342 55.32597623066977,194.0259101120173 56.701188454870135,194.71040967211593 56.15110356523655,194.8683709843317 49.0,192.60425437503727 54.775891341036186,194.81571721867658 62.981324278283864,195.34225464100018 69.99490662128665,197.02717090176884" stroke="#4dd2ff" stroke-linecap="round" stroke-linejoin="round" stroke-width="0.5"><title>2021-03-24 1.1km</title></polyline><polyline fill="none" points="113.5,196.98045260098297 111.55570652172901,196.85404130007373 109.64809782616794,195.42137727636145 106.60326086962596,194.91573000318022 104.10869565233588,193.77802145073656 96.47826086962596,193.94657105699298 97.13858695677482,194.6629061421845 91.1589673915878,193.01954739898792 86.5,193.60947177780326 88.33423913037404,193.8622962621157 91.30570652172901,193.06168488171534 96.8084239133168,194.74718077926082 106.82336956541985,195.16855371458223" stroke="#4dd2ff" stroke-linecap="round" stroke-linejoin="round" stroke-width="0.5"><title>2021-03-23 1.3km</title></polyline><polyline fill="none" points="150.46143617015332,196.34032829705393 141.37765957438387,193.16479310847353 137.67952127661556,193.78340575075708 134.01728723407723,193.37099742420833 135.02260638284497,194.0308505515568 134.62765957438387,194.15457289706683 128.84707446792163,192.42245672934223 124.0,193.12355223300983 128.48803191492334,192.50493861435098 133.90957446815446,194.0720913373807 141.09042553184554,194.56698045079247 151.0,197.57754327062867 149.38430851045996,196.7939742123708 151.0,196.34032829705393" stroke="#4dd2ff" stroke-linecap="round" stroke-linejoin="round" stroke-width="0.5"><title>2021-03-22 1.6km</title></polyline><polyline fill="none" points="184.49234889051877,181.66696286508522 184.86419280793052,181.92771207584883 184.65761285379995,182.75736678148678 186.53749043610878,183.0418191668141 187.0332823258359,183.4447928055597 186.86801836267114,184.17962535582774 187.6117061972618,184.6774138768087 188.5,186.21818136313232 187.96289211930707,187.64041954364802 187.17788829375058,187.97227391318302 186.88867635803763,188.8256116255361 183.06694720732048,192.1441184944124 178.8527161438251,193.77965152416436 177.53060443745926,194.63296870570048 176.51836266263854,195.4862828705518 173.56426931906026,199.56318669089524 161.5,208.33303713492933" stroke="#4dd2ff" stroke-linecap="round" stroke-linejoin="round" stroke-width="0.5"><title>2021-03-21 1.3km</title></polyline><polyline fill="none" points="23.73930905794259,222.65431547551998 23.39659695723094,220.4628218654252 21.046571123879403,217.5408042424533 20.091873129014857,217.2598394350207 16.86058760806918,220.20995613664854 13.653781522880308,224.28387675297563 12.845960142672993,224.5086430964584 11.96470045519527,226.89677457942162 13.457946036825888,229.032028183894 17.007464222609997,230.7177434452169 20.850735637708567,233.83629046773422 20.63042071578093,234.00485960778315 21.144488866906613,233.94866990548326 20.679379587527364,233.69581610852038 21.266886045690626,234.67913517341367 22.564296141266823,236.22434401192004 27.48466273001395,238.5 30.030524049536325,238.24715022931923 36.0279858118156,234.06104929899448 36.83580719213933,232.37535375673906 38.035299544688314,226.98106120841112 36.83580719213933,224.90198377234628 32.356070447247475,220.77187967445934 27.50914216588717,214.67495024375967 23.91066510824021,211.5 19.87155820708722,217.11935692763655 20.60594128014054,217.20364644034998 21.609598146402277,218.13082943920745 23.567953007644974,220.63139889360173 23.54347357188817,221.41809037700295" stroke="#4dd2ff" stroke-linecap="round" stroke-linejoin="round" stroke-width="0.5"><title>2021-03-20 3.7km</title></polyline><polyline fill="none" points="73.33990147779696,231.79852100237622 64.11822660081089,228.8448868917476 54.36453201971017,228.53933757098275 49.13300492614508,227.4189885148371 49.0,225.58568481527618 49.75369458133355,224.7708810813201 49.04433497553691,223.395896864502 49.22167487675324,221.00239708510344 52.01477832510136,218.20147899762378 56.62561576371081,218.76166383081 61.325123152695596,220.34036327208742 70.19211822655052,220.1366603898059 74.93596059107222,219.37277386462665 75.51231527072378,218.7107379619556 74.66995073878206,220.6459174452175 74.13793103443459,227.21528842530097 74.5812807881739,230.57632962657954 76.0,230.83095306847827" stroke="#4dd2ff" stroke-linecap="round" stroke-linejoin="round" stroke-width="0.5"><title>2021-03-19 1.6km</title></polyline><polyline fill="none" points="97.44199535972439,224.7241834859742 103.30974477971904,227.2426167684025 105.5858468679944,227.09870699765452 107.56960556854028,227.53043605438143 109.65777262195479,227.07472202762438 110.76450116012711,227.1706618936878 113.5,226.3551718256931 108.4257540605031,227.50645112684288 105.81554524379317,227.09870699765452 102.89211136905942,227.21863181254594 91.2192575406516,223.50093505275436 86.5,222.9972427329194 87.5232018561801,223.14115493069403 86.83410672855098,222.85333044989966 87.042923433939,222.73340348235797 88.62993039446883,222.8293450611527 90.7389791184105,222.46956394561857 91.44895591656677,222.9972427329194 91.8665893272264,222.73340348235797 92.36774941999465,223.21311099771992 92.80626450118143,223.0691988425242 93.37006960564759,223.54890569548297 94.08004640380386,223.2850670433836 95.54176334117074,224.3404199340148 95.83410672855098,223.98064105407684 95.0823665894568,222.85333044989966 94.79002320196014,222.87731583633285 94.89443155459594,223.69281756679993 96.2517401392106,224.36440517377923 96.81554524379317,223.02122810516448 97.12877030181699,223.66883226085338 97.54640371236019,223.59687632865098 97.10788863117341,223.71680287044728 97.35846867761575,223.6448469524621 96.75290023209527,222.8053596700338 97.6508120651124,222.73340348235797" stroke="#4dd2ff" stroke-linecap="round" stroke-linejoin="round" stroke-width="0.5"><title>2021-03-19 3.1km</title></polyline><polyline fill="none" points="135.36185962153831,238.5 135.21021845994983,238.02971275118762 134.92210025299573,237.9774585351406 134.4975050004432,238.3780737964844 135.01308494986733,235.43440133267723 134.81595143978484,236.1485512315412 134.90693613677286,237.45491552402382 134.61881792976055,237.68135101867665 132.98109338455833,237.6465148076095 132.78395987441763,236.60142528064898 132.92043691989966,235.67825772045762 136.89343535364605,234.7899221154221 139.56231979769655,234.61573813950235 139.47133510076674,217.77133590234735 140.3660179541912,216.62160766593297 142.21604012564057,214.98410300788237 141.88242957007606,214.14792455772113 139.62297626235522,211.5" stroke="#4dd2ff" stroke-linecap="round" stroke-linejoin="round" stroke-width="0.5"><title>2021-03-18 2.7km</title></polyline><polyline fill="none" points="170.65707811439643,236.27201083266118 171.41298898454988,236.40306984627387 171.52708873845404,237.04198105671094 171.81233812338905,237.20580404812063 173.3526848020265,237.51706728668069 175.34943049651338,237.33686232486798 176.73289001343073,237.73003653480555 178.0165122456383,238.5 178.3445490382146,237.46792049828218 178.1591369381058,233.0937980911549 179.34292188554537,232.97911917501187 177.64568804518785,232.50401996453002 176.00550408184063,232.42210617019737 175.27811815030873,231.6357316889771 173.8376087563811,216.74306192847143 175.40648037352366,214.90800908749225 176.51895297470037,214.2690127123351 175.72025469696382,212.84355039751972 174.35105764924083,211.5" stroke="#4dd2ff" stroke-linecap="round" stroke-linejoin="round" stroke-width="0.5"><title>2021-03-17 2.8km</title></polyline><polyline fill="none" points="12.40957446815446,253.5428993329988 12.74468085099943,253.5428993329988 14.42021276592277,254.25771734368755 14.89893617015332,254.86256263690302 19.87765957438387,256.2372085903189 25.14361702115275,256.95202314679045 26.9148936169222,256.8420517363702 28.15957446815446,257.11698022211203 28.78191489353776,257.33692291303305 31.27127659553662,257.72182241349947 33.32978723407723,258.5466061629122 34.0,258.7115627663443 35.14893617038615,259.3164032281493 36.10638297884725,259.9212430336629 36.48936170223169,260.03121383691905 36.92021276592277,260.2511553784134 37.97340425522998,260.5260821832344 38.5,260.4710968331783 38.45212765969336,260.4710968331783 38.45212765969336,260.4710968331783 38.30851063854061,260.5260821832344 38.40425531915389,260.4710968331783 38.45212765969336,260.4710968331783 38.5,260.5260821832344 38.21276595722884,260.4710968331783 37.59042553184554,260.4710968331783 35.48404255299829,260.5260821832344 34.04787234053947,260.08619923051447 32.65957446815446,259.8112722088117 31.27127659553662,259.70130136219086 29.88297872338444,259.75628678809153 29.16489361715503,259.8112722088117 27.77659574477002,259.9212430336629 27.15425531892106,259.9212430336629 25.0,259.75628678809153 24.32978723407723,259.5913304936839 23.0372340423055,259.2614177586511 22.36702127661556,258.93150482838973 21.07446808507666,258.4916206173948 20.40425531915389,258.27167838194873 17.67553191492334,257.72182241349947 15.90425531915389,257.007008843997 15.76063829776831,256.6770945797325 16.33510638284497,256.5671231148881 16.57446808507666,256.5671231148881 16.76595744676888,256.3471801203559 16.57446808507666,256.29219435801497 16.09574468061328,256.18222281726776 15.85638297861442,256.1272370388615 15.71276595746167,256.0722512549255 15.42553191492334,256.0722512549255 15.23404255323112,255.96227967075538 14.99468085099943,255.96227967075538 14.75531914876774,255.96227967075538 14.42021276592277,255.8523080649902 14.18085106369108,255.7423364375718 14.03723404253833,255.6873506156844 13.55851063830778,255.4124214250478 13.4148936169222,255.30244971072534 13.17553191492334,255.1374920986127 13.03191489353776,255.02752033027355 12.88829787238501,254.86256263690302 12.69680851045996,254.64261896983953 12.36170212761499,254.3676892640069 12.07446808507666,254.20273137534969 11.93085106369108,254.09275942249224 11.69148936169222,253.81782944552833 11.59574468061328,253.32295514538419 11.59574468061328,252.88306650985032 11.54787234053947,252.6081359362579 11.5,252.38819137983955 11.64361702115275,251.94830200687284 11.59574468061328,251.34345355216647 11.59574468061328,251.06852221954614 11.54787234053947,250.90356335480465 11.64361702115275,250.73860444140155 11.59574468061328,250.68361812614603 11.64361702115275,250.29871376691153 11.69148936169222,250.02378191897878 11.93085106369108,249.96879553317558 12.40957446815446,249.80383634311147 12.64893617015332,249.69386352261063 12.79255319130607,249.63887710432755 13.07978723407723,249.52890425140504 13.12765957438387,249.52890425140504 13.12765957438387,249.4739178167074 13.17553191492334,249.4739178167074" stroke="#4dd2ff" stroke-linecap="round" stroke-linejoin="round" stroke-width="0.5"><title>2021-03-02 1.4km</title></polyline><polyline fill="none" points="53.96046511642635,255.39670685463352 54.27441860502586,255.54094889492262 57.72790697682649,256.1900377253187 59.92558139562607,256.98336773522897 60.7418604651466,257.3439720008755 62.93953488394618,257.92093845579075 63.75581395346671,257.92093845579075 66.07906976761296,257.77669688494643 66.83255813969299,257.5603344748379 69.15581395360641,257.41609283257276 70.60000000009313,257.92093845579075 71.35348837217316,258.209421512729 72.67209302354604,258.71426658827113 73.92790697677992,258.93062865681713 75.49767441884615,258.786387285043 75.74883720930666,258.64214588463074 76.0,258.786387285043 75.9372093025595,259.79607629112434 74.80697674443945,260.08455860830145 73.86511627910659,260.8778843934997 73.4255813951604,261.0221253531636 72.98604651167989,261.1663662841311 72.73488372098655,261.1663662841311 72.35813953494653,261.2384867388173 72.10697674448602,261.3827276270604 71.22790697682649,261.743329723482 71.35348837217316,262.10393164196284 71.79302325588651,262.39241304877214 71.79302325588651,262.4645333828521 71.79302325588651,262.5366537095397 71.85581395355985,262.4645333828521 71.54186046519317,262.39241304877214 71.16511627915315,262.5366537095397 71.03953488403931,262.6087740291259 70.91395348822698,262.68089434184367 70.85116279078647,262.75301464722725 70.85116279078647,262.75301464722725 70.60000000009313,262.39241304877214 70.47441860474646,262.24817235959927 70.28604651149362,262.03181127260905 70.22325581405312,261.8875705123064 69.59534883755259,261.743329723482 69.34418604662642,261.743329723482 69.03023255825974,261.743329723482 68.71627907012589,261.67120931850513 68.33953488408588,261.67120931850513 68.02558139548637,261.67120931850513 67.39767441875301,261.52696848718915 67.0837209301535,261.45484806067543 66.76976744225249,261.3827276270604 66.45581395342015,261.3106071865186 65.82790697691962,261.1663662841311 65.57674418599345,261.0221253531636 65.2627906978596,260.9500048768823 64.94883720949292,260.8057639031322 64.63488372089341,260.6615229010349 64.3837209304329,260.4451613446581 63.81860465137288,260.1566791696823 63.25348837208003,259.86819688096875 62.81395348883234,259.4354732345091 62.5,259.2912319623283 62.18604651163332,259.1469906614511 61.872093023499474,259.0027493322268 61.558139534667134,258.85850797448074 61.36976744211279,258.786387285043 60.8674418607261,258.57002517359797 60.61627907003276,258.4979044556967 60.36511627910659,258.4257837305777 60.113953488413244,258.28154225915205 59.8000000002794,258.209421512729 59.48604651167989,258.13730075926287 58.795348837273195,258.06517999846255 58.54418604681268,257.99305923079373 58.230232558213174,257.92093845579075 57.85348837217316,257.92093845579075 57.60232558147982,257.84881767391926 56.97441860474646,257.77669688494643 56.66046511637978,257.63245528534753 56.09534883731976,257.1997303159442 55.467441860586405,256.98336773522897 55.21627906989306,256.9112468608073 54.902325581759214,256.8391259793425 54.52558139548637,256.76700509065995 54.27441860502586,256.6948841949343 53.96046511642635,256.5506423818297 53.39534883736633,256.2621586708119 53.08139534899965,256.1179167724913 52.830232558073476,255.97367484582355 52.20232558157295,255.6130699045607 52.01395348855294,255.46882787835784 51.76279069762677,255.32458582380787 51.19767441879958,254.96398056240287 50.94651162810624,254.7476173203322 50.63255813973956,254.3148906439892 50.19302325602621,253.81004253140418 49.43953488371335,253.23307283304166 49.43953488371335,253.01670907909283 49.31395348859951,252.65610267966986 49.18837209348567,252.36761743220268 49.0,251.43003959202906 49.18837209348567,251.06943241041154 49.25116279069334,250.7088250509696 49.31395348859951,250.42033903533593 49.376744186505675,250.20397444895934 49.376744186505675,249.84336666268064 49.376744186505675,248.9057855863357 49.376744186505675,248.25669029093115 50.06744186067954,247.96820330794435 50.56976744206622,247.67971621121978 51.0093023260124,247.53547262010397 51.32325581437908,247.46335081395227 51.44883720949292,247.31910718022846 52.32790697691962,247.24698535277275" stroke="#4dd2ff" stroke-linecap="round" stroke-linejoin="round" stroke-width="0.5"><title>2020-12-25 1.0km</title></polyline><polyline fill="none" points="86.90601503755897,251.8813230539672 87.2105263157282,252.17278965492733 87.46428571431898,252.46425611217273 88.02255639084615,252.814015671378 90.20488721807487,253.3969478099607 91.37218045117334,253.7467068171827 92.13345864671282,253.92158624331933 95.68609022558667,255.32061978871934 96.7011278194841,256.02013531984994 97.86842105258256,256.5447714247275 99.59398496244103,257.185992698709 100.25375939835794,257.30257831001654 101.47180451150052,257.30257831001654 102.1823308269959,257.30257831001654 103.40037593967281,257.06940706435125 104.51691729342565,256.95282140676863 105.78571428591385,257.0111142384121 106.49624060164206,256.95282140676863 108.47556390985847,257.30257831001654 109.13533834577538,257.53574946388835 110.40413533826359,257.76892052585026 111.11466165445745,257.7106277688872 112.38345864671282,257.6523350063362 112.94172932347283,257.5940422380809 113.5,257.82721327705076 113.44924812018871,257.8855060223141 113.29699248145334,257.94379876181483 113.24624060164206,258.00209149578586 113.24624060164206,258.0603842238197 113.19548872183077,258.00209149578586 113.09398496244103,258.118676946091 113.09398496244103,258.00209149578586 113.14473684248514,258.0603842238197 113.19548872183077,258.118676946091 113.14473684248514,258.0603842238197 113.24624060164206,257.94379876181483 113.19548872183077,257.94379876181483 113.14473684248514,257.94379876181483 113.14473684248514,258.00209149578586 113.14473684248514,257.94379876181483 113.14473684248514,257.94379876181483 113.14473684248514,257.94379876181483 113.14473684248514,258.00209149578586 113.09398496244103,258.00209149578586 113.09398496244103,258.00209149578586 113.04323308262974,258.00209149578586 112.99248120328411,258.00209149578586 113.09398496244103,258.00209149578586 113.09398496244103,258.00209149578586 113.09398496244103,258.00209149578586 113.04323308262974,258.00209149578586 113.04323308262974,258.0603842238197 112.94172932347283,258.00209149578586 111.77443609037437,258.00209149578586 110.45488721807487,258.00209149578586 109.13533834577538,257.7106277688872 108.52631578966975,257.53574946388835 107.25751879694872,257.185992698709 106.5977443610318,257.06940706435125 105.22744360892102,257.06940706435125 104.5676691730041,257.0111142384121 103.19736842112616,257.127699884295 101.77631578943692,257.30257831001654 101.11654135352,257.30257831001654 99.74624060164206,257.24428550724406 99.03571428568102,257.06940706435125 95.83834586455487,256.02013531984994 95.17857142863795,255.78696356801083 93.30075187981129,255.32061978871934 92.79323308262974,255.26232679048553 90.76315789483488,254.91256868001074 89.59586466150358,254.38793112634448 88.93609022558667,254.0381724986364 87.66729323309846,253.3386546219699 86.5,252.93060214509023" stroke="#4dd2ff" stroke-linecap="round" stroke-linejoin="round" stroke-width="0.5"><title>2020-12-08 1.1km</title></polyline><polyline fill="none" points="124.0,252.21688039737637 124.25961538474075,252.26657923389575 125.99038461549208,253.6084459623671 126.55288461549208,253.80724072939483 128.75961538474075,254.45332318075816 129.7980769232381,254.75151480198838 130.3173076924868,254.95030911802314 131.52884615398943,255.39759604274877 132.6105769232381,255.94427952257684 133.1730769232381,256.29216870098026 135.94230769225396,257.2364381174557 136.54807692347094,257.2861364587152 138.27884615398943,257.0873430640495 138.7980769232381,257.0376447030285 141.52403846173547,257.0873430640495 142.08653846150264,257.13704142006463 143.77403846173547,257.6340247109474 145.5048076924868,257.7831196025945 146.02403846173547,257.73342131017125 147.1490384619683,257.7831196025945 148.87980769225396,257.53462809184566 149.39903846173547,257.4849297750625 150.48076923098415,257.3855331266823 151.0,257.33583479523077 150.7836538462434,256.9382479664928 149.57211538474075,256.88854959077435 149.05288461549208,256.9382479664928 147.97115384647623,257.2364381174557 147.5817307694815,257.33583479523077 146.4567307694815,257.5843264038558 145.9375,257.6340247109474 144.85576923098415,257.6340247109474 144.29326923098415,257.53462809184566 143.21153846150264,257.33583479523077 142.69230769271962,257.1867397711321 141.0048076924868,256.88854959077435 140.4423076924868,256.88854959077435 139.3173076924868,256.9382479664928 138.71153846150264,256.9382479664928 137.58653846173547,257.0376447030285 136.46153846173547,257.0873430640495 135.3798076924868,257.0376447030285 134.34134615398943,256.78915282484377 133.82211538474075,256.64005763921887 132.69711538497359,256.29216870098026 132.17788461549208,256.09337491414044 131.13942307699472,255.74548559851246 129.75480769225396,255.34789751510834 129.36538461549208,255.29819898269488 128.32692307699472,255.04970624673297 126.89903846173547,254.6024190133612 126.50961538474075,254.3042273040046 125.60096153849736,253.80724072939483 125.12500000023283,253.55874725829926" stroke="#4dd2ff" stroke-linecap="round" stroke-linejoin="round" stroke-width="0.5"><title>2020-12-03 1.3km</title></polyline><polyline fill="none" points="188.21478873235174,255.7097914389451 188.45246478868648,256.5833735263441 188.5,256.85636764595984 187.69190140860155,257.3477567220689 186.31338028167374,257.29315795737784 184.41197183099575,256.96556525613414 182.60563380271196,256.2011815327569 181.98767605633475,256.09198377176654 178.47007042262703,254.72700994316256 177.18661971832626,254.50861381803406 175.23767605633475,254.56321285746526 173.90669014072046,254.50861381803406 172.9559859156143,254.50861381803406 172.38556338031776,254.50861381803406 171.102112676017,254.3994157234556 170.674295774661,254.3448166680755 169.200704225339,254.23561854078434 168.63028169004247,254.18101946933893 166.63380281697027,254.0172222222318 166.01584507036023,253.90802403050475 164.7799295776058,253.79882581724087 163.16373239457607,253.08903690631269 162.54577464796603,252.870640135312 161.5,252.65224327798933 162.68838028167374,252.92523933615303 163.73415492963977,253.41663190134568 164.7799295776058,253.90802403050475 165.397887323983,253.9626231289585 166.96654929593205,254.12642039224738 167.44190140836872,254.18101946933893 168.6778169015888,254.29021760710748 169.2957746477332,254.3448166680755 170.5792253522668,254.3448166680755 171.14964788756333,254.3994157234556 172.43309859163128,254.50861381803406 173.00352112669498,254.50861381803406 174.76232394366525,254.56321285746526 175.33274647896178,254.56321285746526 176.18838028167374,254.4540147734224 176.473591549322,254.4540147734224 176.66373239434324,254.4540147734224 176.85387323936448,254.4540147734224 177.0440140843857,254.4540147734224 177.2816901409533,254.3994157234556 177.5193661970552,254.3994157234556 177.9947183097247,254.4540147734224 178.18485915497877,254.4540147734224 178.61267605656758,254.61781189130852 179.04049295769073,254.83620797318872 178.99295774661005,254.94540598179447 178.99295774661005,255.00000497797737 178.9454225350637,255.00000497797737" stroke="#4dd2ff" stroke-linecap="round" stroke-linejoin="round" stroke-width="0.5"><title>2020-11-30 1.0km</title></polyline></svg>