<?xml version="1.0" encoding="utf-8" ?>
<svg baseProfile="full" height="300mm" version="1.1" viewBox="0,0,200,300" width="200mm" xmlns="http://www.w3.org/2000/svg" xmlns:ev="http://www.w3.org/2001/xml-events" xmlns:xlink="http://www.w3.org/1999/xlink"><defs /><rect fill="#222222" height="300" width="200" x="0" y="0" /><text fill="#FFFFFF" style="font-size:12px; font-family:Arial; font-weight:bold;" x="10" y="20">Over 3km Runs</text><text fill="#FFFFFF" style="font-size:4px; font-family:Arial" x="10" y="280">ATHLETE</text><text fill="#FFFFFF" style="font-size:9px; font-family:Arial" x="10" y="290">jdzj</text><text fill="#FFFFFF" style="font-size:4px; font-family:Arial" x="120" y="280">STATISTICS</text><text fill="#FFFFFF" style="font-size:3px; font-family:Arial" x="120" y="285">Number: 16</text><text fill="#FFFFFF" style="font-size:3px; font-family:Arial" x="120" y="290">Weekly: 2.7</text><text fill="#FFFFFF" style="font-size:3px; font-family:Arial" x="141" y="285">Total: 28.3 km</text><text fill="#FFFFFF" style="font-size:3px; font-family:Arial" x="141" y="290">Avg: 1.8 km</text><text fill="#FFFFFF" style="font-size:3px; font-family:Arial" x="167" y="285">Min: 1.0 km</text><text fill="#FFFFFF" style="font-size:3px; font-family:Arial" x="167" y="290">Max: 3.7 km</text><polyline fill="none" points="32.001538461539894,45.16413888288662 34.30692307674326,46.523973613628186 34.86769230756909,45.37884979927912 37.11076923087239,45.2357091953163 37.6092307693325,44.09058334771544 38.294615384424105,44.87785756215453 39.35384615394287,44.09058334771544 42.656153846066445,45.951411932474 44.58769230777398,44.520005752448924 50.25769230746664,46.23769282939611 49.88384615397081,44.80628721421817 52.56307692313567,45.092568563413806 50.569230769062415,44.37686497910181 51.06769230775535,43.23173777596094 51.19230769225396,44.80628721421817 50.88076923089102,44.09058334771544 50.19538461556658,45.02099823660683 50.31999999983236,43.87587204994634 51.19230769225396,45.092568563413806 50.25769230746664,44.80628721421817 52.12692307704128,44.591576128441375 52.12692307704128,45.30727950070286 51.31692307675257,44.30529458174715 50.00846153846942,45.02099823660683 52.62538461526856,44.591576128441375 51.81538461521268,43.94744248967618 51.566153845982626,46.09455239516683 50.444615384563804,45.16413888288662 50.31999999983236,45.951411932474 51.8776923075784,44.949427902989555 51.19230769225396,45.02099823660683 52.75,46.95339457812952 52.56307692313567,44.87785756215453 51.62846153858118,45.02099823660683 52.12692307704128,46.02298216725467 50.75615384639241,46.45240342832403 50.569230769062415,45.6651309223962 49.82153846160509,46.73868412763113 47.20461538457312,46.38083323586034 47.20461538457312,44.949427902989555 47.827692307531834,57.25942148291506 40.786923076957464,58.83394048089394 35.05461538466625,56.97314493457088 35.490769230760634,57.90354330436094 33.746153846150264,56.97314493457088 23.65230769221671,56.47216070286231 18.605384615482762,57.97511236020364 18.169230769155547,60.55159367294982 16.985384615371004,61.48198745417176 12.935384615324438,61.76826222403906 12.25,60.62316246761475" stroke="#4dd2ff" stroke-linecap="round" stroke-linejoin="round" stroke-width="0.5"><title>2021-03-26 1.5km</title></polyline><polyline fill="none" points="61.530487805372104,49.93362239241833 74.3719512198586,55.17444208118832 78.88763066218235,54.850269122223835 82.83885017433204,55.71472991997143 88.53048780513927,54.58012484322535 90.78832752630115,54.850269122223835 97.75,52.36493673006771 91.58797909435816,54.850269122223835 83.63850174238905,55.498614848416764 79.45209059258923,54.63415370968869 74.79529616772197,55.01235562574584 64.77613240433857,52.58105303783668 57.25,49.28527008002857" stroke="#4dd2ff" stroke-linecap="round" stroke-linejoin="round" stroke-width="0.5"><title>2021-03-26 1.6km</title></polyline><polyline fill="none" points="142.75,56.09361843741499 139.655772495782,55.69871698744828 135.0488115446642,52.77644020324806 131.12945670587942,52.85542079724837 125.49108658730984,50.643961225112434 111.73896434600465,51.03886516811326 113.80178268207237,52.0656145082321 112.97665534797125,52.302556476555765 102.25,48.90638156264322 110.91383701143786,52.22357582813129 123.2219864174258,53.01338196161669 133.74235993204638,55.54075635276968" stroke="#4dd2ff" stroke-linecap="round" stroke-linejoin="round" stroke-width="0.5"><title>2021-03-24 1.1km</title></polyline><polyline fill="none" points="187.75,55.47067890147446 184.8335597824771,55.281061950081494 181.97214673901908,53.13206591451308 177.4048913042061,52.373595004784875 173.663043478271,50.66703217604663 162.21739130443893,50.91985658550402 163.2078804350458,51.994359213276766 154.23845108714886,49.529321098467335 147.25,50.4142076667049 150.00135869556107,50.79344439320266 154.4585597824771,49.59252732252935 162.71263586962596,52.120771168905776 177.73505434789695,52.75283057184424" stroke="#4dd2ff" stroke-linecap="round" stroke-linejoin="round" stroke-width="0.5"><title>2021-03-23 1.3km</title></polyline><polyline fill="none" points="51.94215425499715,119.51049244561 38.31648936145939,114.7471896627685 32.76928191469051,115.67510862619383 27.27593085099943,115.05649613635615 28.78390957415104,116.0462758273934 28.19148936145939,116.23185934562935 19.52061170176603,113.63368509407155 12.25,114.6853283495293 18.98204787215218,113.75740792159922 27.11436170199886,116.1081370061147 37.88563829776831,116.85047067626147 52.75,121.36631490598666 50.32646276568994,120.19096131855622 52.75,119.51049244561" stroke="#4dd2ff" stroke-linecap="round" stroke-linejoin="round" stroke-width="0.5"><title>2021-03-22 1.6km</title></polyline><polyline fill="none" points="91.73852333577815,97.50044429762056 92.29628921183757,97.8915681137587 91.98641928075813,99.13605017220834 94.80623565416317,99.56272875022842 95.54992348875385,100.167189208325 95.30202754389029,101.26943803371978 96.41755929589272,102.01612081518397 97.75,104.32727204466937 96.94433817884419,106.46062931543565 95.76683244074229,106.95841086975997 95.33301453711465,108.23841743828962 89.60042081098072,113.21617774158949 83.27907421567943,115.66947728622472 81.2959066563053,116.94945305853616 79.7775439938996,118.22942430581315 75.34640397853218,124.34478003630647 57.25,137.49955570237944" stroke="#4dd2ff" stroke-linecap="round" stroke-linejoin="round" stroke-width="0.5"><title>2021-03-21 1.3km</title></polyline><polyline fill="none" points="120.60896358732134,113.98147321326542 120.09489543619566,110.69423279812327 116.56985668628477,106.3112063636654 115.13780969381332,105.88975915251649 110.2908814123366,110.31493420494371 105.48067228472792,116.42581512941979 104.26894021430053,116.76296464467305 102.94705068296753,120.34516186913243 105.18691905541345,123.54804227585555 110.51119633438066,126.07661516778171 116.2761034569703,130.75443570161588 115.94563107402064,131.00728941164562 116.71673330082558,130.92300485819578 116.01906938152388,130.54372416279512 116.9003290690016,132.01870276010595 118.8464442123659,134.33651601785095 126.22699409537017,137.75 130.04578607459553,137.3707253439643 139.04197871801443,131.09157394847716 140.25371078867465,128.56303063509404 142.0529493172653,120.47159181258758 140.25371078867465,117.35297565849032 133.53410567133687,111.15781951168901 126.26371324900538,102.01242536562495 120.86599766276777,97.25 114.80733731109649,105.67903539142571 115.90891192061827,105.80546966052498 117.41439721989445,107.19624415878206 120.35192951164208,110.94709834040259 120.31521035823971,112.12713556550443" stroke="#4dd2ff" stroke-linecap="round" stroke-linejoin="round" stroke-width="0.5"><title>2021-03-20 3.7km</title></polyline><polyline fill="none" points="183.75985221681185,127.69778150354978 169.92733990121633,123.26733033760684 155.29679802968167,122.80900635645958 147.44950738921762,121.12848277221201 147.25,118.37852722289972 148.38054187200032,117.15632162196562 147.31650246330537,115.09384529676754 147.58251231512986,111.5035956276115 151.77216748753563,107.30221849639202 158.6884236454498,108.14249574620044 165.7376847290434,110.51054490817478 179.03817733982578,110.20499058469431 186.15394088672474,109.05916079698363 187.01847290620208,108.06610694288975 185.7549261082895,110.96887616778258 184.95689655165188,120.82293263799511 185.62192118237726,125.86449443991296 187.75,126.24642960273195" stroke="#4dd2ff" stroke-linecap="round" stroke-linejoin="round" stroke-width="0.5"><title>2021-03-19 1.6km</title></polyline><polyline fill="none" points="28.66299303958658,182.08627522893948 37.46461716957856,185.86392515257467 40.8787703019334,185.64806049643084 43.854408352752216,186.29565408156486 46.98665893287398,185.6120830414293 48.64675174013246,185.75599284050986 52.75,184.53275773851783 45.13863109075464,186.2596766902425 41.22331786563154,185.64806049643084 36.838167053530924,185.8279477187898 19.328886311035603,180.25140257910243 12.25,179.49586409932817 13.784802784328349,179.71173239601194 12.751160092884675,179.27999567482038 13.064385150908493,179.10010522350785 15.444895591703244,179.24401759169996 18.608468677615747,178.70434591840603 19.67343387485016,179.49586409932817 20.29988399078138,179.10010522350785 21.05162412999198,179.81966649653623 21.709396751830354,179.60379826373537 22.555104408529587,180.32335854318808 23.620069605764,179.9276005650463 25.812645011697896,181.51062990099308 26.251160092884675,180.9709615810716 25.12354988406878,179.27999567482038 24.685034802882,179.31597375447745 24.841647331835702,180.5392263501708 26.877610208815895,181.5466077606252 27.723317865631543,179.53184215771034 28.193155452609062,180.5032483912364 28.819605568540283,180.39531449295464 28.161832946818322,180.57520430564182 28.53770301642362,180.46727042866405 27.629350348142907,179.20803950502886 28.9762180976104,179.10010522350785" stroke="#4dd2ff" stroke-linecap="round" stroke-linejoin="round" stroke-width="0.5"><title>2021-03-19 3.1km</title></polyline><polyline fill="none" points="74.29278943233658,202.75 74.06532768986654,202.04456912676687 73.63315037940629,201.96618780269637 72.996257500723,202.56711069471203 73.7696274247719,198.15160199900856 73.47392715967726,199.2228268473118 73.61040420515928,201.18237328602117 73.17822689458262,201.52202652799315 70.7216400768375,201.4697722114215 70.42593981162645,199.90213792095892 70.63065537984949,198.51738658067188 76.59015303046908,197.18488317311858 80.5934796964284,196.9236072092608 80.45700265117921,171.6570038535283 81.79902693128679,169.9324114988849 84.57406018837355,167.47615451182355 84.07364435505588,166.2218868365744 80.68446439353283,162.25" stroke="#4dd2ff" stroke-linecap="round" stroke-linejoin="round" stroke-width="0.5"><title>2021-03-18 2.7km</title></polyline><polyline fill="none" points="115.98561717162374,199.4080162490136 117.11948347685393,199.60460476942535 117.29063310776837,200.56297158508096 117.71850718511268,200.80870607218822 120.02902720309794,201.27560093002103 123.02414574485738,201.00529348730925 125.0993350201752,201.59505480223743 127.02476836845744,202.75 127.51682355743833,201.20188074742327 127.2387054071296,194.64069713673962 129.01438282837626,194.46867876253964 126.46853206783999,193.7560299468023 124.00825612281915,193.63315925530333 122.91717722546309,192.45359753347293 120.75641313462984,170.11459289271443 123.10972056025639,167.36201363126747 124.77842946210876,166.40351906852447 123.58038204547483,164.26532559629413 121.52658647391945,162.25" stroke="#4dd2ff" stroke-linecap="round" stroke-linejoin="round" stroke-width="0.5"><title>2021-03-17 2.8km</title></polyline><polyline fill="none" points="148.61436170199886,180.3143489995855 149.11702127661556,180.3143489995855 151.6303191492334,181.38657601556042 152.34840425522998,182.29384395538364 159.81648936169222,184.35581288556568 167.71542553184554,185.4280347202439 170.3723404253833,185.2630776046426 172.23936170199886,185.67547033325536 173.17287234030664,186.00538436957868 176.90691489353776,186.5827336203074 179.99468085123226,187.81990924442653 181.0,188.06734414957464 182.72340425569564,188.97460484225303 184.15957446815446,189.88186455052346 184.73404255323112,190.0468207554659 185.3803191492334,190.3767330676783 186.9601063830778,190.7891232749098 187.75,190.70664524979657 187.67819148954004,190.70664524979657 187.67819148954004,190.70664524979657 187.4627659576945,190.7891232749098 187.60638297908008,190.70664524979657 187.67819148954004,190.70664524979657 187.75,190.7891232749098 187.31914893630892,190.70664524979657 186.38563829800114,190.70664524979657 183.22606382984668,190.7891232749098 181.07180851092562,190.1292988458299 178.98936170199886,189.71690831327578 176.90691489353776,189.5519520433736 174.82446808507666,189.6344301821664 173.74734042584896,189.71690831327578 171.66489361738786,189.88186455052346 170.73138297861442,189.88186455052346 167.5,189.6344301821664 166.49468085123226,189.3869957405841 164.55585106369108,188.89212663803482 163.55053191492334,188.3972572426428 161.61170212784782,187.7374309261795 160.60638297908008,187.4075175729813 156.51329787261784,186.5827336203074 153.85638297908008,185.51051326608285 153.64095744676888,185.01564186962787 154.5026595746167,184.85068467236124 154.86170212784782,184.85068467236124 155.14893617015332,184.52077018056298 154.86170212784782,184.43829153710976 154.14361702091992,184.27333422598895 153.78457446815446,184.19085555832135 153.56914893630892,184.10837688238826 153.13829787261784,184.10837688238826 152.85106382984668,183.94341950619128 152.49202127661556,183.94341950619128 152.13297872338444,183.94341950619128 151.6303191492334,183.77846209757263 151.27127659600228,183.6135046564741 151.05585106369108,183.53102592355572 150.3377659576945,183.1186321376008 150.1223404253833,182.95367456617532 149.76329787261784,182.70623814797727 149.54787234030664,182.54128049546853 149.3324468084611,182.29384395538364 149.04521276568994,181.9639284547884 148.5425531915389,181.55153389606858 148.11170212784782,181.30409706308274 147.89627659600228,181.13913913373835 147.53723404277116,180.7267441683798 147.39361702091992,179.98443271807628 147.39361702091992,179.3245997648337 147.32180851092562,178.91220390447415 147.25,178.58228706987575 147.46542553184554,177.92245301039657 147.39361702091992,177.015180328337 147.39361702091992,176.60278332937742 147.32180851092562,176.35534503223607 147.46542553184554,176.10790666216053 147.39361702091992,176.02542718924815 147.46542553184554,175.4480706504546 147.53723404277116,175.0356728785555 147.89627659600228,174.95319329987979 148.61436170199886,174.7057545147254 148.97340425522998,174.54079528397415 149.18882978707552,174.45831565652043 149.61968085123226,174.29335637716576 149.69148936169222,174.29335637716576 149.69148936169222,174.2108767250902 149.76329787261784,174.2108767250902" stroke="#4dd2ff" stroke-linecap="round" stroke-linejoin="round" stroke-width="0.5"><title>2021-03-02 1.4km</title></polyline><polyline fill="none" points="19.690697674639523,248.0950602820376 20.161627907305956,248.31142334244214 25.341860465239733,249.28505658800714 28.638372093439102,250.47505160293076 29.862790697719902,251.01595800137147 33.15930232591927,251.88140768371522 34.38372093020007,251.88140768371522 37.86860465165228,251.66504532750696 38.99883720930666,251.3405017122859 42.4837209302932,251.12413924885914 44.64999999990687,251.88140768371522 45.78023255849257,252.31413226912264 47.75813953531906,253.0713998825522 49.64186046505347,253.395942985313 51.99651162838563,253.17958092759363 52.373255813959986,252.96321882703342 52.75,253.17958092759363 52.65581395383924,254.6941144367447 50.96046511642635,255.12683791248128 49.54767441889271,256.31682659033686 48.88837209297344,256.53318802977446 48.22906976751983,256.7495494262548 47.85232558147982,256.7495494262548 47.287209302186966,256.85773010831326 46.91046511661261,257.0740914406488 45.59186046523973,257.61499458528124 45.78023255849257,258.15589746297337 46.43953488394618,258.5886195732746 46.43953488394618,258.69680007430725 46.43953488394618,258.8049805643968 46.53372093010694,258.69680007430725 46.062790697906166,258.5886195732746 45.497674418613315,258.8049805643968 45.30930232582614,258.9131610437762 45.1209302325733,259.0213415127946 45.02674418594688,259.12952197087 45.02674418594688,259.12952197087 44.64999999990687,258.5886195732746 44.46162790711969,258.372258539428 44.179069767240435,258.0477169089718 44.08488372107968,257.8313557684887 43.14302325621247,257.61499458528124 42.7662790697068,257.61499458528124 42.295348837506026,257.61499458528124 41.82441860483959,257.506813977845 41.2593023260124,257.506813977845 40.78837209334597,257.506813977845 39.846511628013104,257.29045273084193 39.37558139534667,257.18227209104225 38.9046511631459,257.0740914406488 38.433720930013806,256.96591077989433 37.49186046561226,256.7495494262548 37.11511627910659,256.53318802977446 36.644186046905816,256.425007315469 36.17325581423938,256.2086458548438 35.70232558110729,255.99228435161058 35.325581395532936,255.66774201695807 34.47790697682649,255.2350187546108 33.63023255812004,254.80229532148223 32.970930233132094,254.15320985182188 32.5,253.93684794357978 32.02906976733357,253.720485992264 31.558139535132796,253.50412399834022 31.0872093020007,253.28776196180843 30.804651163052768,253.17958092759363 30.05116279097274,252.85503776045516 29.674418604932725,252.74685668363236 29.29767441842705,252.63867559586652 28.920930232852697,252.42231338878628 28.450000000186265,252.31413226912264 27.97906976751983,252.20595113898162 26.94302325602621,252.09776999778114 26.566279069986194,251.9895888462197 26.09534883731976,251.88140768371522 25.53023255802691,251.88140768371522 25.153488371986896,251.7732265109662 24.21162790711969,251.66504532750696 23.74069767445326,251.4486829281086 22.89302325574681,250.79959547403269 21.951162790879607,250.47505160293076 21.574418604839593,250.36687029129826 21.10348837263882,250.25868896907195 20.53837209334597,250.15050763601903 20.161627907305956,250.04232629248872 19.690697674639523,249.8259635727154 18.843023255933076,249.39323800627608 18.372093023732305,249.17687515879516 17.99534883722663,248.96051226882264 17.053488372359425,248.41960485698655 16.77093023294583,248.20324181765318 16.394186046440154,247.9868787357118 15.546511628199369,247.4459708436625 15.169767442159355,247.12142598058563 14.698837209492922,246.4723359660711 14.039534884039313,245.71506379719358 12.90930232545361,244.8496092496207 12.90930232545361,244.52506361866836 12.720930232666433,243.98415401950479 12.532558139879256,243.55142614839133 12.25,242.1450593881309 12.532558139879256,241.60414861573372 12.626744186040014,241.06323757651262 12.720930232666433,240.6305085531203 12.815116279758513,240.30596167349722 12.815116279758513,239.76504999410827 12.815116279758513,238.35867837956175 12.815116279758513,237.38503543648403 13.851162791252136,236.95230496197473 14.604651162866503,236.519574316917 15.263953488785774,236.30320893018506 15.734883721452206,236.19502622098662 15.923255814239383,235.9786607704591 17.2418604651466,235.87047802924644" stroke="#4dd2ff" stroke-linecap="round" stroke-linejoin="round" stroke-width="0.5"><title>2020-12-25 1.0km</title></polyline><polyline fill="none" points="57.85902255633846,242.8219845808926 58.31578947370872,243.25918448233278 58.69642857136205,243.69638416823 59.53383458638564,244.2210235070088 62.807330827228725,245.09542171488283 64.55827067652717,245.62006022571586 65.70018796995282,245.88237936492078 71.02913533849642,247.9809296830208 72.55169172910973,249.0302029797458 74.30263157887384,249.81715713703306 76.89097744366154,250.77898904803442 77.88063909765333,250.9538674650248 79.70770676713437,250.9538674650248 80.77349624037743,250.9538674650248 82.60056390985847,250.60411059652688 84.2753759403713,250.42923211009474 86.17857142863795,250.51667135755997 87.24436090234667,250.42923211009474 90.2133458647877,250.9538674650248 91.20300751877949,251.30362419580342 93.1062030075118,251.65338078868808 94.17199248168617,251.5659416533308 96.07518797041848,251.47850250947522 96.91259398544207,251.3910633570631 97.75,251.74081991548883 97.67387218028307,251.8282590333838 97.44548872252926,251.91569814272225 97.36936090234667,252.00313724362059 97.36936090234667,252.09057633567136 97.29323308262974,252.00313724362059 97.1409774441272,252.1780154191074 97.1409774441272,252.00313724362059 97.21710526384413,252.09057633567136 97.29323308262974,252.1780154191074 97.21710526384413,252.09057633567136 97.36936090234667,251.91569814272225 97.29323308262974,251.91569814272225 97.21710526384413,251.91569814272225 97.21710526384413,252.00313724362059 97.21710526384413,251.91569814272225 97.21710526384413,251.91569814272225 97.21710526384413,251.91569814272225 97.21710526384413,252.00313724362059 97.1409774441272,252.00313724362059 97.1409774441272,252.00313724362059 97.06484962394461,252.00313724362059 96.988721805159,252.00313724362059 97.1409774441272,252.00313724362059 97.1409774441272,252.00313724362059 97.1409774441272,252.00313724362059 97.06484962394461,252.00313724362059 97.06484962394461,252.09057633567136 96.91259398544207,252.00313724362059 95.16165413567796,252.00313724362059 93.18233082722872,252.00313724362059 91.20300751877949,251.5659416533308 90.28947368450463,251.30362419580342 88.38627819530666,250.77898904803442 87.39661654178053,250.60411059652688 85.34116541361436,250.60411059652688 84.35150375962257,250.51667135755997 82.29605263192207,250.69154982635519 80.16447368403897,250.9538674650248 79.17481203051284,250.9538674650248 77.11936090234667,250.8664282608661 76.05357142863795,250.60411059652688 71.25751879718155,249.0302029797458 70.26785714318976,248.68044535192894 67.45112781971693,247.9809296830208 66.68984962394461,247.8934901856701 63.644736842252314,247.3688530200161 61.893796992488205,246.58189668948762 60.90413533849642,246.0572587478673 59.00093984976411,245.00798193289666 57.25,244.39590321760625" stroke="#4dd2ff" stroke-linecap="round" stroke-linejoin="round" stroke-width="0.5"><title>2020-12-08 1.1km</title></polyline><polyline fill="none" points="102.25,243.3253205961082 102.63942307699472,243.3998688508873 105.23557692323811,245.41266894357977 106.07932692323811,245.71086109412136 109.38942307699472,246.6799847711227 110.94711538474075,247.12727220298257 111.72596153873019,247.42546367709292 113.54326923075132,248.0963940641377 115.16586538474075,248.91641928389436 116.00961538497359,249.43825305148493 120.16346153849736,250.85465717618354 121.07211538497359,250.92920468811644 123.66826923098415,250.6310145960888 124.44711538474075,250.55646705452818 128.5360576924868,250.6310145960888 129.37980769225396,250.7055621300824 131.9110576924868,251.45103706646478 134.50721153849736,251.6746794038918 135.2860576924868,251.60013196524233 136.97355769271962,251.6746794038918 139.56971153849736,251.3019421377685 140.34855769225396,251.22739466262283 141.9711538462434,251.07829969003797 142.75,251.0037521928898 142.4254807694815,250.40737194975372 140.60817307699472,250.33282438619062 139.8293269232381,250.40737194975372 138.2067307694815,250.85465717618354 137.62259615398943,251.0037521928898 135.93509615398943,251.3764896057546 135.15625,251.45103706646478 133.5336538462434,251.45103706646478 132.6899038462434,251.3019421377685 131.06730769225396,251.0037521928898 130.2884615387302,250.78010965674184 127.75721153849736,250.33282438619062 126.91346153873019,250.33282438619062 125.22596153873019,250.40737194975372 124.31730769225396,250.40737194975372 122.62980769248679,250.55646705452818 120.94230769248679,250.6310145960888 119.31971153873019,250.55646705452818 117.76201923098415,250.18372923729476 116.98317307699472,249.9600864588283 115.29567307722755,249.43825305148493 114.51682692323811,249.14006237121066 112.95913461525925,248.6182283977978 110.88221153826453,248.02184627269162 110.29807692323811,247.94729847408598 108.74038461549208,247.574559370114 106.59855769271962,246.90362852008548 106.01442307722755,246.456340956036 104.65144230774604,245.71086109412136 103.9375,245.33812088746345" stroke="#4dd2ff" stroke-linecap="round" stroke-linejoin="round" stroke-width="0.5"><title>2020-12-03 1.3km</title></polyline><polyline fill="none" points="187.32218309864402,248.56468715838855 187.6786971827969,249.8750602895161 187.75,250.28455146891065 186.5378521126695,251.02163508307422 184.47007042216137,250.93973693606677 181.61795774614438,250.4483478841721 178.90845070406795,249.30177229916444 177.98151408461854,249.1379756575916 172.70510563394055,247.09051491471473 170.77992957737297,246.7629207270802 167.85651408415288,246.8448192861979 165.86003521084785,246.7629207270802 164.43397887330502,246.7629207270802 163.5783450701274,246.7629207270802 161.65316901402548,246.5991235851543 161.01144366152585,246.51722500211326 158.8010563380085,246.35342781117652 157.94542253483087,246.2715292039793 154.950704225339,246.0258333333186 154.02376760495827,245.86203604575712 152.16989436605945,245.6982387258322 149.74559859139845,244.63355535943992 148.81866197148338,244.30596020299708 147.25,243.97836491692578 149.03257042216137,244.38785900420044 150.6012323941104,245.12494785204763 152.16989436605945,245.86203604575712 153.09683098550886,245.94393469346687 155.44982394389808,246.18963058834197 156.1628521126695,246.2715292039793 158.01672535203397,246.43532641069032 158.94366197148338,246.51722500211326 160.86883802805096,246.51722500211326 161.72447183076292,246.5991235851543 163.6496478873305,246.7629207270802 164.50528169004247,246.7629207270802 167.14348591538146,246.8448192861979 167.99911971809343,246.8448192861979 169.28257042216137,246.68102216016268 169.710387323983,246.68102216016268 169.99559859139845,246.68102216016268 170.28080985881388,246.68102216016268 170.56602112622932,246.68102216016268 170.92253521084785,246.5991235851543 171.2790492954664,246.5991235851543 171.9920774642378,246.68102216016268 172.2772887321189,246.68102216016268 172.91901408461854,246.92671783699188 173.56073943618685,247.25431195972487 173.4894366194494,247.4181089727208 173.4894366194494,247.50000746693695 173.4181338022463,247.50000746693695" stroke="#4dd2ff" stroke-linecap="round" stroke-linejoin="round" stroke-width="0.5"><title>2020-11-30 1.0km</title></polyline></svg>