<?xml version="1.0" encoding="utf-8" ?>
<svg baseProfile="full" height="300mm" version="1.1" viewBox="0,0,200,300" width="200mm" xmlns="http://www.w3.org/2000/svg" xmlns:ev="http://www.w3.org/2001/xml-events" xmlns:xlink="http://www.w3.org/1999/xlink"><defs /><rect fill="#222222" height="300" width="200" x="0" y="0" /><text fill="#FFFFFF" style="font-size:12px; font-family:Arial; font-weight:bold;" x="10" y="20">Over 10km Runs</text><text fill="#FFFFFF" style="font-size:4px; font-family:Arial" x="10" y="280">ATHLETE</text><text fill="#FFFFFF" style="font-size:9px; font-family:Arial" x="10" y="290">jdzj</text><text fill="#FFFFFF" style="font-size:4px; font-family:Arial" x="120" y="280">STATISTICS</text><text fill="#FFFFFF" style="font-size:3px; font-family:Arial" x="120" y="285">Number: 6</text><text fill="#FFFFFF" style="font-size:3px; font-family:Arial" x="120" y="290">Weekly: 1.2</text><text fill="#FFFFFF" style="font-size:3px; font-family:Arial" x="141" y="285">Total: 8.7 km</text><text fill="#FFFFFF" style="font-size:3px; font-family:Arial" x="141" y="290">Avg: 1.4 km</text><text fill="#FFFFFF" style="font-size:3px; font-family:Arial" x="167" y="285">Min: 1.0 km</text><text fill="#FFFFFF" style="font-size:3px; font-family:Arial" x="167" y="290">Max: 2.8 km</text><polyline fill="none" points="38.418874971801415,100.05869555377285 40.43463729205541,100.40818625674001 40.73890330269933,102.1119494845916 41.4995683291927,102.54881079497864 45.607159472070634,103.37884609779576 50.93181465752423,102.89829953297158 54.62104003597051,103.9467640928342 58.044032654957846,106.0 58.91879743547179,103.24778799540945 58.42436516820453,91.58346157640335 61.581125028198585,91.277651133365 57.05516812065616,90.01071990540368 52.68134421831928,89.79228312053601 50.741648400900885,87.69528450391954 46.90029001701623,47.98149847591412 51.08394766272977,43.08802423332236 54.05054126586765,41.38403389957966 51.92067919182591,37.58280106005259 48.26948706479743,34.0" stroke="#4dd2ff" stroke-linecap="round" stroke-linejoin="round" stroke-width="0.5"><title>2021-03-17 2.8km</title></polyline><polyline fill="none" points="116.42553191492334,66.11439822148532 117.31914893630892,66.11439822148532 121.78723404277116,68.0205795832444 123.06382978707552,69.63350036519114 136.34042553184554,73.29922290763352 150.38297872338444,75.20539505814668 155.10638297861442,74.91213796380907 158.42553191492334,75.64528059237637 160.0851063830778,76.231794434716 166.72340425522998,77.25819310278166 172.2127659576945,79.45761643454898 174.0,79.89750071032904 177.06382978754118,81.5104086084757 179.61702127708122,83.12331475655083 180.63829787261784,83.41657023190055 181.78723404277116,84.00308100925758 184.59574468107894,84.73621915536933 186.0,84.58959155518096 185.87234042631462,84.58959155518096 185.87234042631462,84.58959155518096 185.48936170293018,84.73621915536933 185.74468085123226,84.58959155518096 185.87234042631462,84.58959155518096 186.0,84.73621915536933 185.23404255323112,84.58959155518096 183.57446808554232,84.58959155518096 177.9574468084611,84.73621915536933 174.1276595746167,83.563197948155 170.42553191492334,82.83005922357552 166.72340425522998,82.53680363262538 163.02127659600228,82.68343143502716 161.10638297908008,82.83005922357552 157.40425531938672,83.12331475655083 155.7446808507666,83.12331475655083 150.0,82.68343143502716 148.2127659576945,82.24354798323475 144.76595744630322,81.36378068977501 142.97872340446338,80.48401287582237 139.53191489400342,79.31098831316922 137.74468085123226,78.72447568539064 130.46808510646224,77.25819310278166 125.74468085123226,75.3520235841861 125.36170212784782,74.47225221269764 126.89361702138558,74.17899497307371 127.53191489400342,74.17899497307371 128.0425531915389,73.59248032106552 127.53191489400342,73.44585162145086 126.25531914876774,73.1525941794971 125.61702127661556,73.0059654370416 125.23404255369678,72.85933667980134 124.46808510646224,72.85933667980134 123.95744680892676,72.56607912213076 123.31914893630892,72.56607912213076 122.68085106369108,72.56607912213076 121.78723404277116,72.27282150683459 121.14893617015332,71.97956383368 120.76595744676888,71.83293497515842 119.48936170246452,71.09979046683293 119.10638297861442,70.80653256212827 118.46808510646224,70.36664559633937 118.0851063830778,70.07338754751254 117.70212765969336,69.63350036519114 117.19148936169222,69.04698391957209 116.2978723407723,68.31383803754579 115.53191489400342,67.87395033438224 115.14893617015332,67.58069179335143 114.5106382984668,66.84754518826958 114.25531914876774,65.52788038772997 114.25531914876774,64.35484402626753 114.1276595746167,63.62169583013747 114.0,63.035177013021894 114.38297872338444,61.86213868507184 114.25531914876774,60.249209472560324 114.25531914876774,59.51605925220065 114.1276595746167,59.07616894622333 114.38297872338444,58.63627851055935 114.25531914876774,58.48964833642822 114.38297872338444,57.46323671180289 114.5106382984668,56.73008511739317 115.14893617015332,56.583454755251296 116.42553191492334,56.143563581747 117.06382978707552,55.85030272707809 117.44680851045996,55.70367227832321 118.2127659576945,55.41041133715771 118.34042553184554,55.41041133715771 118.34042553184554,55.26378084463067 118.46808510646224,55.26378084463067" stroke="#4dd2ff" stroke-linecap="round" stroke-linejoin="round" stroke-width="0.5"><title>2021-03-02 1.4km</title></polyline><polyline fill="none" points="27.22790697682649,151.05788494553417 28.06511627882719,151.44253038649913 37.274418604560196,153.17343393410556 43.134883721359074,155.28898062719963 45.31162790674716,156.2505920022959 51.17209302261472,157.78916921536438 53.34883720893413,157.78916921536438 59.54418604634702,157.4045250264462 61.55348837189376,156.82755859941244 67.74883720837533,156.44291422015522 71.59999999962747,157.78916921536438 73.60930232517421,158.5584573672386 77.12558139581233,159.90471090201754 80.47441860381514,160.48167641810142 84.66046511568129,160.0970327600371 85.33023255690932,159.71238902572077 86.0,160.0970327600371 85.83255813922733,162.78953677637037 82.81860465090722,163.55882295535412 80.30697674397379,165.67435838258825 79.13488372042775,166.05900094169192 77.96279069688171,166.44364342431072 77.29302325472236,166.44364342431072 76.28837209194899,166.63596463680733 75.61860465072095,167.02060700545553 73.27441860362887,167.98221259587444 73.60930232517421,168.9438177117845 74.78139534872025,169.71310146339238 74.78139534872025,169.90542235411704 74.78139534872025,170.09774322540034 74.9488372085616,169.90542235411704 74.1116279065609,169.71310146339238 73.10697674378753,170.09774322540034 72.77209302317351,170.29006407759152 72.43720930162817,170.4823849115055 72.2697674408555,170.6747057258617 72.2697674408555,170.6747057258617 71.59999999962747,169.71310146339238 71.26511627901345,169.32845962548163 70.76279069669545,168.75149672687985 70.5953488368541,168.36685469932854 68.9209302328527,167.98221259587444 68.25116278976202,167.98221259587444 67.41395348776132,167.98221259587444 66.57674418576062,167.7898915159749 65.57209302298725,167.7898915159749 64.73488372098655,167.7898915159749 63.06046511605382,167.40524929901585 62.223255813121796,167.21292816172354 61.38604651205242,167.02060700545553 60.54883720818907,166.8282858306775 58.87441860418767,166.44364342431072 58.20465116202831,166.05900094169192 57.36744186002761,165.86667967168614 56.53023255802691,165.48203707509674 55.693023255094886,165.09739440272097 55.023255813866854,164.52043025230523 53.5162790697068,163.7511444524862 52.00930232461542,162.9818583491724 50.837209302932024,161.82792862528004 49.99999999906868,161.44328523275908 49.162790697067976,161.05864176375326 48.325581395067275,160.6739982191939 47.48837209213525,160.28935459861532 46.98604651167989,160.0970327600371 45.64651162736118,159.52006712951697 44.976744186133146,159.3277452151524 44.30697674397379,159.13542328146286 43.63720930181444,158.7507793577388 42.799999999813735,158.5584573672386 41.96279069688171,158.36613535799552 40.12093023210764,158.17381332919467 39.45116279087961,157.9814912820002 38.61395348794758,157.78916921536438 37.60930232517421,157.78916921536438 36.93953488301486,157.59684713033494 35.26511627808213,157.4045250264462 34.42790697701275,157.01988076092675 32.920930231921375,155.86594750918448 31.246511627919972,155.28898062719963 30.576744185760617,155.09665829548612 29.739534883759916,154.90433594491333 28.734883720986545,154.7120135750156 28.06511627882719,154.5196911864914 27.22790697682649,154.1350463514682 25.72093023173511,153.36575645545963 24.88372092973441,152.98111139331013 24.213953487575054,152.59646625537425 22.53953488357365,151.6348530788673 22.037209302186966,151.2502076756209 21.36744186002761,150.86556219670456 19.860465115867555,149.90394816629123 19.190697674639523,149.3269795208471 18.3534883717075,148.17304171726573 17.18139534816146,146.82678008370567 15.172093022614717,145.28819422144443 15.172093022614717,144.71122421091422 14.837209302000701,143.74960714566987 14.502325581386685,142.98031315254048 14.0,140.48010557878297 14.502325581386685,139.5184864277253 14.669767441228032,138.55686680262443 14.837209302000701,137.7875707608182 15.00465116277337,137.21059853059705 15.00465116277337,136.24897776707076 15.00465116277337,133.74876156356186 15.00465116277337,132.01784077566117 16.846511628478765,131.24854215444066 18.186046511866152,130.4792432298418 19.358139535412192,130.0945936535718 20.195348837412894,129.90226883708965 20.53023255802691,129.51761914719827 22.874418604187667,129.32529427402187" stroke="#4dd2ff" stroke-linecap="round" stroke-linejoin="round" stroke-width="0.5"><title>2020-12-25 1.0km</title></polyline><polyline fill="none" points="115.08270676666871,141.68352814379614 115.89473684225231,142.46077241306193 116.57142857089639,143.2380162992049 118.06015037558973,144.170708457008 123.87969924788922,145.72519415977877 126.99248120281845,146.65788484574296 129.02255639107898,147.12422998214606 138.49624060094357,150.85498610313516 141.20300751831383,152.72036085289437 144.31578947324306,154.11939046590123 148.91729323286563,155.82931386318523 150.67669172910973,156.14020882674959 153.92481203051284,156.14020882674959 155.81954887183383,156.14020882674959 159.0676691723056,155.51841883827 162.04511278215796,155.20752375130542 165.42857142863795,155.36297130247112 167.32330827089027,155.20752375130542 172.60150375962257,156.14020882674959 174.36090225540102,156.76199857040774 177.744360901881,157.38378806889523 179.63909774506465,157.22834071703255 183.02255639107898,157.0728933502687 184.51127819577232,156.91744596813805 186.0,157.53923540539108 185.8646616539918,157.69468272605445 185.45864661736414,157.85013003146742 185.32330827089027,158.00557732209563 185.32330827089027,158.16102459677495 185.18796992488205,158.00557732209563 184.9172932333313,158.31647185620386 184.9172932333313,158.00557732209563 185.0526315793395,158.16102459677495 185.18796992488205,158.31647185620386 185.0526315793395,158.16102459677495 185.32330827089027,157.85013003146742 185.18796992488205,157.85013003146742 185.0526315793395,157.85013003146742 185.0526315793395,158.00557732209563 185.0526315793395,157.85013003146742 185.0526315793395,157.85013003146742 185.0526315793395,157.85013003146742 185.0526315793395,158.00557732209563 184.9172932333313,158.00557732209563 184.9172932333313,158.00557732209563 184.78195488685742,158.00557732209563 184.64661654178053,158.00557732209563 184.9172932333313,158.00557732209563 184.9172932333313,158.00557732209563 184.9172932333313,158.00557732209563 184.78195488685742,158.00557732209563 184.78195488685742,158.16102459677495 184.51127819577232,158.00557732209563 181.3984962408431,158.00557732209563 177.87969924788922,158.00557732209563 174.36090225540102,157.22834071703255 172.73684210516512,156.76199857040774 169.35338345821947,155.82931386318523 167.59398496244103,155.51841883827 163.9398496239446,155.51841883827 162.18045112816617,155.36297130247112 158.52631578966975,155.67386635800358 154.73684210516512,156.14020882674959 152.97744360938668,156.14020882674959 149.32330827089027,155.98476135265082 147.4285714281723,155.51841883827 138.9022556389682,152.72036085289437 137.14285714318976,152.09856951457914 132.1353383460082,150.85498610313516 130.78195488685742,150.69953810796142 125.36842105258256,149.76684981340077 122.25563909718767,148.36781633691862 120.49624060140923,147.43512666295283 117.11278195492923,145.56974565854762 114.0,144.48160572024062" stroke="#4dd2ff" stroke-linecap="round" stroke-linejoin="round" stroke-width="0.5"><title>2020-12-08 1.1km</title></polyline><polyline fill="none" points="14.0,222.5783477263758 14.692307692486793,222.71087795705535 19.30769230797887,226.28918923309539 20.80769230797887,226.81930861179717 26.692307692486793,228.54219514864963 29.46153846150264,229.33737280534115 30.846153846476227,229.86749098147266 34.07692307699472,231.06025611399673 36.9615384619683,232.51807872694917 38.4615384619683,233.44578320265282 45.846153846010566,235.96383497992065 47.461538462433964,236.0963638899848 52.07692307699472,235.56624817079864 53.46153846150264,235.43371920811478 60.73076923098415,235.56624817079864 62.23076923051849,235.69877712021116 66.73076923098415,237.02406589593738 71.34615384601057,237.4216522736242 72.73076923098415,237.2891234938288 75.73076923144981,237.4216522736242 80.34615384601057,236.75900824496057 81.73076923051849,236.62647940020543 84.61538461549208,236.36142167123035 86.0,236.22889278735965 85.42307692347094,235.16866124398075 82.19230769202113,235.03613224206492 80.80769230797887,235.16866124398075 77.92307692347094,235.96383497992065 76.88461538497359,236.22889278735965 73.88461538450792,236.89153707691003 72.5,237.02406589593738 69.61538461549208,237.02406589593738 68.11538461549208,236.75900824496057 65.23076923051849,236.22889278735965 63.84615384647623,235.83130605635233 59.346153846010566,235.03613224206492 57.84615384647623,235.03613224206492 54.84615384647623,235.16866124398075 53.23076923051849,235.16866124398075 50.23076923098415,235.43371920811478 47.23076923098415,235.56624817079864 44.34615384647623,235.43371920811478 41.57692307746038,234.77107419958338 40.19230769248679,234.37348703795578 37.192307692952454,233.44578320265282 35.80769230797887,232.91566643770784 33.03846153849736,231.98796159611084 29.346153846010566,230.92772670695558 28.307692307513207,230.79519728722516 25.53846153849736,230.13254999136552 21.73076923098415,228.9397840356687 20.692307692486793,228.14460614405107 18.26923076901585,226.81930861179717 17.0,226.1566593555035" stroke="#4dd2ff" stroke-linecap="round" stroke-linejoin="round" stroke-width="0.5"><title>2020-12-03 1.3km</title></polyline><polyline fill="none" points="185.2394366194494,231.89277717040386 185.87323943618685,234.2223294035066 186.0,234.95031372236554 183.84507042262703,236.26068459206726 180.16901408415288,236.11508788634092 175.09859154885635,235.24150734953582 170.2816901402548,233.20315075397957 168.63380281673744,232.91195672447793 159.25352112669498,229.27202651498374 155.8309859149158,228.68963684805203 150.63380281673744,228.83523428649642 147.08450704161078,228.68963684805203 144.549295774661,228.68963684805203 143.02816901355982,228.68963684805203 139.60563380271196,228.39844192902092 138.4647887321189,228.25284444820136 134.53521126741543,227.96164944209158 133.01408450631425,227.81605191808194 127.6901408447884,227.37925925909076 126.04225352033973,227.08806408126839 122.74647887330502,226.79686884593684 118.43661971855909,224.9040984166786 116.78873239411041,224.32170702749863 114.0,223.73931540781632 117.16901408415288,224.46730489633046 119.95774647872895,225.77768507017754 122.74647887330502,227.08806408126839 124.39436619682238,227.23366167710628 128.57746478915215,227.67045437917113 129.84507042216137,227.81605191808194 133.1408450701274,228.1072469522478 134.78873239364475,228.25284444820136 138.21126760542393,228.25284444820136 139.73239436605945,228.39844192902092 143.15492957737297,228.68963684805203 144.67605633754283,228.68963684805203 149.3661971827969,228.83523428649642 150.88732394343242,228.83523428649642 153.16901408415288,228.54403939575423 153.92957746470347,228.54403939575423 154.43661971809343,228.54403939575423 154.94366197148338,228.54403939575423 155.45070422487333,228.54403939575423 156.08450704207644,228.39844192902092 156.71830985881388,228.39844192902092 157.98591549228877,228.54403939575423 158.49295774614438,228.54403939575423 159.63380281673744,228.98083171015605 160.77464788686484,229.56322126172017 160.647887323983,229.8544159514131 160.647887323983,230.0000132744899 160.52112676016986,230.0000132744899" stroke="#4dd2ff" stroke-linecap="round" stroke-linejoin="round" stroke-width="0.5"><title>2020-11-30 1.0km</title></polyline></svg>