<?xml version="1.0" encoding="utf-8" ?>
<svg baseProfile="full" height="300mm" version="1.1" viewBox="0,0,200,300" width="200mm" xmlns="http://www.w3.org/2000/svg" xmlns:ev="http://www.w3.org/2001/xml-events" xmlns:xlink="http://www.w3.org/1999/xlink"><defs /><rect fill="#222222" height="300" width="200" x="0" y="0" /><text fill="#FFFFFF" style="font-size:12px; font-family:Arial; font-weight:bold;" x="10" y="20">Over 3km Runs</text><text fill="#FFFFFF" style="font-size:4px; font-family:Arial" x="10" y="280">ATHLETE</text><text fill="#FFFFFF" style="font-size:9px; font-family:Arial" x="10" y="290">jdzj</text><text fill="#FFFFFF" style="font-size:4px; font-family:Arial" x="120" y="280">STATISTICS</text><text fill="#FFFFFF" style="font-size:3px; font-family:Arial" x="120" y="285">Number: 38</text><text fill="#FFFFFF" style="font-size:3px; font-family:Arial" x="120" y="290">Weekly: 3.2</text><text fill="#FFFFFF" style="font-size:3px; font-family:Arial" x="141" y="285">Total: 73.7 km</text><text fill="#FFFFFF" style="font-size:3px; font-family:Arial" x="141" y="290">Avg: 1.9 km</text><text fill="#FFFFFF" style="font-size:3px; font-family:Arial" x="167" y="285">Min: 1.0 km</text><text fill="#FFFFFF" style="font-size:3px; font-family:Arial" x="167" y="290">Max: 4.9 km</text><polyline fill="none" points="18.237240075832233,47.46278438757872 19.411153119290248,44.94149654899957 27.781663516070694,38.72618315467844 31.303402646444738,34.973509623494465 35.94801512314007,32.510804736055434 37.734404536895454,34.211244915786665 38.5,51.5085494897794 37.53024574671872,46.348728289827704 23.494328922592103,54.0298094599857 19.819470699410886,50.51176934101386 12.92911153123714,54.264344727329444 11.5,56.66832587873796 12.980151228839532,57.489195263944566 17.369565217522904,53.384836997662205 19.00283553870395,49.63225605653133 18.08412098302506,48.283666491217446" stroke="#4dd2ff" stroke-linecap="round" stroke-linejoin="round" stroke-width="0.5"><title>2021-05-06 1.8km</title></polyline><polyline fill="none" points="65.3550913836807,40.82384493073914 67.78720626607537,40.09045673039509 68.03394255880266,39.3163232919469 65.21409921674058,38.17549235391198 65.56657963432372,38.25698038539849 65.14360313303769,38.70516426290851 67.22323759784922,39.520042762189405 69.05613577016629,39.23483547507203 68.45691905985586,41.88318108403473 70.28981723240577,40.864588680444285 70.21932114870287,41.63871914224001 70.95953002618626,41.59797547079506 73.70887728454545,43.79812782708905 75.7180156656541,44.24630553697352 75.75326370750554,45.387119274557335 75.11879895534366,46.283470658090664 76.0,50.357769981288584 75.25979112274945,51.82450764605892 55.6618798954878,49.502170543011744 50.1984334201552,50.23554160146159 49.0,51.131882192363264 49.84595300257206,50.27628439894761" stroke="#4dd2ff" stroke-linecap="round" stroke-linejoin="round" stroke-width="0.5"><title>2021-05-02 1.6km</title></polyline><polyline fill="none" points="94.7708860761486,38.55801729654195 96.68481012666598,39.348454042105004 99.00886075990275,37.372360675712116 108.23670886084437,35.870526368147694 112.33797468361445,37.53044832928572 113.5,40.29697707982268 112.0645569623448,48.20129086408997 100.44430379755795,52.31150237331167 87.32025316450745,54.129473631910514 86.5,52.78575615363661 92.17341772140935,36.50287800800288" stroke="#4dd2ff" stroke-linecap="round" stroke-linejoin="round" stroke-width="0.5"><title>2021-05-01 1.0km</title></polyline><polyline fill="none" points="136.87958048470318,43.89144496811787 135.24392903526314,46.50013982632663 132.81865274859592,41.478392811026424 132.9314562967047,39.652293273073155 134.90551839070395,36.58704311598558 138.00761596718803,35.28267691930523 146.01666789175943,35.41311365773436 150.69801514339633,31.5 144.7758288611658,35.67398705566302 130.84459065436386,33.78265252505662 129.66015339782462,34.36961900861934 127.34768065926619,39.32620352465892 126.55805582134053,51.45663092919858 125.59922566148452,54.58702669781633 124.47119017899968,55.0435414754902 124.3019848568365,58.5 125.20441324263811,58.04348767379997 125.59922566148452,55.89135377493221 127.12207356258295,38.93489560863236 129.15253743086942,36.91313425207045 129.9985640423838,37.43487972620642" stroke="#4dd2ff" stroke-linecap="round" stroke-linejoin="round" stroke-width="0.5"><title>2021-05-01 1.8km</title></polyline><polyline fill="none" points="184.35151710780337,42.547293722542236 183.41026468691416,42.70747328280413 181.87637185282074,43.808704337629024 180.01129761134507,43.72861500787258 179.68011620396283,44.12906134077639 179.73240800516214,43.748637343305745 178.47740477730986,44.16910593061766 175.51420271140523,43.78868200814759 173.77114267268917,43.98890521413705 173.24822466110345,43.708592670518556 171.34828921884764,44.068994441171526 167.06036152353045,44.16910593061766 162.78986442863243,43.72861500787258 161.5,44.82984052217216 161.58715300186304,45.21026249312854 166.6071659134468,46.191347443367704 167.1475145255099,46.03117063254467 168.14105874759844,46.551744805517956 170.79051000642357,46.59178891735792 172.4464170432184,47.232493632429396 173.16107165906578,47.01225161476759 175.04357650096063,47.45273541120696 175.51420271140523,47.81313053362828 176.68205293739447,47.953284019517014 176.99580374429934,47.71302084159106 177.8499031633255,48.11345931352116 178.9131697868579,47.933262098929845 180.69109102641232,48.45383139346086 180.84796642995207,47.97330593819788 181.23143963847542,47.933262098929845 181.9460942542646,48.313678253180115 182.1901226597838,47.73304278393334 183.23595868301345,47.172427651370526 184.49096191086574,45.91103794146329 185.8854099418386,45.37043995175918 186.61749515816336,44.4894623648579 187.83763718529372,44.109039042916265 188.5,43.18801120518765 188.1513879922568,42.126821775280405 187.6110393802519,41.54616860652459 186.51291155582294,42.246956706250785 184.83957391860895,42.14684426873282 184.73499031632673,42.78756301557587 182.38185926398728,43.94886058874545 182.86991607490927,44.409373303700704 183.2010974822333,44.1891282225406 184.3340865073842,45.05008490809996 185.27533892838983,44.90992941746663 185.3450613298919,44.66966263690847" stroke="#4dd2ff" stroke-linecap="round" stroke-linejoin="round" stroke-width="0.5"><title>2021-04-30 3.7km</title></polyline><polyline fill="none" points="38.286729857791215,73.23623378251796 36.58056872035377,75.68592113841441 35.642180094495416,75.83290199568728 26.34360189572908,73.28522764809895 18.068720379145816,73.23623378251796 19.17772511858493,74.16711640084395 11.5,71.86440358625259 17.642180094495416,74.02013505066861 27.452606634935364,74.95101620003697 37.56161137414165,78.13559641374741 38.5,77.93962283618748 37.22037914698012,77.49868200431229" stroke="#4dd2ff" stroke-linecap="round" stroke-linejoin="round" stroke-width="0.5"><title>2021-04-29 1.4km</title></polyline><polyline fill="none" points="59.37571428576484,74.33554940490285 61.57428571442142,72.60747186263325 60.80285714287311,71.23386702072457 62.15285714273341,70.79076778833405 71.37142857140861,61.97300212824484 72.45142857148312,61.840069662663154 76.0,65.91664737128303 71.48714285693131,68.84112597076455 71.988571428461,68.88543610589113 69.1728571425192,71.94282488318277 70.36857142834924,71.49972635036102 70.6385714286007,70.48059806539095 69.28857142850757,71.58834609185578 62.84714285703376,79.38681485856068 58.48857142869383,81.95673512283247 55.51857142848894,84.57094926701393 55.32571428571828,86.25467235324322 52.89571428578347,88.15993033730774 50.890000000130385,87.14083986292826 49.0,84.43802349138423 49.1542857142631,81.82380857339012 51.815714285708964,80.58315888041398 52.78000000002794,79.07665107343928 55.44142857147381,77.92461228143657 55.94285714300349,76.77257053373614 57.25428571435623,76.01931086977129 57.640000000130385,74.6900260274997 58.64285714295693,73.93676287005655 59.76142857130617,74.20262059936067 59.99285714281723,73.36073724998278" stroke="#4dd2ff" stroke-linecap="round" stroke-linejoin="round" stroke-width="0.5"><title>2021-04-26 2.2km</title></polyline><polyline fill="none" points="102.42964901856612,83.72947800598922 103.16590629715938,82.71446476058918 104.01996473991312,72.05664420773974 106.9060932713328,61.5 104.255567069049,71.8874697809515 102.16459639824461,72.86868029402103 99.1312164113624,72.6656714527926 95.98003525985405,73.13935856189346 94.33081895625219,74.15440016260254 93.18225760187488,75.77846047110506 93.09390672855079,85.72566195391119 94.41916982969269,88.16166729407269 95.30267856363207,88.5 95.89168438641354,88.19550057966262 99.07231582922395,85.52266072752536 100.16197660111357,86.26699797008769 101.22218708205037,85.488827178051 101.4283391200006,84.60915372084128" stroke="#4dd2ff" stroke-linecap="round" stroke-linejoin="round" stroke-width="0.5"><title>2021-04-25 2.2km</title></polyline><polyline fill="none" points="138.54328879958484,88.5 137.7470947157126,82.57028896175325 138.18637421028689,79.19535109811113 137.7470947157126,72.9185027051426 138.15891924186144,61.97315048170276 137.82945962098893,61.5 137.14308541070204,61.97315048170276 136.45671120041516,73.13929845957318 136.7312608845532,84.11580935536767 137.82945962098893,84.4312207622861 137.91182452614885,84.14735051008756 138.04909936827607,78.753767806018 137.6921847788617,82.94878444314236" stroke="#4dd2ff" stroke-linecap="round" stroke-linejoin="round" stroke-width="0.5"><title>2021-04-18 2.2km</title></polyline><polyline fill="none" points="188.5,78.84329710557358 183.66475644684397,78.35455802554497 169.0429799426347,73.95588244483224 162.58309455565177,73.33384404791286 161.5,72.62294197097071 169.1977077361662,72.53407913257251 170.89971346687526,71.15670289442642 174.22636103141122,72.66737338370876" stroke="#4dd2ff" stroke-linecap="round" stroke-linejoin="round" stroke-width="0.5"><title>2021-04-16 1.0km</title></polyline><polyline fill="none" points="38.5,107.16544545063516 37.70920502085937,107.37630865129177 37.38441422593314,106.71127763851837 36.81956066942075,106.48419326210569 36.099372384895105,106.66261672708788 35.84518828446744,106.45175261124677 35.49215481168358,105.96514208130247 36.113493723853026,104.86215288248786 35.9016736401245,104.05112669288064 35.47803347278386,103.87270039442228 32.18776150629856,104.09978837710514 29.37761506275274,103.85647981220973 28.007845188316423,104.1808911520493 27.42887029290432,103.95380328134343 26.496861924708355,104.05112669288064 26.270920502138324,103.85647981220973 24.43514644348761,104.06734725587012 23.785564853576943,103.84025922839646 23.03713389125187,104.05112669288064 22.288702928868588,103.74293569203292 20.707112970761955,104.03490612830501 19.407949790824205,103.51584721657855 18.334728033514693,103.6456120981311 17.727510460303165,102.89946263092861 16.626046025077812,102.9643453276658 15.623430962325074,102.6561522900156 15.213912133942358,102.85080059153552 14.649058577429969,102.29929647214885 13.815899581590202,102.59126947163895 12.601464435167145,102.18575127677468 11.895397489599418,102.55882805289002 12.389644351555035,102.20197202375857 12.502615062752739,102.75347646955925 11.5,102.70481438699062 12.34728033473948,102.39662086291355 11.937761506356765,102.49394519609632 12.375523012597114,102.46150375812431 12.022489539755043,102.60749017864873 12.248430962383281,102.85080059153552 12.00836820085533,102.6561522900156 12.34728033473948,102.54260734103445 12.248430962383281,102.36417940571846 11.966004184097983,102.46150375812431 12.06485355651239,102.70481438699062 12.502615062752739,102.52638662765094 12.29079497908242,102.44528303669358 12.262552301341202,102.67237299059343 12.375523012597114,102.38040013515274 12.220188284583855,102.67237299059343 12.319037656881846,102.44528303669358 12.389644351555035,102.6237108840287 12.177824267826509,102.03976448181493 12.304916318040341,102.46150375812431 12.23430962342536,102.18575127677468 12.262552301341202,102.46150375812431 11.980125522997696,102.25063425516419 12.07897489547031,102.10464751777181 12.177824267826509,102.25063425516419 11.966004184097983,102.33173794214963 12.248430962383281,102.47772447788157 12.022489539755043,102.34795867474168 12.29079497908242,102.10464751777181 12.093096234370023,102.44528303669358 11.867154811741784,102.44528303669358 12.093096234370023,102.02354371879483 11.881276150641497,102.16953052819008 12.220188284583855,102.46150375812431 11.980125522997696,102.31551720792777 12.022489539755043,102.46150375812431 12.093096234370023,102.33173794214963 12.163702928868588,103.01300733347307 12.022489539755043,104.53774288666318 13.392259414249565,104.82971191170509 13.505230125563685,105.08923949877499 14.733786610944662,104.97569622984156 15.43985355651239,105.23522358651098 21.07426778244553,105.47853011143161 26.63807531388011,106.19222717446974 29.307008368195966,106.28954926127335 30.493200836877804,106.54907454446948 31.86297071131412,107.24654671369353 34.009414225874934,107.00324280455243 34.23535564856138,107.39252888633928 34.531903765688185,107.26276696148852 36.55125523015158,107.68449284293456 36.904288702935446,107.97645628120517 37.53974895400461,107.830474626855 37.73744769877521,107.23032646426873 38.302301255229395,107.00324280455243" stroke="#4dd2ff" stroke-linecap="round" stroke-linejoin="round" stroke-width="0.5"><title>2021-04-09 4.9km</title></polyline><polyline fill="none" points="75.45496894442476,106.44471134166815 66.98602484492585,103.98871357101598 66.02173913060687,103.0737308509415 60.06832298170775,103.55530091744731 55.75000000023283,103.1218878790387 56.54658385110088,103.60345789804705 56.16925465851091,103.79608577254112 49.0,102.15874641618575 54.953416149131954,103.94055662854225 63.506211180239916,104.66291026771069 75.37111801258288,107.84125358381425 73.77795031084679,107.21521790020051 76.0,106.92627808329416 75.41304347827099,106.20392779266695" stroke="#4dd2ff" stroke-linecap="round" stroke-linejoin="round" stroke-width="0.5"><title>2021-04-09 1.4km</title></polyline><polyline fill="none" points="87.57386363646947,103.50223745114636 88.87784090917557,104.60354574551457 98.31250000023283,108.21581789135234 102.4928977272939,108.03961017174879 106.1363636367023,108.788492499938 112.8863636367023,108.03961017174879 113.5,107.29072658804944 110.7769886367023,106.58589383284561 107.51704545458779,107.2466745733982 104.14204545458779,105.96916425964446 101.34232954564504,106.18942491928465 96.5866477272939,103.76655168936122 95.97301136376336,102.6211888602993 93.25000000023283,101.56392825720832 91.17897727293894,101.2115075000911 86.5,102.3568739441107" stroke="#4dd2ff" stroke-linecap="round" stroke-linejoin="round" stroke-width="0.5"><title>2021-04-08 1.4km</title></polyline><polyline fill="none" points="150.8246753248386,106.12775079283165 151.0,107.05411077366443 148.72077922080643,107.0943872469943 142.68961038975976,105.04028204680071 133.57272727275267,104.597238393937 128.76883116876706,102.9056127530348 124.0,103.63059602869907 128.52337662340142,103.10699712540372 133.32727272738703,104.55696167447604 142.2688311689999,104.95972869111574" stroke="#4dd2ff" stroke-linecap="round" stroke-linejoin="round" stroke-width="0.5"><title>2021-04-06 1.3km</title></polyline><polyline fill="none" points="169.74550898186862,100.9457708785194 173.14071856276132,99.88541559164878 174.54191616759636,101.00814466172596 174.54191616759636,102.19324533944018 173.6257485030219,102.69223441329086 175.24251497001387,104.4386929749744 176.91317365248688,104.62581324036 179.06886227522045,103.62783783260966 181.49401197605766,100.57152804534417 183.64970059879124,101.38238722848473 185.42814371269196,100.32203269645106 188.44610778428614,100.69627568172291 188.44610778428614,96.89146135671763 188.12275449116714,99.19930237036897 186.34431137726642,98.88743247062666 188.5,99.26167633139994 188.3922155688051,100.88339708879357 183.7574850297533,101.32001348305494 181.49401197605766,100.50915421778336 177.82934131729417,105.12480033526663 178.69161676662043,104.37631954066455 174.64970059879124,104.31394609995186 173.841317364946,102.94172879809048 175.02694610785693,102.94172879809048 174.91916167666204,102.3179926458979 173.517964071827,99.82304169406416 172.92514970037155,100.69627568172291 171.7395209579263,100.57152804534417 170.23053892189637,103.81495834531961 165.2185628740117,106.43463952775346 163.60179640701972,109.42854717787122 163.38622754462995,107.12074465502519 162.95508982008323,110.0522760989843 162.57784431125037,108.68007163546281 162.95508982008323,109.61566592089366 162.6317365267314,108.8048176226439 164.84131736517884,109.9275303655304 166.61976047884673,112.609558043594 168.93712574825622,112.42244021419901 169.5838323351927,111.11261380888755 168.18263473035768,110.48888596630422 169.4221556885168,110.48888596630422 168.82934131729417,111.23735930153634 168.29041916131973,110.73837717954302 168.93712574825622,111.48685021017445 169.09880239493214,110.86312274809461 169.36826347303577,112.29769496276276 168.45209580799565,113.10853864328237 165.4880239518825,112.85904839425348 162.73952095769346,109.61566592089366 163.22455089795403,106.80887878325302 163.54790419130586,109.05430952075403 161.5,110.23939465155127 162.09281437122263,109.2414283779217 161.7155688619241,110.48888596630422 163.22455089795403,109.42854717787122 163.4401197603438,106.68413239018992" stroke="#4dd2ff" stroke-linecap="round" stroke-linejoin="round" stroke-width="0.5"><title>2021-04-05 1.9km</title></polyline><polyline fill="none" points="32.733794684987515,142.10341087402776 31.675001365016215,142.6364659423416 32.089311794610694,141.9967997299682 32.825863669393584,141.9967997299682 32.986984391813166,141.5437018830562 32.15836353285704,146.47443036714685 30.386035584146157,147.75373932847288 30.293966599740088,148.5 30.22491486161016,147.75373932847288 32.22741527110338,146.5543873605202 32.89491540763993,143.9424462687748 33.35526032932103,139.78460868593538 32.20439802494366,138.95836385842995 29.71853544760961,138.50526074811933 28.245431698160246,139.65134356773342 25.161120722652413,140.53089209322934 19.544912677491084,143.91579367421218 18.532153849722818,142.2899802714819 17.358274299418554,142.79638225099188 16.805860393331386,142.58316048438428 13.58344594121445,128.7500269431912 13.399307972518727,126.21787125550327 15.033532444620505,133.6276893276954 15.539911858504638,133.84091839494067 21.455344102694653,131.1488886642328 26.012758827768266,129.6829202270601 28.866897342493758,128.08367256019847 32.8718981614802,124.85849335137755 35.24267450836487,121.5 36.60069202748127,122.19302596943453 36.43957130482886,122.40626435974264 35.88715739874169,122.2196807777218 36.2093988439301,121.95313257249654 36.2093988439301,122.37960957048927 36.347502320539206,121.65992923290469 35.56491595355328,121.89982289876207" stroke="#4dd2ff" stroke-linecap="round" stroke-linejoin="round" stroke-width="0.5"><title>2021-04-05 3.7km</title></polyline><polyline fill="none" points="55.81308411201462,125.2103965000133 60.10280373785645,128.61973999917973 63.635514019057155,138.45806303771678 63.7196261677891,143.42589063744526 65.65420560725033,143.03625803388422 67.58878504671156,144.7896034999867 71.96261682221666,141.57513435458532 76.0,142.64662527100882 67.75700934557244,140.69845907430863 67.75700934557244,143.91293116903398 68.17757009342313,139.432148916414 68.00934579409659,144.10774731216952 68.26168224262074,142.54921705560992 64.89719626121223,143.23107435565908 67.16822429932654,141.76995097420877 68.345794392284,143.91293116903398 66.2429906539619,142.54921705560992 67.75700934557244,142.15958409424638 67.42056074785069,144.01033924537478 68.345794392284,144.01033924537478 67.25233644852415,142.06217582896352 69.18691588751972,144.4973794791731 67.25233644852415,142.7440334765124 67.42056074785069,141.1855009960709 68.85046728979796,143.42589063744526 67.5046728970483,141.2829093504115 65.23364485986531,141.1855009960709 64.22429906530306,143.71811498625902 64.4766355138272,142.4518088303157 60.18691588798538,139.23733182030264 61.8691588784568,133.0031637659995 60.18691588798538,133.6850278780912 60.27102803764865,131.15238729520934 55.308411214500666,128.4249206984532 49.0,129.00937848177273 52.532710280269384,130.2757024524617 53.71028037369251,133.58761874877382" stroke="#4dd2ff" stroke-linecap="round" stroke-linejoin="round" stroke-width="0.5"><title>2021-04-04 1.4km</title></polyline><polyline fill="none" points="103.16759776556864,122.9137280768482 94.79608938563615,126.72593444224913 86.72625698335469,136.08309806726174 94.34357541939244,144.48713224026142 98.79329608939588,139.46204931195825 103.99720670422539,137.29605642065872 104.14804469328374,134.43693762167823 108.97486033523455,130.88468614366138 101.88547486020252,121.87403255852405 95.92737430194393,125.85952535836259 86.5,136.60293756675674 94.19273743033409,143.5341014813166 98.71787709509954,138.24909395119175 106.1089385477826,137.03613691445207 108.29608938563615,135.38997825584374 109.42737430194393,131.05796703702072 109.1256983242929,130.27820274728583 108.22067039133981,132.01101133896736 105.58100558677688,133.31061553861946 105.50558659248054,132.5308532496565 113.5,127.24577948241495 110.5586592182517,125.68624343891861 107.4664804469794,121.87403255852405 105.73184357536957,124.73319227073807 100.45251396670938,122.48052176041529 90.04469273751602,131.8377306337352 86.80167597765103,136.42965776781784 94.34357541939244,143.5341014813166 98.79329608939588,138.85557184100617 99.47206703945994,139.3754096989869 97.58659217879176,141.97459437139332 107.91899441368878,144.14057572046295 111.2374301678501,148.12596744153416 104.22346368711442,135.3033382408903 104.97765363147482,132.9640546067385 108.67318435804918,129.84500006528106 104.60055865952745,127.33242029225221 102.3379888269119,123.00036931439536 100.7541899443604,122.39388047158718 99.39664804469794,123.34693417925155 100.075418994762,123.95342236361466" stroke="#4dd2ff" stroke-linecap="round" stroke-linejoin="round" stroke-width="0.5"><title>2021-04-02 3.1km</title></polyline><polyline fill="none" points="140.56382978719193,145.4343305611983 137.4042553191539,144.3345724202518 131.4441489361925,144.22459636750864 124.98138297873084,143.37228048761608 124.43085106392391,142.8498920472921 124.0,140.23793516049045 124.62234042549971,139.74303530808538 125.91489361703862,139.68804638125584 124.74202127661556,136.03125840533176 125.02925531915389,131.08214564228547 126.82446808519308,128.52506961475592 127.5425531915389,126.7928434922942 130.96542553184554,124.42819997627521 132.35372340434697,125.94047430498176 133.64627659576945,126.21543239211314 134.31648936169222,127.01280931095243 137.14095744676888,127.01280931095243 141.49734042549971,127.70020137538086 143.60372340423055,128.80002515210072 147.0984042553464,131.90700387241668 150.4015957445372,137.62595379757113 150.49734042549971,138.36830888519762 149.73138297861442,139.028178414359 149.42021276592277,140.07296864059754 150.09042553184554,140.0454742111324 151.0,142.38249103396083 150.4015957445372,143.6197273019061 148.3191489360761,144.00464413187 147.8164893615758,144.63700634156703 146.64361702115275,144.05963220700505 146.14095744676888,144.27958439930808 144.89627659565303,143.89466794897453 144.29787234030664,145.5718000237248 144.10638297861442,145.37934275722364" stroke="#4dd2ff" stroke-linecap="round" stroke-linejoin="round" stroke-width="0.5"><title>2021-04-02 3.2km</title></polyline><polyline fill="none" points="164.32891246699728,132.71723626583116 173.46021220157854,136.78919727093307 178.40185676398687,136.74806655038265 181.40981432353146,137.44728824673803 185.45623342180625,136.4601513936359 188.5,136.50128214235883 181.62466843496077,137.40615759126376 178.61671087541617,136.7069358259323 173.74668435007334,136.953720112273 167.44429708225653,135.14396528797806 161.5,132.55271175326197" stroke="#4dd2ff" stroke-linecap="round" stroke-linejoin="round" stroke-width="0.5"><title>2021-04-01 1.4km</title></polyline><polyline fill="none" points="11.5,161.59926042420557 14.549099836265668,164.6954673033033 18.128477904945612,165.45682679719175 22.32651391159743,167.63938443706138 28.07119476282969,167.5378703335009 31.252864157082513,168.40073957582354 38.5,167.5378703335009 33.418166939402,168.29922562243883 27.275777413975447,167.3855991406017 21.796235679183155,167.63938443706138 13.576923076761886,165.40606953256065 12.73731587571092,164.94925392634468 13.709492635214701,164.5431952692743" stroke="#4dd2ff" stroke-linecap="round" stroke-linejoin="round" stroke-width="0.5"><title>2021-03-29 1.2km</title></polyline><polyline fill="none" points="62.00763466744684,178.5 60.74936770671047,171.4047617338947 59.87405155971646,171.15360141260317 55.60688534518704,165.00014268804807 52.76210786867887,164.74897984799463 61.62468385323882,151.5 64.57887584809214,153.32096613023896 70.37784531945363,159.22337237704778 69.77606546878815,163.43037331756204 72.2378921310883,177.8721059873933 64.41475407057442,172.6605618582107 61.56997659383342,172.09545210778015 61.29644029820338,173.28846099448856" stroke="#4dd2ff" stroke-linecap="round" stroke-linejoin="round" stroke-width="0.5"><title>2021-03-28 1.4km</title></polyline><polyline fill="none" points="99.66769230784848,160.10942592195352 101.20461538457312,161.01598240912426 101.57846153830178,160.25256653287215 103.07384615391493,160.157139463583 103.40615384629928,159.3937222318491 103.8630769229494,159.91857170814183 104.56923076929525,159.3937222318491 106.77076923055574,160.63427462166874 108.05846153851599,159.68000383497565 111.8384615383111,160.82512855296955 111.58923076931387,159.87085814285092 113.37538461526856,160.0617123756092 112.046153845964,159.58457665276364 112.37846153834835,158.8211585173267 112.46153846150264,159.87085814285092 112.25384615384974,159.3937222318491 111.79692307696678,160.01399882443366 111.87999999988824,159.2505813666503 112.46153846150264,160.0617123756092 111.8384615383111,159.87085814285092 113.08461538469419,159.72771741898032 113.08461538469419,160.20485300049768 112.5446153844241,159.5368630544981 111.67230769223534,160.01399882443366 113.4169230768457,159.72771741898032 112.87692307680845,159.29829499311745 112.7107692307327,160.7297015967779 111.96307692304254,160.10942592195352 111.87999999988824,160.63427462166874 112.9184615383856,159.9662852686888 112.46153846150264,160.01399882443366 113.5,161.30226305214455 113.37538461526856,159.91857170814183 112.75230769230984,160.01399882443366 113.08461538469419,160.68198811152251 112.17076923092827,160.96826895224513 112.046153845964,160.4434206149308 111.54769230773672,161.1591227517929 109.80307692289352,160.92055549059296 109.80307692289352,159.9662852686888 110.21846153843217,168.1729476553155 105.52461538463831,169.22262698729173 101.70307692303322,167.98209662307636 101.99384615384042,168.602362202917 100.83076923084445,167.98209662307636 94.1015384614002,167.64810713526094 90.7369230769109,168.65007490682183 90.4461538461037,170.36772911532898 89.65692307706922,170.9879916361242 86.95692307688296,171.1788414827024 86.5,170.4154416451056" stroke="#4dd2ff" stroke-linecap="round" stroke-linejoin="round" stroke-width="0.5"><title>2021-03-26 1.5km</title></polyline><polyline fill="none" points="126.85365853691474,163.28908159493585 135.4146341466112,166.78296138744918 138.42508710816037,166.56684608149226 141.0592334496323,167.14315327999066 144.8536585366819,166.38674989546416 146.3588850174565,166.56684608149226 151.0,164.90995782002574 146.89198606286664,166.56684608149226 141.59233449492604,166.99907656561118 138.80139372847043,166.42276913978276 135.69686411181465,166.67490375047782 129.01742160285357,165.0540353585675 124.0,162.85684672000934" stroke="#4dd2ff" stroke-linecap="round" stroke-linejoin="round" stroke-width="0.5"><title>2021-03-26 1.6km</title></polyline><polyline fill="none" points="188.5,167.39574562490452 186.43718166393228,167.13247799157398 183.36587436310947,165.18429346877383 180.75297113740817,165.23694719810737 176.99405772495084,163.76264081668342 167.82597623066977,164.0259101120173 169.20118845487013,164.71040967211593 168.65110356523655,164.8683709843317 161.5,162.60425437503727 167.27589134103619,164.81571721867658 175.48132427828386,165.34225464100018 182.49490662128665,167.02717090176884" stroke="#4dd2ff" stroke-linecap="round" stroke-linejoin="round" stroke-width="0.5"><title>2021-03-24 1.1km</title></polyline><polyline fill="none" points="38.5,196.98045260098297 36.55570652172901,196.85404130007373 34.64809782616794,195.42137727636145 31.603260869625956,194.91573000318022 29.108695652335882,193.77802145073656 21.478260869625956,193.94657105699298 22.138586956774816,194.6629061421845 16.158967391587794,193.01954739898792 11.5,193.60947177780326 13.334239130374044,193.8622962621157 16.305706521729007,193.06168488171534 21.8084239133168,194.74718077926082 31.823369565419853,195.16855371458223" stroke="#4dd2ff" stroke-linecap="round" stroke-linejoin="round" stroke-width="0.5"><title>2021-03-23 1.3km</title></polyline><polyline fill="none" points="75.46143617015332,196.34032829705393 66.37765957438387,193.16479310847353 62.67952127661556,193.78340575075708 59.01728723407723,193.37099742420833 60.02260638284497,194.0308505515568 59.62765957438387,194.15457289706683 53.84707446792163,192.42245672934223 49.0,193.12355223300983 53.48803191492334,192.50493861435098 58.90957446815446,194.0720913373807 66.09042553184554,194.56698045079247 76.0,197.57754327062867 74.38430851045996,196.7939742123708 76.0,196.34032829705393" stroke="#4dd2ff" stroke-linecap="round" stroke-linejoin="round" stroke-width="0.5"><title>2021-03-22 1.6km</title></polyline><polyline fill="none" points="109.49234889051877,181.66696286508522 109.86419280793052,181.92771207584883 109.65761285379995,182.75736678148678 111.53749043610878,183.0418191668141 112.0332823258359,183.4447928055597 111.86801836267114,184.17962535582774 112.61170619726181,184.6774138768087 113.5,186.21818136313232 112.96289211930707,187.64041954364802 112.17788829375058,187.97227391318302 111.88867635803763,188.8256116255361 108.06694720732048,192.1441184944124 103.85271614382509,193.77965152416436 102.53060443745926,194.63296870570048 101.51836266263854,195.4862828705518 98.56426931906026,199.56318669089524 86.5,208.33303713492933" stroke="#4dd2ff" stroke-linecap="round" stroke-linejoin="round" stroke-width="0.5"><title>2021-03-21 1.3km</title></polyline><polyline fill="none" points="136.2393090579426,192.65431547551998 135.89659695723094,190.4628218654252 133.5465711238794,187.5408042424533 132.59187312901486,187.2598394350207 129.36058760806918,190.20995613664854 126.15378152288031,194.28387675297563 125.345960142673,194.5086430964584 124.46470045519527,196.89677457942162 125.95794603682589,199.032028183894 129.50746422261,200.7177434452169 133.35073563770857,203.83629046773422 133.13042071578093,204.00485960778315 133.6444888669066,203.94866990548326 133.17937958752736,203.69581610852038 133.76688604569063,204.67913517341367 135.06429614126682,206.22434401192004 139.98466273001395,208.5 142.53052404953633,208.24715022931923 148.5279858118156,204.06104929899448 149.33580719213933,202.37535375673906 150.5352995446883,196.98106120841112 149.33580719213933,194.90198377234628 144.85607044724748,190.77187967445934 140.00914216588717,184.67495024375967 136.4106651082402,181.5 132.37155820708722,187.11935692763655 133.10594128014054,187.20364644034998 134.10959814640228,188.13082943920745 136.06795300764497,190.63139889360173 136.04347357188817,191.41809037700295" stroke="#4dd2ff" stroke-linecap="round" stroke-linejoin="round" stroke-width="0.5"><title>2021-03-20 3.7km</title></polyline><polyline fill="none" points="185.83990147779696,201.79852100237622 176.61822660081089,198.8448868917476 166.86453201971017,198.53933757098275 161.63300492614508,197.4189885148371 161.5,195.58568481527618 162.25369458133355,194.7708810813201 161.5443349755369,193.395896864502 161.72167487675324,191.00239708510344 164.51477832510136,188.20147899762378 169.1256157637108,188.76166383081 173.8251231526956,190.34036327208742 182.69211822655052,190.1366603898059 187.43596059107222,189.37277386462665 188.01231527072378,188.7107379619556 187.16995073878206,190.6459174452175 186.6379310344346,197.21528842530097 187.0812807881739,200.57632962657954 188.5,200.83095306847827" stroke="#4dd2ff" stroke-linecap="round" stroke-linejoin="round" stroke-width="0.5"><title>2021-03-19 1.6km</title></polyline><polyline fill="none" points="22.441995359724388,224.7241834859742 28.30974477971904,227.2426167684025 30.585846867994405,227.09870699765452 32.56960556854028,227.53043605438143 34.65777262195479,227.07472202762438 35.76450116012711,227.1706618936878 38.5,226.3551718256931 33.425754060503095,227.50645112684288 30.815545243793167,227.09870699765452 27.89211136905942,227.21863181254594 16.219257540651597,223.50093505275436 11.5,222.9972427329194 12.523201856180094,223.14115493069403 11.834106728550978,222.85333044989966 12.042923433938995,222.73340348235797 13.629930394468829,222.8293450611527 15.738979118410498,222.46956394561857 16.448955916566774,222.9972427329194 16.866589327226393,222.73340348235797 17.367749419994652,223.21311099771992 17.80626450118143,223.0691988425242 18.370069605647586,223.54890569548297 19.080046403803863,223.2850670433836 20.541763341170736,224.3404199340148 20.834106728550978,223.98064105407684 20.082366589456797,222.85333044989966 19.79002320196014,222.87731583633285 19.89443155459594,223.69281756679993 21.251740139210597,224.36440517377923 21.815545243793167,223.02122810516448 22.128770301816985,223.66883226085338 22.54640371236019,223.59687632865098 22.10788863117341,223.71680287044728 22.358468677615747,223.6448469524621 21.75290023209527,222.8053596700338 22.650812065112405,222.73340348235797" stroke="#4dd2ff" stroke-linecap="round" stroke-linejoin="round" stroke-width="0.5"><title>2021-03-19 3.1km</title></polyline><polyline fill="none" points="60.361859621538315,238.5 60.21021845994983,238.02971275118762 59.92210025299573,237.9774585351406 59.4975050004432,238.3780737964844 60.013084949867334,235.43440133267723 59.81595143978484,236.1485512315412 59.906936136772856,237.45491552402382 59.61881792976055,237.68135101867665 57.981093384558335,237.6465148076095 57.78395987441763,236.60142528064898 57.92043691989966,235.67825772045762 61.893435353646055,234.7899221154221 64.56231979769655,234.61573813950235 64.47133510076674,217.77133590234735 65.3660179541912,216.62160766593297 67.21604012564057,214.98410300788237 66.88242957007606,214.14792455772113 64.62297626235522,211.5" stroke="#4dd2ff" stroke-linecap="round" stroke-linejoin="round" stroke-width="0.5"><title>2021-03-18 2.7km</title></polyline><polyline fill="none" points="95.65707811439643,236.27201083266118 96.41298898454988,236.40306984627387 96.52708873845404,237.04198105671094 96.81233812338905,237.20580404812063 98.35268480202649,237.51706728668069 100.34943049651338,237.33686232486798 101.73289001343073,237.73003653480555 103.0165122456383,238.5 103.34454903821461,237.46792049828218 103.1591369381058,233.0937980911549 104.34292188554537,232.97911917501187 102.64568804518785,232.50401996453002 101.00550408184063,232.42210617019737 100.27811815030873,231.6357316889771 98.83760875638109,216.74306192847143 100.40648037352366,214.90800908749225 101.51895297470037,214.2690127123351 100.72025469696382,212.84355039751972 99.35105764924083,211.5" stroke="#4dd2ff" stroke-linecap="round" stroke-linejoin="round" stroke-width="0.5"><title>2021-03-17 2.8km</title></polyline><polyline fill="none" points="124.90957446815446,223.5428993329988 125.24468085099943,223.5428993329988 126.92021276592277,224.25771734368755 127.39893617015332,224.86256263690302 132.37765957438387,226.23720859031891 137.64361702115275,226.95202314679045 139.4148936169222,226.8420517363702 140.65957446815446,227.11698022211203 141.28191489353776,227.33692291303305 143.77127659553662,227.72182241349947 145.82978723407723,228.5466061629122 146.5,228.7115627663443 147.64893617038615,229.31640322814928 148.60638297884725,229.9212430336629 148.9893617022317,230.03121383691905 149.42021276592277,230.2511553784134 150.47340425522998,230.5260821832344 151.0,230.4710968331783 150.95212765969336,230.4710968331783 150.95212765969336,230.4710968331783 150.8085106385406,230.5260821832344 150.9042553191539,230.4710968331783 150.95212765969336,230.4710968331783 151.0,230.5260821832344 150.71276595722884,230.4710968331783 150.09042553184554,230.4710968331783 147.9840425529983,230.5260821832344 146.54787234053947,230.08619923051447 145.15957446815446,229.81127220881172 143.77127659553662,229.70130136219086 142.38297872338444,229.75628678809153 141.66489361715503,229.81127220881172 140.27659574477002,229.9212430336629 139.65425531892106,229.9212430336629 137.5,229.75628678809153 136.82978723407723,229.59133049368393 135.5372340423055,229.26141775865108 134.86702127661556,228.93150482838973 133.57446808507666,228.4916206173948 132.9042553191539,228.27167838194873 130.17553191492334,227.72182241349947 128.4042553191539,227.00700884399703 128.2606382977683,226.6770945797325 128.83510638284497,226.5671231148881 129.07446808507666,226.5671231148881 129.26595744676888,226.34718012035592 129.07446808507666,226.29219435801497 128.59574468061328,226.18222281726776 128.35638297861442,226.1272370388615 128.21276595746167,226.0722512549255 127.92553191492334,226.0722512549255 127.73404255323112,225.96227967075538 127.49468085099943,225.96227967075538 127.25531914876774,225.96227967075538 126.92021276592277,225.8523080649902 126.68085106369108,225.7423364375718 126.53723404253833,225.6873506156844 126.05851063830778,225.4124214250478 125.9148936169222,225.30244971072534 125.67553191492334,225.1374920986127 125.53191489353776,225.02752033027355 125.38829787238501,224.86256263690302 125.19680851045996,224.64261896983953 124.86170212761499,224.3676892640069 124.57446808507666,224.20273137534969 124.43085106369108,224.09275942249224 124.19148936169222,223.81782944552833 124.09574468061328,223.32295514538419 124.09574468061328,222.88306650985032 124.04787234053947,222.6081359362579 124.0,222.38819137983955 124.14361702115275,221.94830200687284 124.09574468061328,221.34345355216647 124.09574468061328,221.06852221954614 124.04787234053947,220.90356335480465 124.14361702115275,220.73860444140155 124.09574468061328,220.68361812614603 124.14361702115275,220.29871376691153 124.19148936169222,220.02378191897878 124.43085106369108,219.96879553317558 124.90957446815446,219.80383634311147 125.14893617015332,219.69386352261063 125.29255319130607,219.63887710432755 125.57978723407723,219.52890425140504 125.62765957438387,219.52890425140504 125.62765957438387,219.4739178167074 125.67553191492334,219.4739178167074" stroke="#4dd2ff" stroke-linecap="round" stroke-linejoin="round" stroke-width="0.5"><title>2021-03-02 1.4km</title></polyline><polyline fill="none" points="166.46046511642635,225.39670685463352 166.77441860502586,225.54094889492262 170.2279069768265,226.1900377253187 172.42558139562607,226.98336773522897 173.2418604651466,227.3439720008755 175.43953488394618,227.92093845579075 176.2558139534667,227.92093845579075 178.57906976761296,227.77669688494643 179.332558139693,227.56033447483787 181.6558139536064,227.41609283257276 183.10000000009313,227.92093845579075 183.85348837217316,228.20942151272902 185.17209302354604,228.71426658827113 186.42790697677992,228.93062865681713 187.99767441884615,228.78638728504302 188.24883720930666,228.64214588463074 188.5,228.78638728504302 188.4372093025595,229.79607629112434 187.30697674443945,230.08455860830145 186.3651162791066,230.8778843934997 185.9255813951604,231.02212535316357 185.4860465116799,231.16636628413107 185.23488372098655,231.16636628413107 184.85813953494653,231.2384867388173 184.60697674448602,231.38272762706038 183.7279069768265,231.74332972348202 183.85348837217316,232.10393164196284 184.2930232558865,232.39241304877214 184.2930232558865,232.4645333828521 184.2930232558865,232.53665370953968 184.35581395355985,232.4645333828521 184.04186046519317,232.39241304877214 183.66511627915315,232.53665370953968 183.5395348840393,232.60877402912593 183.41395348822698,232.68089434184367 183.35116279078647,232.75301464722725 183.35116279078647,232.75301464722725 183.10000000009313,232.39241304877214 182.97441860474646,232.24817235959927 182.78604651149362,232.03181127260905 182.72325581405312,231.8875705123064 182.0953488375526,231.74332972348202 181.84418604662642,231.74332972348202 181.53023255825974,231.74332972348202 181.2162790701259,231.67120931850513 180.83953488408588,231.67120931850513 180.52558139548637,231.67120931850513 179.897674418753,231.52696848718915 179.5837209301535,231.45484806067543 179.2697674422525,231.38272762706038 178.95581395342015,231.3106071865186 178.32790697691962,231.16636628413107 178.07674418599345,231.02212535316357 177.7627906978596,230.9500048768823 177.44883720949292,230.80576390313217 177.1348837208934,230.6615229010349 176.8837209304329,230.44516134465812 176.31860465137288,230.15667916968232 175.75348837208003,229.86819688096875 175.31395348883234,229.43547323450912 175.0,229.2912319623283 174.68604651163332,229.14699066145113 174.37209302349947,229.0027493322268 174.05813953466713,228.85850797448074 173.8697674421128,228.78638728504302 173.3674418607261,228.57002517359797 173.11627907003276,228.4979044556967 172.8651162791066,228.42578373057768 172.61395348841324,228.28154225915205 172.3000000002794,228.20942151272902 171.9860465116799,228.13730075926287 171.2953488372732,228.06517999846255 171.04418604681268,227.99305923079373 170.73023255821317,227.92093845579075 170.35348837217316,227.92093845579075 170.10232558147982,227.84881767391926 169.47441860474646,227.77669688494643 169.16046511637978,227.63245528534753 168.59534883731976,227.19973031594418 167.9674418605864,226.98336773522897 167.71627906989306,226.9112468608073 167.40232558175921,226.8391259793425 167.02558139548637,226.76700509065995 166.77441860502586,226.69488419493428 166.46046511642635,226.55064238182968 165.89534883736633,226.2621586708119 165.58139534899965,226.1179167724913 165.33023255807348,225.97367484582355 164.70232558157295,225.6130699045607 164.51395348855294,225.46882787835784 164.26279069762677,225.32458582380787 163.69767441879958,224.96398056240287 163.44651162810624,224.7476173203322 163.13255813973956,224.3148906439892 162.6930232560262,223.81004253140418 161.93953488371335,223.23307283304166 161.93953488371335,223.01670907909283 161.8139534885995,222.65610267966986 161.68837209348567,222.36761743220268 161.5,221.43003959202906 161.68837209348567,221.06943241041154 161.75116279069334,220.7088250509696 161.8139534885995,220.42033903533593 161.87674418650568,220.20397444895934 161.87674418650568,219.84336666268064 161.87674418650568,218.9057855863357 161.87674418650568,218.25669029093115 162.56744186067954,217.96820330794435 163.06976744206622,217.67971621121978 163.5093023260124,217.53547262010397 163.82325581437908,217.46335081395227 163.94883720949292,217.31910718022846 164.82790697691962,217.24698535277275" stroke="#4dd2ff" stroke-linecap="round" stroke-linejoin="round" stroke-width="0.5"><title>2020-12-25 1.0km</title></polyline><polyline fill="none" points="11.906015037558973,251.8813230539672 12.210526315728202,252.17278965492733 12.464285714318976,252.46425611217273 13.022556390846148,252.814015671378 15.204887218074873,253.3969478099607 16.372180451173335,253.7467068171827 17.133458646712825,253.92158624331933 20.686090225586668,255.32061978871934 21.7011278194841,256.02013531984994 22.868421052582562,256.5447714247275 24.593984962441027,257.185992698709 25.253759398357943,257.30257831001654 26.471804511500522,257.30257831001654 27.182330826995894,257.30257831001654 28.400375939672813,257.06940706435125 29.51691729342565,256.95282140676863 30.785714285913855,257.0111142384121 31.496240601642057,256.95282140676863 33.475563909858465,257.30257831001654 34.13533834577538,257.53574946388835 35.404135338263586,257.76892052585026 36.11466165445745,257.7106277688872 37.383458646712825,257.6523350063362 37.94172932347283,257.5940422380809 38.5,257.82721327705076 38.44924812018871,257.8855060223141 38.296992481453344,257.94379876181483 38.24624060164206,258.00209149578586 38.24624060164206,258.0603842238197 38.19548872183077,258.00209149578586 38.09398496244103,258.118676946091 38.09398496244103,258.00209149578586 38.144736842485145,258.0603842238197 38.19548872183077,258.118676946091 38.144736842485145,258.0603842238197 38.24624060164206,257.94379876181483 38.19548872183077,257.94379876181483 38.144736842485145,257.94379876181483 38.144736842485145,258.00209149578586 38.144736842485145,257.94379876181483 38.144736842485145,257.94379876181483 38.144736842485145,257.94379876181483 38.144736842485145,258.00209149578586 38.09398496244103,258.00209149578586 38.09398496244103,258.00209149578586 38.04323308262974,258.00209149578586 37.992481203284115,258.00209149578586 38.09398496244103,258.00209149578586 38.09398496244103,258.00209149578586 38.09398496244103,258.00209149578586 38.04323308262974,258.00209149578586 38.04323308262974,258.0603842238197 37.94172932347283,258.00209149578586 36.774436090374365,258.00209149578586 35.45488721807487,258.00209149578586 34.13533834577538,257.7106277688872 33.52631578966975,257.53574946388835 32.257518796948716,257.185992698709 31.5977443610318,257.06940706435125 30.22744360892102,257.06940706435125 29.567669173004106,257.0111142384121 28.197368421126157,257.127699884295 26.77631578943692,257.30257831001654 26.116541353520006,257.30257831001654 24.746240601642057,257.24428550724406 24.035714285681024,257.06940706435125 20.838345864554867,256.02013531984994 20.17857142863795,255.78696356801083 18.300751879811287,255.32061978871934 17.79323308262974,255.26232679048553 15.763157894834876,254.91256868001074 14.595864661503583,254.38793112634448 13.936090225586668,254.0381724986364 12.667293233098462,253.3386546219699 11.5,252.93060214509023" stroke="#4dd2ff" stroke-linecap="round" stroke-linejoin="round" stroke-width="0.5"><title>2020-12-08 1.1km</title></polyline><polyline fill="none" points="49.0,252.21688039737637 49.259615384740755,252.26657923389575 50.990384615492076,253.6084459623671 51.552884615492076,253.80724072939483 53.759615384740755,254.45332318075816 54.79807692323811,254.75151480198838 55.31730769248679,254.95030911802314 56.528846153989434,255.39759604274877 57.61057692323811,255.94427952257684 58.17307692323811,256.29216870098026 60.94230769225396,257.2364381174557 61.548076923470944,257.2861364587152 63.278846153989434,257.0873430640495 63.79807692323811,257.0376447030285 66.52403846173547,257.0873430640495 67.08653846150264,257.13704142006463 68.77403846173547,257.6340247109474 70.50480769248679,257.7831196025945 71.02403846173547,257.73342131017125 72.1490384619683,257.7831196025945 73.87980769225396,257.53462809184566 74.39903846173547,257.4849297750625 75.48076923098415,257.3855331266823 76.0,257.33583479523077 75.7836538462434,256.9382479664928 74.57211538474075,256.88854959077435 74.05288461549208,256.9382479664928 72.97115384647623,257.2364381174557 72.58173076948151,257.33583479523077 71.45673076948151,257.5843264038558 70.9375,257.6340247109474 69.85576923098415,257.6340247109474 69.29326923098415,257.53462809184566 68.21153846150264,257.33583479523077 67.69230769271962,257.1867397711321 66.00480769248679,256.88854959077435 65.44230769248679,256.88854959077435 64.31730769248679,256.9382479664928 63.71153846150264,256.9382479664928 62.58653846173547,257.0376447030285 61.46153846173547,257.0873430640495 60.37980769248679,257.0376447030285 59.341346153989434,256.78915282484377 58.822115384740755,256.64005763921887 57.697115384973586,256.29216870098026 57.177884615492076,256.09337491414044 56.13942307699472,255.74548559851246 54.75480769225396,255.34789751510834 54.365384615492076,255.29819898269488 53.32692307699472,255.04970624673297 51.89903846173547,254.6024190133612 51.509615384740755,254.3042273040046 50.60096153849736,253.80724072939483 50.12500000023283,253.55874725829926" stroke="#4dd2ff" stroke-linecap="round" stroke-linejoin="round" stroke-width="0.5"><title>2020-12-03 1.3km</title></polyline><polyline fill="none" points="113.21478873235174,255.7097914389451 113.45246478868648,256.5833735263441 113.5,256.85636764595984 112.69190140860155,257.3477567220689 111.31338028167374,257.29315795737784 109.41197183099575,256.96556525613414 107.60563380271196,256.2011815327569 106.98767605633475,256.09198377176654 103.47007042262703,254.72700994316256 102.18661971832626,254.50861381803406 100.23767605633475,254.56321285746526 98.90669014072046,254.50861381803406 97.95598591561429,254.50861381803406 97.38556338031776,254.50861381803406 96.10211267601699,254.3994157234556 95.674295774661,254.3448166680755 94.200704225339,254.23561854078434 93.63028169004247,254.18101946933893 91.63380281697027,254.0172222222318 91.01584507036023,253.90802403050475 89.7799295776058,253.79882581724087 88.16373239457607,253.08903690631269 87.54577464796603,252.870640135312 86.5,252.65224327798933 87.68838028167374,252.92523933615303 88.73415492963977,253.41663190134568 89.7799295776058,253.90802403050475 90.39788732398301,253.9626231289585 91.96654929593205,254.12642039224738 92.44190140836872,254.18101946933893 93.67781690158881,254.29021760710748 94.2957746477332,254.3448166680755 95.5792253522668,254.3448166680755 96.14964788756333,254.3994157234556 97.43309859163128,254.50861381803406 98.00352112669498,254.50861381803406 99.76232394366525,254.56321285746526 100.33274647896178,254.56321285746526 101.18838028167374,254.4540147734224 101.47359154932201,254.4540147734224 101.66373239434324,254.4540147734224 101.85387323936448,254.4540147734224 102.04401408438571,254.4540147734224 102.28169014095329,254.3994157234556 102.5193661970552,254.3994157234556 102.9947183097247,254.4540147734224 103.18485915497877,254.4540147734224 103.61267605656758,254.61781189130852 104.04049295769073,254.83620797318872 103.99295774661005,254.94540598179447 103.99295774661005,255.00000497797737 103.9454225350637,255.00000497797737" stroke="#4dd2ff" stroke-linecap="round" stroke-linejoin="round" stroke-width="0.5"><title>2020-11-30 1.0km</title></polyline></svg>