<?xml version="1.0" encoding="utf-8" ?>
<svg baseProfile="full" height="300mm" version="1.1" viewBox="0,0,200,300" width="200mm" xmlns="http://www.w3.org/2000/svg" xmlns:ev="http://www.w3.org/2001/xml-events" xmlns:xlink="http://www.w3.org/1999/xlink"><defs /><rect fill="#222222" height="300" width="200" x="0" y="0" /><text fill="#FFFFFF" style="font-size:12px; font-family:Arial; font-weight:bold;" x="10" y="20">Over 3km Runs</text><text fill="#FFFFFF" style="font-size:4px; font-family:Arial" x="10" y="280">ATHLETE</text><text fill="#FFFFFF" style="font-size:9px; font-family:Arial" x="10" y="290">jdzj</text><text fill="#FFFFFF" style="font-size:4px; font-family:Arial" x="120" y="280">STATISTICS</text><text fill="#FFFFFF" style="font-size:3px; font-family:Arial" x="120" y="285">Number: 43</text><text fill="#FFFFFF" style="font-size:3px; font-family:Arial" x="120" y="290">Weekly: 3.3</text><text fill="#FFFFFF" style="font-size:3px; font-family:Arial" x="141" y="285">Total: 82.7 km</text><text fill="#FFFFFF" style="font-size:3px; font-family:Arial" x="141" y="290">Avg: 1.9 km</text><text fill="#FFFFFF" style="font-size:3px; font-family:Arial" x="167" y="285">Min: 1.0 km</text><text fill="#FFFFFF" style="font-size:3px; font-family:Arial" x="167" y="290">Max: 4.9 km</text><polyline fill="none" points="11.5,45.91863367764745 12.550397877930664,46.905779877241 17.683023872668855,49.07200508596725 20.905835543759167,48.989743677462684 23.0782493368024,49.48331176335341 26.826259946916252,49.04458461920149 30.956233421806246,47.83808140299516 32.12599469488487,47.12514522334095 34.01193633954972,45.80895055021392 38.5,41.39416874811286 37.7838196286466,40.51668823664659 36.01724137936253,41.88775031856494 25.680371352820657,43.01201618020423 24.17639257281553,42.600699928967515 16.035809018532746,42.35390988612198 15.606100795674138,43.0394372419687 15.701591511955485,42.765226502524456 15.224137931014411,42.957174048555316 14.722811670973897,43.9991727003071 13.982758620637469,44.300803160091164 11.83421750657726,43.86206783761736 11.523872678983025,43.286226676253136" stroke="#4dd2ff" stroke-linecap="round" stroke-linejoin="round" stroke-width="0.5"><title>2021-05-10 2.5km</title></polyline><polyline fill="none" points="68.5,53.62218834881787 68.36556016595569,52.850076451170025 67.44688796682749,51.89780196425272 65.99045643152203,52.618442436360056 65.25103734445293,52.386808215931524 65.20622406643815,51.66616710406379 65.69917012448423,50.8425748248701 65.51991701254155,48.551945129060186 64.9821576763643,47.7798182280967 62.13651452283375,48.65489520991105 60.23195020749699,48.44899500766769 60.16473029053304,47.85703102100524 55.235269709606655,47.93424379112548 52.658506224048324,47.522442086657975 48.535684647387825,48.26883219741285 45.600414937827736,48.34604484558804 43.27012448140886,47.8312934259302 41.5,44.76850148165249 44.07676348555833,42.915366209083004 45.219502074760385,41.654197177209426 47.57219917012844,40.444498704135185 47.86348547716625,39.569394184683915 50.35062240669504,38.46264014756889 52.74813278007787,36.815369630552595 51.7846473029349,37.896392080554506 49.11825726146344,39.05462544912007 46.608713692985475,36.84110831236467 45.017842323635705,36.37781165118213" stroke="#4dd2ff" stroke-linecap="round" stroke-linejoin="round" stroke-width="0.5"><title>2021-05-08 2.6km</title></polyline><polyline fill="none" points="98.5,40.33026879368117 98.32324058911763,42.208326480700634 93.02045826520771,42.51287573011359 92.2250409165863,43.98486122771283 84.04991816682741,42.10681002429919 79.80769230774604,42.46211753448006 78.2610474631656,43.32500618058839 72.25122749595903,42.005293547641486 71.5,43.22348994429922 77.7749590834137,45.45684251523926 86.87806873978116,46.37048395522288 98.32324058911763,49.66973120631883" stroke="#4dd2ff" stroke-linecap="round" stroke-linejoin="round" stroke-width="0.5"><title>2021-05-08 1.3km</title></polyline><polyline fill="none" points="128.5,44.547562955413014 127.81962864729576,44.917745135200676 123.80901856790297,43.43701444446924 123.16445623361506,44.01285478231148 119.08222811669111,42.449857729516225 116.4323607427068,43.68380325799808 110.66710875323042,44.05398620440974 106.97877984098159,42.861173311423045 103.25464190985076,43.51927739850362 101.96551724127494,43.313619982858654 101.5,42.65551557124127 107.48010610067286,42.902304847346386 110.98938992060721,44.465300204145024 116.71883289143443,44.30077465294744 128.28514588880353,47.550142270483775" stroke="#4dd2ff" stroke-linecap="round" stroke-linejoin="round" stroke-width="0.5"><title>2021-05-07 1.5km</title></polyline><polyline fill="none" points="131.6246153844986,50.185164627531776 131.5,49.46832878002897 133.49384615384042,48.79928102562553 134.32461538468488,46.792132182978094 144.75076923076995,40.57947557425359 148.0738461536821,41.53527411821415 148.8630769229494,42.586650324316 149.8184615385253,40.24494563540793 149.4446153845638,39.81483537243912 149.4446153845638,41.43969434921746 149.2369230769109,40.91400528058875 148.4476923076436,42.73001962917624 149.48615384614095,41.53527411821415 148.48923076922074,42.586650324316 149.02923076902516,40.818425388250034 148.6553846152965,42.68222986560431 149.56923076906241,41.86980316028348 151.27230769232847,42.156542153970804 153.8061538459733,41.24853475438431 156.13230769219808,41.344114561215974 158.5,42.73001962917624 156.9630769228097,41.67864373602788 155.09384615370072,41.43969434921746 150.73230769229122,42.4910707641684 148.5723076921422,41.10516500828089" stroke="#4dd2ff" stroke-linecap="round" stroke-linejoin="round" stroke-width="0.5"><title>2021-05-06 1.2km</title></polyline><polyline fill="none" points="168.23724007583223,47.46278438757872 169.41115311929025,44.94149654899957 177.7816635160707,38.72618315467844 181.30340264644474,34.973509623494465 185.94801512314007,32.510804736055434 187.73440453689545,34.211244915786665 188.5,51.5085494897794 187.53024574671872,46.348728289827704 173.4943289225921,54.0298094599857 169.81947069941089,50.51176934101386 162.92911153123714,54.264344727329444 161.5,56.66832587873796 162.98015122883953,57.489195263944566 167.3695652175229,53.384836997662205 169.00283553870395,49.63225605653133 168.08412098302506,48.283666491217446" stroke="#4dd2ff" stroke-linecap="round" stroke-linejoin="round" stroke-width="0.5"><title>2021-05-06 1.8km</title></polyline><polyline fill="none" points="27.8550913836807,70.82384493073914 30.287206266075373,70.09045673039509 30.533942558802664,69.3163232919469 27.71409921674058,68.17549235391198 28.066579634323716,68.25698038539849 27.643603133037686,68.70516426290851 29.72323759784922,69.5200427621894 31.556135770166293,69.23483547507203 30.956919059855863,71.88318108403473 32.78981723240577,70.86458868044429 32.719321148702875,71.63871914224 33.45953002618626,71.59797547079506 36.20887728454545,73.79812782708905 38.21801566565409,74.24630553697352 38.25326370750554,75.38711927455734 37.618798955343664,76.28347065809066 38.5,80.35776998128858 37.75979112274945,81.82450764605892 18.1618798954878,79.50217054301174 12.698433420155197,80.23554160146159 11.5,81.13188219236326 12.34595300257206,80.27628439894761" stroke="#4dd2ff" stroke-linecap="round" stroke-linejoin="round" stroke-width="0.5"><title>2021-05-02 1.6km</title></polyline><polyline fill="none" points="49.7708860761486,68.55801729654195 51.68481012666598,69.348454042105 54.008860759902745,67.37236067571212 63.236708860844374,65.8705263681477 67.33797468361445,67.53044832928572 68.5,70.29697707982268 67.0645569623448,78.20129086408997 55.44430379755795,82.31150237331167 42.32025316450745,84.12947363191051 41.5,82.78575615363661 47.17341772140935,66.50287800800288" stroke="#4dd2ff" stroke-linecap="round" stroke-linejoin="round" stroke-width="0.5"><title>2021-05-01 1.0km</title></polyline><polyline fill="none" points="84.37958048470318,73.89144496811787 82.74392903526314,76.50013982632663 80.31865274859592,71.47839281102642 80.43145629670471,69.65229327307316 82.40551839070395,66.58704311598558 85.50761596718803,65.28267691930523 93.51666789175943,65.41311365773436 98.19801514339633,61.5 92.27582886116579,65.67398705566302 78.34459065436386,63.78265252505662 77.16015339782462,64.36961900861934 74.84768065926619,69.32620352465892 74.05805582134053,81.45663092919858 73.09922566148452,84.58702669781633 71.97119017899968,85.0435414754902 71.8019848568365,88.5 72.70441324263811,88.04348767379997 73.09922566148452,85.89135377493221 74.62207356258295,68.93489560863236 76.65253743086942,66.91313425207045 77.4985640423838,67.43487972620642" stroke="#4dd2ff" stroke-linecap="round" stroke-linejoin="round" stroke-width="0.5"><title>2021-05-01 1.8km</title></polyline><polyline fill="none" points="124.35151710780337,72.54729372254224 123.41026468691416,72.70747328280413 121.87637185282074,73.80870433762902 120.01129761134507,73.72861500787258 119.68011620396283,74.12906134077639 119.73240800516214,73.74863734330575 118.47740477730986,74.16910593061766 115.51420271140523,73.78868200814759 113.77114267268917,73.98890521413705 113.24822466110345,73.70859267051856 111.34828921884764,74.06899444117153 107.06036152353045,74.16910593061766 102.78986442863243,73.72861500787258 101.5,74.82984052217216 101.58715300186304,75.21026249312854 106.6071659134468,76.1913474433677 107.1475145255099,76.03117063254467 108.14105874759844,76.55174480551796 110.79051000642357,76.59178891735792 112.44641704321839,77.2324936324294 113.16107165906578,77.01225161476759 115.04357650096063,77.45273541120696 115.51420271140523,77.81313053362828 116.68205293739447,77.95328401951701 116.99580374429934,77.71302084159106 117.84990316332551,78.11345931352116 118.9131697868579,77.93326209892984 120.69109102641232,78.45383139346086 120.84796642995207,77.97330593819788 121.23143963847542,77.93326209892984 121.94609425426461,78.31367825318011 122.19012265978381,77.73304278393334 123.23595868301345,77.17242765137053 124.49096191086574,75.91103794146329 125.88540994183859,75.37043995175918 126.61749515816336,74.4894623648579 127.83763718529372,74.10903904291627 128.5,73.18801120518765 128.1513879922568,72.1268217752804 127.6110393802519,71.54616860652459 126.51291155582294,72.24695670625078 124.83957391860895,72.14684426873282 124.73499031632673,72.78756301557587 122.38185926398728,73.94886058874545 122.86991607490927,74.4093733037007 123.20109748223331,74.1891282225406 124.3340865073842,75.05008490809996 125.27533892838983,74.90992941746663 125.3450613298919,74.66966263690847" stroke="#4dd2ff" stroke-linecap="round" stroke-linejoin="round" stroke-width="0.5"><title>2021-04-30 3.7km</title></polyline><polyline fill="none" points="158.28672985779122,73.23623378251796 156.58056872035377,75.68592113841441 155.64218009449542,75.83290199568728 146.34360189572908,73.28522764809895 138.06872037914582,73.23623378251796 139.17772511858493,74.16711640084395 131.5,71.86440358625259 137.64218009449542,74.02013505066861 147.45260663493536,74.95101620003697 157.56161137414165,78.13559641374741 158.5,77.93962283618748 157.22037914698012,77.49868200431229" stroke="#4dd2ff" stroke-linecap="round" stroke-linejoin="round" stroke-width="0.5"><title>2021-04-29 1.4km</title></polyline><polyline fill="none" points="171.87571428576484,74.33554940490285 174.07428571442142,72.60747186263325 173.3028571428731,71.23386702072457 174.6528571427334,70.79076778833405 183.87142857140861,61.97300212824484 184.95142857148312,61.840069662663154 188.5,65.91664737128303 183.9871428569313,68.84112597076455 184.488571428461,68.88543610589113 181.6728571425192,71.94282488318277 182.86857142834924,71.49972635036102 183.1385714286007,70.48059806539095 181.78857142850757,71.58834609185578 175.34714285703376,79.38681485856068 170.98857142869383,81.95673512283247 168.01857142848894,84.57094926701393 167.82571428571828,86.25467235324322 165.39571428578347,88.15993033730774 163.39000000013039,87.14083986292826 161.5,84.43802349138423 161.6542857142631,81.82380857339012 164.31571428570896,80.58315888041398 165.28000000002794,79.07665107343928 167.9414285714738,77.92461228143657 168.4428571430035,76.77257053373614 169.75428571435623,76.01931086977129 170.14000000013039,74.6900260274997 171.14285714295693,73.93676287005655 172.26142857130617,74.20262059936067 172.49285714281723,73.36073724998278" stroke="#4dd2ff" stroke-linecap="round" stroke-linejoin="round" stroke-width="0.5"><title>2021-04-26 2.2km</title></polyline><polyline fill="none" points="27.429649018566124,113.72947800598922 28.16590629715938,112.71446476058918 29.01996473991312,102.05664420773974 31.906093271332793,91.5 29.255567069048993,101.8874697809515 27.164596398244612,102.86868029402103 24.131216411362402,102.6656714527926 20.98003525985405,103.13935856189346 19.330818956252187,104.15440016260254 18.18225760187488,105.77846047110506 18.09390672855079,115.72566195391119 19.41916982969269,118.16166729407269 20.30267856363207,118.5 20.891684386413544,118.19550057966262 24.072315829223953,115.52266072752536 25.161976601113565,116.26699797008769 26.222187082050368,115.488827178051 26.4283391200006,114.60915372084128" stroke="#4dd2ff" stroke-linecap="round" stroke-linejoin="round" stroke-width="0.5"><title>2021-04-25 2.2km</title></polyline><polyline fill="none" points="56.04328879958484,118.5 55.24709471571259,112.57028896175325 55.686374210286885,109.19535109811113 55.24709471571259,102.9185027051426 55.65891924186144,91.97315048170276 55.32945962098893,91.5 54.64308541070204,91.97315048170276 53.95671120041516,103.13929845957318 54.231260884553194,114.11580935536767 55.32945962098893,114.4312207622861 55.41182452614885,114.14735051008756 55.549099368276075,108.753767806018 55.1921847788617,112.94878444314236" stroke="#4dd2ff" stroke-linecap="round" stroke-linejoin="round" stroke-width="0.5"><title>2021-04-18 2.2km</title></polyline><polyline fill="none" points="98.5,108.84329710557358 93.66475644684397,108.35455802554497 79.0429799426347,103.95588244483224 72.58309455565177,103.33384404791286 71.5,102.62294197097071 79.1977077361662,102.53407913257251 80.89971346687526,101.15670289442642 84.22636103141122,102.66737338370876" stroke="#4dd2ff" stroke-linecap="round" stroke-linejoin="round" stroke-width="0.5"><title>2021-04-16 1.0km</title></polyline><polyline fill="none" points="128.5,107.16544545063516 127.70920502085937,107.37630865129177 127.38441422593314,106.71127763851837 126.81956066942075,106.48419326210569 126.0993723848951,106.66261672708788 125.84518828446744,106.45175261124677 125.49215481168358,105.96514208130247 126.11349372385303,104.86215288248786 125.9016736401245,104.05112669288064 125.47803347278386,103.87270039442228 122.18776150629856,104.09978837710514 119.37761506275274,103.85647981220973 118.00784518831642,104.1808911520493 117.42887029290432,103.95380328134343 116.49686192470836,104.05112669288064 116.27092050213832,103.85647981220973 114.43514644348761,104.06734725587012 113.78556485357694,103.84025922839646 113.03713389125187,104.05112669288064 112.28870292886859,103.74293569203292 110.70711297076195,104.03490612830501 109.4079497908242,103.51584721657855 108.3347280335147,103.6456120981311 107.72751046030317,102.89946263092861 106.62604602507781,102.9643453276658 105.62343096232507,102.6561522900156 105.21391213394236,102.85080059153552 104.64905857742997,102.29929647214885 103.8158995815902,102.59126947163895 102.60146443516714,102.18575127677468 101.89539748959942,102.55882805289002 102.38964435155503,102.20197202375857 102.50261506275274,102.75347646955925 101.5,102.70481438699062 102.34728033473948,102.39662086291355 101.93776150635676,102.49394519609632 102.37552301259711,102.46150375812431 102.02248953975504,102.60749017864873 102.24843096238328,102.85080059153552 102.00836820085533,102.6561522900156 102.34728033473948,102.54260734103445 102.24843096238328,102.36417940571846 101.96600418409798,102.46150375812431 102.06485355651239,102.70481438699062 102.50261506275274,102.52638662765094 102.29079497908242,102.44528303669358 102.2625523013412,102.67237299059343 102.37552301259711,102.38040013515274 102.22018828458386,102.67237299059343 102.31903765688185,102.44528303669358 102.38964435155503,102.6237108840287 102.17782426782651,102.03976448181493 102.30491631804034,102.46150375812431 102.23430962342536,102.18575127677468 102.2625523013412,102.46150375812431 101.9801255229977,102.25063425516419 102.07897489547031,102.10464751777181 102.17782426782651,102.25063425516419 101.96600418409798,102.33173794214963 102.24843096238328,102.47772447788157 102.02248953975504,102.34795867474168 102.29079497908242,102.10464751777181 102.09309623437002,102.44528303669358 101.86715481174178,102.44528303669358 102.09309623437002,102.02354371879483 101.8812761506415,102.16953052819008 102.22018828458386,102.46150375812431 101.9801255229977,102.31551720792777 102.02248953975504,102.46150375812431 102.09309623437002,102.33173794214963 102.16370292886859,103.01300733347307 102.02248953975504,104.53774288666318 103.39225941424957,104.82971191170509 103.50523012556368,105.08923949877499 104.73378661094466,104.97569622984156 105.43985355651239,105.23522358651098 111.07426778244553,105.47853011143161 116.63807531388011,106.19222717446974 119.30700836819597,106.28954926127335 120.4932008368778,106.54907454446948 121.86297071131412,107.24654671369353 124.00941422587493,107.00324280455243 124.23535564856138,107.39252888633928 124.53190376568818,107.26276696148852 126.55125523015158,107.68449284293456 126.90428870293545,107.97645628120517 127.53974895400461,107.830474626855 127.73744769877521,107.23032646426873 128.3023012552294,107.00324280455243" stroke="#4dd2ff" stroke-linecap="round" stroke-linejoin="round" stroke-width="0.5"><title>2021-04-09 4.9km</title></polyline><polyline fill="none" points="157.95496894442476,106.44471134166815 149.48602484492585,103.98871357101598 148.52173913060687,103.0737308509415 142.56832298170775,103.55530091744731 138.25000000023283,103.1218878790387 139.04658385110088,103.60345789804705 138.6692546585109,103.79608577254112 131.5,102.15874641618575 137.45341614913195,103.94055662854225 146.00621118023992,104.66291026771069 157.87111801258288,107.84125358381425 156.2779503108468,107.21521790020051 158.5,106.92627808329416 157.913043478271,106.20392779266695" stroke="#4dd2ff" stroke-linecap="round" stroke-linejoin="round" stroke-width="0.5"><title>2021-04-09 1.4km</title></polyline><polyline fill="none" points="162.57386363646947,103.50223745114636 163.87784090917557,104.60354574551457 173.31250000023283,108.21581789135234 177.4928977272939,108.03961017174879 181.1363636367023,108.788492499938 187.8863636367023,108.03961017174879 188.5,107.29072658804944 185.7769886367023,106.58589383284561 182.5170454545878,107.2466745733982 179.1420454545878,105.96916425964446 176.34232954564504,106.18942491928465 171.5866477272939,103.76655168936122 170.97301136376336,102.6211888602993 168.25000000023283,101.56392825720832 166.17897727293894,101.2115075000911 161.5,102.3568739441107" stroke="#4dd2ff" stroke-linecap="round" stroke-linejoin="round" stroke-width="0.5"><title>2021-04-08 1.4km</title></polyline><polyline fill="none" points="38.32467532483861,136.12775079283165 38.5,137.05411077366443 36.220779220806435,137.0943872469943 30.189610389759764,135.0402820468007 21.072727272752672,134.597238393937 16.268831168767065,132.9056127530348 11.5,133.63059602869907 16.02337662340142,133.10699712540372 20.827272727387026,134.55696167447604 29.768831168999895,134.95972869111574" stroke="#4dd2ff" stroke-linecap="round" stroke-linejoin="round" stroke-width="0.5"><title>2021-04-06 1.3km</title></polyline><polyline fill="none" points="49.745508981868625,130.9457708785194 53.14071856276132,129.88541559164878 54.541916167596355,131.00814466172596 54.541916167596355,132.19324533944018 53.625748503021896,132.69223441329086 55.24251497001387,134.4386929749744 56.913173652486876,134.62581324036 59.068862275220454,133.62783783260966 61.494011976057664,130.57152804534417 63.64970059879124,131.38238722848473 65.42814371269196,130.32203269645106 68.44610778428614,130.6962756817229 68.44610778428614,126.89146135671763 68.12275449116714,129.19930237036897 66.34431137726642,128.88743247062666 68.5,129.26167633139994 68.39221556880511,130.88339708879357 63.7574850297533,131.32001348305494 61.494011976057664,130.50915421778336 57.829341317294165,135.12480033526663 58.69161676662043,134.37631954066455 54.64970059879124,134.31394609995186 53.84131736494601,132.94172879809048 55.02694610785693,132.94172879809048 54.91916167666204,132.3179926458979 53.51796407182701,129.82304169406416 52.92514970037155,130.6962756817229 51.73952095792629,130.57152804534417 50.23053892189637,133.8149583453196 45.218562874011695,136.43463952775346 43.60179640701972,139.42854717787122 43.386227544629946,137.1207446550252 42.95508982008323,140.0522760989843 42.577844311250374,138.6800716354628 42.95508982008323,139.61566592089366 42.6317365267314,138.8048176226439 44.84131736517884,139.9275303655304 46.61976047884673,142.609558043594 48.93712574825622,142.422440214199 49.58383233519271,141.11261380888755 48.18263473035768,140.48888596630422 49.422155688516796,140.48888596630422 48.829341317294165,141.23735930153634 48.29041916131973,140.73837717954302 48.93712574825622,141.48685021017445 49.098802394932136,140.8631227480946 49.36826347303577,142.29769496276276 48.45209580799565,143.10853864328237 45.4880239518825,142.85904839425348 42.73952095769346,139.61566592089366 43.22455089795403,136.80887878325302 43.54790419130586,139.05430952075403 41.5,140.23939465155127 42.09281437122263,139.2414283779217 41.71556886192411,140.48888596630422 43.22455089795403,139.42854717787122 43.440119760343805,136.68413239018992" stroke="#4dd2ff" stroke-linecap="round" stroke-linejoin="round" stroke-width="0.5"><title>2021-04-05 1.9km</title></polyline><polyline fill="none" points="92.73379468498752,142.10341087402776 91.67500136501621,142.6364659423416 92.0893117946107,141.9967997299682 92.82586366939358,141.9967997299682 92.98698439181317,141.5437018830562 92.15836353285704,146.47443036714685 90.38603558414616,147.75373932847288 90.29396659974009,148.5 90.22491486161016,147.75373932847288 92.22741527110338,146.5543873605202 92.89491540763993,143.9424462687748 93.35526032932103,139.78460868593538 92.20439802494366,138.95836385842995 89.71853544760961,138.50526074811933 88.24543169816025,139.65134356773342 85.16112072265241,140.53089209322934 79.54491267749108,143.91579367421218 78.53215384972282,142.2899802714819 77.35827429941855,142.79638225099188 76.80586039333139,142.58316048438428 73.58344594121445,128.7500269431912 73.39930797251873,126.21787125550327 75.0335324446205,133.6276893276954 75.53991185850464,133.84091839494067 81.45534410269465,131.1488886642328 86.01275882776827,129.6829202270601 88.86689734249376,128.08367256019847 92.8718981614802,124.85849335137755 95.24267450836487,121.5 96.60069202748127,122.19302596943453 96.43957130482886,122.40626435974264 95.88715739874169,122.2196807777218 96.2093988439301,121.95313257249654 96.2093988439301,122.37960957048927 96.3475023205392,121.65992923290469 95.56491595355328,121.89982289876207" stroke="#4dd2ff" stroke-linecap="round" stroke-linejoin="round" stroke-width="0.5"><title>2021-04-05 3.7km</title></polyline><polyline fill="none" points="108.31308411201462,125.2103965000133 112.60280373785645,128.61973999917973 116.13551401905715,138.45806303771678 116.2196261677891,143.42589063744526 118.15420560725033,143.03625803388422 120.08878504671156,144.7896034999867 124.46261682221666,141.57513435458532 128.5,142.64662527100882 120.25700934557244,140.69845907430863 120.25700934557244,143.91293116903398 120.67757009342313,139.432148916414 120.50934579409659,144.10774731216952 120.76168224262074,142.54921705560992 117.39719626121223,143.23107435565908 119.66822429932654,141.76995097420877 120.845794392284,143.91293116903398 118.7429906539619,142.54921705560992 120.25700934557244,142.15958409424638 119.92056074785069,144.01033924537478 120.845794392284,144.01033924537478 119.75233644852415,142.06217582896352 121.68691588751972,144.4973794791731 119.75233644852415,142.7440334765124 119.92056074785069,141.1855009960709 121.35046728979796,143.42589063744526 120.0046728970483,141.2829093504115 117.73364485986531,141.1855009960709 116.72429906530306,143.71811498625902 116.9766355138272,142.4518088303157 112.68691588798538,139.23733182030264 114.3691588784568,133.0031637659995 112.68691588798538,133.6850278780912 112.77102803764865,131.15238729520934 107.80841121450067,128.4249206984532 101.5,129.00937848177273 105.03271028026938,130.2757024524617 106.21028037369251,133.58761874877382" stroke="#4dd2ff" stroke-linecap="round" stroke-linejoin="round" stroke-width="0.5"><title>2021-04-04 1.4km</title></polyline><polyline fill="none" points="148.16759776556864,122.9137280768482 139.79608938563615,126.72593444224913 131.7262569833547,136.08309806726174 139.34357541939244,144.48713224026142 143.79329608939588,139.46204931195825 148.9972067042254,137.29605642065872 149.14804469328374,134.43693762167823 153.97486033523455,130.88468614366138 146.88547486020252,121.87403255852405 140.92737430194393,125.85952535836259 131.5,136.60293756675674 139.1927374303341,143.5341014813166 143.71787709509954,138.24909395119175 151.1089385477826,137.03613691445207 153.29608938563615,135.38997825584374 154.42737430194393,131.05796703702072 154.1256983242929,130.27820274728583 153.2206703913398,132.01101133896736 150.58100558677688,133.31061553861946 150.50558659248054,132.5308532496565 158.5,127.24577948241495 155.5586592182517,125.68624343891861 152.4664804469794,121.87403255852405 150.73184357536957,124.73319227073807 145.45251396670938,122.48052176041529 135.04469273751602,131.8377306337352 131.80167597765103,136.42965776781784 139.34357541939244,143.5341014813166 143.79329608939588,138.85557184100617 144.47206703945994,139.3754096989869 142.58659217879176,141.97459437139332 152.91899441368878,144.14057572046295 156.2374301678501,148.12596744153416 149.22346368711442,135.3033382408903 149.97765363147482,132.9640546067385 153.67318435804918,129.84500006528106 149.60055865952745,127.33242029225221 147.3379888269119,123.00036931439536 145.7541899443604,122.39388047158718 144.39664804469794,123.34693417925155 145.075418994762,123.95342236361466" stroke="#4dd2ff" stroke-linecap="round" stroke-linejoin="round" stroke-width="0.5"><title>2021-04-02 3.1km</title></polyline><polyline fill="none" points="178.06382978719193,145.4343305611983 174.9042553191539,144.3345724202518 168.9441489361925,144.22459636750864 162.48138297873084,143.37228048761608 161.9308510639239,142.8498920472921 161.5,140.23793516049045 162.12234042549971,139.74303530808538 163.41489361703862,139.68804638125584 162.24202127661556,136.03125840533176 162.5292553191539,131.08214564228547 164.32446808519308,128.52506961475592 165.0425531915389,126.7928434922942 168.46542553184554,124.42819997627521 169.85372340434697,125.94047430498176 171.14627659576945,126.21543239211314 171.81648936169222,127.01280931095243 174.64095744676888,127.01280931095243 178.99734042549971,127.70020137538086 181.10372340423055,128.80002515210072 184.5984042553464,131.90700387241668 187.9015957445372,137.62595379757113 187.99734042549971,138.36830888519762 187.23138297861442,139.028178414359 186.92021276592277,140.07296864059754 187.59042553184554,140.0454742111324 188.5,142.38249103396083 187.9015957445372,143.6197273019061 185.8191489360761,144.00464413187 185.3164893615758,144.63700634156703 184.14361702115275,144.05963220700505 183.64095744676888,144.27958439930808 182.39627659565303,143.89466794897453 181.79787234030664,145.5718000237248 181.60638297861442,145.37934275722364" stroke="#4dd2ff" stroke-linecap="round" stroke-linejoin="round" stroke-width="0.5"><title>2021-04-02 3.2km</title></polyline><polyline fill="none" points="14.32891246699728,162.71723626583116 23.460212201578543,166.78919727093307 28.40185676398687,166.74806655038265 31.409814323531464,167.44728824673803 35.456233421806246,166.4601513936359 38.5,166.50128214235883 31.624668434960768,167.40615759126376 28.616710875416175,166.7069358259323 23.746684350073338,166.953720112273 17.444297082256526,165.14396528797806 11.5,162.55271175326197" stroke="#4dd2ff" stroke-linecap="round" stroke-linejoin="round" stroke-width="0.5"><title>2021-04-01 1.4km</title></polyline><polyline fill="none" points="41.5,161.59926042420557 44.54909983626567,164.6954673033033 48.12847790494561,165.45682679719175 52.32651391159743,167.63938443706138 58.07119476282969,167.5378703335009 61.25286415708251,168.40073957582354 68.5,167.5378703335009 63.418166939402,168.29922562243883 57.27577741397545,167.3855991406017 51.796235679183155,167.63938443706138 43.57692307676189,165.40606953256065 42.73731587571092,164.94925392634468 43.7094926352147,164.5431952692743" stroke="#4dd2ff" stroke-linecap="round" stroke-linejoin="round" stroke-width="0.5"><title>2021-03-29 1.2km</title></polyline><polyline fill="none" points="84.50763466744684,178.5 83.24936770671047,171.4047617338947 82.37405155971646,171.15360141260317 78.10688534518704,165.00014268804807 75.26210786867887,164.74897984799463 84.12468385323882,151.5 87.07887584809214,153.32096613023896 92.87784531945363,159.22337237704778 92.27606546878815,163.43037331756204 94.7378921310883,177.8721059873933 86.91475407057442,172.6605618582107 84.06997659383342,172.09545210778015 83.79644029820338,173.28846099448856" stroke="#4dd2ff" stroke-linecap="round" stroke-linejoin="round" stroke-width="0.5"><title>2021-03-28 1.4km</title></polyline><polyline fill="none" points="114.66769230784848,160.10942592195352 116.20461538457312,161.01598240912426 116.57846153830178,160.25256653287215 118.07384615391493,160.157139463583 118.40615384629928,159.3937222318491 118.8630769229494,159.91857170814183 119.56923076929525,159.3937222318491 121.77076923055574,160.63427462166874 123.05846153851599,159.68000383497565 126.8384615383111,160.82512855296955 126.58923076931387,159.87085814285092 128.37538461526856,160.0617123756092 127.046153845964,159.58457665276364 127.37846153834835,158.8211585173267 127.46153846150264,159.87085814285092 127.25384615384974,159.3937222318491 126.79692307696678,160.01399882443366 126.87999999988824,159.2505813666503 127.46153846150264,160.0617123756092 126.8384615383111,159.87085814285092 128.0846153846942,159.72771741898032 128.0846153846942,160.20485300049768 127.5446153844241,159.5368630544981 126.67230769223534,160.01399882443366 128.4169230768457,159.72771741898032 127.87692307680845,159.29829499311745 127.7107692307327,160.7297015967779 126.96307692304254,160.10942592195352 126.87999999988824,160.63427462166874 127.9184615383856,159.9662852686888 127.46153846150264,160.01399882443366 128.5,161.30226305214455 128.37538461526856,159.91857170814183 127.75230769230984,160.01399882443366 128.0846153846942,160.68198811152251 127.17076923092827,160.96826895224513 127.046153845964,160.4434206149308 126.54769230773672,161.1591227517929 124.80307692289352,160.92055549059296 124.80307692289352,159.9662852686888 125.21846153843217,168.1729476553155 120.52461538463831,169.22262698729173 116.70307692303322,167.98209662307636 116.99384615384042,168.602362202917 115.83076923084445,167.98209662307636 109.1015384614002,167.64810713526094 105.7369230769109,168.65007490682183 105.4461538461037,170.36772911532898 104.65692307706922,170.9879916361242 101.95692307688296,171.1788414827024 101.5,170.4154416451056" stroke="#4dd2ff" stroke-linecap="round" stroke-linejoin="round" stroke-width="0.5"><title>2021-03-26 1.5km</title></polyline><polyline fill="none" points="134.35365853691474,163.28908159493585 142.9146341466112,166.78296138744918 145.92508710816037,166.56684608149226 148.5592334496323,167.14315327999066 152.3536585366819,166.38674989546416 153.8588850174565,166.56684608149226 158.5,164.90995782002574 154.39198606286664,166.56684608149226 149.09233449492604,166.99907656561118 146.30139372847043,166.42276913978276 143.19686411181465,166.67490375047782 136.51742160285357,165.0540353585675 131.5,162.85684672000934" stroke="#4dd2ff" stroke-linecap="round" stroke-linejoin="round" stroke-width="0.5"><title>2021-03-26 1.6km</title></polyline><polyline fill="none" points="188.5,167.39574562490452 186.43718166393228,167.13247799157398 183.36587436310947,165.18429346877383 180.75297113740817,165.23694719810737 176.99405772495084,163.76264081668342 167.82597623066977,164.0259101120173 169.20118845487013,164.71040967211593 168.65110356523655,164.8683709843317 161.5,162.60425437503727 167.27589134103619,164.81571721867658 175.48132427828386,165.34225464100018 182.49490662128665,167.02717090176884" stroke="#4dd2ff" stroke-linecap="round" stroke-linejoin="round" stroke-width="0.5"><title>2021-03-24 1.1km</title></polyline><polyline fill="none" points="38.5,196.98045260098297 36.55570652172901,196.85404130007373 34.64809782616794,195.42137727636145 31.603260869625956,194.91573000318022 29.108695652335882,193.77802145073656 21.478260869625956,193.94657105699298 22.138586956774816,194.6629061421845 16.158967391587794,193.01954739898792 11.5,193.60947177780326 13.334239130374044,193.8622962621157 16.305706521729007,193.06168488171534 21.8084239133168,194.74718077926082 31.823369565419853,195.16855371458223" stroke="#4dd2ff" stroke-linecap="round" stroke-linejoin="round" stroke-width="0.5"><title>2021-03-23 1.3km</title></polyline><polyline fill="none" points="67.96143617015332,196.34032829705393 58.87765957438387,193.16479310847353 55.17952127661556,193.78340575075708 51.51728723407723,193.37099742420833 52.52260638284497,194.0308505515568 52.12765957438387,194.15457289706683 46.34707446792163,192.42245672934223 41.5,193.12355223300983 45.98803191492334,192.50493861435098 51.40957446815446,194.0720913373807 58.59042553184554,194.56698045079247 68.5,197.57754327062867 66.88430851045996,196.7939742123708 68.5,196.34032829705393" stroke="#4dd2ff" stroke-linecap="round" stroke-linejoin="round" stroke-width="0.5"><title>2021-03-22 1.6km</title></polyline><polyline fill="none" points="94.49234889051877,181.66696286508522 94.86419280793052,181.92771207584883 94.65761285379995,182.75736678148678 96.53749043610878,183.0418191668141 97.0332823258359,183.4447928055597 96.86801836267114,184.17962535582774 97.61170619726181,184.6774138768087 98.5,186.21818136313232 97.96289211930707,187.64041954364802 97.17788829375058,187.97227391318302 96.88867635803763,188.8256116255361 93.06694720732048,192.1441184944124 88.85271614382509,193.77965152416436 87.53060443745926,194.63296870570048 86.51836266263854,195.4862828705518 83.56426931906026,199.56318669089524 71.5,208.33303713492933" stroke="#4dd2ff" stroke-linecap="round" stroke-linejoin="round" stroke-width="0.5"><title>2021-03-21 1.3km</title></polyline><polyline fill="none" points="113.73930905794259,192.65431547551998 113.39659695723094,190.4628218654252 111.0465711238794,187.5408042424533 110.09187312901486,187.2598394350207 106.86058760806918,190.20995613664854 103.65378152288031,194.28387675297563 102.845960142673,194.5086430964584 101.96470045519527,196.89677457942162 103.45794603682589,199.032028183894 107.00746422261,200.7177434452169 110.85073563770857,203.83629046773422 110.63042071578093,204.00485960778315 111.14448886690661,203.94866990548326 110.67937958752736,203.69581610852038 111.26688604569063,204.67913517341367 112.56429614126682,206.22434401192004 117.48466273001395,208.5 120.03052404953633,208.24715022931923 126.0279858118156,204.06104929899448 126.83580719213933,202.37535375673906 128.0352995446883,196.98106120841112 126.83580719213933,194.90198377234628 122.35607044724748,190.77187967445934 117.50914216588717,184.67495024375967 113.91066510824021,181.5 109.87155820708722,187.11935692763655 110.60594128014054,187.20364644034998 111.60959814640228,188.13082943920745 113.56795300764497,190.63139889360173 113.54347357188817,191.41809037700295" stroke="#4dd2ff" stroke-linecap="round" stroke-linejoin="round" stroke-width="0.5"><title>2021-03-20 3.7km</title></polyline><polyline fill="none" points="155.83990147779696,201.79852100237622 146.61822660081089,198.8448868917476 136.86453201971017,198.53933757098275 131.63300492614508,197.4189885148371 131.5,195.58568481527618 132.25369458133355,194.7708810813201 131.5443349755369,193.395896864502 131.72167487675324,191.00239708510344 134.51477832510136,188.20147899762378 139.1256157637108,188.76166383081 143.8251231526956,190.34036327208742 152.69211822655052,190.1366603898059 157.43596059107222,189.37277386462665 158.01231527072378,188.7107379619556 157.16995073878206,190.6459174452175 156.6379310344346,197.21528842530097 157.0812807881739,200.57632962657954 158.5,200.83095306847827" stroke="#4dd2ff" stroke-linecap="round" stroke-linejoin="round" stroke-width="0.5"><title>2021-03-19 1.6km</title></polyline><polyline fill="none" points="172.4419953597244,194.7241834859742 178.30974477971904,197.2426167684025 180.5858468679944,197.09870699765452 182.56960556854028,197.53043605438143 184.6577726219548,197.07472202762438 185.7645011601271,197.1706618936878 188.5,196.3551718256931 183.4257540605031,197.50645112684288 180.81554524379317,197.09870699765452 177.89211136905942,197.21863181254594 166.2192575406516,193.50093505275436 161.5,192.9972427329194 162.5232018561801,193.14115493069403 161.83410672855098,192.85333044989966 162.042923433939,192.73340348235797 163.62993039446883,192.8293450611527 165.7389791184105,192.46956394561857 166.44895591656677,192.9972427329194 166.8665893272264,192.73340348235797 167.36774941999465,193.21311099771992 167.80626450118143,193.0691988425242 168.3700696056476,193.54890569548297 169.08004640380386,193.2850670433836 170.54176334117074,194.3404199340148 170.83410672855098,193.98064105407684 170.0823665894568,192.85333044989966 169.79002320196014,192.87731583633285 169.89443155459594,193.69281756679993 171.2517401392106,194.36440517377923 171.81554524379317,193.02122810516448 172.12877030181699,193.66883226085338 172.5464037123602,193.59687632865098 172.1078886311734,193.71680287044728 172.35846867761575,193.6448469524621 171.75290023209527,192.8053596700338 172.6508120651124,192.73340348235797" stroke="#4dd2ff" stroke-linecap="round" stroke-linejoin="round" stroke-width="0.5"><title>2021-03-19 3.1km</title></polyline><polyline fill="none" points="22.861859621538315,238.5 22.71021845994983,238.02971275118762 22.422100252995733,237.9774585351406 21.997505000443198,238.3780737964844 22.513084949867334,235.43440133267723 22.31595143978484,236.1485512315412 22.406936136772856,237.45491552402382 22.118817929760553,237.68135101867665 20.481093384558335,237.6465148076095 20.283959874417633,236.60142528064898 20.420436919899657,235.67825772045762 24.393435353646055,234.7899221154221 27.062319797696546,234.61573813950235 26.971335100766737,217.77133590234735 27.866017954191193,216.62160766593297 29.716040125640575,214.98410300788237 29.382429570076056,214.14792455772113 27.122976262355223,211.5" stroke="#4dd2ff" stroke-linecap="round" stroke-linejoin="round" stroke-width="0.5"><title>2021-03-18 2.7km</title></polyline><polyline fill="none" points="50.65707811439643,236.27201083266118 51.412988984549884,236.40306984627387 51.52708873845404,237.04198105671094 51.812338123389054,237.20580404812063 53.35268480202649,237.51706728668069 55.34943049651338,237.33686232486798 56.73289001343073,237.73003653480555 58.016512245638296,238.5 58.34454903821461,237.46792049828218 58.1591369381058,233.0937980911549 59.342921885545366,232.97911917501187 57.64568804518785,232.50401996453002 56.00550408184063,232.42210617019737 55.27811815030873,231.6357316889771 53.83760875638109,216.74306192847143 55.406480373523664,214.90800908749225 56.51895297470037,214.2690127123351 55.72025469696382,212.84355039751972 54.35105764924083,211.5" stroke="#4dd2ff" stroke-linecap="round" stroke-linejoin="round" stroke-width="0.5"><title>2021-03-17 2.8km</title></polyline><polyline fill="none" points="72.40957446815446,223.5428993329988 72.74468085099943,223.5428993329988 74.42021276592277,224.25771734368755 74.89893617015332,224.86256263690302 79.87765957438387,226.23720859031891 85.14361702115275,226.95202314679045 86.9148936169222,226.8420517363702 88.15957446815446,227.11698022211203 88.78191489353776,227.33692291303305 91.27127659553662,227.72182241349947 93.32978723407723,228.5466061629122 94.0,228.7115627663443 95.14893617038615,229.31640322814928 96.10638297884725,229.9212430336629 96.48936170223169,230.03121383691905 96.92021276592277,230.2511553784134 97.97340425522998,230.5260821832344 98.5,230.4710968331783 98.45212765969336,230.4710968331783 98.45212765969336,230.4710968331783 98.30851063854061,230.5260821832344 98.40425531915389,230.4710968331783 98.45212765969336,230.4710968331783 98.5,230.5260821832344 98.21276595722884,230.4710968331783 97.59042553184554,230.4710968331783 95.48404255299829,230.5260821832344 94.04787234053947,230.08619923051447 92.65957446815446,229.81127220881172 91.27127659553662,229.70130136219086 89.88297872338444,229.75628678809153 89.16489361715503,229.81127220881172 87.77659574477002,229.9212430336629 87.15425531892106,229.9212430336629 85.0,229.75628678809153 84.32978723407723,229.59133049368393 83.0372340423055,229.26141775865108 82.36702127661556,228.93150482838973 81.07446808507666,228.4916206173948 80.40425531915389,228.27167838194873 77.67553191492334,227.72182241349947 75.90425531915389,227.00700884399703 75.76063829776831,226.6770945797325 76.33510638284497,226.5671231148881 76.57446808507666,226.5671231148881 76.76595744676888,226.34718012035592 76.57446808507666,226.29219435801497 76.09574468061328,226.18222281726776 75.85638297861442,226.1272370388615 75.71276595746167,226.0722512549255 75.42553191492334,226.0722512549255 75.23404255323112,225.96227967075538 74.99468085099943,225.96227967075538 74.75531914876774,225.96227967075538 74.42021276592277,225.8523080649902 74.18085106369108,225.7423364375718 74.03723404253833,225.6873506156844 73.55851063830778,225.4124214250478 73.4148936169222,225.30244971072534 73.17553191492334,225.1374920986127 73.03191489353776,225.02752033027355 72.88829787238501,224.86256263690302 72.69680851045996,224.64261896983953 72.36170212761499,224.3676892640069 72.07446808507666,224.20273137534969 71.93085106369108,224.09275942249224 71.69148936169222,223.81782944552833 71.59574468061328,223.32295514538419 71.59574468061328,222.88306650985032 71.54787234053947,222.6081359362579 71.5,222.38819137983955 71.64361702115275,221.94830200687284 71.59574468061328,221.34345355216647 71.59574468061328,221.06852221954614 71.54787234053947,220.90356335480465 71.64361702115275,220.73860444140155 71.59574468061328,220.68361812614603 71.64361702115275,220.29871376691153 71.69148936169222,220.02378191897878 71.93085106369108,219.96879553317558 72.40957446815446,219.80383634311147 72.64893617015332,219.69386352261063 72.79255319130607,219.63887710432755 73.07978723407723,219.52890425140504 73.12765957438387,219.52890425140504 73.12765957438387,219.4739178167074 73.17553191492334,219.4739178167074" stroke="#4dd2ff" stroke-linecap="round" stroke-linejoin="round" stroke-width="0.5"><title>2021-03-02 1.4km</title></polyline><polyline fill="none" points="106.46046511642635,225.39670685463352 106.77441860502586,225.54094889492262 110.22790697682649,226.1900377253187 112.42558139562607,226.98336773522897 113.2418604651466,227.3439720008755 115.43953488394618,227.92093845579075 116.25581395346671,227.92093845579075 118.57906976761296,227.77669688494643 119.33255813969299,227.56033447483787 121.65581395360641,227.41609283257276 123.10000000009313,227.92093845579075 123.85348837217316,228.20942151272902 125.17209302354604,228.71426658827113 126.42790697677992,228.93062865681713 127.99767441884615,228.78638728504302 128.24883720930666,228.64214588463074 128.5,228.78638728504302 128.4372093025595,229.79607629112434 127.30697674443945,230.08455860830145 126.36511627910659,230.8778843934997 125.9255813951604,231.02212535316357 125.48604651167989,231.16636628413107 125.23488372098655,231.16636628413107 124.85813953494653,231.2384867388173 124.60697674448602,231.38272762706038 123.72790697682649,231.74332972348202 123.85348837217316,232.10393164196284 124.29302325588651,232.39241304877214 124.29302325588651,232.4645333828521 124.29302325588651,232.53665370953968 124.35581395355985,232.4645333828521 124.04186046519317,232.39241304877214 123.66511627915315,232.53665370953968 123.53953488403931,232.60877402912593 123.41395348822698,232.68089434184367 123.35116279078647,232.75301464722725 123.35116279078647,232.75301464722725 123.10000000009313,232.39241304877214 122.97441860474646,232.24817235959927 122.78604651149362,232.03181127260905 122.72325581405312,231.8875705123064 122.09534883755259,231.74332972348202 121.84418604662642,231.74332972348202 121.53023255825974,231.74332972348202 121.21627907012589,231.67120931850513 120.83953488408588,231.67120931850513 120.52558139548637,231.67120931850513 119.89767441875301,231.52696848718915 119.5837209301535,231.45484806067543 119.26976744225249,231.38272762706038 118.95581395342015,231.3106071865186 118.32790697691962,231.16636628413107 118.07674418599345,231.02212535316357 117.7627906978596,230.9500048768823 117.44883720949292,230.80576390313217 117.13488372089341,230.6615229010349 116.8837209304329,230.44516134465812 116.31860465137288,230.15667916968232 115.75348837208003,229.86819688096875 115.31395348883234,229.43547323450912 115.0,229.2912319623283 114.68604651163332,229.14699066145113 114.37209302349947,229.0027493322268 114.05813953466713,228.85850797448074 113.86976744211279,228.78638728504302 113.3674418607261,228.57002517359797 113.11627907003276,228.4979044556967 112.86511627910659,228.42578373057768 112.61395348841324,228.28154225915205 112.3000000002794,228.20942151272902 111.98604651167989,228.13730075926287 111.2953488372732,228.06517999846255 111.04418604681268,227.99305923079373 110.73023255821317,227.92093845579075 110.35348837217316,227.92093845579075 110.10232558147982,227.84881767391926 109.47441860474646,227.77669688494643 109.16046511637978,227.63245528534753 108.59534883731976,227.19973031594418 107.9674418605864,226.98336773522897 107.71627906989306,226.9112468608073 107.40232558175921,226.8391259793425 107.02558139548637,226.76700509065995 106.77441860502586,226.69488419493428 106.46046511642635,226.55064238182968 105.89534883736633,226.2621586708119 105.58139534899965,226.1179167724913 105.33023255807348,225.97367484582355 104.70232558157295,225.6130699045607 104.51395348855294,225.46882787835784 104.26279069762677,225.32458582380787 103.69767441879958,224.96398056240287 103.44651162810624,224.7476173203322 103.13255813973956,224.3148906439892 102.69302325602621,223.81004253140418 101.93953488371335,223.23307283304166 101.93953488371335,223.01670907909283 101.81395348859951,222.65610267966986 101.68837209348567,222.36761743220268 101.5,221.43003959202906 101.68837209348567,221.06943241041154 101.75116279069334,220.7088250509696 101.81395348859951,220.42033903533593 101.87674418650568,220.20397444895934 101.87674418650568,219.84336666268064 101.87674418650568,218.9057855863357 101.87674418650568,218.25669029093115 102.56744186067954,217.96820330794435 103.06976744206622,217.67971621121978 103.5093023260124,217.53547262010397 103.82325581437908,217.46335081395227 103.94883720949292,217.31910718022846 104.82790697691962,217.24698535277275" stroke="#4dd2ff" stroke-linecap="round" stroke-linejoin="round" stroke-width="0.5"><title>2020-12-25 1.0km</title></polyline><polyline fill="none" points="131.90601503755897,221.8813230539672 132.2105263157282,222.17278965492733 132.46428571431898,222.46425611217273 133.02255639084615,222.814015671378 135.20488721807487,223.3969478099607 136.37218045117334,223.7467068171827 137.13345864671282,223.92158624331933 140.68609022558667,225.32061978871934 141.7011278194841,226.02013531984994 142.86842105258256,226.54477142472751 144.59398496244103,227.18599269870901 145.25375939835794,227.30257831001654 146.47180451150052,227.30257831001654 147.1823308269959,227.30257831001654 148.4003759396728,227.06940706435125 149.51691729342565,226.95282140676863 150.78571428591385,227.01111423841212 151.49624060164206,226.95282140676863 153.47556390985847,227.30257831001654 154.13533834577538,227.53574946388835 155.4041353382636,227.76892052585026 156.11466165445745,227.7106277688872 157.38345864671282,227.65233500633622 157.94172932347283,227.59404223808087 158.5,227.82721327705076 158.4492481201887,227.88550602231408 158.29699248145334,227.94379876181483 158.24624060164206,228.00209149578586 158.24624060164206,228.0603842238197 158.19548872183077,228.00209149578586 158.09398496244103,228.118676946091 158.09398496244103,228.00209149578586 158.14473684248514,228.0603842238197 158.19548872183077,228.118676946091 158.14473684248514,228.0603842238197 158.24624060164206,227.94379876181483 158.19548872183077,227.94379876181483 158.14473684248514,227.94379876181483 158.14473684248514,228.00209149578586 158.14473684248514,227.94379876181483 158.14473684248514,227.94379876181483 158.14473684248514,227.94379876181483 158.14473684248514,228.00209149578586 158.09398496244103,228.00209149578586 158.09398496244103,228.00209149578586 158.04323308262974,228.00209149578586 157.99248120328411,228.00209149578586 158.09398496244103,228.00209149578586 158.09398496244103,228.00209149578586 158.09398496244103,228.00209149578586 158.04323308262974,228.00209149578586 158.04323308262974,228.0603842238197 157.94172932347283,228.00209149578586 156.77443609037437,228.00209149578586 155.45488721807487,228.00209149578586 154.13533834577538,227.7106277688872 153.52631578966975,227.53574946388835 152.25751879694872,227.18599269870901 151.5977443610318,227.06940706435125 150.22744360892102,227.06940706435125 149.5676691730041,227.01111423841212 148.19736842112616,227.127699884295 146.77631578943692,227.30257831001654 146.11654135352,227.30257831001654 144.74624060164206,227.24428550724406 144.03571428568102,227.06940706435125 140.83834586455487,226.02013531984994 140.17857142863795,225.78696356801083 138.3007518798113,225.32061978871934 137.79323308262974,225.26232679048553 135.76315789483488,224.91256868001074 134.59586466150358,224.38793112634448 133.93609022558667,224.0381724986364 132.66729323309846,223.3386546219699 131.5,222.93060214509023" stroke="#4dd2ff" stroke-linecap="round" stroke-linejoin="round" stroke-width="0.5"><title>2020-12-08 1.1km</title></polyline><polyline fill="none" points="161.5,222.21688039737637 161.75961538474075,222.26657923389575 163.49038461549208,223.6084459623671 164.05288461549208,223.80724072939483 166.25961538474075,224.45332318075816 167.2980769232381,224.75151480198838 167.8173076924868,224.95030911802314 169.02884615398943,225.39759604274877 170.1105769232381,225.94427952257684 170.6730769232381,226.29216870098026 173.44230769225396,227.2364381174557 174.04807692347094,227.2861364587152 175.77884615398943,227.0873430640495 176.2980769232381,227.0376447030285 179.02403846173547,227.0873430640495 179.58653846150264,227.13704142006463 181.27403846173547,227.63402471094741 183.0048076924868,227.78311960259452 183.52403846173547,227.73342131017125 184.6490384619683,227.78311960259452 186.37980769225396,227.53462809184566 186.89903846173547,227.48492977506248 187.98076923098415,227.38553312668228 188.5,227.33583479523077 188.2836538462434,226.93824796649278 187.07211538474075,226.88854959077435 186.55288461549208,226.93824796649278 185.47115384647623,227.2364381174557 185.0817307694815,227.33583479523077 183.9567307694815,227.5843264038558 183.4375,227.63402471094741 182.35576923098415,227.63402471094741 181.79326923098415,227.53462809184566 180.71153846150264,227.33583479523077 180.19230769271962,227.18673977113212 178.5048076924868,226.88854959077435 177.9423076924868,226.88854959077435 176.8173076924868,226.93824796649278 176.21153846150264,226.93824796649278 175.08653846173547,227.0376447030285 173.96153846173547,227.0873430640495 172.8798076924868,227.0376447030285 171.84134615398943,226.78915282484377 171.32211538474075,226.64005763921887 170.19711538497359,226.29216870098026 169.67788461549208,226.09337491414044 168.63942307699472,225.74548559851246 167.25480769225396,225.34789751510834 166.86538461549208,225.29819898269488 165.82692307699472,225.04970624673297 164.39903846173547,224.6024190133612 164.00961538474075,224.3042273040046 163.10096153849736,223.80724072939483 162.62500000023283,223.55874725829926" stroke="#4dd2ff" stroke-linecap="round" stroke-linejoin="round" stroke-width="0.5"><title>2020-12-03 1.3km</title></polyline><polyline fill="none" points="38.214788732351735,255.7097914389451 38.452464788686484,256.5833735263441 38.5,256.85636764595984 37.69190140860155,257.3477567220689 36.313380281673744,257.29315795737784 34.41197183099575,256.96556525613414 32.605633802711964,256.2011815327569 31.98767605633475,256.09198377176654 28.470070422627032,254.72700994316256 27.186619718326256,254.50861381803406 25.23767605633475,254.56321285746526 23.906690140720457,254.50861381803406 22.955985915614292,254.50861381803406 22.385563380317762,254.50861381803406 21.102112676016986,254.3994157234556 20.674295774661005,254.3448166680755 19.200704225338995,254.23561854078434 18.630281690042466,254.18101946933893 16.633802816970274,254.0172222222318 16.01584507036023,253.90802403050475 14.779929577605799,253.79882581724087 13.163732394576073,253.08903690631269 12.545774647966027,252.870640135312 11.5,252.65224327798933 12.688380281673744,252.92523933615303 13.734154929639772,253.41663190134568 14.779929577605799,253.90802403050475 15.397887323983014,253.9626231289585 16.966549295932055,254.12642039224738 17.44190140836872,254.18101946933893 18.677816901588812,254.29021760710748 19.295774647733197,254.3448166680755 20.579225352266803,254.3448166680755 21.149647887563333,254.3994157234556 22.43309859163128,254.50861381803406 23.003521126694977,254.50861381803406 24.76232394366525,254.56321285746526 25.33274647896178,254.56321285746526 26.188380281673744,254.4540147734224 26.47359154932201,254.4540147734224 26.663732394343242,254.4540147734224 26.853873239364475,254.4540147734224 27.044014084385708,254.4540147734224 27.281690140953287,254.3994157234556 27.519366197055206,254.3994157234556 27.994718309724703,254.4540147734224 28.184859154978767,254.4540147734224 28.61267605656758,254.61781189130852 29.04049295769073,254.83620797318872 28.992957746610045,254.94540598179447 28.992957746610045,255.00000497797737 28.9454225350637,255.00000497797737" stroke="#4dd2ff" stroke-linecap="round" stroke-linejoin="round" stroke-width="0.5"><title>2020-11-30 1.0km</title></polyline></svg>