<?xml version="1.0" encoding="utf-8" ?>
<svg baseProfile="full" height="300mm" version="1.1" viewBox="0,0,200,300" width="200mm" xmlns="http://www.w3.org/2000/svg" xmlns:ev="http://www.w3.org/2001/xml-events" xmlns:xlink="http://www.w3.org/1999/xlink"><defs /><rect fill="#222222" height="300" width="200" x="0" y="0" /><text fill="#FFFFFF" style="font-size:12px; font-family:Arial; font-weight:bold;" x="10" y="20">Over 3km Runs</text><text fill="#FFFFFF" style="font-size:4px; font-family:Arial" x="10" y="280">ATHLETE</text><text fill="#FFFFFF" style="font-size:9px; font-family:Arial" x="10" y="290">jdzj</text><text fill="#FFFFFF" style="font-size:4px; font-family:Arial" x="120" y="280">STATISTICS</text><text fill="#FFFFFF" style="font-size:3px; font-family:Arial" x="120" y="285">Number: 73</text><text fill="#FFFFFF" style="font-size:3px; font-family:Arial" x="120" y="290">Weekly: 2.8</text><text fill="#FFFFFF" style="font-size:3px; font-family:Arial" x="141" y="285">Total: 162.7 km</text><text fill="#FFFFFF" style="font-size:3px; font-family:Arial" x="141" y="290">Avg: 2.2 km</text><text fill="#FFFFFF" style="font-size:3px; font-family:Arial" x="167" y="285">Min: 1.0 km</text><text fill="#FFFFFF" style="font-size:3px; font-family:Arial" x="167" y="290">Max: 13.2 km</text><polyline fill="none" points="30.915721649536863,41.969378089590464 30.164175258018076,42.44895969846402 19.642525773262605,39.09187850271701 11.125,39.475546098226914 13.922422680538148,40.43471376239904 20.1853092785459,40.8663385938853 28.786340206395835,43.40812149728299 31.375,43.1683312249952 30.28943298989907,39.66737978233141 31.124484536238015,39.379629227740224" stroke="#4dd2ff" stroke-linecap="round" stroke-linejoin="round" stroke-width="0.5"><title>2021-09-22 1.1km</title></polyline><polyline fill="none" points="49.98777789471205,50.64211715833517 51.45271058205981,49.393497448734706 49.86963816196658,47.35769228829304 49.30256744415965,44.75183969331556 48.168426008778624,42.68885554460576 42.99390570982359,38.399970547965495 36.47259245614987,33.73098172276514 36.25994093704503,33.51381752247107 36.63798808213323,32.943760680704145 35.43296280701179,31.125 36.68524397537112,33.106634184659924 36.803383708233014,34.02958221815061 44.0571633054642,38.97001607902348 46.13642260362394,41.27733115790761 48.05028627591673,42.525987715867814 49.30256744415965,44.26323958294233 50.082289680955,47.60198970322381 52.043409246369265,50.04495191742899 52.06703719298821,50.88641165586887 50.885639864369296,51.375 50.27131325355731,50.96784310680232" stroke="#4dd2ff" stroke-linecap="round" stroke-linejoin="round" stroke-width="0.5"><title>2021-09-12 2.3km</title></polyline><polyline fill="none" points="75.9099686848931,44.18559424488922 75.36038622143678,39.430497878056485 71.09055323596112,34.14161238653469 69.78001043852419,33.85047942926758 66.94754697312601,35.79136256733909 56.125,48.64952057073242 57.81602296466008,45.73826885074959 61.28262004186399,43.360733873792924 61.83220250532031,41.565444771171315 66.14431106485426,36.47066986237769 67.79305845522322,34.82092195242876 70.07593945716508,33.89900160068646 71.93606471829116,35.209098427469144 74.64170146174729,35.306142498360714 72.40109603339806,35.88840652385261 75.61403966601938,39.867192312085535 76.375,45.398621698026545" stroke="#4dd2ff" stroke-linecap="round" stroke-linejoin="round" stroke-width="0.5"><title>2021-08-22 1.7km</title></polyline><polyline fill="none" points="85.75666397425812,45.90598794899415 85.39680937002413,46.39410373289138 81.4711227788357,41.13743939518463 82.09268982242793,38.88456110015977 85.59309369965922,33.28985584908514 88.4392164782621,35.467670320911566 94.0660339257447,42.30142130696913 98.875,47.10750260268105 78.625,42.63935087493155 80.9804119549226,41.28763080891804 81.99454765755218,41.55046564084478 85.36409531498794,45.75579835145618 85.82209208409768,49.21014415094396" stroke="#4dd2ff" stroke-linecap="round" stroke-linejoin="round" stroke-width="0.5"><title>2021-08-15 2.0km</title></polyline><polyline fill="none" points="101.125,36.567080754524795 102.82521528529469,36.49195228748431 103.8061087190872,36.81750881749031 113.04830462869722,43.60401519702282 113.61504305712879,44.455445984902326 115.59862755658105,46.00804771253024 119.41321313253138,43.854436313558836 120.89545209915377,43.97964677918935 121.35320236813277,43.35359383322066 121.375,41.70080663301633 121.13522604957689,41.65072200431314" stroke="#4dd2ff" stroke-linecap="round" stroke-linejoin="round" stroke-width="0.5"><title>2021-08-15 1.2km</title></polyline><polyline fill="none" points="138.61179876953247,50.851586711356504 138.64775502032717,51.047867244589725 138.51933983888011,51.184668438058 138.57070591149386,51.261990709946986 138.6939844856388,51.23225138671478 138.8429460961197,51.35120858869777 138.93026841949904,51.29767787781748 139.1716889606614,51.375 139.43879253804334,51.345260734357 139.44906575256027,51.083554543351056 139.69048629366443,51.14898120109501 139.80349165332154,51.03002358701269 140.01409255090402,51.05976301326882 140.06032201624475,50.91701362909589 140.01409255090402,50.185417556123866 139.81376486783847,50.203261471866426 139.55693450494437,49.882070153737004 139.6442568283528,49.8106940652433 139.62884700656286,49.412175967103394 139.39769967997563,49.180201492905326 139.1716889606614,48.52590954707193 138.8429460961197,46.36669408361922 138.50393001711927,45.533917461914825 138.28819251229288,45.49227831887765 138.06218179292046,45.23054588232844 138.0416353639157,45.0282972864552 137.8567175026401,44.96286376712669 137.57420410343911,44.58810674302367 137.2403246316826,44.36801022608415 136.56229247365263,43.63633205428778 136.23868621641304,43.56494832679891 135.7918013849703,42.92843956260549 135.54010762934922,42.45848938384006 135.427102269663,42.125357850691216 135.4579219132138,41.96474018191293 135.24732101563131,41.80412207097834 135.1291790487012,41.43529362432673 134.70284064632142,40.995075974602514 134.5898352866352,40.67383397178128 134.54360582135268,40.65003819749472 134.52819599953364,40.79876162749133 134.35868796004797,40.42992682535987 134.1840433132602,40.29310041871213 134.12240402615862,40.01349763338294 133.79879776894813,39.76958772634316 133.819344197982,39.62086167277084 133.47005490443553,39.23417215913287 133.54710401329794,39.02000455637972 133.76284151812433,38.82963269387619 133.74229508909048,38.72254824821357 133.17726829074672,38.87127659187536 132.08317094482481,38.17522467837989 131.52328075372498,37.663591480213654 129.3196762400912,34.18912640025155 127.66055209582555,32.36851924995426 127.69137173937634,32.14242681311225 127.43967798375525,31.696189168156707 127.52186369986157,31.125" stroke="#4dd2ff" stroke-linecap="round" stroke-linejoin="round" stroke-width="0.5"><title>2021-07-21 5.3km</title></polyline><polyline fill="none" points="157.21372721204534,42.36473419616232 158.819939232897,43.01496253174264 161.38987846579403,40.78560631669825 159.46242404077202,42.36473419616232 158.01683322247118,40.69271635648329 157.53496961621568,42.82918305421481 155.84844699455425,41.25005597562995 156.08937879791483,43.47941105969949 149.1826671087183,44.96564476756612 152.15415934706107,48.86699677311117 150.4676367258653,47.752326467540115 151.5116745387204,47.380769397714175 150.3873261245899,48.959885904158 149.34328831126913,47.93810494610807 149.1023565083742,51.375 150.06608372041956,46.82343350991141 148.1386292958632,49.517220491718035 152.23446994833648,46.916322847944684 150.1463943212293,49.42433141719084 153.03757595829666,49.05277502548415 153.51943956455216,41.80739525560057 155.20596218621358,41.62161553342594 152.31478054914623,40.87849626719253 151.4313639383763,42.643403539434075 153.27850776165724,48.402550977421924 155.04534098459408,47.6594372143154 154.08161377208307,48.030994171393104 154.8847197825089,45.61587125598453 160.34584065247327,44.12963860388845 158.01683322247118,46.35898667742731 160.5867724553682,45.98742904228857 160.26553005119786,43.01496253174264 158.98056043498218,42.92207279766444 163.4779540929012,45.24431331909727 164.3613707041368,40.87849626719253 163.15671168873087,37.627342388092075 162.0323632741347,38.463354487787 158.17745442455634,37.348671518382616 156.81217420706525,38.64913485117722 160.18521944992244,35.95531589805614 157.69559081830084,37.99890341568971 155.68782579246908,37.99890341568971 159.94428764702752,36.69843915948877 153.59975016582757,37.348671518382616 157.29403781332076,38.556244674138725 159.2214922378771,36.88421988062328 157.1334166112356,38.463354487787 158.98056043498218,38.0917936488986 155.3665833887644,39.299365824845154 159.14118163706735,38.0917936488986 157.37434841366485,38.37046429235488 159.94428764702752,36.69843915948877 157.21372721204534,38.37046429235488 160.66708305617794,35.76953498867806 155.68782579246908,37.99890341568971 157.05310600996017,38.37046429235488 160.42615125374869,36.04820633889176 156.6515530049801,38.742025018436834 154.24223497370258,38.277574087376706 160.26553005119786,36.233987191924825 156.57124240370467,38.742025018436834 161.22925726370886,36.233987191924825 155.68782579246908,38.18468387279427 158.819939232897,36.88421988062328 159.30180283868685,37.81312292057555 157.21372721204534,38.463354487787 158.98056043498218,38.277574087376706 160.8277042582631,37.53445210750215 155.44689398957416,38.0917936488986 157.29403781332076,36.977110226871446 158.17745442455634,38.18468387279427 157.21372721204534,38.463354487787 158.65931803081185,37.53445210750215 156.57124240370467,38.742025018436834 161.0686360616237,37.44156181777362 156.97279540868476,38.463354487787 158.98056043498218,36.88421988062328 157.37434841366485,38.277574087376706 158.3380756266415,38.277574087376706 154.8847197825089,38.277574087376706 158.57900742953643,38.18468387279427 159.54273464204744,37.162890891428106 158.41838622745126,36.88421988062328 156.00906819663942,38.18468387279427 157.69559081830084,37.07000056398101 157.29403781332076,37.99890341568971 159.7033558441326,38.37046429235488 154.322545574978,38.18468387279427 159.62304524332285,37.44156181777362 156.41062120208517,37.81312292057555 159.14118163706735,38.0917936488986 157.69559081830084,37.906013172876555 158.57900742953643,38.0917936488986 155.84844699455425,39.20647571387235 156.00906819663942,40.22826641483698 151.4313639383763,39.57803610077826 154.72409857995808,31.125 153.51943956455216,33.725942496035714 152.23446994833648,33.44727043900639 149.6645307149738,35.86242544814013 151.9132275437005,37.07000056398101 152.63602295331657,39.20647571387235 156.89248480834067,37.53445210750215 156.57124240370467,40.50693640834652 157.1334166112356,38.742025018436834" stroke="#4dd2ff" stroke-linecap="round" stroke-linejoin="round" stroke-width="0.5"><title>2021-07-17 3.7km</title></polyline><polyline fill="none" points="168.625,36.86442194136907 171.6371502209222,36.48752550914651 172.02485272462945,33.09543920130818 171.9652061855886,36.83015864621848 172.8300810015062,37.995108782401076 175.90187776146922,40.59910083102295 180.5543078056071,43.305861331755295 188.0995949927019,49.40456079869182 188.875,49.06194007390877 188.8451767305378,48.06833805973292 187.86100883653853,47.21178231635713 186.45931516948622,48.03407587055699 185.59444035345223,47.554404867376434 182.76122974965256,44.881940000952454 180.43501472775824,43.61422511268756 172.14414580271114,37.3783709621639 169.34075846837368,37.446897440677276 168.83376288658474,36.62457880450529" stroke="#4dd2ff" stroke-linecap="round" stroke-linejoin="round" stroke-width="0.5"><title>2021-07-14 1.9km</title></polyline><polyline fill="none" points="30.600855130935088,68.52894782595104 30.15266599599272,69.83936270102276 28.482142857275903,70.86897184984991 18.907193158986047,67.639735670964 12.591800804948434,67.54613429468009 11.369466800708324,66.70372107601725 11.125,60.43237565935124 11.939889336004853,59.96436148346402 21.392605633940548,60.80678666752647 27.993209255626425,60.19836862909142 29.46001006034203,60.85358802275732 28.97107645869255,67.4525328996533 31.252766599645838,69.83936270102276 30.560110663995147,69.74576175861876 31.375,69.88616316526895" stroke="#4dd2ff" stroke-linecap="round" stroke-linejoin="round" stroke-width="0.5"><title>2021-06-29 1.4km</title></polyline><polyline fill="none" points="48.06423933210317,69.50991929872544 48.89076994435163,68.2870099642605 49.27898886828916,68.12875035937759 49.454313543625176,68.33017164483317 50.21822820045054,67.95610332174692 50.155612244911026,67.82661790930433 50.28084415587364,67.89855426375289 50.29336734692333,66.48859524491127 50.65653988876147,65.19372290639149 53.18622448982205,62.94925026707642 53.22379406308755,61.63995859786519 53.49930426722858,61.13638174688094 53.79986085352721,61.56801915424876 53.59948979597539,64.8052589615545 53.875,65.3807607327908 53.24884044530336,65.86993545164296 52.722866419295315,65.53902332151483 52.74791280151112,65.74044818583934 51.93390538037056,65.74044818583934 51.0948515770142,66.58930705572129 51.0823283859645,66.83389259225805 50.268320964765735,67.25112579557754 50.23075139144203,67.92732879558753 49.66720779222669,68.31578441940655 49.128710575110745,68.27262273457018 48.552643784787506,68.54597985610599 48.11433209653478,69.43798373953905 47.77620593691245,69.58185482237604 47.36294063081732,68.60352865848108 44.73307050089352,68.58914146003372 43.518320964765735,68.80494928784901 41.96544526901562,69.69695158646209 35.15282931353431,64.43118159161531 34.07583487936063,64.41679398130509 33.787801484169904,64.22975491781835 33.90051020402461,64.1434291152691 34.36386827455135,64.30169304758601 33.625,63.884451400794205 33.637523191049695,64.11465383639734 34.32629870128585,64.31608066924673 33.97564935061382,64.43118159161531 34.13845083484193,64.64699557609856" stroke="#4dd2ff" stroke-linecap="round" stroke-linejoin="round" stroke-width="0.5"><title>2021-06-26 3.3km</title></polyline><polyline fill="none" points="56.125,70.18412800384613 57.10970303248905,70.61402504529906 57.32771846403193,70.79766905197539 57.53483312399476,71.09400201840253 57.3822223219031,71.1899967597019 57.15330611879472,71.5405843996341 56.895321191463154,71.97464126293562 56.84808451462595,72.17080011548751 56.95345863988041,72.2709659873799 57.7855508702778,72.37113162217793 57.82915395658347,72.58398280893744 57.763749327117694,73.31434638907012 57.85458909026056,72.50885898289926 57.60387134397752,71.67831446348646 57.70561187871499,71.4738060254931 57.94906244393496,71.386159249505 58.28698636281479,71.42372217571756 59.83489592678961,71.78682874352307 59.92573568993248,71.82439131409774 59.88576619415835,72.14158502485952 60.26002601830987,72.17080011548751 60.4199040014355,71.75761338781376 60.77962946348998,70.10899991718543 60.89227076979296,69.97961234413378 61.735263771770406,70.20499689313874 62.015050242232974,70.23838709459233 62.13859232010145,70.17160666534255 62.35297416112735,70.22586577214315 62.738134756858926,70.01717651899162 64.62033464921115,68.7274540972503 64.75841108919121,68.83597594534149 64.60580028709956,69.29927762744774 64.54766283869685,70.0046551310952 64.72207518391951,70.36360011535726 64.84925085230498,70.44290150353481 67.79245917817752,70.42620648679804 68.2502915844234,70.50133401023777 68.85346761169785,70.48463901655487 70.60122465457243,70.35107882995726 71.07359142294445,70.19664933866079 71.65133231651271,69.67075008629035 72.03649291225884,69.14067041551607 72.33808092589607,68.41858269825389 72.49069172797317,67.41682210332146 72.3671496501047,66.92428111183835 71.44785124709597,65.81395580701064 70.99365243136708,64.93318831297074 70.964583707173,65.02084845889112 71.08812578504148,65.40070699178614 71.04452269870671,65.40070699178614 71.1208280997671,65.41322974246941 71.4769199713046,65.96005290701214 71.50962228601566,65.99344645901147 71.52779023865878,65.943356121119 71.2516373587132,65.53010857013578 70.54308720615518,64.03153055258008 70.57942311141232,63.51807796024514 73.34095191099914,61.35983913431119 73.8968912614364,60.84217940076269 75.14321281175944,60.08655179948619 75.61921317063388,59.73586920874732 75.6519154853886,59.627324007848074 75.13594563072547,59.034495300973504 75.52837340750557,58.733902921390836 76.12064866319997,58.07843712655449 76.1606181589741,57.87803791230908 76.37136640946846,57.740262901435926 76.375,57.65676267630624 76.09157993899134,57.518986944262 76.13518302529701,57.594137399224564 76.18241970213421,57.5565621884416 76.18968688319728,57.65258766073384 76.12428225371696,57.60666246206165" stroke="#4dd2ff" stroke-linecap="round" stroke-linejoin="round" stroke-width="0.5"><title>2021-06-21 11.9km</title></polyline><polyline fill="none" points="81.79145649436396,56.82100079592783 81.71484867599793,56.32226034638006 81.94467213121243,56.468948800786166 81.74038461537566,56.79166314555914 83.11932534677908,58.25854211411206 86.36238965962548,60.3121605066699 93.00173392193392,65.85685928713065 94.5338902900694,66.41425714618526 96.5256935688667,68.87852989125531 97.36837957124226,72.63357288262341 98.875,74.56974838886526 97.57266708696261,72.86826149452827 96.57676544773858,68.90786634845426 94.7126418662956,66.50226723897504 90.29492433788255,62.92316911517992 89.01812736445572,62.48311309173005 86.97525220678654,60.605533404275775 85.9793505675625,60.370835109293694 83.14486128638964,57.759804077184526 82.17449558642693,57.40775319421664 81.53609709965531,56.41027342772577 79.41661412362009,56.64497485049651 78.625,56.26358494444867" stroke="#4dd2ff" stroke-linecap="round" stroke-linejoin="round" stroke-width="0.5"><title>2021-06-16 2.1km</title></polyline><polyline fill="none" points="102.74731759657152,64.13556648453232 102.51555793988518,64.36849555213121 103.70332618022803,64.9674552732904 109.67113733896986,67.39655879730708 113.11856223177165,67.23018240154488 116.56598712445702,67.69603610297781 121.375,67.06380592362257 119.46298283257056,66.66450204211287 119.81062231748365,66.19864691630937 117.23229613737203,66.63122669735458 114.30633047199808,65.6662402706861 112.16255364799872,66.03226992985583 110.33744635188486,65.26693473514752 106.83208154514432,65.46658756202669 102.8052575107431,64.46832224616082 101.125,63.13729723036522" stroke="#4dd2ff" stroke-linecap="round" stroke-linejoin="round" stroke-width="0.5"><title>2021-06-16 1.4km</title></polyline><polyline fill="none" points="142.86737560201436,65.84602676867507 142.2172953451518,66.21937692794017 135.52146869990975,63.64325333427405 131.06841894064564,64.16594649560284 128.50060192612,63.86726477756747 128.04554574633949,64.38995762955165 123.625,63.120559451170266 128.8906500802841,64.61396863084519 135.0014044943964,65.17399555438897 143.875,67.71277388217277" stroke="#4dd2ff" stroke-linecap="round" stroke-linejoin="round" stroke-width="0.5"><title>2021-06-15 1.2km</title></polyline><polyline fill="none" points="159.10479323309846,69.87692378717475 157.50610902253538,70.83892408583779 154.99389097746462,70.53283330827253 147.60949248145334,58.988683895469876 146.125,59.819522875070106 147.83787593990564,63.36150315156556 149.58881578966975,64.97943533840589 151.7203947370872,65.59162435482722 153.81390977441333,68.78373909418588 156.89708646619692,70.88265132260858 159.10479323309846,71.84464943784405 164.62406015046872,70.09556040205644 166.375,70.31419690910843" stroke="#4dd2ff" stroke-linecap="round" stroke-linejoin="round" stroke-width="0.5"><title>2021-06-11 1.2km</title></polyline><polyline fill="none" points="186.48052646493306,75.53876858922558 186.56140821968438,75.52717627659513 186.74844727752497,75.39096626317951 187.09724984482455,75.0171100264979 187.10230495450378,74.82293476907216 186.9329587805114,74.96494366457046 186.83438414192642,74.84032365002895 186.86724235478323,74.9446567212126 186.92790367084672,74.96784179820497 187.10230495450378,74.8142403247657 187.1048325093434,74.99102685702746 187.021423199767,75.10984999847642 186.55129800032591,75.53876858922558 186.33392828446813,75.54166666666606 185.7652284464275,73.88102178640474 185.71467734972248,72.91879049301679 185.41642587911338,72.53041116854729 184.89827713777777,72.2115885103376 184.89574958296726,71.96522319432734 184.7997024991928,71.82030146199213 184.3624355126376,71.39422745777665 184.0414360484865,71.20292692944895 183.64713749413204,70.78553966510844 183.51823219751532,70.76235131109934 183.1011856496334,70.83771339516898 183.04810699807422,70.85800315423512 183.17195718502626,70.87829289939145 183.1466816366592,70.91307528726429 182.9343670304661,70.98843698740711 182.21906901197508,71.12176875587284 181.96884108324593,71.11017471290143 182.04466772831802,71.13626130319608 182.00169929610274,71.17104338781428 182.05225039282232,71.14495682817869 182.05983305734117,71.21741943702 182.0674157218309,71.13336279429859 181.96125841872708,71.11597173495466 181.55179453534947,70.88988703322138 180.5534103752725,70.90148116252021 180.2854895626806,70.79423529317683 179.78503370520775,71.00872664310737 179.19864098333346,70.88408996687212 179.02676725450146,70.80872800094403 178.7259882290673,70.47829249954339 178.4049887649453,70.20582536245274 177.9576115590171,70.10437419156005 177.44199037253566,70.09277974988436 177.08560514071723,69.92176120720615 176.76207812174107,69.66957951844233 174.8790497691516,68.84635076603809 174.72234136934276,68.82895836216267 174.24463350539736,68.91302155280573 173.9994606863329,68.88403427266894 173.7568154221226,68.75359116054642 173.41054040963354,68.37675227186992 172.88986411347287,67.92453926784583 172.76095881685615,67.46362274488456 172.57897486868023,67.2317123440298 172.22511719170143,66.55336398210238 171.9470861597656,66.27796170184592 171.08266240597004,64.07465111317833 171.0674970769469,63.886202453866645 171.11552061882685,63.64846550852417 171.4845436248288,62.99612870406236 171.57553559892403,62.703297279374965 171.51234672803548,62.462651461853966 171.20398503808246,61.9610580988101 170.96386732869723,61.47105405090224 170.80463137403422,60.96654435388882 170.82737936756166,60.70558768296178 171.03463886409008,59.980695950935115 171.05991441245715,59.53125414710121 171.00936331572302,59.15429768580907 170.75913538700843,58.153889914410684 170.80210381920915,57.582627384552325 170.7793558256817,56.75616204244943 170.70858429028885,56.42846938276307 170.71616695479315,56.094973120727445 170.59737187752035,55.60777181330559 170.3951674906566,55.29166666666606" stroke="#4dd2ff" stroke-linecap="round" stroke-linejoin="round" stroke-width="0.5"><title>2021-06-10 13.2km</title></polyline><polyline fill="none" points="19.009827780537307,93.94483387036598 19.278648446779698,94.84538905337104 20.465939723304473,94.71673850325169 20.533144889748655,95.38572067127097 21.38441033323761,95.28280044934945 21.89964994357433,95.97751115928986 22.19087233231403,95.35999061955954 21.586025832919404,94.94830944782007 22.146068887901492,94.99976962982328 22.459692998440005,95.35999061955954 22.034060276811942,96.00324115002877 23.378163608489558,96.15762104143505 22.706111942767166,96.59503023762954 22.638906776206568,96.1061610878096 23.06453949783463,95.84886116732378 23.26615499763284,96.13189106585924 23.109342942247167,95.72021111205686 23.467770497314632,95.92605117012863 23.086941220099106,95.90032117182272 23.131744664395228,95.56583096188842 23.6917877192609,96.6464900947467 23.26615499763284,97.2640075898671 22.10126544337254,97.64995528219151 20.219520779093727,97.598495622864 18.20336578146089,99.01363255642354 17.531314115738496,98.60195714907604 17.10568139399402,99.06509193658712 17.598519282299094,99.60541481646942 18.360177836962976,99.34811834656284 17.732929615536705,99.55395554268034 18.225767503725365,99.60541481646942 18.31537439255044,99.1680106666754 18.3377761146985,99.42530731411534 17.71052789327223,99.32238868559944 18.3377761146985,99.42530731411534 17.934545115334913,99.1937403428019 18.427383003523573,99.1680106666754 16.81445900548715,99.42530731411534 17.48651067132596,99.21947001648368 17.75533133756835,99.70833333334303 17.75533133756835,99.42530731411534 17.195288282702677,99.50249625893775 17.688126171124168,99.296659022104 18.31537439255044,99.47676661316655 17.84493822627701,99.47676661316655 17.979348559631035,98.96217316601542 17.912143393070437,99.55395554268034 17.531314115738496,99.3738480049069 17.84493822627701,99.14228098795866 17.777733059832826,99.63114444946405 17.464108949061483,98.9364434669842 17.912143393070437,98.91071376547916 17.71052789327223,99.39957766080624 17.240091727115214,99.27092935610563 17.441707226913422,98.26747040243936 16.45603145030327,96.95524902502075 16.321621117182076,95.48864085250534 15.156731563038193,93.7904526698403 15.044722952065058,93.30157826529467 15.47035567369312,92.70978170799208 14.999919507652521,91.32034103723709 15.515159118105657,89.9823541388323 15.447953951428644,88.4899760420085 16.81445900548715,79.45833333334303 17.284895171644166,79.48406495331437 17.284895171644166,79.94723367827828 17.979348559631035,80.33320698750322 20.174717334564775,80.5647906990489 20.376332834362984,81.00222603755537 22.123667165637016,80.33320698750322 23.848599774646573,81.23380915520829 24.72226694028359,80.97649456741055 24.923882439965382,81.3881977860292 26.626413326826878,80.9250316193793 26.872832271037623,82.08294549415587 27.500080492463894,82.49464696663199" stroke="#4dd2ff" stroke-linecap="round" stroke-linejoin="round" stroke-width="0.5"><title>2021-06-08 2.7km</title></polyline><polyline fill="none" points="53.875,87.15501560128178 46.57442903763149,84.61275576445041 39.009584013023414,84.11947952167247 36.036500815767795,82.44992446832475 36.20167210442014,81.08391948978533 35.8713295267662,81.19775342327193 33.625,94.62992108942126 34.08747960848268,95.95793479011627 35.177610114216805,96.90651319854078 34.68209624791052,98.08274717684253" stroke="#4dd2ff" stroke-linecap="round" stroke-linejoin="round" stroke-width="0.5"><title>2021-06-08 1.1km</title></polyline><polyline fill="none" points="75.80495978554245,90.51871727581602 69.20878016075585,87.9931912839238 65.76139410189353,88.6479592192627 63.4812332438305,88.46088280467666 63.07406166207511,88.83503552313778 59.57238605886232,87.7125760394265 56.125,88.21144741310854 59.1380697049899,87.58785807297681 62.96548257372342,88.83503552313778 68.58445040206425,89.08447042267653 72.84617962455377,90.61225488802302 76.34785522788297,91.57880859368015 76.375,91.26701739858254" stroke="#4dd2ff" stroke-linecap="round" stroke-linejoin="round" stroke-width="0.5"><title>2021-06-07 1.5km</title></polyline><polyline fill="none" points="91.94902625493705,98.41770102092414 91.7939219516702,94.01172161163413 90.55308752530254,93.25513497457723 87.1795689293649,88.80459974700352 84.77545222849585,89.29416076399502 88.76938803773373,84.84358659165446 91.94902625493705,79.45833333334303 85.70607804809697,88.62657742784359 87.02446462586522,88.58207183715422 87.99386652139947,89.38317180110607 91.75514587573707,93.92271148471627 91.7939219516702,98.32869176042732 92.72454777150415,99.70833333334303 91.87147410330363,99.21878357906826" stroke="#4dd2ff" stroke-linecap="round" stroke-linejoin="round" stroke-width="0.5"><title>2021-06-04 1.3km</title></polyline><polyline fill="none" points="113.30343188130064,92.4987558346329 113.52298120193882,92.83995762298582 114.1687144979951,92.83995762298582 114.00082384096459,92.46908607731166 114.34951982088387,92.3059023074311 113.96207984327339,92.36524188060139 114.03956783871399,91.83118487914908 113.63921319524525,91.65316545718815 113.62629852932878,91.8756897017156 114.03956783871399,92.32073720295739 114.05248250468867,92.91413182239921 113.51006653602235,92.86962730714004 113.10971189243719,92.36524188060139 113.18719988799421,92.61743480536097 112.70935724896844,92.70644397191063 112.11528261663625,91.65316545718815 111.44371998880524,90.95592069198028 109.15782412094995,89.33889379336324 108.89953080250416,87.95921489357715 109.17073878680822,86.56468787250924 110.43637604702963,84.47287308999512 111.62452531169401,83.50855151034193 112.83850390819134,82.08431140273751 112.89016257179901,80.92710638075368 112.42523459874792,80.02210650296183 112.02487995522097,79.75505631769192 111.59869597986108,80.17046751198359 111.48246398661286,79.79956471486366 111.66326930944342,79.78472858390887 111.4178906569723,79.74022018244432 111.58578131394461,79.76989245154255 111.4566346546635,80.06661482102936 111.52120798430406,79.82923697234946 111.27582933183294,80.00727039398043 111.46954932063818,79.8737453474896 111.30165866366588,79.82923697234946 111.35331732733175,80.00727039398043 110.87547468830599,80.3633366048598 111.4178906569723,80.06661482102936 111.2112560022506,80.2001396962296 111.2887439977494,79.90341759029252 111.1208533407771,80.27432013119687 111.1208533407771,80.00727039398043 111.59869597986108,79.7105479073798 111.83115996635752,80.03694261041528 111.72784263902577,80.14079532187316 112.08945328480331,80.17046751198359 111.67618397535989,80.3633366048598 111.14668267266825,79.65120333980303 111.72784263902577,79.74022018244432 111.74075730494224,79.45833333332848 110.88838935422245,80.37817267869832 111.62452531169401,80.3633366048598 111.62452531169401,80.17046751198359 111.09502400894416,80.22981187461119 111.83115996635752,79.7105479073798 111.17251200444298,80.14079532187316 111.43080532288877,80.1259592246497 111.53412265022052,80.00727039398043 111.26291466591647,79.8737453474896 111.34040266141528,80.14079532187316 111.74075730494224,79.93308982724557 111.62452531169401,80.15563141764142 111.63743997755228,79.97759817166661 111.4566346546635,80.06661482102936 111.53412265022052,79.85890922386898 111.79241596860811,79.84407309882226 111.70201330725104,80.2001396962296 111.90864796191454,79.91825370951847 111.58578131394461,80.31882837461308 111.7536719708587,80.06661482102936 111.5470373161952,79.50284181832103 111.92156262788922,79.68087562649453 111.34040266141528,80.17046751198359 111.58578131394461,80.27432013119687 111.74075730494224,80.08145092414634 111.63743997755228,80.31882837461308 111.86990396416513,79.75505631769192 111.72784263902577,80.21497578616254 111.8828186300816,80.40784482195158 111.66326930944342,80.18530360485602 109.79064275103156,82.09914730672608 112.10236795071978,79.94792594350292 113.76835985440994,81.28317041313858 114.5432398096309,82.4403726944729 113.7812745203264,95.61404777714051 109.05450679356,95.73272428940982 108.09882151545025,95.98491156697855 107.95676019031089,98.10623486802797 108.44751749531133,98.46225822406996 109.49360543483635,98.22490941369324 109.95853340794565,98.729275188045 109.57109343033517,99.04079438014014 110.26848539011553,99.12979974508926 110.39763204922201,99.38198132636899 110.37180271744728,99.70833333332848 110.13933873083442,99.39681552385446 110.01019207161153,99.47098648942483" stroke="#4dd2ff" stroke-linecap="round" stroke-linejoin="round" stroke-width="0.5"><title>2021-06-02 5.9km</title></polyline><polyline fill="none" points="129.44956981495488,99.10109208727954 131.2592071031686,97.44284844399954 134.0651615500683,93.6592067918973 136.4847889355151,88.6142571970995 137.521772100823,84.76040382940846 137.50143909745384,79.45833333332848 137.9080991622759,79.83205144348904 138.11142919457052,83.8961977960571 136.68811896792613,89.244881775463 135.12247771851253,92.88845756094088 132.60118531691842,96.62540012097452 129.38857080531307,99.70833333332848" stroke="#4dd2ff" stroke-linecap="round" stroke-linejoin="round" stroke-width="0.5"><title>2021-06-01 2.2km</title></polyline><polyline fill="none" points="166.375,90.96741925308015 165.96812210197095,91.43477016562247 157.267194744898,88.66660602396587 151.28921947441995,88.84635758047807 150.7884466770338,89.31371121262782 146.90745749603957,87.94759891135618 146.125,87.98354930069763 146.15629829990212,88.37900334908045 146.87615919637028,87.7318965010345 151.22662287484854,89.5294126868248 159.11379443586338,89.7810642455006" stroke="#4dd2ff" stroke-linecap="round" stroke-linejoin="round" stroke-width="0.5"><title>2021-05-31 1.1km</title></polyline><polyline fill="none" points="179.7128022937104,98.95486038926174 180.12250539730303,95.6113098138012 180.81900067371316,96.12932622886728 183.3591599164065,95.6113098138012 184.21953643416055,94.66946034246939 184.87506140000187,91.89099354614154 186.39096288359724,92.45610675064381 185.4896160555072,92.07936468889238 185.94028946966864,91.42006536366534 185.85834884876385,92.55029221947188 185.94028946966864,91.37297251968994 185.89931915909983,93.11540464122663 184.58826922718436,91.79680794689921 188.76724088494666,94.10434976540273 184.50632860674523,92.5031994873134 185.5305863658432,92.0322719104006 184.99797233124264,90.47820760062314 184.58826922718436,92.7857558100659 185.85834884876385,91.60843669256428 185.40767543460242,90.85495092943893 186.55484412494116,92.55029221947188 187.08745815977454,92.31482851249166 185.57155667617917,93.02121928421548 184.17856612382457,92.3619212632766 186.18611133191735,92.17355023222626 184.7931207793299,91.843900748936 183.76886301999912,95.18747778231045 179.83571322471835,95.84677189050126 179.95862415595911,97.63627986781648 178.31981174112298,98.90776829072274 178.40175236179493,99.70833333334303 179.0163070175331,98.81358407941298 177.21361336112022,93.91597942393855 168.73275911505334,79.45833333334303" stroke="#4dd2ff" stroke-linecap="round" stroke-linejoin="round" stroke-width="0.5"><title>2021-05-30 1.4km</title></polyline><polyline fill="none" points="11.860335195437074,111.75214987873915 14.773393854615279,113.40890952030895 20.090432960772887,115.3905130486819 22.550977653590962,115.16311652798322 25.66201117320452,115.74785012123175 30.89420391060412,114.96820509957615 31.375,114.57838189680479 30.837639664765447,115.0006903456815 25.859986033523455,115.55293903881102 18.930865921778604,115.09814606473083 14.32087988825515,113.86370482679922 11.125,112.20694747296511" stroke="#4dd2ff" stroke-linecap="round" stroke-linejoin="round" stroke-width="0.5"><title>2021-05-27 1.4km</title></polyline><polyline fill="none" points="53.875,115.20626565456041 51.33934782608412,115.08491086564027 46.19760869559832,113.14322935871314 38.41456521768123,112.86006670427741 33.625,111.56560636562062 36.58326086960733,112.69825938538997 44.57760869548656,113.42639181768754 52.818478260654956,115.93439363440848 53.48760869563557,115.73213599185692" stroke="#4dd2ff" stroke-linecap="round" stroke-linejoin="round" stroke-width="0.5"><title>2021-05-25 1.1km</title></polyline><polyline fill="none" points="56.682571965036914,112.10524005061598 57.64565081358887,112.89123486418976 60.86436170199886,113.18234352322179 64.05772841058206,115.01632147320197 67.88469962449744,114.87076808389975 70.03895494365133,115.2200960975606 74.55021902371664,114.57966109015979 76.375,113.67722758473246 76.375,114.34677528828615 69.17725281603634,115.39475994935492 66.4400813516695,114.92898944829358 64.00704005011357,115.13276413292624 59.191645807237364,113.96833546858397 56.125,112.60012591799023" stroke="#4dd2ff" stroke-linecap="round" stroke-linejoin="round" stroke-width="0.5"><title>2021-05-24 1.6km</title></polyline><polyline fill="none" points="86.51308139541652,113.22598829655908 91.2223837209167,113.3612181301578 91.2223837209167,113.93594432808459 94.22456395346671,115.28823746327544 98.875,114.84874277951894 94.13626453489996,115.32204472325975 90.78088662785012,114.74732084941934 87.27834302315023,114.91635738292825 78.625,112.17795527674025" stroke="#4dd2ff" stroke-linecap="round" stroke-linejoin="round" stroke-width="0.5"><title>2021-05-21 1.1km</title></polyline><polyline fill="none" points="113.26440310524777,123.875 113.98632791743148,123.17951648921007 113.7534489458194,122.48403119476279 114.12605530046858,119.24732616706751 115.52332913072314,118.76582955638878 115.8260717940284,118.0435830373026 117.50280039035715,118.44483134092297 120.94940917147323,117.96333330537891 120.83296968555078,116.41183381949668 119.66857482714113,113.89731580147054 117.339785110089,110.63375764663215 115.66305651376024,109.0554654316511 112.98494833917357,107.47716402987135 109.18902110040653,106.94214452069718 107.79174727026839,106.3803728997591 105.74241231940687,106.67463437016704 103.18074363050982,105.14982147264527 102.69169778993819,103.625 101.55059082864318,104.02626963990042 101.62045452021994,104.8823095538246" stroke="#4dd2ff" stroke-linecap="round" stroke-linejoin="round" stroke-width="0.5"><title>2021-05-20 1.7km</title></polyline><polyline fill="none" points="123.72235576924868,112.01668973924825 123.625,109.94787100411486 127.95733173075132,109.16507275711047 143.53425480774604,109.50055785255972 143.875,117.10483342636144 142.95012019225396,117.77579402067931 135.06430288474075,117.10483342636144 134.0907451924868,117.77579402067931 128.10336538474075,118.33492724283133 124.64723557699472,117.83170736784814 123.86838942300528,117.16074683947954 123.86838942300528,111.345722328173" stroke="#4dd2ff" stroke-linecap="round" stroke-linejoin="round" stroke-width="0.5"><title>2021-05-18 1.1km</title></polyline><polyline fill="none" points="146.125,114.43897525823559 146.9127984084189,115.17933490793803 150.76226790447254,116.80400381448271 153.17937665781938,116.74230775810429 154.8086870026309,117.11248382250778 157.6196949601872,116.78343846439384 160.71717506635468,115.87856105224637 161.59449602116365,115.34385891750571 163.0089522546623,114.35671291266044 166.375,111.04562656108465 165.83786472154316,110.38751617747766 164.512931034551,111.41581273893826 156.7602785145864,112.25901213516772 155.63229442969896,111.95052494673291 149.52685676387046,111.76543241459876 149.2045755967265,112.27957793147652 149.2761936339084,112.07391987690062 148.9181034482317,112.21788053642376 148.54210875323042,112.9993795252376 147.987068965449,113.22560237007565 146.37566312996205,112.89655087822757 146.14290450920817,112.46467000718985" stroke="#4dd2ff" stroke-linecap="round" stroke-linejoin="round" stroke-width="0.5"><title>2021-05-10 2.5km</title></polyline><polyline fill="none" points="188.875,120.21664126160613 188.77417012443766,119.63755733837024 188.08516597514972,118.92335147317499 186.99284232367063,119.46383182724821 186.4382780083106,119.29010616193409 186.40466804982862,118.74962532802601 186.77437759336317,118.13193111865257 186.63993775937706,116.41395884678059 186.23661825724412,115.83486367107253 184.1023858921253,116.49117140742601 182.67396265559364,116.33674625573622 182.62354771787068,115.89277326574665 178.9264522821759,115.95068284333684 176.99387966800714,115.64183156497893 173.90176348551176,116.20162414804508 171.7003112033126,116.25953363419103 169.95259336102754,115.8734700694331 168.625,113.5763761112321 170.55757261416875,112.18652465680498 171.41462655604118,111.24064788289252 173.17914937762544,110.33337402809411 173.39761410781648,109.67704563849838 175.26296680496307,108.84698011066939 177.0610995850875,107.61152722290717 176.33848547720117,108.4222940604086 174.33869294606848,109.2909690868255 172.4565352696809,107.63083123425895 171.26338174275588,107.28335873837932" stroke="#4dd2ff" stroke-linecap="round" stroke-linejoin="round" stroke-width="0.5"><title>2021-05-08 2.6km</title></polyline><polyline fill="none" points="31.375,134.4143682619324 31.24243044189643,135.82291152718244 27.265343698789366,136.0513234642567 26.668780687381513,137.15531258747797 20.537438625120558,135.7467741848959 17.35576923075132,136.0132548175461 16.195785597199574,136.66042130210553 11.688420621911064,135.67063682741718 11.125,136.58428412489593 15.831219312502071,138.25929855310824 22.65855155477766,138.94452963309595 31.24243044189643,141.41896507141064" stroke="#4dd2ff" stroke-linecap="round" stroke-linejoin="round" stroke-width="0.5"><title>2021-05-08 1.3km</title></polyline><polyline fill="none" points="53.875,137.57733888321673 53.36472148541361,137.85497551807202 50.3567639257526,136.74442750003072 49.873342175153084,137.17630775339785 46.811671087518334,136.0040599638014 44.824270557030104,136.92951911015552 40.50033156492282,137.2071563199861 37.73408488067798,136.3125466502388 34.94098143232986,136.80612471554196 33.974137930897996,136.6518816538155 33.625,136.15830334511702 38.110079575446434,136.34339530218858 40.74204244033899,137.515641819773 45.03912466845941,137.39224765638937 53.71385941642802,139.82927336954162" stroke="#4dd2ff" stroke-linecap="round" stroke-linejoin="round" stroke-width="0.5"><title>2021-05-07 1.5km</title></polyline><polyline fill="none" points="56.218461538432166,141.80554013731307 56.125,141.2679132516787 57.62038461538032,140.76612743589794 58.24346153845545,139.26076580391964 66.06307692313567,134.6012733473617 68.55538461531978,135.31812225532485 69.14730769232847,136.10665440990124 69.86384615383577,134.35037589320564 69.58346153842285,134.02779319600086 69.58346153842285,135.24643742857734 69.42769230774138,134.85217062712763 68.8357692307327,136.2141813885537 69.61461538472213,135.31812225532485 68.86692307691555,136.10665440990124 69.27192307671066,134.78048570785904 68.99153846141417,136.17833906586748 69.67692307685502,135.5690190368623 70.95423076930456,135.78407328214962 72.8546153845964,135.1030677324452 74.59923076920677,135.17475258756895 76.375,136.2141813885537 75.22230769216549,135.4256494686997 73.82038461533375,135.24643742857734 70.5492307691602,136.03496973979054 68.92923076904844,134.9955404228822" stroke="#4dd2ff" stroke-linecap="round" stroke-linejoin="round" stroke-width="0.5"><title>2021-05-06 1.2km</title></polyline><polyline fill="none" points="83.67793005658314,139.76375495735556 84.55836483929306,137.8727890784212 90.8362476369366,133.21130403265124 93.47755198483355,130.39679888426326 96.96101134223863,128.54977021872764 98.30080340267159,129.82510035351152 98.875,142.7980787839915 98.14768430986442,138.92821288405685 87.62074669194408,144.6890237616608 84.86460302444175,142.0504936724319 79.69683364848606,144.8649252121395 78.625,146.667911075725 79.73511342145503,147.2835631146154 83.02717391308397,144.20529441488907 84.25212665391155,141.39085870905546 83.56309073721059,140.3794165350846" stroke="#4dd2ff" stroke-linecap="round" stroke-linejoin="round" stroke-width="0.5"><title>2021-05-06 1.8km</title></polyline><polyline fill="none" points="113.39131853787694,134.78455036471132 115.21540469978936,134.23450921446783 115.400456919102,133.65390913563897 113.28557441267185,132.7982859321055 113.54993472597562,132.85940195570583 113.23270234989468,133.19553986383835 114.79242819850333,133.8066987383063 116.16710182779934,133.5927932729537 115.71768929506652,135.57905247967574 117.09236292436253,134.81510817699018 117.03949086170178,135.39570602335152 117.5946475196397,135.3651482697751 119.6566579635255,137.01526253696647 121.16351174935699,137.35139581939438 121.18994778068736,138.2070061225677 120.71409921674058,138.8792696602177 121.375,141.93499415263068 120.81984334206209,143.03504740120843 106.12140992179047,141.29329457393032 102.02382506523281,141.84332286776043 101.125,142.5155783109367 101.75946475204546,141.8738799658895" stroke="#4dd2ff" stroke-linecap="round" stroke-linejoin="round" stroke-width="0.5"><title>2021-05-02 1.6km</title></polyline><polyline fill="none" points="129.82816455699503,133.08517963904887 131.26360759488307,133.67800719820661 133.00664556981064,132.19593717344105 139.92753164563328,131.06956144276774 143.00348101276904,132.31450291356305 143.875,134.38939947646577 142.798417721875,140.3176348147099 134.08322784816846,143.4002934466116 124.24018987338059,144.7637718906044 123.625,143.75598378188442 127.88006329117343,131.54382517264457" stroke="#4dd2ff" stroke-linecap="round" stroke-linejoin="round" stroke-width="0.5"><title>2021-05-01 1.0km</title></polyline><polyline fill="none" points="155.78468536376022,137.0852503927308 154.55794677650556,139.04177153643104 152.73898956133053,135.27546127489768 152.82359222252853,133.90588662144728 154.30413879314438,131.60694900364615 156.63071197550744,130.62867435612134 162.63750091870315,130.72650190995773 166.14851135760546,127.79166666665697 161.70687164599076,130.92215695840423 151.25844299071468,129.50365606046398 150.37011504848488,129.94388092309237 148.63576049450785,133.6613193101657 148.0435418661218,142.75913986354135 147.32441924628802,145.10693669004831 146.47839263430797,145.44932277326006 146.35148864262737,148.04166666665697 147.02830993197858,147.6992824220215 147.32441924628802,146.08518199785613 148.466555171879,133.3678383731458 149.98940307321027,131.8515173557098 150.62392303184606,132.24282646129723" stroke="#4dd2ff" stroke-linecap="round" stroke-linejoin="round" stroke-width="0.5"><title>2021-05-01 1.8km</title></polyline><polyline fill="none" points="185.76363783085253,136.07713695858547 185.05769851518562,136.19727162878553 183.90727888967376,137.02319491990784 182.50847320858156,136.96312792258686 182.26008715300122,137.263462672272 182.2993060039007,136.97814467416902 181.3580535830115,137.29349611465295 179.13565203361213,137.00817817279312 177.82835700456053,137.1583455772925 177.4361684958567,136.94811116957862 176.01121691416483,137.21841249756108 172.79527114267694,137.29349611465295 169.59239832148887,136.96312792258686 168.625,137.78904705830791 168.69036475144094,138.07436353652156 172.4553744351142,138.8101772492082 172.86063589417608,138.6900446410873 173.60579406074248,139.0804752708209 175.59288250486134,139.11050835470087 176.834812782472,139.59103689101175 177.37080374435754,139.42585537776176 178.78268237574957,139.756218225084 179.13565203361213,140.02651456689637 180.0115397030604,140.1316296813311 180.2468528082827,139.95143229787936 180.88742737250868,140.25176115182694 181.6848773402162,140.11661324088345 183.01831826986745,140.5070402117708 183.1359748225077,140.14664612033812 183.42357972887112,140.11661324088345 183.95957069075666,140.40192535657843 184.14259199483786,139.9664487546397 184.92696901230374,139.54598740520305 185.86822143319296,138.59994512278354 186.9140574564226,138.19449663050182 187.46312136866618,137.53376344032586 188.37822788901394,137.2484459488769 188.875,136.55767507058044 188.61354099423625,135.76178299814637 188.20827953523258,135.32629312157223 187.3846836669254,135.85188419638143 186.12968043901492,135.77679986823932 186.05124273727415,136.25733892836433 184.28639444801956,137.12831210825243 184.65243705618195,137.4736966444616 184.90082311170409,137.30851283359516 185.7505648805527,137.95423034775013 186.45650419633603,137.8491137297824 186.50879599741893,137.6689136443747" stroke="#4dd2ff" stroke-linecap="round" stroke-linejoin="round" stroke-width="0.5"><title>2021-04-30 3.7km</title></polyline><polyline fill="none" points="31.21504739334341,160.76050867020967 29.935426540207118,162.59777418713202 29.231635070987977,162.70800983009394 22.257701421855018,160.79725406941725 16.051540284301154,160.76050867020967 16.883293838938698,161.45867063396145 11.125,159.73163602300338 15.731635070987977,161.34843462132267 23.08945497625973,162.04659548337804 30.671208530664444,164.4350306436536 31.375,164.28805046045454 30.415284360176884,163.95734483658453" stroke="#4dd2ff" stroke-linecap="round" stroke-linejoin="round" stroke-width="0.5"><title>2021-04-29 1.4km</title></polyline><polyline fill="none" points="41.40678571432363,161.58499538700562 43.05571428569965,160.28893723030342 42.47714285715483,159.25873359886464 43.48964285699185,158.92640917457175 50.40357142838184,152.31308492951212 51.21357142843772,152.2133855803404 53.875,155.27081886178348 50.49035714264028,157.4641778114019 50.86642857128754,157.49741041276138 48.754642856889404,159.79045199570828 49.65142857120372,159.45812809609924 49.85392857133411,158.69378188237897 48.84142857126426,159.52459290222032 44.01035714277532,165.37344447727082 40.74142857140396,167.3008846754674 38.513928571366705,169.26154528357438 38.3692857142305,170.52433759826818 36.54678571422119,171.95328108631657 35.04249999998137,171.18896323052468 33.625,169.16185095187393 33.740714285639115,167.20118976337835 35.73678571428172,166.27070249363896 36.45999999996275,165.14082163840067 38.45607142848894,164.2767925444059 38.832142857136205,163.4127612336306 39.815714285708964,162.84781648567878 40.10499999998137,161.8508528539678 40.85714285715949,161.28590548585635 41.69607142847963,161.485298782849 41.86964285699651,160.8538862708083" stroke="#4dd2ff" stroke-linecap="round" stroke-linejoin="round" stroke-width="0.5"><title>2021-04-26 2.2km</title></polyline><polyline fill="none" points="68.07223676389549,168.63044183782768 68.62442972289864,167.8691819037922 69.26497355487663,159.87581648914784 71.42956995347049,151.95833333332848 69.44167530175764,159.74893566906394 67.87344729877077,160.4848435538588 65.5984123084927,160.33258692294476 63.235026444890536,160.68785225474858 61.99811421718914,161.44913345528767 61.13669320137706,162.6671786866791 61.070430046413094,170.12757979877642 62.06437737226952,171.95458380390482 62.72700892272405,172.20833333332848 63.16876328981016,171.97995876810455 65.55423687188886,169.97532887897978 66.37148245086428,170.53358181090152 67.16664031147957,169.949953716874 67.32125434000045,169.29019862395944" stroke="#4dd2ff" stroke-linecap="round" stroke-linejoin="round" stroke-width="0.5"><title>2021-04-25 2.2km</title></polyline><polyline fill="none" points="89.53246659971774,172.20833333332848 88.93532103684265,167.76105005464342 89.26478065783158,165.2298466569191 88.93532103684265,160.5222103621927 89.24418943142518,152.3131961946201 88.99709471582901,151.95833333332848 88.48231405811384,152.3131961946201 87.96753340039868,160.68780717800837 88.17344566353131,168.9201903498615 88.99709471582901,169.15674890505034 89.05886839458253,168.94384621590143 89.16182452626526,164.89865918784926 88.89413858426269,168.0449216656998" stroke="#4dd2ff" stroke-linecap="round" stroke-linejoin="round" stroke-width="0.5"><title>2021-04-18 2.2km</title></polyline><polyline fill="none" points="121.375,164.96580616250867 117.74856733519118,164.5992518524872 106.78223495709244,161.30024516693084 101.93732091691345,160.83371636926313 101.125,160.30053981154924 106.89828080229927,160.23389268276514 108.17478510038927,159.2008605041483 110.66977077361662,160.33386337111006" stroke="#4dd2ff" stroke-linecap="round" stroke-linejoin="round" stroke-width="0.5"><title>2021-04-16 1.0km</title></polyline><polyline fill="none" points="143.875,163.70741742130485 143.28190376562998,163.8655648217973 143.03831066942075,163.3667915622209 142.61467050208012,163.1964782799114 142.07452928868588,163.33029587863712 141.88389121333603,163.1721477917672 141.61911610880634,162.80718989430898 142.0851202928461,161.97994799519074 141.92625523009337,161.37167835298897 141.6085251045879,161.2378586291452 139.14082112972392,161.4081746161537 137.03321129706455,161.22569319248578 136.00588389119366,161.4690016973691 135.5716527196928,161.2986857943324 134.87264644354582,161.37167835298897 134.70319037663285,161.22569319248578 133.32635983260116,161.38384377522743 132.8391736401827,161.21352775461855 132.2778504184098,161.37167835298897 131.7165271966369,161.1405351023568 130.53033472807147,161.35951292955724 129.55596234311815,160.97021874576603 128.75104602513602,161.06754240691953 128.29563284519827,160.50793030652858 127.46953451883746,160.55659232907783 126.71757322177291,160.32544755084382 126.41043410042766,160.47143377697648 125.98679393308703,160.05780568743648 125.3619246861781,160.27678543705406 124.4510983263608,159.97264679090586 123.92154811718501,160.252454372996 124.29223326366628,159.9848123511474 124.37696129706455,160.39844068549428 123.625,160.36194412357145 124.26046025106916,160.13079898052092 123.95332112972392,160.20379223040072 124.28164225944784,160.17946115191444 124.01686715480173,160.2889509673114 124.18632322177291,160.47143377697648 124.0062761506415,160.32544755084382 124.26046025106916,160.24028883910796 124.18632322177291,160.10646788762097 123.97450313810259,160.17946115191444 124.04864016739884,160.36194412357145 124.37696129706455,160.22812330407032 124.21809623431182,160.16729561084503 124.19691422599135,160.3376130762772 124.28164225944784,160.11863343469304 124.16514121345244,160.3376130762772 124.23927824269049,160.16729561084503 124.29223326366628,160.30111649635364 124.13336820085533,159.86315669468604 124.22868723853026,160.17946115191444 124.17573221755447,159.97264679090586 124.19691422599135,160.17946115191444 123.98509414226282,160.02130902470526 124.05923117161728,159.91181897166098 124.13336820085533,160.02130902470526 123.97450313810259,160.0821367899407 124.18632322177291,160.19162669173966 124.01686715480173,160.09430233938474 124.21809623431182,159.91181897166098 124.06982217577752,160.16729561084503 123.90036610880634,160.16729561084503 124.06982217577752,159.8509911224246 123.91095711296657,159.96048122947832 124.16514121345244,160.17946115191444 123.98509414226282,160.06997123926703 124.01686715480173,160.17946115191444 124.06982217577752,160.0821367899407 124.12277719663689,160.59308883343328 124.01686715480173,161.73664049832587 125.04419456067262,161.9556172671073 125.12892259418732,162.15026295740972 126.05033995822305,162.06510550570238 126.57989016739884,162.25975102321536 130.8057008368778,162.4422309169022 134.97855648538098,162.97750371418078 136.98025627614697,163.0504952792835 137.8699006276438,163.24513924168423 138.8972280335147,163.76824336859863 140.50706066942075,163.5857654367428 140.67651673639193,163.8777299980793 140.8989278242807,163.7804085544485 142.41344142262824,164.0967029655294 142.67821652721614,164.31567554423236 143.15481171553256,164.20618930346973 143.30308577406686,163.7560781815264 143.7267259414657,163.5857654367428" stroke="#4dd2ff" stroke-linecap="round" stroke-linejoin="round" stroke-width="0.5"><title>2021-04-09 4.9km</title></polyline><polyline fill="none" points="165.96622670814395,163.16686683957232 159.6145186336944,161.3248685115832 158.89130434789695,160.63863147152006 154.4262422361644,160.99980902142124 151.18750000011642,160.6747492426075 151.78493788826745,161.0359267568565 151.50194099382497,161.1803976627416 146.125,159.95239314544597 150.59006211173255,161.2887508047279 157.00465838517994,161.83051603412605 165.90333850937895,164.2142735211819 164.70846273307689,163.74474675848614 166.375,163.5280418957991 165.93478260876145,162.9862791778287" stroke="#4dd2ff" stroke-linecap="round" stroke-linejoin="round" stroke-width="0.5"><title>2021-04-09 1.4km</title></polyline><polyline fill="none" points="169.4303977272939,160.9600114216737 170.40838068188168,161.78599264245713 177.484375,164.49519675184274 180.6196732954122,164.36304096214008 183.3522727272939,164.92470270828926 188.4147727274103,164.36304096214008 188.875,163.80137827436556 186.8327414772939,163.27275370794814 184.38778409094084,163.76833926339168 181.85653409094084,162.81020652805455 179.75674715917557,162.97540202279924 176.1899857954122,161.15824710036395 175.7297585227061,160.29922497854568 173.6875,159.50627952622017 172.1342329545878,159.2419639583968 168.625,160.1009887914115" stroke="#4dd2ff" stroke-linecap="round" stroke-linejoin="round" stroke-width="0.5"><title>2021-04-08 1.4km</title></polyline><polyline fill="none" points="31.243506493628956,187.09581309460918 31.375,187.79058308023377 29.665584415663034,187.82079043524573 25.142207792261615,186.2802115350787 18.304545454564504,185.94792879544548 14.701623376575299,184.67920956478338 11.125,185.22294702150975 14.517532467492856,184.83024784404552 18.120454545482062,185.91772125582793 24.82662337680813,186.21979651832953" stroke="#4dd2ff" stroke-linecap="round" stroke-linejoin="round" stroke-width="0.5"><title>2021-04-06 1.3km</title></polyline><polyline fill="none" points="39.80913173640147,183.2093281589041 42.3555389221292,182.4140616937657 43.406437125755474,183.25610849630903 43.406437125755474,184.14493400458014 42.71931137726642,184.5191758099536 43.93188622733578,185.8290197312599 45.184880239423364,185.96935993025545 46.80164670641534,185.2208783744718 48.620508981868625,182.92864603403723 50.23727544909343,183.536790421349 51.57110778428614,182.7415245223383 53.834580838214606,183.02220676129218 53.834580838214606,180.16859601755277 53.592065868200734,181.89947677779128 52.25823353277519,181.66557435298455 53.875,181.94625724857906 53.79416167666204,183.16254781660973 50.31811377219856,183.4900101122912 48.620508981868625,182.88186566333752 45.87200598791242,186.34360025144997 46.518712574848905,185.78223965549842 43.48727544909343,185.7354595749639 42.880988023709506,184.70629659856786 43.7702095808927,184.70629659856786 43.68937125755474,184.23849448442343 42.638473053695634,182.36728127056267 42.193862275220454,183.02220676129218 41.304640718502924,182.92864603403723 40.17290419130586,185.36121875897516 36.41392215550877,187.32597964580054 35.20134730520658,189.57141038341797 35.03967065853067,187.840558491298 34.71631736517884,190.03920707423822 34.43338323337957,189.01005372661166 34.71631736517884,189.71174944069935 34.473802394932136,189.10361321701203 36.130988023942336,189.9456477741478 37.46482035913505,191.95716853271006 39.202844311250374,191.81683016064926 39.68787425127812,190.8344603566802 38.63697604765184,190.36666447474272 39.5666167663876,190.36666447474272 39.12200598791242,190.92801947612315 38.7178143709898,190.55378288467182 39.202844311250374,191.1151376576454 39.324101796140894,190.64734206104185 39.5261976046022,191.72327122205752 38.83907185611315,192.33140398244723 36.61601796397008,192.1442862956901 34.55464071827009,189.71174944069935 34.918413173407316,187.60665908746887 35.16092814342119,189.29073214056552 33.625,190.179545988678 34.06961077847518,189.43107128347037 33.786676646443084,190.36666447474272 34.918413173407316,189.57141038341797 35.08008982031606,187.51309929261333" stroke="#4dd2ff" stroke-linecap="round" stroke-linejoin="round" stroke-width="0.5"><title>2021-04-05 1.9km</title></polyline><polyline fill="none" points="72.05034601374064,191.57755815553537 71.25625102379126,191.97734945676348 71.56698384595802,191.49759979749797 72.11939775204519,191.49759979749797 72.24023829388898,191.15777641229215 71.61877264961367,194.85582277536741 70.28952668816783,195.81530449635466 70.22047494980507,196.375 70.16868614620762,195.81530449635466 71.67056145332754,194.91579052039015 72.17118655575905,192.95683470158838 72.51644524704898,189.83845651445154 71.65329851873685,189.21877289381518 69.78890158573631,188.87894556108222 68.68407377362018,189.73850767580734 66.37084054201841,190.39816906992928 62.15868450811831,192.93684525565186 61.39911538729211,191.71748520362598 60.518705724563915,192.0972866882512 60.104395294969436,191.9373703632882 57.68758445588173,181.56252020740067 57.549480979389045,179.66340344163473 58.77514933346538,185.22076699577156 59.15493389387848,185.38068879621278 63.591508077050094,183.36166649818188 67.0095691208262,182.26219017029507 69.15017300687032,181.06275442014157 72.15392362111015,178.64387001353316 73.93200588133186,176.125 74.95051902061095,176.6447694770759 74.82967847865075,176.80469826981425 74.41536804911448,176.66476058329863 74.65704913297668,176.46484942937968 74.65704913297668,176.78470717786695 74.7606267404044,176.24494692469307 74.17368696519407,176.42486717406427" stroke="#4dd2ff" stroke-linecap="round" stroke-linejoin="round" stroke-width="0.5"><title>2021-04-05 3.7km</title></polyline><polyline fill="none" points="83.73481308412738,178.90779737499543 86.95210280362517,181.4648049993557 89.60163551429287,188.8435472783167 89.66471962607466,192.56941797811305 91.11565420543775,192.27719352539862 92.56658878503367,193.59220262500457 95.84696261677891,191.18135076598264 98.875,191.98496895330027 92.69275700906292,190.52384430577513 92.69275700906292,192.93469837674638 93.00817757030018,189.5741116873105 92.88200934557244,193.08081048412714 93.07126168208197,191.911912791722 90.547897196142,192.4233057667152 92.2511682244949,191.32746323070023 93.13434579432942,192.93469837674638 91.55724299047142,191.911912791722 92.69275700906292,191.61968807072844 92.4404205607716,193.00775443407474 93.13434579432942,193.00775443407474 92.31425233650953,191.54663187172264 93.76518691563979,193.37303460936528 92.31425233650953,192.05802510736976 92.4404205607716,190.88912574702408 93.51285046734847,192.56941797811305 92.50350467301905,190.96218201285228 90.80023364489898,190.88912574702408 90.04322429909371,192.78858623967972 90.2324766353704,191.83885662275134 87.01518691587262,189.42799886519788 88.27686915895902,184.75237282452872 87.01518691587262,185.26377090858296 87.0782710283529,183.36429047142155 83.35630841110833,181.31869052385446 78.625,181.75703386135865 81.27453271043487,182.70677683933172 82.15771028050222,185.19071406160947" stroke="#4dd2ff" stroke-linecap="round" stroke-linejoin="round" stroke-width="0.5"><title>2021-04-04 1.4km</title></polyline><polyline fill="none" points="113.62569832382724,177.18529605760705 107.34706703899428,180.04445083171595 101.29469273751602,187.06232355046086 107.00768156419508,193.36534918023972 110.34497206704691,189.5965369839687 114.24790502805263,187.97204231552314 114.36103351972997,185.82770321628777 117.9811452513095,183.1635146077606 112.66410614503548,176.40552441892214 108.19553072634153,179.3946440187283 101.125,187.4522031751112 106.89455307251774,192.65057611098746 110.28840782120824,188.68682046339381 115.83170391060412,187.7771026858245 117.47206703922711,186.5424836918828 118.32053072634153,183.2934752777801 118.09427374298684,182.70865206042072 117.41550279338844,184.00825850421097 115.43575418996625,184.9829616539646 115.37918994412757,184.39813993725693 121.375,180.4343346118112 119.16899441345595,179.2646825792035 116.84986033500172,176.40552441892214 115.54888268141076,178.54989420302445 111.5893854747992,176.86039132031146 103.78351955278777,183.87829797528684 101.35125698288903,187.32224332587793 107.00768156419508,192.65057611098746 110.34497206704691,189.14167888072552 110.85405027936213,189.53155727422563 109.43994413386099,191.480945778545 117.18924581003375,193.1054317903472 119.67807262577116,196.09447558113607 114.41759776510298,186.47750368062407 114.9832402234897,184.72304095502477 117.75488826842047,182.3837500489317 114.70041899429634,180.4993152192328 113.0034916200675,177.25027698581107 111.81564245815389,176.7954103536904 110.79748603329062,177.51020063448232 111.3065642460715,177.965066772711" stroke="#4dd2ff" stroke-linecap="round" stroke-linejoin="round" stroke-width="0.5"><title>2021-04-02 3.1km</title></polyline><polyline fill="none" points="136.04787234042305,194.07574792089872 133.6781914893072,193.25092931518157 129.20811170211527,193.16844727563148 124.36103723407723,192.52921036571206 123.94813829788473,192.13741903548362 123.625,190.17845137036056 124.09175531915389,189.8072764810786 125.06117021269165,189.7660347859637 124.18151595746167,187.0234438040061 124.39694148930721,183.31160923172138 125.7433510638075,181.3938022110815 126.28191489365418,180.09463261922065 128.84906914888415,178.3211499822064 129.89029255323112,179.45535572872905 130.85970744676888,179.66157429409213 131.36236702126916,180.25960698320705 133.48071808507666,180.25960698320705 136.7480053191539,180.77515103154292 138.3277925531147,181.6000188640901 140.94880319142248,183.9302529043198 143.42619680834468,188.21946534818562 143.49800531903747,188.77623166389822 142.92353723396081,189.27113381076197 142.69015957438387,190.0547264804627 143.19281914888415,190.03410565835657 143.875,191.7868682754779 143.42619680834468,192.71479547643685 141.86436170211527,193.00348309891706 141.48736702115275,193.47775475618255 140.60771276580635,193.0447241552465 140.23071808507666,193.20968829948106 139.29720744676888,192.92100096173817 138.84840425522998,194.1788500177936 138.70478723396081,194.03450706791773" stroke="#4dd2ff" stroke-linecap="round" stroke-linejoin="round" stroke-width="0.5"><title>2021-04-02 3.2km</title></polyline><polyline fill="none" points="148.24668435018975,184.53792719938792 155.09515915124211,187.59189795321436 158.80139257304836,187.56104991279426 161.0573607427068,188.0854661850608 164.09217506635468,187.34511354524875 166.375,187.37596160676912 161.2185013263952,188.05461819347693 158.96253315662034,187.53020186946378 155.31001326267142,187.7152900842193 150.5832228118088,186.35797396599082 146.125,184.4145338149392" stroke="#4dd2ff" stroke-linecap="round" stroke-linejoin="round" stroke-width="0.5"><title>2021-04-01 1.4km</title></polyline><polyline fill="none" points="168.625,183.69944531813962 170.91182487737387,186.02160047745565 173.59635842882562,186.59262009788654 176.7448854338145,188.22953832778148 181.05339607212227,188.1534027501184 183.4396481178701,188.80055468186038 188.875,188.1534027501184 185.06362520472612,188.72441921680002 180.456833060598,188.03919935543672 176.34717675950378,188.22953832778148 170.18269230774604,186.55455214940594 169.5529869068414,186.21194044474396 170.28211947646923,185.90739645194844" stroke="#4dd2ff" stroke-linecap="round" stroke-linejoin="round" stroke-width="0.5"><title>2021-03-29 1.2km</title></polyline><polyline fill="none" points="20.88072600075975,220.54166666665697 19.937025780091062,215.22023796709254 19.280538670020178,215.0318677261239 16.080164009006694,210.41677368272212 13.94658090150915,210.22840155268204 20.593512889929116,200.29166666665697 22.809156886069104,201.65739126433618 27.158383989706635,206.08419594942825 26.70704910159111,209.2394466548285 28.55341909849085,220.07074615723104 22.68606555322185,216.162088060315 20.552482445491478,215.73825574750663 20.34733022376895,216.63301241252339" stroke="#4dd2ff" stroke-linecap="round" stroke-linejoin="round" stroke-width="0.5"><title>2021-03-28 1.4km</title></polyline><polyline fill="none" points="43.50076923076995,206.74873610810027 44.65346153837163,207.42865347347106 44.93384615378454,206.85609156629653 46.055384615436196,206.78452126431512 46.30461538466625,206.21195834051468 46.64730769221205,206.60559544773423 47.176923076971434,206.21195834051468 48.82807692303322,207.14237263289397 49.79384615388699,206.42666954288143 52.62884615373332,207.28551308135502 52.441923076985404,206.56981027376605 53.781538461567834,206.71295094836387 52.78461538453121,206.35509915620787 53.033846153877676,205.78253555463743 53.09615384612698,206.56981027376605 52.94038461544551,206.21195834051468 52.59769230778329,206.67716578496038 52.65999999991618,206.10460269163013 53.09615384612698,206.71295094836387 52.62884615373332,206.56981027376605 53.56346153852064,206.46245473087765 53.56346153852064,206.8203064170084 53.15846153837629,206.31931395753054 52.50423076923471,206.67716578496038 53.81269230763428,206.46245473087765 53.40769230760634,206.14038791149505 53.28307692299131,207.21394286424038 52.7223076922819,206.74873610810027 52.65999999991618,207.14237263289397 53.4388461537892,206.64138061815174 53.09615384612698,206.67716578496038 53.875,207.64336395572172 53.781538461567834,206.60559544773423 53.31423076929059,206.67716578496038 53.56346153852064,207.1781577502843 52.878076923196204,207.39286838081898 52.78461538453121,206.99923212785507 52.41076923080254,207.53600873047253 51.10230769228656,207.35708328458713 51.10230769228656,206.64138061815174 51.41384615376592,212.7963774081145 47.89346153847873,213.58363690710394 45.027307692333125,212.6532391339424 45.24538461538032,213.11843831883743 44.37307692307513,212.6532391339424 39.326153846108355,212.40274701808812 36.80269230774138,213.15422284675878 36.58461538457777,214.44246350313188 35.9926923076855,214.90766039374284 33.96769230766222,215.0507977786765 33.625,214.47824790046434" stroke="#4dd2ff" stroke-linecap="round" stroke-linejoin="round" stroke-width="0.5"><title>2021-03-26 1.5km</title></polyline><polyline fill="none" points="58.26524390268605,209.13347786286613 64.6859756099293,211.75388770725112 66.94381533109117,211.59180122776888 68.91942508716602,212.02403162664268 71.76524390256964,211.45672908826964 72.89416376315057,211.59180122776888 76.375,210.34913503169082 73.29398954717908,211.59180122776888 69.31925087119453,211.91597409086535 67.22604529629461,211.4837435215013 64.89764808386099,211.67284447952989 59.888066202169284,210.4571931855753 56.125,208.80930170667125" stroke="#4dd2ff" stroke-linecap="round" stroke-linejoin="round" stroke-width="0.5"><title>2021-03-26 1.6km</title></polyline><polyline fill="none" points="98.875,212.21347588536446 97.327886247891,212.0160251603811 95.0244057723321,210.554886768281 93.06472835293971,210.59437706528115 90.24554329365492,209.48864727921318 83.36948217300232,209.6860992507136 84.40089134103619,210.19947392077302 83.98832767398562,210.31794490493485 78.625,208.61985744797857 82.95691850571893,210.2784545807226 89.1109932087129,210.6733576474653 94.37117996602319,211.9370448430418" stroke="#4dd2ff" stroke-linecap="round" stroke-linejoin="round" stroke-width="0.5"><title>2021-03-24 1.1km</title></polyline><polyline fill="none" points="121.375,211.9020061173942 119.91677989123855,211.8071976416977 118.48607336950954,210.7326996239135 116.20244565210305,210.3534641690494 114.3315217391355,209.50018275468028 108.60869565221947,209.62659495940898 109.1039402175229,210.16384627329535 104.61922554357443,208.93132721589063 101.125,209.3737705000094 102.50067934778053,209.5633888632583 104.72927989123855,208.96293032792164 108.85631793481298,210.22705225110985 116.36752717394847,210.5430819525791" stroke="#4dd2ff" stroke-linecap="round" stroke-linejoin="round" stroke-width="0.5"><title>2021-03-23 1.3km</title></polyline><polyline fill="none" points="143.47107712749857,211.42191288946196 136.6582446807297,209.04026149804122 133.88464095734525,209.50422097975388 131.13796542549971,209.19491473483504 131.89195478707552,209.68980458035367 131.5957446807297,209.78259633947164 127.26030585088301,208.48350921369274 123.625,209.00933084142162 126.99102393607609,208.54537062745658 131.05718085099943,209.72073516971432 136.44281914888415,210.0919020047877 143.875,212.3498241196503 142.66323138284497,211.76214732593508 143.875,211.42191288946196" stroke="#4dd2ff" stroke-linecap="round" stroke-linejoin="round" stroke-width="0.5"><title>2021-03-22 1.6km</title></polyline><polyline fill="none" points="163.36926166788908,200.4168888154818 163.6481446059188,200.61245072355086 163.49320964037906,201.2346917527757 164.9031178270816,201.44803104178573 165.27496174437692,201.75026127083402 165.15101377194514,202.3013856835314 165.70877964794636,202.6747270742635 166.375,203.8303026890062 165.9721690894221,204.89698132438934 165.38341622037115,205.1458721015515 165.16650726855733,205.78587538581633 162.30021040549036,208.27475553746626 159.13953710783971,209.50140530978388 158.14795332815265,210.1413931959396 157.3887719969498,210.7813788195781 155.1732019892661,213.83905668482475 146.125,220.41644451786124" stroke="#4dd2ff" stroke-linecap="round" stroke-linejoin="round" stroke-width="0.5"><title>2021-03-21 1.3km</title></polyline><polyline fill="none" points="177.80448179366067,208.65740327330423 177.54744771809783,207.01378306573315 175.78492834314238,204.82226984850422 175.06890484690666,204.61154624292976 172.6454407061683,206.82413376914337 170.24033614236396,209.8795742313814 169.63447010715026,210.04814898900804 168.97352534148376,211.83924760123773 170.09345952770673,213.4406878045993 172.75559816719033,214.70497425056237 175.63805172848515,217.04388451747946 175.47281553701032,217.17031137249433 175.8583666504128,217.1281690957694 175.50953469076194,216.93852874806907 175.9501645345008,217.6760180467245 176.92322210618295,218.834924675597 180.6134970476851,220.54166666667152 182.52289303729776,220.35202933865367 187.02098935900722,217.2124536409101 187.62685539433733,215.94818198421854 188.52647465863265,211.9024625729653 187.62685539433733,210.34315449591668 184.26705283566844,207.24557642251602 180.6318566245027,202.672879349484 177.93299883138388,200.29166666667152 174.90366865554824,204.50618436238437 175.45445596030913,204.569401496934 176.20719860994723,205.26478874606255 177.67596475582104,207.1402158368728 177.65760517911986,207.73023444942373" stroke="#4dd2ff" stroke-linecap="round" stroke-linejoin="round" stroke-width="0.5"><title>2021-03-20 3.7km</title></polyline><polyline fill="none" points="29.379926108405925,239.68222408511792 22.463669950608164,237.46699850214645 15.148399014840834,237.23783651157282 11.224753694608808,236.39757471944904 11.125,235.0225969447929 11.69027093600016,234.41149414432584 11.158251231652685,233.3802559817268 11.29125615756493,231.5851311471488 13.386083743767813,229.48444258153904 16.8442118227249,229.90458120644325 20.368842364521697,231.08860578743042 27.01908866991289,230.9358286256902 30.57697044336237,230.36291373183485 31.00923645310104,229.8663868047879 30.377463054144755,231.31777141723433 29.97844827582594,236.2447996523406 30.310960591188632,238.76558055329951 31.375,238.956548134709" stroke="#4dd2ff" stroke-linecap="round" stroke-linejoin="round" stroke-width="0.5"><title>2021-03-19 1.6km</title></polyline><polyline fill="none" points="41.83149651979329,234.37647094781278 46.23230858478928,236.26529590963037 47.9393851509667,236.15736358155846 49.42720417637611,236.48116037412547 50.99332946643699,236.13937485405768 51.82337587006623,236.21132975359797 53.875,235.59971220260195 50.06931554537732,236.46317167846428 48.11165893281577,236.15736358155846 45.91908352676546,236.24730719273794 37.1644431555178,233.45903462289425 33.625,233.08126538300712 34.392401392164174,233.189199531349 33.87558004644234,232.97333117075323 34.032192575454246,232.88338594509696 35.22244779585162,232.955342129193 36.80423433880787,232.68550629254605 37.33671693742508,233.08126538300712 37.64994199539069,232.88338594509696 38.02581206499599,233.24316658161115 38.35469837591518,233.13523246521072 38.77755220426479,233.49501260493707 39.310034802882,233.2971336158662 40.40632250584895,234.08864828383958 40.62558004644234,233.81881412387884 40.06177494203439,232.97333117075323 39.842517401441,232.99132021058176 39.92082366591785,233.60294650842843 40.93880510440795,234.10663721365563 41.36165893281577,233.0992544121982 41.59657772630453,233.58495752896124 41.90980278427014,233.53099057982035 41.58091647340916,233.62093548616394 41.76885150821181,233.56696854767506 41.31467517407145,232.93735308585747 41.9881090488052,232.88338594509696" stroke="#4dd2ff" stroke-linecap="round" stroke-linejoin="round" stroke-width="0.5"><title>2021-03-19 3.1km</title></polyline><polyline fill="none" points="64.64639471616829,244.70833333332848 64.53266384493327,244.35561789671192 64.31657518970314,244.31642723467667 63.9981287503615,244.6168886806845 64.38481371238595,242.40913433283276 64.23696357983863,242.9447467569844 64.30520210257964,243.92451997633907 64.08911344729131,244.09434659732506 62.86082003841875,244.06821943903924 62.712969905813225,243.28440229380794 62.81532768992474,242.59202662366442 65.79507651523454,241.92577491988777 67.7967398482142,241.7951369379589 67.7285013255896,229.16183526009263 68.3995134656434,228.29953908277093 69.78703009418678,227.07141058924026 69.53682217752794,226.4442767516157 67.84223219676642,224.45833333332848" stroke="#4dd2ff" stroke-linecap="round" stroke-linejoin="round" stroke-width="0.5"><title>2021-03-18 2.7km</title></polyline><polyline fill="none" points="85.49280858581187,243.03734145784256 86.05974173842696,243.13563571804843 86.14531655388419,243.61481912587624 86.35925359255634,243.73768636942987 87.51451360154897,243.97113379834627 89.01207287242869,243.83598007699038 90.0496675100876,244.13086073445447 91.01238418422872,244.70833333333576 91.25841177871916,243.9342737070474 91.1193527035648,240.65368190170557 92.00719141418813,240.56767271460558 90.73426603392,240.2113483067369 89.50412806140957,240.14991296098742 88.95858861273155,239.56013210007222 87.87820656731492,228.39062977969297 89.0548602801282,227.0143401489695 89.88921473105438,226.535092867598 89.29019102273742,225.46599613148283 88.26329323695973,224.45833333333576" stroke="#4dd2ff" stroke-linecap="round" stroke-linejoin="round" stroke-width="0.5"><title>2021-03-17 2.8km</title></polyline><polyline fill="none" points="101.80718085099943,233.49050783310668 102.05851063830778,233.49050783310668 103.3151595746167,234.02662134109414 103.67420212761499,234.48025531100575 107.40824468084611,235.51123977609677 111.35771276592277,236.04735069343587 112.68617021269165,235.96487213563523 113.61968085099943,236.1710684999416 114.08643617015332,236.33602551810327 115.95345744676888,236.62470014346763 117.49734042561613,237.2432879555272 118.0,237.36700540810125 118.86170212784782,237.82063575444045 119.57978723407723,238.27426560857566 119.86702127661556,238.35674371104687 120.1901595746167,238.52169986715307 120.9800531915389,238.72789497076883 121.375,238.6866559582122 121.33909574477002,238.6866559582122 121.33909574477002,238.6866559582122 121.23138297884725,238.72789497076883 121.30319148954004,238.6866559582122 121.33909574477002,238.6866559582122 121.375,238.72789497076883 121.15957446815446,238.6866559582122 120.69281914900057,238.6866559582122 119.11303191492334,238.72789497076883 118.03590425546281,238.39798275622888 116.99468085099943,238.19178748995182 115.95345744676888,238.10930935500073 114.91223404253833,238.15054842439713 114.37367021292448,238.19178748995182 113.33244680869393,238.27426560857566 112.86569148930721,238.27426560857566 111.25,238.15054842439713 110.74734042561613,238.02683120360598 109.77792553184554,237.77939665233134 109.27526595746167,237.53196195463534 108.30585106392391,237.2020487964037 107.80319148954004,237.03709211980458 105.75664893630892,236.62470014346763 104.42819148954004,236.08858996635536 104.32047872338444,235.84115426812787 104.75132978730835,235.75867566949455 104.93085106392391,235.75867566949455 105.07446808507666,235.59371842359542 104.93085106392391,235.5524791018688 104.57180851045996,235.4700004463084 104.39228723407723,235.4287611124746 104.28457446815446,235.38752177450806 104.06914893630892,235.38752177450806 103.92553191492334,235.30504308640957 103.74601063830778,235.30504308640957 103.56648936169222,235.30504308640957 103.3151595746167,235.22256438210024 103.13563829800114,235.14008566155098 103.02792553184554,235.0988462950918 102.66888297884725,234.89264940211433 102.56117021269165,234.8101706164016 102.38164893630892,234.68645240730257 102.27393617015332,234.6039735810482 102.16622340423055,234.48025531100575 102.02260638284497,234.31529756070813 101.77127659576945,234.10910028134822 101.55585106392391,233.9853818648553 101.44813829800114,233.9029029001831 101.26861702138558,233.69670541750384 101.19680851045996,233.32554969235207 101.19680851045996,232.99563321573078 101.16090425546281,232.789435285551 101.125,232.6244768682518 101.23271276592277,232.2945598385122 101.19680851045996,231.84092349748244 101.19680851045996,231.63472499800264 101.16090425546281,231.51100584943197 101.23271276592277,231.3872866643942 101.19680851045996,231.346046927938 101.23271276592277,231.05736865854124 101.26861702138558,230.85116977259167 101.44813829800114,230.80992998325382 101.80718085099943,230.68621059067664 101.98670212761499,230.603730975301 102.09441489353776,230.56249116157414 102.30984042561613,230.4800115218968 102.34574468084611,230.4800115218968 102.34574468084611,230.43877169585903 102.38164893630892,230.43877169585903" stroke="#4dd2ff" stroke-linecap="round" stroke-linejoin="round" stroke-width="0.5"><title>2021-03-02 1.4km</title></polyline><polyline fill="none" points="127.34534883731976,234.88086347433273 127.58081395365298,234.989045004535 130.17093023261987,235.4758616273175 131.81918604671955,236.0708591347793 132.43139534885995,236.34131233399967 134.07965116295964,236.77403717517154 134.69186046510004,236.77403717517154 136.43430232582614,236.6658559970674 136.99941860465333,236.5035841894569 138.7418604651466,236.3954029577435 139.82499999995343,236.77403717517154 140.39011627924629,236.99039946787525 141.37906976765953,237.36903327459004 142.32093023252673,237.53130482597044 143.49825581419282,237.42312379711075 143.68662790698,237.31494274683064 143.875,237.42312379711075 143.82790697691962,238.1803905516863 142.98023255821317,238.39675228955457 142.27383720944636,238.99174662848236 141.94418604648672,239.09992734820116 141.61453488375992,239.20810804644134 141.4261627907399,239.20810804644134 141.14360465109348,239.26219838747056 140.9552325583063,239.37037905363832 140.29593023261987,239.64083062595455 140.39011627924629,239.91128206480062 140.7197674419731,240.12764311995124 140.7197674419731,240.18173337046755 140.7197674419731,240.23582361551234 140.76686046505347,240.18173337046755 140.53139534895308,240.12764311995124 140.24883720930666,240.23582361551234 140.15465116291307,240.28991385520203 140.06046511628665,240.34400408971123 140.01337209297344,240.39809431874892 140.01337209297344,240.39809431874892 139.82499999995343,240.12764311995124 139.73081395355985,240.01946260302793 139.58953488362022,239.85719178779982 139.54244186053984,239.7490112175583 139.07151162810624,239.64083062595455 138.8831395348534,239.64083062595455 138.647674418753,239.64083062595455 138.4122093024198,239.58674032223644 138.1296511630062,239.58674032223644 137.89418604667298,239.58674032223644 137.42325581400655,239.4785596987349 137.18779069767334,239.42446937883506 136.95232558157295,239.37037905363832 136.7168604650069,239.3162887232611 136.24593023280613,239.20810804644134 136.0575581395533,239.09992734820116 135.8220930234529,239.04583699104842 135.5866279071197,238.93765626073582 135.35116279055364,238.82947550911922 135.16279069776647,238.66720434179297 134.73895348841324,238.45084271061933 134.31511627906002,238.23448099405505 133.98546511656605,237.90993825922487 133.75,237.80175730510382 133.51453488366678,237.69357632944593 133.2790697675664,237.58539533248404 133.04360465100035,237.47721431421814 132.90232558152638,237.42312379711075 132.52558139548637,237.2608522135415 132.33720930246636,237.2067616751301 132.14883720921353,237.1526711312472 131.96046511642635,237.04449002770707 131.72500000009313,236.99039946787525 131.48953488375992,236.93630890280474 130.9715116280131,236.8822183322045 130.7831395349931,236.82812775642378 130.54767441865988,236.77403717517154 130.26511627901345,236.77403717517154 130.07674418599345,236.71994658879703 129.60581395355985,236.6658559970674 129.37034883722663,236.55767479736824 128.9465116278734,236.23313107033027 128.4755813954398,236.0708591347793 128.2872093024198,236.01676847896306 128.0517441863194,235.9626778178499 127.76918604667298,235.90858715132345 127.58081395365298,235.8544964795583 127.34534883731976,235.74631511967164 126.92151162796654,235.52995233645197 126.68604651186615,235.4217709127115 126.49767441861331,235.31358946772525 126.02674418617971,235.0431357618072 125.88546511647291,234.93495424214052 125.69709302322008,234.82677270116983 125.27325581409968,234.55631875514518 125.08488372107968,234.39404632360674 124.84941860474646,234.0695013163495 124.51976744201966,233.69086523191072 123.9546511627268,233.25813795812428 123.9546511627268,233.0958651426481 123.86046511633322,232.82541034306632 123.76627906993963,232.6090464075096 123.625,231.90586302737938 123.76627906993963,231.6354076411808 123.81337209302,231.36495212157024 123.86046511633322,231.14858760987408 123.90755813987926,230.98631417006254 123.90755813987926,230.71585833036806 123.90755813987926,230.0126725230948 123.90755813987926,229.52585105155595 124.42558139562607,229.3094858143013 124.80232558143325,229.09312049177242 125.13197674439289,228.98493779840646 125.3674418607261,228.93084644380724 125.46162790711969,228.82266371854348 126.1209302325733,228.76857234793715" stroke="#4dd2ff" stroke-linecap="round" stroke-linejoin="round" stroke-width="0.5"><title>2020-12-25 1.0km</title></polyline><polyline fill="none" points="146.42951127816923,232.24432562378934 146.65789473685436,232.46292557450943 146.84821428568102,232.68152541745803 147.26691729319282,232.94384508684743 148.90366541361436,233.38104419078445 149.7791353382636,233.64336344620096 150.3500939849764,233.77452301580342 153.0145676692482,234.82379817485344 153.77584586455487,235.34843482321594 154.65131578943692,235.74191190185957 155.94548872183077,236.22282785736024 156.44031954882666,236.31026706585544 157.35385338356718,236.31026706585544 157.8867481201887,236.31026706585544 158.80028195492923,236.13538863160647 159.63768797018565,236.0479493883904 160.58928571431898,236.09166901212302 161.12218045117334,236.0479493883904 162.60667293239385,236.31026706585544 163.10150375938974,236.48514543124475 164.0531015037559,236.66002372768708 164.5859962408431,236.61630416000844 165.53759398520924,236.57258458808064 165.95629699272104,236.5288650118746 166.375,236.70374329108745 166.33693609014153,236.74746285003494 166.22274436126463,236.79118240470416 166.18468045117334,236.83490195515333 166.18468045117334,236.8786215011787 166.14661654131487,236.83490195515333 166.0704887220636,236.92234104289673 166.0704887220636,236.83490195515333 166.10855263192207,236.8786215011787 166.14661654131487,236.92234104289673 166.10855263192207,236.8786215011787 166.18468045117334,236.79118240470416 166.14661654131487,236.79118240470416 166.10855263192207,236.79118240470416 166.10855263192207,236.83490195515333 166.10855263192207,236.79118240470416 166.10855263192207,236.79118240470416 166.10855263192207,236.79118240470416 166.10855263192207,236.83490195515333 166.0704887220636,236.83490195515333 166.0704887220636,236.83490195515333 166.0324248119723,236.83490195515333 165.9943609025795,236.83490195515333 166.0704887220636,236.83490195515333 166.0704887220636,236.83490195515333 166.0704887220636,236.83490195515333 166.0324248119723,236.83490195515333 166.0324248119723,236.8786215011787 165.95629699272104,236.83490195515333 165.08082706783898,236.83490195515333 164.09116541361436,236.83490195515333 163.10150375938974,236.61630416000844 162.6447368422523,236.48514543124475 161.69313909765333,236.22282785736024 161.19830827089027,236.13538863160647 160.17058270680718,236.13538863160647 159.6757518798113,236.09166901212302 158.64802631596103,236.17910824652063 157.58223684201948,236.31026706585544 157.08740601525642,236.31026706585544 156.05968045117334,236.26654746377608 155.52678571431898,236.13538863160647 153.12875939859077,235.34843482321594 152.63392857159488,235.1735560093075 151.22556390985847,234.82379817485344 150.8449248119723,234.78007842617808 149.32236842112616,234.5177598433511 148.4468984962441,234.12428167808685 147.9520676692482,233.8619627072767 147.00046992488205,233.33732429979136 146.125,233.03128494214616" stroke="#4dd2ff" stroke-linecap="round" stroke-linejoin="round" stroke-width="0.5"><title>2020-12-08 1.1km</title></polyline><polyline fill="none" points="168.625,232.49599363139714 168.81971153849736,232.53326775878668 170.11778846161906,233.53966780513292 170.53966346161906,233.6887638804037 172.19471153849736,234.17332571890438 172.97355769237038,234.39696943483432 173.3629807693651,234.5460651718895 174.27163461537566,234.8815303654119 175.08293269237038,235.2915429752902 175.5048076924868,235.5524598590855 177.58173076924868,236.2606619214348 178.0360576924868,236.29793567740126 179.33413461549208,236.14884063138743 179.72355769237038,236.11156686060713 181.7680288462434,236.14884063138743 182.18990384612698,236.18611439838423 183.4555288462434,236.55885186657542 184.75360576924868,236.67067303528893 185.1430288462434,236.6333993159642 185.9867788463598,236.67067303528893 187.28485576924868,236.48430440222728 187.67427884612698,236.44703066465445 188.4855769231217,236.37248317836202 188.875,236.33520942978794 188.71274038474075,236.0370193082199 187.80408653849736,235.99974552643835 187.41466346161906,236.0370193082199 186.60336538474075,236.2606619214348 186.31129807699472,236.33520942978794 185.46754807699472,236.52157813622034 185.078125,236.55885186657542 184.2668269231217,236.55885186657542 183.8449519231217,236.48430440222728 183.03365384612698,236.33520942978794 182.6442307693651,236.22338816171396 181.37860576924868,235.99974552643835 180.9567307693651,235.99974552643835 180.1129807693651,236.0370193082199 179.65865384612698,236.0370193082199 178.8149038462434,236.11156686060713 177.9711538462434,236.14884063138743 177.1598557693651,236.11156686060713 176.38100961549208,235.9251979519904 175.99158653849736,235.81337656275718 175.14783653861377,235.5524598590855 174.75841346161906,235.40336451894837 173.97956730762962,235.14244753224193 172.94110576913226,234.84425646968884 172.64903846161906,234.80698257038603 171.87019230774604,234.62061301840004 170.7992788463598,234.28514759338577 170.50721153861377,234.06150381136104 169.82572115387302,233.6887638804037 169.46875,233.50239377707476" stroke="#4dd2ff" stroke-linecap="round" stroke-linejoin="round" stroke-width="0.5"><title>2020-12-03 1.3km</title></polyline><polyline fill="none" points="31.16109154932201,259.2823435791943 31.339348591398448,259.93753014475806 31.375,260.1422757344553 30.76892605633475,260.5108175415371 29.735035211080685,260.4698684680334 28.308978873072192,260.22417394208605 26.954225352033973,259.6508861495822 26.49075704230927,259.5689878287958 23.852552816970274,258.54525745735737 22.889964788686484,258.3814603635401 21.42825704207644,258.42240964309894 20.430017605423927,258.3814603635401 19.71698943665251,258.3814603635401 19.2891725350637,258.3814603635401 18.32658450701274,258.29956179257715 18.005721830762923,258.25861250105663 16.900528169004247,258.17671390558826 16.472711267415434,258.13576460198965 14.975352112669498,258.0129166666593 14.511883802479133,257.93101802287856 13.584947183029726,257.8491193629161 12.372799295699224,257.31677767971996 11.90933098574169,257.15298010149854 11.125,256.9891824584629 12.016285211080685,257.1939295021002 12.800616197055206,257.5624739260238 13.584947183029726,257.93101802287856 14.04841549275443,257.97196734673344 15.224911971949041,258.094815294171 15.581426056334749,258.13576460198965 16.508362676016986,258.21766320534516 16.97183098574169,258.25861250105663 17.93441901402548,258.25861250105663 18.36223591538146,258.29956179257715 19.32482394366525,258.3814603635401 19.752640845021233,258.3814603635401 21.07174295769073,258.42240964309894 21.499559859046713,258.42240964309894 22.141285211080685,258.34051108008134 22.355193661991507,258.34051108008134 22.497799295699224,258.34051108008134 22.64040492940694,258.34051108008134 22.783010563114658,258.34051108008134 22.961267605423927,258.29956179257715 23.139524647733197,258.29956179257715 23.496038732118905,258.34051108008134 23.638644366059452,258.34051108008134 23.95950704230927,258.46335891849594 24.280369718093425,258.62715597986244 24.244718309724703,258.7090544863604 24.244718309724703,258.7500037334685 24.20906690112315,258.7500037334685" stroke="#4dd2ff" stroke-linecap="round" stroke-linejoin="round" stroke-width="0.5"><title>2020-11-30 1.0km</title></polyline></svg>