<?xml version="1.0" encoding="utf-8" ?>
<svg baseProfile="full" height="300mm" version="1.1" viewBox="0,0,200,300" width="200mm" xmlns="http://www.w3.org/2000/svg" xmlns:ev="http://www.w3.org/2001/xml-events" xmlns:xlink="http://www.w3.org/1999/xlink"><defs /><rect fill="#222222" height="300" width="200" x="0" y="0" /><text fill="#FFFFFF" style="font-size:12px; font-family:Arial; font-weight:bold;" x="10" y="20">Over 3km Runs</text><text fill="#FFFFFF" style="font-size:4px; font-family:Arial" x="10" y="280">ATHLETE</text><text fill="#FFFFFF" style="font-size:9px; font-family:Arial" x="10" y="290">jdzj</text><text fill="#FFFFFF" style="font-size:4px; font-family:Arial" x="120" y="280">STATISTICS</text><text fill="#FFFFFF" style="font-size:3px; font-family:Arial" x="120" y="285">Number: 58</text><text fill="#FFFFFF" style="font-size:3px; font-family:Arial" x="120" y="290">Weekly: 3.4</text><text fill="#FFFFFF" style="font-size:3px; font-family:Arial" x="141" y="285">Total: 121.1 km</text><text fill="#FFFFFF" style="font-size:3px; font-family:Arial" x="141" y="290">Avg: 2.1 km</text><text fill="#FFFFFF" style="font-size:3px; font-family:Arial" x="167" y="285">Min: 1.0 km</text><text fill="#FFFFFF" style="font-size:3px; font-family:Arial" x="167" y="290">Max: 13.2 km</text><polyline fill="none" points="31.692030245641945,54.425259340070625 31.784466536773834,54.412010982778156 31.998225460018148,54.25634239601641 32.39685696552624,53.829078125523665 32.402634233716526,53.60716354561009 32.20909574916004,53.76945942617749 32.096439019354875,53.62703655241421 32.13399126261356,53.74627434805734 32.203318480969756,53.77277157890421 32.402634233716526,53.597227037829725 32.405522867818945,53.7992687889855 32.31019794259919,53.935066664926126 31.77291200037871,54.425259340070625 31.524489467963576,54.42857142857247 30.87454679592338,52.53069156541824 30.816774113976862,51.43099865868862 30.475915290415287,50.987136573581665 29.883745300321607,50.62276782133995 29.88085666624829,50.341207460187434 29.77108857051644,50.17558262323291 29.271354871583753,49.68864090412899 28.90449834112951,49.47001172889577 28.453871421865188,48.99299771250662 28.30655108287465,48.96649673649881 27.829926456717658,49.05262483257684 27.769265140668722,49.07581312865295 27.910808211454423,49.0990014088311 27.88192187047389,49.13875270925564 27.63927660624904,49.22488036656432 26.821793156545027,49.37725953052359 26.5358183808421,49.3640091956986 26.622477403798257,49.39382244175067 26.57337062411534,49.433573395599524 26.63114330607641,49.403760184588464 26.639809208383667,49.486574594691774 26.64847511066182,49.39050986015354 26.527152478549397,49.37063436376047 26.05919375468511,49.11225184749492 24.918183286019485,49.12550228097825 24.61198807162873,49.00293557315672 24.04003852023743,49.24806854450799 23.369875409523956,49.10562662880693 23.1734482908505,49.01949866774885 22.82970083321561,48.6418580947211 22.462844302790472,48.330467080901144 21.951556067433557,48.214522885595215 21.3622747114714,48.20127209510974 20.954977303670603,48.00582233204841 20.585232139143045,47.71761468774639 18.433199736173265,46.7767818278553 18.254104422114324,46.75690479485638 17.70815257760114,46.85297701273521 17.427955070103053,46.81984869257576 17.150646196707385,46.67077085015262 16.75490332528716,46.24009783452129 16.159844701105612,45.72328297278 16.012524362115073,45.19652123225387 15.804542707061046,44.93148077413207 15.400133933362667,44.156225503356836 15.08238418259134,43.84148004020972 14.094471321106539,41.323410796016105 14.077139516521129,41.10804089966041 14.132023564379779,40.836341533551604 14.553764142663567,40.0908137570259 14.657754970190581,39.7561492716668 14.58553911774652,39.48112548021527 14.233125757818925,38.90787592245397 13.958705518496572,38.34787129627148 13.776721570335212,37.77128878539952 13.802719277213328,37.47305259005225 14.03958727324789,36.64460489631165 14.068473614228424,36.13095712049835 14.010700932267355,35.70014973616344 13.724726156578981,34.55682656885256 13.773832936232793,33.90395510615781 13.747835229354678,32.95942328661113 13.666953474617912,32.58491738982775 13.675619376910618,32.20377880464366 13.53985357430065,31.646977310447255 13.308762846470927,31.285714285717404" stroke="#4dd2ff" stroke-linecap="round" stroke-linejoin="round" stroke-width="0.5"><title>2021-06-10 13.2km</title></polyline><polyline fill="none" points="46.01123174908571,47.84171489946311 46.318455367698334,48.87092082289746 47.67535968357697,48.72389162276522 47.752165588201024,49.4884426719218 48.72504038072657,49.37081956115435 49.313885649782605,50.16477465824573 49.64671123679727,49.459036898537306 48.955458094598725,48.98854413081426 49.59550730034243,49.047355767397676 49.95393485529348,49.459036898537306 49.467497459147125,50.19418036195566 51.00361555244308,50.370614523562836 50.23555650585331,50.87051074774354 50.15875060122926,50.31180314795347 50.645187997375615,50.01774609601125 50.8756057114806,50.34120883716969 50.696391933830455,49.87071746139554 51.10602342535276,50.10596324206563 50.67078996566124,50.07655752968276 50.72199390211608,49.694283004064346 51.36204310762696,50.929322013049386 50.8756057114806,51.63505629316205 49.54430336377118,52.076139370095916 47.39373803313356,52.017328330897726 45.089560893015005,53.63462768352474 44.321501846425235,53.164141503715655 43.83506445016246,53.693438403715845 44.39830775104929,54.310950266430154 45.26877467066515,54.016897157998756 44.55191956041381,54.252139667834854 45.11516286130063,54.310950266430154 45.21757073421031,53.8110598095227 45.24317270249594,54.10511312086601 44.52631759212818,53.98749183118343 45.24317270249594,54.10511312086601 44.782337274518795,53.84046515368391 45.345580575289205,53.8110598095227 43.50223886326421,54.10511312086601 44.270297909970395,53.86987049502204 44.57752152858302,54.428571428579744 44.57752152858302,54.10511312086601 43.93747232307214,54.19332905783085 44.50071562395897,53.95808650145773 45.21757073421031,54.163923748390516 44.679929401376285,54.163923748390516 44.83354121085722,53.5758169516339 44.75673530623317,54.252139667834854 44.321501846425235,54.04630248178728 44.679929401376285,53.781654462451115 44.60312349686865,54.34035556128947 44.24469594168477,53.54641158133745 44.75673530623317,53.51700620815973 44.52631759212818,54.07570780284004 43.98867625941057,53.92868116887985 44.21909397339914,52.78187093610177 43.09260737162549,51.2821893619257 42.938995562377386,49.606065736181336 41.607693214784376,47.665279241715325 41.479683373705484,47.106565636524465 41.96612076985184,46.43022671388462 41.428479437250644,44.84229451874853 42.01732470630668,43.31316663484904 41.94051880156621,41.60759166706703 43.50223886326421,31.285714285739232 44.03988019598182,31.31512185142492 44.03988019598182,31.844457537081325 44.83354121085722,32.28556989048957 47.342534096562304,32.55023698936566 47.57295181066729,33.05016309054918 49.569905332056805,32.28556989048957 51.54125688527711,33.31482951072394 52.53973364585545,33.02075569608132 52.77015135996044,33.491273660212755 54.71590094489511,32.96194089832716 54.99752259533852,34.285271040920634 55.71437770547345,34.75578700948972" stroke="#4dd2ff" stroke-linecap="round" stroke-linejoin="round" stroke-width="0.5"><title>2021-06-08 2.7km</title></polyline><polyline fill="none" points="85.8571428572759,40.081922591954935 77.5136331859976,37.17648277845001 68.86809601495042,36.61273850098951 65.47028664662503,34.704675582877826 65.65905383368954,33.14352703597979 65.28151945932768,33.27362295993953 62.714285714318976,48.62467172124889 63.242833838332444,50.14240166492527 64.4886972734239,51.22649127457407 63.922395711997524,52.570758678310085" stroke="#4dd2ff" stroke-linecap="round" stroke-linejoin="round" stroke-width="0.5"><title>2021-06-08 1.1km</title></polyline><polyline fill="none" points="110.91995404055342,43.92615307710366 103.38146304083057,41.03983765779412 99.44159325922374,41.78814386960585 96.83569513587281,41.574342252948554 96.37035618512891,42.00194535974879 92.36844121012837,40.71913452123408 88.42857142852154,41.28927323399694 91.87207966274582,40.57659970244276 96.2462657984579,42.00194535974879 102.66794331662823,42.28701381635619 107.53849099949002,44.03305320534855 111.5404059747234,45.137686011818005 111.57142857136205,44.7813532174041" stroke="#4dd2ff" stroke-linecap="round" stroke-linejoin="round" stroke-width="0.5"><title>2021-06-07 1.5km</title></polyline><polyline fill="none" points="129.37031572009437,52.95356307155453 129.1930536592845,47.91815803234931 127.77495717210695,47.053487589990254 123.91950734797865,41.967161615611985 121.17194540402852,42.526659920753445 125.73644347209483,37.44028943806188 129.37031572009437,31.285714285739232 122.23551776935346,41.76370753656374 123.74224528693594,41.7128440043889 124.85013316757977,42.628386820317246 129.1487381439656,47.81643217301462 129.1930536592845,52.851838202390354 130.25662602484226,54.428571428579744 129.28168468992226,53.86908599513117" stroke="#4dd2ff" stroke-linecap="round" stroke-linejoin="round" stroke-width="0.5"><title>2021-06-04 1.3km</title></polyline><polyline fill="none" points="153.77535072149476,46.18905428718426 154.0262642307789,46.578999188161106 154.7642451405991,46.578999188161106 154.57237010402605,46.155145993107 154.9708797953208,45.96865025610896 154.5280912494636,46.03646691115864 154.61664895858848,45.426116052345606 154.15910079458263,45.22266528438195 154.14434117637575,45.47697870670527 154.61664895858848,45.985604422414326 154.63140857685357,46.66376970177225 154.01150461263023,46.612907398623065 153.55395644856617,46.03646691115864 153.64251415774925,46.324687396598165 153.0964082845603,46.4264121583692 152.41746584762586,45.22266528438195 151.64996570156654,44.42581412414438 149.0375132811023,42.57778338287608 148.7423209171975,41.0010074974125 149.05227289919276,39.4072623304819 150.49871548230294,37.01661686474108 151.85660035623005,35.91453505943355 153.2440044665709,34.286832079305896 153.30304293922381,32.96431205418776 152.77169668429997,31.930026479560183 152.3141485202941,31.624826267827302 151.82708111981628,32.09958191844635 151.69424455612898,31.67569300744799 151.90087921079248,31.658737429228495 151.62044646515278,31.607870684674708 151.8123215016676,31.641781849364634 151.664725319657,31.980893128784373 151.7385234106914,31.70960415886657 151.4580906649353,31.913070926442742 151.6794849379221,31.760470873312443 151.48760990134906,31.70960415886657 151.54664837411838,31.913070926442742 151.00054250092944,32.32000373888877 151.62044646515278,31.980893128784373 151.3842925740173,32.13349298614776 151.4728502832004,31.794382007952663 151.28097524662735,32.21827062612283 151.28097524662735,31.913070926442742 151.82708111981628,31.57395951318904 152.0927542473073,31.946982030945946 151.97467730176868,32.065670844036504 152.3879466112121,32.09958191844635 151.91563882899936,32.32000373888877 151.3104944830411,31.50613715025247 151.97467730176868,31.607870684674708 151.98943691997556,31.285714285710128 151.01530211919453,32.33695925184293 151.85660035623005,32.32000373888877 151.85660035623005,32.09958191844635 151.2514560102136,32.16740404716984 152.0927542473073,31.57395951318904 151.34001371939667,32.065670844036504 151.63520608330145,32.04871530435048 151.7532830288401,31.913070926442742 151.44333104678662,31.760470873312443 151.5318887559697,32.065670844036504 151.98943691997556,31.82829313588445 151.85660035623005,32.08262638204906 151.87135997437872,31.879159815231105 151.664725319657,31.980893128784373 151.7532830288401,31.7435153034603 152.04847539274488,31.72655973196379 151.94515806541312,32.13349298614776 152.1813119564904,31.811337572769844 151.8123215016676,32.26913719002914 152.00419653812423,31.980893128784373 151.76804264710518,31.336581125695375 152.19607157475548,31.54004833503859 151.5318887559697,32.09958191844635 151.8123215016676,32.21827062612283 151.98943691997556,31.997848675207933 151.87135997437872,32.26913719002914 152.13703310192795,31.624826267827302 151.97467730176868,32.150448517510085 152.15179272013484,32.37087027268717 151.90087921079248,32.116537453155615 149.76073457265738,34.3037873981375 152.40270622941898,31.845248697311035 154.30669697653502,33.371242376902956 155.19227406819118,34.69375926986686 154.3214565946837,49.74938793576439 148.91943633550545,49.8850182354945 147.82722458912758,50.1732322670141 147.6648687889101,52.59760175392148 148.22573428036412,53.00448558939388 149.42126335413195,52.733229806108284 149.952609609114,53.30964783394302 149.50982106331503,53.66566976776812 150.30684044584632,53.76739018484659 150.4544366277405,54.05559770631953 150.42491739138495,54.42857142856519 150.15924426383572,54.072551074874355 150.01164808188332,54.15731789266283" stroke="#4dd2ff" stroke-linecap="round" stroke-linejoin="round" stroke-width="0.5"><title>2021-06-02 5.9km</title></polyline><polyline fill="none" points="172.22807978873607,53.734581433120184 174.29623668955173,51.83944584077108 177.5030417717062,47.51528395267087 180.26833021221682,41.74962727291859 181.45345382962842,37.34522342411219 181.43021611159202,31.285714285739232 181.89497047127225,31.712820697342977 182.12734765105415,36.3575593860005 180.50070739211515,42.470341076754266 178.71140310703777,46.63442768872483 175.8299260766944,50.90521918589366 172.1583666347433,54.428571428579744" stroke="#4dd2ff" stroke-linecap="round" stroke-linejoin="round" stroke-width="0.5"><title>2021-06-01 2.2km</title></polyline><polyline fill="none" points="34.42857142863795,71.22466962254839 33.96356811653823,71.7587849511765 24.019651137059554,68.59516878926661 17.187679399503395,68.80059913959121 16.615367630962282,69.33471757633379 12.17995142401196,67.77344637486385 11.285714285681024,67.81453253410291 11.321483771316707,68.2664800179773 12.144181938841939,67.52692933450453 17.11614042846486,69.5812335468363 26.130050783976912,69.86883532820502" stroke="#4dd2ff" stroke-linecap="round" stroke-linejoin="round" stroke-width="0.5"><title>2021-05-31 1.1km</title></polyline><polyline fill="none" points="49.671774049755186,80.35317377815954 50.1400061682798,76.53197312052362 50.9360007699579,77.12399188056588 53.83903990429826,76.53197312052362 54.822327353060246,75.4555737246992 55.571498742792755,72.28018310031621 57.30395758105442,72.92602676257957 56.27384692034684,72.49546440632548 56.788902250817046,71.74197946320055 56.69525582692586,73.03366729838308 56.788902250817046,71.68815907009412 56.74207903887145,73.6795100661111 55.24373625963926,72.17254241544288 60.0197038683109,74.80973306519445 55.15008983598091,72.97984703310067 56.320670132292435,72.44164408801589 55.711968378396705,70.66557059111074 55.24373625963926,73.30276854481781 56.69525582692586,71.95726098190062 56.180200496688485,71.09613439551322 57.49125042860396,73.03366729838308 58.09995218249969,72.76456591900205 56.36749334423803,73.57186965807341 54.77550414134748,72.81838620558847 57.069841522024944,72.6031050272868 55.4778523191344,72.2263627606444 54.30727202282287,76.04759365593782 49.812243685359135,76.80107263673563 49.952713320963085,78.84622461081017 48.07978484686464,80.29935423698043 48.173431270523,81.21428571426077 48.87577944830991,80.19171513838228 46.81555812689476,74.5944526749663 37.1231532744132,58.071428571420256" stroke="#4dd2ff" stroke-linecap="round" stroke-linejoin="round" stroke-width="0.5"><title>2021-05-30 1.4km</title></polyline><polyline fill="none" points="63.55466879485175,67.3595998614328 66.88387869112194,69.25303945178166 72.96049481246155,71.51772919850191 75.77254588983487,71.25784746056888 79.32801276934333,71.92611442427733 85.30766161216889,71.0350915423769 85.85714285715949,70.58957931064651 85.24301675974857,71.0722175379342 79.5542697525816,71.7033589015191 71.63527533924207,71.18359550257446 66.36671987234149,69.77280551634612 62.714285714318976,67.87936854053987" stroke="#4dd2ff" stroke-linecap="round" stroke-linejoin="round" stroke-width="0.5"><title>2021-05-27 1.4km</title></polyline><polyline fill="none" points="111.57142857159488,71.30716074805241 108.67354037286714,71.16846956071095 102.79726708075032,68.94940498139476 93.90236024884507,68.62579051917419 88.42857142863795,67.146407274995 91.80944099416956,68.4408678690088 100.94583850936033,69.27301922018523 110.36397515540011,72.13930701074423 111.12869565212168,71.90815541925258" stroke="#4dd2ff" stroke-linecap="round" stroke-linejoin="round" stroke-width="0.5"><title>2021-05-25 1.1km</title></polyline><polyline fill="none" points="114.78008224570658,67.76313148642657 115.88074378692545,68.66141127340961 119.55927051662002,68.9941068837361 123.20883246918675,71.09008168370929 127.58251385646872,70.92373495304491 130.04451993561815,71.32296696866979 135.20025031280238,70.59104124593432 137.28571428568102,69.55968866829062 137.28571428568102,70.32488604378887 129.05971750395838,71.52258279928355 125.93152154481504,70.9902736552176 123.15090291434899,71.22315900909598 117.64759520825464,69.8923833926965 114.14285714284051,68.32871533487923" stroke="#4dd2ff" stroke-linecap="round" stroke-linejoin="round" stroke-width="0.5"><title>2021-05-24 1.6km</title></polyline><polyline fill="none" points="148.87209302326664,69.04398662465974 154.25415282382164,69.19853500591125 154.25415282382164,69.85536494641565 157.685215946869,71.40084281517193 163.0,70.89856317659724 157.5843023256166,71.43947968372959 153.74958471755963,70.78265239932807 149.74667774082627,70.9758370090567 139.8571428571595,67.84623460200964" stroke="#4dd2ff" stroke-linecap="round" stroke-linejoin="round" stroke-width="0.5"><title>2021-05-21 1.1km</title></polyline><polyline fill="none" points="179.44503212010022,81.21428571428987 180.2700890484266,80.41944741623593 180.0039416522486,79.6246070797497 180.4297774861334,75.92551561951404 182.02666186355054,75.37523377873003 182.37265347875655,74.549809185497 184.2889147317037,75.00837867538212 188.22789619595278,74.45809520615148 188.09482249768917,72.6849529366009 186.7640855165664,69.81121805883595 184.1026115542045,66.08143731046584 182.18635030137375,64.27767477906309 179.12565524468664,62.473901748424396 174.78745268611237,61.86245088081341 173.19056830881163,61.22042617117404 170.8484712219797,61.55672499447246 167.92084986332338,59.81408168305643 167.3619403312914,58.07142857144936 166.05781808984466,58.530022445629584 166.13766230875626,59.5083537758037" stroke="#4dd2ff" stroke-linecap="round" stroke-linejoin="round" stroke-width="0.5"><title>2021-05-20 1.7km</title></polyline><polyline fill="none" points="11.396978022065014,94.44764541630866 11.285714285681024,92.08328114758478 16.236950549529865,91.18865457957145 34.039148351643234,91.57206611719448 34.42857142863795,100.26266677299282 33.37156593403779,101.02947888080962 24.35920329671353,100.26266677299282 23.24656593403779,101.02947888080962 16.403846153989434,101.66848827752983 12.453983516665176,101.09337984892773 11.563873626291752,100.32656781654805 11.563873626291752,93.68082551792031" stroke="#4dd2ff" stroke-linecap="round" stroke-linejoin="round" stroke-width="0.5"><title>2021-05-18 1.1km</title></polyline><polyline fill="none" points="37.0,97.21597172370821 37.9003410381265,98.06209703764762 42.299734747968614,99.9188615022722 45.06214475177694,99.84835172355815 46.92421371722594,100.27141008287435 50.13679424021393,99.895358245034 53.67677150433883,98.8612126311491 54.67942402418703,98.25012447715562 56.29594543389976,97.12195761447947 60.14285714284051,93.33785892695596 59.52898825309239,92.58573277427058 58.01477832510136,93.76092884450918 49.15460401668679,94.72458529734286 47.865479348110966,94.37202851056645 40.887836301582865,94.16049418812327 40.51951496768743,94.74808906455291 40.60136415308807,94.51305128788226 40.19211822655052,94.67757775592327 39.76241000369191,95.57071945742064 39.128078817622736,95.82925985152542 37.286472148494795,95.45320100369281 37.02046229620464,94.95962286536815" stroke="#4dd2ff" stroke-linecap="round" stroke-linejoin="round" stroke-width="0.5"><title>2021-05-10 2.5km</title></polyline><polyline fill="none" points="85.85714285715949,103.81901858469064 85.74190871370956,103.15720838669222 84.95447540015448,102.34097311219375 83.7061055127997,102.95866494542861 83.0723177237669,102.7601213279122 83.03390634269454,102.14242894631752 83.45643153530546,101.43649270702736 83.30278601078317,99.47309582488379 82.84184943686705,98.81127276693587 80.40272673394065,99.56133875134401 78.7702430349309,99.38485286370269 78.71262596338056,98.87745516083669 74.4873740368057,98.94363753523794 72.27871962066274,98.59066464568605 68.74487255490385,99.23042759775126 66.22892708959989,99.29660986764065 64.23153526976239,98.85539436506224 62.714285714318976,96.23014412712655 64.92294013046194,94.64174246491166 65.90243034972809,93.5607404375769 67.91902786015999,92.52385603210132 68.16870183753781,91.77376644400647 70.30053349141963,90.8251201264793 72.35554238292389,89.41317396903469 71.52969768818002,90.33976464046282 69.24422050989233,91.33253609923122 67.09318316541612,89.43523569629178 65.72957913461141,89.03812427243975" stroke="#4dd2ff" stroke-linecap="round" stroke-linejoin="round" stroke-width="0.5"><title>2021-05-08 2.6km</title></polyline><polyline fill="none" points="111.57142857136205,92.42594468028983 111.41992050502449,94.03570841200417 106.87467851303518,94.29675062579918 106.19289221428335,95.55845248090918 99.18564414302818,93.94869430654217 95.54945054952987,94.25324360097875 94.22375496849418,94.99286244047107 89.07248071092181,93.86168018370518 88.42857142863795,94.9058485236892 93.80710778571665,96.82015072734794 101.60977320559323,97.60327196161961 111.41992050502449,100.43119817684055" stroke="#4dd2ff" stroke-linecap="round" stroke-linejoin="round" stroke-width="0.5"><title>2021-05-08 1.3km</title></polyline><polyline fill="none" points="137.28571428579744,96.04076824750518 136.7025388405891,96.35806725875591 133.2648730580695,95.08886952380999 132.71239105740096,95.58244695627945 129.21333838580176,94.24273519671988 126.94202349381521,95.300402792549 122.00037893140689,95.6177024609351 118.83895414939616,94.59529140978702 115.64683592272922,95.15938062727218 114.54187192115933,94.9831028424378 114.14285714284051,94.41901334677823 119.26866237202194,94.63054701199871 122.27661993191577,95.97025731782196 127.18757104978431,95.82923541680793 137.10155361890793,98.6144076604105" stroke="#4dd2ff" stroke-linecap="round" stroke-linejoin="round" stroke-width="0.5"><title>2021-05-07 1.5km</title></polyline><polyline fill="none" points="139.96395604405552,100.87299825219088 139.85714285704307,100.25856752577238 141.56615384621546,99.68509802198969 142.2782417582348,97.9646847283002 151.21494505507872,92.63955049225478 154.06329670338891,93.45880638709059 154.73978021973744,94.35998599231243 155.55868131876923,92.35281054466031 155.23824175819755,91.98414460499771 155.23824175819755,93.37688087078277 155.06021978030913,92.92629024054622 154.38373626372777,94.48287396790693 155.27384615386836,93.45880638709059 154.41934065939859,94.35998599231243 154.88219780195504,92.84436461853329 154.5617582416162,94.44191131342086 155.34505494497716,93.74554556599469 156.8048351649195,93.9913218462898 158.97670329664834,93.21302978950553 160.97054945048876,93.29495533820591 163.0,94.48287396790693 161.6826373625081,93.58169463093509 160.08043956034817,93.37688087078277 156.34197802189738,94.27806065502227 154.4905494505074,93.09014143570676" stroke="#4dd2ff" stroke-linecap="round" stroke-linejoin="round" stroke-width="0.5"><title>2021-05-06 1.2km</title></polyline><polyline fill="none" points="171.34620577911846,98.53952947506332 172.35241695935838,96.37842561342404 179.52714015659876,91.05101413253578 182.54577369685285,87.83443682012148 186.52687010541558,85.72354691661894 188.05806103162467,87.18106707069091 188.71428571408615,102.00732813405921 187.88306778273545,97.58462424844038 175.85228193365037,104.16840810855501 172.70240345667116,101.15294514945708 166.79638131242245,104.369438337686 165.57142857136205,106.42999361036345 166.84012962458655,107.13359594051144 170.60248447209597,103.61557456941227 172.00243046181276,100.3990766198549 171.21496084262617,99.2431427067495" stroke="#4dd2ff" stroke-linecap="round" stroke-linejoin="round" stroke-width="0.5"><title>2021-05-06 1.8km</title></polyline><polyline fill="none" points="25.304364043287933,119.63472422634368 27.389033942483366,119.00610576893087 27.600522193242796,118.34256282169372 25.183513614349067,117.36470773193287 25.48563968669623,117.43455461607664 25.123088399879634,117.81871222535847 26.905632226844318,118.51717951043975 28.476687803165987,118.27271612148616 27.963073480059393,120.54272664344171 29.53412905638106,119.6696474404016 29.473703841795214,120.33318783622235 30.108168593840674,120.29826468924875 32.46475195826497,122.18410956606385 34.18687057052739,122.5682618888386 34.21708317787852,123.54610223532654 33.67325624753721,124.31440342121641 34.428571428521536,127.8066599839658 33.79410667659249,129.06386369661777 16.995897053391673,127.07328903686721 12.312942931661382,127.70189280124032 11.285714285681024,128.47018473630305 12.010816859430633,127.73681519911042" stroke="#4dd2ff" stroke-linecap="round" stroke-linejoin="round" stroke-width="0.5"><title>2021-05-02 1.6km</title></polyline><polyline fill="none" points="44.08933092234656,117.69258625415387 45.72983725136146,118.37010346463649 47.72188065131195,116.67630915058544 55.63146473793313,115.3890226012445 59.1468354430981,116.81181285361527 60.14285714295693,119.18312321125995 58.912477396428585,125.9582493120688 48.95226039784029,129.48128774855286 37.70307414093986,131.03954882733524 37.0,129.8877909888397 41.86292947549373,115.93103829259053" stroke="#4dd2ff" stroke-linecap="round" stroke-linejoin="round" stroke-width="0.5"><title>2021-05-01 1.0km</title></polyline><polyline fill="none" points="73.75392612954602,122.26409568695817 72.35193917294964,124.50011985120364 70.27313092700206,120.1957652666024 70.36981968255714,118.63053709123051 72.06187290605158,116.00317981373519 74.72081368579529,114.88515164516866 81.58571533532813,114.99695456383051 85.5982986940071,111.64285714289872 80.52213902352378,115.2205603334587 68.58107770350762,113.59941645013168 67.56584576936439,114.10253057884984 65.58372627897188,118.35103159263963 64.90690498938784,128.74854079651413 64.08505056682043,131.43173716962337 63.11816301033832,131.82303555042017 62.97312987712212,134.78571428573923 63.74663992202841,134.39441800618079 64.08505056682043,132.54973180714296 65.3903487676289,118.01562480744906 67.13074636901729,116.28268650179962 67.85591203602962,116.7298969082185" stroke="#4dd2ff" stroke-linecap="round" stroke-linejoin="round" stroke-width="0.5"><title>2021-05-01 1.8km</title></polyline><polyline fill="none" points="108.01558609242784,121.11196604790166 107.20879830309423,121.2492628138425 105.89403301675338,122.19317514655995 104.29539795266464,122.12452714961546 104.01152817485854,122.46776686352678 104.05634971876862,122.14168915140908 102.9806326663238,122.50209079768683 100.44074518128764,122.17601314984495 98.94669371948112,122.3476330406993 98.49847828102065,122.10736514616292 96.86996218765853,122.41628094959015 93.19459559163079,122.50209079768683 89.53416951029794,122.12452714961546 88.42857142857974,123.06843473330082 88.50327400164679,123.39451070840005 92.80614221154246,124.23544066575414 93.26929816475604,124.09814625648141 94.12090749799972,124.54435269045644 96.39186571986647,124.57867621489277 97.81121460848954,125.12785168494156 98.4237757078372,124.93907281266002 100.03735128656263,125.31663035246311 100.44074518128764,125.62554045740399 101.44175966066541,125.74567201673926 101.71068892377662,125.53973214994767 102.44277414004318,125.88296512588568 103.35414553165901,125.72851037052169 104.87807802268071,126.17471262297477 105.01254265429452,125.76283366132702 105.34123397589428,125.72851037052169 105.95379507512553,126.05458135988738 106.16296227986459,125.5568938148208 107.05939315690193,125.07636655832175 108.13511020934675,123.99517537841166 109.33035137876868,123.53180567294476 109.95785299275303,122.77668202701898 111.00368901598267,122.45060489393654 111.57142857147846,121.66115246160189 111.27261827909388,120.75156152168347 110.80946232593851,120.25385880560498 109.8682099050493,120.85453431966016 108.43392050173134,120.76872365892632 108.3442774140276,121.31791115620581 106.32730794063536,122.31330907608208 106.74564234993886,122.70803426031489 107.02951212762855,122.5192527621839 108.00064557779115,123.25721563551633 108.80743336724117,123.1370823578327 108.86719542567153,122.93113940308103" stroke="#4dd2ff" stroke-linecap="round" stroke-linejoin="round" stroke-width="0.5"><title>2021-04-30 3.7km</title></polyline><polyline fill="none" points="137.10291130677797,121.70248609929695 135.6404874746222,123.8022181186243 134.83615436707623,123.92820171057247 126.86594448215328,121.74448084121104 119.77318889647722,121.70248609929695 120.72376438742504,122.50038548643352 114.14285714295693,120.52663164533442 119.40758293843828,122.37440147198504 127.8165199731011,123.17229960003169 136.48138117813505,125.90193978321622 137.28571428591385,125.73396243099705 136.18889641179703,125.35601314654923" stroke="#4dd2ff" stroke-linecap="round" stroke-linejoin="round" stroke-width="0.5"><title>2021-04-29 1.4km</title></polyline><polyline fill="none" points="148.7506122449413,122.64475663279882 150.63510204094928,121.16354731083266 149.9738775511505,119.98617173204548 151.13102040800732,119.60637239000062 159.03265306109097,112.04828753852053 159.95836734690238,111.93434542516479 163.0,115.4285548896878 159.1318367344793,117.93525083211716 159.56163265299983,117.9732309479441 157.14816326508299,120.59384989988757 158.17306122439913,120.21405115746893 158.4044897959102,119.3405126275029 157.24734693870414,120.29001093588886 151.72612244891934,126.97441273592995 147.9902040817542,129.17720153386472 145.44448979583103,131.41795651457505 145.27918367343955,132.86114773136796 143.19632653065491,134.49422600341495 141.47714285727125,133.6207198825432 139.8571428571595,131.30402013548883 139.9893877551658,129.0632644915022 142.27061224495992,127.9998504689429 143.09714285715017,126.70855806296458 145.3783673469443,125.7210962412646 145.8081632653484,124.73363188607618 146.93224489793647,124.08798074553488 147.26285714283586,122.94859373787767 148.1224489796441,122.30293960290146 149.08122448972426,122.53081765663228 149.27959183673374,121.80920335714472" stroke="#4dd2ff" stroke-linecap="round" stroke-linejoin="round" stroke-width="0.5"><title>2021-04-26 2.2km</title></polyline><polyline fill="none" points="179.2254134445684,130.69669543372584 179.85649111191742,129.82668408052996 180.5885412056232,120.69140932091977 183.0623656611424,111.64285714286962 180.790486059268,120.54640266939532 178.9982254842762,121.3874402520305 176.39818549552,121.21343267383054 173.69717307994142,121.61945019592531 172.28355910547543,122.4894858536718 171.2990779444808,123.88153754669474 171.22334862453863,132.4077102462179 172.35928842553403,134.49571482351166 173.1165816260036,134.78571428571013 173.6214437597664,134.52471478260122 176.34769928222522,132.23370919501758 177.2816942295758,132.87171254580608 178.1904460703954,132.20470900976215 178.36714781716,131.45070318930084" stroke="#4dd2ff" stroke-linecap="round" stroke-linejoin="round" stroke-width="0.5"><title>2021-04-25 2.2km</title></polyline><polyline fill="none" points="23.75139039964415,161.57142857142026 23.068938327836804,156.48881911006174 23.44546360883396,153.59601522693993 23.068938327836804,148.21585946154664 23.42193077877164,138.83412898430834 23.13953681802377,138.42857142855064 22.551216066349298,138.83412898430834 21.962895314674824,148.4051129653235 22.198223615414463,157.81355087601696 23.13953681802377,158.08390351053094 23.210135308094323,157.84058615152026 23.327799458638765,153.21751526230946 23.021872667595744,156.81324380839942" stroke="#4dd2ff" stroke-linecap="round" stroke-linejoin="round" stroke-width="0.5"><title>2021-04-18 2.2km</title></polyline><polyline fill="none" points="60.14285714284051,153.29425466191606 55.99836266878992,152.8753354504588 43.46541137958411,149.10504209555802 37.92836676212028,148.57186632679077 37.0,147.962521689391 43.598035202594474,147.88635354221333 45.05689725757111,146.70574533808394 47.90830945549533,148.00060575746465" stroke="#4dd2ff" stroke-linecap="round" stroke-linejoin="round" stroke-width="0.5"><title>2021-04-16 1.0km</title></polyline><polyline fill="none" points="85.85714285710128,151.85609610054235 85.17931858927477,152.03683598682983 84.90092647931306,151.4668094044464 84.41676628804998,151.2721656532376 83.79946204414591,151.42510005178337 83.58158995810663,151.2443593810749 83.27898983855266,150.82726464112056 83.81156604894204,149.8818453278509 83.63000597717473,149.18668002246704 83.26688583381474,149.03374319522118 80.44665271963459,149.2283900375187 78.03795576805715,149.01983983903483 76.86386730422964,149.29790670175862 76.36760310817044,149.10325995543099 75.56873879255727,149.18668002246704 75.37507471605204,149.01983983903483 73.80155409435974,149.20058336216607 73.24476987443632,149.0059364814806 72.60325762099819,149.18668002246704 71.96174536756007,148.92251630745886 70.60609683202347,149.1727766814147 69.4925283920602,148.72786904277746 68.57262402866036,148.83909608410613 68.0521518230671,148.19953939794505 67.1080394500168,148.25515313800133 66.2486551105394,147.99098767715623 65.89763897191733,148.15782907845278 65.41347878059605,147.68511126183148 64.69934249849757,147.93537383283547 63.658398087194655,147.58778680866817 63.05319784814492,147.90756690247508 63.47683801554376,147.60169030608085 63.57367005373817,148.07440840247727 62.71428571426077,148.03269804599404 63.440526001155376,147.768532168222 63.089509862533305,147.85195302522334 63.464734010747634,147.82414607839019 63.16213389119366,147.9492772959784 63.35579796769889,148.15782907845278 63.15002988639753,147.99098767715623 63.440526001155376,147.89366343518486 63.35579796769889,147.74072520490154 63.113717872067355,147.82414607839019 63.19844590552384,148.03269804599404 63.57367005373817,147.87975996655587 63.39210998202907,147.81024260287813 63.36790197249502,148.00489113479853 63.464734010747634,147.7546286872821 63.33158995816484,148.00489113479853 63.41631799156312,147.81024260287813 63.47683801554376,147.96318075773888 63.29527794383466,147.46265527012292 63.404213986883406,147.82414607839019 63.34369396290276,147.58778680866817 63.36790197249502,147.82414607839019 63.125821876805276,147.64340079014073 63.21054991031997,147.51826930095558 63.29527794383466,147.64340079014073 63.113717872067355,147.7129182361241 63.35579796769889,147.83804955247615 63.16213389119366,147.7268217212113 63.39210998202907,147.51826930095558 63.2226539151161,147.81024260287813 63.02898983861087,147.81024260287813 63.2226539151161,147.44875175897323 63.04109384334879,147.5738833098876 63.33158995816484,147.82414607839019 63.125821876805276,147.69901474965445 63.16213389119366,147.82414607839019 63.2226539151161,147.7129182361241 63.283173938980326,148.29686342869536 63.16213389119366,149.60377961714403 64.33622235502116,149.8540387814719 64.43305439327378,150.07649099895207 65.48610280931462,149.97916819700913 66.09130304842256,150.20162021700526 70.92080095637357,150.41016866694554 75.68977884040214,151.0219090066821 77.97743574413471,151.10532793823222 78.99417214584537,151.32777818097384 80.16826060967287,151.92561146889057 82.00806933641434,151.71706526105118 82.20173341297777,152.0507390454295 82.45591751340544,151.93951453841873 84.18679019721458,152.3009938653704 84.48939031676855,152.55124824102677 85.03407053195406,152.4261211087287 85.20352659886703,151.9117083979363 85.68768679018831,151.71706526105118" stroke="#4dd2ff" stroke-linecap="round" stroke-linejoin="round" stroke-width="0.5"><title>2021-04-09 4.9km</title></polyline><polyline fill="none" points="111.1042590951547,151.23832400713582 103.84516415279359,149.1331830608833 103.01863354071975,148.34891215793323 97.9157054128591,148.76168650068576 94.2142857145518,148.39018961059628 94.89707187237218,148.80296391260345 94.57364685018547,148.96807351932512 88.42857142863795,147.5646397852979 93.5314995564986,149.09190568162012 100.86246672598645,149.71106594376033 111.03238686802797,152.4353602147021 109.66681455215439,151.89875820017187 111.57142857159488,151.65109549998306 111.06832298147492,151.0319381080044" stroke="#4dd2ff" stroke-linecap="round" stroke-linejoin="round" stroke-width="0.5"><title>2021-04-09 1.4km</title></polyline><polyline fill="none" points="115.06331168836914,148.71620352956234 116.18100649362896,149.66018206757144 124.26785714295693,152.7564153354615 127.8510551948566,152.60538014720078 130.97402597416658,153.247279285657 136.75974025996402,152.60538014720078 137.28571428568102,151.96347993260133 134.95170454564504,151.35933757101884 132.1574675325537,151.92572106292937 129.2646103897132,150.8307122225524 126.86485389620066,151.01950707368087 122.7885551948566,148.9427585908852 122.26258116890676,147.96101902311784 119.92857142863795,147.05479564901907 118.15340909105726,146.75272071437212 114.14285714284051,147.7344633806788" stroke="#4dd2ff" stroke-linecap="round" stroke-linejoin="round" stroke-width="0.5"><title>2021-04-08 1.4km</title></polyline><polyline fill="none" points="162.849721706938,150.9666435366671 163.0,151.76066637740587 161.04638218926266,151.7951890688273 155.87680890539195,150.0345274686406 148.06233766232617,149.65477576619014 143.94471243035514,148.20481093114358 139.8571428571595,148.8262251674023 143.7343228199752,148.37742610744317 147.85194805194624,149.62025286379503 155.51614100195002,149.96548173521296" stroke="#4dd2ff" stroke-linecap="round" stroke-linejoin="round" stroke-width="0.5"><title>2021-04-06 1.3km</title></polyline><polyline fill="none" points="172.63900769874454,146.52494646731066 175.54918733937666,145.61607050715247 176.750213857973,146.5784097100841 176.750213857973,147.5942102909321 175.96492728823796,148.02191521140048 177.35072711692192,149.5188796928851 178.7827202733606,149.67926849174546 180.6304533786606,148.8238609993714 182.7091531220358,146.20416689605918 184.55688622733578,146.8991890529869 186.08126603928395,145.99031373980688 188.6680923863314,146.31109344144352 188.6680923863314,143.04982402006863 188.39093242073432,145.02797346032457 186.86655260901898,144.76065640343586 188.71428571408615,145.08143685548566 188.6218990588095,146.4714832189493 184.64927288261242,146.84572584263515 182.7091531220358,146.15070361521794 179.56800684332848,150.1069717159262 180.30710008530878,149.46541674912442 176.8426005130168,149.41195379995042 176.1497005985584,148.2357675412204 177.16595380660146,148.2357675412204 177.07356715132482,147.70113655360183 175.8725406327285,145.56260716635734 175.36441402882338,146.31109344144352 174.34816082101315,146.20416689605918 173.05474764714018,148.98425001028227 168.75876817759126,151.22969102376373 167.37296834867448,153.79589758103248 167.1881950381212,151.81778113287874 166.81864841701463,154.3305223705829 166.4952951236628,153.1543471161276 166.81864841701463,153.9562850750517 166.5414884511847,153.2612722479971 168.43541488423944,154.22359745617723 169.95979469595477,156.52247832308058 171.9461077840533,156.3620916121872 172.50042771571316,155.23938326479401 171.29940119734965,154.70475939969765 172.3618477329146,154.70475939969765 171.8537211290095,155.34630797273712 171.39178785239346,154.9186090110452 171.9461077840533,155.5601573230233 172.0846877670847,155.02553378406446 172.31565440515988,156.2551671109395 171.53036783542484,156.95017597993137 168.98973481566645,156.7363271950744 166.63387510646135,153.9562850750517 167.04961505508982,151.55046752851922 167.32677502091974,153.4751224463689 165.57142857136205,154.49090970132966 166.07955517526716,153.63551003823522 165.7562018816825,154.70475939969765 167.04961505508982,153.79589758103248 167.23438836587593,151.44354204868432" stroke="#4dd2ff" stroke-linecap="round" stroke-linejoin="round" stroke-width="0.5"><title>2021-04-05 1.9km</title></polyline><polyline fill="none" points="29.486109729972668,182.874352177736 28.57857259863522,183.33125652201124 28.9336958238855,182.78297119712806 29.56502600235399,182.78297119712806 29.70312947873026,182.39460161403986 28.9928830282297,186.62094031469314 27.473744786460884,187.7174908529705 27.394828514079563,188.35714285714494 27.335641309968196,187.7174908529705 29.05207023245748,186.68947488044796 29.62421320658177,184.45066823037632 30.018794568022713,180.88680744508747 29.032341164303944,180.17859759292332 26.901601812336594,179.7902234983776 25.638941455632448,180.77258020092268 22.99524633376859,181.5264789370558 18.18135372363031,184.4278231493081 17.313274728367105,183.0342688041419 16.30709225672763,183.468327643699 15.83359462278895,183.28556612947432 13.071525092469528,171.4285945227457 12.913692547939718,169.25817536185787 14.314456381136551,175.6094479951571 14.748495878768153,175.79221576709824 19.818866373738274,173.48476171219954 23.725221852422692,172.22821733748424 26.171626293566078,170.8574336230231 29.604484138428234,168.09299430117244 31.636578150093555,165.21428571428987 32.80059316637926,165.80830797379895 32.66248968988657,165.99108373692434 32.18899205618072,165.83115495233505 32.4651990091661,165.60268506214197 32.4651990091661,165.96823677470093 32.583573417621665,165.3513679139287 31.91278510307893,165.55699105607346" stroke="#4dd2ff" stroke-linecap="round" stroke-linejoin="round" stroke-width="0.5"><title>2021-04-05 3.7km</title></polyline><polyline fill="none" points="42.83978638192639,168.39462557143997 46.516688918694854,171.31691999925533 49.544726301915944,179.74976831802633 49.616822429932654,184.00790626066737 51.27503337804228,183.67393545759842 52.933244325686246,185.17680299998028 56.682242990937084,182.42154373251833 60.1428571427241,183.3399645179743 53.07743658218533,181.67010777798714 53.07743658218533,184.4253695734078 53.4379172232002,180.58469907118706 53.29372496670112,184.5923548389692 53.51001335121691,183.256471761968 50.62616822402924,183.84092087624595 52.57276368513703,182.58852940646466 53.58210947923362,184.4253695734078 51.779706275090575,183.256471761968 53.07743658218533,182.92250065220287 52.789052069652826,184.50886221032124 53.58210947923362,184.50886221032124 52.644859813153744,182.83900785335572 54.30307076079771,184.92632526782108 52.644859813153744,183.4234572655405 52.789052069652826,182.0875722822966 54.01468624873087,184.00790626066737 52.861148197669536,182.1710651575122 50.91455273702741,182.0875722822966 50.04939919896424,184.25838427391136 50.26568758348003,183.17297899740515 46.588785046711564,180.41771298879758 48.0307076103054,175.07414037082344 46.588785046711564,175.65859532402828 46.660881175193936,173.48776053875918 42.4072096128948,171.14993202721234 37.0,171.6508958415361 40.02803738322109,172.73631638777442 41.03738317778334,175.57510178466327" stroke="#4dd2ff" stroke-linecap="round" stroke-linejoin="round" stroke-width="0.5"><title>2021-04-04 1.4km</title></polyline><polyline fill="none" points="77.00079808454029,166.42605263722362 69.82521947310306,169.69365809333976 62.90822027134709,177.71408405760303 69.43735035927966,184.91754192020744 73.25139664812014,180.61032798164524 77.7118914606981,178.753762646229 77.84118116553873,176.30308938998496 81.97845171578228,173.25830240885261 75.90183559455909,165.53488505014684 70.7948922587093,168.95102173567284 62.714285714318976,178.15966077148914 69.30806065443903,184.1006584125571 73.18675179569982,179.57065195811447 79.52194732637145,178.53097449807683 81.39664804493077,177.11998136213515 82.36632083007134,173.40682888880838 82.10774142062292,172.738459497632 81.33200319251046,174.22372400481254 79.0694333598949,175.33767046168214 79.00478850770742,174.66930278541986 85.8571428572759,170.1392395562725 83.33599361544475,168.80249437619932 80.68555466877297,165.53488505014684 79.1987230645027,167.98559337487677 74.67358339997008,166.05473293748219 65.75259377481416,174.0751976860338 62.972865123534575,178.01113522954984 69.43735035927966,184.1006584125571 73.25139664812014,180.09049014939228 73.83320031920448,180.5360654562246 72.21707901032642,182.76393803261453 81.0734237828292,184.62049347464927 83.91779728676192,188.03654352127342 77.90582601749338,177.04571849212516 78.55227454123087,175.04061823431402 81.71987230679952,172.36714291304816 78.22905027936213,170.21350310766138 76.28970470861532,166.50031655514613 74.93216280941851,165.9804689756129 73.76855546678416,166.79737215361092 74.35035913833417,167.31721916876268" stroke="#4dd2ff" stroke-linecap="round" stroke-linejoin="round" stroke-width="0.5"><title>2021-04-02 3.1km</title></polyline><polyline fill="none" points="102.62613981764298,185.72942619532114 99.91793313075323,184.78677636021166 94.80927051673643,184.6925111721357 89.26975683891214,183.96195470365637 88.79787234042305,183.51419318340777 88.42857142852154,181.27537299469986 88.96200607903302,180.8511731212202 90.06990881462116,180.80403975537047 89.064589665737,177.66965006171085 89.31079027359374,173.42755340767326 90.84954407298937,171.23577395551547 91.46504559274763,169.75100870768074 94.39893617015332,167.72417140823381 95.58890577510465,169.0204065471189 96.69680851069279,169.25608490752347 97.27127659576945,169.939550837953 99.69224924012087,169.939550837953 103.426291793352,170.52874403604073 105.23176291794516,171.47145013038244 108.22720364737324,174.13457474780444 111.05851063819136,179.03653182649578 111.14057750755455,179.67283618729562 110.4840425531147,180.23843864086666 110.21732522791717,181.13397312052257 110.79179331299383,181.11040646670153 111.57142857147846,183.1135637434054 111.05851063819136,184.17405197306653 109.273556230939,184.50398068447248 108.8427051671315,185.04600543562265 107.83738601813093,184.55111332028173 107.40653495443985,184.73964377082302 106.33966565341689,184.40971538484155 105.8267477202462,185.847257163201 105.66261398175266,185.68229379189142" stroke="#4dd2ff" stroke-linecap="round" stroke-linejoin="round" stroke-width="0.5"><title>2021-04-02 3.2km</title></polyline><polyline fill="none" points="116.56763925740961,174.8290596564475 124.39446760143619,178.31931194654317 128.63016294047702,178.28405704320176 131.20841227739584,178.88338992578792 134.67677150445525,178.03727262315806 137.28571428568102,178.07252755062655 131.39257294428535,178.84813507826766 128.81432360748295,178.2488021365425 124.64001515728887,178.4603315248387 119.23796892771497,176.9091131039895 114.14285714284051,174.68803864566144" stroke="#4dd2ff" stroke-linecap="round" stroke-linejoin="round" stroke-width="0.5"><title>2021-04-01 1.4km</title></polyline><polyline fill="none" points="139.85714285704307,173.8707946492941 142.47065700241365,176.52468625994516 145.53869534702972,177.17728011184954 149.1370119242929,179.04804380319547 154.06102408235893,178.96103171439609 156.78816927736625,179.70063392212614 163.0,178.96103171439609 158.64414309081621,179.613621962053 153.37923778337426,178.83051354906638 148.6824877250474,179.04804380319547 141.63736263732426,177.13377388502704 140.91769932187162,176.7422176511318 141.75099368719384,176.39416737365536" stroke="#4dd2ff" stroke-linecap="round" stroke-linejoin="round" stroke-width="0.5"><title>2021-03-29 1.2km</title></polyline><polyline fill="none" points="176.72082971525379,188.3571428571595 175.64231517747976,182.27551005763235 174.8920441942755,182.06022978224792 171.2344731532503,176.7858365898137 168.79609245900065,176.57055415550712 176.3925861599855,165.21428571431898 178.9247507271357,166.7751138259191 183.89529598830268,171.8343191803433 183.379484687699,175.44031998649007 185.4896218269132,187.81894798926078 178.7840749179013,183.3519101641723 176.34569422341883,182.86753037810558 176.11123454151675,183.89010942383902" stroke="#4dd2ff" stroke-linecap="round" stroke-linejoin="round" stroke-width="0.5"><title>2021-03-28 1.4km</title></polyline><polyline fill="none" points="22.572307692375034,199.379507933103 23.8896703296341,200.15655635067378 24.210109890205786,199.502199885319 25.491868132026866,199.42040525449556 25.776703296927735,198.76604762728675 26.168351648375392,199.21591860699118 26.773626373615116,198.76604762728675 28.66065934067592,199.82937824717374 29.76439560437575,199.01143185855472 33.00439560436644,199.9929673311126 32.79076923104003,199.17502126528416 34.32175824185833,199.33861060769414 33.18241758248769,198.92963713093195 33.46725274738856,198.2752787291247 33.53846153849736,199.17502126528416 33.36043956060894,198.76604762728675 32.96879120892845,199.2977132780943 33.04000000003725,198.6433554571413 33.53846153849736,199.33861060769414 33.00439560436644,199.17502126528416 34.07252747262828,199.05232921626884 34.07252747262828,199.46130257184268 33.60967032960616,198.88873976102332 32.86197802214883,199.2977132780943 34.35736263729632,199.05232921626884 33.89450549450703,198.68425285126432 33.752087912056595,199.91117279726313 33.111208791378886,199.379507933103 33.04000000003725,199.82937824717374 33.930109889945015,199.25681594459456 33.53846153849736,199.2977132780943 34.42857142863795,200.40193975897273 34.32175824185833,199.21591860699118 33.78769230772741,199.2977132780943 34.07252747262828,199.87027552415384 33.289230769267306,200.1156591019244 33.18241758248769,199.66578909853706 32.755164835136384,200.2792480729695 31.259780219756067,200.07476184910047 31.259780219756067,199.25681594459456 31.615824175765738,206.29109799026628 27.592527472646907,207.1908231319685 24.316923076985404,206.12751139121247 24.566153846215457,206.65916760251275 23.569230769295245,206.12751139121247 17.801318681333214,205.84123468736652 14.917362637585029,206.7000642058556 14.668131868122146,208.17233924171887 13.99164835177362,208.70399283096776 11.677362637361512,208.86757841374492 11.285714285681024,208.21323569581727" stroke="#4dd2ff" stroke-linecap="round" stroke-linejoin="round" stroke-width="0.5"><title>2021-03-26 1.5km</title></polyline><polyline fill="none" points="39.445993031491525,202.1049270813528 46.78397212550044,205.09968118922552 49.36436037835665,204.91443949838867 51.62220009963494,205.40841709711822 54.874564459896646,204.76007133896928 56.16475858632475,204.91443949838867 60.14285714284051,203.49424955999712 56.62170233950019,204.91443949838867 52.07914385269396,205.28492277048645 49.68690890993457,204.79094497693586 47.0258835243294,205.0070603575441 41.30064708809368,203.61774459303706 37.0,201.7344400457223" stroke="#4dd2ff" stroke-linecap="round" stroke-linejoin="round" stroke-width="0.5"><title>2021-03-26 1.6km</title></polyline><polyline fill="none" points="85.8571428572759,205.62492482137168 84.08901285473257,205.39926684994134 81.45646373997442,203.7293944018311 79.21683240355924,203.77452616984374 75.99490662128665,202.5108349857619 68.13655105489306,202.73649438176653 69.31530438992195,203.3232082904142 68.84380305605009,203.45860370088485 62.714285714318976,201.51793232149794 67.6650497210212,203.4134719017602 74.698277952848,203.86478969233576 80.70991996116936,205.30900363012915" stroke="#4dd2ff" stroke-linecap="round" stroke-linejoin="round" stroke-width="0.5"><title>2021-03-24 1.1km</title></polyline><polyline fill="none" points="111.57142857136205,205.26895937227528 109.9048913042061,205.16060682866373 108.26979813666549,203.9326090940449 105.65993788815103,203.49919714560383 103.52173913037404,202.52401838634978 96.9813664596295,202.66848947745166 97.54736024851445,203.28249097903608 92.42197204974946,201.87389777059434 88.42857142852154,202.3795472381462 90.00077639741357,202.59625393897295 92.54774844716303,201.91001561292796 97.26436335407197,203.3547263822402 105.84860248444602,203.7159031839401" stroke="#4dd2ff" stroke-linecap="round" stroke-linejoin="round" stroke-width="0.5"><title>2021-03-23 1.3km</title></polyline><polyline fill="none" points="136.82408814574592,204.72028139748727 129.03799392085057,201.99839409301057 125.86816109414212,202.5286335006822 122.72910334332846,202.1751406493422 123.59080547105987,202.74072904419154 123.25227963516954,202.84677676894353 118.2974924009759,201.3621057680284 114.14285714284051,201.9630447711388 117.98974164121319,201.43280452661566 122.63677811541129,202.7760782892001 128.79179331299383,203.20026895785122 137.28571428568102,205.7807513748412 135.90083586610854,205.10912075347733 137.28571428568102,204.72028139748727" stroke="#4dd2ff" stroke-linecap="round" stroke-linejoin="round" stroke-width="0.5"><title>2021-03-22 1.6km</title></polyline><polyline fill="none" points="159.56487047753762,192.14311102720967 159.88359383528586,192.36661035072757 159.706525303307,193.07774295554555 161.31784894526936,193.32155928583234 161.7428134221118,193.66696526190208 161.60115859645884,194.29682173355832 162.23860531195533,194.72349760867655 163.0,196.04415545410302 162.5396218164824,197.26321675168583 161.86676139466,197.5476633541548 161.61886544979643,198.2790956790268 158.34309760620818,201.12353013805114 154.73089955176692,202.52541559214296 153.5976609464269,203.2568303191656 152.73002513928805,203.98824246047297 150.1979451305233,207.48273144933046 139.8571428571595,214.9997461156454" stroke="#4dd2ff" stroke-linecap="round" stroke-linejoin="round" stroke-width="0.5"><title>2021-03-21 1.3km</title></polyline><polyline fill="none" points="176.06226490694098,201.56084183616622 175.76851167774294,199.68241874178057 173.7542038206011,197.17783220781712 172.93589125364088,196.93700523000734 170.16621794982348,199.4656766885455 167.41752701974474,202.95760864538897 166.7251086938195,203.1502655112563 165.96974324737675,205.19723535380035 167.2496680316981,207.02745272906031 170.29211219097488,208.472351524455 173.58634483243804,211.14539182948647 173.39750347076915,211.28987966380373 173.83813331462443,211.24171706182824 173.43946821801364,211.02498523588292 173.94304518215358,211.86783014863613 175.05511097831186,213.19229486734548 179.27256805438083,215.14285714285506 181.45473489968572,214.92612876798376 186.59541641024407,211.33804225626227 187.28783473628573,209.89316036291711 188.31597103842068,205.26948103576433 187.28783473628573,203.48741466199863 183.44806038343813,199.94732543524879 179.29355042800307,194.72138592321426 176.2091415214818,192.0 172.74704989197198,196.81659165225574 173.37652109737974,196.88883980600804 174.23679841135163,197.68356809073885 175.91538829240017,199.82691333736875 175.89440591889434,200.5012203231454" stroke="#4dd2ff" stroke-linecap="round" stroke-linejoin="round" stroke-width="0.5"><title>2021-03-20 3.7km</title></polyline><polyline fill="none" points="32.14848698093556,236.18444657346117 24.244194229366258,233.6527601929265 15.883884588489309,233.3908607751655 11.399718508124352,232.43056158415857 11.285714285681024,230.85915841310634 11.931738212471828,230.16075521256425 11.323715693317354,228.98219731246354 11.47572132293135,226.93062607294996 13.869809992844239,224.5298391408287 17.82195636886172,225.0099975692574 21.850105559453368,226.36316851896117 29.450387051329017,226.18856604839675 33.516537649556994,225.53380616972572 34.01055594650097,224.9663468245417 33.28852920490317,226.6250720959215 32.83251231512986,232.2559615074424 33.21252639009617,235.1368539656687 34.42857142863795,235.3551026301575" stroke="#4dd2ff" stroke-linecap="round" stroke-linejoin="round" stroke-width="0.5"><title>2021-03-19 1.6km</title></polyline><polyline fill="none" points="46.37885316554457,230.12072870226984 51.40835266828071,232.27938580149203 53.35929731535725,232.15603456941608 55.05966191587504,232.52608804662304 56.84951939014718,232.13547602368635 57.798143851570785,232.21771019458538 60.14285714284051,231.51871870773903 55.79350348038133,232.5055295373022 53.55618163757026,232.15603456941608 51.050381173496135,232.2588272678986 41.045077892020345,229.07223004521802 37.0,228.64049377107585 37.87703016248997,228.76384708344995 37.28637719596736,228.51714038562204 37.46536294335965,228.41434584201488 38.82565462379716,228.49658148099843 40.63341067289002,228.18819766766683 41.24196221411694,228.64049377107585 41.59993370901793,228.41434584201488 42.02949950285256,228.8255237123376 42.40536957245786,228.70217043644516 42.88863109063823,229.11334773898125 43.497182631865144,228.88720032288984 44.750082863844,229.79178851486358 45.00066291016992,229.48340661777183 44.3563142195344,228.51714038562204 44.10573417309206,228.5376992882957 44.19522704673,229.23670077153656 45.358634405070916,229.8123472918087 45.84189592313487,228.66105266156956 46.11037454439793,229.2161419378681 46.46834603918251,229.1544654245663 46.09247596957721,229.25725960324053 46.30725886649452,229.19558310210414 45.78820019890554,228.476022574323 46.55783891293686,228.41434584201488" stroke="#4dd2ff" stroke-linecap="round" stroke-linejoin="round" stroke-width="0.5"><title>2021-03-19 3.1km</title></polyline><polyline fill="none" points="72.45302253274713,241.9285714285652 72.32304439420113,241.52546807244653 72.07608593109762,241.48067874439585 71.71214714320377,241.8240632541274 72.15407281415537,239.30091542800074 71.9851012340514,239.91304391274753 72.06308811716735,241.03278473486716 71.81612965406384,241.22687230171869 70.41236575815128,241.1970126922388 70.24339417804731,240.3012216691277 70.36037450272124,239.50993518896576 73.76580173167167,238.74850467036595 76.05341696942924,238.59920411957137 75.97543008631328,224.16114505915903 76.74230110354256,223.17566371365683 78.32803439337295,221.77208829247684 78.04208248859504,221.0553639066202 76.10540822485927,218.78571428571013" stroke="#4dd2ff" stroke-linecap="round" stroke-linejoin="round" stroke-width="0.5"><title>2021-03-18 2.7km</title></polyline><polyline fill="none" points="96.27749552665045,240.01886642799946 96.92541912960587,240.131202725388 97.02321891870815,240.67884090576263 97.26771839149296,240.8192606126686 98.5880155445775,241.0860576742998 100.29951185418759,240.93159627846035 101.48533429723466,241.2686027441232 102.58558192482451,241.9285714285652 102.8667563184863,241.04393185566005 102.70783166121691,237.29468407812237 103.72250447334955,237.19638786430005 102.26773261016933,236.78915996958676 100.86186064156936,236.71894814589177 100.23838698596228,236.04491287627025 99.00366464833496,223.27976736726123 100.34841174870962,221.70686493214453 101.30195969261695,221.15915375344048 100.61736116878456,219.93732891215768 99.44376369938254,218.78571428571013" stroke="#4dd2ff" stroke-linecap="round" stroke-linejoin="round" stroke-width="0.5"><title>2021-03-17 2.8km</title></polyline><polyline fill="none" points="114.92249240144156,229.1081994283304 115.20972644397989,229.1081994283304 116.64589665690437,229.72090058031608 117.05623100325465,230.23933940310962 121.32370820688084,231.41760736316792 125.83738601836376,232.03030555442092 127.3556231004186,231.93604434552253 128.42249240144156,232.17169733328046 128.95592705183662,232.3602196397551 131.08966565364972,232.69013349735178 132.8541033435613,233.39709099684842 133.42857142863795,233.53848237119382 134.41337386053056,234.05691705274512 135.23404255346395,234.57535117174848 135.56231003068388,234.66961186027038 135.9316109425854,234.85813318155124 136.83434650488198,235.09378472852404 137.28571428591385,235.0466544284718 137.2446808514651,235.0466544284718 137.2446808514651,235.0466544284718 137.1215805474203,235.09378472852404 137.2036474167835,235.0466544284718 137.2446808514651,235.0466544284718 137.28571428591385,235.09378472852404 137.03951367805712,235.0466544284718 136.50607902766205,235.0466544284718 134.70060790283605,235.09378472852404 133.46960486355238,234.71674219763372 132.27963525848463,234.48109046471654 131.08966565364972,234.38682973908726 129.8996960488148,234.43396010412835 129.28419452928938,234.48109046471654 128.09422492422163,234.57535117174848 127.56079027359374,234.57535117174848 125.7142857145518,234.43396010412835 125.13981762947515,234.2925689946278 124.03191489377059,234.0097866503056 123.45744680869393,233.7270041386655 122.3495440732222,233.34996052924544 121.77507598814555,233.1614386131696 119.43617021292448,232.69013349735178 117.91793313086964,232.07743615205982 117.79483282705769,231.79465249695932 118.28723404277116,231.70039124137838 118.4924012159463,231.70039124137838 118.65653495467268,231.5118686746282 118.4924012159463,231.46473802119726 118.08206686936319,231.37047670056927 117.87689969618805,231.3233460333431 117.7537993923761,231.27621536140214 117.50759878451936,231.27621536140214 117.34346504579298,231.18195400355035 117.13829787261784,231.18195400355035 116.93313069920987,231.18195400355035 116.64589665690437,231.08769262718852 116.4407294834964,230.99343123225844 116.31762917945161,230.94630052775028 115.90729483310133,230.71064693579683 115.78419452905655,230.61638546639006 115.57902735588141,230.47499322742806 115.45592705183662,230.380731711688 115.33282674802467,230.23933940310962 115.1686930092983,230.05081625989988 114.88145896675996,229.815162226354 114.63525835890323,229.6737697503413 114.51215805485845,229.57950807645102 114.3069908816833,229.34385381051106 114.22492401232012,228.91967583892983 114.22492401232012,228.54262843704782 114.18389057787135,228.30697365969536 114.14285714295693,228.11844975422719 114.26595744700171,227.74140172023908 114.22492401232012,227.2229601876461 114.22492401232012,226.9873047596775 114.18389057787135,226.845911447017 114.26595744700171,226.7045180926798 114.22492401232012,226.65738696529297 114.26595744700171,226.32746894311276 114.3069908816833,226.09181307346444 114.51215805485845,226.04468188565806 114.92249240144156,225.90328829412465 115.1276595746167,225.8090258765733 115.25075987866148,225.76189466088545 115.49696048651822,225.66763221553992 115.53799392119981,225.66763221553992 115.53799392119981,225.62050098579493 115.57902735588141,225.62050098579493" stroke="#4dd2ff" stroke-linecap="round" stroke-linejoin="round" stroke-width="0.5"><title>2021-03-02 1.4km</title></polyline><polyline fill="none" points="144.10897009959444,230.69717730395496 144.37807308975607,230.8208133385051 147.33820597990416,231.37717519310536 149.22192691033706,232.05717234447366 149.92159468424506,232.3662617150112 151.80531561444513,232.8608043906279 152.50498338835314,232.8608043906279 154.49634551489726,232.7371687585255 155.14219269086607,232.55171526409686 157.13355481694452,232.42807957076002 158.37142857117578,232.8608043906279 159.01727574737743,233.1080755823059 160.1475083057303,233.5407999327872 161.22392026567832,233.7262531343731 162.56943521578796,233.6026176728774 162.78471760754474,233.47898218681803 162.99999999976717,233.6026176728774 162.94617940182798,234.4680653924006 161.97740863775834,234.71533594996436 161.17009966773912,235.39532948011765 160.79335548146628,235.5189645884093 160.41661129542626,235.6425996720791 160.20132890343666,235.6425996720791 159.87840531533584,235.70441720465897 159.66312292357907,235.82805225171614 158.9096345512662,236.1371397629846 159.01727574737743,236.44622712163255 159.39401993341744,236.6934968989226 159.39401993341744,236.75531432812568 159.39401993341744,236.81713175098412 159.44784053135663,236.75531432812568 159.17873754142784,236.6934968989226 158.85581395332702,236.81713175098412 158.74817275744863,236.87894916778896 158.64053156110458,236.94076657871483 158.5867109631654,237.00258398329606 158.5867109631654,237.00258398329606 158.37142857117578,236.6934968989226 158.2637873752974,236.56986202247208 158.10232558101416,236.3844096621615 158.04850498307496,236.26077472476754 157.51029900321737,236.1371397629846 157.29501661099494,236.1371397629846 157.02591362106614,236.1371397629846 156.75681063113734,236.0753222729545 156.43388704303652,236.0753222729545 156.16478405310772,236.0753222729545 155.6265780730173,235.95168727467535 155.35747508285567,235.88986976625165 155.0883720931597,235.82805225171614 154.81926910276525,235.76623473130167 154.28106312290765,235.6425996720791 154.06578073068522,235.5189645884093 153.79667774075642,235.45714703731937 153.52757475082763,235.33351191697875 153.25847176043317,235.20987677230733 153.0431893686764,235.02442400966538 152.55880398652516,234.77715357398847 152.07441860437393,234.52988304081373 151.69767441856675,234.15897705813404 151.4285714281723,234.03534168197075 151.1594684382435,233.91170628118562 150.89036544854753,233.7880708561279 150.62126245815307,233.66443540668115 150.45980066456832,233.6026176728774 150.02923588035628,233.41716443450423 149.81395348836668,233.35534667631146 149.59867109614424,233.29352891189046 149.38338870415464,233.1698933649459 149.11428571422584,233.1080755823059 148.84518272406422,233.0462577936123 148.2531561460346,232.9844399986323 148.037873754045,232.9226221977733 147.76877076388337,232.8608043906279 147.44584717578255,232.8608043906279 147.23056478379294,232.7989865776035 146.69235880370252,232.7371687585255 146.42325581377372,232.61353310168488 145.9388704316225,232.24262598506175 145.4006644517649,232.05717234447366 145.1853820597753,231.99535445211222 144.9162790698465,231.9335365536972 144.59335548174568,231.87171864911215 144.37807308975607,231.80990073853172 144.10897009959444,231.6862648986862 143.6245847174432,231.438993146352 143.35548172751442,231.31535723357229 143.14019933529198,231.19172129634535 142.6019933554344,230.882631346758 142.44053156138398,230.75899532425683 142.22524916916154,230.63535927748308 141.74086378724314,230.3262690534466 141.52558139525354,230.1408148459741 141.2564784050919,229.7699062662432 140.8797342190519,229.3371793125989 140.2338870430831,228.8426338568679 140.2338870430831,228.65717921062605 140.1262458472047,228.34808801108738 140.0186046513263,228.10081494186306 139.85714285704307,227.29717679315945 140.0186046513263,226.98808492318494 140.07242524903268,226.67899290082278 140.1262458472047,226.4317191730952 140.18006644537672,226.24626381340204 140.18006644537672,225.93717142514652 140.18006644537672,225.13353050255682 140.18006644537672,224.57716310647083 140.7720930231735,224.32988854963332 141.20265780715272,224.08261389529798 141.57940199342556,223.9589765315177 141.84850498335436,223.89715784048894 141.95614617923275,223.77352044015424 142.70963455131277,223.7117017309647" stroke="#4dd2ff" stroke-linecap="round" stroke-linejoin="round" stroke-width="0.5"><title>2020-12-25 1.0km</title></polyline><polyline fill="none" points="165.91944146086462,227.68399118908565 166.18045112793334,227.93381970419432 166.39795918366872,228.1836480961647 166.87647690647282,228.48344200401334 168.74704618682154,228.98309812278603 169.74758324376307,229.28289155758102 170.40010741143487,229.43278820853448 173.44522019336,230.63195981888566 174.31525241676718,231.2315445598506 175.31578947370872,231.68123264974565 176.79484425345436,232.23085088460357 177.3603651986923,232.3307814085856 178.4044038669672,232.3307814085856 179.01342642307281,232.3307814085856 180.05746509111486,232.13092034086003 181.01450053718872,232.03098977720947 182.10204081633128,232.08095506147947 182.71106337266974,232.03098977720947 184.4076262083836,232.3307814085856 184.97314715362154,232.53064239761443 186.0606874327641,232.73050330785918 186.66970998956822,232.6805380876176 187.75725026871078,232.6305728625739 188.23576799151488,232.58060763261165 188.71428571431898,232.7804685231531 188.67078410298564,232.83043373338296 188.54027926991694,232.88039893869427 188.4967776585836,232.93036413923255 188.4967776585836,232.98032933467766 188.45327604725026,232.93036413923255 188.36627282504924,233.03029452520423 188.36627282504924,232.93036413923255 188.40977443638258,232.98032933467766 188.45327604725026,233.03029452520423 188.40977443638258,232.98032933467766 188.4967776585836,232.88039893869427 188.45327604725026,232.88039893869427 188.40977443638258,232.88039893869427 188.40977443638258,232.93036413923255 188.40977443638258,232.88039893869427 188.40977443638258,232.88039893869427 188.40977443638258,232.88039893869427 188.40977443638258,232.93036413923255 188.36627282504924,232.93036413923255 188.36627282504924,232.93036413923255 188.3227712137159,232.93036413923255 188.27926960284822,232.93036413923255 188.36627282504924,232.93036413923255 188.36627282504924,232.93036413923255 188.36627282504924,232.93036413923255 188.3227712137159,232.93036413923255 188.3227712137159,232.98032933467766 188.23576799151488,232.93036413923255 187.23523093457334,232.93036413923255 186.10418904409744,232.93036413923255 184.97314715362154,232.6805380876176 184.45112781971693,232.53064239761443 183.36358754034154,232.23085088460357 182.7980665951036,232.13092034086003 181.62352309329435,232.13092034086003 181.05800214828923,232.08095506147947 179.88345864671282,232.1808856150892 178.66541353380308,232.3307814085856 178.09989258879796,232.3307814085856 176.92534908722155,232.28081614905386 176.31632653065026,232.13092034086003 173.57572502689436,231.2315445598506 173.0102040816564,231.0316830582742 171.4006444683764,230.63195981888566 170.96562835644,230.58199439183227 169.22556390985847,230.28220172572765 168.2250268526841,229.83251239400124 167.65950590767898,229.53271928452887 166.57196562853642,228.93313253310043 165.57142857136205,228.58337326720357" stroke="#4dd2ff" stroke-linecap="round" stroke-linejoin="round" stroke-width="0.5"><title>2020-12-08 1.1km</title></polyline><polyline fill="none" points="11.285714285681024,254.75732605491066 11.508241758216172,254.79992505762493 12.991758241550997,255.9500965391926 13.4739010988269,256.12049205377116 15.365384615259245,256.6742770120618 16.255494505399838,256.9298698302882 16.700549450470135,257.1002649583097 17.739010988967493,257.48365375094 18.666208791080862,257.9522395907843 19.148351648356766,258.2504303151509 21.521978021832183,259.0598041006888 22.041208791313693,259.1024026789237 23.524725274648517,258.93200834063464 23.969780219718814,258.8894097454613 26.306318681221455,258.93200834063464 26.788461538264528,258.9746069314715 28.234890109859407,259.40059260939597 29.71840659319423,259.52838823079946 30.163461538264528,259.485789694445 31.127747252816334,259.52838823079946 32.61126373615116,259.3153955073212 33.056318681221455,259.2727969500702 33.983516483567655,259.18759982287884 34.42857142840512,259.14500125305494 34.24313186807558,258.8042125427164 33.20467032957822,258.7616139349702 32.759615384507924,258.8042125427164 31.832417582394555,259.0598041006888 31.498626373475417,259.14500125305494 30.53434065915644,259.3579940604395 30.089285714086145,259.40059260939597 29.162087911972776,259.40059260939597 28.679945054929703,259.3153955073212 27.752747252583504,259.14500125305494 27.307692307746038,259.0172055181174 25.86126373615116,258.7616139349702 25.379120879108086,258.7616139349702 24.41483516478911,258.8042125427164 23.8956043953076,258.8042125427164 22.931318681221455,258.8894097454613 21.96703296690248,258.93200834063464 21.03983516478911,258.8894097454613 20.149725274648517,258.6764167070214 19.70467032957822,258.54862083363696 18.740384615492076,258.2504303151509 18.29532967018895,258.0800356406835 17.405219780048355,257.78184479873744 16.21840659319423,257.44105501295417 15.884615384507924,257.3984562708938 14.994505494367331,257.18546249720384 13.770604395540431,256.80207344004884 13.436813186854124,256.54648054629797 12.65796703286469,256.12049205377116 12.25,255.90749764998327" stroke="#4dd2ff" stroke-linecap="round" stroke-linejoin="round" stroke-width="0.5"><title>2020-12-03 1.3km</title></polyline><polyline fill="none" points="59.89839034201577,257.75124980477267 60.102112675784156,258.50003445113543 60.1428571427241,258.7340294107853 59.450201207073405,259.15522004745435 58.268611669773236,259.108421106328 56.63883299776353,258.8276273623633 55.090543259400874,258.17244131377083 54.560865191044286,258.07884323288454 51.5457746477332,256.90886566552217 50.44567404408008,256.72166898686555 48.77515090513043,256.7684681635292 47.6343058347702,256.72166898686555 46.81941649876535,256.72166898686555 46.33048289711587,256.72166898686555 45.230382293695584,256.6280706200632 44.86368209240027,256.581271429779 43.60060362145305,256.4876730349497 43.11167001980357,256.44087383081205 41.40040241437964,256.30047619043035 40.87072434579022,256.20687774042017 39.811368209309876,256.11327927189996 38.42605633800849,255.50488877680618 37.896378269419074,255.3176915445365 37.0,255.13049423822667 38.018611669773236,255.36449085953063 38.91498993942514,255.7856844868511 39.811368209309876,256.20687774042017 40.341046277433634,256.25367696766625 41.685613682027906,256.3940746219014 42.09305835003033,256.44087383081205 43.15241448674351,256.53447223463445 43.6820925551001,256.581271429779 44.782193158753216,256.581271429779 45.271126760402694,256.6280706200632 46.37122736405581,256.72166898686555 46.86016096570529,256.72166898686555 48.367706237128004,256.7684681635292 48.85663983901031,256.7684681635292 49.590040241368115,256.67486980577814 49.83450704207644,256.67486980577814 49.99748490937054,256.67486980577814 50.160462776431814,256.67486980577814 50.32344064372592,256.67486980577814 50.52716297772713,256.6280706200632 50.73088531172834,256.6280706200632 51.13832997973077,256.67486980577814 51.30130784702487,256.67486980577814 51.66800804832019,256.8152673353907 52.034708249382675,257.002463976969 51.993963782675564,257.09606227008044 51.993963782675564,257.1428614096367 51.95321931573562,257.1428614096367" stroke="#4dd2ff" stroke-linecap="round" stroke-linejoin="round" stroke-width="0.5"><title>2020-11-30 1.0km</title></polyline></svg>