<?xml version="1.0" encoding="utf-8" ?>
<svg baseProfile="full" height="300mm" version="1.1" viewBox="0,0,200,300" width="200mm" xmlns="http://www.w3.org/2000/svg" xmlns:ev="http://www.w3.org/2001/xml-events" xmlns:xlink="http://www.w3.org/1999/xlink"><defs /><rect fill="#222222" height="300" width="200" x="0" y="0" /><text fill="#FFFFFF" style="font-size:12px; font-family:Arial; font-weight:bold;" x="10" y="20">Over 3km Runs</text><text fill="#FFFFFF" style="font-size:4px; font-family:Arial" x="10" y="280">ATHLETE</text><text fill="#FFFFFF" style="font-size:9px; font-family:Arial" x="10" y="290">jdzj</text><text fill="#FFFFFF" style="font-size:4px; font-family:Arial" x="120" y="280">STATISTICS</text><text fill="#FFFFFF" style="font-size:3px; font-family:Arial" x="120" y="285">Number: 31</text><text fill="#FFFFFF" style="font-size:3px; font-family:Arial" x="120" y="290">Weekly: 3.1</text><text fill="#FFFFFF" style="font-size:3px; font-family:Arial" x="141" y="285">Total: 60.2 km</text><text fill="#FFFFFF" style="font-size:3px; font-family:Arial" x="141" y="290">Avg: 1.9 km</text><text fill="#FFFFFF" style="font-size:3px; font-family:Arial" x="167" y="285">Min: 1.0 km</text><text fill="#FFFFFF" style="font-size:3px; font-family:Arial" x="167" y="290">Max: 4.9 km</text><polyline fill="none" points="29.919598878361285,57.119403435412096 30.76103576819878,55.959388297836995 31.73710255988408,43.77902195171919 35.03553516732063,31.714285714289872 32.006362364743836,43.58567974969628 29.61668159812689,44.70706319317105 26.14996161311865,44.47505308894324 22.548611725564115,45.0164097850211 20.663793092942797,46.17645732869278 19.35115154494997,48.032526252703974 19.250179118360393,59.400756518763956 20.764765519765206,62.1847626218223 21.774489787057973,62.571428571420256 22.447639298741706,62.223429233941715 26.082646662020124,59.16875511719263 27.327973258448765,60.019426251528785 28.539642379502766,59.13008820349933 28.77524470863864,58.124747109541204" stroke="#4dd2ff" stroke-linecap="round" stroke-linejoin="round" stroke-width="0.5"><title>2021-04-25 2.2km</title></polyline><polyline fill="none" points="64.76375862804707,62.571428571420256 63.85382253222633,55.794615956314374 64.35585624037776,51.937544112151954 63.85382253222633,44.764003091608174 64.32447913347278,32.2550291219668 63.947953852592036,31.714285714289872 63.16352618357632,32.2550291219668 62.37909851479344,45.01634109666338 62.69286958232988,57.560924977588 63.947953852592036,57.921395156910876 64.04208517272491,57.59697201155359 64.19897070666775,51.43287749259616 63.79106831876561,56.22718222075491" stroke="#4dd2ff" stroke-linecap="round" stroke-linejoin="round" stroke-width="0.5"><title>2021-04-18 2.2km</title></polyline><polyline fill="none" points="115.42857142840512,51.535196692100726 109.90257879626006,50.97663774350076 93.19197707739659,45.94957993697608 85.80925092077814,45.238678911933675 84.57142857136205,44.42621939542005 93.3688088413328,44.32466186583042 95.3139582478907,42.750517593638506 99.11584117868915,44.47699815282249" stroke="#4dd2ff" stroke-linecap="round" stroke-linejoin="round" stroke-width="0.5"><title>2021-04-16 1.0km</title></polyline><polyline fill="none" points="151.85714285710128,49.61765194358304 150.95337716664653,49.85863845862332 150.5821876867558,49.09860301545996 149.9366407650523,48.83907801384339 149.11356843984686,49.0429905452329 148.82307232508902,48.80200298427371 148.41960549907526,48.245876664354 149.12970711290836,46.98531757997989 148.88762701721862,46.05843050614931 148.40346682601376,45.85451473647845 144.6431560071651,46.114043859546655 141.4315600717091,45.835976928225136 139.86610878660576,46.20673274519504 139.20442319184076,45.94720375009638 138.139270771062,46.05843050614931 137.88105200242717,45.835976928225136 135.78302450681804,46.076968292414676 135.04064554692013,45.81743911815283 134.1852958756499,46.05843050614931 133.32994620437967,45.70621221946203 131.5224148236448,46.03989271806495 130.03765690373257,45.44668253323471 128.8111177525716,45.59498525499657 128.11715481174178,44.74224300678179 126.85833831434138,44.816394660185324 125.71249252837151,44.46417404573003 125.24447101016995,44.68662924745877 124.59892408846645,44.05633882530674 123.6467423789436,44.3900222532975 122.25881649728399,43.926572887736256 121.45188284519827,44.352946346160024 122.01673640171066,43.94511088429135 122.14584578596987,44.57540167948173 121.0,44.519787870842265 121.96832038252614,44.16756670047471 121.50029886432458,44.278794509824365 122.00059772864915,44.241718580698944 121.59713090251898,44.408560204159585 121.85534967121202,44.68662924745877 121.58099222951569,44.46417404573003 121.96832038252614,44.33440838975366 121.85534967121202,44.13049074939045 121.53257621038938,44.241718580698944 121.6455469217035,44.519787870842265 122.14584578596987,44.31587043160107 121.90376569039654,44.22318061334954 121.87148834433174,44.4827119892434 122.00059772864915,44.149028725893004 121.82307232520543,44.4827119892434 121.93604303640313,44.22318061334954 122.01673640171066,44.427098153173574 121.77465630607912,43.759730836347444 121.91990436345804,44.241718580698944 121.83921099815052,43.926572887736256 121.87148834433174,44.241718580698944 121.54871488339268,44.000724863042706 121.661685594765,43.833882877457654 121.77465630607912,44.000724863042706 121.53257621038938,44.09341479103023 121.85534967121202,44.2602565461566 121.59713090251898,44.11195277112711 121.90376569039654,43.833882877457654 121.6778242677683,44.22318061334954 121.41960549907526,44.22318061334954 121.6778242677683,43.74119282148604 121.43574417213676,43.90803488936217 121.82307232520543,44.241718580698944 121.54871488339268,44.07487680905615 121.59713090251898,44.241718580698944 121.6778242677683,44.09341479103023 121.75851763295941,44.87200838110584 121.59713090251898,46.6145632990374 123.16258218768053,46.948242184807896 123.29169157205615,47.24484514145297 124.69575612671906,47.115081405529054 125.50268977886299,47.411684098871774 131.94202032277826,47.689748698772746 138.30065750150243,48.505402485097875 141.35086670645978,48.61662772716954 142.7065152420546,48.91322805082018 144.27196652721614,49.71033910136612 146.7250448295381,49.432277490908746 146.98326359834755,49.87717587008956 147.3221757321735,49.72887652741338 149.63000597729115,50.21084896335378 150.0334728033049,50.54452146422409 150.75971309025772,50.37768528783636 150.98565451282775,49.69180167344166 151.63120143453125,49.432277490908746" stroke="#4dd2ff" stroke-linecap="round" stroke-linejoin="round" stroke-width="0.5"><title>2021-04-09 4.9km</title></polyline><polyline fill="none" points="187.6628216507379,48.793955819041 177.98402839433402,45.98710122401826 176.88198757800274,44.94140668679029 170.07808340759948,45.49177247710759 165.14285714318976,44.99644329032162 166.05323868687265,45.546809026331175 165.62200532411225,45.76695516862674 157.42857142863795,43.895710189884994 164.2324755990412,45.932064718334004 174.00709849176928,46.75761173455976 187.5669920144137,50.39000409579603 185.74622892658226,49.67453474306967 188.28571428591385,49.34431780950399 187.61490683234297,48.51877462019911" stroke="#4dd2ff" stroke-linecap="round" stroke-linejoin="round" stroke-width="0.5"><title>2021-04-09 1.4km</title></polyline><polyline fill="none" points="12.94155844161287,79.71684280128102 14.431818181881681,80.97548085200833 25.214285714318976,85.10379187582294 29.99188311700709,84.90241162481834 34.155844156164676,85.75827714276966 41.87012987048365,84.90241162481834 42.57142857136205,84.04654467201908 39.4594155845698,83.24102152325213 35.73376623378135,83.99619951244676 31.87662337673828,82.53618772528716 28.676948052132502,82.78791419346817 23.24188311700709,80.01891621641698 22.540584415663034,78.7099301260605 19.42857142863795,77.5016322939191 17.06168831186369,77.09886571438983 11.714285714318976,78.40785593612236" stroke="#4dd2ff" stroke-linecap="round" stroke-linejoin="round" stroke-width="0.5"><title>2021-04-08 1.4km</title></polyline><polyline fill="none" points="78.79962894273922,82.71742947748862 79.0,83.77612659844453 76.39517625258304,83.82215685368283 69.50241187401116,81.47460805345327 59.08311688317917,80.9682724502054 53.592949907295406,79.03498600344756 48.14285714295693,79.86353831845918 53.31243042671122,79.26513957185671 58.802597402594984,80.92224191364949 69.02152133616619,81.38254707554006" stroke="#4dd2ff" stroke-linecap="round" stroke-linejoin="round" stroke-width="0.5"><title>2021-04-06 1.3km</title></polyline><polyline fill="none" points="93.99486740794964,76.79516671830788 97.87510692887008,75.58333210478304 99.47647562017664,76.86645104200579 99.47647562017664,78.22085181652801 98.42942686052993,78.79112504376099 100.2771599655971,80.78707768570166 102.18648417410441,81.00092941755429 104.6501283145044,79.86038609442767 107.4217279725708,76.3674606232671 109.88537211273797,77.2941568325623 111.91787852859125,76.08232308167499 115.36698032473214,76.51002935052384 115.36698032473214,72.16167012200458 114.99743370409124,74.79920270905131 112.96492728823796,74.44277996645542 115.42857142840512,74.87048723589396 115.30538922129199,76.7238823872176 110.00855431961827,77.22287255205447 107.4217279725708,76.29617624887032 103.23353293398395,81.5712003831868 104.21899059019051,80.71579376078444 99.59965782705694,80.64450982847484 98.67579127429053,79.07626148354029 100.03079555183649,79.07626148354029 99.90761334472336,78.36342016671551 98.3062446534168,75.51204765035072 97.62874251464382,76.51002935052384 96.27373823756352,76.3674606232671 94.54918733914383,80.0742381089367 88.82121471292339,83.06815946026472 86.97348160808906,86.48976820328971 86.7271171938628,83.85227960575139 86.23438836587593,87.20260125602363 85.80325064132921,85.63436758337775 86.23438836587593,86.70361819531536 85.86484174476936,85.77693442592863 88.39007698860951,87.06003470346332 90.42258340422995,90.12520919268718 93.07100085518323,89.91136024479056 93.81009409739636,88.41441578161903 92.2087254060898,87.70158396149054 93.62532078684308,87.70158396149054 92.94781864830293,88.5569820588571 92.3319076129701,87.9867167766206 93.07100085518323,88.84211452590534 93.25577416573651,88.1292831406463 93.56372968340293,89.76879424310755 92.51668092352338,90.69547273515491 89.1291702305898,90.41034102201229 85.98802395164967,86.70361819531536 86.54234388330951,83.49586146662477 86.91189050441608,86.0620680237189 84.57142857136205,87.41645103035262 85.2489307099022,86.27591814624611 84.81779298512265,87.70158396149054 86.54234388330951,86.48976820328971 86.78870829753578,83.35329416021705" stroke="#4dd2ff" stroke-linecap="round" stroke-linejoin="round" stroke-width="0.5"><title>2021-04-05 1.9km</title></polyline><polyline fill="none" points="145.2671939256834,89.54675528459484 144.05714441719465,90.15596107696183 144.5306420509005,89.42491397712729 145.3724156221142,89.42491397712729 145.5565535906935,88.90708786633331 144.60955832328182,94.54220613386133 142.58404066762887,96.00427351825056 142.47881897119805,96.85714285713038 142.39990269893315,96.00427351825056 144.68847459554672,94.63358555486775 145.45133189449552,91.6485100214486 145.97744037641678,86.89669564104406 144.6621691713808,85.95241583819734 141.82118336879648,85.43458371213637 140.13763622648548,86.74439264883404 136.61270939733367,87.7495909636782 130.1941859171493,91.61804991337704 129.03674725687597,89.75997745312634 127.69517062790692,90.33872257254552 127.06384044943843,90.09504055356956 123.3810810756404,74.2857450779411 123.17063768289518,71.39185286342399 125.0383227939019,79.86021637447993 125.61704212403856,80.10390673708753 132.37753611733206,77.02730133055593 137.58601008891128,75.35190883092582 140.84788267710246,73.5241972116346 145.4250264703296,69.83827811584342 148.13448515243363,66.0 149.6865051742643,66.79202967934543 149.5023672055686,67.03573069683625 148.87103702721652,66.82249231738388 149.23931296460796,66.51786579712643 149.23931296460796,67.00526808053837 149.39714550913777,66.1827762661851 148.50276108982507,66.45694045571145" stroke="#4dd2ff" stroke-linecap="round" stroke-linejoin="round" stroke-width="0.5"><title>2021-04-05 3.7km</title></polyline><polyline fill="none" points="165.21495327120647,70.24045314290561 170.11748998658732,74.13684571336489 174.15487316483632,85.38064347172622 174.25100133521482,91.05816072854213 176.461949265562,90.612866324489 178.67289719637483,92.61668971425388 183.6715620830655,88.94301069097128 188.28571428591385,90.16757173836231 178.86515353806317,87.9410960850073 178.86515353806317,91.61477847886272 179.34579439274967,86.49388447590172 179.15353805059567,91.83742549968883 179.44192256312817,90.05624806357082 175.59679572749883,90.83551354927476 178.192256342154,89.16565825627185 179.538050734438,91.61477847886272 177.13484646193683,90.05624806357082 178.86515353806317,89.61095325066708 178.4806408546865,91.7261019947473 179.538050734438,91.7261019947473 178.28838451299816,89.49962951883208 180.49933244287968,92.2827194047859 178.28838451299816,90.2788954017451 178.4806408546865,88.49771542404778 180.11481975996867,91.05816072854213 178.57676902553067,88.60903925762977 175.98130841134116,88.49771542404778 174.82777036027983,91.39213141286746 175.116154873278,89.94492437760346 170.21361815789714,86.27123636601027 172.13618157571182,79.14647287549451 170.21361815789714,79.92574614635669 170.3097463287413,77.03129976592027 164.6381842456758,73.91419508389663 157.42857142863795,74.58214683632832 161.4659546064213,76.02937423135154 162.8117489987053,79.81442142720334" stroke="#4dd2ff" stroke-linecap="round" stroke-linejoin="round" stroke-width="0.5"><title>2021-04-04 1.4km</title></polyline><polyline fill="none" points="30.762968874536455,101.90140351635637 21.19553072564304,106.25821079115849 11.972865123301744,116.95211207686225 20.67837190721184,126.5567225603154 25.763766958843917,120.81377064221306 31.711093375924975,118.33835019503022 31.883479648735374,115.07078585337149 37.39984038285911,111.01106987847015 29.297685554251075,100.71318006690126 22.48842777311802,105.26802898093592 11.714285714086145,117.54621436202433 20.50598563393578,125.46754455007613 25.677573822438717,119.42753594421083 34.12450119666755,118.0412993307691 36.62410215474665,116.15997514955234 37.91699920175597,111.20910518511664 37.57222665566951,110.31794599688146 36.53790901834145,112.29829867312219 33.521149241831154,113.78356061555678 33.434956105425954,112.89240371389315 42.57142857136205,106.85231940844096 39.20989624876529,105.0699925016379 35.67597765335813,100.71318006690126 33.69353551417589,103.98079116654117 27.660015961620957,101.40631058334839 15.765363127924502,112.1002635814366 12.059058259706944,117.34818030608585 20.67837190721184,125.46754455007613 25.763766958843917,120.12065353256185 26.539505187422037,120.71475394169101 24.384676775429398,123.68525071017211 36.19313647225499,126.16065796621842 39.98563447734341,130.7153913617367 31.969672784674913,116.06095798953902 32.831604150123894,113.38749097910477 37.05506783723831,109.82285721745575 32.400638467632234,106.95133747690124 29.814844373147935,102.00042207358638 28.004788507241756,101.30729196750326 26.453312050551176,102.39649620489217 27.229050279129297,103.08962555840844" stroke="#4dd2ff" stroke-linecap="round" stroke-linejoin="round" stroke-width="0.5"><title>2021-04-02 3.1km</title></polyline><polyline fill="none" points="67.07294832821935,127.63923492707545 63.46200607903302,126.38236848026281 56.650455927010626,126.25668156283791 49.26443769002799,125.28260627153213 48.635258358786814,124.68559091119096 48.14285714284051,121.70049732623738 48.85410334356129,121.13489749495056 50.331306990934536,121.07205300714122 48.990881459088996,116.8928667489381 49.319148936192505,111.23673787686857 51.370820668758824,108.31436527401092 52.191489361808635,106.33467827687855 56.10334346501622,103.63222854430205 57.68996960495133,105.36054206281551 59.167173252324574,105.67477987668826 59.933130699093454,106.58606778390822 63.16109422489535,106.58606778390822 68.13981762924232,107.37165871472098 70.5471124619944,108.62860017383355 74.5410334346816,112.17943299704348 78.31610942236148,118.71537576866103 78.42553191480692,119.56378158307052 77.5501519755926,120.31791818782222 77.19452887540683,121.51196416068706 77.96048632217571,121.48054195559234 79.0,124.15141832453082 78.31610942236148,125.56540263074567 75.93617021269165,126.00530757926754 75.36170212749857,126.72800724749686 74.02127659565303,126.06815109369927 73.44680851069279,126.31952502776403 72.02431610936765,125.87962051312206 71.34042553184554,127.79634288424859 71.12158054707106,127.5763917225122" stroke="#4dd2ff" stroke-linecap="round" stroke-linejoin="round" stroke-width="0.5"><title>2021-04-02 3.2km</title></polyline><polyline fill="none" points="87.80447139055468,113.10541287524393 98.24024251592346,117.75908259535208 103.88783630146645,117.71207605759264 107.32550208386965,118.51118656771723 111.9499810533598,117.38303016417194 115.42857142840512,117.43003673414933 107.57104963995516,118.46418010431807 104.13338385731913,117.66506951538031 98.56763925706036,117.94710869976552 91.36491095111705,115.87881747196661 84.57142857136205,112.91738486086251" stroke="#4dd2ff" stroke-linecap="round" stroke-linejoin="round" stroke-width="0.5"><title>2021-04-01 1.4km</title></polyline><polyline fill="none" points="121.0,111.82772619905882 124.4846855273936,115.36624834663235 128.5754033201374,116.23637348250486 133.3731587564107,118.73072507092729 139.93850830057636,118.61470895254752 143.57470189407468,119.60084522952093 151.8571428572759,118.61470895254752 146.0493336452637,119.48482928279554 139.02945990185253,118.44068473210791 132.76712649059482,118.73072507092729 123.37362637370825,116.17836518009426 122.41407528659329,115.65629020152846 123.52513444027863,115.19222316489322" stroke="#4dd2ff" stroke-linecap="round" stroke-linejoin="round" stroke-width="0.5"><title>2021-03-29 1.2km</title></polyline><polyline fill="none" points="172.29443962010555,131.1428571428405 170.85642023640685,123.03401341015706 169.85605892562307,122.74697304295842 164.97929753758945,115.71444878634065 161.72812327858992,115.42740554059856 171.85678154649213,100.28571428568102 175.23300096928142,102.3668184345006 181.86039465107024,109.11242557369405 181.17264625011012,113.92042664863402 183.98616243549623,130.42526398558402 175.0454332237132,124.46921355219092 171.79425896448083,123.8233738373965 171.48164605512284,125.18681256507989" stroke="#4dd2ff" stroke-linecap="round" stroke-linejoin="round" stroke-width="0.5"><title>2021-03-28 1.4km</title></polyline><polyline fill="none" points="26.763076923321933,144.41077248216607 28.519560439512134,145.4468370389659 28.946813186863437,144.57436175178736 30.65582417580299,144.4653022440616 31.035604395903647,143.5928254078026 31.557802197756246,144.19265338068362 32.364835164975375,143.5928254078026 34.88087912090123,145.0105995676131 36.35252747265622,143.92000438278774 40.67252747248858,145.22871834621765 40.387692307820544,144.13812359177973 42.429010989144444,144.35624271497363 40.90989010990597,143.81094474595739 41.2896703297738,142.93846687691985 41.384615384507924,144.13812359177973 41.147252747323364,143.5928254078026 40.625054945237935,144.30171294219326 40.71999999997206,143.42923584755044 41.384615384507924,144.35624271497363 40.67252747248858,144.13812359177973 42.0967032967601,143.97453419311205 42.0967032967601,144.51983200054383 41.47956043947488,143.75641491939314 40.4826373627875,144.30171294219326 42.47648351639509,143.97453419311205 41.859340659342706,143.48376570641994 41.66945054940879,145.1196589677129 40.81494505493902,144.41077248216607 40.71999999997206,145.0105995676131 41.906813186826184,144.2471831641742 41.384615384507924,144.30171294219326 42.57142857159488,145.77401491667842 42.429010989144444,144.19265338068362 41.7169230771251,144.30171294219326 42.0967032967601,145.06512927025324 41.05230769258924,145.3923073739861 40.90989010990597,144.7924807027448 40.340219780337065,145.61042600200744 38.34637362649664,145.3377777034766 38.34637362649664,144.2471831641742 38.821098901098594,153.6262258917559 33.45670329686254,154.82585941400612 29.089230769313872,153.4081104263314 29.42153846146539,154.1169853747706 28.09230769239366,153.4081104263314 20.40175824170001,153.02640815457562 16.55648351670243,154.17151417920832 16.22417582431808,156.13454756035935 15.322197802364826,156.8434190126718 12.236483516637236,157.06153312308015 11.714285714318976,156.18907616578508" stroke="#4dd2ff" stroke-linecap="round" stroke-linejoin="round" stroke-width="0.5"><title>2021-03-26 1.5km</title></polyline><polyline fill="none" points="51.40418118494563,148.04466467993916 61.18815331021324,152.03767015706399 64.62867098068818,151.790681235987 67.63912394223735,152.44931803425425 71.97560975607485,151.5848570234084 73.69586859131232,151.790681235987 79.0,149.89709465147462 74.30512692895718,151.790681235987 68.24838227988221,152.28465893209795 65.05873568961397,151.6260218740208 61.510701841907576,151.9141757148318 53.87705326033756,150.06175469548907 48.14285714295693,147.55068196571665" stroke="#4dd2ff" stroke-linecap="round" stroke-linejoin="round" stroke-width="0.5"><title>2021-03-26 1.6km</title></polyline><polyline fill="none" points="115.42857142840512,152.73799499991583 113.07106475858018,152.43711770471418 109.56099927215837,150.21062110725325 106.57482415693812,150.27079679793678 102.27892311406322,148.5858752190834 91.8011156921275,148.88675441383384 93.37278680549935,149.66903962532524 92.74411836033687,149.84956683928613 84.57142857136205,147.26200500008417 91.17244724673219,149.78939110715874 100.55008488940075,150.39114816120127 108.56560756708495,152.3167667449452" stroke="#4dd2ff" stroke-linecap="round" stroke-linejoin="round" stroke-width="0.5"><title>2021-03-24 1.1km</title></polyline><polyline fill="none" points="151.85714285704307,152.26337440114003 149.63509316765703,152.1189043429622 147.4549689439591,150.48157403015648 143.975155279506,149.90369143223506 141.12422360247,148.6034530865727 132.40372670814395,148.79608120804187 133.1583850933239,149.6147498768114 126.324534161482,147.73662559888908 121.0,148.4108248889388 123.09627329185605,148.69976715673693 126.4922360247001,147.78478272198117 132.78105590073392,149.7110637477599 144.22670807456598,150.19263281670283" stroke="#4dd2ff" stroke-linecap="round" stroke-linejoin="round" stroke-width="0.5"><title>2021-03-23 1.3km</title></polyline><polyline fill="none" points="187.67021276592277,151.53180376804085 177.28875379939564,147.90262069538585 173.0623100302182,148.60960657231044 168.87689969595522,148.1382827705238 170.02583586610854,148.8924006303423 169.57446808507666,149.0337975966395 162.9680851062294,147.0542362621054 157.42857142863795,147.855488266272 162.55775075987913,147.14850127353566 168.75379939191043,148.93953295701067 176.9604863221757,149.50512051518308 188.28571428568102,152.9457637378655 186.43920972640626,152.05025624268455 188.28571428568102,151.53180376804085" stroke="#4dd2ff" stroke-linecap="round" stroke-linejoin="round" stroke-width="0.5"><title>2021-03-22 1.6km</title></polyline><polyline fill="none" points="37.99125587486196,169.04795756010571 38.41622035193723,169.34595665812958 38.18012897577137,170.29413346454385 40.32856049842667,170.61922190495534 40.895179801038466,171.07976320636226 40.70630670012906,171.91957183522754 41.55623565404676,172.48847300207126 42.571428571478464,174.24935012930655 41.957590993493795,175.8747651927406 41.06044376443606,176.25402732935618 40.729915837873705,177.2292704291758 36.362225379794836,181.02184970790404 31.545961307245307,182.8910303133307 30.034976500086486,183.8662499493803 28.878128757234663,184.84146613779012 25.50202207895927,189.5007847895904 11.714285714318976,199.52347101134364" stroke="#4dd2ff" stroke-linecap="round" stroke-linejoin="round" stroke-width="0.5"><title>2021-03-21 1.3km</title></polyline><polyline fill="none" points="62.13063892349601,181.60493197204778 61.73896795127075,179.10036784620024 59.05322414170951,175.76091913424898 57.96214071905706,175.43981649714988 54.26924298075028,178.81137844186742 50.60432174045127,183.46728771767812 49.6810973060783,183.72416353880544 48.67394337744918,186.45345666221692 50.380509756389074,188.89374649588717 54.437101968796924,190.8202782230801 58.829412157530896,194.38433196314145 58.57762367534451,194.5769824088784 59.165130133740604,194.5127656062541 58.633576671476476,194.22378983831732 59.305012623779476,195.3475830553216 60.78776701865718,197.11353601361043 66.41104312008247,199.71428571428987 69.32059891382232,199.4253145478142 76.17484092782252,194.64119919884251 77.09806536254473,192.71469000770594 78.46891376539133,186.5497842381883 77.09806536254473,184.17369573979522 71.97836622549221,179.45357677081483 66.43901961820666,172.48565742143546 62.32647440955043,168.8571428571595 57.710352236870676,175.27926506014774 58.54964717745315,175.37559593183687 59.69668359600473,176.43523364479188 61.93480343732517,179.2930273069942 61.90682693943381,180.19210328802" stroke="#4dd2ff" stroke-linecap="round" stroke-linejoin="round" stroke-width="0.5"><title>2021-03-20 3.7km</title></polyline><polyline fill="none" points="112.38845883170143,192.05545257416088 101.84940182953142,188.6798707334674 90.70232230843976,188.33067150972784 84.72343420120887,187.05027258838527 84.57142857136205,184.95506836037384 85.43279380723834,184.0238640930038 84.62209711479954,182.45245355949737 84.8247712876182,179.71702524012653 88.01688951440156,176.51597599731758 93.28641801560298,177.1561872352613 98.6572836029809,178.9604151681997 108.79099225904793,178.7276118741138 114.21252638986334,177.8545987025136 114.87121745245531,177.09798624226823 113.90851513016969,179.3096199374413 113.30049261078238,186.81747248611646 113.80717804376036,190.6586624304764 115.42857142863795,190.94966064975597" stroke="#4dd2ff" stroke-linecap="round" stroke-linejoin="round" stroke-width="0.5"><title>2021-03-19 1.6km</title></polyline><polyline fill="none" points="133.50513755402062,183.97049541256274 140.21113689115737,186.84870487818262 142.81239642051514,186.68423656874802 145.07954922120553,187.17764120502397 147.466025853646,186.65682517443202 148.73085846868344,186.76647073565982 151.8571428571595,185.83448208650225 146.05800464050844,187.15022985925316 143.07490885001607,186.68423656874802 139.7338415646227,186.82129350004834 126.39343718939926,182.5724972031603 121.0,181.99684883761802 122.16937354998663,182.16131992079318 121.38183626125101,181.83237765703234 121.62048392451834,181.69531826555612 123.43420616502408,181.80496578419115 125.84454756393097,181.39378736642539 126.6559496189002,181.99684883761802 127.13324494543485,181.69531826555612 127.70599933713675,182.2435554259573 128.207159429905,182.07908439144376 128.85150812077336,182.6273207948543 129.662910175859,182.32579090673244 131.33344381838106,183.53190849602106 131.66755054693203,183.12073263322236 130.8084189593792,181.83237765703234 130.47431223082822,181.85978952725418 130.59363606234547,182.79179150491836 132.1448458734667,183.55932019860484 132.78919456421863,182.02426069162902 133.14716605923604,182.76437972669373 133.62446138553787,182.68214437560528 133.1233012927696,182.81920328052365 133.40967848873697,182.73696794567513 132.717600265285,181.7775539086142 133.74378521728795,181.69531826555612" stroke="#4dd2ff" stroke-linecap="round" stroke-linejoin="round" stroke-width="0.5"><title>2021-03-19 3.1km</title></polyline><polyline fill="none" points="170.41355385322822,199.71428571428987 170.24024966853904,199.17681457279832 169.91097171767615,199.11709546874044 169.42572000052314,199.574941481711 170.0149542284198,196.21074438020878 169.7896587883588,197.02691569318995 169.89364129916066,198.51990345602098 169.56436334829777,198.77868687848968 167.6926781538059,198.7388740658498 167.46738271362847,197.54448603502533 167.62335647986038,196.4894373948191 172.16392611846095,195.47419670334784 175.21407976874616,195.27512930230296 175.1100972580025,176.02438388840528 176.13259194768034,174.71040876107872 178.2469030006905,172.8389748661575 177.86563379439758,171.88334235169168 175.28340144269168,168.85714285714494" stroke="#4dd2ff" stroke-linecap="round" stroke-linejoin="round" stroke-width="0.5"><title>2021-03-18 2.7km</title></polyline><polyline fill="none" points="22.17951784504112,231.45372666590265 23.04341598233441,231.60350839575403 23.173815701156855,232.33369263625355 23.499814998242073,232.52091891213786 25.260211202315986,232.8766483276413 27.542206281796098,232.67069979985536 29.123302872525528,233.1200417540822 30.590299709292594,234.0 30.96519890089985,232.8204805694695 30.753299357835203,227.8214835327526 32.10619644069811,227.69042191430344 30.166500623105094,227.14745138803846 28.2920046649524,227.05383562309726 27.460706457553897,226.1551219302637 25.814410007325932,209.13492791824683 27.607406141178217,207.03772467143426 28.87880339968251,206.307443099824 27.9660053679836,204.6783433114615 26.401208742056042,203.14285714285506" stroke="#4dd2ff" stroke-linecap="round" stroke-linejoin="round" stroke-width="0.5"><title>2021-03-17 2.8km</title></polyline><polyline fill="none" points="49.182370820781216,216.90617066639243 49.565349544165656,216.90617066639243 51.480243161320686,217.72310553566786 52.02735562319867,218.41435729939258 57.71732522803359,219.98538124613697 63.735562310088426,220.80231216782704 65.75987841957249,220.67663055594312 67.18237082078122,220.99083453963976 67.89361702138558,221.24219761491986 70.73860182380304,221.6820827583433 73.09118541050702,222.62469275767216 73.8571428572759,222.8132145901327 75.1702127661556,223.5044608322205 76.2644376901444,224.19570632424438 76.70212765969336,224.32138724229299 77.19452887563966,224.5727490039426 78.3981762919575,224.8869510666118 79.0,224.82411066652276 78.94528875406832,224.82411066652276 78.94528875406832,224.82411066652276 78.78115501557477,224.8869510666118 78.89057750767097,224.82411066652276 78.94528875406832,224.82411066652276 79.0,224.8869510666118 78.67173252278008,224.82411066652276 77.96048632240854,224.82411066652276 75.55319148930721,224.8869510666118 73.91185410344042,224.38422769209137 72.32522796373814,224.07002538151573 70.73860182380304,223.94434441404883 69.15197568410076,224.00718490075087 68.33130699116737,224.07002538151573 66.74468085123226,224.19570632424438 66.03343465039507,224.19570632424438 63.57142857136205,224.00718490075087 62.80547112459317,223.8186634214362 61.328267476987094,223.4416202956345 60.562310030451044,223.06457694678102 59.0851063830778,222.56185213424033 58.31914893630892,222.31048957945313 55.200607902836055,221.6820827583433 53.176291793584824,220.8651529646595 53.012158054858446,220.48810809117276 53.668693009065464,220.36242641706485 53.9422492403537,220.36242641706485 54.161094225011766,220.11106299475068 53.9422492403537,220.04822212352883 53.395136778010055,219.9225403626333 53.12158054718748,219.85969947301783 52.95744680869393,219.79685857711593 52.629179331474006,219.79685857711593 52.410334346815944,219.67117676668568 52.136778115527704,219.67117676668568 51.863221884472296,219.67117676668568 51.480243161320686,219.54549493151717 51.20668693026528,219.4198130716104 51.0425531915389,219.35697213222738 50.49544072966091,219.0427673429367 50.331306990934536,218.9170853837859 50.05775076011196,218.72856239846442 49.89361702138558,218.60288037749706 49.72948328289203,218.41435729939258 49.51063829776831,218.16299310844624 49.1276595746167,217.84878773038508 48.799392097396776,217.66026442905422 48.6352583586704,217.5345821972005 48.36170212784782,217.22037650924176 48.25227963505313,216.65480588044738 48.25227963505313,216.15207601129077 48.197568389354274,215.8378696414875 48.14285714295693,215.5865044341772 48.306990881450474,215.08377372223185 48.25227963505313,214.3925183454412 48.25227963505313,214.07831110811094 48.197568389354274,213.88978669123026 48.306990881450474,213.70126221881947 48.25227963505313,213.63842071563704 48.306990881450474,213.19853001937736 48.36170212784782,212.8843221932184 48.6352583586704,212.82148060941836 49.182370820781216,212.63295582076535 49.455927051603794,212.50727259734413 49.62006079033017,212.4444309764076 49.948328267550096,212.3187477159663 50.00303951371461,212.3187477159663 50.00303951371461,212.25590607628692 50.05775076011196,212.25590607628692" stroke="#4dd2ff" stroke-linecap="round" stroke-linejoin="round" stroke-width="0.5"><title>2021-03-02 1.4km</title></polyline><polyline fill="none" points="90.24053156143054,219.02480783383362 90.59933554846793,219.18965587991988 94.54617940215394,219.93147168605356 97.05780730908737,220.83813455456402 97.99069767445326,221.25025371526135 100.50232558138669,221.90964394947514 101.43521594675258,221.90964394947514 104.09036544850096,221.7447964399471 104.95149501645938,221.49752511404222 107.60664451820776,221.33267752290703 109.25714285718277,221.90964394947514 110.11827242514119,222.23933887167368 111.6252491697669,222.8163046723348 113.06046511605382,223.0635756077827 114.85448504984379,222.8987283257302 115.14152823900804,222.7338810110232 115.42857142863795,222.8987283257302 115.35681063123047,224.0526586184278 114.06511627929285,224.3823526952183 112.988704319112,225.28901073540328 112.48637873725966,225.4538575464976 111.98405315587297,225.6187043247046 111.69700996670872,225.6187043247046 111.26644518226385,225.70112770149717 110.97940199356526,225.86597443092614 109.97475083032623,226.2780911125592 110.11827242514119,226.69020759075647 110.62059800652787,227.01990062720142 110.62059800652787,227.10232386610005 110.62059800652787,227.18474709661677 110.69235880393535,227.10232386610005 110.33355481736362,227.01990062720142 109.90299003338441,227.18474709661677 109.75946843856946,227.26717031898443 109.6159468437545,227.34959353355225 109.54418604634702,227.43201673967997 109.54418604634702,227.43201673967997 109.25714285718277,227.01990062720142 109.11362126236781,226.855054125248 108.89833887014538,226.60778431151994 108.8265780727379,226.4429377283086 108.10897009959444,226.2780911125592 107.82192690996453,226.2780911125592 107.4631229233928,226.2780911125592 107.10431893682107,226.1956677925773 106.67375415284187,226.1956677925773 106.31495016627014,226.1956677925773 105.59734219266102,226.03082112816628 105.23853820562363,225.94839778362075 104.87973421951756,225.86597443092614 104.52093023248017,225.7835510703153 103.80332225933671,225.6187043247046 103.5162790697068,225.4538575464976 103.15747508313507,225.37143414502498 102.79867109656334,225.20658731786534 102.43986710952595,225.04174045834225 102.1528239203617,224.7944701081724 101.50697674416006,224.4647761939559 100.86112956795841,224.13508214970352 100.35880398703739,223.64054083946394 99.99999999953434,223.4756936712074 99.64119601296261,223.31084647023818 99.28239202685654,223.14599923678907 98.92358803935349,222.98115197086008 98.70830564806238,222.8987283257302 98.13421926926821,222.65145734127145 97.8471760796383,222.56903366366168 97.56013289000839,222.48660997778643 97.27308970084414,222.32176258187974 96.91428571427241,222.23933887167368 96.55548172723502,222.15691515343497 95.76611295668408,222.07449142681435 95.47906976751983,221.9920676922775 95.12026578048244,221.90964394947514 94.68970099650323,221.90964394947514 94.40265780733898,221.82722019875655 93.68504983372986,221.7447964399471 93.32624584715813,221.57994889753172 92.68039867095649,221.08540607540635 91.96279069781303,220.83813455456402 91.67574750818312,220.7557106980821 91.31694352161139,220.67328683356754 90.88637873763219,220.59086296072928 90.59933554846793,220.50843907991657 90.24053156143054,220.34359129349468 89.5946843852289,220.01389562379336 89.23588039865717,219.84904773999006 88.94883720902726,219.68419982376508 88.2312292358838,219.27207989094313 88.01594684412703,219.1072318609804 87.72890365449712,218.94238379859598 87.08305647829548,218.53026349988068 86.79601328913122,218.28299122321187 86.43720930209383,217.78844645025674 85.93488372070715,217.2114771787892 85.07375415274873,216.55208323779516 85.07375415274873,216.30481037608115 84.93023255839944,215.89268877671566 84.78671096358448,215.56299135106383 84.57142857136205,214.49147381947841 84.78671096358448,214.07935132615967 84.8584717605263,213.66722862969618 84.93023255839944,213.3375303260982 85.00199335580692,213.0902565130964 85.00199335580692,212.6781333287363 85.00199335580692,211.6066120986943 85.00199335580692,210.864788903913 85.79136212635785,210.5350894947769 86.36544850515202,210.20538995566312 86.8677740865387,210.04054013727 87.22657807311043,209.95811521593714 87.37009966792539,209.7932653488242 88.37475083069876,209.71084040316055" stroke="#4dd2ff" stroke-linecap="round" stroke-linejoin="round" stroke-width="0.5"><title>2020-12-25 1.0km</title></polyline><polyline fill="none" points="121.46401718561538,215.0072263473412 121.81203007511795,215.34033103421098 122.10204081609845,215.67343555676052 122.74006444658153,216.0731607672642 125.23415682045743,216.7393689256278 126.56820622971281,217.13909350533504 127.43823845335282,217.3389557066257 131.49838882894255,218.93785118707456 132.65843179356307,219.73729750839993 133.99248120281845,220.33688162826002 135.96455424255691,221.0697059413651 136.71858216961846,221.20294664002722 138.11063372716308,221.20294664002722 138.92266380228102,221.20294664002722 140.3147153595928,220.93646521639312 141.59076262102462,220.80322446482023 143.04081632662565,220.8698448438663 143.8528464017436,220.80322446482023 146.1149301826954,221.20294664002722 146.8689581095241,221.4694279587129 148.31901181512512,221.73590917239198 149.13104189070873,221.66928887873655 150.58109559630975,221.60266857867828 151.21911922679283,221.53604827204254 151.85714285704307,221.80252945946995 151.79914070875384,221.86914973973762 151.62513426458463,221.93577001348604 151.56713211606257,222.0023902808898 151.56713211606257,222.0690105414833 151.50912996777333,222.0023902808898 151.3931256714277,222.1356307954993 151.3931256714277,222.0023902808898 151.45112781971693,222.0690105414833 151.50912996777333,222.1356307954993 151.45112781971693,222.0690105414833 151.56713211606257,221.93577001348604 151.50912996777333,221.93577001348604 151.45112781971693,221.93577001348604 151.45112781971693,222.0023902808898 151.45112781971693,221.93577001348604 151.45112781971693,221.93577001348604 151.45112781971693,221.93577001348604 151.45112781971693,222.0023902808898 151.3931256714277,222.0023902808898 151.3931256714277,222.0023902808898 151.33512352290563,222.0023902808898 151.27712137508206,222.0023902808898 151.3931256714277,222.0023902808898 151.3931256714277,222.0023902808898 151.3931256714277,222.0023902808898 151.33512352290563,222.0023902808898 151.33512352290563,222.0690105414833 151.21911922679283,222.0023902808898 149.8850698173046,222.0023902808898 148.37701396341436,222.0023902808898 146.8689581095241,221.66928887873655 146.1729323307518,221.4694279587129 144.72287862491794,221.0697059413651 143.96885069832206,220.93646521639312 142.40279269590974,220.93646521639312 141.64876476908103,220.8698448438663 140.08270676690154,221.00308558199322 138.45864661643282,221.20294664002722 137.7046186896041,221.20294664002722 136.13856068742462,221.1363262939849 135.32653061207384,220.93646521639312 131.67239527381025,219.73729750839993 130.91836734698154,219.4708155062399 128.7722878626082,218.93785118707456 128.1922663799487,218.87123061768943 125.87218045117334,218.47150706284447 124.53813104168512,217.87192128720926 123.7841031148564,217.4721971412655 122.33404940925539,216.67274813936092 121.0,216.20640245149843" stroke="#4dd2ff" stroke-linecap="round" stroke-linejoin="round" stroke-width="0.5"><title>2020-12-08 1.1km</title></polyline><polyline fill="none" points="157.42857142863795,215.39072045416106 157.72527472535148,215.44751912448555 159.7032967035193,216.9810810998897 160.3461538462434,217.2082751193666 162.8681318683084,217.9466550637153 164.05494505516253,218.2874454880366 164.6483516485896,218.51463899208466 166.03296703309752,219.02582404890563 167.2692307694815,219.65060516871745 167.91208791243844,220.04819280118681 171.07692307699472,221.12735784857068 171.76923076971434,221.18415595288388 173.7472527474165,220.95696350181242 174.34065934084356,220.90016537491465 177.4560439561028,220.95696350181242 178.0989010988269,221.01376162294764 180.02747252769768,221.58174252684694 182.00549450563267,221.75213668867946 182.59890109905973,221.6953386402456 183.88461538497359,221.75213668867946 185.86263736267574,221.46814639074728 186.4560439561028,221.41134831437375 187.6923076924868,221.2977521448047 188.28571428591385,221.24095405172557 188.0384615387302,220.78656910458812 186.65384615398943,220.72977096092654 186.06043956056237,220.78656910458812 184.8241758244112,221.12735784857068 184.37912087934092,221.24095405172557 183.0934065936599,221.52494446159108 182.5,221.58174252684694 181.26373626384884,221.58174252684694 180.62087912112474,221.46814639074728 179.38461538474075,221.24095405172557 178.79120879154652,221.07055973849492 176.86263736267574,220.72977096092654 176.21978021995164,220.72977096092654 174.93406593427062,220.78656910458812 174.24175824178383,220.78656910458812 172.95604395633563,220.90016537491465 171.67032967042178,220.95696350181242 170.43406593427062,220.90016537491465 169.2472527474165,220.6161746570142 168.65384615398943,220.44578015914885 167.36813186854124,220.04819280118681 166.77472527488135,219.82099990191637 165.58791208802722,219.42341211263556 164.00549450539984,218.9690257316106 163.56043956056237,218.91222740884405 162.37362637370825,218.62823571061017 160.74175824201666,218.11705030105077 160.29670329694636,217.7762597760302 159.258241758449,217.2082751193666 158.7142857145518,216.92428258096334" stroke="#4dd2ff" stroke-linecap="round" stroke-linejoin="round" stroke-width="0.5"><title>2020-12-03 1.3km</title></polyline><polyline fill="none" points="42.24547283700667,253.66833307308843 42.51710261567496,254.66671260155272 42.57142857136205,254.97870588110527 41.647887323983014,255.5402933966252 40.0724346076604,255.47789480845677 37.89939637831412,255.1035031498759 35.8350100601092,254.22992175177205 35.12877263594419,254.10512431059033 31.108651911607012,252.54515422077384 29.641851106425747,252.29555864923168 27.41448692139238,252.35795755143045 25.893360160756856,252.29555864923168 24.80684104631655,252.29555864923168 24.154929577372968,252.29555864923168 22.688128772657365,252.17076082678977 22.199195171007887,252.10836190643022 20.51509054307826,251.9835640466772 19.86317907436751,251.9211651078076 17.58148893364705,251.73396825394593 16.87525150878355,251.60917032061843 15.462776659987867,251.48437236261088 13.615694165229797,250.6731850358192 12.909456740366295,250.42358872608747 11.714285714318976,250.17399231769377 13.072434607660398,250.48598781274632 14.267605633707717,251.04757931584027 15.462776659987867,251.60917032061843 16.169014084385708,251.67156929027988 17.961770623922348,251.85876616259338 18.505030181026086,251.9211651078076 19.91750503028743,252.0459629795514 20.62374245445244,252.10836190643022 22.090543259633705,252.10836190643022 22.742454728344455,252.17076082678977 24.20925553329289,252.29555864923168 24.86116700200364,252.29555864923168 26.871227364055812,252.35795755143045 27.523138832999393,252.35795755143045 28.50100603606552,252.23315974109573 28.826961770653725,252.23315974109573 29.044265593402088,252.23315974109573 29.26156941638328,252.23315974109573 29.478873239364475,252.23315974109573 29.75050301803276,252.17076082678977 30.022132796701044,252.17076082678977 30.565392354037613,252.23315974109573 30.782696177018806,252.23315974109573 31.271629778668284,252.42035644722637 31.760563380317762,252.66995196935022 31.70623742463067,252.7947496934794 31.70623742463067,252.85714854625985 31.65191146871075,252.85714854625985" stroke="#4dd2ff" stroke-linecap="round" stroke-linejoin="round" stroke-width="0.5"><title>2020-11-30 1.0km</title></polyline></svg>