<?xml version="1.0" encoding="utf-8" ?>
<svg baseProfile="full" height="300mm" version="1.1" viewBox="0,0,200,300" width="200mm" xmlns="http://www.w3.org/2000/svg" xmlns:ev="http://www.w3.org/2001/xml-events" xmlns:xlink="http://www.w3.org/1999/xlink"><defs /><rect fill="#222222" height="300" width="200" x="0" y="0" /><text fill="#FFFFFF" style="font-size:12px; font-family:Arial; font-weight:bold;" x="10" y="20">Over 3km Runs</text><text fill="#FFFFFF" style="font-size:4px; font-family:Arial" x="10" y="280">ATHLETE</text><text fill="#FFFFFF" style="font-size:9px; font-family:Arial" x="10" y="290">jdzj</text><text fill="#FFFFFF" style="font-size:4px; font-family:Arial" x="120" y="280">STATISTICS</text><text fill="#FFFFFF" style="font-size:3px; font-family:Arial" x="120" y="285">Number: 67</text><text fill="#FFFFFF" style="font-size:3px; font-family:Arial" x="120" y="290">Weekly: 3.2</text><text fill="#FFFFFF" style="font-size:3px; font-family:Arial" x="141" y="285">Total: 149.1 km</text><text fill="#FFFFFF" style="font-size:3px; font-family:Arial" x="141" y="290">Avg: 2.2 km</text><text fill="#FFFFFF" style="font-size:3px; font-family:Arial" x="167" y="285">Min: 1.0 km</text><text fill="#FFFFFF" style="font-size:3px; font-family:Arial" x="167" y="290">Max: 13.2 km</text><polyline fill="none" points="23.02797569287941,43.189049809239805 24.741268515586853,43.88262670050608 27.482537030242383,41.50464673782699 25.426585643552244,43.189049809239805 23.88462210446596,41.4055641136365 23.370634257793427,43.684461924480274 21.571676794439554,42.00005970732309 21.828670718241483,44.378038463706616 14.461511583067477,45.96335441869451 17.631103304214776,50.12479655799689 15.832145840860903,48.935814898693934 16.9457861748524,48.539487357542384 15.746481199748814,50.223878297780175 14.632840865757316,49.1339786091703 14.375846942421049,52.79999999998836 15.403822635300457,47.94499574392103 13.347871249075979,50.818368524487596 17.716767944861203,48.04407770448597 15.489487276412547,50.719286845007446 18.573414355516434,50.32296002714429 19.08740220265463,42.59455493930727 20.88635966554284,42.396389902278315 17.802432585973293,41.60372935171472 16.860121534205973,43.486297108756844 18.830408279318362,49.62938770925393 20.715030383784324,48.836733028583694 19.687054690439254,49.23306044947822 20.543701101560146,46.656929339747876 26.368896696250886,45.07161451084539 23.88462210446596,47.44958578929072 26.625890619587153,47.053257645107806 26.283232055138797,43.88262670050608 24.91259779781103,43.78354431746993 29.7098176991567,46.2606008737348 30.65212875092402,41.60372935171472 29.367159134708345,38.13583188067423 28.167854159139097,39.0275781203527 24.05595138622448,37.838582952914294 22.599652487784624,39.225743841263466 26.197567413561046,36.35233695793431 23.541963539551944,38.5321636433946 21.400347512215376,38.5321636433946 25.94057349022478,37.145001770113595 19.17306684376672,37.838582952914294 23.11364033445716,39.126660985755734 25.169591720681638,37.343167872633785 22.94231105223298,39.0275781203527 24.91259779781103,38.63124655879801 21.05768894823268,39.9193235465209 25.08392707956955,38.63124655879801 23.199304975103587,38.92849524517078 25.94057349022478,37.145001770113595 23.02797569287941,38.92849524517078 26.71155526023358,36.15417065459769 21.400347512215376,38.5321636433946 22.85664641112089,38.92849524517078 26.454561337362975,36.45142009475967 22.428323205560446,39.32482668629382 19.85838397219777,38.829412359860726 26.283232055138797,36.64958633802598 22.342658564448357,39.32482668629382 27.311207748483866,36.64958633802598 21.400347512215376,38.730329464306124 24.741268515586853,37.343167872633785 25.255256361793727,38.33399778191233 23.02797569287941,39.0275781203527 24.91259779781103,38.829412359860726 26.88288454245776,38.03674891463015 21.14335358887911,38.63124655879801 23.11364033445716,37.44225090864347 24.05595138622448,38.730329464306124 23.02797569287941,39.0275781203527 24.569939232897013,38.03674891463015 22.342658564448357,39.32482668629382 27.139878466259688,37.93766593898181 22.77098176954314,39.0275781203527 24.91259779781103,37.343167872633785 23.199304975103587,38.829412359860726 24.227280668914318,38.829412359860726 20.543701101560146,38.829412359860726 24.484274591784924,38.730329464306124 25.512250285129994,37.64041695080232 24.312945309560746,37.343167872633785 21.743006076663733,38.730329464306124 23.541963539551944,37.54133393493248 23.11364033445716,38.5321636433946 25.683579567354172,38.92849524517078 19.94404861377552,38.730329464306124 25.597914926242083,37.93766593898181 22.17132928222418,38.33399778191233 25.08392707956955,38.63124655879801 23.541963539551944,38.433080717688426 24.484274591784924,38.63124655879801 21.571676794439554,39.82024076144444 21.743006076663733,40.91015084245009 16.860121534205973,40.216571840806864 20.372371818870306,31.199999999953434 19.08740220265463,33.97433866246138 17.716767944861203,33.677088468219154 14.975499429740012,36.25325381133007 17.374109380412847,37.54133393493248 18.14509115042165,39.82024076144444 22.685317128896713,38.03674891463015 22.342658564448357,41.20739883556962 22.94231105223298,39.32482668629382" stroke="#4dd2ff" stroke-linecap="round" stroke-linejoin="round" stroke-width="0.5"><title>2021-07-17 3.7km</title></polyline><polyline fill="none" points="37.199999999953434,37.32205007082666 40.412960235611536,36.920027209765976 40.8265095729148,33.30180181472679 40.76288659789134,37.28550255598384 41.68541973491665,38.52811603457667 44.962002945598215,41.30570755308145 49.92459499265533,44.19291875389172 57.972901325440034,50.69819818527321 58.79999999993015,50.332736078853486 58.768188512534834,49.27289393040701 57.71840942557901,48.35923447078676 56.22326951415744,49.23634759525885 55.30073637701571,48.72469852521317 52.27864506631158,45.874069334357046 49.79734904284123,44.52184012022917 40.95375552284531,37.87026235964731 37.9634756995365,37.94335727006546 37.422680412302725,37.06621739148977" stroke="#4dd2ff" stroke-linecap="round" stroke-linejoin="round" stroke-width="0.5"><title>2021-07-14 1.9km</title></polyline><polyline fill="none" points="83.974245473044,45.31976656994084 83.49617706239223,46.717542436672375 81.71428571431898,47.81579219541163 71.50100603606552,44.37127360459999 64.76458752527833,44.27143213656382 63.46076458739117,43.37285803665873 63.199999999953434,36.6834229255619 64.06921529164538,36.18420780461747 74.15211267606355,37.082794667599956 81.19275653921068,36.43381542660063 82.75734406430274,37.132716113177594 82.23581488919444,44.17159064853331 84.66961770621128,46.717542436672375 83.93078470835462,46.61770143144531 84.80000000004657,46.76746293186443" stroke="#4dd2ff" stroke-linecap="round" stroke-linejoin="round" stroke-width="0.5"><title>2021-06-29 1.4km</title></polyline><polyline fill="none" points="104.6018552876194,46.366136140874005 105.48348794068443,45.061699517435045 105.89758812618675,44.892889272246975 106.08460111316526,45.107738643389894 106.89944341377122,44.708732432089164 106.83265306125395,44.57061465881998 106.9662337662885,44.6473467702308 106.97959183674539,43.143390483470284 107.36697588133393,41.76219332238543 110.06530612247298,39.368089173789485 110.10538033401826,37.97151139329071 110.39925788505934,37.43436275223212 110.71985157713061,37.89477598677331 110.50612244900549,41.34783178122598 110.80000000004657,41.96170033721137 110.13209647504846,42.48348670398991 109.57105751393829,42.130513765179785 109.59777365496848,42.345366953799385 108.72949907241855,42.345366953799385 107.83450834883843,43.25081641499128 107.82115027838154,43.51170765397546 106.95287569571519,43.956756404193584 106.91280148422811,44.67803960418678 106.31168831168907,45.09239226959471 105.73729128018022,45.04635313911422 105.12282003706787,45.337934068753384 104.65528756962158,46.28940487773798 104.29461966606323,46.44286736611684 103.85380333958892,45.399319457952515 101.0486085342709,45.38397311292647 99.75287569576176,45.614168129264726 98.09647495363606,46.56563724778243 90.82968460110715,40.94881591995363 89.68089053803124,40.933469135619816 89.37365491647506,40.733960801240755 89.4938775509363,40.64187994519307 89.9881261595292,40.81069480633596 89.20000000001164,40.36563704974833 89.21335807046853,40.61118631438876 89.94805194804212,40.82604160277697 89.57402597402688,40.94881591995363 89.7476808904903,41.17901750339661" stroke="#4dd2ff" stroke-linecap="round" stroke-linejoin="round" stroke-width="0.5"><title>2021-06-26 3.3km</title></polyline><polyline fill="none" points="115.19999999999709,47.08529209299013 116.25034990131098,47.54384893720635 116.48289969496545,47.73973587765795 116.70382199893356,48.05582437518024 116.54103714336816,48.15821876590053 116.29685986004188,48.53217891516397 116.02167593754712,48.99517290268341 115.97129014892562,49.204409012072574 116.08368921585497,49.31125260875706 116.97125426163257,49.41809595254381 117.01776422034891,49.645137218416494 116.94799928225984,50.42419170389621 117.04489502961223,49.565005137312255 116.77746276689868,48.679090983270726 116.88598600395198,48.460948649411876 117.14566660685523,48.367458755026746 117.50611878700147,48.40752587631869 119.15722232189728,48.79483954864554 119.25411806926422,48.83490629059088 119.21148394042393,49.173246248737996 119.61069441953441,49.204409012072574 119.78123093485192,48.7636765025527 120.16493809438543,47.005155467217264 120.28508882111055,46.86714205596218 121.1842813565454,47.10755224156674 121.48272025838378,47.14316845645226 121.6144984747807,47.071935998581466 121.84317243853002,47.1298123791712 122.25401040729776,46.907210509143624 124.26169029249286,45.531506592618825 124.4089718284522,45.64726323058494 124.24618697290134,46.141451691495604 124.18417369460803,46.89385436205339 124.37021352951706,47.27672901193364 124.50586757579003,47.361317159324244 127.6452897900599,47.34350914146853 128.13364435671247,47.42364516647285 128.77703211913467,47.40583717321351 130.6413062982174,47.26337297417558 131.14516418446146,47.09864818345886 131.7614211376058,46.5376889809304 132.1722591064172,45.972270665435644 132.49395298761374,45.202043767025316 132.65673784317914,44.13349913242928 132.52495962676767,43.608122074845596 131.54437466357194,42.423775083032524 131.05989592679543,41.48428975605566 131.0288892876415,41.57779391170334 131.16066750403843,41.982976346789656 131.11415754529298,41.982976346789656 131.19554997308296,41.996333947517996 131.57538130271132,42.579611989698606 131.61026377175585,42.61523177849813 131.62964292122342,42.56180208474689 131.3350798492902,42.12100469703364 130.57929301989498,40.52252147830586 130.61805131884466,39.97483871314762 133.5636820383952,37.67271729881759 134.1566840121959,37.12054691636877 135.48609366588062,36.31454414167456 135.99382738200075,35.94048271155043 136.02870985107438,35.824701163925056 135.4783420060994,35.192350543260545 135.89693163467746,34.871718671704 136.5286919074133,34.17255515721263 136.57132603623904,33.95879599534601 136.79612417009776,33.811835983749916 136.8000000000029,33.72276907694322 136.49768526824482,33.57580829610015 136.54419522697572,33.65596878139331 136.59458101561177,33.615888556556456 136.60233267540752,33.71831572700103 136.5325677373039,33.669328848416626" stroke="#4dd2ff" stroke-linecap="round" stroke-linejoin="round" stroke-width="0.5"><title>2021-06-21 11.9km</title></polyline><polyline fill="none" points="144.57755359390285,32.8312897378928 144.495838587638,32.29929992504185 144.74098360654898,32.4557676097611 144.523076922982,32.79999624416814 145.99394703644793,34.36466714396374 149.45321563689504,36.55519342934713 156.53518284996971,42.46953879517969 158.16948297596537,43.064096511516254 160.29407314001583,45.69265410624212 161.1929382092785,49.6980332970561 162.79999999993015,51.76328717035358 161.41084489261266,49.94836781639606 160.34854981082026,45.72394632725627 158.3601513239555,43.157973943831166 153.64791929360945,39.340269278443884 152.2860025219852,38.87087618676014 150.10693568713032,36.86812452014419 149.0446406052215,36.61777967214584 146.02118537202477,33.83267990456079 144.98612862534355,33.45715896273032 144.30517023953144,32.393180545128416 142.04438839841168,32.64352872944437 141.19999999995343,32.23671282964642" stroke="#4dd2ff" stroke-linecap="round" stroke-linejoin="round" stroke-width="0.5"><title>2021-06-16 2.1km</title></polyline><polyline fill="none" points="168.93047210294753,40.63349313905928 168.68326180253644,40.881950811162824 169.95021459215786,41.52084118037601 176.3158798281802,44.11188493933878 179.99313304724637,43.93441678385716 183.67038626607973,44.431327398720896 188.80000000004657,43.756948540743906 186.76051502139308,43.331024400453316 187.13133047195151,42.83411226628232 184.38111587974709,43.2955306993681 181.2600858367514,42.266211844282225 178.9733905578032,42.65664348073187 177.02660944196396,41.84028593968833 173.28755364811514,42.05324895502417 168.9922746780794,40.98843261809088 167.19999999995343,39.56867260125" stroke="#4dd2ff" stroke-linecap="round" stroke-linejoin="round" stroke-width="0.5"><title>2021-06-16 1.4km</title></polyline><polyline fill="none" points="31.725200642016716,66.45798410879797 31.031781701371074,66.85622427868657 23.88956661312841,64.10835911211325 19.13964686996769,64.66589848417789 16.4006420543883,64.34730465160101 15.915248795994557,64.90484369374462 11.199999999953434,63.55081897013588 16.8166934188921,65.14378876177943 23.334831460611895,65.74115081355558 32.79999999993015,68.44918102986412" stroke="#4dd2ff" stroke-linecap="round" stroke-linejoin="round" stroke-width="0.5"><title>2021-06-15 1.2km</title></polyline><polyline fill="none" points="51.04511278192513,70.75760759520927 49.33984962408431,71.78374124711263 46.66015037591569,71.45724441774655 38.78345864685252,59.143485044070985 37.199999999953434,60.0297132889973 39.02706766920164,63.80782558390638 40.894736842252314,65.53361991653219 43.16842105286196,66.18662153405603 45.40150375943631,69.59154392269556 48.690225563943386,71.83038363300147 51.04511278192513,72.85651495592901 56.932330826995894,70.9908199844358 58.800000000046566,71.2240322586149" stroke="#4dd2ff" stroke-linecap="round" stroke-linejoin="round" stroke-width="0.5"><title>2021-06-11 1.2km</title></polyline><polyline fill="none" points="82.24589489592472,76.79690871739695 82.33216876766528,76.78454358392446 82.53167709601985,76.63925290294719 82.90373316782643,76.24047291715397 82.90912528480112,76.03335264256566 82.7284893658798,76.18482879776457 82.62334308472055,76.05190078225314 82.65839184510696,76.16318939151643 82.7230972489051,76.18792014030805 82.90912528480112,76.0240785686401 82.91182134329574,76.21265086971835 82.82285141308967,76.33939555393044 82.3213845336868,76.79690871739695 82.08952350342588,76.79999999999927 81.48291034286376,75.02864546105411 81.4289891730441,74.00226541477423 81.11085427105718,73.58799413533961 80.55816228030017,73.2479166332505 80.55546622183465,72.98512696283797 80.45301599914092,72.83054378168163 79.98659788013902,72.37606484385105 79.64419845172961,72.17201094696793 79.22361332707806,71.72679786500521 79.08611434401246,71.70206362072895 78.64126469293842,71.78244984373669 78.58464746462414,71.80409225340736 78.71675433068594,71.82573464824054 78.68979374578339,71.86283586197169 78.46332483249716,71.94322167545761 77.7003402794362,72.08544222848832 77.43343048878887,72.07307524931821 77.51431224354019,72.10090094563384 77.46847924917529,72.13800183589228 77.5224004190095,72.11017617228026 77.53048859449336,72.18746962171099 77.53857676996267,72.097809202809 77.42534231331956,72.07925873950808 76.98858083771484,71.83810172432459 75.92363773362013,71.8504687955774 75.637855533525,71.73607320161136 75.10403595223033,71.96486397487206 74.47855038222042,71.83191818688647 74.29521840480447,71.7515320898965 73.97438744433748,71.39906755507036 73.63198801592807,71.10843594217295 73.15478566294769,71.00022135988729 72.6047897307144,70.98785395543382 72.22464548342396,70.80543417657645 71.87954999653448,70.53644037522827 69.87098642042838,69.65832970599695 69.70383079398016,69.6397778085302 69.19427573909343,69.7294452118822 68.93275806543534,69.69852544640344 68.67393645025732,69.5593861268062 68.30457643694535,69.15742464555115 67.74918838770827,68.67506410792521 67.61168940464268,68.18341981676713 67.4175731932628,67.93604872252217 67.04012500448152,67.21247713646517 66.74355857042246,66.9187147041921 65.82150656636804,64.56851674294558 65.80533021541487,64.36750483968171 65.85655532675446,64.11391876464768 66.2501798664889,63.41809283988914 66.34723797217885,63.10573932022271 66.27983650990063,62.849050448201524 65.95091737396433,62.31401752762031 65.69479181726638,61.79134654318477 65.52494013230898,61.253202866369975 65.54920465873147,60.9748490840484 65.770281455043,60.20163123655402 65.79724203994556,59.72222664579749 65.74332087011135,59.3201397537523 65.47641107946401,58.25303813092796 65.52224407382892,57.64369143241129 65.49797954739188,56.762128400836446 65.42248990964436,56.41258956383717 65.43057808511367,56.05686021766451 65.30386333602655,55.53717882308047 65.08817865670426,55.19999999999891" stroke="#4dd2ff" stroke-linecap="round" stroke-linejoin="round" stroke-width="0.5"><title>2021-06-10 13.2km</title></polyline><polyline fill="none" points="97.61048296582885,70.65226723949309 97.89722500985954,71.61285943468101 99.1636690380983,71.4756321812165 99.23535454901867,72.18921316042542 100.14337102207355,72.07943159039132 100.69295993982814,72.82045634766109 101.00359715439845,72.16176777196233 100.35842755506746,71.72264118873863 100.95580681378487,71.77753204954206 101.29033919831272,72.16176777196233 100.8363309619017,72.84790167113533 102.27004118240438,73.01257355528651 101.55318607226945,73.47914336452959 101.48150056123268,72.95768293808214 101.9355087976437,72.68322968957364 102.15056533075403,72.985128247994 101.9832991383737,72.54600296393619 102.36562186374795,72.76556569256354 101.95940396806691,72.73812036099844 102.00719430868048,72.38133080376429 102.60457356716506,73.53403387882281 102.15056533075403,74.19271920694155 100.90801647293847,74.60439674541703 98.9008221643744,74.54950644215569 96.75025683350395,76.05898583793896 96.03340172336902,75.61986540345242 95.57939348684158,76.11387584343902 96.1050872344058,76.69022024865262 96.91752302600071,76.41577068076003 96.24845825647935,76.6353303566284 96.77415200392716,76.69022024865262 96.86973268527072,76.22365582219209 96.89362785569392,76.4981055794633 96.22456308605615,76.38832570906379 96.89362785569392,76.4981055794633 96.46351478958968,76.25110081007006 96.98920853703748,76.22365582219209 95.26875627238769,76.4981055794633 95.98561138263904,76.27854579532868 96.27235342666972,76.79999999998836 96.27235342666972,76.4981055794633 95.67497416818514,76.58044045395218 96.20066791574936,76.3608807346609 96.86973268527072,76.55299549846677 96.36793410801329,76.55299549846677 96.51130513020325,76.00409582149587 96.43961961916648,76.6353303566284 96.03340172336902,76.4432156496332 96.36793410801329,76.19621083157836 96.29624859709293,76.71766519051744 95.96171621233225,75.97665080922889 96.43961961916648,75.94920579425525 96.22456308605615,76.47066061594523 95.72276450879872,76.33343575758045 95.93782104190905,75.26307954033837 94.88643354689702,73.86337673777598 94.74306252493989,72.29899468706571 93.50051366712432,70.48759395891102 93.38103781547397,69.96612792738597 93.835046051885,69.33487826626515 93.33324747474398,67.85280821745982 93.88283639261499,66.42562219250249 93.81115088157821,64.83375222256291 95.26875627238769,55.19999999998254 95.77055484964512,55.2274470613047 95.77055484964512,55.7214937012468 96.51130513020325,56.13319856443559 98.853031823528,56.380221190076554 99.06808835663833,56.8468188844854 100.93191164336167,56.13319856443559 102.77183975966182,57.09384087665239 103.70375140290707,56.819371983001474 103.9188079360174,57.258522082847776 105.73484088201076,56.76447817173903 105.99768775573466,57.99958630485344 106.66675252525602,58.438734542171005" stroke="#4dd2ff" stroke-linecap="round" stroke-linejoin="round" stroke-width="0.5"><title>2021-06-08 2.7km</title></polyline><polyline fill="none" points="136.80000000004657,63.409794419130776 129.01272430666722,60.698050593200605 120.94355628057383,60.171889267570805 117.77226753672585,58.39103054400766 117.94845024473034,56.933958566893125 117.59608482848853,57.05538142926525 115.19999999995343,71.38302693981677 115.69331158231944,72.79957488723448 116.85611745505594,73.81139185623033 116.32756933104247,75.06604143307777" stroke="#4dd2ff" stroke-linecap="round" stroke-linejoin="round" stroke-width="0.5"><title>2021-06-08 1.1km</title></polyline><polyline fill="none" points="162.19195710448548,66.9977428719576 155.15603217144962,64.30384848060203 151.47882037528325,65.00226761162048 149.04664879338816,64.80271943609114 148.61233243951574,65.20181566910469 144.8772117961198,64.00452555314405 141.19999999995343,64.53665501839714 144.4139410186326,63.871493055601604 148.49651474528946,65.20181566910469 154.49008042889182,65.46787956194021 159.03592493291944,67.09751632501138 162.7710455764318,68.12850694436929 162.79999999993015,67.79592966960627" stroke="#4dd2ff" stroke-linecap="round" stroke-linejoin="round" stroke-width="0.5"><title>2021-06-07 1.5km</title></polyline><polyline fill="none" points="181.4122946721036,75.42332553342567 181.2468500819523,70.72361416352214 179.92329336050898,69.9165884173417 176.324873524718,65.16935084125726 173.76048237713985,65.69154925938346 178.0206805737689,60.94427014220855 181.4122946721036,55.20000000001164 174.7531499180477,64.97946036746725 176.15942893433385,64.93198773739277 177.19345762301236,65.78649436563137 181.20548893418163,70.62867002814892 181.2468500819523,75.32838232224458 182.23951762309298,76.79999999998836 181.32957237702794,76.2778135954577" stroke="#4dd2ff" stroke-linecap="round" stroke-linejoin="round" stroke-width="0.5"><title>2021-06-04 1.3km</title></polyline><polyline fill="none" points="24.190327340038493,93.1097840013681 24.424513282079715,93.47373257562867 25.113295464543626,93.47373257562867 24.93421209708322,93.0781362602429 25.30615447560558,92.90407357236836 24.89288516616216,92.96736911709013 24.975539028004277,92.39770831553324 24.5484940749011,92.20782093210437 24.534718431299552,92.44518012627668 24.975539028004277,92.91989746091713 24.98931467172224,93.55285172165895 24.41073763841996,93.5053802387265 23.983692685316782,92.96736911709013 24.06634654721711,93.23637490349938 23.556647732213605,93.33131801447598 22.922968124446925,92.20782093210437 22.20663465477992,91.46409318254155 19.768345729040448,89.73926449069404 19.49283285601996,88.26760699760052 19.782121372583788,86.7801115084585 21.13213445013389,84.54884240710817 22.399493665841874,83.52023272214865 23.694404168752953,82.00104327403824 23.74950674327556,80.76669125058106 23.25358357199002,79.8013580475963 22.826538618886843,79.5165045166359 22.371942378522363,79.95960979055963 22.247961585700978,79.56398014030128 22.440820596704725,79.54815493394563 22.179083367460407,79.50067930571095 22.358166734862607,79.53232972609112 22.22041029832326,79.84883358687512 22.289288516622037,79.59563054828322 22.027551287261304,79.78553286468377 22.234185942041222,79.64310614843271 22.055102574580815,79.59563054828322 22.11020514916163,79.78553286468377 21.600506334216334,80.16533682295994 22.179083367460407,79.84883358687512 21.95867306907894,79.99126012041233 22.041326930979267,79.67475654075679 21.86224356351886,80.07038591771561 21.86224356351886,79.78553286468377 22.371942378522363,79.46902887898614 22.619903964165132,79.81718322889355 22.509698815003503,79.92795945444959 22.895416837127414,79.95960979055963 22.45459624042269,80.16533682295994 21.88979485083837,79.40572800689552 22.509698815003503,79.50067930571095 22.52347445860505,79.19999999999709 21.61428197787609,80.18116196838673 22.399493665841874,80.16533682295994 22.399493665841874,79.95960979055963 21.83469227619935,80.02291044402227 22.619903964165132,79.46902887898614 21.917346138099674,79.92795945444959 22.192859011061955,79.91213428406627 22.303064160223585,79.78553286468377 22.013775643659756,79.64310614843271 22.09642950556008,79.92795945444959 22.52347445860505,79.7064069268381 22.399493665841874,79.94378462326131 22.413269309385214,79.75388249421667 22.22041029832326,79.84883358687512 22.303064160223585,79.62728094990598 22.578577033185866,79.61145574983675 22.4821475277422,79.99126012041233 22.70255782606546,79.6905817345978 22.358166734862607,80.11786137736635 22.537250102264807,79.84883358687512 22.316839803941548,79.2474757173186 22.716333469725214,79.43737844604766 22.09642950556008,79.95960979055963 22.358166734862607,80.07038591771561 22.52347445860505,79.86465876353031 22.413269309385214,80.11786137736635 22.66123089508619,79.5165045166359 22.509698815003503,80.00708528302494 22.675006538804155,80.21281225452549 22.440820596704725,79.97543495628634 20.443352267786395,82.01686823827913 22.90919248072896,79.72223211750679 24.68625051138224,81.1464928851201 25.512789130327292,82.38084198521392 24.700026155041996,96.43276207338204 19.65814057982061,96.55935035314178 18.638742949813604,96.82835011588759 18.487210869672708,99.09109497033933 19.010685328335967,99.4708532167715 20.126512463844847,99.21768115236773 20.622435635188594,99.75567131169373 20.209166325745173,100.08795844991982 20.953051082789898,100.18289750587428 21.09080751921283,100.45189119256975 21.063256231951527,100.80000000000291 20.81529464625055,100.46771433655522 20.67753820976941,100.54683003315586" stroke="#4dd2ff" stroke-linecap="round" stroke-linejoin="round" stroke-width="0.5"><title>2021-06-02 5.9km</title></polyline><polyline fill="none" points="43.41287446941715,100.15227600421349 45.3431542434264,98.38348278471676 48.336172320181504,94.34759835581644 50.91710819792934,88.966318788036 52.02322357427329,84.85554186248919 52.00153503741603,79.19999999999709 52.435305773164146,79.59863265082822 52.652191140921786,83.93372209358495 51.133993565803394,89.63898500494543 49.46397623314988,93.52546584278753 46.77459767146502,97.51153790681565 43.347808859078214,100.80000000000291" stroke="#4dd2ff" stroke-linecap="round" stroke-linejoin="round" stroke-width="0.5"><title>2021-06-01 2.2km</title></polyline><polyline fill="none" points="84.79999999993015,91.47635831439402 84.36599690874573,91.97486595442751 75.08500772796106,89.02215753664495 68.70850077271461,89.21389253027155 68.17434312216938,89.71240307122935 64.0346213291632,88.25521661652601 63.199999999953434,88.29356369850575 63.23338485322893,88.71538135013543 64.00123647612054,88.02513404554338 68.64173106651288,89.94248464371776 77.0547140649287,90.21091297297971" stroke="#4dd2ff" stroke-linecap="round" stroke-linejoin="round" stroke-width="0.5"><title>2021-05-31 1.1km</title></polyline><polyline fill="none" points="101.0269891130738,99.99629552630358 101.46400575712323,96.4298415791709 102.20693405182101,96.98239242186537 104.91643724404275,96.4298415791709 105.8341721962206,95.42520214305841 106.53339882660657,92.46150422698702 108.15036040893756,93.06429164510337 107.1889237924479,92.6624334459193 107.66964210080914,91.95918083234574 107.58223877171986,93.16475614518276 107.66964210080914,91.90894846542506 107.6259404362645,93.76754272839753 106.2274871757254,92.36103958779131 110.68505694367923,94.82241752752452 106.14008384686895,93.11452389755868 107.2326254567597,92.61220114884782 106.66450381977484,90.9545325517538 106.2274871757254,93.41591730850632 107.58223877171986,92.16011024982436 107.10152046359144,91.35639210251975 108.32516706665047,93.16475614518276 108.89328870363533,92.91359485773137 107.27632712130435,93.66707834758563 105.7904705319088,92.96382712526247 107.93185208714567,92.76289802548126 106.44599549798295,92.4112719099794 105.35345388785936,95.97775407889276 101.15809410624206,96.68100112763932 101.28919909941033,98.58980963676004 99.54113252367824,99.94606395452865 99.6285358525347,100.79999999998836 100.28406081837602,99.8456007958157 98.36118758493103,94.62148916331353 89.31494305608794,79.19999999998254" stroke="#4dd2ff" stroke-linecap="round" stroke-linejoin="round" stroke-width="0.5"><title>2021-05-30 1.4km</title></polyline><polyline fill="none" points="115.98435754165985,87.86895987065509 119.09162011160515,89.6361701549904 124.7631284914678,91.74988058526651 127.38770949712489,91.50732429651543 130.70614525128622,92.1310401293158 136.28715083794668,91.29941877289093 136.79999999993015,90.88360735660535 136.22681564232334,91.33406970204669 130.91731843561865,91.92313497472787 123.52625698316842,91.43802246905398 118.60893854743335,90.12128514857613 115.19999999995343,88.3540773045097" stroke="#4dd2ff" stroke-linecap="round" stroke-linejoin="round" stroke-width="0.5"><title>2021-05-27 1.4km</title></polyline><polyline fill="none" points="162.80000000004657,91.5533500314632 160.09530434780754,91.4239049233147 154.61078260862269,89.35277798259631 146.30886956537142,89.05073781785904 141.19999999995343,87.66998012328986 144.35547826089896,88.87814334436553 152.88278260850348,89.65481793880463 161.67304347804748,92.33001987668104 162.38678260869347,92.11427839126554" stroke="#4dd2ff" stroke-linecap="round" stroke-linejoin="round" stroke-width="0.5"><title>2021-05-25 1.1km</title></polyline><polyline fill="none" points="167.79474342928734,88.24558938734117 168.82202753436286,89.08398385517648 172.25531914876774,89.39449975814205 175.66157697117887,91.35074290478951 179.7436795993708,91.19548595618107 182.04155193991028,91.56810250409762 186.853566958569,90.8849718295387 188.79999999993015,89.92237609039876 188.79999999993015,90.63656030752463 181.12240300374106,91.75441061265883 178.20275344175752,91.25758874489111 175.60750938672572,91.47494840848958 170.47108886099886,90.2328911665245 167.19999999995343,88.7734676458931" stroke="#4dd2ff" stroke-linecap="round" stroke-linejoin="round" stroke-width="0.5"><title>2021-05-24 1.6km</title></polyline><polyline fill="none" points="19.61395348829683,113.44105418300023 24.637209302163683,113.58529933882528 24.637209302163683,114.1983406166255 27.839534883620217,115.64078662748216 32.79999999993015,115.17199229812832 27.745348837110214,115.67684770480264 24.16627906973008,115.06380890600849 20.430232557933778,115.2441145417688 11.199999999953434,112.32315229519736" stroke="#4dd2ff" stroke-linecap="round" stroke-linejoin="round" stroke-width="0.5"><title>2021-05-21 1.1km</title></polyline><polyline fill="none" points="50.14869664539583,124.79999999998836 50.918749778415076,124.05815092180273 50.670345542021096,123.31629994107061 51.06779232039116,119.86381457818788 52.55821773922071,119.35021819346002 52.881143246777356,118.57982190645998 54.669653749559075,119.00782009700197 58.34603644942399,118.49422219238477 58.22183433105238,116.83928940744954 56.97981314873323,114.15713685489027 54.4957707838621,110.67600815641345 52.707260281196795,108.99249646041426 49.85061156167649,107.30897496518446 45.80162250692956,106.7382874887262 44.311197088100016,106.13906442638836 42.125239807064645,106.45294332815683 39.39279320568312,104.82647623747471 38.871144309057854,103.19999999998254 37.65396355045959,103.62802094922517 37.72848482138943,104.5411301907152" stroke="#4dd2ff" stroke-linecap="round" stroke-linejoin="round" stroke-width="0.5"><title>2021-05-20 1.7km</title></polyline><polyline fill="none" points="63.3038461538963,112.1511357218842 63.199999999953434,109.94439573778072 67.8211538461037,109.10941094096052 84.43653846159577,109.46726170938928 84.80000000004657,117.57848898816155 83.81346153840423,118.29418028873624 75.40192307694815,117.57848898816155 74.36346153845079,118.29418028873624 67.97692307690158,118.89058905903948 64.29038461553864,118.35382119234418 63.45961538446136,117.63812996214256 63.45961538446136,111.43543715006672" stroke="#4dd2ff" stroke-linecap="round" stroke-linejoin="round" stroke-width="0.5"><title>2021-05-18 1.1km</title></polyline><polyline fill="none" points="89.19999999995343,114.73490694213251 90.04031830222812,115.52462390180153 94.14641909801867,117.25760406878544 96.72466843493748,117.19179494198761 98.46259946934879,117.58664941068855 101.46100795746315,117.2356676953641 104.76498673739843,116.27046512240486 105.70079575583804,115.70011617867567 107.2095490716165,114.6471604401886 110.79999999993015,111.11533499849611 110.22705570282415,110.413350589326 108.81379310344346,111.51020025488106 100.54429708211683,112.40961294418958 99.34111405815929,112.08055994319147 92.82864721480291,111.88312790892087 92.48488063644618,112.43154979358951 92.56127320951782,112.21218120203412 92.17931034474168,112.3657392388559 91.77824933675583,113.19933816026605 91.18620689644013,113.4406425280904 89.46737400523853,113.08965427010844 89.21909814304672,112.62898134101124" stroke="#4dd2ff" stroke-linecap="round" stroke-linejoin="round" stroke-width="0.5"><title>2021-05-10 2.5km</title></polyline><polyline fill="none" points="136.80000000004657,120.8977506790543 136.69244813278783,120.28006116092729 135.95751037355512,119.51824157139345 134.79236514528748,120.09475394907349 134.20082987553906,119.9094465727394 134.1649792531971,119.33293368323939 134.55933609965723,118.67405985989899 134.41593361005653,116.84155610324524 133.9857261410216,116.22385458248027 131.70921161829028,116.92391616792884 130.18556016602088,116.75919600612542 130.13178423244972,116.28562481679546 126.18821576761547,116.3473950329062 124.12680497928523,116.01795366931765 120.82854771788698,116.61506575791282 118.4803319502389,116.67683587648207 116.61609958508052,116.26503474074707 115.19999999995343,113.81480118533364 117.2614107884001,112.33229296727222 118.17560165980831,111.3233577417559 120.05775933607947,110.35559896331688 120.29078838170972,109.65551534775295 122.28049792535603,108.77011211805802 124.19850622408558,107.45229570445372 123.42771784239449,108.31711366445234 121.29460580914747,109.24370035929314 119.28697095438838,107.47288664989173 118.01427385897841,107.10224932096025" stroke="#4dd2ff" stroke-linecap="round" stroke-linejoin="round" stroke-width="0.5"><title>2021-05-08 2.6km</title></polyline><polyline fill="none" points="162.79999999981374,110.26421503492747 162.6585924711544,111.76666118454887 158.41636661207303,112.01030058410834 157.78003273322247,113.1878889821819 151.2399345333688,111.68544801944518 147.84615384601057,111.96969402758987 146.60883797029965,112.66000494445325 141.80098199658096,111.60423483813065 141.19999999995343,112.57879195542773 146.2199672665447,114.36547401218559 153.50245499168523,115.09638716420159 162.6585924711544,117.73578496507253" stroke="#4dd2ff" stroke-linecap="round" stroke-linejoin="round" stroke-width="0.5"><title>2021-05-08 1.3km</title></polyline><polyline fill="none" points="188.79999999993015,113.63805036433041 188.25570291781332,113.93419610816636 185.0472148541594,112.74961155556957 184.5315649867989,113.21028382584336 181.26578249328304,111.95988618361298 179.1458885940956,112.94704260639264 174.53368700260762,113.24318896353361 171.58302387269214,112.28893864914426 168.60371352778748,112.81542191881454 167.5724137929501,112.65089598626946 167.19999999995343,112.12441245699301 171.98408488044515,112.32184387787129 174.79151193634607,113.5722401633102 179.37506631296128,113.44061972235795 188.6281167109264,116.04011381638702" stroke="#4dd2ff" stroke-linecap="round" stroke-linejoin="round" stroke-width="0.5"><title>2021-05-07 1.5km</title></polyline><polyline fill="none" points="11.299692307598889,142.14813170203706 11.199999999953434,141.57466302404646 12.795076923095621,141.03942482051207 13.4596923077479,139.43370574639994 21.80061538470909,134.46358045941452 24.45907692296896,135.22821929460042 25.09046153840609,136.06932025947026 25.854769230703823,134.19595650833799 25.555692307651043,133.85186829796294 25.555692307651043,135.15175547939725 25.389538461575285,134.73120422448847 24.758153846138157,136.18401570335845 25.58892307698261,135.22821929460042 24.79138461535331,136.06932025947026 25.22338461515028,134.6547403105942 24.924307692213915,136.14578389251255 25.655384615296498,135.49584252823843 27.017846153932624,135.72523372317664 29.044923076871783,134.99882780353073 30.905846153735183,135.07529164897278 32.79999999993015,136.18401570335845 31.570461538271047,135.34291498883977 30.07507692289073,135.15175547939725 26.585846153786406,135.99285661135218 24.857846153667197,134.88413200664218" stroke="#4dd2ff" stroke-linecap="round" stroke-linejoin="round" stroke-width="0.5"><title>2021-05-06 1.2km</title></polyline><polyline fill="none" points="42.589792060432956,139.97022751005716 43.5289224954322,137.95319723919965 50.225330812856555,132.98094652371947 53.04272211715579,129.97880769876065 56.75841209851205,128.00864378883853 58.18752362951636,129.36899593262933 58.800000000046566,143.2068395917886 58.02419659728184,139.07898263185052 46.79546313802712,145.22384756797692 43.85557655966841,142.40941547282273 38.34328922489658,145.4114757818461 37.199999999953434,147.3346607029962 38.384120983071625,147.99135621113237 41.89565217401832,144.70786959808902 43.20226843096316,141.70580484520178 42.46729678637348,140.62693319297978" stroke="#4dd2ff" stroke-linecap="round" stroke-linejoin="round" stroke-width="0.5"><title>2021-05-06 1.8km</title></polyline><polyline fill="none" points="76.28407310706098,134.65907594456803 78.22976501297671,134.07236538428697 78.42715404706541,133.45305863354588 76.1712793733459,132.54039388312958 76.45326370757539,132.60558430830133 76.11488250654656,132.964131410321 77.77859007834923,133.61603420972824 79.24490861629602,133.38786838002852 78.76553524797782,135.50654486721032 80.23185378592461,134.69167094433215 80.17545691900887,135.31097531376872 80.76762402092572,135.27838037660695 82.9671018277295,137.03850226165378 84.57441253249999,137.39704442955554 84.60261096607428,138.30969541962259 84.09503916441463,139.02677652644343 84.79999999993015,142.28621598501923 84.20783289812971,143.45960611684131 68.52950391650666,141.6017364343861 64.15874673624057,142.188433281146 63.199999999953434,142.90550575387897 63.8767624021275,142.22102751914645" stroke="#4dd2ff" stroke-linecap="round" stroke-linejoin="round" stroke-width="0.5"><title>2021-05-02 1.6km</title></polyline><polyline fill="none" points="95.81670886068605,132.84641383722192 97.34784810105339,133.47876323369564 99.20708860759623,131.89788854058133 106.5893670883961,130.6964210945298 109.87037974665873,132.02435866341693 110.79999999981374,134.23758166382322 109.65164556982927,140.56103269133018 100.35544303781353,143.84920189867262 89.85620253137313,145.3035789055284 89.19999999995343,144.2286049229442 93.73873417708091,131.2023024064256" stroke="#4dd2ff" stroke-linecap="round" stroke-linejoin="round" stroke-width="0.5"><title>2021-05-01 1.0km</title></polyline><polyline fill="none" points="125.50366438762285,137.11315597448265 124.19514322816394,139.20011186110787 122.25492219859734,135.18271424883278 122.34516503708437,133.7218346184818 123.92441471247002,131.26963449281175 126.40609277342446,130.22614153544419 132.81333431322128,130.3304909261642 136.55841211462393,127.20000000001164 131.8206630886998,130.53918964450713 120.67567252321169,129.02612202009186 119.72812271816656,129.49569520686055 117.87814452708699,133.46096281975042 117.24644465697929,143.16530474333558 116.47938052914105,145.66962135827634 115.57695214310661,146.03483318036888 115.44158788537607,148.79999999998836 116.16353059397079,148.43479013908654 116.47938052914105,146.71308301994577 117.6976588498801,133.14791648695245 119.32202994450927,131.53050740167964 119.99885123386048,131.94790378096513" stroke="#4dd2ff" stroke-linecap="round" stroke-linejoin="round" stroke-width="0.5"><title>2021-05-01 1.8km</title></polyline><polyline fill="none" points="159.48121368623106,136.0378349780367 158.7282117495197,136.16597862626077 157.50109748227987,137.04696347011486 156.00903808913426,136.98289200631552 155.74409296317026,137.30324907263275 155.78592640411807,136.99890987465915 154.78192382183624,137.33528474450577 152.41136216913583,137.0309456065297 151.01691413816297,137.1911241713242 150.59857972891768,136.9668741364294 149.0786313751014,137.25519555294886 145.648289218836,137.33528474450577 142.23189154290594,136.98289200631552 141.20000000001164,137.86387241774355 141.26972240151372,138.16820999450283 145.28573273075745,138.9530779547058 145.71801162039628,138.82493650604738 146.51284699811367,139.2413958444231 148.63240800518543,139.27343113390089 149.957133634598,139.78599490594934 150.5288573272992,139.6098012918228 152.03486120078014,139.96218832896557 152.41136216913583,140.25050442690554 153.34564234991558,140.36262721562525 153.59664299548604,140.17041667328158 154.27992253069533,140.49076745082857 155.13053582952125,140.3466096791526 156.55287282116478,140.76306511477742 156.67837314395,140.37864475056995 156.98515171080362,140.3466096791526 157.5568754034466,140.65094260255864 157.75209812785033,140.18643422715832 158.58876694639912,139.73794212110806 159.59276952868095,138.72883035318227 160.70832795352908,138.29635196141317 161.29399612656562,137.5915698918834 162.27010974823497,137.28723123433883 162.79999999998836,136.55040896416176 162.52111039380543,135.70145742023306 162.0888315042248,135.23693488522258 161.21032924467,135.797565365021 159.87165913492208,135.71747541498917 159.78799225308467,136.23005041247234 157.90548741118982,137.15908847100218 158.29593285993906,137.52749864295765 158.56087798578665,137.3513025780412 159.46726920589572,138.0400679264858 160.2202711427235,137.92794353398494 160.27604906389024,137.7357301095326" stroke="#4dd2ff" stroke-linecap="round" stroke-linejoin="round" stroke-width="0.5"><title>2021-04-30 3.7km</title></polyline><polyline fill="none" points="188.62938388611656,136.58898702598526 187.26445497618988,138.54873691071407 186.51374407566618,138.66632159650908 179.07488151651341,136.62818211846752 172.4549763032701,136.58898702598526 173.3421800947981,137.3336931206577 167.19999999995343,135.4915228689788 172.1137440756429,137.2161080405058 179.962085307925,137.96081296002376 188.04928909929004,140.5084771309921 188.79999999993015,140.35169826893252 187.77630331739783,139.9989456034382" stroke="#4dd2ff" stroke-linecap="round" stroke-linejoin="round" stroke-width="0.5"><title>2021-04-29 1.4km</title></polyline><polyline fill="none" points="19.50057142856531,161.46843952391646 21.25942857132759,160.08597749008914 20.642285714275204,158.98709361656802 21.722285714000463,158.63261423064978 29.097142856917344,151.5784017026017 29.96114285697695,151.47205573011888 32.79999999993015,154.73331789701479 29.189714285428636,157.07290077660582 29.59085714269895,157.10834888470708 27.338285713922232,159.55425990652293 28.294857142609544,159.19978108030045 28.51085714274086,158.3844784523244 27.430857142666355,159.2706768734788 22.277714285533875,165.50945188684273 18.7908571427688,167.5653880982718 16.414857142721303,169.6567594135995 16.260571428458206,171.00373788256547 14.316571428440511,172.52794426985201 12.711999999941327,171.71267189036007 11.199999999953434,169.55041879310738 11.323428571340628,167.4590468587121 13.452571428497322,166.46652710431954 14.223999999812804,165.26132085875724 16.353142857085913,164.33968982516672 16.754285714239813,163.41805642697727 17.803428571322,162.81544869582285 18.111999999848194,161.75202082199394 18.914285714155994,161.14941029602778 19.809142856975086,161.36209647948272 19.994285714114085,160.68858979997458" stroke="#4dd2ff" stroke-linecap="round" stroke-linejoin="round" stroke-width="0.5"><title>2021-04-26 2.2km</title></polyline><polyline fill="none" points="49.94371921487618,168.98358240476227 50.53272503777407,168.1715718084597 51.215971792000346,159.64531536618597 53.5248746171128,151.19999999998254 51.404453655239195,159.50997582476703 49.73167711868882,160.294944235211 47.304973129183054,160.13253716222243 44.78402820788324,160.51148684948566 43.46465516509488,161.3235201300704 42.545806081499904,162.6227683768666 42.4751253828872,170.58052956312895 43.535335863824,172.52933383526397 44.24214285099879,172.79999999998836 44.71334750915412,172.55640046374174 47.257852663402446,170.41812858200865 48.12958128086757,171.01359837604105 48.97774966561701,170.3910617424408 49.142671296023764,169.68732297664974" stroke="#4dd2ff" stroke-linecap="round" stroke-linejoin="round" stroke-width="0.5"><title>2021-04-25 2.2km</title></polyline><polyline fill="none" points="74.83463103964459,172.8000000000029 74.19767577259336,168.05623116942297 74.54909936827607,165.35628087850637 74.19767577259336,160.33480216412863 74.52713539346587,151.5785203853884 74.26356769679114,151.20000000001164 73.71446832851507,151.5785203853884 73.16536896035541,160.51143876765855 73.38500870764256,169.2926474843116 74.26356769679114,169.54497660984634 74.32945962087251,169.31788040809624 74.4392794945743,165.0030142448377 74.15374782308936,168.359027554543" stroke="#4dd2ff" stroke-linecap="round" stroke-linejoin="round" stroke-width="0.5"><title>2021-04-18 2.2km</title></polyline><polyline fill="none" points="110.80000000004657,165.07463768444723 106.9318051575683,164.68364642042434 95.2343839542009,161.16470595585997 90.06647564459126,160.6670752383361 89.19999999995343,160.0983535767591 95.35816618904937,160.0272633060522 96.71977077366319,158.92536231552367 99.38108882517554,160.1338987069612" stroke="#4dd2ff" stroke-linecap="round" stroke-linejoin="round" stroke-width="0.5"><title>2021-04-16 1.0km</title></polyline><polyline fill="none" points="136.80000000004657,163.7323563605023 136.16736401669914,163.90104692101886 135.9075313807698,163.36902211081178 135.45564853557153,163.18735460967582 134.87949790793937,163.33009338164993 134.67615062760888,163.16140208898287 134.3937238493818,162.77211366503616 134.89079497911735,161.88972230597574 134.72133891214617,161.24090135429287 134.38242677826202,161.09816031553783 131.7502092050854,161.2798307016783 129.50209205021383,161.08518384976196 128.40627615066478,161.34471292163653 127.94309623434674,161.1630426250631 127.19748953980161,161.24090135429287 127.01673640171066,161.08518384976196 125.54811715480173,161.25387780468736 125.02845188288484,161.07220738270553 124.42970711301314,161.24090135429287 123.83096234314144,160.9943485536205 122.5656903766212,161.22792490263237 121.526359832671,160.8126777732541 120.66778242681175,160.91648967849324 120.18200836825417,160.31957010473707 119.30083682009717,160.3714762621239 118.49874476989498,160.12492183200084 118.17112970718881,160.2806404732255 117.71924686199054,159.83943717771035 117.0527196652838,160.07301557730534 116.08117154811043,159.7486010214052 115.51631799171446,160.0470624423033 115.91171548125567,159.7615776189923 116.00209205021383,160.20278117564158 115.20000000001164,160.16385150958376 115.87782426783815,159.91729669032793 115.55020920507377,159.99515615687415 115.90041841007769,159.96920300649072 115.6179916318506,160.08599214290734 115.79874476994155,160.2806404732255 115.60669456073083,160.12492183200084 115.87782426783815,160.03408587283047 115.79874476994155,159.89134352456313 115.57280334731331,159.96920300649072 115.65188284520991,160.16385150958376 116.00209205021383,160.02110930212075 115.83263598330086,159.95622642934904 115.81004184106132,160.137898392466 115.90041841007769,159.90432010810764 115.77615062770201,160.137898392466 115.8552301255404,159.95622642934904 115.91171548125567,160.09896870721423 115.74225941428449,159.6318115854374 115.84393305447884,159.96920300649072 115.78744769876357,159.7486010214052 115.81004184106132,159.96920300649072 115.58410041843308,159.80050740412844 115.66317991638789,159.6837180142029 115.74225941428449,159.80050740412844 115.57280334731331,159.86539035370515 115.79874476994155,159.9821795822936 115.6179916318506,159.8783669397817 115.83263598330086,159.6837180142029 115.67447698750766,159.95622642934904 115.49372384941671,159.95622642934904 115.67447698750766,159.61883497503004 115.50502092053648,159.73562442255206 115.77615062770201,159.96920300649072 115.58410041843308,159.85241376633348 115.6179916318506,159.96920300649072 115.67447698750766,159.86539035370515 115.73096234310651,160.41040586677263 115.6179916318506,161.63019430932763 116.71380753139965,161.86376952935825 116.80418410047423,162.07139159900544 117.78702928876737,161.98055698386452 118.35188284527976,162.18817886919715 122.85941422602627,162.3828240891453 127.31046025111573,162.95378173956124 129.44560669455677,163.03163940900413 130.3945606694906,163.2392596355785 131.49037656909786,163.797237370949 133.20753138075816,163.60259424363903 133.3882845188491,163.91402310905687 133.6255230125971,163.8102135691879 135.24100418412127,164.14759427434183 135.52343096234836,164.3811650249554 136.0317991632037,164.26437970147526 136.1899581590551,163.78426117140043 136.64184100425337,163.60259424363903" stroke="#4dd2ff" stroke-linecap="round" stroke-linejoin="round" stroke-width="0.5"><title>2021-04-09 4.9km</title></polyline><polyline fill="none" points="162.3639751554001,163.15576907334616 155.58881987584755,161.1909708568419 154.81739130441565,160.45898468076484 150.0546583852265,160.8442407339753 146.60000000009313,160.49751030324842 147.23726708081085,160.88276631844928 146.93540372664575,161.03686861807364 141.19999999995343,159.72699713296606 145.96273291914258,161.15244530286873 152.80496894416865,161.7303282142093 162.2968944099266,164.27300286706304 161.02236024849117,163.7721743201837 162.79999999993015,163.54102246667026 162.33043478254694,162.96314223416266" stroke="#4dd2ff" stroke-linecap="round" stroke-linejoin="round" stroke-width="0.5"><title>2021-04-09 1.4km</title></polyline><polyline fill="none" points="168.05909090908244,160.80178996088216 169.1022727272939,161.68283659638837 176.65000000002328,164.5726543130586 179.99431818176527,164.43168813735247 182.90909090917557,165.03079399993294 188.30909090919886,164.43168813735247 188.79999999993015,163.8325812703988 186.62159090919886,163.2687150662532 184.01363636355381,163.79733965868945 181.31363636360038,162.775331407669 179.07386363646947,162.9515399353986 175.26931818178855,161.0132413514657 174.77840909094084,160.0969510881987 172.59999999997672,159.25114260573173 170.94318181823473,158.96920600003796 167.19999999995343,159.88549915526528" stroke="#4dd2ff" stroke-linecap="round" stroke-linejoin="round" stroke-width="0.5"><title>2021-04-08 1.4km</title></polyline><polyline fill="none" points="32.65974025975447,186.90220063424204 32.79999999993015,187.64328861891408 30.97662337659858,187.6755097975838 26.15168831171468,186.03222563740565 18.858181818155572,185.67779071512632 15.015064934967086,184.3244902024162 11.199999999953434,184.90447682293598 14.818701298674569,184.48559770031716 18.66181818174664,185.6455693395401 25.815064935130067,185.96778295288095" stroke="#4dd2ff" stroke-linecap="round" stroke-linejoin="round" stroke-width="0.5"><title>2021-04-06 1.3km</title></polyline><polyline fill="none" points="43.7964071854949,182.75661670282716 46.512574850115925,181.9083324733365 47.63353293412365,182.80651572940405 47.63353293412365,183.75459627155215 46.90059880237095,184.1537875306385 48.19401197577827,185.55095438001445 49.530538921942934,185.70065059227636 51.2550898201298,184.90227026611683 53.19520958070643,182.4572224362928 54.919760478893295,183.10590978278196 56.342514970107004,182.25762615716667 58.756886227289215,182.55702054535504 58.756886227289215,179.5131690853741 58.49820359284058,181.35944189631846 57.07544910162687,181.1099459765246 58.800000000046566,181.40934106512577 58.713772454997525,182.70671767104068 55.005988023709506,183.05601078644395 53.19520958070643,182.40732337423833 50.263473053928465,186.09984026823076 50.95329341315664,185.50105563254328 47.71976047893986,185.45115687994985 47.07305389200337,184.35338303845492 48.021556886145845,184.35338303845492 47.935329341329634,183.85439411672996 46.81437125732191,181.85843335525715 46.34011976025067,182.55702054535504 45.39161676634103,182.4572224362928 44.184431137517095,185.0519666762557 40.17485029902309,187.1477116222086 38.881437125615776,189.54283774230862 38.70898203575052,187.6965957240318 38.36407185602002,190.04182087921072 38.062275448814034,188.94405730837025 38.36407185602002,189.69253273674985 38.105389221338555,189.04385409812676 39.87305389204994,189.94202429242432 41.29580838303082,192.0876464348985 43.14970059855841,191.93795217137085 43.66706586815417,190.8900910471275 42.54610778414644,190.39110877303756 43.53772455081344,190.39110877303756 43.0634730537422,190.98988744121743 42.632335328962654,190.59070174364024 43.14970059855841,191.18948016813374 43.27904191589914,190.69049819846987 43.494610778288916,191.8381559701811 42.761676646536216,192.4868309146259 40.390419161412865,192.28723871539114 38.191616766154766,189.69253273674985 38.57964071817696,187.44710302661406 38.838323353091255,189.24344761660905 37.199999999953434,190.1915157212352 37.67425149702467,189.393142702349 37.372455089585856,190.39110877303756 38.57964071817696,189.54283774230862 38.752095808275044,187.3473059121461" stroke="#4dd2ff" stroke-linecap="round" stroke-linejoin="round" stroke-width="0.5"><title>2021-04-05 1.9km</title></polyline><polyline fill="none" points="80.18703574803658,191.6827286992193 79.34000109205954,192.10917275387328 79.67144943564199,191.5974397839891 80.26069093553815,191.5974397839891 80.38958751352038,191.23496150644496 79.72669082635548,195.17954429371457 78.30882846738677,196.2029914627783 78.2351732798852,196.8000000000029 78.17993188928813,196.2029914627783 79.78193221695255,195.24350988841616 80.31593232613523,193.15395701501984 80.68420826352667,189.8276869487454 79.76351842004806,189.16669108673523 77.7748283582041,188.80420859849255 76.5963453585282,189.72107485418383 74.12889657821506,190.42471367458347 69.63593014201615,193.13263493936392 68.8257230798481,191.83198421719135 67.88661943958141,192.23710580078478 67.44468831468839,192.0665283874987 64.86675675294828,181.00002155455877 64.71944637806155,178.97429700440262 66.02682595571969,184.90215146214177 66.43192948680371,185.07273471595545 71.164275282179,182.91911093138333 74.81020706228446,181.74633618164808 77.09351787401829,180.46693804815004 80.29751852923073,177.8867946810933 82.19413960678503,175.1999999999971 83.28055362193845,175.7544207755418 83.15165704395622,175.9250114877941 82.7097259190632,175.7757446221658 82.9675190752605,175.5625060579914 82.9675190752605,175.90368765637686 83.07800185645465,175.3279433863354 82.45193276286591,175.51985831900674" stroke="#4dd2ff" stroke-linecap="round" stroke-linejoin="round" stroke-width="0.5"><title>2021-04-05 3.7km</title></polyline><polyline fill="none" points="94.6504672896117,178.16831719997572 98.08224299037829,180.89579199929722 100.90841121505946,188.76645043020835 100.97570093441755,192.7407125099562 102.52336448570713,192.42900642711902 104.07102803722955,193.83168279996607 107.57009345805272,191.2601074836566 110.79999999981374,192.11730021680705 104.20560747641139,190.5587672594702 104.20560747641139,193.13034493516898 104.54205607483163,189.54571913310792 104.40747663518414,193.28619784972398 104.60934579418972,192.03937364451122 101.91775700915605,192.58485948451562 103.73457943927497,191.41596077935537 104.67663551401347,193.13034493516898 102.99439252307639,192.03937364451122 104.20560747641139,191.72766727540875 103.93644859828055,193.20827139628818 104.67663551401347,193.20827139628818 103.80186915886588,191.64974066318246 105.34953270992264,193.5979035833152 103.80186915886588,192.19522678118665 103.93644859828055,190.94840079679852 105.0803738317918,192.7407125099562 104.00373831763864,191.0263274803292 102.18691588775255,190.94840079679852 101.37943925219588,192.97449198900722 101.58130841120146,191.96144706424093 98.14953271020204,189.3898654562072 99.49532710271887,184.4025310127763 98.14953271020204,184.94802230247296 98.21682243002579,182.9219098361791 94.24672897183336,180.73993655876257 89.19999999995343,181.20750278542982 92.02616822440177,182.22056196193444 92.96822429914027,184.8700949990307" stroke="#4dd2ff" stroke-linecap="round" stroke-linejoin="round" stroke-width="0.5"><title>2021-04-04 1.4km</title></polyline><polyline fill="none" points="128.53407821198925,176.33098246145528 121.83687150804326,179.38074755377602 115.38100558635779,186.86647845379775 121.47486033500172,193.5897057921975 125.03463687119074,189.56963944953168 129.19776536314748,187.8368451365386 129.31843575416133,185.5495500973193 133.17988826800138,182.7077489149524 127.50837988802232,175.49922604684252 122.74189944122918,178.68762028665515 115.19999999995343,187.28235005342867 121.35418994398788,192.82728118507657 124.97430167580023,188.59927516093012 130.88715083780698,187.6289095315733 132.63687150832266,186.311982604675 133.54189944127575,182.84637362958165 133.30055865901522,182.22256219777046 132.57653631293215,183.60880907118553 130.4648044691421,184.64849243091885 130.4044692737516,184.02468259970192 136.79999999981374,179.79662358592032 134.44692737422884,178.54899475112325 131.97318435739726,175.49922604684252 130.58547486015595,177.78655381657882 126.36201117304154,175.9844174083555 118.03575418959372,183.47018450696487 115.4413407817483,187.14372621424263 121.47486033500172,192.82728118507657 125.03463687119074,189.08445747278165 125.5776536311023,189.50032775918953 124.06927374284714,191.57967549713794 132.3351955304388,193.31246057635872 134.9899441341404,196.50077395321568 129.378770949319,186.2426705926773 129.98212290508673,184.37124368536752 132.93854748620652,181.87600005220156 129.68044692720287,179.86593623377848 127.87039106129669,176.40029545151629 126.60335195506923,175.9151043772581 125.51731843547896,176.67754734342452 126.06033519562334,177.16273789084516" stroke="#4dd2ff" stroke-linecap="round" stroke-linejoin="round" stroke-width="0.5"><title>2021-04-02 3.1km</title></polyline><polyline fill="none" points="154.4510638298234,194.34746444896155 151.92340425529983,193.46765793619852 147.15531914890744,193.37967709400982 141.98510638298467,192.69782439009578 141.5446808511624,192.2799136378453 141.19999999995343,190.19034812839527 141.69787234044634,189.79442824648868 142.7319148936076,189.75043710503087 141.79361702129245,186.8250067242625 142.02340425539296,182.86571651382837 143.4595744680846,180.82005569181638 144.0340425532777,179.43427479383536 146.772340425523,177.542559981026 147.88297872350086,178.75237944399123 148.91702127666213,178.97234591370216 149.4531914893305,179.61024744875613 151.71276595746167,179.61024744875613 155.19787234044634,180.16016110031342 156.88297872338444,181.04002012169803 159.6787234043004,183.5256030979508 162.32127659558319,188.10076303806272 162.39787234039977,188.694647108161 161.78510638291482,189.22254273148428 161.53617021278478,190.05837491249258 162.07234042545315,190.03637936891755 162.80000000004657,191.9059928271745 162.32127659558319,192.89578184153652 160.65531914890744,193.20371530551347 160.25319148926064,193.7096050732507 159.31489361694548,193.24770576560695 158.9127659574151,193.42366751944064 157.9170212765457,193.11573435919126 157.43829787231516,194.45744001898856 157.28510638291482,194.3034742057789" stroke="#4dd2ff" stroke-linecap="round" stroke-linejoin="round" stroke-width="0.5"><title>2021-04-02 3.2km</title></polyline><polyline fill="none" points="169.4631299735047,184.1737890126533 176.76816976128612,187.43135781673482 180.7214854111662,187.39845324031194 183.12785145884845,187.9578305973846 186.36498673749156,187.16812111492618 188.80000000004657,187.20102571387542 183.29973474808503,187.92492607302847 180.89336870028637,187.36554866074584 176.9973474801518,187.56297608980094 171.95543766580522,186.11517223037663 167.19999999995343,184.0421694025863" stroke="#4dd2ff" stroke-linecap="round" stroke-linejoin="round" stroke-width="0.5"><title>2021-04-01 1.4km</title></polyline><polyline fill="none" points="11.199999999953434,207.2794083393528 13.639279869152233,209.75637384262518 16.502782324096188,210.36546143773012 19.86121112946421,212.1115075496491 24.45695581031032,212.03029626677744 27.002291325712577,212.7205916606472 32.800000000046566,212.03029626677744 28.73453355161473,212.63938049794524 23.820621931226924,211.9084793124639 19.436988543486223,212.1115075496491 12.86153846140951,210.32485562603688 12.189852700568736,209.95940314105246 12.967594108078629,209.63455621540197" stroke="#4dd2ff" stroke-linecap="round" stroke-linejoin="round" stroke-width="0.5"><title>2021-03-29 1.2km</title></polyline><polyline fill="none" points="47.606107734143734,220.79999999998836 46.59949416550808,215.12380938709248 45.8992412481457,214.9228811300709 42.48550827638246,210.00011415043264 40.20968629512936,209.79918387840735 47.29974708263762,199.19999999998254 49.66310067870654,200.65677290415624 54.30227625579573,205.37869790161494 53.82085237512365,208.74429865402635 55.79031370510347,220.29768478992628 49.53180325683206,216.12844948653947 47.25598127534613,215.67636168620083 47.037152238655835,216.63076879555592" stroke="#4dd2ff" stroke-linecap="round" stroke-linejoin="round" stroke-width="0.5"><title>2021-03-28 1.4km</title></polyline><polyline fill="none" points="73.73415384616237,206.0875407375279 74.96369230758864,206.8127859272936 75.26276923064142,206.20205322626862 76.45907692308538,206.12571157084312 76.724923076923,205.51497778543853 77.09046153828967,205.93485736649018 77.65538461541291,205.51497778543853 79.41661538451444,206.50741969732917 80.44676923076622,205.74400306795724 83.47076923062559,206.66010284234653 83.2713846154511,205.89668651425745 84.7003076922847,206.04936990048736 83.63692307681777,205.66766132219345 83.90276923077181,205.0569268138206 83.9692307690857,205.89668651425745 83.80307692300994,205.51497778543853 83.43753846152686,206.01119905951782 83.50399999995716,205.40046509329113 83.9692307690857,206.04936990048736 83.47076923062559,205.89668651425745 84.46769230766222,205.78217393517843 84.46769230766222,206.16388240037486 84.035692307516,205.62949044359266 83.3378461538814,206.01119905951782 84.73353846149985,205.78217393517843 84.30153846147005,205.4386359944765 84.16861538449302,206.58376127740485 83.57046153838746,206.0875407375279 83.50399999995716,206.50741969732917 84.33476923056878,205.9730282149394 83.9692307690857,206.01119905951782 84.79999999993015,207.0418104416749 84.7003076922847,205.93485736649018 84.20184615382459,206.01119905951782 84.46769230766222,206.54559048920055 83.73661538469605,206.77461516176118 83.63692307681777,206.35473649192136 83.23815384611953,206.92729820142267 81.84246153838467,206.73644439244526 81.84246153838467,205.9730282149394 82.1747692306526,212.53835812423495 78.41969230771065,213.37810158979846 75.3624615384033,212.38567729844362 75.59507692302577,212.88188976232777 74.66461538453586,212.38567729844362 69.28123076912016,212.1184857081971 66.58953846152872,212.92005992544 66.35692307678983,214.29418329225155 65.72553846158553,214.7903933088819 63.56553846143652,214.9430731861503 63.199999999953434,214.33235331607284" stroke="#4dd2ff" stroke-linecap="round" stroke-linejoin="round" stroke-width="0.5"><title>2021-03-26 1.5km</title></polyline><polyline fill="none" points="91.48292682936881,208.63126527593704 98.33170731714927,211.4263691099477 100.74006968643516,211.25347686518217 102.84738675958943,211.71452262398088 105.88292682927568,211.10939991637133 107.08710801380221,211.25347686518217 110.79999999993015,209.92796625601477 107.51358885015361,211.25347686518217 103.27386759582441,211.59926125247148 101.0411149825668,211.13821531180292 98.55749128921889,211.33992300037062 93.21393728221301,210.04322828681325 89.19999999995343,208.28547737599" stroke="#4dd2ff" stroke-linecap="round" stroke-linejoin="round" stroke-width="0.5"><title>2021-03-26 1.6km</title></polyline><polyline fill="none" points="136.79999999981374,211.91659649994108 135.149745330913,211.705982393265 132.69269949034788,210.14743477504817 130.6023769096937,210.18955775853829 127.59524617972784,209.01011265337002 120.26078098453581,209.22072808965459 121.36095076380298,209.76832773769274 120.92088285204954,209.89469678746536 115.19999999995343,208.08340350005892 119.82071307254955,209.85257377498783 126.38505942258053,210.27380371282925 131.99592529702932,211.62173672145582" stroke="#4dd2ff" stroke-linecap="round" stroke-linejoin="round" stroke-width="0.5"><title>2021-03-24 1.1km</title></polyline><polyline fill="none" points="162.79999999993015,211.58436208078638 161.2445652174065,211.48323304005316 159.71847826091107,210.33710182108916 157.28260869567748,209.9325840025558 155.28695652179886,209.02241716056596 149.18260869570076,209.15725684558856 149.7108695653733,209.7303249137476 144.92717391310725,208.41563791921362 141.19999999995343,208.88757742225425 142.66739130439237,209.08983700969839 145.04456521733664,208.4493479053781 149.44673913053703,209.79774462341447 157.45869565219618,210.13484297165996" stroke="#4dd2ff" stroke-linecap="round" stroke-linejoin="round" stroke-width="0.5"><title>2021-03-23 1.3km</title></polyline><polyline fill="none" points="188.36914893612266,211.07226263763732 181.10212765960023,208.53183448678465 178.14361702115275,209.0267246006115 175.21382978721522,208.69679793936666 176.01808510627598,209.22468044125708 175.70212765957695,209.32365831767675 171.0776595743373,207.93796538349125 167.19999999995343,208.49884178640787 170.7904255319154,208.00395089149242 175.12765957438387,209.25767306992202 180.87234042549971,209.6535843606398 188.80000000004657,212.06203461650875 187.50744680839125,211.43517936990247 188.80000000004657,211.07226263763732" stroke="#4dd2ff" stroke-linecap="round" stroke-linejoin="round" stroke-width="0.5"><title>2021-03-22 1.6km</title></polyline><polyline fill="none" points="29.593879112391733,223.33357029205945 29.89135424635606,223.5421696606645 29.726090283074882,224.20589342516905 31.229992348933592,224.43345533344836 31.626625860692002,224.75583424443903 31.494414690125268,225.34370028464764 32.08936495782109,225.74193110143824 32.79999999998836,226.9745450904884 32.37031369539909,228.1123356349126 31.742310635047033,228.3778191305464 31.510941086453386,229.06048930042016 28.453557765868027,231.71529479551828 25.08217291504843,233.0237212193315 24.02448354999069,233.70637496456038 23.214690130087547,234.38902629644144 20.851415455224924,237.65054935270746 11.200000000011642,244.66642970794055" stroke="#4dd2ff" stroke-linecap="round" stroke-linejoin="round" stroke-width="0.5"><title>2021-03-21 1.3km</title></polyline><polyline fill="none" points="46.991447246517055,232.12345238041598 46.71727756597102,230.37025749233726 44.83725689921994,228.03264339396264 44.07349850342143,227.80787154800782 41.48847008659504,230.167964909313 38.92302521842066,233.42710140236886 38.276768114301376,233.60691447717545 37.571760364226066,235.51741966354894 38.76635682955384,237.22562254712102 41.60597137827426,238.5741947561619 44.68058851035312,241.06903237420192 44.50433657283429,241.2038876862207 44.915591093711555,241.15893592438078 44.54350367013831,240.95665288683085 45.013508836738765,241.74330813872803 46.05143691319972,242.97947520951857 49.987730184104294,244.8000000000029 52.02441923972219,244.5977201834612 56.82238864956889,241.24883943918394 57.468645753804594,239.90028300539416 58.42823963589035,235.58484896672599 57.468645753804594,233.92158701785957 53.88485635793768,230.6175037395733 50.0073137327563,225.7399601950019 47.128532086731866,223.1999999999971 43.897246565902606,227.69548554210633 44.4847530242987,227.7629171522858 45.2876785172848,228.50466355135723 46.85436240618583,230.50511911488138 46.834778857650235,231.13447230160818" stroke="#4dd2ff" stroke-linecap="round" stroke-linejoin="round" stroke-width="0.5"><title>2021-03-20 3.7km</title></polyline><polyline fill="none" points="82.671921182191,239.4388168019068 75.29458128055558,237.07590951339807 67.49162561586127,236.8314700568153 63.30640394077636,235.9351908118697 63.199999999953434,234.46854785224423 63.80295566492714,233.81670486507937 63.235467980382964,232.71671749165398 63.37733990140259,230.80191766808275 65.61182266008109,228.5611831981223 69.30049261078238,229.009331064648 73.06009852210991,230.27229061772232 80.15369458124042,230.109328311868 83.94876847276464,229.49821909173625 84.40985221648589,228.96859036956448 83.73596059111878,230.516733956174 83.3103448273614,235.77223074028734 83.66502463049255,238.4610637013102 84.80000000004657,238.6647624548059" stroke="#4dd2ff" stroke-linecap="round" stroke-linejoin="round" stroke-width="0.5"><title>2021-03-19 1.6km</title></polyline><polyline fill="none" points="97.95359628775623,233.77934678878228 102.64779582375195,235.7940934147191 104.46867749432568,235.67896559811197 106.0556844547973,236.02434884350805 107.72621809749398,235.6597776221024 108.61160092806676,235.73652951495023 110.79999999998836,235.08413746055157 106.74060324835591,236.0051609014772 104.65243619499961,235.67896559811197 102.31368909520097,235.77490545003093 92.97540603252128,232.80074804219475 89.20000000001164,232.3977941863268 90.01856148493243,232.5129239445523 89.46728538285242,232.282664359911 89.63433874712791,232.18672278587474 90.90394431550521,232.26347604891635 92.59118329471676,231.97565115649195 93.15916473319521,232.3977941863268 93.49327146174619,232.18672278587474 93.89419953600736,232.57048879817012 94.24501160095679,232.45535907401063 94.69605568452971,232.83912455638347 95.26403712300817,232.62805363468942 96.43341067287838,233.47233594719728 96.66728538280586,233.18451284324692 96.06589327153051,232.282664359911 95.83201856154483,232.30185266905755 95.91554524365347,232.9542540534312 97.00139211135684,233.49152413901174 97.45243619498797,232.41698248412285 97.7030162413721,232.93506580867688 98.03712296986487,232.87750106291787 97.68631090491544,232.973442296352 97.88677494210424,232.91587756195804 97.40232018567622,232.24428773602995 98.12064965203172,232.18672278587474" stroke="#4dd2ff" stroke-linecap="round" stroke-linejoin="round" stroke-width="0.5"><title>2021-03-19 3.1km</title></polyline><polyline fill="none" points="124.2894876972423,244.8000000000029 124.16817476798315,244.42377020095591 123.93768020236166,244.38196682812122 123.59800400037784,244.70245903720206 124.01046795991715,242.34752106614178 123.85276115185115,242.91884098523587 123.92554890940664,243.96393241922488 123.69505434378516,244.14508081495296 122.38487470766995,244.11721184609632 122.22716789954575,243.28114022451336 122.33634953590808,242.54260617637192 125.5147482829052,241.8319376923464 127.64985583815724,241.6925905116077 127.57706808060175,228.21706872188952 128.29281436331803,227.29728613275802 129.77283210051246,225.98728240632045 129.50594365608413,225.31833964618272 127.6983810098609,223.1999999999971" stroke="#4dd2ff" stroke-linecap="round" stroke-linejoin="round" stroke-width="0.5"><title>2021-03-18 2.7km</title></polyline><polyline fill="none" points="148.5256624915637,243.01760866613768 149.13039118767483,243.1224558770191 149.221670990868,243.63358484537457 149.44987049879273,243.7646432384936 150.68214784166776,244.01365382934455 152.27954439731548,243.86948985989147 153.38631201081444,244.18402922785026 154.41320979659213,244.8000000000029 154.67563923064154,243.97433639861993 154.5273095505545,240.47503847291227 155.4743375084945,240.3832953400124 154.11655043624341,240.0032159716211 152.8044032655307,239.9376849361579 152.2224945203052,239.30858535117295 151.07008700515144,227.39444954277133 152.32518429885386,225.92640727000253 153.2151623798418,225.415210169871 152.57620375760598,224.27484031801578 151.4808461194625,223.1999999999971" stroke="#4dd2ff" stroke-linecap="round" stroke-linejoin="round" stroke-width="0.5"><title>2021-03-17 2.8km</title></polyline><polyline fill="none" points="167.92765957443044,232.83431946646306 168.19574468093924,232.83431946646306 169.53617021278478,233.40617387497332 169.91914893616922,233.89005010956316 173.90212765941396,234.98976687228424 178.11489361710846,235.5616185174731 179.53191489353776,235.4736413891369 180.52765957452357,235.69358417773037 181.02553191501647,235.8695383304439 183.01702127652243,236.17745793084032 184.66382978716865,236.83728493037052 185.19999999995343,236.969250213122 186.1191489363555,237.45312258254853 186.88510638312437,237.93699442697107 187.19148936169222,238.02497106959345 187.53617021278478,238.20092430277145 188.37872340413742,238.42086574662244 188.80000000004657,238.37687746656593 188.7617021277547,238.37687746656593 188.7617021277547,238.37687746656593 188.64680851087905,238.42086574662244 188.7234042554628,238.37687746656593 188.7617021277547,238.37687746656593 188.80000000004657,238.42086574662244 188.57021276582964,238.37687746656593 188.07234042556956,238.37687746656593 186.38723404239863,238.42086574662244 185.23829787247814,238.06895938445814 184.12765957438387,237.849017767061 183.01702127652243,237.76104108980508 181.906382978661,237.80502943051397 181.33191489381716,237.849017767061 180.22127659572288,237.93699442697107 179.72340425522998,237.93699442697107 178.0,237.80502943051397 177.46382978721522,237.67306439497042 176.42978723393753,237.40913420694415 175.89361702138558,237.1452038627467 174.8595744681079,236.79329649396823 174.3234042553231,236.61734270560555 172.1404255318921,236.17745793084032 170.7234042554628,235.60560707523837 170.60851063835435,235.34167566380347 171.06808510632254,235.25369849195704 171.25957446801476,235.25369849195704 171.4127659574151,235.07774409631384 171.25957446801476,235.03375548645272 170.87659574463032,234.9457782538666 170.6851063829381,234.90178963114158 170.57021276606247,234.8578010039637 170.34042553184554,234.8578010039637 170.18723404267803,234.7698237366567 169.99574468075298,234.7698237366567 169.80425531906076,234.7698237366567 169.53617021278478,234.68184645206202 169.34468085109256,234.59386915012146 169.2297872339841,234.54988049255917 168.84680851059966,234.32993714004988 168.7319148934912,234.24195976863848 168.5404255320318,234.1099936789251 168.42553191492334,234.0220162642363 168.31063829781488,233.89005010956316 168.15744680841453,233.71409517590655 167.88936170213856,233.49415141125792 167.65957446815446,233.36218510032631 167.544680851046,233.2742075380229 167.35319148935378,233.0542635564634 167.2765957445372,232.65836411633063 167.2765957445372,232.30645320791518 167.23829787247814,232.08650874905288 167.19999999995343,231.91055310392403 167.3148936170619,231.55864160554484 167.2765957445372,231.07476284180302 167.2765957445372,230.8548177756893 167.23829787247814,230.72285068387282 167.3148936170619,230.59088355317363 167.2765957445372,230.5468945009343 167.3148936170619,230.2389710135758 167.35319148935378,230.01902553523541 167.544680851046,229.97503642659285 167.92765957443044,229.84306907452992 168.11914893612266,229.75509081812925 168.23404255323112,229.71110168349696 168.46382978721522,229.62312340116478 168.5021276595071,229.62312340116478 168.5021276595071,229.57913425340666 168.5404255320318,229.57913425340666" stroke="#4dd2ff" stroke-linecap="round" stroke-linejoin="round" stroke-width="0.5"><title>2021-03-02 1.4km</title></polyline><polyline fill="none" points="15.16837209300138,258.3173654836719 15.419534883694723,258.4327591159381 18.182325581321493,258.95203018025495 19.940465116407722,259.5866941881832 20.593488371931016,259.87517760071205 22.351627907017246,260.3367507646326 23.00465116254054,260.3367507646326 24.863255813950673,260.22135750798043 25.46604651142843,260.0482675798703 27.324651162605733,259.9328742660582 28.479999999981374,260.3367507646326 29.082790697691962,260.5675372101832 30.1376744187437,260.97141327062855 31.14232558128424,261.1445029254537 32.398139534983784,261.0291098279995 32.59906976716593,260.9137167077279 32.799999999813735,261.0291098279995 32.7497674417682,261.8368610329344 31.84558139531873,262.0676468866295 31.092093023238704,262.7023075147881 30.740465115988627,262.81770028255414 30.388837209204212,262.93309302732814 30.187906976556405,262.93309302732814 29.886511627817526,262.9907893910422 29.68558139540255,263.1061821016483 28.98232558136806,263.394663778774 29.082790697691962,263.6831453135237 29.434418604476377,263.913930439041 29.434418604476377,263.97162670624675 29.434418604476377,264.02932296763174 29.484651162754744,263.97162670624675 29.2334883720614,263.913930439041 28.932093023089692,264.02932296763174 28.83162790699862,264.0870192233124 28.731162790441886,264.1447154734633 28.68093023239635,264.20241171779344 28.68093023239635,264.20241171779344 28.479999999981374,263.913930439041 28.37953488365747,263.79853788769105 28.2288372090552,263.62544901808724 28.178604651009664,263.5100564098102 27.67627906985581,263.394663778774 27.475348836975172,263.394663778774 27.22418604651466,263.394663778774 26.973023255821317,263.33696745481575 26.67162790708244,263.33696745481575 26.420465116156265,263.33696745481575 25.91813953476958,263.22157478972804 25.666976744076237,263.16387844854034 25.415813953615725,263.1061821016483 25.16465116268955,263.04848574922653 24.662325581535697,262.93309302732814 24.46139534865506,262.81770028255414 24.210232558194548,262.7600039015524 23.959069767501205,262.6446111225523 23.707906976575032,262.5292183208512 23.506976744160056,262.35612907569157 23.054883720818907,262.1253433357924 22.602790697477758,261.8945575047983 22.251162790926173,261.548378587584 21.99999999976717,261.4329855698743 21.748837209306657,261.31759252917254 21.497674418613315,261.2021994657698 21.24651162768714,261.0868063796079 21.095813953550532,261.0291098279995 20.69395348825492,260.85602013889 20.493023255839944,260.79832356458064 20.292093023192137,260.7406269844505 20.09116279054433,260.62523380731 19.84000000008382,260.5675372101832 19.588837209157646,260.5098406074103 19.036279069725424,260.4521439987584 18.83534883731045,260.394447384635 18.584186046384275,260.3367507646326 18.282790697645396,260.3367507646326 18.08186046499759,260.2790541391587 17.579534883610904,260.22135750798043 17.32837209291756,260.105964228278 16.876279069809243,259.75978425279027 16.373953488422558,259.5866941881832 16.17302325577475,259.5289974886691 15.921860465081409,259.4713007835089 15.62046511634253,259.41360407252796 15.419534883694723,259.35590735595906 15.16837209300138,259.2405139054172 14.716279069660231,259.0097269366379 14.46511627919972,258.89433341799304 14.264186046319082,258.7789398766472 13.761860465165228,258.4904559236602 13.611162790795788,258.3750623026863 13.410232557915151,258.25966865901137 12.958139534806833,257.97118444991065 12.757209302391857,257.7980938562541 12.506046511698514,257.45191251521464 12.154418604681268,257.04803402512334 11.55162790697068,256.5864582664799 11.55162790697068,256.41336726327427 11.451162790646777,256.1248821437475 11.350697674555704,255.89409394573886 11.199999999953434,255.1440316736116 11.350697674555704,254.8555459283525 11.40093023236841,254.5670600407757 11.451162790646777,254.33627122826874 11.501395348925143,254.16317955916747 11.501395348925143,253.8746933301445 11.501395348925143,253.12462846905692 11.501395348925143,252.60535223275656 12.053953488357365,252.37456264632056 12.455813953420147,252.14377296896419 12.807441860670224,252.0283780960599 13.058604651363567,251.97068065113854 13.159069767454639,251.85528574418277 13.8623255812563,251.79758828220656" stroke="#4dd2ff" stroke-linecap="round" stroke-linejoin="round" stroke-width="0.5"><title>2020-12-25 1.0km</title></polyline><polyline fill="none" points="37.52481202990748,255.50505844311556 37.76842105272226,255.7382317239244 37.971428571268916,255.9714048897149 38.41804511263035,256.25121253708494 40.163909774273634,256.71755824791035 41.09774436079897,256.99736545371707 41.70676691737026,257.1372689946147 44.54887218028307,258.2564958309231 45.360902255633846,258.81610825585085 46.29473684192635,259.23581713973545 47.67518796981312,259.74879415892065 48.203007518779486,259.8420626479783 49.177443609107286,259.8420626479783 49.74586466164328,259.8420626479783 50.72030075173825,259.65552565146936 51.61353383469395,259.5622571253625 52.628571428591385,259.6088913907006 53.19699248112738,259.5622571253625 54.78045112779364,259.8420626479783 55.30827067652717,260.0285995710874 56.323308270424604,260.2151364206511 56.89172932342626,260.1685022150923 57.906766917323694,260.1218680050515 58.35338345868513,260.0752337904123 58.800000000046566,260.2617706215824 58.7593984962441,260.3084048177989 58.63759398506954,260.35503900944605 58.59699248126708,260.4016731965821 58.59699248126708,260.4483073790034 58.556390977464616,260.4016731965821 58.47518797009252,260.49494155685534 58.47518797009252,260.4016731965821 58.51578947389498,260.4483073790034 58.556390977464616,260.49494155685534 58.51578947389498,260.4483073790034 58.59699248126708,260.35503900944605 58.556390977464616,260.35503900944605 58.51578947389498,260.35503900944605 58.51578947389498,260.4016731965821 58.51578947389498,260.35503900944605 58.51578947389498,260.35503900944605 58.51578947389498,260.35503900944605 58.51578947389498,260.4016731965821 58.47518797009252,260.4016731965821 58.47518797009252,260.4016731965821 58.434586466057226,260.4016731965821 58.39398496248759,260.4016731965821 58.47518797009252,260.4016731965821 58.47518797009252,260.4016731965821 58.47518797009252,260.4016731965821 58.434586466057226,260.4016731965821 58.434586466057226,260.4483073790034 58.35338345868513,260.4016731965821 57.419548872159794,260.4016731965821 56.3639097744599,260.4016731965821 55.30827067652717,260.1685022150923 54.8210526315961,260.0285995710874 53.80601503746584,259.74879415892065 53.27819548873231,259.65552565146936 52.18195488722995,259.65552565146936 51.65413533849642,259.6088913907006 50.55789473699406,259.7021599073778 49.421052631456405,259.8420626479783 48.89323308272287,259.8420626479783 47.796992481220514,259.7954284057778 47.22857142845169,259.65552565146936 44.67067669169046,258.81610825585085 44.14285714295693,258.6295708543621 42.640601503895596,258.2564958309231 42.23458646610379,258.2098614323768 40.6105263158679,257.9300549439795 39.676691729109734,257.51034490103484 39.1488721803762,257.2305379988684 38.13383458647877,256.67092369752936 37.199999999953434,256.3444817160489" stroke="#4dd2ff" stroke-linecap="round" stroke-linejoin="round" stroke-width="0.5"><title>2020-12-08 1.1km</title></polyline><polyline fill="none" points="63.199999999953434,255.77350431791274 63.40769230760634,255.81326338712825 64.79230769223068,256.88675676990533 65.24230769230053,257.0457925835217 67.00769230758306,257.5626585446007 67.83846153842751,257.80121184160816 68.25384615384974,257.96024729442433 69.22307692305185,258.318076834199 70.08846153842751,258.7554236180731 70.53846153849736,259.03373496080167 72.75384615373332,259.7891504939762 73.23846153856721,259.82890916700126 74.62307692307513,259.6698744512396 75.03846153838094,259.63011576244025 77.21923076920211,259.6698744512396 77.66923076903913,259.7096331360517 79.01923076924868,260.1072197687754 80.4038461537566,260.22649568208726 80.81923076917883,260.18673704814864 81.71923076931853,260.22649568208726 83.10384615371004,260.02770247348235 83.51923076913226,259.98794382004417 84.38461538462434,259.90842650135164 84.79999999993015,259.8686678361846 84.62692307692487,259.55059837320005 83.65769230760634,259.51083967264276 83.24230769230053,259.55059837320005 82.37692307692487,259.7891504939762 82.0653846153291,259.8686678361846 81.16538461530581,260.06746112307883 80.74999999988358,260.1072197687754 79.88461538450792,260.1072197687754 79.43461538455449,260.02770247348235 78.56923076906241,259.8686678361846 78.15384615387302,259.7493918169057 76.80384615377989,259.51083967264276 76.35384615382645,259.51083967264276 75.45384615380317,259.55059837320005 74.9692307690857,259.55059837320005 74.06923076917883,259.63011576244025 73.16923076915555,259.6698744512396 72.30384615377989,259.63011576244025 71.47307692305185,259.43132225988666 71.05769230762962,259.31204611138673 70.15769230772275,259.03373496080167 69.74230769230053,258.8746999313298 68.91153846145608,258.5963884788216 67.80384615366347,258.27831801210414 67.49230769218411,258.23855918616755 66.66153846145608,258.03976499740384 65.51923076924868,257.68193521071225 65.2076923076529,257.4433818432153 64.4807692306349,257.0457925835217 64.09999999997672,256.84699780662777" stroke="#4dd2ff" stroke-linecap="round" stroke-linejoin="round" stroke-width="0.5"><title>2020-12-03 1.3km</title></polyline><polyline fill="none" points="110.57183098583482,258.56783315117355 110.76197183085606,259.26669882109854 110.80000000004657,259.48509411676787 110.15352112683468,259.87820537763764 109.0507042251993,259.834526365943 107.5295774647966,259.57245220491313 106.08450704207644,258.960945226223 105.59014084516093,258.87358701741323 102.77605633810163,257.78160795453005 101.74929577461444,257.60689105445636 100.19014084502123,257.6505702859722 99.12535211257637,257.60689105445636 98.3647887322586,257.60689105445636 97.90845070406795,257.60689105445636 96.88169014081359,257.5195325787645 96.53943661949597,257.47585333450115 95.36056338017806,257.38849483264494 94.9042253519874,257.3448155754595 93.30704225343652,257.213777777768 92.81267605605535,257.1264192244271 91.8239436619915,257.0390606537985 90.53098591556773,256.47122952505015 90.03661971818656,256.29651210826705 89.19999999995343,256.12179462239146 90.15070422529243,256.3401914689457 90.98732394375838,256.73330552110565 91.8239436619915,257.1264192244271 92.31830985913984,257.17009850317845 93.57323943660595,257.3011363137921 93.95352112664841,257.3448155754595 94.94225352117792,257.4321740856976 95.43661971809343,257.47585333450115 96.46338028158061,257.47585333450115 96.9197183100041,257.5195325787645 97.94647887325846,257.60689105445636 98.40281690144911,257.60689105445636 99.80985915474594,257.6505702859722 100.26619718316942,257.6505702859722 100.950704225339,257.56321181877865 101.17887323931791,257.56321181877865 101.33098591538146,257.56321181877865 101.48309859144501,257.56321181877865 101.63521126750857,257.56321181877865 101.8253521125298,257.5195325787645 102.01549295755103,257.5195325787645 102.39577464782633,257.56321181877865 102.54788732388988,257.56321181877865 102.8901408452075,257.6942495130643 103.23239436605945,257.8689663785335 103.19436619710177,257.95632478545303 103.19436619710177,258.00000398236443 103.15633802814409,258.00000398236443" stroke="#4dd2ff" stroke-linecap="round" stroke-linejoin="round" stroke-width="0.5"><title>2020-11-30 1.0km</title></polyline></svg>