<?xml version="1.0" encoding="utf-8" ?>
<svg baseProfile="full" height="300mm" version="1.1" viewBox="0,0,200,300" width="200mm" xmlns="http://www.w3.org/2000/svg" xmlns:ev="http://www.w3.org/2001/xml-events" xmlns:xlink="http://www.w3.org/1999/xlink"><defs /><rect fill="#222222" height="300" width="200" x="0" y="0" /><text fill="#FFFFFF" style="font-size:12px; font-family:Arial; font-weight:bold;" x="10" y="20">Over 3km Runs</text><text fill="#FFFFFF" style="font-size:4px; font-family:Arial" x="10" y="280">ATHLETE</text><text fill="#FFFFFF" style="font-size:9px; font-family:Arial" x="10" y="290">jdzj</text><text fill="#FFFFFF" style="font-size:4px; font-family:Arial" x="120" y="280">STATISTICS</text><text fill="#FFFFFF" style="font-size:3px; font-family:Arial" x="120" y="285">Number: 66</text><text fill="#FFFFFF" style="font-size:3px; font-family:Arial" x="120" y="290">Weekly: 3.1</text><text fill="#FFFFFF" style="font-size:3px; font-family:Arial" x="141" y="285">Total: 145.4 km</text><text fill="#FFFFFF" style="font-size:3px; font-family:Arial" x="141" y="290">Avg: 2.2 km</text><text fill="#FFFFFF" style="font-size:3px; font-family:Arial" x="167" y="285">Min: 1.0 km</text><text fill="#FFFFFF" style="font-size:3px; font-family:Arial" x="167" y="290">Max: 13.2 km</text><polyline fill="none" points="11.199999999953434,37.32205007082666 14.412960235611536,36.920027209765976 14.826509572914802,33.30180181472679 14.762886597891338,37.28550255598384 15.68541973491665,38.52811603457667 18.962002945598215,41.30570755308145 23.92459499265533,44.19291875389172 31.972901325440034,50.69819818527321 32.79999999993015,50.332736078853486 32.768188512534834,49.27289393040701 31.71840942557901,48.35923447078676 30.223269514157437,49.23634759525885 29.30073637701571,48.72469852521317 26.278645066311583,45.874069334357046 23.797349042841233,44.52184012022917 14.953755522845313,37.87026235964731 11.963475699536502,37.94335727006546 11.422680412302725,37.06621739148977" stroke="#4dd2ff" stroke-linecap="round" stroke-linejoin="round" stroke-width="0.5"><title>2021-07-14 1.9km</title></polyline><polyline fill="none" points="57.97424547304399,45.31976656994084 57.496177062392235,46.717542436672375 55.714285714318976,47.81579219541163 45.50100603606552,44.37127360459999 38.76458752527833,44.27143213656382 37.46076458739117,43.37285803665873 37.199999999953434,36.6834229255619 38.06921529164538,36.18420780461747 48.15211267606355,37.082794667599956 55.19275653921068,36.43381542660063 56.75734406430274,37.132716113177594 56.235814889194444,44.17159064853331 58.669617706211284,46.717542436672375 57.93078470835462,46.61770143144531 58.800000000046566,46.76746293186443" stroke="#4dd2ff" stroke-linecap="round" stroke-linejoin="round" stroke-width="0.5"><title>2021-06-29 1.4km</title></polyline><polyline fill="none" points="78.6018552876194,46.366136140874005 79.48348794068443,45.061699517435045 79.89758812618675,44.892889272246975 80.08460111316526,45.107738643389894 80.89944341377122,44.708732432089164 80.83265306125395,44.57061465881998 80.9662337662885,44.6473467702308 80.97959183674539,43.143390483470284 81.36697588133393,41.76219332238543 84.06530612247298,39.368089173789485 84.10538033401826,37.97151139329071 84.39925788505934,37.43436275223212 84.71985157713061,37.89477598677331 84.50612244900549,41.34783178122598 84.80000000004657,41.96170033721137 84.13209647504846,42.48348670398991 83.57105751393829,42.130513765179785 83.59777365496848,42.345366953799385 82.72949907241855,42.345366953799385 81.83450834883843,43.25081641499128 81.82115027838154,43.51170765397546 80.95287569571519,43.956756404193584 80.91280148422811,44.67803960418678 80.31168831168907,45.09239226959471 79.73729128018022,45.04635313911422 79.12282003706787,45.337934068753384 78.65528756962158,46.28940487773798 78.29461966606323,46.44286736611684 77.85380333958892,45.399319457952515 75.0486085342709,45.38397311292647 73.75287569576176,45.614168129264726 72.09647495363606,46.56563724778243 64.82968460110715,40.94881591995363 63.680890538031235,40.933469135619816 63.37365491647506,40.733960801240755 63.493877550936304,40.64187994519307 63.9881261595292,40.81069480633596 63.20000000001164,40.36563704974833 63.21335807046853,40.61118631438876 63.94805194804212,40.82604160277697 63.57402597402688,40.94881591995363 63.7476808904903,41.17901750339661" stroke="#4dd2ff" stroke-linecap="round" stroke-linejoin="round" stroke-width="0.5"><title>2021-06-26 3.3km</title></polyline><polyline fill="none" points="89.19999999999709,47.08529209299013 90.25034990131098,47.54384893720635 90.48289969496545,47.73973587765795 90.70382199893356,48.05582437518024 90.54103714336816,48.15821876590053 90.29685986004188,48.53217891516397 90.02167593754712,48.99517290268341 89.97129014892562,49.204409012072574 90.08368921585497,49.31125260875706 90.97125426163257,49.41809595254381 91.01776422034891,49.645137218416494 90.94799928225984,50.42419170389621 91.04489502961223,49.565005137312255 90.77746276689868,48.679090983270726 90.88598600395198,48.460948649411876 91.14566660685523,48.367458755026746 91.50611878700147,48.40752587631869 93.15722232189728,48.79483954864554 93.25411806926422,48.83490629059088 93.21148394042393,49.173246248737996 93.61069441953441,49.204409012072574 93.78123093485192,48.7636765025527 94.16493809438543,47.005155467217264 94.28508882111055,46.86714205596218 95.1842813565454,47.10755224156674 95.48272025838378,47.14316845645226 95.6144984747807,47.071935998581466 95.84317243853002,47.1298123791712 96.25401040729776,46.907210509143624 98.26169029249286,45.531506592618825 98.4089718284522,45.64726323058494 98.24618697290134,46.141451691495604 98.18417369460803,46.89385436205339 98.37021352951706,47.27672901193364 98.50586757579003,47.361317159324244 101.6452897900599,47.34350914146853 102.13364435671247,47.42364516647285 102.77703211913467,47.40583717321351 104.64130629821739,47.26337297417558 105.14516418446146,47.09864818345886 105.7614211376058,46.5376889809304 106.17225910641719,45.972270665435644 106.49395298761374,45.202043767025316 106.65673784317914,44.13349913242928 106.52495962676767,43.608122074845596 105.54437466357194,42.423775083032524 105.05989592679543,41.48428975605566 105.0288892876415,41.57779391170334 105.16066750403843,41.982976346789656 105.11415754529298,41.982976346789656 105.19554997308296,41.996333947517996 105.57538130271132,42.579611989698606 105.61026377175585,42.61523177849813 105.62964292122342,42.56180208474689 105.3350798492902,42.12100469703364 104.57929301989498,40.52252147830586 104.61805131884466,39.97483871314762 107.5636820383952,37.67271729881759 108.15668401219591,37.12054691636877 109.48609366588062,36.31454414167456 109.99382738200075,35.94048271155043 110.02870985107438,35.824701163925056 109.47834200609941,35.192350543260545 109.89693163467746,34.871718671704 110.5286919074133,34.17255515721263 110.57132603623904,33.95879599534601 110.79612417009776,33.811835983749916 110.80000000000291,33.72276907694322 110.49768526824482,33.57580829610015 110.54419522697572,33.65596878139331 110.59458101561177,33.615888556556456 110.60233267540752,33.71831572700103 110.5325677373039,33.669328848416626" stroke="#4dd2ff" stroke-linecap="round" stroke-linejoin="round" stroke-width="0.5"><title>2021-06-21 11.9km</title></polyline><polyline fill="none" points="118.57755359390285,32.8312897378928 118.49583858763799,32.29929992504185 118.74098360654898,32.4557676097611 118.523076922982,32.79999624416814 119.99394703644793,34.36466714396374 123.45321563689504,36.55519342934713 130.53518284996971,42.46953879517969 132.16948297596537,43.064096511516254 134.29407314001583,45.69265410624212 135.1929382092785,49.6980332970561 136.79999999993015,51.76328717035358 135.41084489261266,49.94836781639606 134.34854981082026,45.72394632725627 132.3601513239555,43.157973943831166 127.64791929360945,39.340269278443884 126.28600252198521,38.87087618676014 124.10693568713032,36.86812452014419 123.0446406052215,36.61777967214584 120.02118537202477,33.83267990456079 118.98612862534355,33.45715896273032 118.30517023953144,32.393180545128416 116.04438839841168,32.64352872944437 115.19999999995343,32.23671282964642" stroke="#4dd2ff" stroke-linecap="round" stroke-linejoin="round" stroke-width="0.5"><title>2021-06-16 2.1km</title></polyline><polyline fill="none" points="142.93047210294753,40.63349313905928 142.68326180253644,40.881950811162824 143.95021459215786,41.52084118037601 150.3158798281802,44.11188493933878 153.99313304724637,43.93441678385716 157.67038626607973,44.431327398720896 162.80000000004657,43.756948540743906 160.76051502139308,43.331024400453316 161.13133047195151,42.83411226628232 158.38111587974709,43.2955306993681 155.2600858367514,42.266211844282225 152.9733905578032,42.65664348073187 151.02660944196396,41.84028593968833 147.28755364811514,42.05324895502417 142.9922746780794,40.98843261809088 141.19999999995343,39.56867260125" stroke="#4dd2ff" stroke-linecap="round" stroke-linejoin="round" stroke-width="0.5"><title>2021-06-16 1.4km</title></polyline><polyline fill="none" points="187.72520064201672,42.45798410879797 187.03178170137107,42.85622427868657 179.8895666131284,40.10835911211325 175.1396468699677,40.66589848417789 172.4006420543883,40.34730465160101 171.91524879599456,40.904843693744624 167.19999999995343,39.55081897013588 172.8166934188921,41.14378876177943 179.3348314606119,41.74115081355558 188.79999999993015,44.44918102986412" stroke="#4dd2ff" stroke-linecap="round" stroke-linejoin="round" stroke-width="0.5"><title>2021-06-15 1.2km</title></polyline><polyline fill="none" points="25.045112781925127,70.75760759520927 23.33984962408431,71.78374124711263 20.66015037591569,71.45724441774655 12.783458646852523,59.143485044070985 11.199999999953434,60.0297132889973 13.027067669201642,63.80782558390638 14.894736842252314,65.53361991653219 17.16842105286196,66.18662153405603 19.40150375943631,69.59154392269556 22.690225563943386,71.83038363300147 25.045112781925127,72.85651495592901 30.932330826995894,70.9908199844358 32.800000000046566,71.2240322586149" stroke="#4dd2ff" stroke-linecap="round" stroke-linejoin="round" stroke-width="0.5"><title>2021-06-11 1.2km</title></polyline><polyline fill="none" points="56.24589489592472,76.79690871739695 56.33216876766528,76.78454358392446 56.53167709601985,76.63925290294719 56.90373316782643,76.24047291715397 56.90912528480112,76.03335264256566 56.728489365879796,76.18482879776457 56.623343084720545,76.05190078225314 56.65839184510696,76.16318939151643 56.723097248905106,76.18792014030805 56.90912528480112,76.0240785686401 56.91182134329574,76.21265086971835 56.822851413089666,76.33939555393044 56.321384533686796,76.79690871739695 56.08952350342588,76.79999999999927 55.48291034286376,75.02864546105411 55.4289891730441,74.00226541477423 55.11085427105718,73.58799413533961 54.55816228030017,73.2479166332505 54.55546622183465,72.98512696283797 54.453015999140916,72.83054378168163 53.986597880139016,72.37606484385105 53.64419845172961,72.17201094696793 53.223613327078056,71.72679786500521 53.08611434401246,71.70206362072895 52.64126469293842,71.78244984373669 52.58464746462414,71.80409225340736 52.716754330685944,71.82573464824054 52.68979374578339,71.86283586197169 52.463324832497165,71.94322167545761 51.700340279436205,72.08544222848832 51.43343048878887,72.07307524931821 51.51431224354019,72.10090094563384 51.46847924917529,72.13800183589228 51.5224004190095,72.11017617228026 51.53048859449336,72.18746962171099 51.538576769962674,72.097809202809 51.42534231331956,72.07925873950808 50.988580837714835,71.83810172432459 49.923637733620126,71.8504687955774 49.637855533525,71.73607320161136 49.10403595223033,71.96486397487206 48.47855038222042,71.83191818688647 48.29521840480447,71.7515320898965 47.97438744433748,71.39906755507036 47.63198801592807,71.10843594217295 47.15478566294769,71.00022135988729 46.6047897307144,70.98785395543382 46.224645483423956,70.80543417657645 45.87954999653448,70.53644037522827 43.87098642042838,69.65832970599695 43.70383079398016,69.6397778085302 43.19427573909343,69.7294452118822 42.93275806543534,69.69852544640344 42.673936450257315,69.5593861268062 42.304576436945354,69.15742464555115 41.74918838770827,68.67506410792521 41.611689404642675,68.18341981676713 41.4175731932628,67.93604872252217 41.040125004481524,67.21247713646517 40.743558570422465,66.9187147041921 39.82150656636804,64.56851674294558 39.80533021541487,64.36750483968171 39.85655532675446,64.11391876464768 40.25017986648891,63.41809283988914 40.347237972178846,63.10573932022271 40.27983650990063,62.849050448201524 39.95091737396433,62.31401752762031 39.69479181726638,61.79134654318477 39.524940132308984,61.253202866369975 39.54920465873147,60.9748490840484 39.770281455043005,60.20163123655402 39.79724203994556,59.72222664579749 39.74332087011135,59.3201397537523 39.476411079464015,58.25303813092796 39.522244073828915,57.64369143241129 39.49797954739188,56.762128400836446 39.422489909644355,56.41258956383717 39.430578085113666,56.05686021766451 39.30386333602655,55.53717882308047 39.08817865670426,55.19999999999891" stroke="#4dd2ff" stroke-linecap="round" stroke-linejoin="round" stroke-width="0.5"><title>2021-06-10 13.2km</title></polyline><polyline fill="none" points="71.61048296582885,70.65226723949309 71.89722500985954,71.61285943468101 73.1636690380983,71.4756321812165 73.23535454901867,72.18921316042542 74.14337102207355,72.07943159039132 74.69295993982814,72.82045634766109 75.00359715439845,72.16176777196233 74.35842755506746,71.72264118873863 74.95580681378487,71.77753204954206 75.29033919831272,72.16176777196233 74.8363309619017,72.84790167113533 76.27004118240438,73.01257355528651 75.55318607226945,73.47914336452959 75.48150056123268,72.95768293808214 75.9355087976437,72.68322968957364 76.15056533075403,72.985128247994 75.9832991383737,72.54600296393619 76.36562186374795,72.76556569256354 75.95940396806691,72.73812036099844 76.00719430868048,72.38133080376429 76.60457356716506,73.53403387882281 76.15056533075403,74.19271920694155 74.90801647293847,74.60439674541703 72.9008221643744,74.54950644215569 70.75025683350395,76.05898583793896 70.03340172336902,75.61986540345242 69.57939348684158,76.11387584343902 70.1050872344058,76.69022024865262 70.91752302600071,76.41577068076003 70.24845825647935,76.6353303566284 70.77415200392716,76.69022024865262 70.86973268527072,76.22365582219209 70.89362785569392,76.4981055794633 70.22456308605615,76.38832570906379 70.89362785569392,76.4981055794633 70.46351478958968,76.25110081007006 70.98920853703748,76.22365582219209 69.26875627238769,76.4981055794633 69.98561138263904,76.27854579532868 70.27235342666972,76.79999999998836 70.27235342666972,76.4981055794633 69.67497416818514,76.58044045395218 70.20066791574936,76.3608807346609 70.86973268527072,76.55299549846677 70.36793410801329,76.55299549846677 70.51130513020325,76.00409582149587 70.43961961916648,76.6353303566284 70.03340172336902,76.4432156496332 70.36793410801329,76.19621083157836 70.29624859709293,76.71766519051744 69.96171621233225,75.97665080922889 70.43961961916648,75.94920579425525 70.22456308605615,76.47066061594523 69.72276450879872,76.33343575758045 69.93782104190905,75.26307954033837 68.88643354689702,73.86337673777598 68.74306252493989,72.29899468706571 67.50051366712432,70.48759395891102 67.38103781547397,69.96612792738597 67.835046051885,69.33487826626515 67.33324747474398,67.85280821745982 67.88283639261499,66.42562219250249 67.81115088157821,64.83375222256291 69.26875627238769,55.19999999998254 69.77055484964512,55.2274470613047 69.77055484964512,55.7214937012468 70.51130513020325,56.13319856443559 72.853031823528,56.380221190076554 73.06808835663833,56.8468188844854 74.93191164336167,56.13319856443559 76.77183975966182,57.09384087665239 77.70375140290707,56.819371983001474 77.9188079360174,57.258522082847776 79.73484088201076,56.76447817173903 79.99768775573466,57.99958630485344 80.66675252525602,58.438734542171005" stroke="#4dd2ff" stroke-linecap="round" stroke-linejoin="round" stroke-width="0.5"><title>2021-06-08 2.7km</title></polyline><polyline fill="none" points="110.80000000004657,63.409794419130776 103.01272430666722,60.698050593200605 94.94355628057383,60.171889267570805 91.77226753672585,58.39103054400766 91.94845024473034,56.933958566893125 91.59608482848853,57.05538142926525 89.19999999995343,71.38302693981677 89.69331158231944,72.79957488723448 90.85611745505594,73.81139185623033 90.32756933104247,75.06604143307777" stroke="#4dd2ff" stroke-linecap="round" stroke-linejoin="round" stroke-width="0.5"><title>2021-06-08 1.1km</title></polyline><polyline fill="none" points="136.19195710448548,66.9977428719576 129.15603217144962,64.30384848060203 125.47882037528325,65.00226761162048 123.04664879338816,64.80271943609114 122.61233243951574,65.20181566910469 118.87721179611981,64.00452555314405 115.19999999995343,64.53665501839714 118.41394101863261,63.871493055601604 122.49651474528946,65.20181566910469 128.49008042889182,65.46787956194021 133.03592493291944,67.09751632501138 136.7710455764318,68.12850694436929 136.79999999993015,67.79592966960627" stroke="#4dd2ff" stroke-linecap="round" stroke-linejoin="round" stroke-width="0.5"><title>2021-06-07 1.5km</title></polyline><polyline fill="none" points="155.4122946721036,75.42332553342567 155.2468500819523,70.72361416352214 153.92329336050898,69.9165884173417 150.324873524718,65.16935084125726 147.76048237713985,65.69154925938346 152.0206805737689,60.94427014220855 155.4122946721036,55.20000000001164 148.7531499180477,64.97946036746725 150.15942893433385,64.93198773739277 151.19345762301236,65.78649436563137 155.20548893418163,70.62867002814892 155.2468500819523,75.32838232224458 156.23951762309298,76.79999999998836 155.32957237702794,76.2778135954577" stroke="#4dd2ff" stroke-linecap="round" stroke-linejoin="round" stroke-width="0.5"><title>2021-06-04 1.3km</title></polyline><polyline fill="none" points="180.1903273400385,69.1097840013681 180.42451328207972,69.47373257562867 181.11329546454363,69.47373257562867 180.93421209708322,69.0781362602429 181.30615447560558,68.90407357236836 180.89288516616216,68.96736911709013 180.97553902800428,68.39770831553324 180.5484940749011,68.20782093210437 180.53471843129955,68.44518012627668 180.97553902800428,68.91989746091713 180.98931467172224,69.55285172165895 180.41073763841996,69.5053802387265 179.98369268531678,68.96736911709013 180.0663465472171,69.23637490349938 179.5566477322136,69.33131801447598 178.92296812444692,68.20782093210437 178.20663465477992,67.46409318254155 175.76834572904045,65.73926449069404 175.49283285601996,64.26760699760052 175.7821213725838,62.7801115084585 177.1321344501339,60.54884240710817 178.39949366584187,59.52023272214865 179.69440416875295,58.00104327403824 179.74950674327556,56.76669125058106 179.25358357199002,55.801358047596295 178.82653861888684,55.516504516635905 178.37194237852236,55.959609790559625 178.24796158570098,55.56398014030128 178.44082059670473,55.548154933945625 178.1790833674604,55.500679305710946 178.3581667348626,55.53232972609112 178.22041029832326,55.84883358687512 178.28928851662204,55.595630548283225 178.0275512872613,55.78553286468377 178.23418594204122,55.64310614843271 178.05510257458081,55.595630548283225 178.11020514916163,55.78553286468377 177.60050633421633,56.165336822959944 178.1790833674604,55.84883358687512 177.95867306907894,55.991260120412335 178.04132693097927,55.67475654075679 177.86224356351886,56.07038591771561 177.86224356351886,55.78553286468377 178.37194237852236,55.46902887898614 178.61990396416513,55.817183228893555 178.5096988150035,55.92795945444959 178.8954168371274,55.959609790559625 178.4545962404227,56.165336822959944 177.88979485083837,55.405728006895515 178.5096988150035,55.500679305710946 178.52347445860505,55.19999999999709 177.6142819778761,56.18116196838673 178.39949366584187,56.165336822959944 178.39949366584187,55.959609790559625 177.83469227619935,56.02291044402227 178.61990396416513,55.46902887898614 177.91734613809967,55.92795945444959 178.19285901106196,55.91213428406627 178.30306416022358,55.78553286468377 178.01377564365976,55.64310614843271 178.09642950556008,55.92795945444959 178.52347445860505,55.7064069268381 178.39949366584187,55.94378462326131 178.4132693093852,55.75388249421667 178.22041029832326,55.84883358687512 178.30306416022358,55.62728094990598 178.57857703318587,55.61145574983675 178.4821475277422,55.991260120412335 178.70255782606546,55.6905817345978 178.3581667348626,56.11786137736635 178.5372501022648,55.84883358687512 178.31683980394155,55.24747571731859 178.7163334697252,55.43737844604766 178.09642950556008,55.959609790559625 178.3581667348626,56.07038591771561 178.52347445860505,55.864658763530315 178.4132693093852,56.11786137736635 178.6612308950862,55.516504516635905 178.5096988150035,56.007085283024935 178.67500653880415,56.21281225452549 178.44082059670473,55.975434956286335 176.4433522677864,58.01686823827913 178.90919248072896,55.72223211750679 180.68625051138224,57.1464928851201 181.5127891303273,58.38084198521392 180.700026155042,72.43276207338204 175.6581405798206,72.55935035314178 174.6387429498136,72.82835011588759 174.4872108696727,75.09109497033933 175.01068532833597,75.4708532167715 176.12651246384485,75.21768115236773 176.6224356351886,75.75567131169373 176.20916632574517,76.08795844991982 176.9530510827899,76.18289750587428 177.09080751921283,76.45189119256975 177.06325623195153,76.80000000000291 176.81529464625055,76.46771433655522 176.6775382097694,76.54683003315586" stroke="#4dd2ff" stroke-linecap="round" stroke-linejoin="round" stroke-width="0.5"><title>2021-06-02 5.9km</title></polyline><polyline fill="none" points="17.412874469417147,100.15227600421349 19.343154243426397,98.38348278471676 22.336172320181504,94.34759835581644 24.917108197929338,88.966318788036 26.02322357427329,84.85554186248919 26.001535037416033,79.19999999999709 26.435305773164146,79.59863265082822 26.652191140921786,83.93372209358495 25.133993565803394,89.63898500494543 23.46397623314988,93.52546584278753 20.774597671465017,97.51153790681565 17.347808859078214,100.80000000000291" stroke="#4dd2ff" stroke-linecap="round" stroke-linejoin="round" stroke-width="0.5"><title>2021-06-01 2.2km</title></polyline><polyline fill="none" points="58.79999999993015,91.47635831439402 58.36599690874573,91.97486595442751 49.085007727961056,89.02215753664495 42.708500772714615,89.21389253027155 42.174343122169375,89.71240307122935 38.0346213291632,88.25521661652601 37.199999999953434,88.29356369850575 37.23338485322893,88.71538135013543 38.00123647612054,88.02513404554338 42.641731066512875,89.94248464371776 51.0547140649287,90.21091297297971" stroke="#4dd2ff" stroke-linecap="round" stroke-linejoin="round" stroke-width="0.5"><title>2021-05-31 1.1km</title></polyline><polyline fill="none" points="75.0269891130738,99.99629552630358 75.46400575712323,96.4298415791709 76.20693405182101,96.98239242186537 78.91643724404275,96.4298415791709 79.8341721962206,95.42520214305841 80.53339882660657,92.46150422698702 82.15036040893756,93.06429164510337 81.1889237924479,92.6624334459193 81.66964210080914,91.95918083234574 81.58223877171986,93.16475614518276 81.66964210080914,91.90894846542506 81.6259404362645,93.76754272839753 80.2274871757254,92.36103958779131 84.68505694367923,94.82241752752452 80.14008384686895,93.11452389755868 81.2326254567597,92.61220114884782 80.66450381977484,90.9545325517538 80.2274871757254,93.41591730850632 81.58223877171986,92.16011024982436 81.10152046359144,91.35639210251975 82.32516706665047,93.16475614518276 82.89328870363533,92.91359485773137 81.27632712130435,93.66707834758563 79.7904705319088,92.96382712526247 81.93185208714567,92.76289802548126 80.44599549798295,92.4112719099794 79.35345388785936,95.97775407889276 75.15809410624206,96.68100112763932 75.28919909941033,98.58980963676004 73.54113252367824,99.94606395452865 73.6285358525347,100.79999999998836 74.28406081837602,99.8456007958157 72.36118758493103,94.62148916331353 63.31494305608794,79.19999999998254" stroke="#4dd2ff" stroke-linecap="round" stroke-linejoin="round" stroke-width="0.5"><title>2021-05-30 1.4km</title></polyline><polyline fill="none" points="89.98435754165985,87.86895987065509 93.09162011160515,89.6361701549904 98.7631284914678,91.74988058526651 101.38770949712489,91.50732429651543 104.70614525128622,92.1310401293158 110.28715083794668,91.29941877289093 110.79999999993015,90.88360735660535 110.22681564232334,91.33406970204669 104.91731843561865,91.92313497472787 97.52625698316842,91.43802246905398 92.60893854743335,90.12128514857613 89.19999999995343,88.3540773045097" stroke="#4dd2ff" stroke-linecap="round" stroke-linejoin="round" stroke-width="0.5"><title>2021-05-27 1.4km</title></polyline><polyline fill="none" points="136.80000000004657,91.5533500314632 134.09530434780754,91.4239049233147 128.61078260862269,89.35277798259631 120.30886956537142,89.05073781785904 115.19999999995343,87.66998012328986 118.35547826089896,88.87814334436553 126.88278260850348,89.65481793880463 135.67304347804748,92.33001987668104 136.38678260869347,92.11427839126554" stroke="#4dd2ff" stroke-linecap="round" stroke-linejoin="round" stroke-width="0.5"><title>2021-05-25 1.1km</title></polyline><polyline fill="none" points="141.79474342928734,88.24558938734117 142.82202753436286,89.08398385517648 146.25531914876774,89.39449975814205 149.66157697117887,91.35074290478951 153.7436795993708,91.19548595618107 156.04155193991028,91.56810250409762 160.853566958569,90.8849718295387 162.79999999993015,89.92237609039876 162.79999999993015,90.63656030752463 155.12240300374106,91.75441061265883 152.20275344175752,91.25758874489111 149.60750938672572,91.47494840848958 144.47108886099886,90.2328911665245 141.19999999995343,88.7734676458931" stroke="#4dd2ff" stroke-linecap="round" stroke-linejoin="round" stroke-width="0.5"><title>2021-05-24 1.6km</title></polyline><polyline fill="none" points="175.61395348829683,89.44105418300023 180.63720930216368,89.58529933882528 180.63720930216368,90.1983406166255 183.83953488362022,91.64078662748216 188.79999999993015,91.17199229812832 183.7453488371102,91.67684770480264 180.16627906973008,91.06380890600849 176.43023255793378,91.2441145417688 167.19999999995343,88.32315229519736" stroke="#4dd2ff" stroke-linecap="round" stroke-linejoin="round" stroke-width="0.5"><title>2021-05-21 1.1km</title></polyline><polyline fill="none" points="24.14869664539583,124.79999999998836 24.918749778415076,124.05815092180273 24.670345542021096,123.31629994107061 25.067792320391163,119.86381457818788 26.55821773922071,119.35021819346002 26.881143246777356,118.57982190645998 28.669653749559075,119.00782009700197 32.34603644942399,118.49422219238477 32.22183433105238,116.83928940744954 30.97981314873323,114.15713685489027 28.4957707838621,110.67600815641345 26.707260281196795,108.99249646041426 23.850611561676487,107.30897496518446 19.80162250692956,106.7382874887262 18.311197088100016,106.13906442638836 16.125239807064645,106.45294332815683 13.39279320568312,104.82647623747471 12.871144309057854,103.19999999998254 11.653963550459594,103.62802094922517 11.72848482138943,104.5411301907152" stroke="#4dd2ff" stroke-linecap="round" stroke-linejoin="round" stroke-width="0.5"><title>2021-05-20 1.7km</title></polyline><polyline fill="none" points="37.3038461538963,112.1511357218842 37.199999999953434,109.94439573778072 41.8211538461037,109.10941094096052 58.436538461595774,109.46726170938928 58.800000000046566,117.57848898816155 57.813461538404226,118.29418028873624 49.40192307694815,117.57848898816155 48.36346153845079,118.29418028873624 41.976923076901585,118.89058905903948 38.29038461553864,118.35382119234418 37.45961538446136,117.63812996214256 37.45961538446136,111.43543715006672" stroke="#4dd2ff" stroke-linecap="round" stroke-linejoin="round" stroke-width="0.5"><title>2021-05-18 1.1km</title></polyline><polyline fill="none" points="63.199999999953434,114.73490694213251 64.04031830222812,115.52462390180153 68.14641909801867,117.25760406878544 70.72466843493748,117.19179494198761 72.46259946934879,117.58664941068855 75.46100795746315,117.2356676953641 78.76498673739843,116.27046512240486 79.70079575583804,115.70011617867567 81.2095490716165,114.6471604401886 84.79999999993015,111.11533499849611 84.22705570282415,110.413350589326 82.81379310344346,111.51020025488106 74.54429708211683,112.40961294418958 73.34111405815929,112.08055994319147 66.82864721480291,111.88312790892087 66.48488063644618,112.43154979358951 66.56127320951782,112.21218120203412 66.17931034474168,112.3657392388559 65.77824933675583,113.19933816026605 65.18620689644013,113.4406425280904 63.467374005238526,113.08965427010844 63.21909814304672,112.62898134101124" stroke="#4dd2ff" stroke-linecap="round" stroke-linejoin="round" stroke-width="0.5"><title>2021-05-10 2.5km</title></polyline><polyline fill="none" points="110.80000000004657,120.8977506790543 110.69244813278783,120.28006116092729 109.95751037355512,119.51824157139345 108.79236514528748,120.09475394907349 108.20082987553906,119.9094465727394 108.16497925319709,119.33293368323939 108.55933609965723,118.67405985989899 108.41593361005653,116.84155610324524 107.98572614102159,116.22385458248027 105.70921161829028,116.92391616792884 104.18556016602088,116.75919600612542 104.13178423244972,116.28562481679546 100.18821576761547,116.3473950329062 98.12680497928523,116.01795366931765 94.82854771788698,116.61506575791282 92.4803319502389,116.67683587648207 90.61609958508052,116.26503474074707 89.19999999995343,113.81480118533364 91.2614107884001,112.33229296727222 92.17560165980831,111.3233577417559 94.05775933607947,110.35559896331688 94.29078838170972,109.65551534775295 96.28049792535603,108.77011211805802 98.19850622408558,107.45229570445372 97.42771784239449,108.31711366445234 95.29460580914747,109.24370035929314 93.28697095438838,107.47288664989173 92.01427385897841,107.10224932096025" stroke="#4dd2ff" stroke-linecap="round" stroke-linejoin="round" stroke-width="0.5"><title>2021-05-08 2.6km</title></polyline><polyline fill="none" points="136.79999999981374,110.26421503492747 136.6585924711544,111.76666118454887 132.41636661207303,112.01030058410834 131.78003273322247,113.1878889821819 125.2399345333688,111.68544801944518 121.84615384601057,111.96969402758987 120.60883797029965,112.66000494445325 115.80098199658096,111.60423483813065 115.19999999995343,112.57879195542773 120.2199672665447,114.36547401218559 127.50245499168523,115.09638716420159 136.6585924711544,117.73578496507253" stroke="#4dd2ff" stroke-linecap="round" stroke-linejoin="round" stroke-width="0.5"><title>2021-05-08 1.3km</title></polyline><polyline fill="none" points="162.79999999993015,113.63805036433041 162.25570291781332,113.93419610816636 159.0472148541594,112.74961155556957 158.5315649867989,113.21028382584336 155.26578249328304,111.95988618361298 153.1458885940956,112.94704260639264 148.53368700260762,113.24318896353361 145.58302387269214,112.28893864914426 142.60371352778748,112.81542191881454 141.5724137929501,112.65089598626946 141.19999999995343,112.12441245699301 145.98408488044515,112.32184387787129 148.79151193634607,113.5722401633102 153.37506631296128,113.44061972235795 162.6281167109264,116.04011381638702" stroke="#4dd2ff" stroke-linecap="round" stroke-linejoin="round" stroke-width="0.5"><title>2021-05-07 1.5km</title></polyline><polyline fill="none" points="167.2996923075989,118.14813170203706 167.19999999995343,117.57466302404646 168.79507692309562,117.03942482051207 169.4596923077479,115.43370574639994 177.8006153847091,110.46358045941452 180.45907692296896,111.22821929460042 181.0904615384061,112.06932025947026 181.85476923070382,110.19595650833799 181.55569230765104,109.85186829796294 181.55569230765104,111.15175547939725 181.38953846157528,110.73120422448847 180.75815384613816,112.18401570335845 181.5889230769826,111.22821929460042 180.7913846153533,112.06932025947026 181.22338461515028,110.6547403105942 180.92430769221392,112.14578389251255 181.6553846152965,111.49584252823843 183.01784615393262,111.72523372317664 185.04492307687178,110.99882780353073 186.90584615373518,111.07529164897278 188.79999999993015,112.18401570335845 187.57046153827105,111.34291498883977 186.07507692289073,111.15175547939725 182.5858461537864,111.99285661135218 180.8578461536672,110.88413200664218" stroke="#4dd2ff" stroke-linecap="round" stroke-linejoin="round" stroke-width="0.5"><title>2021-05-06 1.2km</title></polyline><polyline fill="none" points="16.589792060432956,139.97022751005716 17.528922495432198,137.95319723919965 24.225330812856555,132.98094652371947 27.04272211715579,129.97880769876065 30.758412098512053,128.00864378883853 32.18752362951636,129.36899593262933 32.800000000046566,143.2068395917886 32.02419659728184,139.07898263185052 20.795463138027117,145.22384756797692 17.855576559668407,142.40941547282273 12.34328922489658,145.4114757818461 11.199999999953434,147.3346607029962 12.384120983071625,147.99135621113237 15.895652174018323,144.70786959808902 17.20226843096316,141.70580484520178 16.46729678637348,140.62693319297978" stroke="#4dd2ff" stroke-linecap="round" stroke-linejoin="round" stroke-width="0.5"><title>2021-05-06 1.8km</title></polyline><polyline fill="none" points="50.284073107060976,134.65907594456803 52.22976501297671,134.07236538428697 52.427154047065414,133.45305863354588 50.1712793733459,132.54039388312958 50.45326370757539,132.60558430830133 50.114882506546564,132.964131410321 51.778590078349225,133.61603420972824 53.244908616296016,133.38786838002852 52.76553524797782,135.50654486721032 54.23185378592461,134.69167094433215 54.175456919008866,135.31097531376872 54.76762402092572,135.27838037660695 56.96710182772949,137.03850226165378 58.57441253249999,137.39704442955554 58.60261096607428,138.30969541962259 58.09503916441463,139.02677652644343 58.79999999993015,142.28621598501923 58.20783289812971,143.45960611684131 42.529503916506656,141.6017364343861 38.15874673624057,142.188433281146 37.199999999953434,142.90550575387897 37.8767624021275,142.22102751914645" stroke="#4dd2ff" stroke-linecap="round" stroke-linejoin="round" stroke-width="0.5"><title>2021-05-02 1.6km</title></polyline><polyline fill="none" points="69.81670886068605,132.84641383722192 71.34784810105339,133.47876323369564 73.20708860759623,131.89788854058133 80.5893670883961,130.6964210945298 83.87037974665873,132.02435866341693 84.79999999981374,134.23758166382322 83.65164556982927,140.56103269133018 74.35544303781353,143.84920189867262 63.85620253137313,145.3035789055284 63.199999999953434,144.2286049229442 67.73873417708091,131.2023024064256" stroke="#4dd2ff" stroke-linecap="round" stroke-linejoin="round" stroke-width="0.5"><title>2021-05-01 1.0km</title></polyline><polyline fill="none" points="99.50366438762285,137.11315597448265 98.19514322816394,139.20011186110787 96.25492219859734,135.18271424883278 96.34516503708437,133.7218346184818 97.92441471247002,131.26963449281175 100.40609277342446,130.22614153544419 106.81333431322128,130.3304909261642 110.55841211462393,127.20000000001164 105.8206630886998,130.53918964450713 94.67567252321169,129.02612202009186 93.72812271816656,129.49569520686055 91.87814452708699,133.46096281975042 91.24644465697929,143.16530474333558 90.47938052914105,145.66962135827634 89.57695214310661,146.03483318036888 89.44158788537607,148.79999999998836 90.16353059397079,148.43479013908654 90.47938052914105,146.71308301994577 91.6976588498801,133.14791648695245 93.32202994450927,131.53050740167964 93.99885123386048,131.94790378096513" stroke="#4dd2ff" stroke-linecap="round" stroke-linejoin="round" stroke-width="0.5"><title>2021-05-01 1.8km</title></polyline><polyline fill="none" points="133.48121368623106,136.0378349780367 132.7282117495197,136.16597862626077 131.50109748227987,137.04696347011486 130.00903808913426,136.98289200631552 129.74409296317026,137.30324907263275 129.78592640411807,136.99890987465915 128.78192382183624,137.33528474450577 126.41136216913583,137.0309456065297 125.01691413816297,137.1911241713242 124.59857972891768,136.9668741364294 123.0786313751014,137.25519555294886 119.648289218836,137.33528474450577 116.23189154290594,136.98289200631552 115.20000000001164,137.86387241774355 115.26972240151372,138.16820999450283 119.28573273075745,138.9530779547058 119.71801162039628,138.82493650604738 120.51284699811367,139.2413958444231 122.63240800518543,139.27343113390089 123.957133634598,139.78599490594934 124.52885732729919,139.6098012918228 126.03486120078014,139.96218832896557 126.41136216913583,140.25050442690554 127.34564234991558,140.36262721562525 127.59664299548604,140.17041667328158 128.27992253069533,140.49076745082857 129.13053582952125,140.3466096791526 130.55287282116478,140.76306511477742 130.67837314395,140.37864475056995 130.98515171080362,140.3466096791526 131.5568754034466,140.65094260255864 131.75209812785033,140.18643422715832 132.58876694639912,139.73794212110806 133.59276952868095,138.72883035318227 134.70832795352908,138.29635196141317 135.29399612656562,137.5915698918834 136.27010974823497,137.28723123433883 136.79999999998836,136.55040896416176 136.52111039380543,135.70145742023306 136.0888315042248,135.23693488522258 135.21032924467,135.797565365021 133.87165913492208,135.71747541498917 133.78799225308467,136.23005041247234 131.90548741118982,137.15908847100218 132.29593285993906,137.52749864295765 132.56087798578665,137.3513025780412 133.46726920589572,138.0400679264858 134.2202711427235,137.92794353398494 134.27604906389024,137.7357301095326" stroke="#4dd2ff" stroke-linecap="round" stroke-linejoin="round" stroke-width="0.5"><title>2021-04-30 3.7km</title></polyline><polyline fill="none" points="162.62938388611656,136.58898702598526 161.26445497618988,138.54873691071407 160.51374407566618,138.66632159650908 153.07488151651341,136.62818211846752 146.4549763032701,136.58898702598526 147.3421800947981,137.3336931206577 141.19999999995343,135.4915228689788 146.1137440756429,137.2161080405058 153.962085307925,137.96081296002376 162.04928909929004,140.5084771309921 162.79999999993015,140.35169826893252 161.77630331739783,139.9989456034382" stroke="#4dd2ff" stroke-linecap="round" stroke-linejoin="round" stroke-width="0.5"><title>2021-04-29 1.4km</title></polyline><polyline fill="none" points="175.5005714285653,137.46843952391646 177.2594285713276,136.08597749008914 176.6422857142752,134.98709361656802 177.72228571400046,134.63261423064978 185.09714285691734,127.5784017026017 185.96114285697695,127.47205573011888 188.79999999993015,130.73331789701479 185.18971428542864,133.07290077660582 185.59085714269895,133.10834888470708 183.33828571392223,135.55425990652293 184.29485714260954,135.19978108030045 184.51085714274086,134.3844784523244 183.43085714266635,135.2706768734788 178.27771428553388,141.50945188684273 174.7908571427688,143.5653880982718 172.4148571427213,145.6567594135995 172.2605714284582,147.00373788256547 170.3165714284405,148.52794426985201 168.71199999994133,147.71267189036007 167.19999999995343,145.55041879310738 167.32342857134063,143.4590468587121 169.45257142849732,142.46652710431954 170.2239999998128,141.26132085875724 172.3531428570859,140.33968982516672 172.7542857142398,139.41805642697727 173.803428571322,138.81544869582285 174.1119999998482,137.75202082199394 174.914285714156,137.14941029602778 175.8091428569751,137.36209647948272 175.99428571411408,136.68858979997458" stroke="#4dd2ff" stroke-linecap="round" stroke-linejoin="round" stroke-width="0.5"><title>2021-04-26 2.2km</title></polyline><polyline fill="none" points="23.943719214876182,168.98358240476227 24.53272503777407,168.1715718084597 25.215971792000346,159.64531536618597 27.5248746171128,151.19999999998254 25.404453655239195,159.50997582476703 23.731677118688822,160.294944235211 21.304973129183054,160.13253716222243 18.78402820788324,160.51148684948566 17.464655165094882,161.3235201300704 16.545806081499904,162.6227683768666 16.4751253828872,170.58052956312895 17.535335863824002,172.52933383526397 18.24214285099879,172.79999999998836 18.71334750915412,172.55640046374174 21.257852663402446,170.41812858200865 22.12958128086757,171.01359837604105 22.97774966561701,170.3910617424408 23.142671296023764,169.68732297664974" stroke="#4dd2ff" stroke-linecap="round" stroke-linejoin="round" stroke-width="0.5"><title>2021-04-25 2.2km</title></polyline><polyline fill="none" points="48.83463103964459,172.8000000000029 48.19767577259336,168.05623116942297 48.549099368276075,165.35628087850637 48.19767577259336,160.33480216412863 48.52713539346587,151.5785203853884 48.26356769679114,151.20000000001164 47.71446832851507,151.5785203853884 47.16536896035541,160.51143876765855 47.385008707642555,169.2926474843116 48.26356769679114,169.54497660984634 48.32945962087251,169.31788040809624 48.43927949457429,165.0030142448377 48.15374782308936,168.359027554543" stroke="#4dd2ff" stroke-linecap="round" stroke-linejoin="round" stroke-width="0.5"><title>2021-04-18 2.2km</title></polyline><polyline fill="none" points="84.80000000004657,165.07463768444723 80.9318051575683,164.68364642042434 69.2343839542009,161.16470595585997 64.06647564459126,160.6670752383361 63.199999999953434,160.0983535767591 69.35816618904937,160.0272633060522 70.71977077366319,158.92536231552367 73.38108882517554,160.1338987069612" stroke="#4dd2ff" stroke-linecap="round" stroke-linejoin="round" stroke-width="0.5"><title>2021-04-16 1.0km</title></polyline><polyline fill="none" points="110.80000000004657,163.7323563605023 110.16736401669914,163.90104692101886 109.9075313807698,163.36902211081178 109.45564853557153,163.18735460967582 108.87949790793937,163.33009338164993 108.67615062760888,163.16140208898287 108.39372384938179,162.77211366503616 108.89079497911735,161.88972230597574 108.72133891214617,161.24090135429287 108.38242677826202,161.09816031553783 105.75020920508541,161.2798307016783 103.50209205021383,161.08518384976196 102.40627615066478,161.34471292163653 101.94309623434674,161.1630426250631 101.19748953980161,161.24090135429287 101.01673640171066,161.08518384976196 99.54811715480173,161.25387780468736 99.02845188288484,161.07220738270553 98.42970711301314,161.24090135429287 97.83096234314144,160.9943485536205 96.5656903766212,161.22792490263237 95.526359832671,160.8126777732541 94.66778242681175,160.91648967849324 94.18200836825417,160.31957010473707 93.30083682009717,160.3714762621239 92.49874476989498,160.12492183200084 92.17112970718881,160.2806404732255 91.71924686199054,159.83943717771035 91.0527196652838,160.07301557730534 90.08117154811043,159.7486010214052 89.51631799171446,160.0470624423033 89.91171548125567,159.7615776189923 90.00209205021383,160.20278117564158 89.20000000001164,160.16385150958376 89.87782426783815,159.91729669032793 89.55020920507377,159.99515615687415 89.90041841007769,159.96920300649072 89.6179916318506,160.08599214290734 89.79874476994155,160.2806404732255 89.60669456073083,160.12492183200084 89.87782426783815,160.03408587283047 89.79874476994155,159.89134352456313 89.57280334731331,159.96920300649072 89.65188284520991,160.16385150958376 90.00209205021383,160.02110930212075 89.83263598330086,159.95622642934904 89.81004184106132,160.137898392466 89.90041841007769,159.90432010810764 89.77615062770201,160.137898392466 89.8552301255404,159.95622642934904 89.91171548125567,160.09896870721423 89.74225941428449,159.6318115854374 89.84393305447884,159.96920300649072 89.78744769876357,159.7486010214052 89.81004184106132,159.96920300649072 89.58410041843308,159.80050740412844 89.66317991638789,159.6837180142029 89.74225941428449,159.80050740412844 89.57280334731331,159.86539035370515 89.79874476994155,159.9821795822936 89.6179916318506,159.8783669397817 89.83263598330086,159.6837180142029 89.67447698750766,159.95622642934904 89.49372384941671,159.95622642934904 89.67447698750766,159.61883497503004 89.50502092053648,159.73562442255206 89.77615062770201,159.96920300649072 89.58410041843308,159.85241376633348 89.6179916318506,159.96920300649072 89.67447698750766,159.86539035370515 89.73096234310651,160.41040586677263 89.6179916318506,161.63019430932763 90.71380753139965,161.86376952935825 90.80418410047423,162.07139159900544 91.78702928876737,161.98055698386452 92.35188284527976,162.18817886919715 96.85941422602627,162.3828240891453 101.31046025111573,162.95378173956124 103.44560669455677,163.03163940900413 104.3945606694906,163.2392596355785 105.49037656909786,163.797237370949 107.20753138075816,163.60259424363903 107.3882845188491,163.91402310905687 107.62552301259711,163.8102135691879 109.24100418412127,164.14759427434183 109.52343096234836,164.3811650249554 110.03179916320369,164.26437970147526 110.1899581590551,163.78426117140043 110.64184100425337,163.60259424363903" stroke="#4dd2ff" stroke-linecap="round" stroke-linejoin="round" stroke-width="0.5"><title>2021-04-09 4.9km</title></polyline><polyline fill="none" points="136.3639751554001,163.15576907334616 129.58881987584755,161.1909708568419 128.81739130441565,160.45898468076484 124.0546583852265,160.8442407339753 120.60000000009313,160.49751030324842 121.23726708081085,160.88276631844928 120.93540372664575,161.03686861807364 115.19999999995343,159.72699713296606 119.96273291914258,161.15244530286873 126.80496894416865,161.7303282142093 136.2968944099266,164.27300286706304 135.02236024849117,163.7721743201837 136.79999999993015,163.54102246667026 136.33043478254694,162.96314223416266" stroke="#4dd2ff" stroke-linecap="round" stroke-linejoin="round" stroke-width="0.5"><title>2021-04-09 1.4km</title></polyline><polyline fill="none" points="142.05909090908244,160.80178996088216 143.1022727272939,161.68283659638837 150.65000000002328,164.5726543130586 153.99431818176527,164.43168813735247 156.90909090917557,165.03079399993294 162.30909090919886,164.43168813735247 162.79999999993015,163.8325812703988 160.62159090919886,163.2687150662532 158.01363636355381,163.79733965868945 155.31363636360038,162.775331407669 153.07386363646947,162.9515399353986 149.26931818178855,161.0132413514657 148.77840909094084,160.0969510881987 146.59999999997672,159.25114260573173 144.94318181823473,158.96920600003796 141.19999999995343,159.88549915526528" stroke="#4dd2ff" stroke-linecap="round" stroke-linejoin="round" stroke-width="0.5"><title>2021-04-08 1.4km</title></polyline><polyline fill="none" points="188.65974025975447,162.90220063424204 188.79999999993015,163.64328861891408 186.97662337659858,163.6755097975838 182.15168831171468,162.03222563740565 174.85818181815557,161.67779071512632 171.01506493496709,160.3244902024162 167.19999999995343,160.90447682293598 170.81870129867457,160.48559770031716 174.66181818174664,161.6455693395401 181.81506493513007,161.96778295288095" stroke="#4dd2ff" stroke-linecap="round" stroke-linejoin="round" stroke-width="0.5"><title>2021-04-06 1.3km</title></polyline><polyline fill="none" points="17.7964071854949,182.75661670282716 20.512574850115925,181.9083324733365 21.63353293412365,182.80651572940405 21.63353293412365,183.75459627155215 20.90059880237095,184.1537875306385 22.194011975778267,185.55095438001445 23.530538921942934,185.70065059227636 25.255089820129797,184.90227026611683 27.195209580706432,182.4572224362928 28.919760478893295,183.10590978278196 30.342514970107004,182.25762615716667 32.756886227289215,182.55702054535504 32.756886227289215,179.5131690853741 32.49820359284058,181.35944189631846 31.075449101626873,181.1099459765246 32.800000000046566,181.40934106512577 32.713772454997525,182.70671767104068 29.005988023709506,183.05601078644395 27.195209580706432,182.40732337423833 24.263473053928465,186.09984026823076 24.953293413156644,185.50105563254328 21.71976047893986,185.45115687994985 21.073053892003372,184.35338303845492 22.021556886145845,184.35338303845492 21.935329341329634,183.85439411672996 20.81437125732191,181.85843335525715 20.340119760250673,182.55702054535504 19.39161676634103,182.4572224362928 18.184431137517095,185.0519666762557 14.174850299023092,187.1477116222086 12.881437125615776,189.54283774230862 12.708982035750523,187.6965957240318 12.364071856020018,190.04182087921072 12.062275448814034,188.94405730837025 12.364071856020018,189.69253273674985 12.105389221338555,189.04385409812676 13.873053892049938,189.94202429242432 15.295808383030817,192.0876464348985 17.14970059855841,191.93795217137085 17.667065868154168,190.8900910471275 16.546107784146443,190.39110877303756 17.537724550813437,190.39110877303756 17.0634730537422,190.98988744121743 16.632335328962654,190.59070174364024 17.14970059855841,191.18948016813374 17.279041915899143,190.69049819846987 17.494610778288916,191.8381559701811 16.761676646536216,192.4868309146259 14.390419161412865,192.28723871539114 12.191616766154766,189.69253273674985 12.579640718176961,187.44710302661406 12.838323353091255,189.24344761660905 11.199999999953434,190.1915157212352 11.67425149702467,189.393142702349 11.372455089585856,190.39110877303756 12.579640718176961,189.54283774230862 12.752095808275044,187.3473059121461" stroke="#4dd2ff" stroke-linecap="round" stroke-linejoin="round" stroke-width="0.5"><title>2021-04-05 1.9km</title></polyline><polyline fill="none" points="54.18703574803658,191.6827286992193 53.34000109205954,192.10917275387328 53.67144943564199,191.5974397839891 54.26069093553815,191.5974397839891 54.38958751352038,191.23496150644496 53.72669082635548,195.17954429371457 52.308828467386775,196.2029914627783 52.2351732798852,196.8000000000029 52.17993188928813,196.2029914627783 53.781932216952555,195.24350988841616 54.315932326135226,193.15395701501984 54.68420826352667,189.8276869487454 53.76351842004806,189.16669108673523 51.774828358204104,188.80420859849255 50.5963453585282,189.72107485418383 48.12889657821506,190.42471367458347 43.63593014201615,193.13263493936392 42.8257230798481,191.83198421719135 41.88661943958141,192.23710580078478 41.44468831468839,192.0665283874987 38.86675675294828,181.00002155455877 38.71944637806155,178.97429700440262 40.02682595571969,184.90215146214177 40.43192948680371,185.07273471595545 45.164275282179005,182.91911093138333 48.81020706228446,181.74633618164808 51.09351787401829,180.46693804815004 54.29751852923073,177.8867946810933 56.19413960678503,175.1999999999971 57.28055362193845,175.7544207755418 57.15165704395622,175.9250114877941 56.7097259190632,175.7757446221658 56.9675190752605,175.5625060579914 56.9675190752605,175.90368765637686 57.07800185645465,175.3279433863354 56.45193276286591,175.51985831900674" stroke="#4dd2ff" stroke-linecap="round" stroke-linejoin="round" stroke-width="0.5"><title>2021-04-05 3.7km</title></polyline><polyline fill="none" points="68.6504672896117,178.16831719997572 72.08224299037829,180.89579199929722 74.90841121505946,188.76645043020835 74.97570093441755,192.7407125099562 76.52336448570713,192.42900642711902 78.07102803722955,193.83168279996607 81.57009345805272,191.2601074836566 84.79999999981374,192.11730021680705 78.20560747641139,190.5587672594702 78.20560747641139,193.13034493516898 78.54205607483163,189.54571913310792 78.40747663518414,193.28619784972398 78.60934579418972,192.03937364451122 75.91775700915605,192.58485948451562 77.73457943927497,191.41596077935537 78.67663551401347,193.13034493516898 76.99439252307639,192.03937364451122 78.20560747641139,191.72766727540875 77.93644859828055,193.20827139628818 78.67663551401347,193.20827139628818 77.80186915886588,191.64974066318246 79.34953270992264,193.5979035833152 77.80186915886588,192.19522678118665 77.93644859828055,190.94840079679852 79.0803738317918,192.7407125099562 78.00373831763864,191.0263274803292 76.18691588775255,190.94840079679852 75.37943925219588,192.97449198900722 75.58130841120146,191.96144706424093 72.14953271020204,189.3898654562072 73.49532710271887,184.4025310127763 72.14953271020204,184.94802230247296 72.21682243002579,182.9219098361791 68.24672897183336,180.73993655876257 63.199999999953434,181.20750278542982 66.02616822440177,182.22056196193444 66.96822429914027,184.8700949990307" stroke="#4dd2ff" stroke-linecap="round" stroke-linejoin="round" stroke-width="0.5"><title>2021-04-04 1.4km</title></polyline><polyline fill="none" points="102.53407821198925,176.33098246145528 95.83687150804326,179.38074755377602 89.38100558635779,186.86647845379775 95.47486033500172,193.5897057921975 99.03463687119074,189.56963944953168 103.19776536314748,187.8368451365386 103.31843575416133,185.5495500973193 107.17988826800138,182.7077489149524 101.50837988802232,175.49922604684252 96.74189944122918,178.68762028665515 89.19999999995343,187.28235005342867 95.35418994398788,192.82728118507657 98.97430167580023,188.59927516093012 104.88715083780698,187.6289095315733 106.63687150832266,186.311982604675 107.54189944127575,182.84637362958165 107.30055865901522,182.22256219777046 106.57653631293215,183.60880907118553 104.46480446914211,184.64849243091885 104.4044692737516,184.02468259970192 110.79999999981374,179.79662358592032 108.44692737422884,178.54899475112325 105.97318435739726,175.49922604684252 104.58547486015595,177.78655381657882 100.36201117304154,175.9844174083555 92.03575418959372,183.47018450696487 89.4413407817483,187.14372621424263 95.47486033500172,192.82728118507657 99.03463687119074,189.08445747278165 99.5776536311023,189.50032775918953 98.06927374284714,191.57967549713794 106.3351955304388,193.31246057635872 108.98994413414039,196.50077395321568 103.378770949319,186.2426705926773 103.98212290508673,184.37124368536752 106.93854748620652,181.87600005220156 103.68044692720287,179.86593623377848 101.87039106129669,176.40029545151629 100.60335195506923,175.9151043772581 99.51731843547896,176.67754734342452 100.06033519562334,177.16273789084516" stroke="#4dd2ff" stroke-linecap="round" stroke-linejoin="round" stroke-width="0.5"><title>2021-04-02 3.1km</title></polyline><polyline fill="none" points="128.4510638298234,194.34746444896155 125.92340425529983,193.46765793619852 121.15531914890744,193.37967709400982 115.98510638298467,192.69782439009578 115.54468085116241,192.2799136378453 115.19999999995343,190.19034812839527 115.69787234044634,189.79442824648868 116.73191489360761,189.75043710503087 115.79361702129245,186.8250067242625 116.02340425539296,182.86571651382837 117.45957446808461,180.82005569181638 118.03404255327769,179.43427479383536 120.772340425523,177.542559981026 121.88297872350086,178.75237944399123 122.91702127666213,178.97234591370216 123.4531914893305,179.61024744875613 125.71276595746167,179.61024744875613 129.19787234044634,180.16016110031342 130.88297872338444,181.04002012169803 133.6787234043004,183.5256030979508 136.32127659558319,188.10076303806272 136.39787234039977,188.694647108161 135.78510638291482,189.22254273148428 135.53617021278478,190.05837491249258 136.07234042545315,190.03637936891755 136.80000000004657,191.9059928271745 136.32127659558319,192.89578184153652 134.65531914890744,193.20371530551347 134.25319148926064,193.7096050732507 133.31489361694548,193.24770576560695 132.9127659574151,193.42366751944064 131.9170212765457,193.11573435919126 131.43829787231516,194.45744001898856 131.28510638291482,194.3034742057789" stroke="#4dd2ff" stroke-linecap="round" stroke-linejoin="round" stroke-width="0.5"><title>2021-04-02 3.2km</title></polyline><polyline fill="none" points="143.4631299735047,184.1737890126533 150.76816976128612,187.43135781673482 154.7214854111662,187.39845324031194 157.12785145884845,187.9578305973846 160.36498673749156,187.16812111492618 162.80000000004657,187.20102571387542 157.29973474808503,187.92492607302847 154.89336870028637,187.36554866074584 150.9973474801518,187.56297608980094 145.95543766580522,186.11517223037663 141.19999999995343,184.0421694025863" stroke="#4dd2ff" stroke-linecap="round" stroke-linejoin="round" stroke-width="0.5"><title>2021-04-01 1.4km</title></polyline><polyline fill="none" points="167.19999999995343,183.2794083393528 169.63927986915223,185.75637384262518 172.5027823240962,186.36546143773012 175.8612111294642,188.1115075496491 180.45695581031032,188.03029626677744 183.00229132571258,188.7205916606472 188.80000000004657,188.03029626677744 184.73453355161473,188.63938049794524 179.82062193122692,187.9084793124639 175.43698854348622,188.1115075496491 168.8615384614095,186.32485562603688 168.18985270056874,185.95940314105246 168.96759410807863,185.63455621540197" stroke="#4dd2ff" stroke-linecap="round" stroke-linejoin="round" stroke-width="0.5"><title>2021-03-29 1.2km</title></polyline><polyline fill="none" points="21.606107734143734,220.79999999998836 20.599494165508077,215.12380938709248 19.8992412481457,214.9228811300709 16.48550827638246,210.00011415043264 14.209686295129359,209.79918387840735 21.299747082637623,199.19999999998254 23.66310067870654,200.65677290415624 28.302276255795732,205.37869790161494 27.82085237512365,208.74429865402635 29.790313705103472,220.29768478992628 23.531803256832063,216.12844948653947 21.25598127534613,215.67636168620083 21.037152238655835,216.63076879555592" stroke="#4dd2ff" stroke-linecap="round" stroke-linejoin="round" stroke-width="0.5"><title>2021-03-28 1.4km</title></polyline><polyline fill="none" points="47.73415384616237,206.0875407375279 48.963692307588644,206.8127859272936 49.262769230641425,206.20205322626862 50.45907692308538,206.12571157084312 50.724923076923005,205.51497778543853 51.090461538289674,205.93485736649018 51.65538461541291,205.51497778543853 53.416615384514444,206.50741969732917 54.44676923076622,205.74400306795724 57.47076923062559,206.66010284234653 57.2713846154511,205.89668651425745 58.700307692284696,206.04936990048736 57.636923076817766,205.66766132219345 57.90276923077181,205.0569268138206 57.9692307690857,205.89668651425745 57.80307692300994,205.51497778543853 57.437538461526856,206.01119905951782 57.50399999995716,205.40046509329113 57.9692307690857,206.04936990048736 57.47076923062559,205.89668651425745 58.46769230766222,205.78217393517843 58.46769230766222,206.16388240037486 58.035692307516,205.62949044359266 57.3378461538814,206.01119905951782 58.73353846149985,205.78217393517843 58.301538461470045,205.4386359944765 58.16861538449302,206.58376127740485 57.57046153838746,206.0875407375279 57.50399999995716,206.50741969732917 58.33476923056878,205.9730282149394 57.9692307690857,206.01119905951782 58.79999999993015,207.0418104416749 58.700307692284696,205.93485736649018 58.20184615382459,206.01119905951782 58.46769230766222,206.54559048920055 57.73661538469605,206.77461516176118 57.636923076817766,206.35473649192136 57.23815384611953,206.92729820142267 55.84246153838467,206.73644439244526 55.84246153838467,205.9730282149394 56.1747692306526,212.53835812423495 52.41969230771065,213.37810158979846 49.362461538403295,212.38567729844362 49.59507692302577,212.88188976232777 48.664615384535864,212.38567729844362 43.28123076912016,212.1184857081971 40.58953846152872,212.92005992544 40.356923076789826,214.29418329225155 39.72553846158553,214.7903933088819 37.56553846143652,214.9430731861503 37.199999999953434,214.33235331607284" stroke="#4dd2ff" stroke-linecap="round" stroke-linejoin="round" stroke-width="0.5"><title>2021-03-26 1.5km</title></polyline><polyline fill="none" points="65.48292682936881,208.63126527593704 72.33170731714927,211.4263691099477 74.74006968643516,211.25347686518217 76.84738675958943,211.71452262398088 79.88292682927568,211.10939991637133 81.08710801380221,211.25347686518217 84.79999999993015,209.92796625601477 81.51358885015361,211.25347686518217 77.27386759582441,211.59926125247148 75.0411149825668,211.13821531180292 72.55749128921889,211.33992300037062 67.21393728221301,210.04322828681325 63.199999999953434,208.28547737599" stroke="#4dd2ff" stroke-linecap="round" stroke-linejoin="round" stroke-width="0.5"><title>2021-03-26 1.6km</title></polyline><polyline fill="none" points="110.79999999981374,211.91659649994108 109.14974533091299,211.705982393265 106.69269949034788,210.14743477504817 104.6023769096937,210.18955775853829 101.59524617972784,209.01011265337002 94.26078098453581,209.22072808965459 95.36095076380298,209.76832773769274 94.92088285204954,209.89469678746536 89.19999999995343,208.08340350005892 93.82071307254955,209.85257377498783 100.38505942258053,210.27380371282925 105.99592529702932,211.62173672145582" stroke="#4dd2ff" stroke-linecap="round" stroke-linejoin="round" stroke-width="0.5"><title>2021-03-24 1.1km</title></polyline><polyline fill="none" points="136.79999999993015,211.58436208078638 135.2445652174065,211.48323304005316 133.71847826091107,210.33710182108916 131.28260869567748,209.9325840025558 129.28695652179886,209.02241716056596 123.18260869570076,209.15725684558856 123.71086956537329,209.7303249137476 118.92717391310725,208.41563791921362 115.19999999995343,208.88757742225425 116.66739130439237,209.08983700969839 119.04456521733664,208.4493479053781 123.44673913053703,209.79774462341447 131.45869565219618,210.13484297165996" stroke="#4dd2ff" stroke-linecap="round" stroke-linejoin="round" stroke-width="0.5"><title>2021-03-23 1.3km</title></polyline><polyline fill="none" points="162.36914893612266,211.07226263763732 155.10212765960023,208.53183448678465 152.14361702115275,209.0267246006115 149.21382978721522,208.69679793936666 150.01808510627598,209.22468044125708 149.70212765957695,209.32365831767675 145.0776595743373,207.93796538349125 141.19999999995343,208.49884178640787 144.7904255319154,208.00395089149242 149.12765957438387,209.25767306992202 154.87234042549971,209.6535843606398 162.80000000004657,212.06203461650875 161.50744680839125,211.43517936990247 162.80000000004657,211.07226263763732" stroke="#4dd2ff" stroke-linecap="round" stroke-linejoin="round" stroke-width="0.5"><title>2021-03-22 1.6km</title></polyline><polyline fill="none" points="185.59387911239173,199.33357029205945 185.89135424635606,199.5421696606645 185.72609028307488,200.20589342516905 187.2299923489336,200.43345533344836 187.626625860692,200.75583424443903 187.49441469012527,201.34370028464764 188.0893649578211,201.74193110143824 188.79999999998836,202.9745450904884 188.3703136953991,204.1123356349126 187.74231063504703,204.3778191305464 187.51094108645339,205.06048930042016 184.45355776586803,207.71529479551828 181.08217291504843,209.0237212193315 180.0244835499907,209.70637496456038 179.21469013008755,210.38902629644144 176.85141545522492,213.65054935270746 167.20000000001164,220.66642970794055" stroke="#4dd2ff" stroke-linecap="round" stroke-linejoin="round" stroke-width="0.5"><title>2021-03-21 1.3km</title></polyline><polyline fill="none" points="20.991447246517055,232.12345238041598 20.717277565971017,230.37025749233726 18.837256899219938,228.03264339396264 18.073498503421433,227.80787154800782 15.488470086595044,230.167964909313 12.923025218420662,233.42710140236886 12.276768114301376,233.60691447717545 11.571760364226066,235.51741966354894 12.766356829553843,237.22562254712102 15.605971378274262,238.5741947561619 18.680588510353118,241.06903237420192 18.50433657283429,241.2038876862207 18.915591093711555,241.15893592438078 18.543503670138307,240.95665288683085 19.013508836738765,241.74330813872803 20.051436913199723,242.97947520951857 23.987730184104294,244.8000000000029 26.024419239722192,244.5977201834612 30.822388649568893,241.24883943918394 31.468645753804594,239.90028300539416 32.42823963589035,235.58484896672599 31.468645753804594,233.92158701785957 27.88485635793768,230.6175037395733 24.0073137327563,225.7399601950019 21.128532086731866,223.1999999999971 17.897246565902606,227.69548554210633 18.484753024298698,227.7629171522858 19.287678517284803,228.50466355135723 20.854362406185828,230.50511911488138 20.834778857650235,231.13447230160818" stroke="#4dd2ff" stroke-linecap="round" stroke-linejoin="round" stroke-width="0.5"><title>2021-03-20 3.7km</title></polyline><polyline fill="none" points="56.671921182191,239.4388168019068 49.294581280555576,237.07590951339807 41.49162561586127,236.8314700568153 37.30640394077636,235.9351908118697 37.199999999953434,234.46854785224423 37.80295566492714,233.81670486507937 37.235467980382964,232.71671749165398 37.37733990140259,230.80191766808275 39.61182266008109,228.5611831981223 43.300492610782385,229.009331064648 47.06009852210991,230.27229061772232 54.153694581240416,230.109328311868 57.94876847276464,229.49821909173625 58.40985221648589,228.96859036956448 57.73596059111878,230.516733956174 57.310344827361405,235.77223074028734 57.66502463049255,238.4610637013102 58.800000000046566,238.6647624548059" stroke="#4dd2ff" stroke-linecap="round" stroke-linejoin="round" stroke-width="0.5"><title>2021-03-19 1.6km</title></polyline><polyline fill="none" points="71.95359628775623,233.77934678878228 76.64779582375195,235.7940934147191 78.46867749432568,235.67896559811197 80.0556844547973,236.02434884350805 81.72621809749398,235.6597776221024 82.61160092806676,235.73652951495023 84.79999999998836,235.08413746055157 80.74060324835591,236.0051609014772 78.65243619499961,235.67896559811197 76.31368909520097,235.77490545003093 66.97540603252128,232.80074804219475 63.20000000001164,232.3977941863268 64.01856148493243,232.5129239445523 63.467285382852424,232.282664359911 63.63433874712791,232.18672278587474 64.90394431550521,232.26347604891635 66.59118329471676,231.97565115649195 67.15916473319521,232.3977941863268 67.49327146174619,232.18672278587474 67.89419953600736,232.57048879817012 68.24501160095679,232.45535907401063 68.69605568452971,232.83912455638347 69.26403712300817,232.62805363468942 70.43341067287838,233.47233594719728 70.66728538280586,233.18451284324692 70.06589327153051,232.282664359911 69.83201856154483,232.30185266905755 69.91554524365347,232.9542540534312 71.00139211135684,233.49152413901174 71.45243619498797,232.41698248412285 71.7030162413721,232.93506580867688 72.03712296986487,232.87750106291787 71.68631090491544,232.973442296352 71.88677494210424,232.91587756195804 71.40232018567622,232.24428773602995 72.12064965203172,232.18672278587474" stroke="#4dd2ff" stroke-linecap="round" stroke-linejoin="round" stroke-width="0.5"><title>2021-03-19 3.1km</title></polyline><polyline fill="none" points="98.2894876972423,244.8000000000029 98.16817476798315,244.42377020095591 97.93768020236166,244.38196682812122 97.59800400037784,244.70245903720206 98.01046795991715,242.34752106614178 97.85276115185115,242.91884098523587 97.92554890940664,243.96393241922488 97.69505434378516,244.14508081495296 96.38487470766995,244.11721184609632 96.22716789954575,243.28114022451336 96.33634953590808,242.54260617637192 99.5147482829052,241.8319376923464 101.64985583815724,241.6925905116077 101.57706808060175,228.21706872188952 102.29281436331803,227.29728613275802 103.77283210051246,225.98728240632045 103.50594365608413,225.31833964618272 101.6983810098609,223.1999999999971" stroke="#4dd2ff" stroke-linecap="round" stroke-linejoin="round" stroke-width="0.5"><title>2021-03-18 2.7km</title></polyline><polyline fill="none" points="122.52566249156371,243.01760866613768 123.13039118767483,243.1224558770191 123.221670990868,243.63358484537457 123.44987049879273,243.7646432384936 124.68214784166776,244.01365382934455 126.27954439731548,243.86948985989147 127.38631201081444,244.18402922785026 128.41320979659213,244.8000000000029 128.67563923064154,243.97433639861993 128.5273095505545,240.47503847291227 129.4743375084945,240.3832953400124 128.11655043624341,240.0032159716211 126.80440326553071,239.9376849361579 126.22249452030519,239.30858535117295 125.07008700515144,227.39444954277133 126.32518429885386,225.92640727000253 127.21516237984179,225.415210169871 126.57620375760598,224.27484031801578 125.48084611946251,223.1999999999971" stroke="#4dd2ff" stroke-linecap="round" stroke-linejoin="round" stroke-width="0.5"><title>2021-03-17 2.8km</title></polyline><polyline fill="none" points="141.92765957443044,232.83431946646306 142.19574468093924,232.83431946646306 143.53617021278478,233.40617387497332 143.91914893616922,233.89005010956316 147.90212765941396,234.98976687228424 152.11489361710846,235.5616185174731 153.53191489353776,235.4736413891369 154.52765957452357,235.69358417773037 155.02553191501647,235.8695383304439 157.01702127652243,236.17745793084032 158.66382978716865,236.83728493037052 159.19999999995343,236.969250213122 160.1191489363555,237.45312258254853 160.88510638312437,237.93699442697107 161.19148936169222,238.02497106959345 161.53617021278478,238.20092430277145 162.37872340413742,238.42086574662244 162.80000000004657,238.37687746656593 162.7617021277547,238.37687746656593 162.7617021277547,238.37687746656593 162.64680851087905,238.42086574662244 162.7234042554628,238.37687746656593 162.7617021277547,238.37687746656593 162.80000000004657,238.42086574662244 162.57021276582964,238.37687746656593 162.07234042556956,238.37687746656593 160.38723404239863,238.42086574662244 159.23829787247814,238.06895938445814 158.12765957438387,237.849017767061 157.01702127652243,237.76104108980508 155.906382978661,237.80502943051397 155.33191489381716,237.849017767061 154.22127659572288,237.93699442697107 153.72340425522998,237.93699442697107 152.0,237.80502943051397 151.46382978721522,237.67306439497042 150.42978723393753,237.40913420694415 149.89361702138558,237.1452038627467 148.8595744681079,236.79329649396823 148.3234042553231,236.61734270560555 146.1404255318921,236.17745793084032 144.7234042554628,235.60560707523837 144.60851063835435,235.34167566380347 145.06808510632254,235.25369849195704 145.25957446801476,235.25369849195704 145.4127659574151,235.07774409631384 145.25957446801476,235.03375548645272 144.87659574463032,234.9457782538666 144.6851063829381,234.90178963114158 144.57021276606247,234.8578010039637 144.34042553184554,234.8578010039637 144.18723404267803,234.7698237366567 143.99574468075298,234.7698237366567 143.80425531906076,234.7698237366567 143.53617021278478,234.68184645206202 143.34468085109256,234.59386915012146 143.2297872339841,234.54988049255917 142.84680851059966,234.32993714004988 142.7319148934912,234.24195976863848 142.5404255320318,234.1099936789251 142.42553191492334,234.0220162642363 142.31063829781488,233.89005010956316 142.15744680841453,233.71409517590655 141.88936170213856,233.49415141125792 141.65957446815446,233.36218510032631 141.544680851046,233.2742075380229 141.35319148935378,233.0542635564634 141.2765957445372,232.65836411633063 141.2765957445372,232.30645320791518 141.23829787247814,232.08650874905288 141.19999999995343,231.91055310392403 141.3148936170619,231.55864160554484 141.2765957445372,231.07476284180302 141.2765957445372,230.8548177756893 141.23829787247814,230.72285068387282 141.3148936170619,230.59088355317363 141.2765957445372,230.5468945009343 141.3148936170619,230.2389710135758 141.35319148935378,230.01902553523541 141.544680851046,229.97503642659285 141.92765957443044,229.84306907452992 142.11914893612266,229.75509081812925 142.23404255323112,229.71110168349696 142.46382978721522,229.62312340116478 142.5021276595071,229.62312340116478 142.5021276595071,229.57913425340666 142.5404255320318,229.57913425340666" stroke="#4dd2ff" stroke-linecap="round" stroke-linejoin="round" stroke-width="0.5"><title>2021-03-02 1.4km</title></polyline><polyline fill="none" points="171.16837209300138,234.3173654836719 171.41953488369472,234.4327591159381 174.1823255813215,234.95203018025495 175.94046511640772,235.58669418818317 176.59348837193102,235.87517760071205 178.35162790701725,236.3367507646326 179.00465116254054,236.3367507646326 180.86325581395067,236.22135750798043 181.46604651142843,236.0482675798703 183.32465116260573,235.9328742660582 184.47999999998137,236.3367507646326 185.08279069769196,236.56753721018322 186.1376744187437,236.97141327062855 187.14232558128424,237.1445029254537 188.39813953498378,237.0291098279995 188.59906976716593,236.91371670772787 188.79999999981374,237.0291098279995 188.7497674417682,237.8368610329344 187.84558139531873,238.06764688662952 187.0920930232387,238.70230751478812 186.74046511598863,238.81770028255414 186.3888372092042,238.93309302732814 186.1879069765564,238.93309302732814 185.88651162781753,238.9907893910422 185.68558139540255,239.1061821016483 184.98232558136806,239.39466377877397 185.08279069769196,239.6831453135237 185.43441860447638,239.913930439041 185.43441860447638,239.97162670624675 185.43441860447638,240.02932296763174 185.48465116275474,239.97162670624675 185.2334883720614,239.913930439041 184.9320930230897,240.02932296763174 184.83162790699862,240.08701922331238 184.73116279044189,240.1447154734633 184.68093023239635,240.20241171779344 184.68093023239635,240.20241171779344 184.47999999998137,239.913930439041 184.37953488365747,239.79853788769105 184.2288372090552,239.62544901808724 184.17860465100966,239.5100564098102 183.6762790698558,239.39466377877397 183.47534883697517,239.39466377877397 183.22418604651466,239.39466377877397 182.97302325582132,239.33696745481575 182.67162790708244,239.33696745481575 182.42046511615627,239.33696745481575 181.91813953476958,239.22157478972804 181.66697674407624,239.16387844854034 181.41581395361573,239.1061821016483 181.16465116268955,239.04848574922653 180.6623255815357,238.93309302732814 180.46139534865506,238.81770028255414 180.21023255819455,238.7600039015524 179.9590697675012,238.6446111225523 179.70790697657503,238.52921832085121 179.50697674416006,238.35612907569157 179.0548837208189,238.12534333579242 178.60279069747776,237.89455750479829 178.25116279092617,237.548378587584 177.99999999976717,237.4329855698743 177.74883720930666,237.31759252917254 177.49767441861331,237.2021994657698 177.24651162768714,237.08680637960788 177.09581395355053,237.0291098279995 176.69395348825492,236.85602013889002 176.49302325583994,236.79832356458064 176.29209302319214,236.7406269844505 176.09116279054433,236.62523380731 175.84000000008382,236.56753721018322 175.58883720915765,236.5098406074103 175.03627906972542,236.4521439987584 174.83534883731045,236.394447384635 174.58418604638427,236.3367507646326 174.2827906976454,236.3367507646326 174.0818604649976,236.2790541391587 173.5795348836109,236.22135750798043 173.32837209291756,236.10596422827803 172.87627906980924,235.75978425279027 172.37395348842256,235.58669418818317 172.17302325577475,235.52899748866912 171.9218604650814,235.47130078350892 171.62046511634253,235.41360407252796 171.41953488369472,235.35590735595906 171.16837209300138,235.24051390541717 170.71627906966023,235.0097269366379 170.46511627919972,234.89433341799304 170.26418604631908,234.7789398766472 169.76186046516523,234.4904559236602 169.6111627907958,234.37506230268627 169.41023255791515,234.25966865901137 168.95813953480683,233.97118444991065 168.75720930239186,233.79809385625413 168.50604651169851,233.45191251521464 168.15441860468127,233.04803402512334 167.55162790697068,232.5864582664799 167.55162790697068,232.41336726327427 167.45116279064678,232.12488214374753 167.3506976745557,231.89409394573886 167.19999999995343,231.1440316736116 167.3506976745557,230.8555459283525 167.4009302323684,230.5670600407757 167.45116279064678,230.33627122826874 167.50139534892514,230.16317955916747 167.50139534892514,229.8746933301445 167.50139534892514,229.12462846905692 167.50139534892514,228.60535223275656 168.05395348835737,228.37456264632056 168.45581395342015,228.14377296896419 168.80744186067022,228.0283780960599 169.05860465136357,227.97068065113854 169.15906976745464,227.85528574418277 169.8623255812563,227.79758828220656" stroke="#4dd2ff" stroke-linecap="round" stroke-linejoin="round" stroke-width="0.5"><title>2020-12-25 1.0km</title></polyline><polyline fill="none" points="11.52481202990748,255.50505844311556 11.76842105272226,255.7382317239244 11.971428571268916,255.9714048897149 12.418045112630352,256.25121253708494 14.163909774273634,256.71755824791035 15.09774436079897,256.99736545371707 15.70676691737026,257.1372689946147 18.54887218028307,258.2564958309231 19.360902255633846,258.81610825585085 20.29473684192635,259.23581713973545 21.675187969813123,259.74879415892065 22.203007518779486,259.8420626479783 23.177443609107286,259.8420626479783 23.74586466164328,259.8420626479783 24.72030075173825,259.65552565146936 25.613533834693953,259.5622571253625 26.628571428591385,259.6088913907006 27.19699248112738,259.5622571253625 28.78045112779364,259.8420626479783 29.308270676527172,260.0285995710874 30.323308270424604,260.2151364206511 30.89172932342626,260.1685022150923 31.906766917323694,260.1218680050515 32.35338345868513,260.0752337904123 32.800000000046566,260.2617706215824 32.7593984962441,260.3084048177989 32.63759398506954,260.35503900944605 32.59699248126708,260.4016731965821 32.59699248126708,260.4483073790034 32.556390977464616,260.4016731965821 32.47518797009252,260.49494155685534 32.47518797009252,260.4016731965821 32.51578947389498,260.4483073790034 32.556390977464616,260.49494155685534 32.51578947389498,260.4483073790034 32.59699248126708,260.35503900944605 32.556390977464616,260.35503900944605 32.51578947389498,260.35503900944605 32.51578947389498,260.4016731965821 32.51578947389498,260.35503900944605 32.51578947389498,260.35503900944605 32.51578947389498,260.35503900944605 32.51578947389498,260.4016731965821 32.47518797009252,260.4016731965821 32.47518797009252,260.4016731965821 32.434586466057226,260.4016731965821 32.39398496248759,260.4016731965821 32.47518797009252,260.4016731965821 32.47518797009252,260.4016731965821 32.47518797009252,260.4016731965821 32.434586466057226,260.4016731965821 32.434586466057226,260.4483073790034 32.35338345868513,260.4016731965821 31.419548872159794,260.4016731965821 30.3639097744599,260.4016731965821 29.308270676527172,260.1685022150923 28.821052631596103,260.0285995710874 27.80601503746584,259.74879415892065 27.278195488732308,259.65552565146936 26.18195488722995,259.65552565146936 25.654135338496417,259.6088913907006 24.557894736994058,259.7021599073778 23.421052631456405,259.8420626479783 22.893233082722872,259.8420626479783 21.796992481220514,259.7954284057778 21.228571428451687,259.65552565146936 18.67067669169046,258.81610825585085 18.142857142956927,258.6295708543621 16.640601503895596,258.2564958309231 16.234586466103792,258.2098614323768 14.6105263158679,257.9300549439795 13.676691729109734,257.51034490103484 13.148872180376202,257.2305379988684 12.13383458647877,256.67092369752936 11.199999999953434,256.3444817160489" stroke="#4dd2ff" stroke-linecap="round" stroke-linejoin="round" stroke-width="0.5"><title>2020-12-08 1.1km</title></polyline><polyline fill="none" points="37.199999999953434,255.77350431791274 37.40769230760634,255.81326338712825 38.79230769223068,256.88675676990533 39.24230769230053,257.0457925835217 41.007692307583056,257.5626585446007 41.83846153842751,257.80121184160816 42.253846153849736,257.96024729442433 43.22307692305185,258.318076834199 44.08846153842751,258.7554236180731 44.53846153849736,259.03373496080167 46.75384615373332,259.7891504939762 47.23846153856721,259.82890916700126 48.62307692307513,259.6698744512396 49.03846153838094,259.63011576244025 51.21923076920211,259.6698744512396 51.66923076903913,259.7096331360517 53.01923076924868,260.1072197687754 54.403846153756604,260.22649568208726 54.81923076917883,260.18673704814864 55.71923076931853,260.22649568208726 57.10384615371004,260.02770247348235 57.519230769132264,259.98794382004417 58.38461538462434,259.90842650135164 58.79999999993015,259.8686678361846 58.62692307692487,259.55059837320005 57.65769230760634,259.51083967264276 57.24230769230053,259.55059837320005 56.37692307692487,259.7891504939762 56.065384615329094,259.8686678361846 55.16538461530581,260.06746112307883 54.749999999883585,260.1072197687754 53.884615384507924,260.1072197687754 53.43461538455449,260.02770247348235 52.569230769062415,259.8686678361846 52.15384615387302,259.7493918169057 50.80384615377989,259.51083967264276 50.35384615382645,259.51083967264276 49.45384615380317,259.55059837320005 48.9692307690857,259.55059837320005 48.06923076917883,259.63011576244025 47.16923076915555,259.6698744512396 46.30384615377989,259.63011576244025 45.47307692305185,259.43132225988666 45.05769230762962,259.31204611138673 44.157692307722755,259.03373496080167 43.74230769230053,258.8746999313298 42.911538461456075,258.5963884788216 41.80384615366347,258.27831801210414 41.49230769218411,258.23855918616755 40.661538461456075,258.03976499740384 39.51923076924868,257.68193521071225 39.207692307652906,257.4433818432153 38.480769230634905,257.0457925835217 38.09999999997672,256.84699780662777" stroke="#4dd2ff" stroke-linecap="round" stroke-linejoin="round" stroke-width="0.5"><title>2020-12-03 1.3km</title></polyline><polyline fill="none" points="84.57183098583482,258.56783315117355 84.76197183085606,259.26669882109854 84.80000000004657,259.48509411676787 84.15352112683468,259.87820537763764 83.0507042251993,259.834526365943 81.5295774647966,259.57245220491313 80.08450704207644,258.960945226223 79.59014084516093,258.87358701741323 76.77605633810163,257.78160795453005 75.74929577461444,257.60689105445636 74.19014084502123,257.6505702859722 73.12535211257637,257.60689105445636 72.3647887322586,257.60689105445636 71.90845070406795,257.60689105445636 70.88169014081359,257.5195325787645 70.53943661949597,257.47585333450115 69.36056338017806,257.38849483264494 68.9042253519874,257.3448155754595 67.30704225343652,257.213777777768 66.81267605605535,257.1264192244271 65.8239436619915,257.0390606537985 64.53098591556773,256.47122952505015 64.03661971818656,256.29651210826705 63.199999999953434,256.12179462239146 64.15070422529243,256.3401914689457 64.98732394375838,256.73330552110565 65.8239436619915,257.1264192244271 66.31830985913984,257.17009850317845 67.57323943660595,257.3011363137921 67.95352112664841,257.3448155754595 68.94225352117792,257.4321740856976 69.43661971809343,257.47585333450115 70.46338028158061,257.47585333450115 70.9197183100041,257.5195325787645 71.94647887325846,257.60689105445636 72.40281690144911,257.60689105445636 73.80985915474594,257.6505702859722 74.26619718316942,257.6505702859722 74.950704225339,257.56321181877865 75.17887323931791,257.56321181877865 75.33098591538146,257.56321181877865 75.48309859144501,257.56321181877865 75.63521126750857,257.56321181877865 75.8253521125298,257.5195325787645 76.01549295755103,257.5195325787645 76.39577464782633,257.56321181877865 76.54788732388988,257.56321181877865 76.8901408452075,257.6942495130643 77.23239436605945,257.8689663785335 77.19436619710177,257.95632478545303 77.19436619710177,258.00000398236443 77.15633802814409,258.00000398236443" stroke="#4dd2ff" stroke-linecap="round" stroke-linejoin="round" stroke-width="0.5"><title>2020-11-30 1.0km</title></polyline></svg>