<?xml version="1.0" encoding="utf-8" ?>
<svg baseProfile="full" height="300mm" version="1.1" viewBox="0,0,200,300" width="200mm" xmlns="http://www.w3.org/2000/svg" xmlns:ev="http://www.w3.org/2001/xml-events" xmlns:xlink="http://www.w3.org/1999/xlink"><defs /><rect fill="#222222" height="300" width="200" x="0" y="0" /><text fill="#FFFFFF" style="font-size:12px; font-family:Arial; font-weight:bold;" x="10" y="20">Over 3km Runs</text><text fill="#FFFFFF" style="font-size:4px; font-family:Arial" x="10" y="280">ATHLETE</text><text fill="#FFFFFF" style="font-size:9px; font-family:Arial" x="10" y="290">jdzj</text><text fill="#FFFFFF" style="font-size:4px; font-family:Arial" x="120" y="280">STATISTICS</text><text fill="#FFFFFF" style="font-size:3px; font-family:Arial" x="120" y="285">Number: 26</text><text fill="#FFFFFF" style="font-size:3px; font-family:Arial" x="120" y="290">Weekly: 3.2</text><text fill="#FFFFFF" style="font-size:3px; font-family:Arial" x="141" y="285">Total: 48.5 km</text><text fill="#FFFFFF" style="font-size:3px; font-family:Arial" x="141" y="290">Avg: 1.9 km</text><text fill="#FFFFFF" style="font-size:3px; font-family:Arial" x="167" y="285">Min: 1.0 km</text><text fill="#FFFFFF" style="font-size:3px; font-family:Arial" x="167" y="290">Max: 3.7 km</text><polyline fill="none" points="13.088636363856494,46.202684941352345 14.653409091057256,47.524254894582555 25.975000000093132,51.858981469646096 30.991477272938937,51.64753220608691 35.36363636399619,52.54619099991396 43.463636364089325,51.64753220608691 44.200000000186265,50.74887190561276 40.932386363856494,49.90307259937981 37.020454545505345,50.696009488077834 32.97045454569161,49.16299711156171 29.610795454820618,49.42730990314158 23.90397727279924,46.51986202725675 23.1676136367023,45.1454266323708 19.9000000001397,43.8767139086267 17.414772727526724,43.45380900008604 11.800000000046566,44.828248732956126" stroke="#4dd2ff" stroke-linecap="round" stroke-linejoin="round" stroke-width="0.5"><title>2021-04-08 1.4km</title></polyline><polyline fill="none" points="79.9896103895735,49.35330095136305 80.19999999995343,50.46493292838568 77.46493506501429,50.5132646963757 70.22753246757202,48.04833845613757 59.28727272711694,47.516686072718585 53.522597402567044,45.4867353036243 47.800000000046566,46.356715234403964 53.22805194789544,45.728396550461184 58.99272727267817,47.468354009324685 69.72259740275331,47.95167442932143" stroke="#4dd2ff" stroke-linecap="round" stroke-linejoin="round" stroke-width="0.5"><title>2021-04-06 1.3km</title></polyline><polyline fill="none" points="93.69461077847518,43.134925054211635 97.76886227540672,41.86249870999018 99.45029940130189,43.20977359410608 99.45029940130189,44.63189440732822 98.35089820367284,45.23068129591411 100.29101796401665,47.326431569992565 102.29580838303082,47.55097588838544 104.88263473031111,46.35340539913159 107.79281437117606,42.68583365442464 110.37964071868919,43.658864674158394 112.51377245527692,42.386439235764556 116.13532934128307,42.83553081803257 116.13532934128307,38.26975362806115 115.74730538926087,41.03916284447769 113.61317365267314,40.66491896478692 116.20000000018626,41.11401159770321 116.0706586826127,43.06007650657557 110.50898203579709,43.58401617966592 107.79281437117606,42.61098506132839 103.3952095808927,48.149760402331594 104.42994011985138,47.25158344878582 99.57964071840979,47.17673531989567 98.60958083812147,45.530074557696935 100.03233532956801,45.530074557696935 99.90299401199445,44.78159117506584 98.22155688633211,41.787650032900274 97.51017964049242,42.83553081803257 96.08742514974438,42.68583365442464 94.27664670627564,46.57795001438353 88.26227544876747,49.72156743326923 86.3221556886565,53.314256613492034 86.06347305350937,50.544893586076796 85.54610778414644,54.06273131881608 85.09341317345388,52.41608596255537 85.54610778414644,53.53879910509568 85.15808383212425,52.56578114721924 87.80958083830774,53.91303643863648 89.94371257466264,57.13146965234773 92.72455089795403,56.906928257027175 93.50059880223125,55.335136570676696 91.81916167656891,54.586663159541786 93.30658682622015,54.586663159541786 92.59520958084613,55.48483116179705 91.94850299367681,54.88605261547491 92.72455089795403,55.78422025218606 92.91856287419796,55.03574729769025 93.24191616754979,56.75723395525711 92.14251496968791,57.73024637193885 88.58562874235213,57.430858073115814 85.28742514923215,53.53879910509568 85.86946107749827,50.17065453995019 86.2574850297533,52.86517142492812 83.80000000004657,54.287273581838235 84.51137724542059,53.0897140535526 84.0586826344952,54.586663159541786 85.86946107749827,53.314256613492034 86.12814371241257,50.020958868204616" stroke="#4dd2ff" stroke-linecap="round" stroke-linejoin="round" stroke-width="0.5"><title>2021-04-05 1.9km</title></polyline><polyline fill="none" points="145.28055362205487,56.52409304885077 144.0100016380893,57.163759130839026 144.5071741535794,56.39615967599093 145.39103640336543,56.39615967599093 145.58438127033878,55.85244225966744 144.590036239475,61.769316440593684 142.46324270113837,63.30448719416745 142.3527599198278,64.20000000001164 142.2698978340486,63.30448719416745 144.67289832537062,61.865264832624234 145.47389848926105,58.73093552252976 146.0263123953482,53.74153042313992 144.6452776300721,52.75003663011012 141.66224253724795,52.206312897760654 139.8945180379087,53.581612281297566 136.1933448673226,54.63707051187521 129.45389521308243,58.69895240906044 128.23858461971395,56.747976325801574 126.82992915937211,57.35565870118444 126.16703247197438,57.099792581255315 122.30013512948062,40.50003233185271 122.07916956709232,37.46144550660392 124.04023893363774,46.35322719323449 124.64789423032198,46.60910207394045 131.74641292332672,43.37866639709682 137.21531059336849,41.61950427247211 140.64027681108564,39.70040707223234 145.4462777938461,35.83019202167634 148.29120941017754,31.800000000017462 149.9208304330241,32.631631163327256 149.72748556593433,32.88751723172027 149.064588878653,32.66361693327781 149.45127861283254,32.34375908700167 149.45127861283254,32.85553148458712 149.61700278474018,31.991915079503087 148.67789914435707,32.27978747850284" stroke="#4dd2ff" stroke-linecap="round" stroke-linejoin="round" stroke-width="0.5"><title>2021-04-05 3.7km</title></polyline><polyline fill="none" points="163.97570093441755,36.25247579999268 169.12336448580027,40.343687998945825 173.3626168225892,52.14967564528342 173.46355140162632,58.111068764934316 175.78504672879353,57.643509640707634 178.10654205596074,59.74752420000732 183.35514018684626,55.89016122557223 188.1999999997206,57.17595032521058 178.30841121450067,54.83815088914707 178.30841121450067,58.69551740284078 178.81308411248028,53.31857869972009 178.61121495300904,58.92929677455686 178.91401869105175,57.05906046682503 174.87663551373407,57.877289226744324 177.60186915891245,56.12394116912037 179.0149532710202,58.69551740284078 176.4915887848474,57.05906046682503 178.30841121450067,56.59150091314223 177.90467289742082,58.812407094519585 179.0149532710202,58.812407094519585 177.70280373841524,56.47461099480279 180.0242990651168,59.39685537503101 177.70280373841524,57.29284017183818 177.90467289742082,55.4226011952851 179.6205607475713,58.111068764934316 178.00560747645795,55.5394912204938 175.28037383174524,55.4226011952851 174.0691588781774,58.46173798351083 174.37196261668578,56.942170596448705 169.22429906530306,53.08479818433989 171.2429906539619,45.60379651922267 169.22429906530306,46.422033453709446 169.3252336452715,43.38286475429777 163.37009345786646,40.10990483814385 155.79999999981374,40.81125417817384 160.03925233660266,42.33084294293076 161.4523364487104,46.30514249857515" stroke="#4dd2ff" stroke-linecap="round" stroke-linejoin="round" stroke-width="0.5"><title>2021-04-04 1.4km</title></polyline><polyline fill="none" points="31.80111731821671,74.29647369217128 21.75530726229772,78.87112133065239 12.071508380118757,90.0997176807141 21.21229050308466,100.1845586883137 26.55195530736819,94.15445917437319 32.79664804507047,91.55526770476718 32.97765363147482,88.1243251459673 38.769832402002066,83.86162337241694 30.262569832149893,73.04883907025214 23.112849161960185,77.83143042994197 11.799999999813735,90.72352508013137 21.031284916214645,99.04092177760322 26.46145251393318,92.69891274138354 35.33072625705972,91.2433642973192 37.955307262949646,89.26797390705906 39.31284916214645,84.06956044433173 38.95083798887208,83.13384329667315 37.86480446951464,85.21321360673755 34.697206703945994,86.77273864636663 34.60670391097665,85.83702389954124 44.200000000186265,79.49493537889794 40.670391061808914,77.62349212670233 36.95977653609589,73.04883907025214 34.87821229035035,76.47983072488569 28.54301675967872,73.77662611252163 16.053631284739822,85.00527676043566 12.162011172622442,90.51558932138141 21.21229050308466,99.04092177760322 26.55195530736819,93.42668620916083 27.36648044688627,94.05049163871445 25.103910614270717,97.16951324569527 37.50279329624027,99.76869086455554 41.484916201326996,104.55116092984099 33.06815642444417,89.16400588897523 33.97318435786292,86.35686552803963 38.40782122965902,82.6140000782907 33.520670391153544,79.5989043507725 30.805586592294276,74.40044317720458 28.90502793295309,73.67265656590462 27.275977653451264,74.81632101512514 28.090502793435007,75.54410683631431" stroke="#4dd2ff" stroke-linecap="round" stroke-linejoin="round" stroke-width="0.5"><title>2021-04-02 3.1km</title></polyline><polyline fill="none" points="67.6765957447933,101.32119667343795 63.885106383124366,100.00148690427886 56.73297872347757,99.86951564098126 48.97765957459342,98.8467365851102 48.317021276801825,98.21987045675633 47.800000000046566,95.08552219255944 48.54680851078592,94.4916423697141 50.09787234046962,94.42565565751283 48.69042553205509,90.03751008637482 49.03510638314765,84.09857477073092 51.18936170230154,81.03008353771293 52.05106382991653,78.9514121907414 56.15851063840091,76.11383997151279 57.82446808530949,77.92856916596065 59.37553191499319,78.2585188705416 60.17978723417036,79.2153711731371 63.569148936192505,79.2153711731371 68.79680851078592,80.04024165045121 71.32446808519308,81.36003018252086 75.5180851065088,85.08840464690002 79.4819148934912,91.951144557097 79.59680851059966,92.84197066220804 78.67765957443044,93.6338140972075 78.30425531917717,94.8875623687345 79.10851063835435,94.85456905336468 80.20000000006985,97.65898924076464 79.4819148934912,99.14367276226403 76.98297872347757,99.60557295824401 76.37978723400738,100.36440760985715 74.97234042547643,99.67155864837696 74.36914893623907,99.93550127916387 72.87553191487677,99.47360153877526 72.15744680853095,101.48616002846393 71.92765957443044,101.25521130865673" stroke="#4dd2ff" stroke-linecap="round" stroke-linejoin="round" stroke-width="0.5"><title>2021-04-02 3.2km</title></polyline><polyline fill="none" points="87.19469496048987,86.06068351896829 98.15225464198738,90.94703672511969 104.08222811692394,90.89767986044171 107.69177718833089,91.73674589607981 112.54748010635376,90.55218167236308 116.20000000018626,90.6015385708306 107.94960212218575,91.68738910951652 104.34005305054598,90.84832299110712 98.4960212202277,91.14446413470432 90.93315649894066,88.97275834553875 83.80000000004657,85.8632541038969" stroke="#4dd2ff" stroke-linecap="round" stroke-linejoin="round" stroke-width="0.5"><title>2021-04-01 1.4km</title></polyline><polyline fill="none" points="119.80000000004657,84.71911250898847 123.45891980384476,88.43456076394068 127.7541734862607,89.34819215658354 132.7918166941963,91.96726132446202 139.6854337155819,91.84544440015452 143.50343698868528,92.88088749098824 152.20000000018626,91.84544440015452 146.10180032765493,92.75907074689167 138.7309328969568,91.66271896869875 132.15548281534575,91.96726132446202 122.2923076923471,89.28728343907278 121.28477905108593,88.73910471156705 122.45139116235077,88.25183432310587" stroke="#4dd2ff" stroke-linecap="round" stroke-linejoin="round" stroke-width="0.5"><title>2021-03-29 1.2km</title></polyline><polyline fill="none" points="171.4091616012156,105.0 169.8992412481457,96.48571408068528 168.84886187198572,96.1843216951238 163.72826241445728,88.80017122568097 160.3145294424612,88.49877581762848 170.94962062384002,72.59999999997672 174.49465101771057,74.78515935625182 181.45341438357718,81.86804685241077 180.73127856268547,86.9164479810861 183.68547055730596,104.24652718490688 174.29770488501526,97.99267422984121 170.88397191278636,97.31454252934782 170.55572835798375,98.74615319335135" stroke="#4dd2ff" stroke-linecap="round" stroke-linejoin="round" stroke-width="0.5"><title>2021-03-28 1.4km</title></polyline><polyline fill="none" points="27.60123076941818,123.73131110635586 29.445538461441174,124.81917889096076 29.894153846194968,123.9030798394233 31.68861538451165,123.78856735629961 32.08738461555913,122.87246667820727 32.63569230749272,123.50228604977019 33.48307692306116,122.87246667820727 36.12492307671346,124.36112954601413 37.67015384626575,123.21600460197078 42.20615384588018,124.59015426354017 41.907076923176646,123.4450297714211 44.050461538368836,123.67405485076597 42.455384615343064,123.10149198333966 42.854153846157715,122.18539022078039 42.95384615380317,123.4450297714211 42.70461538457312,122.87246667820727 42.1563076924067,123.61679858935531 42.256000000052154,122.70069764001528 42.95384615380317,123.67405485076597 42.20615384588018,123.4450297714211 43.70153846149333,123.27326090278802 43.70153846149333,123.84582360059721 43.053538461215794,123.04423566540936 42.0067692308221,123.61679858935531 44.10030769230798,123.27326090278802 43.452307692263275,122.75795399176423 43.252923076972365,124.47564191615675 42.35569230769761,123.73131110635586 42.256000000052154,124.36112954601413 43.50215384596959,123.55954232241493 42.95384615380317,123.61679858935531 44.199999999953434,125.16271566256182 44.050461538368836,123.50228604977019 43.30276923091151,123.61679858935531 43.70153846149333,124.41838573379209 42.60492307692766,124.76192274270579 42.455384615343064,124.13210473791696 41.8572307692375,124.99094730213983 39.763692307518795,124.70466658868827 39.763692307518795,123.55954232241493 40.2621538459789,133.4075371863437 34.62953846156597,134.66715238476172 30.043692307546735,133.1785159477149 30.392615384655073,133.92283464351203 28.99692307692021,133.1785159477149 20.921846153680235,132.7777285623015 16.88430769252591,133.98008988820948 16.53538461541757,136.04127493838314 15.588307692436501,136.78558996337233 12.348307692212984,137.01460977923125 11.800000000046566,136.09852997411508" stroke="#4dd2ff" stroke-linecap="round" stroke-linejoin="round" stroke-width="0.5"><title>2021-03-26 1.5km</title></polyline><polyline fill="none" points="51.22439024411142,127.54689791394048 61.497560975840315,131.73955366492737 65.11010452965274,131.48021529777907 68.27108013955876,132.17178393597715 72.82439024397172,131.26409987456282 74.63066202099435,131.48021529777907 80.19999999995343,129.49194938404253 75.27038327534683,131.48021529777907 68.91080139367841,131.9988918787276 65.56167247402482,131.3073229677393 61.83623693394475,131.60988450056175 53.82090592337772,129.66484243026935 47.800000000046566,127.02821606400539" stroke="#4dd2ff" stroke-linecap="round" stroke-linejoin="round" stroke-width="0.5"><title>2021-03-26 1.6km</title></polyline><polyline fill="none" points="116.19999999995343,132.474894749932 113.72461799671873,132.15897358994698 110.03904923587106,129.82115216256352 106.9035653648898,129.8843366377987 102.39286926970817,128.11516898003174 91.39117147680372,128.43109213450225 93.04142614570446,129.25249160657404 92.38132427842356,129.44204518123297 83.80000000004657,126.72510525007965 90.73106960905716,129.37886066245846 100.5775891339872,130.01070556923514 108.99388794554397,132.0326050821459" stroke="#4dd2ff" stroke-linecap="round" stroke-linejoin="round" stroke-width="0.5"><title>2021-03-24 1.1km</title></polyline><polyline fill="none" points="152.19999999995343,131.9765431211854 149.8668478259351,131.82484956010012 147.5777173913084,130.10565273166867 143.92391304345801,129.49887600383954 140.93043478252366,128.13362574088387 131.77391304355115,128.33588526840322 132.56630434794351,129.19548737065634 125.39076086971909,127.22345687882625 119.80000000004657,127.9313661333872 122.00108695635572,128.23475551456795 125.56684782588854,127.27402185808751 132.17010869574733,129.29661693514208 144.18804347817786,129.80226445753942" stroke="#4dd2ff" stroke-linecap="round" stroke-linejoin="round" stroke-width="0.5"><title>2021-03-23 1.3km</title></polyline><polyline fill="none" points="187.55372340418398,131.20839395644725 176.65319148940034,127.39775173016824 172.21542553184554,128.1400869009085 167.82074468093924,127.64519690905581 169.02712765941396,128.43702066186233 168.5531914893072,128.58548747649183 161.61648936150596,126.50694807522814 155.80000000004657,127.34826267958852 161.18563829781488,126.60592633721535 167.69148936169222,128.4865096048452 176.30851063830778,129.08037654095097 188.19999999995343,132.6930519247544 186.26117021264508,131.75276905481587 188.19999999995343,131.20839395644725" stroke="#4dd2ff" stroke-linecap="round" stroke-linejoin="round" stroke-width="0.5"><title>2021-03-22 1.6km</title></polyline><polyline fill="none" points="39.39081866864581,154.40035543809063 39.83703136956319,154.71325449101278 39.589135424699634,155.70884013775503 41.84498852340039,156.05018300018855 42.43993879109621,156.53375136666 42.24162203527521,157.41555042698747 43.134047436877154,158.01289665215882 44.20000000006985,159.86181763574132 43.55547054321505,161.56850345237763 42.613465952686965,161.9667286958138 42.2664116298547,162.9907339506317 37.680336648831144,166.9729421932716 32.62325937265996,168.93558182899142 31.03672532516066,169.95956244683475 29.822035195189528,170.98353944465634 26.277123182895593,175.87582402906264 11.800000000046566,186.39964456189773" stroke="#4dd2ff" stroke-linecap="round" stroke-linejoin="round" stroke-width="0.5"><title>2021-03-21 1.3km</title></polyline><polyline fill="none" points="62.48717086960096,167.58517857064726 62.07591634884011,164.9553862385219 59.2558853487717,161.44896509093815 58.11024775495753,161.1118073220132 54.232705129659735,164.65194736397825 50.38453782745637,169.54065210354747 49.41515217127744,169.81037171575008 48.35764054628089,172.67612949531758 50.14953524421435,175.23843382069026 54.40895706729498,177.261292134237 59.02088276529685,181.00354856130434 58.75650485907681,181.20583152933978 59.37338664045092,181.1384038865799 58.81525550503284,180.83497933024773 59.52026325499173,182.01496220807894 61.07715536956675,183.86921281428658 66.98159527604003,186.60000000000582 70.03662885946687,186.29658027520054 77.23358297417872,181.2732591587701 78.20296863059048,179.2504245080927 79.6423594536027,172.77727345007588 78.20296863059048,170.28238052679808 72.8272845367901,165.32625560936867 67.01097059901804,158.0099402925116 62.692798129981384,154.20000000001164 57.84586984862108,160.9432283131464 58.72712953633163,161.04437572840834 59.93151777575258,162.1569953270373 62.281543609220535,165.15767867234536 62.25216828635894,166.101708452421" stroke="#4dd2ff" stroke-linecap="round" stroke-linejoin="round" stroke-width="0.5"><title>2021-03-20 3.7km</title></polyline><polyline fill="none" points="113.00788177340291,178.55822520283982 101.9418719210662,175.0138642701204 90.2374384237919,174.6472050852026 83.95960591128096,173.30278621782782 83.80000000004657,171.10282177833142 84.70443349750713,170.12505729758414 83.85320197045803,168.4750762374606 84.06600985210389,165.6028765020892 87.41773399012163,162.24177479714854 92.95073891640641,162.91399659699528 98.59014778328128,164.8084359265631 109.23054187186062,164.5639924677671 114.92315270937979,163.64732863759855 115.61477832496166,162.85288555437 114.60394088667817,165.17510093428427 113.96551724127494,173.0583461103961 114.49753694585524,177.09159555193037 116.19999999995343,177.39714368217392" stroke="#4dd2ff" stroke-linecap="round" stroke-linejoin="round" stroke-width="0.5"><title>2021-03-19 1.6km</title></polyline><polyline fill="none" points="132.93039443169255,170.06902018317487 139.97169373568613,173.09114012206555 142.70301624154672,172.91844839716214 145.08352668222506,173.43652326526353 147.58932714629918,172.88966643315507 148.91740139224567,173.00479427241953 152.20000000006985,172.02620619081426 146.11090487265028,173.40774135221727 142.97865429252852,172.91844839716214 139.47053364291787,173.06235817505512 125.46310904889833,168.6011220632936 119.80000000004657,167.99669127949164 121.02784222748596,168.16938591681537 120.20092807430774,167.82399653986795 120.45150812075008,167.68008417880628 122.35591647331603,167.79521407338325 124.88677494216245,167.36347673472483 125.73874709988013,167.99669127949164 126.23990719264839,167.68008417880628 126.84129930404015,168.2557331972639 127.36751740146428,168.0830386110174 128.04408352682367,168.6586868345621 128.89605568465777,168.34208045204286 130.65011600940488,169.60850392081193 131.0009280743543,169.1767692648864 130.09883990732487,167.82399653986795 129.74802784237545,167.85277900358778 129.8733178655384,168.83138108014828 131.50208816712257,169.6372862085118 132.17865429248195,168.02547372618574 132.55452436220367,168.80259871299495 133.0556844548555,168.7162515943637 132.52946635743137,168.86016344450763 132.83016241318546,168.77381634293124 132.10348027863074,167.76643160404637 133.18097447813489,167.68008417880628" stroke="#4dd2ff" stroke-linecap="round" stroke-linejoin="round" stroke-width="0.5"><title>2021-03-19 3.1km</title></polyline><polyline fill="none" points="169.43423154577613,186.60000000000582 169.2522621518001,186.0356553014426 168.90652030345518,185.97295024216874 168.39700600039214,186.45368855579 169.0157019397011,182.9212815992214 168.7791417276021,183.77826147785527 168.88832336396445,185.3458986288315 168.54258151561953,185.61762122242362 166.5773120613303,185.57581776914594 166.3407518492313,184.32171033677878 166.5045243037166,183.21390926455206 171.27212242421228,182.14790653852106 174.47478375711944,181.9388857674203 174.3656021207571,161.72560308282846 175.43922154488973,160.3459291991312 177.65924815065227,158.38092360946757 177.25891548395157,157.37750946926826 174.54757151473314,154.1999999999971" stroke="#4dd2ff" stroke-linecap="round" stroke-linejoin="round" stroke-width="0.5"><title>2021-03-18 2.7km</title></polyline><polyline fill="none" points="22.788493737287354,224.72641299921088 23.695586781483144,224.88368381554028 23.832506486214697,225.6503772680735 24.17480574810179,225.84696485774475 26.023221762443427,226.2204807440139 28.419316595885903,226.00423478984158 30.079468016163446,226.47604384178703 31.61981469480088,227.39999999999418 32.0134588459041,226.16150459794153 31.790964325715322,220.91255770938005 33.211506262712646,220.77494301002298 31.174825654248707,220.20482395743602 29.206604898208752,220.10652740424848 28.33374178042868,219.16287802677834 26.605130507668946,201.29167431416863 28.48777644825168,199.08961090500816 29.822743569675367,198.32281525481085 28.864305636379868,196.6122604770353 27.22126917913556,195.0" stroke="#4dd2ff" stroke-linecap="round" stroke-linejoin="round" stroke-width="0.5"><title>2021-03-17 2.8km</title></polyline><polyline fill="none" points="48.891489361878484,209.45147919963347 49.29361702152528,209.45147919963347 51.30425531952642,210.3092608124134 51.87872340437025,211.03507516434183 57.853191489353776,212.68465030839434 64.1723404256627,213.54242777614854 66.29787234053947,213.41046208370244 67.79148936178535,213.74037626659265 68.53829787252471,214.00430749566294 71.52553191501647,214.46618689625757 73.99574468098581,215.45592739555286 74.80000000004657,215.65387531963643 76.17872340464965,216.37968387379078 77.32765957480296,217.10549164039548 77.78723404277116,217.2374566043727 78.30425531952642,217.50138645415427 79.56808510655537,217.8312986199162 80.20000000018626,217.76531619986054 80.14255319186486,217.76531619986054 80.14255319186486,217.76531619986054 79.970212766435,217.8312986199162 80.08510638331063,217.76531619986054 80.14255319186486,217.76531619986054 80.20000000018626,217.8312986199162 79.85531914886087,217.76531619986054 79.10851063858718,217.76531619986054 76.58085106383078,217.8312986199162 74.85744680883363,217.30343907664064 73.19148936192505,216.97352665057406 71.52553191501647,216.8415616346756 69.85957446834072,216.90754414570983 68.99787234072573,216.97352665057406 67.33191489381716,217.10549164039548 66.5851063830778,217.10549164039548 64.0,216.90754414570983 63.19574468093924,216.70959659246728 61.6446808509063,216.31370131042786 60.84042553207837,215.9178057941026 59.289361702278256,215.38994474092033 58.4851063832175,215.12601405836176 55.210638298187405,214.46618689625757 53.08510638331063,213.60841061285464 52.912765957647935,213.2125134957023 53.60212765960023,213.080547737889 53.88936170237139,213.080547737889 54.11914893635549,212.81661614443874 53.88936170237139,212.75063322967617 53.3148936170619,212.61866738076787 53.02765957452357,212.55268444668036 52.8553191490937,212.48670150589896 52.51063829800114,212.48670150589896 52.28085106401704,212.35473560495302 51.99361702147871,212.35473560495302 51.70638297870755,212.35473560495302 51.30425531952642,212.22276967804646 51.01702127675526,212.09080372512108 50.84468085109256,212.0248207388213 50.2702127660159,211.69490571005736 50.097872340586036,211.56293965294026 49.81063829804771,211.36499051837018 49.63829787261784,211.23302439635154 49.465957446955144,211.03507516434183 49.236170212738216,210.77114276384236 48.83404255332425,210.44122711685486 48.48936170223169,210.2432776504429 48.317021276801825,210.11131130700232 48.029787234263495,209.7813953346922 47.9148936169222,209.18754617444938 47.9148936169222,208.6596798118553 47.85744680883363,208.32976312353276 47.800000000046566,208.06582965585403 47.97234042570926,207.5379624082707 47.9148936169222,206.81214426265797 47.9148936169222,206.48222666350193 47.85744680883363,206.28427602577722 47.97234042570926,206.08632532972842 47.9148936169222,206.02034175139852 47.97234042570926,205.55845652031712 48.029787234263495,205.2285383028211 48.317021276801825,205.16255463985726 48.891489361878484,204.96460361179197 49.178723404416814,204.83263622719096 49.35106382984668,204.76665252522798 49.69574468093924,204.63468510168605 49.753191489493474,204.63468510168605 49.753191489493474,204.56870138004888 49.81063829804771,204.56870138004888" stroke="#4dd2ff" stroke-linecap="round" stroke-linejoin="round" stroke-width="0.5"><title>2021-03-02 1.4km</title></polyline><polyline fill="none" points="89.75255813961849,211.6760482256068 90.1293023256585,211.849138673977 94.27348837209865,212.62804527039407 96.91069767484441,213.5800412823446 97.89023255789652,214.01276640110882 100.52744186064228,214.70512614701875 101.50697674416006,214.70512614701875 104.29488372104242,214.53203626198228 105.19906976725906,214.2724013698171 107.98697674414143,214.09931139915716 109.71999999973923,214.70512614701875 110.62418604642153,215.05130581534468 112.20651162834838,215.65711990598356 113.71348837204278,215.9167543881922 115.59720930224285,215.7436647420982 115.89860465098172,215.57057506160345 116.20000000018626,215.7436647420982 116.12465116288513,216.95529154944234 114.76837209332734,217.30147032998502 113.63813953474164,218.25346127222292 113.11069767409936,218.42655042384285 112.58325581392273,218.59963954100385 112.28186046518385,218.59963954100385 111.8297674418427,218.68618408660404 111.52837209310383,218.8592731524841 110.47348837181926,219.29199566825991 110.62418604642153,219.7247179703554 111.15162790706381,220.07089565863134 111.15162790706381,220.15744005946908 111.15162790706381,220.24398445145926 111.22697674436495,220.15744005946908 110.85023255832493,220.07089565863134 110.39813953498378,220.24398445145926 110.24744186084718,220.33052883500932 110.09674418577924,220.41707321023569 110.02139534894377,220.5036175766727 110.02139534894377,220.5036175766727 109.71999999973923,220.07089565863134 109.56930232560262,219.89780683151912 109.34325581369922,219.6381735271425 109.26790697686374,219.46508461475605 108.51441860478371,219.29199566825991 108.21302325557917,219.29199566825991 107.83627907000482,219.29199566825991 107.4595348839648,219.20545118226437 107.00744186062366,219.20545118226437 106.63069767458364,219.20545118226437 105.87720930250362,219.0323621846619 105.50046511599794,218.94581767282216 105.12372093042359,218.8592731524841 104.74697674391791,218.77272862388054 103.99348837230355,218.59963954100385 103.692093023099,218.42655042384285 103.31534883752465,218.34000585234025 102.93860465148464,218.1669166838401 102.56186046497896,217.99382748128846 102.26046511624008,217.7341936136363 101.58232558146119,217.38801500370027 100.9041860466823,217.04183625720907 100.37674418650568,216.52256788144587 100.0,216.34947835485218 99.62325581395999,216.17638879379956 99.24651162791997,216.00329919869546 98.8697674414143,215.83020956942346 98.64372093044221,215.7436647420982 98.0409302324988,215.48403020837577 97.73953488375992,215.3974853468826 97.43813953502104,215.3109404767165 97.1367441858165,215.13785071100574 96.76000000024214,215.05130581534468 96.38325581373647,214.9647609111853 95.55441860482097,214.87821599823656 95.25302325608209,214.79167107696412 94.87627906957641,214.70512614701875 94.42418604623526,214.70512614701875 94.12279069749638,214.61858120874967 93.36930232541636,214.53203626198228 92.992558139842,214.3589463424869 92.31441860459745,213.83967637922615 91.56093023251742,213.5800412823446 91.25953488377854,213.49349623301532 90.88279069773853,213.40695117530413 90.43069767439738,213.32040610880358 90.1293023256585,213.23386103397934 89.75255813961849,213.0607708581956 89.0744186048396,212.71459040499758 88.69767441879958,212.5415001270594 88.39627906959504,212.36840981501155 87.64279069798067,211.93568388553103 87.41674418607727,211.76259345409926 87.11534883733839,211.589502988616 86.4372093025595,211.15677667490672 86.13581395382062,210.89714078442194 85.75906976731494,210.3778687728336 85.23162790713832,209.77205103775486 84.32744186045602,209.07968739973148 84.32744186045602,208.82005089498125 84.17674418631941,208.38732321566204 84.0260465121828,208.04114091867814 83.79999999981374,206.91604751051636 84.0260465121828,206.4833188925404 84.10139534901828,206.05059006123338 84.17674418631941,205.70440684247296 84.25209302362055,205.44476933882106 84.25209302362055,205.0120399952284 84.25209302362055,203.88694270368433 84.25209302362055,203.10802834917558 85.08093023300171,202.7618439695798 85.68372093047947,202.41565945348702 86.21116279112175,202.2425671441597 86.58790697716177,202.15602097677765 86.73860465129837,201.982928616344 87.79348837211728,201.8963824234088" stroke="#4dd2ff" stroke-linecap="round" stroke-linejoin="round" stroke-width="0.5"><title>2020-12-25 1.0km</title></polyline><polyline fill="none" points="120.28721804521047,207.45758766471408 120.65263157896698,207.8073475859128 120.9571428571362,208.1571073346422 121.62706766906194,208.5768188056536 124.24586466164328,209.27633737190627 125.64661654131487,209.6960481806309 126.56015037605539,209.90590349194827 130.82330827065744,211.58474374643993 132.04135338333435,212.42416238383157 133.44210526323877,213.05372570967302 135.5127819548361,213.82319123845082 136.30451127816923,213.9630939720082 137.76616541366093,213.9630939720082 138.6187969923485,213.9630939720082 140.0804511278402,213.6832884772448 141.42030075215735,213.54338568809908 142.9428571430035,213.61333708610618 143.7954887219239,213.54338568809908 146.1706766919233,213.9630939720082 146.9624060150236,214.24289935670095 148.48496240586974,214.52270463097375 149.3375939852558,214.45275332266465 150.86015037610196,214.38280200760346 151.53007518826053,214.31285068567377 152.20000000018626,214.59265593241435 152.13909774436615,214.6626072267536 151.95639097783715,214.73255851416616 151.89548872201703,214.80250979494303 151.89548872201703,214.87246106856037 151.83458646619692,214.80250979494303 151.71278195502236,214.9424123353092 151.71278195502236,214.80250979494303 151.77368421084248,214.87246106856037 151.83458646619692,214.9424123353092 151.77368421084248,214.87246106856037 151.89548872201703,214.73255851416616 151.83458646619692,214.73255851416616 151.77368421084248,214.73255851416616 151.77368421084248,214.80250979494303 151.77368421084248,214.73255851416616 151.77368421084248,214.73255851416616 151.77368421084248,214.73255851416616 151.77368421084248,214.80250979494303 151.71278195502236,214.80250979494303 151.71278195502236,214.80250979494303 151.65187969920225,214.80250979494303 151.59097744408064,214.80250979494303 151.71278195502236,214.80250979494303 151.71278195502236,214.80250979494303 151.71278195502236,214.80250979494303 151.65187969920225,214.80250979494303 151.65187969920225,214.87246106856037 151.53007518826053,214.80250979494303 150.1293233083561,214.80250979494303 148.54586466168985,214.80250979494303 146.9624060150236,214.45275332266465 146.23157894751057,214.24289935670095 144.7090225564316,213.82319123845082 143.9172932333313,213.6832884772448 142.27293233084492,213.6832884772448 141.48120300774463,213.61333708610618 139.8368421054911,213.75323986110743 138.13157894741744,213.9630939720082 137.33984962431714,213.9630939720082 135.6954887220636,213.89314260869287 134.84285714291036,213.6832884772448 131.0060150376521,212.42416238383157 130.2142857145518,212.144356281613 127.96090225572698,211.58474374643993 127.35187969915569,211.51479214860592 124.91578947380185,211.09508241602452 123.51503759389743,210.46551735157846 122.72330827079713,210.04580699832877 121.20075187995099,209.2063855463639 119.80000000004657,208.716722574085" stroke="#4dd2ff" stroke-linecap="round" stroke-linejoin="round" stroke-width="0.5"><title>2020-12-08 1.1km</title></polyline><polyline fill="none" points="155.80000000004657,207.86025647685165 156.11153846164234,207.9198950806749 158.18846153863706,209.53013515484054 158.86346153868362,209.76868887530873 161.51153846178204,210.54398781689815 162.75769230769947,210.90181776235113 163.38076923089102,211.1403709416045 164.8346153846942,211.67711525131017 166.1326923079323,212.3331354270922 166.80769230797887,212.7506024411996 170.13076923089102,213.88372574094683 170.85769230802543,213.94336375046987 172.93461538478732,213.70481167687103 173.55769230774604,213.64517364359926 176.828846154036,213.70481167687103 177.50384615384974,213.7644497040892 179.52884615422226,214.36082965316018 181.60576923075132,214.53974352311343 182.22884615394287,214.4801055722055 183.57884615426883,214.53974352311343 185.6557692307979,214.2415537101915 186.27884615398943,214.18191573006334 187.57692307722755,214.06263975199545 188.20000000018626,214.00300175428856 187.94038461567834,213.52589755976805 186.48653846164234,213.46625950891757 185.86346153868362,213.52589755976805 184.56538461567834,213.88372574094683 184.09807692328468,214.00300175428856 182.74807692319155,214.30119168461533 182.125,214.36082965316018 180.82692307699472,214.36082965316018 180.15192307718098,214.2415537101915 178.85384615394287,214.00300175428856 178.23076923121698,213.8240877253702 176.20576923084445,213.46625950891757 175.53076923103072,213.46625950891757 174.18076923093759,213.52589755976805 173.45384615380317,213.52589755976805 172.10384615394287,213.64517364359926 170.75384615408257,213.70481167687103 169.45576923107728,213.64517364359926 168.20961538492702,213.34698338981252 167.58653846173547,213.16806916706264 166.23653846187517,212.7506024411996 165.61346153868362,212.5120498969336 164.36730769230053,212.09458271821495 162.70576923084445,211.6174770180951 162.23846153868362,211.55783877923386 160.99230769253336,211.25964749610284 159.27884615422226,210.72290281602181 158.8115384618286,210.36507276480552 157.7211538462434,209.76868887530873 157.1500000001397,209.4704967099242" stroke="#4dd2ff" stroke-linecap="round" stroke-linejoin="round" stroke-width="0.5"><title>2020-12-03 1.3km</title></polyline><polyline fill="none" points="43.85774647886865,252.85174972674577 44.14295774628408,253.90004823164782 44.199999999953434,254.2276411751518 43.2302816901356,254.817308066471 41.57605633791536,254.75178954889998 39.29436619696207,254.35867830732604 37.12676056311466,253.4414178393199 36.385211267508566,253.31038052606164 32.16408450691961,251.67241193179507 30.623943661805242,251.41033658164088 28.285211267415434,251.4758554289583 26.688028168631718,251.41033658164088 25.54718309850432,251.41033658164088 24.862676056101918,251.41033658164088 23.322535210987553,251.27929886814672 22.809154929360375,251.21378000173718 21.040845070267096,251.08274224895285 20.356338027864695,251.01722336321836 17.960563380038366,250.8206666666665 17.219014084199443,250.68962883658241 15.73591549298726,250.55859098071232 13.796478873351589,249.70684428757522 13.054929577279836,249.44476816238603 11.800000000046566,249.1826919335872 13.226056337822229,249.51028720336035 14.48098591552116,250.09995828161482 15.73591549298726,250.68962883658241 16.477464788593352,250.75514775473857 18.359859155025333,250.95170447067358 18.930281690089032,251.01722336321836 20.413380281534046,251.14826112851733 21.154929577140138,251.21378000173718 22.695070422487333,251.21378000173718 23.379577464889735,251.27929886814672 24.91971830977127,251.41033658164088 25.60422535194084,251.41033658164088 27.714788732118905,251.4758554289583 28.399295774521306,251.4758554289583 29.426056337775663,251.34481772815343 29.76830985909328,251.34481772815343 29.996478873072192,251.34481772815343 30.224647887051105,251.34481772815343 30.45281690103002,251.34481772815343 30.738028168911114,251.27929886814672 31.02323943632655,251.27929886814672 31.593661971623078,251.34481772815343 31.821830985834822,251.34481772815343 32.33521126769483,251.54137426958187 32.84859154908918,251.80344956781482 32.79154929565266,251.934487178165 32.79154929565266,252.0000059735612 32.734507041983306,252.0000059735612" stroke="#4dd2ff" stroke-linecap="round" stroke-linejoin="round" stroke-width="0.5"><title>2020-11-30 1.0km</title></polyline></svg>