<?xml version="1.0" encoding="utf-8" ?>
<svg baseProfile="full" height="300mm" version="1.1" viewBox="0,0,200,300" width="200mm" xmlns="http://www.w3.org/2000/svg" xmlns:ev="http://www.w3.org/2001/xml-events" xmlns:xlink="http://www.w3.org/1999/xlink"><defs /><rect fill="#222222" height="300" width="200" x="0" y="0" /><text fill="#FFFFFF" style="font-size:12px; font-family:Arial; font-weight:bold;" x="10" y="20">Over 3km Runs</text><text fill="#FFFFFF" style="font-size:4px; font-family:Arial" x="10" y="280">ATHLETE</text><text fill="#FFFFFF" style="font-size:9px; font-family:Arial" x="10" y="290">jdzj</text><text fill="#FFFFFF" style="font-size:4px; font-family:Arial" x="120" y="280">STATISTICS</text><text fill="#FFFFFF" style="font-size:3px; font-family:Arial" x="120" y="285">Number: 48</text><text fill="#FFFFFF" style="font-size:3px; font-family:Arial" x="120" y="290">Weekly: 3.2</text><text fill="#FFFFFF" style="font-size:3px; font-family:Arial" x="141" y="285">Total: 89.3 km</text><text fill="#FFFFFF" style="font-size:3px; font-family:Arial" x="141" y="290">Avg: 1.9 km</text><text fill="#FFFFFF" style="font-size:3px; font-family:Arial" x="167" y="285">Min: 1.0 km</text><text fill="#FFFFFF" style="font-size:3px; font-family:Arial" x="167" y="290">Max: 4.9 km</text><polyline fill="none" points="38.5,46.94168753933627 35.11913043493405,46.779881154128816 28.26347826095298,44.190972478245385 17.886086956830695,43.81342227233108 11.5,42.08747515414143 15.444347826298326,43.59767918050056 26.103478260803968,44.56852242356399 37.09130434785038,47.91252484585857 37.98347826092504,47.64284798910376" stroke="#4dd2ff" stroke-linecap="round" stroke-linejoin="round" stroke-width="0.5"><title>2021-05-25 1.1km</title></polyline><polyline fill="none" points="42.24342928675469,42.806986734154634 43.52753441804089,43.85497981894878 47.81914893607609,44.243124697648454 52.076971214148216,46.68842863096506 57.179599499329925,46.494357445219066 60.051939924946055,46.9601281301002 66.06695869832765,46.10621478690882 68.5,44.90297011297662 68.5,45.79570038439124 58.90300375467632,47.19301326581626 55.25344180234242,46.571985931077506 52.009386733407155,46.84368551056832 45.588861076394096,45.29111395814107 41.5,43.46683455735911" stroke="#4dd2ff" stroke-linecap="round" stroke-linejoin="round" stroke-width="0.5"><title>2021-05-24 1.6km</title></polyline><polyline fill="none" points="82.01744186040014,44.30131772873574 88.29651162773371,44.48162417355343 88.29651162773371,45.24792577076005 92.2994186046999,47.050983284338145 98.5,46.46499037265312 92.18168604653329,47.0960596310033 87.7078488371335,46.329761132539716 83.03779069753364,46.55514317721827 71.5,42.9039403689967" stroke="#4dd2ff" stroke-linecap="round" stroke-linejoin="round" stroke-width="0.5"><title>2021-05-21 1.1km</title></polyline><polyline fill="none" points="117.685870806803,58.5 118.64843722316436,57.5726886522898 118.33793192764279,56.645374926389195 118.83474040054716,52.329768222756684 120.6977721741423,51.68777274186141 121.10142905858811,50.72477738308953 123.33706718694884,51.259775121259736 127.93254556192551,50.617777740524616 127.77729291387368,48.54911175934831 126.22476643603295,45.19642106865649 123.11971348000225,40.845010195538634 120.8840753515251,38.7406205755542 117.31326445215382,36.63621870649513 112.25202813383657,35.92285936095868 110.38899636024144,35.17383053302183 107.65654975897633,35.56617916023242 104.24099150719121,33.533095296879765 103.58893038646784,31.5 102.06745443807449,32.035026186553296 102.16060602676589,33.1764127384522" stroke="#4dd2ff" stroke-linecap="round" stroke-linejoin="round" stroke-width="0.5"><title>2021-05-20 1.7km</title></polyline><polyline fill="none" points="131.62980769225396,42.68891965242801 131.5,39.93049467226956 137.27644230774604,38.8867636762443 158.0456730767619,39.33407713682391 158.5,49.4731112352456 157.26682692300528,50.36772536096396 146.7524038462434,49.4731112352456 145.45432692300528,50.36772536096396 137.4711538462434,51.11323632381391 132.86298076924868,50.44227649050299 131.8245192305185,49.547662452736404 131.8245192305185,41.794296437641606" stroke="#4dd2ff" stroke-linecap="round" stroke-linejoin="round" stroke-width="0.5"><title>2021-05-18 1.1km</title></polyline><polyline fill="none" points="161.5,45.91863367764745 162.55039787793066,46.905779877241 167.68302387266885,49.07200508596725 170.90583554375917,48.989743677462684 173.0782493368024,49.48331176335341 176.82625994691625,49.04458461920149 180.95623342180625,47.83808140299516 182.12599469488487,47.12514522334095 184.01193633954972,45.80895055021392 188.5,41.39416874811286 187.7838196286466,40.51668823664659 186.01724137936253,41.88775031856494 175.68037135282066,43.01201618020423 174.17639257281553,42.600699928967515 166.03580901853275,42.35390988612198 165.60610079567414,43.0394372419687 165.70159151195548,42.765226502524456 165.2241379310144,42.957174048555316 164.7228116709739,43.9991727003071 163.98275862063747,44.300803160091164 161.83421750657726,43.86206783761736 161.52387267898303,43.286226676253136" stroke="#4dd2ff" stroke-linecap="round" stroke-linejoin="round" stroke-width="0.5"><title>2021-05-10 2.5km</title></polyline><polyline fill="none" points="38.5,83.62218834881787 38.365560165955685,82.85007645117003 37.44688796682749,81.89780196425272 35.990456431522034,82.61844243636006 35.251037344452925,82.38680821593152 35.20622406643815,81.66616710406379 35.699170124484226,80.8425748248701 35.519917012541555,78.55194512906019 34.982157676364295,77.7798182280967 32.13651452283375,78.65489520991105 30.231950207496993,78.44899500766769 30.164730290533043,77.85703102100524 25.235269709606655,77.93424379112548 22.658506224048324,77.52244208665797 18.535684647387825,78.26883219741285 15.600414937827736,78.34604484558804 13.270124481408857,77.8312934259302 11.5,74.76850148165249 14.076763485558331,72.915366209083 15.219502074760385,71.65419717720943 17.572199170128442,70.44449870413519 17.86348547716625,69.56939418468392 20.350622406695038,68.46264014756889 22.748132780077867,66.8153696305526 21.7846473029349,67.8963920805545 19.11825726146344,69.05462544912007 16.608713692985475,66.84110831236467 15.017842323635705,66.37781165118213" stroke="#4dd2ff" stroke-linecap="round" stroke-linejoin="round" stroke-width="0.5"><title>2021-05-08 2.6km</title></polyline><polyline fill="none" points="68.5,70.33026879368117 68.32324058911763,72.20832648070063 63.02045826520771,72.51287573011359 62.225040916586295,73.98486122771283 54.04991816682741,72.1068100242992 49.80769230774604,72.46211753448006 48.261047463165596,73.32500618058839 42.25122749595903,72.00529354764149 41.5,73.22348994429922 47.774959083413705,75.45684251523926 56.878068739781156,76.37048395522288 68.32324058911763,79.66973120631883" stroke="#4dd2ff" stroke-linecap="round" stroke-linejoin="round" stroke-width="0.5"><title>2021-05-08 1.3km</title></polyline><polyline fill="none" points="98.5,74.54756295541301 97.81962864729576,74.91774513520068 93.80901856790297,73.43701444446924 93.16445623361506,74.01285478231148 89.08222811669111,72.44985772951622 86.4323607427068,73.68380325799808 80.66710875323042,74.05398620440974 76.97877984098159,72.86117331142304 73.25464190985076,73.51927739850362 71.96551724127494,73.31361998285865 71.5,72.65551557124127 77.48010610067286,72.90230484734639 80.98938992060721,74.46530020414502 86.71883289143443,74.30077465294744 98.28514588880353,77.55014227048378" stroke="#4dd2ff" stroke-linecap="round" stroke-linejoin="round" stroke-width="0.5"><title>2021-05-07 1.5km</title></polyline><polyline fill="none" points="101.62461538449861,80.18516462753178 101.5,79.46832878002897 103.49384615384042,78.79928102562553 104.32461538468488,76.7921321829781 114.75076923076995,70.57947557425359 118.0738461536821,71.53527411821415 118.8630769229494,72.586650324316 119.8184615385253,70.24494563540793 119.4446153845638,69.81483537243912 119.4446153845638,71.43969434921746 119.2369230769109,70.91400528058875 118.44769230764359,72.73001962917624 119.48615384614095,71.53527411821415 118.48923076922074,72.586650324316 119.02923076902516,70.81842538825003 118.6553846152965,72.68222986560431 119.56923076906241,71.86980316028348 121.27230769232847,72.1565421539708 123.80615384597331,71.24853475438431 126.13230769219808,71.34411456121597 128.5,72.73001962917624 126.9630769228097,71.67864373602788 125.09384615370072,71.43969434921746 120.73230769229122,72.4910707641684 118.5723076921422,71.10516500828089" stroke="#4dd2ff" stroke-linecap="round" stroke-linejoin="round" stroke-width="0.5"><title>2021-05-06 1.2km</title></polyline><polyline fill="none" points="138.23724007583223,77.46278438757872 139.41115311929025,74.94149654899957 147.7816635160707,68.72618315467844 151.30340264644474,64.97350962349446 155.94801512314007,62.510804736055434 157.73440453689545,64.21124491578666 158.5,81.5085494897794 157.53024574671872,76.3487282898277 143.4943289225921,84.0298094599857 139.81947069941089,80.51176934101386 132.92911153123714,84.26434472732944 131.5,86.66832587873796 132.98015122883953,87.48919526394457 137.3695652175229,83.3848369976622 139.00283553870395,79.63225605653133 138.08412098302506,78.28366649121745" stroke="#4dd2ff" stroke-linecap="round" stroke-linejoin="round" stroke-width="0.5"><title>2021-05-06 1.8km</title></polyline><polyline fill="none" points="177.8550913836807,70.82384493073914 180.28720626607537,70.09045673039509 180.53394255880266,69.3163232919469 177.71409921674058,68.17549235391198 178.06657963432372,68.25698038539849 177.6436031330377,68.70516426290851 179.72323759784922,69.5200427621894 181.5561357701663,69.23483547507203 180.95691905985586,71.88318108403473 182.78981723240577,70.86458868044429 182.71932114870287,71.63871914224 183.45953002618626,71.59797547079506 186.20887728454545,73.79812782708905 188.2180156656541,74.24630553697352 188.25326370750554,75.38711927455734 187.61879895534366,76.28347065809066 188.5,80.35776998128858 187.75979112274945,81.82450764605892 168.1618798954878,79.50217054301174 162.6984334201552,80.23554160146159 161.5,81.13188219236326 162.34595300257206,80.27628439894761" stroke="#4dd2ff" stroke-linecap="round" stroke-linejoin="round" stroke-width="0.5"><title>2021-05-02 1.6km</title></polyline><polyline fill="none" points="19.7708860761486,98.55801729654195 21.68481012666598,99.348454042105 24.008860759902745,97.37236067571212 33.236708860844374,95.8705263681477 37.33797468361445,97.53044832928572 38.5,100.29697707982268 37.064556962344795,108.20129086408997 25.44430379755795,112.31150237331167 12.320253164507449,114.12947363191051 11.5,112.78575615363661 17.17341772140935,96.50287800800288" stroke="#4dd2ff" stroke-linecap="round" stroke-linejoin="round" stroke-width="0.5"><title>2021-05-01 1.0km</title></polyline><polyline fill="none" points="54.37958048470318,103.89144496811787 52.743929035263136,106.50013982632663 50.31865274859592,101.47839281102642 50.43145629670471,99.65229327307316 52.405518390703946,96.58704311598558 55.50761596718803,95.28267691930523 63.516667891759425,95.41311365773436 68.19801514339633,91.5 62.27582886116579,95.67398705566302 48.344590654363856,93.78265252505662 47.160153397824615,94.36961900861934 44.84768065926619,99.32620352465892 44.05805582134053,111.45663092919858 43.099225661484525,114.58702669781633 41.97119017899968,115.0435414754902 41.8019848568365,118.5 42.70441324263811,118.04348767379997 43.099225661484525,115.89135377493221 44.622073562582955,98.93489560863236 46.652537430869415,96.91313425207045 47.498564042383805,97.43487972620642" stroke="#4dd2ff" stroke-linecap="round" stroke-linejoin="round" stroke-width="0.5"><title>2021-05-01 1.8km</title></polyline><polyline fill="none" points="94.35151710780337,102.54729372254224 93.41026468691416,102.70747328280413 91.87637185282074,103.80870433762902 90.01129761134507,103.72861500787258 89.68011620396283,104.12906134077639 89.73240800516214,103.74863734330575 88.47740477730986,104.16910593061766 85.51420271140523,103.78868200814759 83.77114267268917,103.98890521413705 83.24822466110345,103.70859267051856 81.34828921884764,104.06899444117153 77.06036152353045,104.16910593061766 72.78986442863243,103.72861500787258 71.5,104.82984052217216 71.58715300186304,105.21026249312854 76.6071659134468,106.1913474433677 77.1475145255099,106.03117063254467 78.14105874759844,106.55174480551796 80.79051000642357,106.59178891735792 82.44641704321839,107.2324936324294 83.16107165906578,107.01225161476759 85.04357650096063,107.45273541120696 85.51420271140523,107.81313053362828 86.68205293739447,107.95328401951701 86.99580374429934,107.71302084159106 87.84990316332551,108.11345931352116 88.9131697868579,107.93326209892984 90.69109102641232,108.45383139346086 90.84796642995207,107.97330593819788 91.23143963847542,107.93326209892984 91.94609425426461,108.31367825318011 92.19012265978381,107.73304278393334 93.23595868301345,107.17242765137053 94.49096191086574,105.91103794146329 95.88540994183859,105.37043995175918 96.61749515816336,104.4894623648579 97.83763718529372,104.10903904291627 98.5,103.18801120518765 98.15138799225679,102.1268217752804 97.6110393802519,101.54616860652459 96.51291155582294,102.24695670625078 94.83957391860895,102.14684426873282 94.73499031632673,102.78756301557587 92.38185926398728,103.94886058874545 92.86991607490927,104.4093733037007 93.20109748223331,104.1891282225406 94.3340865073842,105.05008490809996 95.27533892838983,104.90992941746663 95.3450613298919,104.66966263690847" stroke="#4dd2ff" stroke-linecap="round" stroke-linejoin="round" stroke-width="0.5"><title>2021-04-30 3.7km</title></polyline><polyline fill="none" points="128.28672985779122,103.23623378251796 126.58056872035377,105.68592113841441 125.64218009449542,105.83290199568728 116.34360189572908,103.28522764809895 108.06872037914582,103.23623378251796 109.17772511858493,104.16711640084395 101.5,101.86440358625259 107.64218009449542,104.02013505066861 117.45260663493536,104.95101620003697 127.56161137414165,108.13559641374741 128.5,107.93962283618748 127.22037914698012,107.49868200431229" stroke="#4dd2ff" stroke-linecap="round" stroke-linejoin="round" stroke-width="0.5"><title>2021-04-29 1.4km</title></polyline><polyline fill="none" points="141.87571428576484,104.33554940490285 144.07428571442142,102.60747186263325 143.3028571428731,101.23386702072457 144.6528571427334,100.79076778833405 153.87142857140861,91.97300212824484 154.95142857148312,91.84006966266315 158.5,95.91664737128303 153.9871428569313,98.84112597076455 154.488571428461,98.88543610589113 151.6728571425192,101.94282488318277 152.86857142834924,101.49972635036102 153.1385714286007,100.48059806539095 151.78857142850757,101.58834609185578 145.34714285703376,109.38681485856068 140.98857142869383,111.95673512283247 138.01857142848894,114.57094926701393 137.82571428571828,116.25467235324322 135.39571428578347,118.15993033730774 133.39000000013039,117.14083986292826 131.5,114.43802349138423 131.6542857142631,111.82380857339012 134.31571428570896,110.58315888041398 135.28000000002794,109.07665107343928 137.9414285714738,107.92461228143657 138.4428571430035,106.77257053373614 139.75428571435623,106.01931086977129 140.14000000013039,104.6900260274997 141.14285714295693,103.93676287005655 142.26142857130617,104.20262059936067 142.49285714281723,103.36073724998278" stroke="#4dd2ff" stroke-linecap="round" stroke-linejoin="round" stroke-width="0.5"><title>2021-04-26 2.2km</title></polyline><polyline fill="none" points="177.42964901856612,113.72947800598922 178.16590629715938,112.71446476058918 179.01996473991312,102.05664420773974 181.9060932713328,91.5 179.255567069049,101.8874697809515 177.1645963982446,102.86868029402103 174.1312164113624,102.6656714527926 170.98003525985405,103.13935856189346 169.3308189562522,104.15440016260254 168.18225760187488,105.77846047110506 168.0939067285508,115.72566195391119 169.4191698296927,118.16166729407269 170.30267856363207,118.5 170.89168438641354,118.19550057966262 174.07231582922395,115.52266072752536 175.16197660111357,116.26699797008769 176.22218708205037,115.488827178051 176.4283391200006,114.60915372084128" stroke="#4dd2ff" stroke-linecap="round" stroke-linejoin="round" stroke-width="0.5"><title>2021-04-25 2.2km</title></polyline><polyline fill="none" points="26.043288799584843,148.5 25.247094715712592,142.57028896175325 25.686374210286885,139.19535109811113 25.247094715712592,132.9185027051426 25.65891924186144,121.97315048170276 25.329459620988928,121.5 24.643085410702042,121.97315048170276 23.956711200415157,133.13929845957318 24.231260884553194,144.11580935536767 25.329459620988928,144.4312207622861 25.41182452614885,144.14735051008756 25.549099368276075,138.753767806018 25.1921847788617,142.94878444314236" stroke="#4dd2ff" stroke-linecap="round" stroke-linejoin="round" stroke-width="0.5"><title>2021-04-18 2.2km</title></polyline><polyline fill="none" points="68.5,138.84329710557358 63.66475644684397,138.35455802554497 49.0429799426347,133.95588244483224 42.58309455565177,133.33384404791286 41.5,132.62294197097071 49.197707736166194,132.53407913257251 50.899713466875255,131.15670289442642 54.226361031411216,132.66737338370876" stroke="#4dd2ff" stroke-linecap="round" stroke-linejoin="round" stroke-width="0.5"><title>2021-04-16 1.0km</title></polyline><polyline fill="none" points="98.5,137.16544545063516 97.70920502085937,137.37630865129177 97.38441422593314,136.71127763851837 96.81956066942075,136.4841932621057 96.0993723848951,136.66261672708788 95.84518828446744,136.45175261124677 95.49215481168358,135.96514208130247 96.11349372385303,134.86215288248786 95.9016736401245,134.05112669288064 95.47803347278386,133.87270039442228 92.18776150629856,134.09978837710514 89.37761506275274,133.85647981220973 88.00784518831642,134.1808911520493 87.42887029290432,133.95380328134343 86.49686192470836,134.05112669288064 86.27092050213832,133.85647981220973 84.43514644348761,134.06734725587012 83.78556485357694,133.84025922839646 83.03713389125187,134.05112669288064 82.28870292886859,133.74293569203292 80.70711297076195,134.034906128305 79.4079497908242,133.51584721657855 78.3347280335147,133.6456120981311 77.72751046030317,132.8994626309286 76.62604602507781,132.9643453276658 75.62343096232507,132.6561522900156 75.21391213394236,132.85080059153552 74.64905857742997,132.29929647214885 73.8158995815902,132.59126947163895 72.60146443516714,132.18575127677468 71.89539748959942,132.55882805289002 72.38964435155503,132.20197202375857 72.50261506275274,132.75347646955925 71.5,132.70481438699062 72.34728033473948,132.39662086291355 71.93776150635676,132.49394519609632 72.37552301259711,132.4615037581243 72.02248953975504,132.60749017864873 72.24843096238328,132.85080059153552 72.00836820085533,132.6561522900156 72.34728033473948,132.54260734103445 72.24843096238328,132.36417940571846 71.96600418409798,132.4615037581243 72.06485355651239,132.70481438699062 72.50261506275274,132.52638662765094 72.29079497908242,132.44528303669358 72.2625523013412,132.67237299059343 72.37552301259711,132.38040013515274 72.22018828458386,132.67237299059343 72.31903765688185,132.44528303669358 72.38964435155503,132.6237108840287 72.17782426782651,132.03976448181493 72.30491631804034,132.4615037581243 72.23430962342536,132.18575127677468 72.2625523013412,132.4615037581243 71.9801255229977,132.2506342551642 72.07897489547031,132.1046475177718 72.17782426782651,132.2506342551642 71.96600418409798,132.33173794214963 72.24843096238328,132.47772447788157 72.02248953975504,132.34795867474168 72.29079497908242,132.1046475177718 72.09309623437002,132.44528303669358 71.86715481174178,132.44528303669358 72.09309623437002,132.02354371879483 71.8812761506415,132.16953052819008 72.22018828458386,132.4615037581243 71.9801255229977,132.31551720792777 72.02248953975504,132.4615037581243 72.09309623437002,132.33173794214963 72.16370292886859,133.01300733347307 72.02248953975504,134.53774288666318 73.39225941424957,134.8297119117051 73.50523012556368,135.089239498775 74.73378661094466,134.97569622984156 75.43985355651239,135.23522358651098 81.07426778244553,135.4785301114316 86.63807531388011,136.19222717446974 89.30700836819597,136.28954926127335 90.4932008368778,136.54907454446948 91.86297071131412,137.24654671369353 94.00941422587493,137.00324280455243 94.23535564856138,137.39252888633928 94.53190376568818,137.26276696148852 96.55125523015158,137.68449284293456 96.90428870293545,137.97645628120517 97.53974895400461,137.830474626855 97.73744769877521,137.23032646426873 98.3023012552294,137.00324280455243" stroke="#4dd2ff" stroke-linecap="round" stroke-linejoin="round" stroke-width="0.5"><title>2021-04-09 4.9km</title></polyline><polyline fill="none" points="127.95496894442476,136.44471134166815 119.48602484492585,133.98871357101598 118.52173913060687,133.0737308509415 112.56832298170775,133.5553009174473 108.25000000023283,133.1218878790387 109.04658385110088,133.60345789804705 108.66925465851091,133.79608577254112 101.5,132.15874641618575 107.45341614913195,133.94055662854225 116.00621118023992,134.66291026771069 127.87111801258288,137.84125358381425 126.27795031084679,137.2152179002005 128.5,136.92627808329416 127.91304347827099,136.20392779266695" stroke="#4dd2ff" stroke-linecap="round" stroke-linejoin="round" stroke-width="0.5"><title>2021-04-09 1.4km</title></polyline><polyline fill="none" points="132.57386363646947,133.50223745114636 133.87784090917557,134.60354574551457 143.31250000023283,138.21581789135234 147.4928977272939,138.0396101717488 151.1363636367023,138.788492499938 157.8863636367023,138.0396101717488 158.5,137.29072658804944 155.7769886367023,136.5858938328456 152.5170454545878,137.2466745733982 149.1420454545878,135.96916425964446 146.34232954564504,136.18942491928465 141.5866477272939,133.76655168936122 140.97301136376336,132.6211888602993 138.25000000023283,131.56392825720832 136.17897727293894,131.2115075000911 131.5,132.3568739441107" stroke="#4dd2ff" stroke-linecap="round" stroke-linejoin="round" stroke-width="0.5"><title>2021-04-08 1.4km</title></polyline><polyline fill="none" points="188.3246753248386,136.12775079283165 188.5,137.05411077366443 186.22077922080643,137.0943872469943 180.18961038975976,135.0402820468007 171.07272727275267,134.597238393937 166.26883116876706,132.9056127530348 161.5,133.63059602869907 166.02337662340142,133.10699712540372 170.82727272738703,134.55696167447604 179.7688311689999,134.95972869111574" stroke="#4dd2ff" stroke-linecap="round" stroke-linejoin="round" stroke-width="0.5"><title>2021-04-06 1.3km</title></polyline><polyline fill="none" points="19.745508981868625,160.9457708785194 23.14071856276132,159.88541559164878 24.541916167596355,161.00814466172596 24.541916167596355,162.19324533944018 23.625748503021896,162.69223441329086 25.242514970013872,164.4386929749744 26.913173652486876,164.62581324036 29.068862275220454,163.62783783260966 31.494011976057664,160.57152804534417 33.64970059879124,161.38238722848473 35.42814371269196,160.32203269645106 38.44610778428614,160.6962756817229 38.44610778428614,156.89146135671763 38.12275449116714,159.19930237036897 36.34431137726642,158.88743247062666 38.5,159.26167633139994 38.39221556880511,160.88339708879357 33.7574850297533,161.32001348305494 31.494011976057664,160.50915421778336 27.829341317294165,165.12480033526663 28.691616766620427,164.37631954066455 24.64970059879124,164.31394609995186 23.841317364946008,162.94172879809048 25.02694610785693,162.94172879809048 24.919161676662043,162.3179926458979 23.51796407182701,159.82304169406416 22.92514970037155,160.6962756817229 21.73952095792629,160.57152804534417 20.23053892189637,163.8149583453196 15.218562874011695,166.43463952775346 13.60179640701972,169.42854717787122 13.386227544629946,167.1207446550252 12.95508982008323,170.0522760989843 12.577844311250374,168.6800716354628 12.95508982008323,169.61566592089366 12.631736526731402,168.8048176226439 14.841317365178838,169.9275303655304 16.61976047884673,172.609558043594 18.93712574825622,172.422440214199 19.58383233519271,171.11261380888755 18.182634730357677,170.48888596630422 19.422155688516796,170.48888596630422 18.829341317294165,171.23735930153634 18.290419161319733,170.73837717954302 18.93712574825622,171.48685021017445 19.098802394932136,170.8631227480946 19.368263473035768,172.29769496276276 18.452095807995647,173.10853864328237 15.488023951882496,172.85904839425348 12.739520957693458,169.61566592089366 13.224550897954032,166.80887878325302 13.54790419130586,169.05430952075403 11.5,170.23939465155127 12.09281437122263,169.2414283779217 11.715568861924112,170.48888596630422 13.224550897954032,169.42854717787122 13.440119760343805,166.68413239018992" stroke="#4dd2ff" stroke-linecap="round" stroke-linejoin="round" stroke-width="0.5"><title>2021-04-05 1.9km</title></polyline><polyline fill="none" points="62.733794684987515,172.10341087402776 61.675001365016215,172.6364659423416 62.089311794610694,171.9967997299682 62.825863669393584,171.9967997299682 62.986984391813166,171.5437018830562 62.15836353285704,176.47443036714685 60.38603558414616,177.75373932847288 60.29396659974009,178.5 60.22491486161016,177.75373932847288 62.22741527110338,176.5543873605202 62.89491540763993,173.9424462687748 63.35526032932103,169.78460868593538 62.20439802494366,168.95836385842995 59.71853544760961,168.50526074811933 58.245431698160246,169.65134356773342 55.16112072265241,170.53089209322934 49.544912677491084,173.91579367421218 48.53215384972282,172.2899802714819 47.358274299418554,172.79638225099188 46.805860393331386,172.58316048438428 43.58344594121445,158.7500269431912 43.39930797251873,156.21787125550327 45.033532444620505,163.6276893276954 45.53991185850464,163.84091839494067 51.45534410269465,161.1488886642328 56.012758827768266,159.6829202270601 58.86689734249376,158.08367256019847 62.8718981614802,154.85849335137755 65.24267450836487,151.5 66.60069202748127,152.19302596943453 66.43957130482886,152.40626435974264 65.88715739874169,152.2196807777218 66.2093988439301,151.95313257249654 66.2093988439301,152.37960957048927 66.3475023205392,151.6599292329047 65.56491595355328,151.89982289876207" stroke="#4dd2ff" stroke-linecap="round" stroke-linejoin="round" stroke-width="0.5"><title>2021-04-05 3.7km</title></polyline><polyline fill="none" points="78.31308411201462,155.2103965000133 82.60280373785645,158.61973999917973 86.13551401905715,168.45806303771678 86.2196261677891,173.42589063744526 88.15420560725033,173.03625803388422 90.08878504671156,174.7896034999867 94.46261682221666,171.57513435458532 98.5,172.64662527100882 90.25700934557244,170.69845907430863 90.25700934557244,173.91293116903398 90.67757009342313,169.432148916414 90.50934579409659,174.10774731216952 90.76168224262074,172.54921705560992 87.39719626121223,173.23107435565908 89.66822429932654,171.76995097420877 90.845794392284,173.91293116903398 88.7429906539619,172.54921705560992 90.25700934557244,172.15958409424638 89.92056074785069,174.01033924537478 90.845794392284,174.01033924537478 89.75233644852415,172.06217582896352 91.68691588751972,174.4973794791731 89.75233644852415,172.7440334765124 89.92056074785069,171.1855009960709 91.35046728979796,173.42589063744526 90.0046728970483,171.2829093504115 87.73364485986531,171.1855009960709 86.72429906530306,173.71811498625902 86.9766355138272,172.4518088303157 82.68691588798538,169.23733182030264 84.3691588784568,163.0031637659995 82.68691588798538,163.6850278780912 82.77102803764865,161.15238729520934 77.80841121450067,158.4249206984532 71.5,159.00937848177273 75.03271028026938,160.2757024524617 76.21028037369251,163.58761874877382" stroke="#4dd2ff" stroke-linecap="round" stroke-linejoin="round" stroke-width="0.5"><title>2021-04-04 1.4km</title></polyline><polyline fill="none" points="118.16759776556864,152.9137280768482 109.79608938563615,156.72593444224913 101.72625698335469,166.08309806726174 109.34357541939244,174.48713224026142 113.79329608939588,169.46204931195825 118.99720670422539,167.29605642065872 119.14804469328374,164.43693762167823 123.97486033523455,160.88468614366138 116.88547486020252,151.87403255852405 110.92737430194393,155.8595253583626 101.5,166.60293756675674 109.19273743033409,173.5341014813166 113.71787709509954,168.24909395119175 121.1089385477826,167.03613691445207 123.29608938563615,165.38997825584374 124.42737430194393,161.05796703702072 124.1256983242929,160.27820274728583 123.22067039133981,162.01101133896736 120.58100558677688,163.31061553861946 120.50558659248054,162.5308532496565 128.5,157.24577948241495 125.5586592182517,155.6862434389186 122.4664804469794,151.87403255852405 120.73184357536957,154.73319227073807 115.45251396670938,152.4805217604153 105.04469273751602,161.8377306337352 101.80167597765103,166.42965776781784 109.34357541939244,173.5341014813166 113.79329608939588,168.85557184100617 114.47206703945994,169.3754096989869 112.58659217879176,171.97459437139332 122.91899441368878,174.14057572046295 126.2374301678501,178.12596744153416 119.22346368711442,165.3033382408903 119.97765363147482,162.9640546067385 123.67318435804918,159.84500006528106 119.60055865952745,157.3324202922522 117.3379888269119,153.00036931439536 115.7541899443604,152.39388047158718 114.39664804469794,153.34693417925155 115.075418994762,153.95342236361466" stroke="#4dd2ff" stroke-linecap="round" stroke-linejoin="round" stroke-width="0.5"><title>2021-04-02 3.1km</title></polyline><polyline fill="none" points="148.06382978719193,175.4343305611983 144.9042553191539,174.3345724202518 138.9441489361925,174.22459636750864 132.48138297873084,173.37228048761608 131.9308510639239,172.8498920472921 131.5,170.23793516049045 132.12234042549971,169.74303530808538 133.41489361703862,169.68804638125584 132.24202127661556,166.03125840533176 132.5292553191539,161.08214564228547 134.32446808519308,158.52506961475592 135.0425531915389,156.7928434922942 138.46542553184554,154.4281999762752 139.85372340434697,155.94047430498176 141.14627659576945,156.21543239211314 141.81648936169222,157.01280931095243 144.64095744676888,157.01280931095243 148.99734042549971,157.70020137538086 151.10372340423055,158.80002515210072 154.5984042553464,161.90700387241668 157.9015957445372,167.62595379757113 157.99734042549971,168.36830888519762 157.23138297861442,169.028178414359 156.92021276592277,170.07296864059754 157.59042553184554,170.0454742111324 158.5,172.38249103396083 157.9015957445372,173.6197273019061 155.8191489360761,174.00464413187 155.3164893615758,174.63700634156703 154.14361702115275,174.05963220700505 153.64095744676888,174.27958439930808 152.39627659565303,173.89466794897453 151.79787234030664,175.5718000237248 151.60638297861442,175.37934275722364" stroke="#4dd2ff" stroke-linecap="round" stroke-linejoin="round" stroke-width="0.5"><title>2021-04-02 3.2km</title></polyline><polyline fill="none" points="164.32891246699728,162.71723626583116 173.46021220157854,166.78919727093307 178.40185676398687,166.74806655038265 181.40981432353146,167.44728824673803 185.45623342180625,166.4601513936359 188.5,166.50128214235883 181.62466843496077,167.40615759126376 178.61671087541617,166.7069358259323 173.74668435007334,166.953720112273 167.44429708225653,165.14396528797806 161.5,162.55271175326197" stroke="#4dd2ff" stroke-linecap="round" stroke-linejoin="round" stroke-width="0.5"><title>2021-04-01 1.4km</title></polyline><polyline fill="none" points="11.5,191.59926042420557 14.549099836265668,194.6954673033033 18.128477904945612,195.45682679719175 22.32651391159743,197.63938443706138 28.07119476282969,197.5378703335009 31.252864157082513,198.40073957582354 38.5,197.5378703335009 33.418166939402,198.29922562243883 27.275777413975447,197.3855991406017 21.796235679183155,197.63938443706138 13.576923076761886,195.40606953256065 12.73731587571092,194.94925392634468 13.709492635214701,194.5431952692743" stroke="#4dd2ff" stroke-linecap="round" stroke-linejoin="round" stroke-width="0.5"><title>2021-03-29 1.2km</title></polyline><polyline fill="none" points="54.50763466744684,208.5 53.24936770671047,201.4047617338947 52.37405155971646,201.15360141260317 48.10688534518704,195.00014268804807 45.26210786867887,194.74897984799463 54.12468385323882,181.5 57.07887584809214,183.32096613023896 62.87784531945363,189.22337237704778 62.27606546878815,193.43037331756204 64.7378921310883,207.8721059873933 56.91475407057442,202.6605618582107 54.06997659383342,202.09545210778015 53.79644029820338,203.28846099448856" stroke="#4dd2ff" stroke-linecap="round" stroke-linejoin="round" stroke-width="0.5"><title>2021-03-28 1.4km</title></polyline><polyline fill="none" points="84.66769230784848,190.10942592195352 86.20461538457312,191.01598240912426 86.57846153830178,190.25256653287215 88.07384615391493,190.157139463583 88.40615384629928,189.3937222318491 88.8630769229494,189.91857170814183 89.56923076929525,189.3937222318491 91.77076923055574,190.63427462166874 93.05846153851599,189.68000383497565 96.8384615383111,190.82512855296955 96.58923076931387,189.87085814285092 98.37538461526856,190.0617123756092 97.046153845964,189.58457665276364 97.37846153834835,188.8211585173267 97.46153846150264,189.87085814285092 97.25384615384974,189.3937222318491 96.79692307696678,190.01399882443366 96.87999999988824,189.2505813666503 97.46153846150264,190.0617123756092 96.8384615383111,189.87085814285092 98.08461538469419,189.72771741898032 98.08461538469419,190.20485300049768 97.5446153844241,189.5368630544981 96.67230769223534,190.01399882443366 98.4169230768457,189.72771741898032 97.87692307680845,189.29829499311745 97.7107692307327,190.7297015967779 96.96307692304254,190.10942592195352 96.87999999988824,190.63427462166874 97.9184615383856,189.9662852686888 97.46153846150264,190.01399882443366 98.5,191.30226305214455 98.37538461526856,189.91857170814183 97.75230769230984,190.01399882443366 98.08461538469419,190.68198811152251 97.17076923092827,190.96826895224513 97.046153845964,190.4434206149308 96.54769230773672,191.1591227517929 94.80307692289352,190.92055549059296 94.80307692289352,189.9662852686888 95.21846153843217,198.1729476553155 90.52461538463831,199.22262698729173 86.70307692303322,197.98209662307636 86.99384615384042,198.602362202917 85.83076923084445,197.98209662307636 79.1015384614002,197.64810713526094 75.7369230769109,198.65007490682183 75.4461538461037,200.36772911532898 74.65692307706922,200.9879916361242 71.95692307688296,201.1788414827024 71.5,200.4154416451056" stroke="#4dd2ff" stroke-linecap="round" stroke-linejoin="round" stroke-width="0.5"><title>2021-03-26 1.5km</title></polyline><polyline fill="none" points="104.35365853691474,193.28908159493585 112.9146341466112,196.78296138744918 115.92508710816037,196.56684608149226 118.5592334496323,197.14315327999066 122.3536585366819,196.38674989546416 123.85888501745649,196.56684608149226 128.5,194.90995782002574 124.39198606286664,196.56684608149226 119.09233449492604,196.99907656561118 116.30139372847043,196.42276913978276 113.19686411181465,196.67490375047782 106.51742160285357,195.0540353585675 101.5,192.85684672000934" stroke="#4dd2ff" stroke-linecap="round" stroke-linejoin="round" stroke-width="0.5"><title>2021-03-26 1.6km</title></polyline><polyline fill="none" points="158.5,197.39574562490452 156.43718166393228,197.13247799157398 153.36587436310947,195.18429346877383 150.75297113740817,195.23694719810737 146.99405772495084,193.76264081668342 137.82597623066977,194.0259101120173 139.20118845487013,194.71040967211593 138.65110356523655,194.8683709843317 131.5,192.60425437503727 137.27589134103619,194.81571721867658 145.48132427828386,195.34225464100018 152.49490662128665,197.02717090176884" stroke="#4dd2ff" stroke-linecap="round" stroke-linejoin="round" stroke-width="0.5"><title>2021-03-24 1.1km</title></polyline><polyline fill="none" points="188.5,196.98045260098297 186.555706521729,196.85404130007373 184.64809782616794,195.42137727636145 181.60326086962596,194.91573000318022 179.10869565233588,193.77802145073656 171.47826086962596,193.94657105699298 172.13858695677482,194.6629061421845 166.1589673915878,193.01954739898792 161.5,193.60947177780326 163.33423913037404,193.8622962621157 166.305706521729,193.06168488171534 171.8084239133168,194.74718077926082 181.82336956541985,195.16855371458223" stroke="#4dd2ff" stroke-linecap="round" stroke-linejoin="round" stroke-width="0.5"><title>2021-03-23 1.3km</title></polyline><polyline fill="none" points="37.96143617015332,226.34032829705393 28.87765957438387,223.16479310847353 25.17952127661556,223.78340575075708 21.51728723407723,223.37099742420833 22.52260638284497,224.0308505515568 22.12765957438387,224.15457289706683 16.34707446792163,222.42245672934223 11.5,223.12355223300983 15.98803191492334,222.50493861435098 21.40957446815446,224.0720913373807 28.59042553184554,224.56698045079247 38.5,227.57754327062867 36.88430851045996,226.7939742123708 38.5,226.34032829705393" stroke="#4dd2ff" stroke-linecap="round" stroke-linejoin="round" stroke-width="0.5"><title>2021-03-22 1.6km</title></polyline><polyline fill="none" points="64.49234889051877,211.66696286508522 64.86419280793052,211.92771207584883 64.65761285379995,212.75736678148678 66.53749043610878,213.0418191668141 67.0332823258359,213.4447928055597 66.86801836267114,214.17962535582774 67.61170619726181,214.6774138768087 68.5,216.21818136313232 67.96289211930707,217.64041954364802 67.17788829375058,217.97227391318302 66.88867635803763,218.8256116255361 63.06694720732048,222.1441184944124 58.85271614382509,223.77965152416436 57.53060443745926,224.63296870570048 56.51836266263854,225.4862828705518 53.56426931906026,229.56318669089524 41.5,238.33303713492933" stroke="#4dd2ff" stroke-linecap="round" stroke-linejoin="round" stroke-width="0.5"><title>2021-03-21 1.3km</title></polyline><polyline fill="none" points="83.73930905794259,222.65431547551998 83.39659695723094,220.4628218654252 81.0465711238794,217.5408042424533 80.09187312901486,217.2598394350207 76.86058760806918,220.20995613664854 73.65378152288031,224.28387675297563 72.845960142673,224.5086430964584 71.96470045519527,226.89677457942162 73.45794603682589,229.032028183894 77.00746422261,230.7177434452169 80.85073563770857,233.83629046773422 80.63042071578093,234.00485960778315 81.14448886690661,233.94866990548326 80.67937958752736,233.69581610852038 81.26688604569063,234.67913517341367 82.56429614126682,236.22434401192004 87.48466273001395,238.5 90.03052404953633,238.24715022931923 96.0279858118156,234.06104929899448 96.83580719213933,232.37535375673906 98.03529954468831,226.98106120841112 96.83580719213933,224.90198377234628 92.35607044724748,220.77187967445934 87.50914216588717,214.67495024375967 83.91066510824021,211.5 79.87155820708722,217.11935692763655 80.60594128014054,217.20364644034998 81.60959814640228,218.13082943920745 83.56795300764497,220.63139889360173 83.54347357188817,221.41809037700295" stroke="#4dd2ff" stroke-linecap="round" stroke-linejoin="round" stroke-width="0.5"><title>2021-03-20 3.7km</title></polyline><polyline fill="none" points="125.83990147779696,231.79852100237622 116.61822660081089,228.8448868917476 106.86453201971017,228.53933757098275 101.63300492614508,227.4189885148371 101.5,225.58568481527618 102.25369458133355,224.7708810813201 101.54433497553691,223.395896864502 101.72167487675324,221.00239708510344 104.51477832510136,218.20147899762378 109.12561576371081,218.76166383081 113.8251231526956,220.34036327208742 122.69211822655052,220.1366603898059 127.43596059107222,219.37277386462665 128.01231527072378,218.7107379619556 127.16995073878206,220.6459174452175 126.63793103443459,227.21528842530097 127.0812807881739,230.57632962657954 128.5,230.83095306847827" stroke="#4dd2ff" stroke-linecap="round" stroke-linejoin="round" stroke-width="0.5"><title>2021-03-19 1.6km</title></polyline><polyline fill="none" points="142.4419953597244,224.7241834859742 148.30974477971904,227.2426167684025 150.5858468679944,227.09870699765452 152.56960556854028,227.53043605438143 154.6577726219548,227.07472202762438 155.7645011601271,227.1706618936878 158.5,226.3551718256931 153.4257540605031,227.50645112684288 150.81554524379317,227.09870699765452 147.89211136905942,227.21863181254594 136.2192575406516,223.50093505275436 131.5,222.9972427329194 132.5232018561801,223.14115493069403 131.83410672855098,222.85333044989966 132.042923433939,222.73340348235797 133.62993039446883,222.8293450611527 135.7389791184105,222.46956394561857 136.44895591656677,222.9972427329194 136.8665893272264,222.73340348235797 137.36774941999465,223.21311099771992 137.80626450118143,223.0691988425242 138.3700696056476,223.54890569548297 139.08004640380386,223.2850670433836 140.54176334117074,224.3404199340148 140.83410672855098,223.98064105407684 140.0823665894568,222.85333044989966 139.79002320196014,222.87731583633285 139.89443155459594,223.69281756679993 141.2517401392106,224.36440517377923 141.81554524379317,223.02122810516448 142.12877030181699,223.66883226085338 142.5464037123602,223.59687632865098 142.1078886311734,223.71680287044728 142.35846867761575,223.6448469524621 141.75290023209527,222.8053596700338 142.6508120651124,222.73340348235797" stroke="#4dd2ff" stroke-linecap="round" stroke-linejoin="round" stroke-width="0.5"><title>2021-03-19 3.1km</title></polyline><polyline fill="none" points="172.86185962153831,238.5 172.71021845994983,238.02971275118762 172.42210025299573,237.9774585351406 171.9975050004432,238.3780737964844 172.51308494986733,235.43440133267723 172.31595143978484,236.1485512315412 172.40693613677286,237.45491552402382 172.11881792976055,237.68135101867665 170.48109338455833,237.6465148076095 170.28395987441763,236.60142528064898 170.42043691989966,235.67825772045762 174.39343535364605,234.7899221154221 177.06231979769655,234.61573813950235 176.97133510076674,217.77133590234735 177.8660179541912,216.62160766593297 179.71604012564057,214.98410300788237 179.38242957007606,214.14792455772113 177.12297626235522,211.5" stroke="#4dd2ff" stroke-linecap="round" stroke-linejoin="round" stroke-width="0.5"><title>2021-03-18 2.7km</title></polyline><polyline fill="none" points="20.657078114396427,266.2720108326612 21.412988984549884,266.40306984627387 21.52708873845404,267.04198105671094 21.812338123389054,267.2058040481206 23.352684802026488,267.5170672866807 25.349430496513378,267.336862324868 26.732890013430733,267.73003653480555 28.016512245638296,268.5 28.34454903821461,267.4679204982822 28.159136938105803,263.0937980911549 29.342921885545366,262.9791191750119 27.645688045187853,262.50401996453 26.005504081840627,262.42210617019737 25.278118150308728,261.6357316889771 23.837608756381087,246.74306192847143 25.406480373523664,244.90800908749225 26.51895297470037,244.2690127123351 25.72025469696382,242.84355039751972 24.35105764924083,241.5" stroke="#4dd2ff" stroke-linecap="round" stroke-linejoin="round" stroke-width="0.5"><title>2021-03-17 2.8km</title></polyline><polyline fill="none" points="42.40957446815446,253.5428993329988 42.74468085099943,253.5428993329988 44.42021276592277,254.25771734368755 44.89893617015332,254.86256263690302 49.87765957438387,256.2372085903189 55.14361702115275,256.95202314679045 56.9148936169222,256.8420517363702 58.15957446815446,257.11698022211203 58.78191489353776,257.33692291303305 61.27127659553662,257.72182241349947 63.32978723407723,258.5466061629122 64.0,258.7115627663443 65.14893617038615,259.3164032281493 66.10638297884725,259.9212430336629 66.48936170223169,260.03121383691905 66.92021276592277,260.2511553784134 67.97340425522998,260.5260821832344 68.5,260.4710968331783 68.45212765969336,260.4710968331783 68.45212765969336,260.4710968331783 68.30851063854061,260.5260821832344 68.40425531915389,260.4710968331783 68.45212765969336,260.4710968331783 68.5,260.5260821832344 68.21276595722884,260.4710968331783 67.59042553184554,260.4710968331783 65.48404255299829,260.5260821832344 64.04787234053947,260.08619923051447 62.65957446815446,259.8112722088117 61.27127659553662,259.70130136219086 59.88297872338444,259.75628678809153 59.16489361715503,259.8112722088117 57.77659574477002,259.9212430336629 57.15425531892106,259.9212430336629 55.0,259.75628678809153 54.32978723407723,259.5913304936839 53.0372340423055,259.2614177586511 52.36702127661556,258.93150482838973 51.07446808507666,258.4916206173948 50.40425531915389,258.27167838194873 47.67553191492334,257.72182241349947 45.90425531915389,257.007008843997 45.76063829776831,256.6770945797325 46.33510638284497,256.5671231148881 46.57446808507666,256.5671231148881 46.76595744676888,256.3471801203559 46.57446808507666,256.29219435801497 46.09574468061328,256.18222281726776 45.85638297861442,256.1272370388615 45.71276595746167,256.0722512549255 45.42553191492334,256.0722512549255 45.23404255323112,255.96227967075538 44.99468085099943,255.96227967075538 44.75531914876774,255.96227967075538 44.42021276592277,255.8523080649902 44.18085106369108,255.7423364375718 44.03723404253833,255.6873506156844 43.55851063830778,255.4124214250478 43.4148936169222,255.30244971072534 43.17553191492334,255.1374920986127 43.03191489353776,255.02752033027355 42.88829787238501,254.86256263690302 42.69680851045996,254.64261896983953 42.36170212761499,254.3676892640069 42.07446808507666,254.20273137534969 41.93085106369108,254.09275942249224 41.69148936169222,253.81782944552833 41.59574468061328,253.32295514538419 41.59574468061328,252.88306650985032 41.54787234053947,252.6081359362579 41.5,252.38819137983955 41.64361702115275,251.94830200687284 41.59574468061328,251.34345355216647 41.59574468061328,251.06852221954614 41.54787234053947,250.90356335480465 41.64361702115275,250.73860444140155 41.59574468061328,250.68361812614603 41.64361702115275,250.29871376691153 41.69148936169222,250.02378191897878 41.93085106369108,249.96879553317558 42.40957446815446,249.80383634311147 42.64893617015332,249.69386352261063 42.79255319130607,249.63887710432755 43.07978723407723,249.52890425140504 43.12765957438387,249.52890425140504 43.12765957438387,249.4739178167074 43.17553191492334,249.4739178167074" stroke="#4dd2ff" stroke-linecap="round" stroke-linejoin="round" stroke-width="0.5"><title>2021-03-02 1.4km</title></polyline><polyline fill="none" points="76.46046511642635,255.39670685463352 76.77441860502586,255.54094889492262 80.22790697682649,256.1900377253187 82.42558139562607,256.98336773522897 83.2418604651466,257.3439720008755 85.43953488394618,257.92093845579075 86.25581395346671,257.92093845579075 88.57906976761296,257.77669688494643 89.33255813969299,257.5603344748379 91.65581395360641,257.41609283257276 93.10000000009313,257.92093845579075 93.85348837217316,258.209421512729 95.17209302354604,258.71426658827113 96.42790697677992,258.93062865681713 97.99767441884615,258.786387285043 98.24883720930666,258.64214588463074 98.5,258.786387285043 98.4372093025595,259.79607629112434 97.30697674443945,260.08455860830145 96.36511627910659,260.8778843934997 95.9255813951604,261.0221253531636 95.48604651167989,261.1663662841311 95.23488372098655,261.1663662841311 94.85813953494653,261.2384867388173 94.60697674448602,261.3827276270604 93.72790697682649,261.743329723482 93.85348837217316,262.10393164196284 94.29302325588651,262.39241304877214 94.29302325588651,262.4645333828521 94.29302325588651,262.5366537095397 94.35581395355985,262.4645333828521 94.04186046519317,262.39241304877214 93.66511627915315,262.5366537095397 93.53953488403931,262.6087740291259 93.41395348822698,262.68089434184367 93.35116279078647,262.75301464722725 93.35116279078647,262.75301464722725 93.10000000009313,262.39241304877214 92.97441860474646,262.24817235959927 92.78604651149362,262.03181127260905 92.72325581405312,261.8875705123064 92.09534883755259,261.743329723482 91.84418604662642,261.743329723482 91.53023255825974,261.743329723482 91.21627907012589,261.67120931850513 90.83953488408588,261.67120931850513 90.52558139548637,261.67120931850513 89.89767441875301,261.52696848718915 89.5837209301535,261.45484806067543 89.26976744225249,261.3827276270604 88.95581395342015,261.3106071865186 88.32790697691962,261.1663662841311 88.07674418599345,261.0221253531636 87.7627906978596,260.9500048768823 87.44883720949292,260.8057639031322 87.13488372089341,260.6615229010349 86.8837209304329,260.4451613446581 86.31860465137288,260.1566791696823 85.75348837208003,259.86819688096875 85.31395348883234,259.4354732345091 85.0,259.2912319623283 84.68604651163332,259.1469906614511 84.37209302349947,259.0027493322268 84.05813953466713,258.85850797448074 83.86976744211279,258.786387285043 83.3674418607261,258.57002517359797 83.11627907003276,258.4979044556967 82.86511627910659,258.4257837305777 82.61395348841324,258.28154225915205 82.3000000002794,258.209421512729 81.98604651167989,258.13730075926287 81.2953488372732,258.06517999846255 81.04418604681268,257.99305923079373 80.73023255821317,257.92093845579075 80.35348837217316,257.92093845579075 80.10232558147982,257.84881767391926 79.47441860474646,257.77669688494643 79.16046511637978,257.63245528534753 78.59534883731976,257.1997303159442 77.9674418605864,256.98336773522897 77.71627906989306,256.9112468608073 77.40232558175921,256.8391259793425 77.02558139548637,256.76700509065995 76.77441860502586,256.6948841949343 76.46046511642635,256.5506423818297 75.89534883736633,256.2621586708119 75.58139534899965,256.1179167724913 75.33023255807348,255.97367484582355 74.70232558157295,255.6130699045607 74.51395348855294,255.46882787835784 74.26279069762677,255.32458582380787 73.69767441879958,254.96398056240287 73.44651162810624,254.7476173203322 73.13255813973956,254.3148906439892 72.69302325602621,253.81004253140418 71.93953488371335,253.23307283304166 71.93953488371335,253.01670907909283 71.81395348859951,252.65610267966986 71.68837209348567,252.36761743220268 71.5,251.43003959202906 71.68837209348567,251.06943241041154 71.75116279069334,250.7088250509696 71.81395348859951,250.42033903533593 71.87674418650568,250.20397444895934 71.87674418650568,249.84336666268064 71.87674418650568,248.9057855863357 71.87674418650568,248.25669029093115 72.56744186067954,247.96820330794435 73.06976744206622,247.67971621121978 73.5093023260124,247.53547262010397 73.82325581437908,247.46335081395227 73.94883720949292,247.31910718022846 74.82790697691962,247.24698535277275" stroke="#4dd2ff" stroke-linecap="round" stroke-linejoin="round" stroke-width="0.5"><title>2020-12-25 1.0km</title></polyline><polyline fill="none" points="101.90601503755897,251.8813230539672 102.2105263157282,252.17278965492733 102.46428571431898,252.46425611217273 103.02255639084615,252.814015671378 105.20488721807487,253.3969478099607 106.37218045117334,253.7467068171827 107.13345864671282,253.92158624331933 110.68609022558667,255.32061978871934 111.7011278194841,256.02013531984994 112.86842105258256,256.5447714247275 114.59398496244103,257.185992698709 115.25375939835794,257.30257831001654 116.47180451150052,257.30257831001654 117.1823308269959,257.30257831001654 118.40037593967281,257.06940706435125 119.51691729342565,256.95282140676863 120.78571428591385,257.0111142384121 121.49624060164206,256.95282140676863 123.47556390985847,257.30257831001654 124.13533834577538,257.53574946388835 125.40413533826359,257.76892052585026 126.11466165445745,257.7106277688872 127.38345864671282,257.6523350063362 127.94172932347283,257.5940422380809 128.5,257.82721327705076 128.4492481201887,257.8855060223141 128.29699248145334,257.94379876181483 128.24624060164206,258.00209149578586 128.24624060164206,258.0603842238197 128.19548872183077,258.00209149578586 128.09398496244103,258.118676946091 128.09398496244103,258.00209149578586 128.14473684248514,258.0603842238197 128.19548872183077,258.118676946091 128.14473684248514,258.0603842238197 128.24624060164206,257.94379876181483 128.19548872183077,257.94379876181483 128.14473684248514,257.94379876181483 128.14473684248514,258.00209149578586 128.14473684248514,257.94379876181483 128.14473684248514,257.94379876181483 128.14473684248514,257.94379876181483 128.14473684248514,258.00209149578586 128.09398496244103,258.00209149578586 128.09398496244103,258.00209149578586 128.04323308262974,258.00209149578586 127.99248120328411,258.00209149578586 128.09398496244103,258.00209149578586 128.09398496244103,258.00209149578586 128.09398496244103,258.00209149578586 128.04323308262974,258.00209149578586 128.04323308262974,258.0603842238197 127.94172932347283,258.00209149578586 126.77443609037437,258.00209149578586 125.45488721807487,258.00209149578586 124.13533834577538,257.7106277688872 123.52631578966975,257.53574946388835 122.25751879694872,257.185992698709 121.5977443610318,257.06940706435125 120.22744360892102,257.06940706435125 119.5676691730041,257.0111142384121 118.19736842112616,257.127699884295 116.77631578943692,257.30257831001654 116.11654135352,257.30257831001654 114.74624060164206,257.24428550724406 114.03571428568102,257.06940706435125 110.83834586455487,256.02013531984994 110.17857142863795,255.78696356801083 108.30075187981129,255.32061978871934 107.79323308262974,255.26232679048553 105.76315789483488,254.91256868001074 104.59586466150358,254.38793112634448 103.93609022558667,254.0381724986364 102.66729323309846,253.3386546219699 101.5,252.93060214509023" stroke="#4dd2ff" stroke-linecap="round" stroke-linejoin="round" stroke-width="0.5"><title>2020-12-08 1.1km</title></polyline><polyline fill="none" points="131.5,252.21688039737637 131.75961538474075,252.26657923389575 133.49038461549208,253.6084459623671 134.05288461549208,253.80724072939483 136.25961538474075,254.45332318075816 137.2980769232381,254.75151480198838 137.8173076924868,254.95030911802314 139.02884615398943,255.39759604274877 140.1105769232381,255.94427952257684 140.6730769232381,256.29216870098026 143.44230769225396,257.2364381174557 144.04807692347094,257.2861364587152 145.77884615398943,257.0873430640495 146.2980769232381,257.0376447030285 149.02403846173547,257.0873430640495 149.58653846150264,257.13704142006463 151.27403846173547,257.6340247109474 153.0048076924868,257.7831196025945 153.52403846173547,257.73342131017125 154.6490384619683,257.7831196025945 156.37980769225396,257.53462809184566 156.89903846173547,257.4849297750625 157.98076923098415,257.3855331266823 158.5,257.33583479523077 158.2836538462434,256.9382479664928 157.07211538474075,256.88854959077435 156.55288461549208,256.9382479664928 155.47115384647623,257.2364381174557 155.0817307694815,257.33583479523077 153.9567307694815,257.5843264038558 153.4375,257.6340247109474 152.35576923098415,257.6340247109474 151.79326923098415,257.53462809184566 150.71153846150264,257.33583479523077 150.19230769271962,257.1867397711321 148.5048076924868,256.88854959077435 147.9423076924868,256.88854959077435 146.8173076924868,256.9382479664928 146.21153846150264,256.9382479664928 145.08653846173547,257.0376447030285 143.96153846173547,257.0873430640495 142.8798076924868,257.0376447030285 141.84134615398943,256.78915282484377 141.32211538474075,256.64005763921887 140.19711538497359,256.29216870098026 139.67788461549208,256.09337491414044 138.63942307699472,255.74548559851246 137.25480769225396,255.34789751510834 136.86538461549208,255.29819898269488 135.82692307699472,255.04970624673297 134.39903846173547,254.6024190133612 134.00961538474075,254.3042273040046 133.10096153849736,253.80724072939483 132.62500000023283,253.55874725829926" stroke="#4dd2ff" stroke-linecap="round" stroke-linejoin="round" stroke-width="0.5"><title>2020-12-03 1.3km</title></polyline><polyline fill="none" points="188.21478873235174,255.7097914389451 188.45246478868648,256.5833735263441 188.5,256.85636764595984 187.69190140860155,257.3477567220689 186.31338028167374,257.29315795737784 184.41197183099575,256.96556525613414 182.60563380271196,256.2011815327569 181.98767605633475,256.09198377176654 178.47007042262703,254.72700994316256 177.18661971832626,254.50861381803406 175.23767605633475,254.56321285746526 173.90669014072046,254.50861381803406 172.9559859156143,254.50861381803406 172.38556338031776,254.50861381803406 171.102112676017,254.3994157234556 170.674295774661,254.3448166680755 169.200704225339,254.23561854078434 168.63028169004247,254.18101946933893 166.63380281697027,254.0172222222318 166.01584507036023,253.90802403050475 164.7799295776058,253.79882581724087 163.16373239457607,253.08903690631269 162.54577464796603,252.870640135312 161.5,252.65224327798933 162.68838028167374,252.92523933615303 163.73415492963977,253.41663190134568 164.7799295776058,253.90802403050475 165.397887323983,253.9626231289585 166.96654929593205,254.12642039224738 167.44190140836872,254.18101946933893 168.6778169015888,254.29021760710748 169.2957746477332,254.3448166680755 170.5792253522668,254.3448166680755 171.14964788756333,254.3994157234556 172.43309859163128,254.50861381803406 173.00352112669498,254.50861381803406 174.76232394366525,254.56321285746526 175.33274647896178,254.56321285746526 176.18838028167374,254.4540147734224 176.473591549322,254.4540147734224 176.66373239434324,254.4540147734224 176.85387323936448,254.4540147734224 177.0440140843857,254.4540147734224 177.2816901409533,254.3994157234556 177.5193661970552,254.3994157234556 177.9947183097247,254.4540147734224 178.18485915497877,254.4540147734224 178.61267605656758,254.61781189130852 179.04049295769073,254.83620797318872 178.99295774661005,254.94540598179447 178.99295774661005,255.00000497797737 178.9454225350637,255.00000497797737" stroke="#4dd2ff" stroke-linecap="round" stroke-linejoin="round" stroke-width="0.5"><title>2020-11-30 1.0km</title></polyline></svg>