<?xml version="1.0" encoding="utf-8" ?>
<svg baseProfile="full" height="300mm" version="1.1" viewBox="0,0,200,300" width="200mm" xmlns="http://www.w3.org/2000/svg" xmlns:ev="http://www.w3.org/2001/xml-events" xmlns:xlink="http://www.w3.org/1999/xlink"><defs /><rect fill="#222222" height="300" width="200" x="0" y="0" /><text fill="#FFFFFF" style="font-size:12px; font-family:Arial; font-weight:bold;" x="10" y="20">Over 3km Runs</text><text fill="#FFFFFF" style="font-size:4px; font-family:Arial" x="10" y="280">ATHLETE</text><text fill="#FFFFFF" style="font-size:9px; font-family:Arial" x="10" y="290">jdzj</text><text fill="#FFFFFF" style="font-size:4px; font-family:Arial" x="120" y="280">STATISTICS</text><text fill="#FFFFFF" style="font-size:3px; font-family:Arial" x="120" y="285">Number: 47</text><text fill="#FFFFFF" style="font-size:3px; font-family:Arial" x="120" y="290">Weekly: 3.1</text><text fill="#FFFFFF" style="font-size:3px; font-family:Arial" x="141" y="285">Total: 88.2 km</text><text fill="#FFFFFF" style="font-size:3px; font-family:Arial" x="141" y="290">Avg: 1.9 km</text><text fill="#FFFFFF" style="font-size:3px; font-family:Arial" x="167" y="285">Min: 1.0 km</text><text fill="#FFFFFF" style="font-size:3px; font-family:Arial" x="167" y="290">Max: 4.9 km</text><polyline fill="none" points="12.24342928675469,42.806986734154634 13.527534418040887,43.85497981894878 17.81914893607609,44.243124697648454 22.076971214148216,46.68842863096506 27.179599499329925,46.494357445219066 30.051939924946055,46.9601281301002 36.06695869832765,46.10621478690882 38.5,44.90297011297662 38.5,45.79570038439124 28.90300375467632,47.19301326581626 25.253441802342422,46.571985931077506 22.009386733407155,46.84368551056832 15.588861076394096,45.29111395814107 11.5,43.46683455735911" stroke="#4dd2ff" stroke-linecap="round" stroke-linejoin="round" stroke-width="0.5"><title>2021-05-24 1.6km</title></polyline><polyline fill="none" points="52.01744186040014,44.30131772873574 58.29651162773371,44.48162417355343 58.29651162773371,45.24792577076005 62.299418604699895,47.050983284338145 68.5,46.46499037265312 62.18168604653329,47.0960596310033 57.7078488371335,46.329761132539716 53.03779069753364,46.55514317721827 41.5,42.9039403689967" stroke="#4dd2ff" stroke-linecap="round" stroke-linejoin="round" stroke-width="0.5"><title>2021-05-21 1.1km</title></polyline><polyline fill="none" points="87.685870806803,58.5 88.64843722316436,57.5726886522898 88.33793192764279,56.645374926389195 88.83474040054716,52.329768222756684 90.6977721741423,51.68777274186141 91.10142905858811,50.72477738308953 93.33706718694884,51.259775121259736 97.93254556192551,50.617777740524616 97.77729291387368,48.54911175934831 96.22476643603295,45.19642106865649 93.11971348000225,40.845010195538634 90.8840753515251,38.7406205755542 87.31326445215382,36.63621870649513 82.25202813383657,35.92285936095868 80.38899636024144,35.17383053302183 77.65654975897633,35.56617916023242 74.24099150719121,33.533095296879765 73.58893038646784,31.5 72.06745443807449,32.035026186553296 72.16060602676589,33.1764127384522" stroke="#4dd2ff" stroke-linecap="round" stroke-linejoin="round" stroke-width="0.5"><title>2021-05-20 1.7km</title></polyline><polyline fill="none" points="101.62980769225396,42.68891965242801 101.5,39.93049467226956 107.27644230774604,38.8867636762443 128.0456730767619,39.33407713682391 128.5,49.4731112352456 127.26682692300528,50.36772536096396 116.7524038462434,49.4731112352456 115.45432692300528,50.36772536096396 107.4711538462434,51.11323632381391 102.86298076924868,50.44227649050299 101.82451923051849,49.547662452736404 101.82451923051849,41.794296437641606" stroke="#4dd2ff" stroke-linecap="round" stroke-linejoin="round" stroke-width="0.5"><title>2021-05-18 1.1km</title></polyline><polyline fill="none" points="131.5,45.91863367764745 132.55039787793066,46.905779877241 137.68302387266885,49.07200508596725 140.90583554375917,48.989743677462684 143.0782493368024,49.48331176335341 146.82625994691625,49.04458461920149 150.95623342180625,47.83808140299516 152.12599469488487,47.12514522334095 154.01193633954972,45.80895055021392 158.5,41.39416874811286 157.7838196286466,40.51668823664659 156.01724137936253,41.88775031856494 145.68037135282066,43.01201618020423 144.17639257281553,42.600699928967515 136.03580901853275,42.35390988612198 135.60610079567414,43.0394372419687 135.70159151195548,42.765226502524456 135.2241379310144,42.957174048555316 134.7228116709739,43.9991727003071 133.98275862063747,44.300803160091164 131.83421750657726,43.86206783761736 131.52387267898303,43.286226676253136" stroke="#4dd2ff" stroke-linecap="round" stroke-linejoin="round" stroke-width="0.5"><title>2021-05-10 2.5km</title></polyline><polyline fill="none" points="188.5,53.62218834881787 188.36556016595569,52.850076451170025 187.4468879668275,51.89780196425272 185.99045643152203,52.618442436360056 185.25103734445293,52.386808215931524 185.20622406643815,51.66616710406379 185.69917012448423,50.8425748248701 185.51991701254155,48.551945129060186 184.9821576763643,47.7798182280967 182.13651452283375,48.65489520991105 180.231950207497,48.44899500766769 180.16473029053304,47.85703102100524 175.23526970960665,47.93424379112548 172.65850622404832,47.522442086657975 168.53568464738782,48.26883219741285 165.60041493782774,48.34604484558804 163.27012448140886,47.8312934259302 161.5,44.76850148165249 164.07676348555833,42.915366209083004 165.21950207476038,41.654197177209426 167.57219917012844,40.444498704135185 167.86348547716625,39.569394184683915 170.35062240669504,38.46264014756889 172.74813278007787,36.815369630552595 171.7846473029349,37.896392080554506 169.11825726146344,39.05462544912007 166.60871369298548,36.84110831236467 165.0178423236357,36.37781165118213" stroke="#4dd2ff" stroke-linecap="round" stroke-linejoin="round" stroke-width="0.5"><title>2021-05-08 2.6km</title></polyline><polyline fill="none" points="38.5,70.33026879368117 38.32324058911763,72.20832648070063 33.02045826520771,72.51287573011359 32.225040916586295,73.98486122771283 24.04991816682741,72.1068100242992 19.807692307746038,72.46211753448006 18.261047463165596,73.32500618058839 12.251227495959029,72.00529354764149 11.5,73.22348994429922 17.774959083413705,75.45684251523926 26.878068739781156,76.37048395522288 38.32324058911763,79.66973120631883" stroke="#4dd2ff" stroke-linecap="round" stroke-linejoin="round" stroke-width="0.5"><title>2021-05-08 1.3km</title></polyline><polyline fill="none" points="68.5,74.54756295541301 67.81962864729576,74.91774513520068 63.80901856790297,73.43701444446924 63.164456233615056,74.01285478231148 59.08222811669111,72.44985772951622 56.432360742706805,73.68380325799808 50.66710875323042,74.05398620440974 46.97877984098159,72.86117331142304 43.25464190985076,73.51927739850362 41.96551724127494,73.31361998285865 41.5,72.65551557124127 47.480106100672856,72.90230484734639 50.98938992060721,74.46530020414502 56.71883289143443,74.30077465294744 68.28514588880353,77.55014227048378" stroke="#4dd2ff" stroke-linecap="round" stroke-linejoin="round" stroke-width="0.5"><title>2021-05-07 1.5km</title></polyline><polyline fill="none" points="71.62461538449861,80.18516462753178 71.5,79.46832878002897 73.49384615384042,78.79928102562553 74.32461538468488,76.7921321829781 84.75076923076995,70.57947557425359 88.0738461536821,71.53527411821415 88.8630769229494,72.586650324316 89.8184615385253,70.24494563540793 89.4446153845638,69.81483537243912 89.4446153845638,71.43969434921746 89.2369230769109,70.91400528058875 88.44769230764359,72.73001962917624 89.48615384614095,71.53527411821415 88.48923076922074,72.586650324316 89.02923076902516,70.81842538825003 88.6553846152965,72.68222986560431 89.56923076906241,71.86980316028348 91.27230769232847,72.1565421539708 93.80615384597331,71.24853475438431 96.13230769219808,71.34411456121597 98.5,72.73001962917624 96.9630769228097,71.67864373602788 95.09384615370072,71.43969434921746 90.73230769229122,72.4910707641684 88.5723076921422,71.10516500828089" stroke="#4dd2ff" stroke-linecap="round" stroke-linejoin="round" stroke-width="0.5"><title>2021-05-06 1.2km</title></polyline><polyline fill="none" points="108.23724007583223,77.46278438757872 109.41115311929025,74.94149654899957 117.7816635160707,68.72618315467844 121.30340264644474,64.97350962349446 125.94801512314007,62.510804736055434 127.73440453689545,64.21124491578666 128.5,81.5085494897794 127.53024574671872,76.3487282898277 113.4943289225921,84.0298094599857 109.81947069941089,80.51176934101386 102.92911153123714,84.26434472732944 101.5,86.66832587873796 102.98015122883953,87.48919526394457 107.3695652175229,83.3848369976622 109.00283553870395,79.63225605653133 108.08412098302506,78.28366649121745" stroke="#4dd2ff" stroke-linecap="round" stroke-linejoin="round" stroke-width="0.5"><title>2021-05-06 1.8km</title></polyline><polyline fill="none" points="147.8550913836807,70.82384493073914 150.28720626607537,70.09045673039509 150.53394255880266,69.3163232919469 147.71409921674058,68.17549235391198 148.06657963432372,68.25698038539849 147.6436031330377,68.70516426290851 149.72323759784922,69.5200427621894 151.5561357701663,69.23483547507203 150.95691905985586,71.88318108403473 152.78981723240577,70.86458868044429 152.71932114870287,71.63871914224 153.45953002618626,71.59797547079506 156.20887728454545,73.79812782708905 158.2180156656541,74.24630553697352 158.25326370750554,75.38711927455734 157.61879895534366,76.28347065809066 158.5,80.35776998128858 157.75979112274945,81.82450764605892 138.1618798954878,79.50217054301174 132.6984334201552,80.23554160146159 131.5,81.13188219236326 132.34595300257206,80.27628439894761" stroke="#4dd2ff" stroke-linecap="round" stroke-linejoin="round" stroke-width="0.5"><title>2021-05-02 1.6km</title></polyline><polyline fill="none" points="169.7708860761486,68.55801729654195 171.68481012666598,69.348454042105 174.00886075990275,67.37236067571212 183.23670886084437,65.8705263681477 187.33797468361445,67.53044832928572 188.5,70.29697707982268 187.0645569623448,78.20129086408997 175.44430379755795,82.31150237331167 162.32025316450745,84.12947363191051 161.5,82.78575615363661 167.17341772140935,66.50287800800288" stroke="#4dd2ff" stroke-linecap="round" stroke-linejoin="round" stroke-width="0.5"><title>2021-05-01 1.0km</title></polyline><polyline fill="none" points="24.379580484703183,103.89144496811787 22.743929035263136,106.50013982632663 20.318652748595923,101.47839281102642 20.43145629670471,99.65229327307316 22.405518390703946,96.58704311598558 25.50761596718803,95.28267691930523 33.516667891759425,95.41311365773436 38.19801514339633,91.5 32.27582886116579,95.67398705566302 18.344590654363856,93.78265252505662 17.160153397824615,94.36961900861934 14.847680659266189,99.32620352465892 14.058055821340531,111.45663092919858 13.099225661484525,114.58702669781633 11.971190178999677,115.0435414754902 11.801984856836498,118.5 12.704413242638111,118.04348767379997 13.099225661484525,115.89135377493221 14.622073562582955,98.93489560863236 16.652537430869415,96.91313425207045 17.498564042383805,97.43487972620642" stroke="#4dd2ff" stroke-linecap="round" stroke-linejoin="round" stroke-width="0.5"><title>2021-05-01 1.8km</title></polyline><polyline fill="none" points="64.35151710780337,102.54729372254224 63.41026468691416,102.70747328280413 61.87637185282074,103.80870433762902 60.01129761134507,103.72861500787258 59.680116203962825,104.12906134077639 59.73240800516214,103.74863734330575 58.47740477730986,104.16910593061766 55.51420271140523,103.78868200814759 53.771142672689166,103.98890521413705 53.24822466110345,103.70859267051856 51.34828921884764,104.06899444117153 47.060361523530446,104.16910593061766 42.78986442863243,103.72861500787258 41.5,104.82984052217216 41.587153001863044,105.21026249312854 46.607165913446806,106.1913474433677 47.147514525509905,106.03117063254467 48.141058747598436,106.55174480551796 50.790510006423574,106.59178891735792 52.44641704321839,107.2324936324294 53.16107165906578,107.01225161476759 55.043576500960626,107.45273541120696 55.51420271140523,107.81313053362828 56.682052937394474,107.95328401951701 56.99580374429934,107.71302084159106 57.84990316332551,108.11345931352116 58.91316978685791,107.93326209892984 60.69109102641232,108.45383139346086 60.847966429952066,107.97330593819788 61.23143963847542,107.93326209892984 61.94609425426461,108.31367825318011 62.19012265978381,107.73304278393334 63.23595868301345,107.17242765137053 64.49096191086574,105.91103794146329 65.88540994183859,105.37043995175918 66.61749515816336,104.4894623648579 67.83763718529372,104.10903904291627 68.5,103.18801120518765 68.15138799225679,102.1268217752804 67.6110393802519,101.54616860652459 66.51291155582294,102.24695670625078 64.83957391860895,102.14684426873282 64.73499031632673,102.78756301557587 62.38185926398728,103.94886058874545 62.86991607490927,104.4093733037007 63.20109748223331,104.1891282225406 64.3340865073842,105.05008490809996 65.27533892838983,104.90992941746663 65.3450613298919,104.66966263690847" stroke="#4dd2ff" stroke-linecap="round" stroke-linejoin="round" stroke-width="0.5"><title>2021-04-30 3.7km</title></polyline><polyline fill="none" points="98.28672985779122,103.23623378251796 96.58056872035377,105.68592113841441 95.64218009449542,105.83290199568728 86.34360189572908,103.28522764809895 78.06872037914582,103.23623378251796 79.17772511858493,104.16711640084395 71.5,101.86440358625259 77.64218009449542,104.02013505066861 87.45260663493536,104.95101620003697 97.56161137414165,108.13559641374741 98.5,107.93962283618748 97.22037914698012,107.49868200431229" stroke="#4dd2ff" stroke-linecap="round" stroke-linejoin="round" stroke-width="0.5"><title>2021-04-29 1.4km</title></polyline><polyline fill="none" points="111.87571428576484,104.33554940490285 114.07428571442142,102.60747186263325 113.30285714287311,101.23386702072457 114.65285714273341,100.79076778833405 123.87142857140861,91.97300212824484 124.95142857148312,91.84006966266315 128.5,95.91664737128303 123.98714285693131,98.84112597076455 124.488571428461,98.88543610589113 121.6728571425192,101.94282488318277 122.86857142834924,101.49972635036102 123.1385714286007,100.48059806539095 121.78857142850757,101.58834609185578 115.34714285703376,109.38681485856068 110.98857142869383,111.95673512283247 108.01857142848894,114.57094926701393 107.82571428571828,116.25467235324322 105.39571428578347,118.15993033730774 103.39000000013039,117.14083986292826 101.5,114.43802349138423 101.6542857142631,111.82380857339012 104.31571428570896,110.58315888041398 105.28000000002794,109.07665107343928 107.9414285714738,107.92461228143657 108.4428571430035,106.77257053373614 109.75428571435623,106.01931086977129 110.14000000013039,104.6900260274997 111.14285714295693,103.93676287005655 112.26142857130617,104.20262059936067 112.49285714281723,103.36073724998278" stroke="#4dd2ff" stroke-linecap="round" stroke-linejoin="round" stroke-width="0.5"><title>2021-04-26 2.2km</title></polyline><polyline fill="none" points="147.42964901856612,113.72947800598922 148.16590629715938,112.71446476058918 149.01996473991312,102.05664420773974 151.9060932713328,91.5 149.255567069049,101.8874697809515 147.1645963982446,102.86868029402103 144.1312164113624,102.6656714527926 140.98003525985405,103.13935856189346 139.3308189562522,104.15440016260254 138.18225760187488,105.77846047110506 138.0939067285508,115.72566195391119 139.4191698296927,118.16166729407269 140.30267856363207,118.5 140.89168438641354,118.19550057966262 144.07231582922395,115.52266072752536 145.16197660111357,116.26699797008769 146.22218708205037,115.488827178051 146.4283391200006,114.60915372084128" stroke="#4dd2ff" stroke-linecap="round" stroke-linejoin="round" stroke-width="0.5"><title>2021-04-25 2.2km</title></polyline><polyline fill="none" points="176.04328879958484,118.5 175.2470947157126,112.57028896175325 175.68637421028689,109.19535109811113 175.2470947157126,102.9185027051426 175.65891924186144,91.97315048170276 175.32945962098893,91.5 174.64308541070204,91.97315048170276 173.95671120041516,103.13929845957318 174.2312608845532,114.11580935536767 175.32945962098893,114.4312207622861 175.41182452614885,114.14735051008756 175.54909936827607,108.753767806018 175.1921847788617,112.94878444314236" stroke="#4dd2ff" stroke-linecap="round" stroke-linejoin="round" stroke-width="0.5"><title>2021-04-18 2.2km</title></polyline><polyline fill="none" points="38.5,138.84329710557358 33.66475644684397,138.35455802554497 19.0429799426347,133.95588244483224 12.583094555651769,133.33384404791286 11.5,132.62294197097071 19.197707736166194,132.53407913257251 20.899713466875255,131.15670289442642 24.226361031411216,132.66737338370876" stroke="#4dd2ff" stroke-linecap="round" stroke-linejoin="round" stroke-width="0.5"><title>2021-04-16 1.0km</title></polyline><polyline fill="none" points="68.5,137.16544545063516 67.70920502085937,137.37630865129177 67.38441422593314,136.71127763851837 66.81956066942075,136.4841932621057 66.0993723848951,136.66261672708788 65.84518828446744,136.45175261124677 65.49215481168358,135.96514208130247 66.11349372385303,134.86215288248786 65.9016736401245,134.05112669288064 65.47803347278386,133.87270039442228 62.18776150629856,134.09978837710514 59.37761506275274,133.85647981220973 58.00784518831642,134.1808911520493 57.42887029290432,133.95380328134343 56.496861924708355,134.05112669288064 56.270920502138324,133.85647981220973 54.43514644348761,134.06734725587012 53.78556485357694,133.84025922839646 53.03713389125187,134.05112669288064 52.28870292886859,133.74293569203292 50.707112970761955,134.034906128305 49.407949790824205,133.51584721657855 48.33472803351469,133.6456120981311 47.727510460303165,132.8994626309286 46.62604602507781,132.9643453276658 45.623430962325074,132.6561522900156 45.21391213394236,132.85080059153552 44.64905857742997,132.29929647214885 43.8158995815902,132.59126947163895 42.601464435167145,132.18575127677468 41.89539748959942,132.55882805289002 42.389644351555035,132.20197202375857 42.50261506275274,132.75347646955925 41.5,132.70481438699062 42.34728033473948,132.39662086291355 41.937761506356765,132.49394519609632 42.375523012597114,132.4615037581243 42.02248953975504,132.60749017864873 42.24843096238328,132.85080059153552 42.00836820085533,132.6561522900156 42.34728033473948,132.54260734103445 42.24843096238328,132.36417940571846 41.96600418409798,132.4615037581243 42.06485355651239,132.70481438699062 42.50261506275274,132.52638662765094 42.29079497908242,132.44528303669358 42.2625523013412,132.67237299059343 42.375523012597114,132.38040013515274 42.220188284583855,132.67237299059343 42.31903765688185,132.44528303669358 42.389644351555035,132.6237108840287 42.17782426782651,132.03976448181493 42.30491631804034,132.4615037581243 42.23430962342536,132.18575127677468 42.2625523013412,132.4615037581243 41.980125522997696,132.2506342551642 42.07897489547031,132.1046475177718 42.17782426782651,132.2506342551642 41.96600418409798,132.33173794214963 42.24843096238328,132.47772447788157 42.02248953975504,132.34795867474168 42.29079497908242,132.1046475177718 42.09309623437002,132.44528303669358 41.867154811741784,132.44528303669358 42.09309623437002,132.02354371879483 41.8812761506415,132.16953052819008 42.220188284583855,132.4615037581243 41.980125522997696,132.31551720792777 42.02248953975504,132.4615037581243 42.09309623437002,132.33173794214963 42.16370292886859,133.01300733347307 42.02248953975504,134.53774288666318 43.392259414249565,134.8297119117051 43.505230125563685,135.089239498775 44.73378661094466,134.97569622984156 45.43985355651239,135.23522358651098 51.07426778244553,135.4785301114316 56.63807531388011,136.19222717446974 59.307008368195966,136.28954926127335 60.493200836877804,136.54907454446948 61.86297071131412,137.24654671369353 64.00941422587493,137.00324280455243 64.23535564856138,137.39252888633928 64.53190376568818,137.26276696148852 66.55125523015158,137.68449284293456 66.90428870293545,137.97645628120517 67.53974895400461,137.830474626855 67.73744769877521,137.23032646426873 68.3023012552294,137.00324280455243" stroke="#4dd2ff" stroke-linecap="round" stroke-linejoin="round" stroke-width="0.5"><title>2021-04-09 4.9km</title></polyline><polyline fill="none" points="97.95496894442476,136.44471134166815 89.48602484492585,133.98871357101598 88.52173913060687,133.0737308509415 82.56832298170775,133.5553009174473 78.25000000023283,133.1218878790387 79.04658385110088,133.60345789804705 78.66925465851091,133.79608577254112 71.5,132.15874641618575 77.45341614913195,133.94055662854225 86.00621118023992,134.66291026771069 97.87111801258288,137.84125358381425 96.27795031084679,137.2152179002005 98.5,136.92627808329416 97.91304347827099,136.20392779266695" stroke="#4dd2ff" stroke-linecap="round" stroke-linejoin="round" stroke-width="0.5"><title>2021-04-09 1.4km</title></polyline><polyline fill="none" points="102.57386363646947,133.50223745114636 103.87784090917557,134.60354574551457 113.31250000023283,138.21581789135234 117.4928977272939,138.0396101717488 121.1363636367023,138.788492499938 127.8863636367023,138.0396101717488 128.5,137.29072658804944 125.7769886367023,136.5858938328456 122.51704545458779,137.2466745733982 119.14204545458779,135.96916425964446 116.34232954564504,136.18942491928465 111.5866477272939,133.76655168936122 110.97301136376336,132.6211888602993 108.25000000023283,131.56392825720832 106.17897727293894,131.2115075000911 101.5,132.3568739441107" stroke="#4dd2ff" stroke-linecap="round" stroke-linejoin="round" stroke-width="0.5"><title>2021-04-08 1.4km</title></polyline><polyline fill="none" points="158.3246753248386,136.12775079283165 158.5,137.05411077366443 156.22077922080643,137.0943872469943 150.18961038975976,135.0402820468007 141.07272727275267,134.597238393937 136.26883116876706,132.9056127530348 131.5,133.63059602869907 136.02337662340142,133.10699712540372 140.82727272738703,134.55696167447604 149.7688311689999,134.95972869111574" stroke="#4dd2ff" stroke-linecap="round" stroke-linejoin="round" stroke-width="0.5"><title>2021-04-06 1.3km</title></polyline><polyline fill="none" points="169.74550898186862,130.9457708785194 173.14071856276132,129.88541559164878 174.54191616759636,131.00814466172596 174.54191616759636,132.19324533944018 173.6257485030219,132.69223441329086 175.24251497001387,134.4386929749744 176.91317365248688,134.62581324036 179.06886227522045,133.62783783260966 181.49401197605766,130.57152804534417 183.64970059879124,131.38238722848473 185.42814371269196,130.32203269645106 188.44610778428614,130.6962756817229 188.44610778428614,126.89146135671763 188.12275449116714,129.19930237036897 186.34431137726642,128.88743247062666 188.5,129.26167633139994 188.3922155688051,130.88339708879357 183.7574850297533,131.32001348305494 181.49401197605766,130.50915421778336 177.82934131729417,135.12480033526663 178.69161676662043,134.37631954066455 174.64970059879124,134.31394609995186 173.841317364946,132.94172879809048 175.02694610785693,132.94172879809048 174.91916167666204,132.3179926458979 173.517964071827,129.82304169406416 172.92514970037155,130.6962756817229 171.7395209579263,130.57152804534417 170.23053892189637,133.8149583453196 165.2185628740117,136.43463952775346 163.60179640701972,139.42854717787122 163.38622754462995,137.1207446550252 162.95508982008323,140.0522760989843 162.57784431125037,138.6800716354628 162.95508982008323,139.61566592089366 162.6317365267314,138.8048176226439 164.84131736517884,139.9275303655304 166.61976047884673,142.609558043594 168.93712574825622,142.422440214199 169.5838323351927,141.11261380888755 168.18263473035768,140.48888596630422 169.4221556885168,140.48888596630422 168.82934131729417,141.23735930153634 168.29041916131973,140.73837717954302 168.93712574825622,141.48685021017445 169.09880239493214,140.8631227480946 169.36826347303577,142.29769496276276 168.45209580799565,143.10853864328237 165.4880239518825,142.85904839425348 162.73952095769346,139.61566592089366 163.22455089795403,136.80887878325302 163.54790419130586,139.05430952075403 161.5,140.23939465155127 162.09281437122263,139.2414283779217 161.7155688619241,140.48888596630422 163.22455089795403,139.42854717787122 163.4401197603438,136.68413239018992" stroke="#4dd2ff" stroke-linecap="round" stroke-linejoin="round" stroke-width="0.5"><title>2021-04-05 1.9km</title></polyline><polyline fill="none" points="32.733794684987515,172.10341087402776 31.675001365016215,172.6364659423416 32.089311794610694,171.9967997299682 32.825863669393584,171.9967997299682 32.986984391813166,171.5437018830562 32.15836353285704,176.47443036714685 30.386035584146157,177.75373932847288 30.293966599740088,178.5 30.22491486161016,177.75373932847288 32.22741527110338,176.5543873605202 32.89491540763993,173.9424462687748 33.35526032932103,169.78460868593538 32.20439802494366,168.95836385842995 29.71853544760961,168.50526074811933 28.245431698160246,169.65134356773342 25.161120722652413,170.53089209322934 19.544912677491084,173.91579367421218 18.532153849722818,172.2899802714819 17.358274299418554,172.79638225099188 16.805860393331386,172.58316048438428 13.58344594121445,158.7500269431912 13.399307972518727,156.21787125550327 15.033532444620505,163.6276893276954 15.539911858504638,163.84091839494067 21.455344102694653,161.1488886642328 26.012758827768266,159.6829202270601 28.866897342493758,158.08367256019847 32.8718981614802,154.85849335137755 35.24267450836487,151.5 36.60069202748127,152.19302596943453 36.43957130482886,152.40626435974264 35.88715739874169,152.2196807777218 36.2093988439301,151.95313257249654 36.2093988439301,152.37960957048927 36.347502320539206,151.6599292329047 35.56491595355328,151.89982289876207" stroke="#4dd2ff" stroke-linecap="round" stroke-linejoin="round" stroke-width="0.5"><title>2021-04-05 3.7km</title></polyline><polyline fill="none" points="48.31308411201462,155.2103965000133 52.60280373785645,158.61973999917973 56.135514019057155,168.45806303771678 56.2196261677891,173.42589063744526 58.15420560725033,173.03625803388422 60.088785046711564,174.7896034999867 64.46261682221666,171.57513435458532 68.5,172.64662527100882 60.25700934557244,170.69845907430863 60.25700934557244,173.91293116903398 60.67757009342313,169.432148916414 60.50934579409659,174.10774731216952 60.761682242620736,172.54921705560992 57.39719626121223,173.23107435565908 59.66822429932654,171.76995097420877 60.845794392284006,173.91293116903398 58.7429906539619,172.54921705560992 60.25700934557244,172.15958409424638 59.920560747850686,174.01033924537478 60.845794392284006,174.01033924537478 59.75233644852415,172.06217582896352 61.68691588751972,174.4973794791731 59.75233644852415,172.7440334765124 59.920560747850686,171.1855009960709 61.35046728979796,173.42589063744526 60.004672897048295,171.2829093504115 57.73364485986531,171.1855009960709 56.72429906530306,173.71811498625902 56.976635513827205,172.4518088303157 52.68691588798538,169.23733182030264 54.3691588784568,163.0031637659995 52.68691588798538,163.6850278780912 52.77102803764865,161.15238729520934 47.808411214500666,158.4249206984532 41.5,159.00937848177273 45.032710280269384,160.2757024524617 46.21028037369251,163.58761874877382" stroke="#4dd2ff" stroke-linecap="round" stroke-linejoin="round" stroke-width="0.5"><title>2021-04-04 1.4km</title></polyline><polyline fill="none" points="88.16759776556864,152.9137280768482 79.79608938563615,156.72593444224913 71.72625698335469,166.08309806726174 79.34357541939244,174.48713224026142 83.79329608939588,169.46204931195825 88.99720670422539,167.29605642065872 89.14804469328374,164.43693762167823 93.97486033523455,160.88468614366138 86.88547486020252,151.87403255852405 80.92737430194393,155.8595253583626 71.5,166.60293756675674 79.19273743033409,173.5341014813166 83.71787709509954,168.24909395119175 91.1089385477826,167.03613691445207 93.29608938563615,165.38997825584374 94.42737430194393,161.05796703702072 94.1256983242929,160.27820274728583 93.22067039133981,162.01101133896736 90.58100558677688,163.31061553861946 90.50558659248054,162.5308532496565 98.5,157.24577948241495 95.5586592182517,155.6862434389186 92.4664804469794,151.87403255852405 90.73184357536957,154.73319227073807 85.45251396670938,152.4805217604153 75.04469273751602,161.8377306337352 71.80167597765103,166.42965776781784 79.34357541939244,173.5341014813166 83.79329608939588,168.85557184100617 84.47206703945994,169.3754096989869 82.58659217879176,171.97459437139332 92.91899441368878,174.14057572046295 96.2374301678501,178.12596744153416 89.22346368711442,165.3033382408903 89.97765363147482,162.9640546067385 93.67318435804918,159.84500006528106 89.60055865952745,157.3324202922522 87.3379888269119,153.00036931439536 85.7541899443604,152.39388047158718 84.39664804469794,153.34693417925155 85.075418994762,153.95342236361466" stroke="#4dd2ff" stroke-linecap="round" stroke-linejoin="round" stroke-width="0.5"><title>2021-04-02 3.1km</title></polyline><polyline fill="none" points="118.06382978719193,175.4343305611983 114.90425531915389,174.3345724202518 108.9441489361925,174.22459636750864 102.48138297873084,173.37228048761608 101.93085106392391,172.8498920472921 101.5,170.23793516049045 102.12234042549971,169.74303530808538 103.41489361703862,169.68804638125584 102.24202127661556,166.03125840533176 102.52925531915389,161.08214564228547 104.32446808519308,158.52506961475592 105.0425531915389,156.7928434922942 108.46542553184554,154.4281999762752 109.85372340434697,155.94047430498176 111.14627659576945,156.21543239211314 111.81648936169222,157.01280931095243 114.64095744676888,157.01280931095243 118.99734042549971,157.70020137538086 121.10372340423055,158.80002515210072 124.5984042553464,161.90700387241668 127.90159574453719,167.62595379757113 127.99734042549971,168.36830888519762 127.23138297861442,169.028178414359 126.92021276592277,170.07296864059754 127.59042553184554,170.0454742111324 128.5,172.38249103396083 127.90159574453719,173.6197273019061 125.81914893607609,174.00464413187 125.3164893615758,174.63700634156703 124.14361702115275,174.05963220700505 123.64095744676888,174.27958439930808 122.39627659565303,173.89466794897453 121.79787234030664,175.5718000237248 121.60638297861442,175.37934275722364" stroke="#4dd2ff" stroke-linecap="round" stroke-linejoin="round" stroke-width="0.5"><title>2021-04-02 3.2km</title></polyline><polyline fill="none" points="134.32891246699728,162.71723626583116 143.46021220157854,166.78919727093307 148.40185676398687,166.74806655038265 151.40981432353146,167.44728824673803 155.45623342180625,166.4601513936359 158.5,166.50128214235883 151.62466843496077,167.40615759126376 148.61671087541617,166.7069358259323 143.74668435007334,166.953720112273 137.44429708225653,165.14396528797806 131.5,162.55271175326197" stroke="#4dd2ff" stroke-linecap="round" stroke-linejoin="round" stroke-width="0.5"><title>2021-04-01 1.4km</title></polyline><polyline fill="none" points="161.5,161.59926042420557 164.54909983626567,164.6954673033033 168.1284779049456,165.45682679719175 172.32651391159743,167.63938443706138 178.0711947628297,167.5378703335009 181.2528641570825,168.40073957582354 188.5,167.5378703335009 183.418166939402,168.29922562243883 177.27577741397545,167.3855991406017 171.79623567918316,167.63938443706138 163.5769230767619,165.40606953256065 162.73731587571092,164.94925392634468 163.7094926352147,164.5431952692743" stroke="#4dd2ff" stroke-linecap="round" stroke-linejoin="round" stroke-width="0.5"><title>2021-03-29 1.2km</title></polyline><polyline fill="none" points="24.507634667446837,208.5 23.249367706710473,201.4047617338947 22.374051559716463,201.15360141260317 18.106885345187038,195.00014268804807 15.262107868678868,194.74897984799463 24.12468385323882,181.5 27.07887584809214,183.32096613023896 32.87784531945363,189.22337237704778 32.27606546878815,193.43037331756204 34.7378921310883,207.8721059873933 26.914754070574418,202.6605618582107 24.069976593833417,202.09545210778015 23.79644029820338,203.28846099448856" stroke="#4dd2ff" stroke-linecap="round" stroke-linejoin="round" stroke-width="0.5"><title>2021-03-28 1.4km</title></polyline><polyline fill="none" points="54.66769230784848,190.10942592195352 56.20461538457312,191.01598240912426 56.57846153830178,190.25256653287215 58.07384615391493,190.157139463583 58.406153846299276,189.3937222318491 58.8630769229494,189.91857170814183 59.569230769295245,189.3937222318491 61.77076923055574,190.63427462166874 63.058461538515985,189.68000383497565 66.8384615383111,190.82512855296955 66.58923076931387,189.87085814285092 68.37538461526856,190.0617123756092 67.046153845964,189.58457665276364 67.37846153834835,188.8211585173267 67.46153846150264,189.87085814285092 67.25384615384974,189.3937222318491 66.79692307696678,190.01399882443366 66.87999999988824,189.2505813666503 67.46153846150264,190.0617123756092 66.8384615383111,189.87085814285092 68.08461538469419,189.72771741898032 68.08461538469419,190.20485300049768 67.5446153844241,189.5368630544981 66.67230769223534,190.01399882443366 68.4169230768457,189.72771741898032 67.87692307680845,189.29829499311745 67.7107692307327,190.7297015967779 66.96307692304254,190.10942592195352 66.87999999988824,190.63427462166874 67.9184615383856,189.9662852686888 67.46153846150264,190.01399882443366 68.5,191.30226305214455 68.37538461526856,189.91857170814183 67.75230769230984,190.01399882443366 68.08461538469419,190.68198811152251 67.17076923092827,190.96826895224513 67.046153845964,190.4434206149308 66.54769230773672,191.1591227517929 64.80307692289352,190.92055549059296 64.80307692289352,189.9662852686888 65.21846153843217,198.1729476553155 60.52461538463831,199.22262698729173 56.70307692303322,197.98209662307636 56.99384615384042,198.602362202917 55.83076923084445,197.98209662307636 49.101538461400196,197.64810713526094 45.7369230769109,198.65007490682183 45.4461538461037,200.36772911532898 44.65692307706922,200.9879916361242 41.95692307688296,201.1788414827024 41.5,200.4154416451056" stroke="#4dd2ff" stroke-linecap="round" stroke-linejoin="round" stroke-width="0.5"><title>2021-03-26 1.5km</title></polyline><polyline fill="none" points="74.35365853691474,193.28908159493585 82.9146341466112,196.78296138744918 85.92508710816037,196.56684608149226 88.5592334496323,197.14315327999066 92.3536585366819,196.38674989546416 93.85888501745649,196.56684608149226 98.5,194.90995782002574 94.39198606286664,196.56684608149226 89.09233449492604,196.99907656561118 86.30139372847043,196.42276913978276 83.19686411181465,196.67490375047782 76.51742160285357,195.0540353585675 71.5,192.85684672000934" stroke="#4dd2ff" stroke-linecap="round" stroke-linejoin="round" stroke-width="0.5"><title>2021-03-26 1.6km</title></polyline><polyline fill="none" points="128.5,197.39574562490452 126.43718166393228,197.13247799157398 123.36587436310947,195.18429346877383 120.75297113740817,195.23694719810737 116.99405772495084,193.76264081668342 107.82597623066977,194.0259101120173 109.20118845487013,194.71040967211593 108.65110356523655,194.8683709843317 101.5,192.60425437503727 107.27589134103619,194.81571721867658 115.48132427828386,195.34225464100018 122.49490662128665,197.02717090176884" stroke="#4dd2ff" stroke-linecap="round" stroke-linejoin="round" stroke-width="0.5"><title>2021-03-24 1.1km</title></polyline><polyline fill="none" points="158.5,196.98045260098297 156.555706521729,196.85404130007373 154.64809782616794,195.42137727636145 151.60326086962596,194.91573000318022 149.10869565233588,193.77802145073656 141.47826086962596,193.94657105699298 142.13858695677482,194.6629061421845 136.1589673915878,193.01954739898792 131.5,193.60947177780326 133.33423913037404,193.8622962621157 136.305706521729,193.06168488171534 141.8084239133168,194.74718077926082 151.82336956541985,195.16855371458223" stroke="#4dd2ff" stroke-linecap="round" stroke-linejoin="round" stroke-width="0.5"><title>2021-03-23 1.3km</title></polyline><polyline fill="none" points="187.96143617015332,196.34032829705393 178.87765957438387,193.16479310847353 175.17952127661556,193.78340575075708 171.51728723407723,193.37099742420833 172.52260638284497,194.0308505515568 172.12765957438387,194.15457289706683 166.34707446792163,192.42245672934223 161.5,193.12355223300983 165.98803191492334,192.50493861435098 171.40957446815446,194.0720913373807 178.59042553184554,194.56698045079247 188.5,197.57754327062867 186.88430851045996,196.7939742123708 188.5,196.34032829705393" stroke="#4dd2ff" stroke-linecap="round" stroke-linejoin="round" stroke-width="0.5"><title>2021-03-22 1.6km</title></polyline><polyline fill="none" points="34.49234889051877,211.66696286508522 34.86419280793052,211.92771207584883 34.65761285379995,212.75736678148678 36.53749043610878,213.0418191668141 37.0332823258359,213.4447928055597 36.86801836267114,214.17962535582774 37.61170619726181,214.6774138768087 38.5,216.21818136313232 37.96289211930707,217.64041954364802 37.177888293750584,217.97227391318302 36.88867635803763,218.8256116255361 33.06694720732048,222.1441184944124 28.85271614382509,223.77965152416436 27.53060443745926,224.63296870570048 26.518362662638538,225.4862828705518 23.56426931906026,229.56318669089524 11.5,238.33303713492933" stroke="#4dd2ff" stroke-linecap="round" stroke-linejoin="round" stroke-width="0.5"><title>2021-03-21 1.3km</title></polyline><polyline fill="none" points="53.73930905794259,222.65431547551998 53.39659695723094,220.4628218654252 51.0465711238794,217.5408042424533 50.09187312901486,217.2598394350207 46.86058760806918,220.20995613664854 43.65378152288031,224.28387675297563 42.84596014267299,224.5086430964584 41.96470045519527,226.89677457942162 43.45794603682589,229.032028183894 47.00746422261,230.7177434452169 50.85073563770857,233.83629046773422 50.63042071578093,234.00485960778315 51.14448886690661,233.94866990548326 50.679379587527364,233.69581610852038 51.266886045690626,234.67913517341367 52.56429614126682,236.22434401192004 57.48466273001395,238.5 60.030524049536325,238.24715022931923 66.0279858118156,234.06104929899448 66.83580719213933,232.37535375673906 68.03529954468831,226.98106120841112 66.83580719213933,224.90198377234628 62.356070447247475,220.77187967445934 57.50914216588717,214.67495024375967 53.91066510824021,211.5 49.87155820708722,217.11935692763655 50.60594128014054,217.20364644034998 51.60959814640228,218.13082943920745 53.567953007644974,220.63139889360173 53.54347357188817,221.41809037700295" stroke="#4dd2ff" stroke-linecap="round" stroke-linejoin="round" stroke-width="0.5"><title>2021-03-20 3.7km</title></polyline><polyline fill="none" points="95.83990147779696,231.79852100237622 86.61822660081089,228.8448868917476 76.86453201971017,228.53933757098275 71.63300492614508,227.4189885148371 71.5,225.58568481527618 72.25369458133355,224.7708810813201 71.54433497553691,223.395896864502 71.72167487675324,221.00239708510344 74.51477832510136,218.20147899762378 79.12561576371081,218.76166383081 83.8251231526956,220.34036327208742 92.69211822655052,220.1366603898059 97.43596059107222,219.37277386462665 98.01231527072378,218.7107379619556 97.16995073878206,220.6459174452175 96.63793103443459,227.21528842530097 97.0812807881739,230.57632962657954 98.5,230.83095306847827" stroke="#4dd2ff" stroke-linecap="round" stroke-linejoin="round" stroke-width="0.5"><title>2021-03-19 1.6km</title></polyline><polyline fill="none" points="112.44199535972439,224.7241834859742 118.30974477971904,227.2426167684025 120.5858468679944,227.09870699765452 122.56960556854028,227.53043605438143 124.65777262195479,227.07472202762438 125.76450116012711,227.1706618936878 128.5,226.3551718256931 123.4257540605031,227.50645112684288 120.81554524379317,227.09870699765452 117.89211136905942,227.21863181254594 106.2192575406516,223.50093505275436 101.5,222.9972427329194 102.5232018561801,223.14115493069403 101.83410672855098,222.85333044989966 102.042923433939,222.73340348235797 103.62993039446883,222.8293450611527 105.7389791184105,222.46956394561857 106.44895591656677,222.9972427329194 106.8665893272264,222.73340348235797 107.36774941999465,223.21311099771992 107.80626450118143,223.0691988425242 108.37006960564759,223.54890569548297 109.08004640380386,223.2850670433836 110.54176334117074,224.3404199340148 110.83410672855098,223.98064105407684 110.0823665894568,222.85333044989966 109.79002320196014,222.87731583633285 109.89443155459594,223.69281756679993 111.2517401392106,224.36440517377923 111.81554524379317,223.02122810516448 112.12877030181699,223.66883226085338 112.54640371236019,223.59687632865098 112.10788863117341,223.71680287044728 112.35846867761575,223.6448469524621 111.75290023209527,222.8053596700338 112.6508120651124,222.73340348235797" stroke="#4dd2ff" stroke-linecap="round" stroke-linejoin="round" stroke-width="0.5"><title>2021-03-19 3.1km</title></polyline><polyline fill="none" points="142.86185962153831,238.5 142.71021845994983,238.02971275118762 142.42210025299573,237.9774585351406 141.9975050004432,238.3780737964844 142.51308494986733,235.43440133267723 142.31595143978484,236.1485512315412 142.40693613677286,237.45491552402382 142.11881792976055,237.68135101867665 140.48109338455833,237.6465148076095 140.28395987441763,236.60142528064898 140.42043691989966,235.67825772045762 144.39343535364605,234.7899221154221 147.06231979769655,234.61573813950235 146.97133510076674,217.77133590234735 147.8660179541912,216.62160766593297 149.71604012564057,214.98410300788237 149.38242957007606,214.14792455772113 147.12297626235522,211.5" stroke="#4dd2ff" stroke-linecap="round" stroke-linejoin="round" stroke-width="0.5"><title>2021-03-18 2.7km</title></polyline><polyline fill="none" points="170.65707811439643,236.27201083266118 171.41298898454988,236.40306984627387 171.52708873845404,237.04198105671094 171.81233812338905,237.20580404812063 173.3526848020265,237.51706728668069 175.34943049651338,237.33686232486798 176.73289001343073,237.73003653480555 178.0165122456383,238.5 178.3445490382146,237.46792049828218 178.1591369381058,233.0937980911549 179.34292188554537,232.97911917501187 177.64568804518785,232.50401996453002 176.00550408184063,232.42210617019737 175.27811815030873,231.6357316889771 173.8376087563811,216.74306192847143 175.40648037352366,214.90800908749225 176.51895297470037,214.2690127123351 175.72025469696382,212.84355039751972 174.35105764924083,211.5" stroke="#4dd2ff" stroke-linecap="round" stroke-linejoin="round" stroke-width="0.5"><title>2021-03-17 2.8km</title></polyline><polyline fill="none" points="12.40957446815446,253.5428993329988 12.74468085099943,253.5428993329988 14.42021276592277,254.25771734368755 14.89893617015332,254.86256263690302 19.87765957438387,256.2372085903189 25.14361702115275,256.95202314679045 26.9148936169222,256.8420517363702 28.15957446815446,257.11698022211203 28.78191489353776,257.33692291303305 31.27127659553662,257.72182241349947 33.32978723407723,258.5466061629122 34.0,258.7115627663443 35.14893617038615,259.3164032281493 36.10638297884725,259.9212430336629 36.48936170223169,260.03121383691905 36.92021276592277,260.2511553784134 37.97340425522998,260.5260821832344 38.5,260.4710968331783 38.45212765969336,260.4710968331783 38.45212765969336,260.4710968331783 38.30851063854061,260.5260821832344 38.40425531915389,260.4710968331783 38.45212765969336,260.4710968331783 38.5,260.5260821832344 38.21276595722884,260.4710968331783 37.59042553184554,260.4710968331783 35.48404255299829,260.5260821832344 34.04787234053947,260.08619923051447 32.65957446815446,259.8112722088117 31.27127659553662,259.70130136219086 29.88297872338444,259.75628678809153 29.16489361715503,259.8112722088117 27.77659574477002,259.9212430336629 27.15425531892106,259.9212430336629 25.0,259.75628678809153 24.32978723407723,259.5913304936839 23.0372340423055,259.2614177586511 22.36702127661556,258.93150482838973 21.07446808507666,258.4916206173948 20.40425531915389,258.27167838194873 17.67553191492334,257.72182241349947 15.90425531915389,257.007008843997 15.76063829776831,256.6770945797325 16.33510638284497,256.5671231148881 16.57446808507666,256.5671231148881 16.76595744676888,256.3471801203559 16.57446808507666,256.29219435801497 16.09574468061328,256.18222281726776 15.85638297861442,256.1272370388615 15.71276595746167,256.0722512549255 15.42553191492334,256.0722512549255 15.23404255323112,255.96227967075538 14.99468085099943,255.96227967075538 14.75531914876774,255.96227967075538 14.42021276592277,255.8523080649902 14.18085106369108,255.7423364375718 14.03723404253833,255.6873506156844 13.55851063830778,255.4124214250478 13.4148936169222,255.30244971072534 13.17553191492334,255.1374920986127 13.03191489353776,255.02752033027355 12.88829787238501,254.86256263690302 12.69680851045996,254.64261896983953 12.36170212761499,254.3676892640069 12.07446808507666,254.20273137534969 11.93085106369108,254.09275942249224 11.69148936169222,253.81782944552833 11.59574468061328,253.32295514538419 11.59574468061328,252.88306650985032 11.54787234053947,252.6081359362579 11.5,252.38819137983955 11.64361702115275,251.94830200687284 11.59574468061328,251.34345355216647 11.59574468061328,251.06852221954614 11.54787234053947,250.90356335480465 11.64361702115275,250.73860444140155 11.59574468061328,250.68361812614603 11.64361702115275,250.29871376691153 11.69148936169222,250.02378191897878 11.93085106369108,249.96879553317558 12.40957446815446,249.80383634311147 12.64893617015332,249.69386352261063 12.79255319130607,249.63887710432755 13.07978723407723,249.52890425140504 13.12765957438387,249.52890425140504 13.12765957438387,249.4739178167074 13.17553191492334,249.4739178167074" stroke="#4dd2ff" stroke-linecap="round" stroke-linejoin="round" stroke-width="0.5"><title>2021-03-02 1.4km</title></polyline><polyline fill="none" points="46.46046511642635,255.39670685463352 46.77441860502586,255.54094889492262 50.22790697682649,256.1900377253187 52.42558139562607,256.98336773522897 53.2418604651466,257.3439720008755 55.43953488394618,257.92093845579075 56.25581395346671,257.92093845579075 58.579069767612964,257.77669688494643 59.33255813969299,257.5603344748379 61.65581395360641,257.41609283257276 63.10000000009313,257.92093845579075 63.85348837217316,258.209421512729 65.17209302354604,258.71426658827113 66.42790697677992,258.93062865681713 67.99767441884615,258.786387285043 68.24883720930666,258.64214588463074 68.5,258.786387285043 68.4372093025595,259.79607629112434 67.30697674443945,260.08455860830145 66.36511627910659,260.8778843934997 65.9255813951604,261.0221253531636 65.48604651167989,261.1663662841311 65.23488372098655,261.1663662841311 64.85813953494653,261.2384867388173 64.60697674448602,261.3827276270604 63.72790697682649,261.743329723482 63.85348837217316,262.10393164196284 64.29302325588651,262.39241304877214 64.29302325588651,262.4645333828521 64.29302325588651,262.5366537095397 64.35581395355985,262.4645333828521 64.04186046519317,262.39241304877214 63.66511627915315,262.5366537095397 63.53953488403931,262.6087740291259 63.41395348822698,262.68089434184367 63.351162790786475,262.75301464722725 63.351162790786475,262.75301464722725 63.10000000009313,262.39241304877214 62.97441860474646,262.24817235959927 62.78604651149362,262.03181127260905 62.72325581405312,261.8875705123064 62.09534883755259,261.743329723482 61.84418604662642,261.743329723482 61.53023255825974,261.743329723482 61.21627907012589,261.67120931850513 60.83953488408588,261.67120931850513 60.52558139548637,261.67120931850513 59.89767441875301,261.52696848718915 59.583720930153504,261.45484806067543 59.26976744225249,261.3827276270604 58.95581395342015,261.3106071865186 58.32790697691962,261.1663662841311 58.07674418599345,261.0221253531636 57.7627906978596,260.9500048768823 57.44883720949292,260.8057639031322 57.13488372089341,260.6615229010349 56.8837209304329,260.4451613446581 56.31860465137288,260.1566791696823 55.75348837208003,259.86819688096875 55.31395348883234,259.4354732345091 55.0,259.2912319623283 54.68604651163332,259.1469906614511 54.372093023499474,259.0027493322268 54.058139534667134,258.85850797448074 53.86976744211279,258.786387285043 53.3674418607261,258.57002517359797 53.11627907003276,258.4979044556967 52.86511627910659,258.4257837305777 52.613953488413244,258.28154225915205 52.3000000002794,258.209421512729 51.98604651167989,258.13730075926287 51.295348837273195,258.06517999846255 51.04418604681268,257.99305923079373 50.730232558213174,257.92093845579075 50.35348837217316,257.92093845579075 50.10232558147982,257.84881767391926 49.47441860474646,257.77669688494643 49.16046511637978,257.63245528534753 48.59534883731976,257.1997303159442 47.967441860586405,256.98336773522897 47.71627906989306,256.9112468608073 47.402325581759214,256.8391259793425 47.02558139548637,256.76700509065995 46.77441860502586,256.6948841949343 46.46046511642635,256.5506423818297 45.89534883736633,256.2621586708119 45.58139534899965,256.1179167724913 45.330232558073476,255.97367484582355 44.70232558157295,255.6130699045607 44.51395348855294,255.46882787835784 44.26279069762677,255.32458582380787 43.69767441879958,254.96398056240287 43.44651162810624,254.7476173203322 43.13255813973956,254.3148906439892 42.69302325602621,253.81004253140418 41.93953488371335,253.23307283304166 41.93953488371335,253.01670907909283 41.81395348859951,252.65610267966986 41.68837209348567,252.36761743220268 41.5,251.43003959202906 41.68837209348567,251.06943241041154 41.75116279069334,250.7088250509696 41.81395348859951,250.42033903533593 41.876744186505675,250.20397444895934 41.876744186505675,249.84336666268064 41.876744186505675,248.9057855863357 41.876744186505675,248.25669029093115 42.56744186067954,247.96820330794435 43.06976744206622,247.67971621121978 43.5093023260124,247.53547262010397 43.82325581437908,247.46335081395227 43.94883720949292,247.31910718022846 44.82790697691962,247.24698535277275" stroke="#4dd2ff" stroke-linecap="round" stroke-linejoin="round" stroke-width="0.5"><title>2020-12-25 1.0km</title></polyline><polyline fill="none" points="71.90601503755897,251.8813230539672 72.2105263157282,252.17278965492733 72.46428571431898,252.46425611217273 73.02255639084615,252.814015671378 75.20488721807487,253.3969478099607 76.37218045117334,253.7467068171827 77.13345864671282,253.92158624331933 80.68609022558667,255.32061978871934 81.7011278194841,256.02013531984994 82.86842105258256,256.5447714247275 84.59398496244103,257.185992698709 85.25375939835794,257.30257831001654 86.47180451150052,257.30257831001654 87.1823308269959,257.30257831001654 88.40037593967281,257.06940706435125 89.51691729342565,256.95282140676863 90.78571428591385,257.0111142384121 91.49624060164206,256.95282140676863 93.47556390985847,257.30257831001654 94.13533834577538,257.53574946388835 95.40413533826359,257.76892052585026 96.11466165445745,257.7106277688872 97.38345864671282,257.6523350063362 97.94172932347283,257.5940422380809 98.5,257.82721327705076 98.44924812018871,257.8855060223141 98.29699248145334,257.94379876181483 98.24624060164206,258.00209149578586 98.24624060164206,258.0603842238197 98.19548872183077,258.00209149578586 98.09398496244103,258.118676946091 98.09398496244103,258.00209149578586 98.14473684248514,258.0603842238197 98.19548872183077,258.118676946091 98.14473684248514,258.0603842238197 98.24624060164206,257.94379876181483 98.19548872183077,257.94379876181483 98.14473684248514,257.94379876181483 98.14473684248514,258.00209149578586 98.14473684248514,257.94379876181483 98.14473684248514,257.94379876181483 98.14473684248514,257.94379876181483 98.14473684248514,258.00209149578586 98.09398496244103,258.00209149578586 98.09398496244103,258.00209149578586 98.04323308262974,258.00209149578586 97.99248120328411,258.00209149578586 98.09398496244103,258.00209149578586 98.09398496244103,258.00209149578586 98.09398496244103,258.00209149578586 98.04323308262974,258.00209149578586 98.04323308262974,258.0603842238197 97.94172932347283,258.00209149578586 96.77443609037437,258.00209149578586 95.45488721807487,258.00209149578586 94.13533834577538,257.7106277688872 93.52631578966975,257.53574946388835 92.25751879694872,257.185992698709 91.5977443610318,257.06940706435125 90.22744360892102,257.06940706435125 89.5676691730041,257.0111142384121 88.19736842112616,257.127699884295 86.77631578943692,257.30257831001654 86.11654135352,257.30257831001654 84.74624060164206,257.24428550724406 84.03571428568102,257.06940706435125 80.83834586455487,256.02013531984994 80.17857142863795,255.78696356801083 78.30075187981129,255.32061978871934 77.79323308262974,255.26232679048553 75.76315789483488,254.91256868001074 74.59586466150358,254.38793112634448 73.93609022558667,254.0381724986364 72.66729323309846,253.3386546219699 71.5,252.93060214509023" stroke="#4dd2ff" stroke-linecap="round" stroke-linejoin="round" stroke-width="0.5"><title>2020-12-08 1.1km</title></polyline><polyline fill="none" points="101.5,252.21688039737637 101.75961538474075,252.26657923389575 103.49038461549208,253.6084459623671 104.05288461549208,253.80724072939483 106.25961538474075,254.45332318075816 107.29807692323811,254.75151480198838 107.81730769248679,254.95030911802314 109.02884615398943,255.39759604274877 110.11057692323811,255.94427952257684 110.67307692323811,256.29216870098026 113.44230769225396,257.2364381174557 114.04807692347094,257.2861364587152 115.77884615398943,257.0873430640495 116.29807692323811,257.0376447030285 119.02403846173547,257.0873430640495 119.58653846150264,257.13704142006463 121.27403846173547,257.6340247109474 123.00480769248679,257.7831196025945 123.52403846173547,257.73342131017125 124.6490384619683,257.7831196025945 126.37980769225396,257.53462809184566 126.89903846173547,257.4849297750625 127.98076923098415,257.3855331266823 128.5,257.33583479523077 128.2836538462434,256.9382479664928 127.07211538474075,256.88854959077435 126.55288461549208,256.9382479664928 125.47115384647623,257.2364381174557 125.08173076948151,257.33583479523077 123.95673076948151,257.5843264038558 123.4375,257.6340247109474 122.35576923098415,257.6340247109474 121.79326923098415,257.53462809184566 120.71153846150264,257.33583479523077 120.19230769271962,257.1867397711321 118.50480769248679,256.88854959077435 117.94230769248679,256.88854959077435 116.81730769248679,256.9382479664928 116.21153846150264,256.9382479664928 115.08653846173547,257.0376447030285 113.96153846173547,257.0873430640495 112.87980769248679,257.0376447030285 111.84134615398943,256.78915282484377 111.32211538474075,256.64005763921887 110.19711538497359,256.29216870098026 109.67788461549208,256.09337491414044 108.63942307699472,255.74548559851246 107.25480769225396,255.34789751510834 106.86538461549208,255.29819898269488 105.82692307699472,255.04970624673297 104.39903846173547,254.6024190133612 104.00961538474075,254.3042273040046 103.10096153849736,253.80724072939483 102.62500000023283,253.55874725829926" stroke="#4dd2ff" stroke-linecap="round" stroke-linejoin="round" stroke-width="0.5"><title>2020-12-03 1.3km</title></polyline><polyline fill="none" points="158.21478873235174,255.7097914389451 158.45246478868648,256.5833735263441 158.5,256.85636764595984 157.69190140860155,257.3477567220689 156.31338028167374,257.29315795737784 154.41197183099575,256.96556525613414 152.60563380271196,256.2011815327569 151.98767605633475,256.09198377176654 148.47007042262703,254.72700994316256 147.18661971832626,254.50861381803406 145.23767605633475,254.56321285746526 143.90669014072046,254.50861381803406 142.9559859156143,254.50861381803406 142.38556338031776,254.50861381803406 141.102112676017,254.3994157234556 140.674295774661,254.3448166680755 139.200704225339,254.23561854078434 138.63028169004247,254.18101946933893 136.63380281697027,254.0172222222318 136.01584507036023,253.90802403050475 134.7799295776058,253.79882581724087 133.16373239457607,253.08903690631269 132.54577464796603,252.870640135312 131.5,252.65224327798933 132.68838028167374,252.92523933615303 133.73415492963977,253.41663190134568 134.7799295776058,253.90802403050475 135.397887323983,253.9626231289585 136.96654929593205,254.12642039224738 137.44190140836872,254.18101946933893 138.6778169015888,254.29021760710748 139.2957746477332,254.3448166680755 140.5792253522668,254.3448166680755 141.14964788756333,254.3994157234556 142.43309859163128,254.50861381803406 143.00352112669498,254.50861381803406 144.76232394366525,254.56321285746526 145.33274647896178,254.56321285746526 146.18838028167374,254.4540147734224 146.473591549322,254.4540147734224 146.66373239434324,254.4540147734224 146.85387323936448,254.4540147734224 147.0440140843857,254.4540147734224 147.2816901409533,254.3994157234556 147.5193661970552,254.3994157234556 147.9947183097247,254.4540147734224 148.18485915497877,254.4540147734224 148.61267605656758,254.61781189130852 149.04049295769073,254.83620797318872 148.99295774661005,254.94540598179447 148.99295774661005,255.00000497797737 148.9454225350637,255.00000497797737" stroke="#4dd2ff" stroke-linecap="round" stroke-linejoin="round" stroke-width="0.5"><title>2020-11-30 1.0km</title></polyline></svg>