<?xml version="1.0" encoding="utf-8" ?>
<svg baseProfile="full" height="300mm" version="1.1" viewBox="0,0,200,300" width="200mm" xmlns="http://www.w3.org/2000/svg" xmlns:ev="http://www.w3.org/2001/xml-events" xmlns:xlink="http://www.w3.org/1999/xlink"><defs /><rect fill="#222222" height="300" width="200" x="0" y="0" /><text fill="#FFFFFF" style="font-size:12px; font-family:Arial; font-weight:bold;" x="10" y="20">Over 3km Runs</text><text fill="#FFFFFF" style="font-size:4px; font-family:Arial" x="10" y="280">ATHLETE</text><text fill="#FFFFFF" style="font-size:9px; font-family:Arial" x="10" y="290">jdzj</text><text fill="#FFFFFF" style="font-size:4px; font-family:Arial" x="120" y="280">STATISTICS</text><text fill="#FFFFFF" style="font-size:3px; font-family:Arial" x="120" y="285">Number: 36</text><text fill="#FFFFFF" style="font-size:3px; font-family:Arial" x="120" y="290">Weekly: 3.3</text><text fill="#FFFFFF" style="font-size:3px; font-family:Arial" x="141" y="285">Total: 70.3 km</text><text fill="#FFFFFF" style="font-size:3px; font-family:Arial" x="141" y="290">Avg: 2.0 km</text><text fill="#FFFFFF" style="font-size:3px; font-family:Arial" x="167" y="285">Min: 1.0 km</text><text fill="#FFFFFF" style="font-size:3px; font-family:Arial" x="167" y="290">Max: 4.9 km</text><polyline fill="none" points="19.7708860761486,38.55801729654195 21.68481012666598,39.348454042105004 24.008860759902745,37.372360675712116 33.236708860844374,35.870526368147694 37.33797468361445,37.53044832928572 38.5,40.29697707982268 37.064556962344795,48.20129086408997 25.44430379755795,52.31150237331167 12.320253164507449,54.129473631910514 11.5,52.78575615363661 17.17341772140935,36.50287800800288" stroke="#4dd2ff" stroke-linecap="round" stroke-linejoin="round" stroke-width="0.5"><title>2021-05-01 1.0km</title></polyline><polyline fill="none" points="61.87958048470318,43.89144496811787 60.243929035263136,46.50013982632663 57.81865274859592,41.478392811026424 57.93145629670471,39.652293273073155 59.905518390703946,36.58704311598558 63.00761596718803,35.28267691930523 71.01666789175943,35.41311365773436 75.69801514339633,31.5 69.77582886116579,35.67398705566302 55.844590654363856,33.78265252505662 54.660153397824615,34.36961900861934 52.34768065926619,39.32620352465892 51.55805582134053,51.45663092919858 50.599225661484525,54.58702669781633 49.47119017899968,55.0435414754902 49.3019848568365,58.5 50.20441324263811,58.04348767379997 50.599225661484525,55.89135377493221 52.122073562582955,38.93489560863236 54.152537430869415,36.91313425207045 54.998564042383805,37.43487972620642" stroke="#4dd2ff" stroke-linecap="round" stroke-linejoin="round" stroke-width="0.5"><title>2021-05-01 1.8km</title></polyline><polyline fill="none" points="109.35151710780337,42.547293722542236 108.41026468691416,42.70747328280413 106.87637185282074,43.808704337629024 105.01129761134507,43.72861500787258 104.68011620396283,44.12906134077639 104.73240800516214,43.748637343305745 103.47740477730986,44.16910593061766 100.51420271140523,43.78868200814759 98.77114267268917,43.98890521413705 98.24822466110345,43.708592670518556 96.34828921884764,44.068994441171526 92.06036152353045,44.16910593061766 87.78986442863243,43.72861500787258 86.5,44.82984052217216 86.58715300186304,45.21026249312854 91.6071659134468,46.191347443367704 92.1475145255099,46.03117063254467 93.14105874759844,46.551744805517956 95.79051000642357,46.59178891735792 97.44641704321839,47.232493632429396 98.16107165906578,47.01225161476759 100.04357650096063,47.45273541120696 100.51420271140523,47.81313053362828 101.68205293739447,47.953284019517014 101.99580374429934,47.71302084159106 102.84990316332551,48.11345931352116 103.9131697868579,47.933262098929845 105.69109102641232,48.45383139346086 105.84796642995207,47.97330593819788 106.23143963847542,47.933262098929845 106.94609425426461,48.313678253180115 107.19012265978381,47.73304278393334 108.23595868301345,47.172427651370526 109.49096191086574,45.91103794146329 110.88540994183859,45.37043995175918 111.61749515816336,44.4894623648579 112.83763718529372,44.109039042916265 113.5,43.18801120518765 113.15138799225679,42.126821775280405 112.6110393802519,41.54616860652459 111.51291155582294,42.246956706250785 109.83957391860895,42.14684426873282 109.73499031632673,42.78756301557587 107.38185926398728,43.94886058874545 107.86991607490927,44.409373303700704 108.20109748223331,44.1891282225406 109.3340865073842,45.05008490809996 110.27533892838983,44.90992941746663 110.3450613298919,44.66966263690847" stroke="#4dd2ff" stroke-linecap="round" stroke-linejoin="round" stroke-width="0.5"><title>2021-04-30 3.7km</title></polyline><polyline fill="none" points="150.78672985779122,43.23623378251796 149.08056872035377,45.685921138414415 148.14218009449542,45.83290199568728 138.84360189572908,43.28522764809895 130.56872037914582,43.23623378251796 131.67772511858493,44.16711640084395 124.0,41.86440358625259 130.14218009449542,44.020135050668614 139.95260663493536,44.951016200036975 150.06161137414165,48.13559641374741 151.0,47.93962283618748 149.72037914698012,47.498682004312286" stroke="#4dd2ff" stroke-linecap="round" stroke-linejoin="round" stroke-width="0.5"><title>2021-04-29 1.4km</title></polyline><polyline fill="none" points="171.87571428576484,44.33554940490285 174.07428571442142,42.60747186263325 173.3028571428731,41.233867020724574 174.6528571427334,40.79076778833405 183.87142857140861,31.973002128244843 184.95142857148312,31.840069662663154 188.5,35.916647371283034 183.9871428569313,38.84112597076455 184.488571428461,38.88543610589113 181.6728571425192,41.942824883182766 182.86857142834924,41.499726350361016 183.1385714286007,40.48059806539095 181.78857142850757,41.58834609185578 175.34714285703376,49.38681485856068 170.98857142869383,51.95673512283247 168.01857142848894,54.57094926701393 167.82571428571828,56.25467235324322 165.39571428578347,58.15993033730774 163.39000000013039,57.14083986292826 161.5,54.43802349138423 161.6542857142631,51.823808573390124 164.31571428570896,50.583158880413976 165.28000000002794,49.07665107343928 167.9414285714738,47.924612281436566 168.4428571430035,46.77257053373614 169.75428571435623,46.01931086977129 170.14000000013039,44.6900260274997 171.14285714295693,43.936762870056555 172.26142857130617,44.20262059936067 172.49285714281723,43.360737249982776" stroke="#4dd2ff" stroke-linecap="round" stroke-linejoin="round" stroke-width="0.5"><title>2021-04-26 2.2km</title></polyline><polyline fill="none" points="27.429649018566124,83.72947800598922 28.16590629715938,82.71446476058918 29.01996473991312,72.05664420773974 31.906093271332793,61.5 29.255567069048993,71.8874697809515 27.164596398244612,72.86868029402103 24.131216411362402,72.6656714527926 20.98003525985405,73.13935856189346 19.330818956252187,74.15440016260254 18.18225760187488,75.77846047110506 18.09390672855079,85.72566195391119 19.41916982969269,88.16166729407269 20.30267856363207,88.5 20.891684386413544,88.19550057966262 24.072315829223953,85.52266072752536 25.161976601113565,86.26699797008769 26.222187082050368,85.488827178051 26.4283391200006,84.60915372084128" stroke="#4dd2ff" stroke-linecap="round" stroke-linejoin="round" stroke-width="0.5"><title>2021-04-25 2.2km</title></polyline><polyline fill="none" points="63.54328879958484,88.5 62.74709471571259,82.57028896175325 63.186374210286885,79.19535109811113 62.74709471571259,72.9185027051426 63.15891924186144,61.97315048170276 62.82945962098893,61.5 62.14308541070204,61.97315048170276 61.45671120041516,73.13929845957318 61.731260884553194,84.11580935536767 62.82945962098893,84.4312207622861 62.91182452614885,84.14735051008756 63.049099368276075,78.753767806018 62.6921847788617,82.94878444314236" stroke="#4dd2ff" stroke-linecap="round" stroke-linejoin="round" stroke-width="0.5"><title>2021-04-18 2.2km</title></polyline><polyline fill="none" points="113.5,78.84329710557358 108.66475644684397,78.35455802554497 94.0429799426347,73.95588244483224 87.58309455565177,73.33384404791286 86.5,72.62294197097071 94.1977077361662,72.53407913257251 95.89971346687526,71.15670289442642 99.22636103141122,72.66737338370876" stroke="#4dd2ff" stroke-linecap="round" stroke-linejoin="round" stroke-width="0.5"><title>2021-04-16 1.0km</title></polyline><polyline fill="none" points="151.0,77.16544545063516 150.20920502085937,77.37630865129177 149.88441422593314,76.71127763851837 149.31956066942075,76.48419326210569 148.5993723848951,76.66261672708788 148.34518828446744,76.45175261124677 147.99215481168358,75.96514208130247 148.61349372385303,74.86215288248786 148.4016736401245,74.05112669288064 147.97803347278386,73.87270039442228 144.68776150629856,74.09978837710514 141.87761506275274,73.85647981220973 140.50784518831642,74.1808911520493 139.92887029290432,73.95380328134343 138.99686192470836,74.05112669288064 138.77092050213832,73.85647981220973 136.9351464434876,74.06734725587012 136.28556485357694,73.84025922839646 135.53713389125187,74.05112669288064 134.7887029288686,73.74293569203292 133.20711297076195,74.03490612830501 131.9079497908242,73.51584721657855 130.8347280335147,73.6456120981311 130.22751046030317,72.89946263092861 129.1260460250778,72.9643453276658 128.12343096232507,72.6561522900156 127.71391213394236,72.85080059153552 127.14905857742997,72.29929647214885 126.3158995815902,72.59126947163895 125.10146443516714,72.18575127677468 124.39539748959942,72.55882805289002 124.88964435155503,72.20197202375857 125.00261506275274,72.75347646955925 124.0,72.70481438699062 124.84728033473948,72.39662086291355 124.43776150635676,72.49394519609632 124.87552301259711,72.46150375812431 124.52248953975504,72.60749017864873 124.74843096238328,72.85080059153552 124.50836820085533,72.6561522900156 124.84728033473948,72.54260734103445 124.74843096238328,72.36417940571846 124.46600418409798,72.46150375812431 124.56485355651239,72.70481438699062 125.00261506275274,72.52638662765094 124.79079497908242,72.44528303669358 124.7625523013412,72.67237299059343 124.87552301259711,72.38040013515274 124.72018828458386,72.67237299059343 124.81903765688185,72.44528303669358 124.88964435155503,72.6237108840287 124.67782426782651,72.03976448181493 124.80491631804034,72.46150375812431 124.73430962342536,72.18575127677468 124.7625523013412,72.46150375812431 124.4801255229977,72.25063425516419 124.57897489547031,72.10464751777181 124.67782426782651,72.25063425516419 124.46600418409798,72.33173794214963 124.74843096238328,72.47772447788157 124.52248953975504,72.34795867474168 124.79079497908242,72.10464751777181 124.59309623437002,72.44528303669358 124.36715481174178,72.44528303669358 124.59309623437002,72.02354371879483 124.3812761506415,72.16953052819008 124.72018828458386,72.46150375812431 124.4801255229977,72.31551720792777 124.52248953975504,72.46150375812431 124.59309623437002,72.33173794214963 124.66370292886859,73.01300733347307 124.52248953975504,74.53774288666318 125.89225941424957,74.82971191170509 126.00523012556368,75.08923949877499 127.23378661094466,74.97569622984156 127.93985355651239,75.23522358651098 133.57426778244553,75.47853011143161 139.1380753138801,76.19222717446974 141.80700836819597,76.28954926127335 142.9932008368778,76.54907454446948 144.36297071131412,77.24654671369353 146.50941422587493,77.00324280455243 146.73535564856138,77.39252888633928 147.03190376568818,77.26276696148852 149.05125523015158,77.68449284293456 149.40428870293545,77.97645628120517 150.0397489540046,77.830474626855 150.2374476987752,77.23032646426873 150.8023012552294,77.00324280455243" stroke="#4dd2ff" stroke-linecap="round" stroke-linejoin="round" stroke-width="0.5"><title>2021-04-09 4.9km</title></polyline><polyline fill="none" points="187.95496894442476,76.44471134166815 179.48602484492585,73.98871357101598 178.52173913060687,73.0737308509415 172.56832298170775,73.55530091744731 168.25000000023283,73.1218878790387 169.04658385110088,73.60345789804705 168.6692546585109,73.79608577254112 161.5,72.15874641618575 167.45341614913195,73.94055662854225 176.00621118023992,74.66291026771069 187.87111801258288,77.84125358381425 186.2779503108468,77.21521790020051 188.5,76.92627808329416 187.913043478271,76.20392779266695" stroke="#4dd2ff" stroke-linecap="round" stroke-linejoin="round" stroke-width="0.5"><title>2021-04-09 1.4km</title></polyline><polyline fill="none" points="12.573863636469468,103.50223745114636 13.877840909175575,104.60354574551457 23.31250000023283,108.21581789135234 27.492897727293894,108.03961017174879 31.1363636367023,108.788492499938 37.8863636367023,108.03961017174879 38.5,107.29072658804944 35.7769886367023,106.58589383284561 32.51704545458779,107.2466745733982 29.142045454587787,105.96916425964446 26.342329545645043,106.18942491928465 21.586647727293894,103.76655168936122 20.973011363763362,102.6211888602993 18.25000000023283,101.56392825720832 16.178977272938937,101.2115075000911 11.5,102.3568739441107" stroke="#4dd2ff" stroke-linecap="round" stroke-linejoin="round" stroke-width="0.5"><title>2021-04-08 1.4km</title></polyline><polyline fill="none" points="75.82467532483861,106.12775079283165 76.0,107.05411077366443 73.72077922080643,107.0943872469943 67.68961038975976,105.04028204680071 58.57272727275267,104.597238393937 53.768831168767065,102.9056127530348 49.0,103.63059602869907 53.52337662340142,103.10699712540372 58.327272727387026,104.55696167447604 67.2688311689999,104.95972869111574" stroke="#4dd2ff" stroke-linecap="round" stroke-linejoin="round" stroke-width="0.5"><title>2021-04-06 1.3km</title></polyline><polyline fill="none" points="94.74550898186862,100.9457708785194 98.14071856276132,99.88541559164878 99.54191616759636,101.00814466172596 99.54191616759636,102.19324533944018 98.6257485030219,102.69223441329086 100.24251497001387,104.4386929749744 101.91317365248688,104.62581324036 104.06886227522045,103.62783783260966 106.49401197605766,100.57152804534417 108.64970059879124,101.38238722848473 110.42814371269196,100.32203269645106 113.44610778428614,100.69627568172291 113.44610778428614,96.89146135671763 113.12275449116714,99.19930237036897 111.34431137726642,98.88743247062666 113.5,99.26167633139994 113.39221556880511,100.88339708879357 108.7574850297533,101.32001348305494 106.49401197605766,100.50915421778336 102.82934131729417,105.12480033526663 103.69161676662043,104.37631954066455 99.64970059879124,104.31394609995186 98.84131736494601,102.94172879809048 100.02694610785693,102.94172879809048 99.91916167666204,102.3179926458979 98.51796407182701,99.82304169406416 97.92514970037155,100.69627568172291 96.73952095792629,100.57152804534417 95.23053892189637,103.81495834531961 90.2185628740117,106.43463952775346 88.60179640701972,109.42854717787122 88.38622754462995,107.12074465502519 87.95508982008323,110.0522760989843 87.57784431125037,108.68007163546281 87.95508982008323,109.61566592089366 87.6317365267314,108.8048176226439 89.84131736517884,109.9275303655304 91.61976047884673,112.609558043594 93.93712574825622,112.42244021419901 94.58383233519271,111.11261380888755 93.18263473035768,110.48888596630422 94.4221556885168,110.48888596630422 93.82934131729417,111.23735930153634 93.29041916131973,110.73837717954302 93.93712574825622,111.48685021017445 94.09880239493214,110.86312274809461 94.36826347303577,112.29769496276276 93.45209580799565,113.10853864328237 90.4880239518825,112.85904839425348 87.73952095769346,109.61566592089366 88.22455089795403,106.80887878325302 88.54790419130586,109.05430952075403 86.5,110.23939465155127 87.09281437122263,109.2414283779217 86.71556886192411,110.48888596630422 88.22455089795403,109.42854717787122 88.4401197603438,106.68413239018992" stroke="#4dd2ff" stroke-linecap="round" stroke-linejoin="round" stroke-width="0.5"><title>2021-04-05 1.9km</title></polyline><polyline fill="none" points="145.23379468498752,112.10341087402776 144.17500136501621,112.6364659423416 144.5893117946107,111.99679972996819 145.32586366939358,111.99679972996819 145.48698439181317,111.5437018830562 144.65836353285704,116.47443036714685 142.88603558414616,117.75373932847288 142.7939665997401,118.5 142.72491486161016,117.75373932847288 144.72741527110338,116.5543873605202 145.39491540763993,113.9424462687748 145.85526032932103,109.78460868593538 144.70439802494366,108.95836385842995 142.2185354476096,108.50526074811933 140.74543169816025,109.65134356773342 137.6611207226524,110.53089209322934 132.04491267749108,113.91579367421218 131.03215384972282,112.28998027148191 129.85827429941855,112.79638225099188 129.3058603933314,112.58316048438428 126.08344594121445,98.75002694319119 125.89930797251873,96.21787125550327 127.5335324446205,103.6276893276954 128.03991185850464,103.84091839494067 133.95534410269465,101.1488886642328 138.51275882776827,99.6829202270601 141.36689734249376,98.08367256019847 145.3718981614802,94.85849335137755 147.74267450836487,91.5 149.10069202748127,92.19302596943453 148.93957130482886,92.40626435974264 148.3871573987417,92.2196807777218 148.7093988439301,91.95313257249654 148.7093988439301,92.37960957048927 148.8475023205392,91.65992923290469 148.06491595355328,91.89982289876207" stroke="#4dd2ff" stroke-linecap="round" stroke-linejoin="round" stroke-width="0.5"><title>2021-04-05 3.7km</title></polyline><polyline fill="none" points="168.31308411201462,95.2103965000133 172.60280373785645,98.61973999917973 176.13551401905715,108.45806303771678 176.2196261677891,113.42589063744526 178.15420560725033,113.03625803388422 180.08878504671156,114.7896034999867 184.46261682221666,111.57513435458532 188.5,112.64662527100882 180.25700934557244,110.69845907430863 180.25700934557244,113.91293116903398 180.67757009342313,109.43214891641401 180.5093457940966,114.10774731216952 180.76168224262074,112.54921705560992 177.39719626121223,113.23107435565908 179.66822429932654,111.76995097420877 180.845794392284,113.91293116903398 178.7429906539619,112.54921705560992 180.25700934557244,112.15958409424638 179.9205607478507,114.01033924537478 180.845794392284,114.01033924537478 179.75233644852415,112.06217582896352 181.68691588751972,114.4973794791731 179.75233644852415,112.74403347651241 179.9205607478507,111.18550099607091 181.35046728979796,113.42589063744526 180.0046728970483,111.2829093504115 177.7336448598653,111.18550099607091 176.72429906530306,113.71811498625902 176.9766355138272,112.45180883031571 172.68691588798538,109.23733182030264 174.3691588784568,103.00316376599949 172.68691588798538,103.6850278780912 172.77102803764865,101.15238729520934 167.80841121450067,98.4249206984532 161.5,99.00937848177273 165.03271028026938,100.2757024524617 166.2102803736925,103.58761874877382" stroke="#4dd2ff" stroke-linecap="round" stroke-linejoin="round" stroke-width="0.5"><title>2021-04-04 1.4km</title></polyline><polyline fill="none" points="28.167597765568644,122.9137280768482 19.79608938563615,126.72593444224913 11.726256983354688,136.08309806726174 19.343575419392437,144.48713224026142 23.79329608939588,139.46204931195825 28.99720670422539,137.29605642065872 29.148044693283737,134.43693762167823 33.97486033523455,130.88468614366138 26.88547486020252,121.87403255852405 20.927374301943928,125.85952535836259 11.5,136.60293756675674 19.19273743033409,143.5341014813166 23.71787709509954,138.24909395119175 31.1089385477826,137.03613691445207 33.29608938563615,135.38997825584374 34.42737430194393,131.05796703702072 34.1256983242929,130.27820274728583 33.22067039133981,132.01101133896736 30.581005586776882,133.31061553861946 30.50558659248054,132.5308532496565 38.5,127.24577948241495 35.558659218251705,125.68624343891861 32.4664804469794,121.87403255852405 30.731843575369567,124.73319227073807 25.452513966709375,122.48052176041529 15.044692737516016,131.8377306337352 11.80167597765103,136.42965776781784 19.343575419392437,143.5341014813166 23.79329608939588,138.85557184100617 24.472067039459944,139.3754096989869 22.58659217879176,141.97459437139332 32.91899441368878,144.14057572046295 36.23743016785011,148.12596744153416 29.223463687114418,135.3033382408903 29.977653631474823,132.9640546067385 33.673184358049184,129.84500006528106 29.60055865952745,127.33242029225221 27.337988826911896,123.00036931439536 25.754189944360405,122.39388047158718 24.39664804469794,123.34693417925155 25.075418994762003,123.95342236361466" stroke="#4dd2ff" stroke-linecap="round" stroke-linejoin="round" stroke-width="0.5"><title>2021-04-02 3.1km</title></polyline><polyline fill="none" points="65.56382978719193,145.4343305611983 62.40425531915389,144.3345724202518 56.444148936192505,144.22459636750864 49.981382978730835,143.37228048761608 49.43085106392391,142.8498920472921 49.0,140.23793516049045 49.622340425499715,139.74303530808538 50.914893617038615,139.68804638125584 49.74202127661556,136.03125840533176 50.02925531915389,131.08214564228547 51.824468085193075,128.52506961475592 52.5425531915389,126.7928434922942 55.96542553184554,124.42819997627521 57.353723404346965,125.94047430498176 58.64627659576945,126.21543239211314 59.31648936169222,127.01280931095243 62.14095744676888,127.01280931095243 66.49734042549971,127.70020137538086 68.60372340423055,128.80002515210072 72.0984042553464,131.90700387241668 75.40159574453719,137.62595379757113 75.49734042549971,138.36830888519762 74.73138297861442,139.028178414359 74.42021276592277,140.07296864059754 75.09042553184554,140.0454742111324 76.0,142.38249103396083 75.40159574453719,143.6197273019061 73.31914893607609,144.00464413187 72.8164893615758,144.63700634156703 71.64361702115275,144.05963220700505 71.14095744676888,144.27958439930808 69.89627659565303,143.89466794897453 69.29787234030664,145.5718000237248 69.10638297861442,145.37934275722364" stroke="#4dd2ff" stroke-linecap="round" stroke-linejoin="round" stroke-width="0.5"><title>2021-04-02 3.2km</title></polyline><polyline fill="none" points="89.32891246699728,132.71723626583116 98.46021220157854,136.78919727093307 103.40185676398687,136.74806655038265 106.40981432353146,137.44728824673803 110.45623342180625,136.4601513936359 113.5,136.50128214235883 106.62466843496077,137.40615759126376 103.61671087541617,136.7069358259323 98.74668435007334,136.953720112273 92.44429708225653,135.14396528797806 86.5,132.55271175326197" stroke="#4dd2ff" stroke-linecap="round" stroke-linejoin="round" stroke-width="0.5"><title>2021-04-01 1.4km</title></polyline><polyline fill="none" points="124.0,131.59926042420557 127.04909983626567,134.6954673033033 130.6284779049456,135.45682679719175 134.82651391159743,137.63938443706138 140.5711947628297,137.5378703335009 143.7528641570825,138.40073957582354 151.0,137.5378703335009 145.918166939402,138.29922562243883 139.77577741397545,137.3855991406017 134.29623567918316,137.63938443706138 126.07692307676189,135.40606953256065 125.23731587571092,134.94925392634468 126.2094926352147,134.5431952692743" stroke="#4dd2ff" stroke-linecap="round" stroke-linejoin="round" stroke-width="0.5"><title>2021-03-29 1.2km</title></polyline><polyline fill="none" points="174.50763466744684,148.5 173.24936770671047,141.4047617338947 172.37405155971646,141.15360141260317 168.10688534518704,135.00014268804807 165.26210786867887,134.74897984799463 174.12468385323882,121.5 177.07887584809214,123.32096613023896 182.87784531945363,129.22337237704778 182.27606546878815,133.43037331756204 184.7378921310883,147.8721059873933 176.91475407057442,142.6605618582107 174.06997659383342,142.09545210778015 173.79644029820338,143.28846099448856" stroke="#4dd2ff" stroke-linecap="round" stroke-linejoin="round" stroke-width="0.5"><title>2021-03-28 1.4km</title></polyline><polyline fill="none" points="24.667692307848483,160.10942592195352 26.204615384573117,161.01598240912426 26.57846153830178,160.25256653287215 28.07384615391493,160.157139463583 28.406153846299276,159.3937222318491 28.863076922949404,159.91857170814183 29.569230769295245,159.3937222318491 31.770769230555743,160.63427462166874 33.058461538515985,159.68000383497565 36.838461538311094,160.82512855296955 36.58923076931387,159.87085814285092 38.37538461526856,160.0617123756092 37.046153845964,159.58457665276364 37.37846153834835,158.8211585173267 37.46153846150264,159.87085814285092 37.253846153849736,159.3937222318491 36.79692307696678,160.01399882443366 36.87999999988824,159.2505813666503 37.46153846150264,160.0617123756092 36.838461538311094,159.87085814285092 38.08461538469419,159.72771741898032 38.08461538469419,160.20485300049768 37.544615384424105,159.5368630544981 36.672307692235336,160.01399882443366 38.416923076845706,159.72771741898032 37.87692307680845,159.29829499311745 37.710769230732694,160.7297015967779 36.963076923042536,160.10942592195352 36.87999999988824,160.63427462166874 37.9184615383856,159.9662852686888 37.46153846150264,160.01399882443366 38.5,161.30226305214455 38.37538461526856,159.91857170814183 37.75230769230984,160.01399882443366 38.08461538469419,160.68198811152251 37.17076923092827,160.96826895224513 37.046153845964,160.4434206149308 36.547692307736725,161.1591227517929 34.803076922893524,160.92055549059296 34.803076922893524,159.9662852686888 35.218461538432166,168.1729476553155 30.52461538463831,169.22262698729173 26.703076923033223,167.98209662307636 26.993846153840423,168.602362202917 25.830769230844453,167.98209662307636 19.101538461400196,167.64810713526094 15.736923076910898,168.65007490682183 15.446153846103698,170.36772911532898 14.656923077069223,170.9879916361242 11.956923076882958,171.1788414827024 11.5,170.4154416451056" stroke="#4dd2ff" stroke-linecap="round" stroke-linejoin="round" stroke-width="0.5"><title>2021-03-26 1.5km</title></polyline><polyline fill="none" points="51.853658536914736,163.28908159493585 60.414634146611206,166.78296138744918 63.42508710816037,166.56684608149226 66.0592334496323,167.14315327999066 69.8536585366819,166.38674989546416 71.35888501745649,166.56684608149226 76.0,164.90995782002574 71.89198606286664,166.56684608149226 66.59233449492604,166.99907656561118 63.80139372847043,166.42276913978276 60.69686411181465,166.67490375047782 54.017421602853574,165.0540353585675 49.0,162.85684672000934" stroke="#4dd2ff" stroke-linecap="round" stroke-linejoin="round" stroke-width="0.5"><title>2021-03-26 1.6km</title></polyline><polyline fill="none" points="113.5,167.39574562490452 111.43718166393228,167.13247799157398 108.36587436310947,165.18429346877383 105.75297113740817,165.23694719810737 101.99405772495084,163.76264081668342 92.82597623066977,164.0259101120173 94.20118845487013,164.71040967211593 93.65110356523655,164.8683709843317 86.5,162.60425437503727 92.27589134103619,164.81571721867658 100.48132427828386,165.34225464100018 107.49490662128665,167.02717090176884" stroke="#4dd2ff" stroke-linecap="round" stroke-linejoin="round" stroke-width="0.5"><title>2021-03-24 1.1km</title></polyline><polyline fill="none" points="151.0,166.98045260098297 149.055706521729,166.85404130007373 147.14809782616794,165.42137727636145 144.10326086962596,164.91573000318022 141.60869565233588,163.77802145073656 133.97826086962596,163.94657105699298 134.63858695677482,164.6629061421845 128.6589673915878,163.01954739898792 124.0,163.60947177780326 125.83423913037404,163.8622962621157 128.805706521729,163.06168488171534 134.3084239133168,164.74718077926082 144.32336956541985,165.16855371458223" stroke="#4dd2ff" stroke-linecap="round" stroke-linejoin="round" stroke-width="0.5"><title>2021-03-23 1.3km</title></polyline><polyline fill="none" points="187.96143617015332,166.34032829705393 178.87765957438387,163.16479310847353 175.17952127661556,163.78340575075708 171.51728723407723,163.37099742420833 172.52260638284497,164.0308505515568 172.12765957438387,164.15457289706683 166.34707446792163,162.42245672934223 161.5,163.12355223300983 165.98803191492334,162.50493861435098 171.40957446815446,164.0720913373807 178.59042553184554,164.56698045079247 188.5,167.57754327062867 186.88430851045996,166.7939742123708 188.5,166.34032829705393" stroke="#4dd2ff" stroke-linecap="round" stroke-linejoin="round" stroke-width="0.5"><title>2021-03-22 1.6km</title></polyline><polyline fill="none" points="34.49234889051877,181.66696286508522 34.86419280793052,181.92771207584883 34.65761285379995,182.75736678148678 36.53749043610878,183.0418191668141 37.0332823258359,183.4447928055597 36.86801836267114,184.17962535582774 37.61170619726181,184.6774138768087 38.5,186.21818136313232 37.96289211930707,187.64041954364802 37.177888293750584,187.97227391318302 36.88867635803763,188.8256116255361 33.06694720732048,192.1441184944124 28.85271614382509,193.77965152416436 27.53060443745926,194.63296870570048 26.518362662638538,195.4862828705518 23.56426931906026,199.56318669089524 11.5,208.33303713492933" stroke="#4dd2ff" stroke-linecap="round" stroke-linejoin="round" stroke-width="0.5"><title>2021-03-21 1.3km</title></polyline><polyline fill="none" points="61.23930905794259,192.65431547551998 60.89659695723094,190.4628218654252 58.5465711238794,187.5408042424533 57.59187312901486,187.2598394350207 54.36058760806918,190.20995613664854 51.15378152288031,194.28387675297563 50.34596014267299,194.5086430964584 49.46470045519527,196.89677457942162 50.95794603682589,199.032028183894 54.50746422261,200.7177434452169 58.35073563770857,203.83629046773422 58.13042071578093,204.00485960778315 58.64448886690661,203.94866990548326 58.179379587527364,203.69581610852038 58.766886045690626,204.67913517341367 60.06429614126682,206.22434401192004 64.98466273001395,208.5 67.53052404953633,208.24715022931923 73.5279858118156,204.06104929899448 74.33580719213933,202.37535375673906 75.53529954468831,196.98106120841112 74.33580719213933,194.90198377234628 69.85607044724748,190.77187967445934 65.00914216588717,184.67495024375967 61.41066510824021,181.5 57.37155820708722,187.11935692763655 58.10594128014054,187.20364644034998 59.10959814640228,188.13082943920745 61.067953007644974,190.63139889360173 61.04347357188817,191.41809037700295" stroke="#4dd2ff" stroke-linecap="round" stroke-linejoin="round" stroke-width="0.5"><title>2021-03-20 3.7km</title></polyline><polyline fill="none" points="110.83990147779696,201.79852100237622 101.61822660081089,198.8448868917476 91.86453201971017,198.53933757098275 86.63300492614508,197.4189885148371 86.5,195.58568481527618 87.25369458133355,194.7708810813201 86.54433497553691,193.395896864502 86.72167487675324,191.00239708510344 89.51477832510136,188.20147899762378 94.12561576371081,188.76166383081 98.8251231526956,190.34036327208742 107.69211822655052,190.1366603898059 112.43596059107222,189.37277386462665 113.01231527072378,188.7107379619556 112.16995073878206,190.6459174452175 111.63793103443459,197.21528842530097 112.0812807881739,200.57632962657954 113.5,200.83095306847827" stroke="#4dd2ff" stroke-linecap="round" stroke-linejoin="round" stroke-width="0.5"><title>2021-03-19 1.6km</title></polyline><polyline fill="none" points="134.9419953597244,194.7241834859742 140.80974477971904,197.2426167684025 143.0858468679944,197.09870699765452 145.06960556854028,197.53043605438143 147.1577726219548,197.07472202762438 148.2645011601271,197.1706618936878 151.0,196.3551718256931 145.9257540605031,197.50645112684288 143.31554524379317,197.09870699765452 140.39211136905942,197.21863181254594 128.7192575406516,193.50093505275436 124.0,192.9972427329194 125.0232018561801,193.14115493069403 124.33410672855098,192.85333044989966 124.542923433939,192.73340348235797 126.12993039446883,192.8293450611527 128.2389791184105,192.46956394561857 128.94895591656677,192.9972427329194 129.3665893272264,192.73340348235797 129.86774941999465,193.21311099771992 130.30626450118143,193.0691988425242 130.8700696056476,193.54890569548297 131.58004640380386,193.2850670433836 133.04176334117074,194.3404199340148 133.33410672855098,193.98064105407684 132.5823665894568,192.85333044989966 132.29002320196014,192.87731583633285 132.39443155459594,193.69281756679993 133.7517401392106,194.36440517377923 134.31554524379317,193.02122810516448 134.62877030181699,193.66883226085338 135.0464037123602,193.59687632865098 134.6078886311734,193.71680287044728 134.85846867761575,193.6448469524621 134.25290023209527,192.8053596700338 135.1508120651124,192.73340348235797" stroke="#4dd2ff" stroke-linecap="round" stroke-linejoin="round" stroke-width="0.5"><title>2021-03-19 3.1km</title></polyline><polyline fill="none" points="172.86185962153831,208.5 172.71021845994983,208.02971275118762 172.42210025299573,207.9774585351406 171.9975050004432,208.3780737964844 172.51308494986733,205.43440133267723 172.31595143978484,206.1485512315412 172.40693613677286,207.45491552402382 172.11881792976055,207.68135101867665 170.48109338455833,207.6465148076095 170.28395987441763,206.60142528064898 170.42043691989966,205.67825772045762 174.39343535364605,204.7899221154221 177.06231979769655,204.61573813950235 176.97133510076674,187.77133590234735 177.8660179541912,186.62160766593297 179.71604012564057,184.98410300788237 179.38242957007606,184.14792455772113 177.12297626235522,181.5" stroke="#4dd2ff" stroke-linecap="round" stroke-linejoin="round" stroke-width="0.5"><title>2021-03-18 2.7km</title></polyline><polyline fill="none" points="20.657078114396427,236.27201083266118 21.412988984549884,236.40306984627387 21.52708873845404,237.04198105671094 21.812338123389054,237.20580404812063 23.352684802026488,237.51706728668069 25.349430496513378,237.33686232486798 26.732890013430733,237.73003653480555 28.016512245638296,238.5 28.34454903821461,237.46792049828218 28.159136938105803,233.0937980911549 29.342921885545366,232.97911917501187 27.645688045187853,232.50401996453002 26.005504081840627,232.42210617019737 25.278118150308728,231.6357316889771 23.837608756381087,216.74306192847143 25.406480373523664,214.90800908749225 26.51895297470037,214.2690127123351 25.72025469696382,212.84355039751972 24.35105764924083,211.5" stroke="#4dd2ff" stroke-linecap="round" stroke-linejoin="round" stroke-width="0.5"><title>2021-03-17 2.8km</title></polyline><polyline fill="none" points="49.90957446815446,223.5428993329988 50.24468085099943,223.5428993329988 51.92021276592277,224.25771734368755 52.39893617015332,224.86256263690302 57.37765957438387,226.23720859031891 62.64361702115275,226.95202314679045 64.4148936169222,226.8420517363702 65.65957446815446,227.11698022211203 66.28191489353776,227.33692291303305 68.77127659553662,227.72182241349947 70.82978723407723,228.5466061629122 71.5,228.7115627663443 72.64893617038615,229.31640322814928 73.60638297884725,229.9212430336629 73.98936170223169,230.03121383691905 74.42021276592277,230.2511553784134 75.47340425522998,230.5260821832344 76.0,230.4710968331783 75.95212765969336,230.4710968331783 75.95212765969336,230.4710968331783 75.80851063854061,230.5260821832344 75.90425531915389,230.4710968331783 75.95212765969336,230.4710968331783 76.0,230.5260821832344 75.71276595722884,230.4710968331783 75.09042553184554,230.4710968331783 72.98404255299829,230.5260821832344 71.54787234053947,230.08619923051447 70.15957446815446,229.81127220881172 68.77127659553662,229.70130136219086 67.38297872338444,229.75628678809153 66.66489361715503,229.81127220881172 65.27659574477002,229.9212430336629 64.65425531892106,229.9212430336629 62.5,229.75628678809153 61.82978723407723,229.59133049368393 60.5372340423055,229.26141775865108 59.86702127661556,228.93150482838973 58.57446808507666,228.4916206173948 57.90425531915389,228.27167838194873 55.17553191492334,227.72182241349947 53.40425531915389,227.00700884399703 53.26063829776831,226.6770945797325 53.83510638284497,226.5671231148881 54.07446808507666,226.5671231148881 54.26595744676888,226.34718012035592 54.07446808507666,226.29219435801497 53.59574468061328,226.18222281726776 53.35638297861442,226.1272370388615 53.21276595746167,226.0722512549255 52.92553191492334,226.0722512549255 52.73404255323112,225.96227967075538 52.49468085099943,225.96227967075538 52.25531914876774,225.96227967075538 51.92021276592277,225.8523080649902 51.68085106369108,225.7423364375718 51.53723404253833,225.6873506156844 51.05851063830778,225.4124214250478 50.9148936169222,225.30244971072534 50.67553191492334,225.1374920986127 50.53191489353776,225.02752033027355 50.38829787238501,224.86256263690302 50.19680851045996,224.64261896983953 49.86170212761499,224.3676892640069 49.57446808507666,224.20273137534969 49.43085106369108,224.09275942249224 49.19148936169222,223.81782944552833 49.09574468061328,223.32295514538419 49.09574468061328,222.88306650985032 49.04787234053947,222.6081359362579 49.0,222.38819137983955 49.14361702115275,221.94830200687284 49.09574468061328,221.34345355216647 49.09574468061328,221.06852221954614 49.04787234053947,220.90356335480465 49.14361702115275,220.73860444140155 49.09574468061328,220.68361812614603 49.14361702115275,220.29871376691153 49.19148936169222,220.02378191897878 49.43085106369108,219.96879553317558 49.90957446815446,219.80383634311147 50.14893617015332,219.69386352261063 50.29255319130607,219.63887710432755 50.57978723407723,219.52890425140504 50.62765957438387,219.52890425140504 50.62765957438387,219.4739178167074 50.67553191492334,219.4739178167074" stroke="#4dd2ff" stroke-linecap="round" stroke-linejoin="round" stroke-width="0.5"><title>2021-03-02 1.4km</title></polyline><polyline fill="none" points="91.46046511642635,225.39670685463352 91.77441860502586,225.54094889492262 95.22790697682649,226.1900377253187 97.42558139562607,226.98336773522897 98.2418604651466,227.3439720008755 100.43953488394618,227.92093845579075 101.25581395346671,227.92093845579075 103.57906976761296,227.77669688494643 104.33255813969299,227.56033447483787 106.65581395360641,227.41609283257276 108.10000000009313,227.92093845579075 108.85348837217316,228.20942151272902 110.17209302354604,228.71426658827113 111.42790697677992,228.93062865681713 112.99767441884615,228.78638728504302 113.24883720930666,228.64214588463074 113.5,228.78638728504302 113.4372093025595,229.79607629112434 112.30697674443945,230.08455860830145 111.36511627910659,230.8778843934997 110.9255813951604,231.02212535316357 110.48604651167989,231.16636628413107 110.23488372098655,231.16636628413107 109.85813953494653,231.2384867388173 109.60697674448602,231.38272762706038 108.72790697682649,231.74332972348202 108.85348837217316,232.10393164196284 109.29302325588651,232.39241304877214 109.29302325588651,232.4645333828521 109.29302325588651,232.53665370953968 109.35581395355985,232.4645333828521 109.04186046519317,232.39241304877214 108.66511627915315,232.53665370953968 108.53953488403931,232.60877402912593 108.41395348822698,232.68089434184367 108.35116279078647,232.75301464722725 108.35116279078647,232.75301464722725 108.10000000009313,232.39241304877214 107.97441860474646,232.24817235959927 107.78604651149362,232.03181127260905 107.72325581405312,231.8875705123064 107.09534883755259,231.74332972348202 106.84418604662642,231.74332972348202 106.53023255825974,231.74332972348202 106.21627907012589,231.67120931850513 105.83953488408588,231.67120931850513 105.52558139548637,231.67120931850513 104.89767441875301,231.52696848718915 104.5837209301535,231.45484806067543 104.26976744225249,231.38272762706038 103.95581395342015,231.3106071865186 103.32790697691962,231.16636628413107 103.07674418599345,231.02212535316357 102.7627906978596,230.9500048768823 102.44883720949292,230.80576390313217 102.13488372089341,230.6615229010349 101.8837209304329,230.44516134465812 101.31860465137288,230.15667916968232 100.75348837208003,229.86819688096875 100.31395348883234,229.43547323450912 100.0,229.2912319623283 99.68604651163332,229.14699066145113 99.37209302349947,229.0027493322268 99.05813953466713,228.85850797448074 98.86976744211279,228.78638728504302 98.3674418607261,228.57002517359797 98.11627907003276,228.4979044556967 97.86511627910659,228.42578373057768 97.61395348841324,228.28154225915205 97.3000000002794,228.20942151272902 96.98604651167989,228.13730075926287 96.2953488372732,228.06517999846255 96.04418604681268,227.99305923079373 95.73023255821317,227.92093845579075 95.35348837217316,227.92093845579075 95.10232558147982,227.84881767391926 94.47441860474646,227.77669688494643 94.16046511637978,227.63245528534753 93.59534883731976,227.19973031594418 92.9674418605864,226.98336773522897 92.71627906989306,226.9112468608073 92.40232558175921,226.8391259793425 92.02558139548637,226.76700509065995 91.77441860502586,226.69488419493428 91.46046511642635,226.55064238182968 90.89534883736633,226.2621586708119 90.58139534899965,226.1179167724913 90.33023255807348,225.97367484582355 89.70232558157295,225.6130699045607 89.51395348855294,225.46882787835784 89.26279069762677,225.32458582380787 88.69767441879958,224.96398056240287 88.44651162810624,224.7476173203322 88.13255813973956,224.3148906439892 87.69302325602621,223.81004253140418 86.93953488371335,223.23307283304166 86.93953488371335,223.01670907909283 86.81395348859951,222.65610267966986 86.68837209348567,222.36761743220268 86.5,221.43003959202906 86.68837209348567,221.06943241041154 86.75116279069334,220.7088250509696 86.81395348859951,220.42033903533593 86.87674418650568,220.20397444895934 86.87674418650568,219.84336666268064 86.87674418650568,218.9057855863357 86.87674418650568,218.25669029093115 87.56744186067954,217.96820330794435 88.06976744206622,217.67971621121978 88.5093023260124,217.53547262010397 88.82325581437908,217.46335081395227 88.94883720949292,217.31910718022846 89.82790697691962,217.24698535277275" stroke="#4dd2ff" stroke-linecap="round" stroke-linejoin="round" stroke-width="0.5"><title>2020-12-25 1.0km</title></polyline><polyline fill="none" points="124.40601503755897,221.8813230539672 124.7105263157282,222.17278965492733 124.96428571431898,222.46425611217273 125.52255639084615,222.814015671378 127.70488721807487,223.3969478099607 128.87218045117334,223.7467068171827 129.63345864671282,223.92158624331933 133.18609022558667,225.32061978871934 134.2011278194841,226.02013531984994 135.36842105258256,226.54477142472751 137.09398496244103,227.18599269870901 137.75375939835794,227.30257831001654 138.97180451150052,227.30257831001654 139.6823308269959,227.30257831001654 140.9003759396728,227.06940706435125 142.01691729342565,226.95282140676863 143.28571428591385,227.01111423841212 143.99624060164206,226.95282140676863 145.97556390985847,227.30257831001654 146.63533834577538,227.53574946388835 147.9041353382636,227.76892052585026 148.61466165445745,227.7106277688872 149.88345864671282,227.65233500633622 150.44172932347283,227.59404223808087 151.0,227.82721327705076 150.9492481201887,227.88550602231408 150.79699248145334,227.94379876181483 150.74624060164206,228.00209149578586 150.74624060164206,228.0603842238197 150.69548872183077,228.00209149578586 150.59398496244103,228.118676946091 150.59398496244103,228.00209149578586 150.64473684248514,228.0603842238197 150.69548872183077,228.118676946091 150.64473684248514,228.0603842238197 150.74624060164206,227.94379876181483 150.69548872183077,227.94379876181483 150.64473684248514,227.94379876181483 150.64473684248514,228.00209149578586 150.64473684248514,227.94379876181483 150.64473684248514,227.94379876181483 150.64473684248514,227.94379876181483 150.64473684248514,228.00209149578586 150.59398496244103,228.00209149578586 150.59398496244103,228.00209149578586 150.54323308262974,228.00209149578586 150.49248120328411,228.00209149578586 150.59398496244103,228.00209149578586 150.59398496244103,228.00209149578586 150.59398496244103,228.00209149578586 150.54323308262974,228.00209149578586 150.54323308262974,228.0603842238197 150.44172932347283,228.00209149578586 149.27443609037437,228.00209149578586 147.95488721807487,228.00209149578586 146.63533834577538,227.7106277688872 146.02631578966975,227.53574946388835 144.75751879694872,227.18599269870901 144.0977443610318,227.06940706435125 142.72744360892102,227.06940706435125 142.0676691730041,227.01111423841212 140.69736842112616,227.127699884295 139.27631578943692,227.30257831001654 138.61654135352,227.30257831001654 137.24624060164206,227.24428550724406 136.53571428568102,227.06940706435125 133.33834586455487,226.02013531984994 132.67857142863795,225.78696356801083 130.8007518798113,225.32061978871934 130.29323308262974,225.26232679048553 128.26315789483488,224.91256868001074 127.09586466150358,224.38793112634448 126.43609022558667,224.0381724986364 125.16729323309846,223.3386546219699 124.0,222.93060214509023" stroke="#4dd2ff" stroke-linecap="round" stroke-linejoin="round" stroke-width="0.5"><title>2020-12-08 1.1km</title></polyline><polyline fill="none" points="161.5,222.21688039737637 161.75961538474075,222.26657923389575 163.49038461549208,223.6084459623671 164.05288461549208,223.80724072939483 166.25961538474075,224.45332318075816 167.2980769232381,224.75151480198838 167.8173076924868,224.95030911802314 169.02884615398943,225.39759604274877 170.1105769232381,225.94427952257684 170.6730769232381,226.29216870098026 173.44230769225396,227.2364381174557 174.04807692347094,227.2861364587152 175.77884615398943,227.0873430640495 176.2980769232381,227.0376447030285 179.02403846173547,227.0873430640495 179.58653846150264,227.13704142006463 181.27403846173547,227.63402471094741 183.0048076924868,227.78311960259452 183.52403846173547,227.73342131017125 184.6490384619683,227.78311960259452 186.37980769225396,227.53462809184566 186.89903846173547,227.48492977506248 187.98076923098415,227.38553312668228 188.5,227.33583479523077 188.2836538462434,226.93824796649278 187.07211538474075,226.88854959077435 186.55288461549208,226.93824796649278 185.47115384647623,227.2364381174557 185.0817307694815,227.33583479523077 183.9567307694815,227.5843264038558 183.4375,227.63402471094741 182.35576923098415,227.63402471094741 181.79326923098415,227.53462809184566 180.71153846150264,227.33583479523077 180.19230769271962,227.18673977113212 178.5048076924868,226.88854959077435 177.9423076924868,226.88854959077435 176.8173076924868,226.93824796649278 176.21153846150264,226.93824796649278 175.08653846173547,227.0376447030285 173.96153846173547,227.0873430640495 172.8798076924868,227.0376447030285 171.84134615398943,226.78915282484377 171.32211538474075,226.64005763921887 170.19711538497359,226.29216870098026 169.67788461549208,226.09337491414044 168.63942307699472,225.74548559851246 167.25480769225396,225.34789751510834 166.86538461549208,225.29819898269488 165.82692307699472,225.04970624673297 164.39903846173547,224.6024190133612 164.00961538474075,224.3042273040046 163.10096153849736,223.80724072939483 162.62500000023283,223.55874725829926" stroke="#4dd2ff" stroke-linecap="round" stroke-linejoin="round" stroke-width="0.5"><title>2020-12-03 1.3km</title></polyline><polyline fill="none" points="38.214788732351735,255.7097914389451 38.452464788686484,256.5833735263441 38.5,256.85636764595984 37.69190140860155,257.3477567220689 36.313380281673744,257.29315795737784 34.41197183099575,256.96556525613414 32.605633802711964,256.2011815327569 31.98767605633475,256.09198377176654 28.470070422627032,254.72700994316256 27.186619718326256,254.50861381803406 25.23767605633475,254.56321285746526 23.906690140720457,254.50861381803406 22.955985915614292,254.50861381803406 22.385563380317762,254.50861381803406 21.102112676016986,254.3994157234556 20.674295774661005,254.3448166680755 19.200704225338995,254.23561854078434 18.630281690042466,254.18101946933893 16.633802816970274,254.0172222222318 16.01584507036023,253.90802403050475 14.779929577605799,253.79882581724087 13.163732394576073,253.08903690631269 12.545774647966027,252.870640135312 11.5,252.65224327798933 12.688380281673744,252.92523933615303 13.734154929639772,253.41663190134568 14.779929577605799,253.90802403050475 15.397887323983014,253.9626231289585 16.966549295932055,254.12642039224738 17.44190140836872,254.18101946933893 18.677816901588812,254.29021760710748 19.295774647733197,254.3448166680755 20.579225352266803,254.3448166680755 21.149647887563333,254.3994157234556 22.43309859163128,254.50861381803406 23.003521126694977,254.50861381803406 24.76232394366525,254.56321285746526 25.33274647896178,254.56321285746526 26.188380281673744,254.4540147734224 26.47359154932201,254.4540147734224 26.663732394343242,254.4540147734224 26.853873239364475,254.4540147734224 27.044014084385708,254.4540147734224 27.281690140953287,254.3994157234556 27.519366197055206,254.3994157234556 27.994718309724703,254.4540147734224 28.184859154978767,254.4540147734224 28.61267605656758,254.61781189130852 29.04049295769073,254.83620797318872 28.992957746610045,254.94540598179447 28.992957746610045,255.00000497797737 28.9454225350637,255.00000497797737" stroke="#4dd2ff" stroke-linecap="round" stroke-linejoin="round" stroke-width="0.5"><title>2020-11-30 1.0km</title></polyline></svg>