<?xml version="1.0" encoding="utf-8" ?>
<svg baseProfile="full" height="300mm" version="1.1" viewBox="0,0,200,300" width="200mm" xmlns="http://www.w3.org/2000/svg" xmlns:ev="http://www.w3.org/2001/xml-events" xmlns:xlink="http://www.w3.org/1999/xlink"><defs /><rect fill="#222222" height="300" width="200" x="0" y="0" /><text fill="#FFFFFF" style="font-size:12px; font-family:Arial; font-weight:bold;" x="10" y="20">Over 3km Runs</text><text fill="#FFFFFF" style="font-size:4px; font-family:Arial" x="10" y="280">ATHLETE</text><text fill="#FFFFFF" style="font-size:9px; font-family:Arial" x="10" y="290">jdzj</text><text fill="#FFFFFF" style="font-size:4px; font-family:Arial" x="120" y="280">STATISTICS</text><text fill="#FFFFFF" style="font-size:3px; font-family:Arial" x="120" y="285">Number: 32</text><text fill="#FFFFFF" style="font-size:3px; font-family:Arial" x="120" y="290">Weekly: 2.9</text><text fill="#FFFFFF" style="font-size:3px; font-family:Arial" x="141" y="285">Total: 62.4 km</text><text fill="#FFFFFF" style="font-size:3px; font-family:Arial" x="141" y="290">Avg: 1.9 km</text><text fill="#FFFFFF" style="font-size:3px; font-family:Arial" x="167" y="285">Min: 1.0 km</text><text fill="#FFFFFF" style="font-size:3px; font-family:Arial" x="167" y="290">Max: 4.9 km</text><polyline fill="none" points="23.57224489795044,46.38348503416637 26.08489795937203,44.40853927156422 25.203265306307003,42.838705166534055 26.746122448705137,42.33230604379787 37.28163265297189,32.25485957515775 38.515918367309496,32.10293675735011 42.57142857159488,36.76188271003775 37.41387755074538,40.10414396660053 37.98693877551705,40.154784121055854 34.768979591550305,43.64894272363745 36.13551020389423,43.14254440044169 36.44408163265325,41.97782636046759 34.901224489789456,43.243824104982195 27.539591836743057,52.15635983838001 22.558367347111925,55.09341156895971 19.16408163262531,58.08108487658319 18.943673469359055,60.00533983227797 16.166530612157658,62.18277752836002 13.874285714467987,61.01810270050191 11.714285714318976,57.92916970443912 11.890612244838849,54.941495512466645 14.932244898052886,53.52361014904454 16.034285714151338,51.801886941102566 19.075918367365375,50.48527117879712 19.648979591904208,49.16865203855559 21.14775510202162,48.30778385119629 21.588571428554133,46.788601174310315 22.7346938776318,45.92772899434203 24.013061224482954,46.23156639930676 24.277551020262763,45.269413999980316" stroke="#4dd2ff" stroke-linecap="round" stroke-linejoin="round" stroke-width="0.5"><title>2021-04-26 2.2km</title></polyline><polyline fill="none" points="66.34817030699924,57.119403435412096 67.18960719683673,55.959388297836995 68.16567398852203,43.77902195171919 71.46410659595858,31.714285714289872 68.43493379338179,43.58567974969628 66.04525302676484,44.70706319317105 62.5785330417566,44.47505308894324 58.977183154202066,45.0164097850211 57.09236452158075,46.17645732869278 55.77972297358792,48.032526252703974 55.678750546998344,59.400756518763956 57.19333694840316,62.1847626218223 58.203061215695925,62.571428571420256 58.87621072737966,62.223429233941715 62.511218090658076,59.16875511719263 63.756544687086716,60.019426251528785 64.96821380814072,59.13008820349933 65.20381613727659,58.124747109541204" stroke="#4dd2ff" stroke-linecap="round" stroke-linejoin="round" stroke-width="0.5"><title>2021-04-25 2.2km</title></polyline><polyline fill="none" points="101.19233005668502,62.571428571420256 100.28239396086428,55.794615956314374 100.78442766901571,51.937544112151954 100.28239396086428,44.764003091608174 100.75305056211073,32.2550291219668 100.37652528122999,31.714285714289872 99.59209761221427,32.2550291219668 98.80766994343139,45.01634109666338 99.12144101096783,57.560924977588 100.37652528122999,57.921395156910876 100.47065660136286,57.59697201155359 100.6275421353057,51.43287749259616 100.21963974740356,56.22718222075491" stroke="#4dd2ff" stroke-linecap="round" stroke-linejoin="round" stroke-width="0.5"><title>2021-04-18 2.2km</title></polyline><polyline fill="none" points="151.85714285704307,51.535196692100726 146.331150224898,50.97663774350076 129.62054850603454,45.94957993697608 122.23782234941609,45.238678911933675 121.0,44.42621939542005 129.79738026997074,44.32466186583042 131.74252967652865,42.750517593638506 135.5444126073271,44.47699815282249" stroke="#4dd2ff" stroke-linecap="round" stroke-linejoin="round" stroke-width="0.5"><title>2021-04-16 1.0km</title></polyline><polyline fill="none" points="188.28571428568102,49.61765194358304 187.38194859522628,49.85863845862332 187.01075911533553,49.09860301545996 186.36521219363203,48.83907801384339 185.5421398684266,49.0429905452329 185.25164375366876,48.80200298427371 184.848176927655,48.245876664354 185.5582785414881,46.98531757997989 185.31619844579836,46.05843050614931 184.8320382545935,45.85451473647845 181.07172743574483,46.114043859546655 177.86013150028884,45.835976928225136 176.2946802151855,46.20673274519504 175.6329946204205,45.94720375009638 174.56784219964175,46.05843050614931 174.3096234310069,45.835976928225136 172.21159593539778,46.076968292414676 171.46921697549988,45.81743911815283 170.61386730422964,46.05843050614931 169.7585176329594,45.70621221946203 167.95098625222454,46.03989271806495 166.4662283323123,45.44668253323471 165.23968918115133,45.59498525499657 164.54572624032153,44.74224300678179 163.28690974292113,44.816394660185324 162.14106395695126,44.46417404573003 161.6730424387497,44.68662924745877 161.0274955170462,44.05633882530674 160.07531380752334,44.3900222532975 158.68738792586373,43.926572887736256 157.880454273778,44.352946346160024 158.4453078302904,43.94511088429135 158.5744172145496,44.57540167948173 157.42857142857974,44.519787870842265 158.3968918111059,44.16756670047471 157.92887029290432,44.278794509824365 158.4291691572289,44.241718580698944 158.02570233109873,44.408560204159585 158.28392109979177,44.68662924745877 158.00956365809543,44.46417404573003 158.3968918111059,44.33440838975366 158.28392109979177,44.13049074939045 157.96114763896912,44.241718580698944 158.07411835028324,44.519787870842265 158.5744172145496,44.31587043160107 158.33233711897628,44.22318061334954 158.30005977291148,44.4827119892434 158.4291691572289,44.149028725893004 158.25164375378517,44.4827119892434 158.36461446498288,44.22318061334954 158.4453078302904,44.427098153173574 158.20322773465887,43.759730836347444 158.3484757920378,44.241718580698944 158.26778242673026,43.926572887736256 158.30005977291148,44.241718580698944 157.97728631197242,44.000724863042706 158.09025702334475,43.833882877457654 158.20322773465887,44.000724863042706 157.96114763896912,44.09341479103023 158.28392109979177,44.2602565461566 158.02570233109873,44.11195277112711 158.33233711897628,43.833882877457654 158.10639569634805,44.22318061334954 157.848176927655,44.22318061334954 158.10639569634805,43.74119282148604 157.8643156007165,43.90803488936217 158.25164375378517,44.241718580698944 157.97728631197242,44.07487680905615 158.02570233109873,44.241718580698944 158.10639569634805,44.09341479103023 158.18708906153915,44.87200838110584 158.02570233109873,46.6145632990374 159.59115361626027,46.948242184807896 159.7202630006359,47.24484514145297 161.1243275552988,47.115081405529054 161.93126120744273,47.411684098871774 168.370591751358,47.689748698772746 174.72922893008217,48.505402485097875 177.77943813503953,48.61662772716954 179.13508667063434,48.91322805082018 180.70053795579588,49.71033910136612 183.15361625811784,49.432277490908746 183.4118350269273,49.87717587008956 183.75074716075324,49.72887652741338 186.0585774058709,50.21084896335378 186.46204423188465,50.54452146422409 187.18828451883746,50.37768528783636 187.4142259414075,49.69180167344166 188.059772863111,49.432277490908746" stroke="#4dd2ff" stroke-linecap="round" stroke-linejoin="round" stroke-width="0.5"><title>2021-04-09 4.9km</title></polyline><polyline fill="none" points="41.94853593641892,83.07967010472203 32.26974268001504,80.27281550969929 31.16770186368376,79.22712097247131 24.363797693280503,79.77748676278861 19.428571428870782,79.28215757600265 20.33895297255367,79.8325233120122 19.907719609793276,80.05266945430776 11.714285714318976,78.18142447556602 18.518189884722233,80.21777900401503 28.292812777450308,81.04332602024078 41.852706300094724,84.67571838147705 40.031943212263286,83.9602490287507 42.57142857159488,83.63003209518502 41.90062111802399,82.80448890588013" stroke="#4dd2ff" stroke-linecap="round" stroke-linejoin="round" stroke-width="0.5"><title>2021-04-09 1.4km</title></polyline><polyline fill="none" points="49.37012987025082,79.71684280128102 50.86038961051963,80.97548085200833 61.64285714295693,85.10379187582294 66.42045454564504,84.90241162481834 70.58441558480263,85.75827714276966 78.2987012991216,84.90241162481834 79.0,84.04654467201908 75.88798701320775,83.24102152325213 72.1623376624193,83.99619951244676 68.30519480537623,82.53618772528716 65.10551948077045,82.78791419346817 59.67045454564504,80.01891621641698 58.969155844300985,78.7099301260605 55.8571428572759,77.5016322939191 53.49025974050164,77.09886571438983 48.14285714295693,78.40785593612236" stroke="#4dd2ff" stroke-linecap="round" stroke-linejoin="round" stroke-width="0.5"><title>2021-04-08 1.4km</title></polyline><polyline fill="none" points="115.22820037114434,82.71742947748862 115.42857142840512,83.77612659844453 112.82374768098816,83.82215685368283 105.93098330241628,81.47460805345327 95.5116883115843,80.9682724502054 90.02152133570053,79.03498600344756 84.57142857136205,79.86353831845918 89.74100185511634,79.26513957185671 95.2311688310001,80.92224191364949 105.45009276457131,81.38254707554006" stroke="#4dd2ff" stroke-linecap="round" stroke-linejoin="round" stroke-width="0.5"><title>2021-04-06 1.3km</title></polyline><polyline fill="none" points="130.4234388365876,76.79516671830788 134.30367835750803,75.58333210478304 135.9050470488146,76.86645104200579 135.9050470488146,78.22085181652801 134.85799828916788,78.79112504376099 136.70573139423504,80.78707768570166 138.61505560274236,81.00092941755429 141.07869974314235,79.86038609442767 143.85029940120876,76.3674606232671 146.31394354137592,77.2941568325623 148.3464499572292,76.08232308167499 151.7955517533701,76.51002935052384 151.7955517533701,72.16167012200458 151.4260051327292,74.79920270905131 149.3934987168759,74.44277996645542 151.85714285704307,74.87048723589396 151.73396064992994,76.7238823872176 146.43712574825622,77.22287255205447 143.85029940120876,76.29617624887032 139.6621043626219,81.5712003831868 140.64756201882847,80.71579376078444 136.0282292556949,80.64450982847484 135.10436270292848,79.07626148354029 136.45936698047444,79.07626148354029 136.3361847733613,78.36342016671551 134.73481608205475,75.51204765035072 134.05731394328177,76.51002935052384 132.70230966620147,76.3674606232671 130.97775876778178,80.0742381089367 125.24978614156134,83.06815946026472 123.40205303672701,86.48976820328971 123.15568862250075,83.85227960575139 122.66295979451388,87.20260125602363 122.23182206996717,85.63436758337775 122.66295979451388,86.70361819531536 122.29341317340732,85.77693442592863 124.81864841724746,87.06003470346332 126.8511548328679,90.12520919268718 129.49957228382118,89.91136024479056 130.2386655260343,88.41441578161903 128.63729683472775,87.70158396149054 130.05389221548103,87.70158396149054 129.37639007694088,88.5569820588571 128.76047904160805,87.9867167766206 129.49957228382118,88.84211452590534 129.68434559437446,88.1292831406463 129.99230111204088,89.76879424310755 128.94525235216133,90.69547273515491 125.55774165922776,90.41034102201229 122.41659538028762,86.70361819531536 122.97091531194746,83.49586146662477 123.34046193305403,86.0620680237189 121.0,87.41645103035262 121.67750213854015,86.27591814624611 121.2463644137606,87.70158396149054 122.97091531194746,86.48976820328971 123.21727972617373,83.35329416021705" stroke="#4dd2ff" stroke-linecap="round" stroke-linejoin="round" stroke-width="0.5"><title>2021-04-05 1.9km</title></polyline><polyline fill="none" points="181.69576535432134,89.54675528459484 180.4857158458326,90.15596107696183 180.95921347953845,89.42491397712729 181.80098705075216,89.42491397712729 181.98512501933146,88.90708786633331 181.03812975191977,94.54220613386133 179.01261209626682,96.00427351825056 178.907390399836,96.85714285713038 178.8284741275711,96.00427351825056 181.11704602418467,94.63358555486775 181.87990332313348,91.6485100214486 182.40601180505473,86.89669564104406 181.09074060001876,85.95241583819734 178.24975479743443,85.43458371213637 176.56620765512343,86.74439264883404 173.04128082597163,87.7495909636782 166.62275734578725,91.61804991337704 165.46531868551392,89.75997745312634 164.12374205654487,90.33872257254552 163.49241187807638,90.09504055356956 159.80965250427835,74.2857450779411 159.59920911153313,71.39185286342399 161.46689422253985,79.86021637447993 162.0456135526765,80.10390673708753 168.80610754597,77.02730133055593 174.01458151754923,75.35190883092582 177.2764541057404,73.5241972116346 181.85359789896756,69.83827811584342 184.56305658107158,66.0 186.11507660290226,66.79202967934543 185.93093863420654,67.03573069683625 185.29960845585447,66.82249231738388 185.6678843932459,66.51786579712643 185.6678843932459,67.00526808053837 185.82571693777572,66.1827762661851 184.93133251846302,66.45694045571145" stroke="#4dd2ff" stroke-linecap="round" stroke-linejoin="round" stroke-width="0.5"><title>2021-04-05 3.7km</title></polyline><polyline fill="none" points="19.500667556654662,104.52616742858663 24.40320427203551,108.42255999904592 28.44058745028451,119.66635775740724 28.536715620663017,125.34387501422316 30.74766355101019,124.89858061017003 32.95861148182303,126.9024039999349 37.9572763685137,123.2287249766523 42.57142857136205,124.45328602404334 33.15086782351136,122.22681037068833 33.15086782351136,125.90049276454374 33.63150867819786,120.77959876158275 33.439252336043864,126.12313978536986 33.72763684857637,124.34196234925184 29.882510012947023,125.12122783495579 32.47797062760219,123.45137254195288 33.823765019886196,125.90049276454374 31.420560747385025,124.34196234925184 33.15086782351136,123.8966675363481 32.76635514013469,126.01181628042832 33.823765019886196,126.01181628042832 32.57409879844636,123.7853438045131 34.78504672832787,126.56843369046692 32.57409879844636,124.56460968742613 32.76635514013469,122.78342970972881 34.40053404541686,125.34387501422316 32.86248331097886,122.8947535433108 30.267022696789354,122.78342970972881 29.113484645728022,125.67784569854848 29.401869158726186,124.23063866328448 24.499332443345338,120.5569506516913 26.42189586116001,113.43218716117553 24.499332443345338,114.21146043203771 24.595460614189506,111.31701405160129 18.923898531123996,108.19990936957765 11.714285714086145,108.86786112200934 15.751668891869485,110.31508851703256 17.09746328415349,114.10013571288437" stroke="#4dd2ff" stroke-linecap="round" stroke-linejoin="round" stroke-width="0.5"><title>2021-04-04 1.4km</title></polyline><polyline fill="none" points="67.1915403031744,101.90140351635637 57.62410215428099,106.25821079115849 48.401436551939696,116.95211207686225 57.10694333584979,126.5567225603154 62.19233838748187,120.81377064221306 68.13966480456293,118.33835019503022 68.31205107737333,115.07078585337149 73.82841181149706,111.01106987847015 65.72625698288903,100.71318006690126 58.91699920175597,105.26802898093592 48.1428571427241,117.54621436202433 56.93455706257373,125.46754455007613 62.10614525107667,119.42753594421083 70.5530726253055,118.0412993307691 73.0526735833846,116.15997514955234 74.34557063039392,111.20910518511664 74.00079808430746,110.31794599688146 72.9664804469794,112.29829867312219 69.9497206704691,113.78356061555678 69.8635275340639,112.89240371389315 79.0,106.85231940844096 75.63846767740324,105.0699925016379 72.10454908199608,100.71318006690126 70.12210694281384,103.98079116654117 64.08858739025891,101.40631058334839 52.19393455656245,112.1002635814366 48.487629688344896,117.34818030608585 57.10694333584979,125.46754455007613 62.19233838748187,120.12065353256185 62.96807661605999,120.71475394169101 60.81324820406735,123.68525071017211 72.62170790089294,126.16065796621842 76.41420590598136,130.7153913617367 68.39824421331286,116.06095798953902 69.26017557876185,113.38749097910477 73.48363926587626,109.82285721745575 68.82920989627019,106.95133747690124 66.24341580178589,102.00042207358638 64.43335993587971,101.30729196750326 62.88188347918913,102.39649620489217 63.65762170776725,103.08962555840844" stroke="#4dd2ff" stroke-linecap="round" stroke-linejoin="round" stroke-width="0.5"><title>2021-04-02 3.1km</title></polyline><polyline fill="none" points="103.5015197568573,127.63923492707545 99.89057750767097,126.38236848026281 93.07902735564858,126.25668156283791 85.69300911866594,125.28260627153213 85.06382978742477,124.68559091119096 84.57142857147846,121.70049732623738 85.28267477219924,121.13489749495056 86.75987841957249,121.07205300714122 85.41945288772695,116.8928667489381 85.74772036483046,111.23673787686857 87.79939209739678,108.31436527401092 88.62006079044659,106.33467827687855 92.53191489365418,103.63222854430205 94.11854103358928,105.36054206281551 95.59574468096253,105.67477987668826 96.3617021277314,106.58606778390822 99.5896656535333,106.58606778390822 104.56838905788027,107.37165871472098 106.97568389063235,108.62860017383355 110.96960486331955,112.17943299704348 114.74468085099943,118.71537576866103 114.85410334344488,119.56378158307052 113.97872340423055,120.31791818782222 113.62310030404478,121.51196416068706 114.38905775081366,121.48054195559234 115.42857142863795,124.15141832453082 114.74468085099943,125.56540263074567 112.3647416413296,126.00530757926754 111.79027355613653,126.72800724749686 110.44984802429099,126.06815109369927 109.87537993933074,126.31952502776403 108.4528875380056,125.87962051312206 107.76899696048349,127.79634288424859 107.55015197570901,127.5763917225122" stroke="#4dd2ff" stroke-linecap="round" stroke-linejoin="round" stroke-width="0.5"><title>2021-04-02 3.2km</title></polyline><polyline fill="none" points="124.23304281919263,113.10541287524393 134.6688139445614,117.75908259535208 140.3164077301044,117.71207605759264 143.7540735125076,118.51118656771723 148.37855248199776,117.38303016417194 151.85714285704307,117.43003673414933 143.99962106859311,118.46418010431807 140.56195528595708,117.66506951538031 134.99621068569832,117.94710869976552 127.793482379755,115.87881747196661 121.0,112.91738486086251" stroke="#4dd2ff" stroke-linecap="round" stroke-linejoin="round" stroke-width="0.5"><title>2021-04-01 1.4km</title></polyline><polyline fill="none" points="157.42857142863795,111.82772619905882 160.91325695603155,115.36624834663235 165.00397474877536,116.23637348250486 169.80173018504865,118.73072507092729 176.3670797292143,118.61470895254752 180.00327332271263,119.60084522952093 188.28571428591385,118.61470895254752 182.47790507390164,119.48482928279554 175.45803133049048,118.44068473210791 169.19569791923277,118.73072507092729 159.8021978023462,116.17836518009426 158.84264671523124,115.65629020152846 159.9537058689166,115.19222316489322" stroke="#4dd2ff" stroke-linecap="round" stroke-linejoin="round" stroke-width="0.5"><title>2021-03-29 1.2km</title></polyline><polyline fill="none" points="26.580153905786574,165.42857142857974 25.142134522087872,157.3197276958963 24.1417732113041,157.03268732869765 19.26501182327047,150.00016307207989 16.013837564270943,149.7131198263378 26.142495832173154,134.57142857142026 29.518715254962444,136.65253272023983 36.14610893675126,143.3981398594333 35.458360535791144,148.20614093437325 38.27187672117725,164.71097827132326 29.331147509394214,158.75492783793015 26.079973250161856,158.10908812313573 25.76736034080386,159.47252685081912" stroke="#4dd2ff" stroke-linecap="round" stroke-linejoin="round" stroke-width="0.5"><title>2021-03-28 1.4km</title></polyline><polyline fill="none" points="63.191648351959884,144.41077248216607 64.94813186815009,145.4468370389659 65.37538461550139,144.57436175178736 67.08439560444094,144.4653022440616 67.4641758245416,143.5928254078026 67.9863736263942,144.19265338068362 68.79340659361333,143.5928254078026 71.30945054953918,145.0105995676131 72.78109890129417,143.92000438278774 77.10109890112653,145.22871834621765 76.8162637364585,144.13812359177973 78.8575824177824,144.35624271497363 77.33846153854392,143.81094474595739 77.71824175841175,142.93846687691985 77.81318681314588,144.13812359177973 77.57582417596132,143.5928254078026 77.05362637387589,144.30171294219326 77.14857142861001,143.42923584755044 77.81318681314588,144.35624271497363 77.10109890112653,144.13812359177973 78.52527472539805,143.97453419311205 78.52527472539805,144.51983200054383 77.90813186811283,143.75641491939314 76.91120879142545,144.30171294219326 78.90505494503304,143.97453419311205 78.28791208798066,143.48376570641994 78.09802197804675,145.1196589677129 77.24351648357697,144.41077248216607 77.14857142861001,145.0105995676131 78.33538461546414,144.2471831641742 77.81318681314588,144.30171294219326 79.00000000023283,145.77401491667842 78.8575824177824,144.19265338068362 78.14549450576305,144.30171294219326 78.52527472539805,145.06512927025324 77.48087912122719,145.3923073739861 77.33846153854392,144.7924807027448 76.76879120897502,145.61042600200744 74.7749450551346,145.3377777034766 74.7749450551346,144.2471831641742 75.24967032973655,153.6262258917559 69.8852747255005,154.82585941400612 65.51780219795182,153.4081104263314 65.85010989010334,154.1169853747706 64.52087912103161,153.4081104263314 56.83032967033796,153.02640815457562 52.98505494534038,154.17151417920832 52.65274725295603,156.13454756035935 51.75076923100278,156.8434190126718 48.66505494527519,157.06153312308015 48.14285714295693,156.18907616578508" stroke="#4dd2ff" stroke-linecap="round" stroke-linejoin="round" stroke-width="0.5"><title>2021-03-26 1.5km</title></polyline><polyline fill="none" points="87.83275261335075,148.04466467993916 97.61672473861836,152.03767015706399 101.0572424090933,151.790681235987 104.06769537064247,152.44931803425425 108.40418118447997,151.5848570234084 110.12444001971744,151.790681235987 115.42857142840512,149.89709465147462 110.7336983573623,151.790681235987 104.67695370828733,152.28465893209795 101.48730711801909,151.6260218740208 97.9392732703127,151.9141757148318 90.30562468874268,150.06175469548907 84.57142857136205,147.55068196571665" stroke="#4dd2ff" stroke-linecap="round" stroke-linejoin="round" stroke-width="0.5"><title>2021-03-26 1.6km</title></polyline><polyline fill="none" points="151.85714285704307,152.73799499991583 149.49963618721813,152.43711770471418 145.98957070079632,150.21062110725325 143.00339558557607,150.27079679793678 138.70749454270117,148.5858752190834 128.22968712076545,148.88675441383384 129.8013582341373,149.66903962532524 129.17268978897482,149.84956683928613 121.0,147.26200500008417 127.60101867537014,149.78939110715874 136.9786563180387,150.39114816120127 144.9941789957229,152.3167667449452" stroke="#4dd2ff" stroke-linecap="round" stroke-linejoin="round" stroke-width="0.5"><title>2021-03-24 1.1km</title></polyline><polyline fill="none" points="188.28571428568102,152.26337440114003 186.06366459629498,152.1189043429622 183.88354037259705,150.48157403015648 180.40372670814395,149.90369143223506 177.55279503110796,148.6034530865727 168.8322981367819,148.79608120804187 169.58695652196184,149.6147498768114 162.75310559011996,147.73662559888908 157.42857142863795,148.4108248889388 159.524844720494,148.69976715673693 162.92080745333806,147.78478272198117 169.20962732937187,149.7110637477599 180.65527950320393,150.19263281670283" stroke="#4dd2ff" stroke-linecap="round" stroke-linejoin="round" stroke-width="0.5"><title>2021-03-23 1.3km</title></polyline><polyline fill="none" points="41.955927051603794,185.81751805375097 31.57446808507666,182.18833498109598 27.348024315899238,182.89532085802057 23.16261398163624,182.42399705623393 24.31155015178956,183.17811491605244 23.860182370757684,183.31951188234962 17.253799391910434,181.33995054781553 11.714285714318976,182.14120255198213 16.84346504556015,181.43421555924579 23.039513677591458,183.2252472427208 31.246200607856736,183.7908348008932 42.57142857136205,187.23147802357562 40.724924012087286,186.33597052839468 42.57142857136205,185.81751805375097" stroke="#4dd2ff" stroke-linecap="round" stroke-linejoin="round" stroke-width="0.5"><title>2021-03-22 1.6km</title></polyline><polyline fill="none" points="74.4198273033835,169.04795756010571 74.84479178045876,169.34595665812958 74.6087004042929,170.29413346454385 76.7571319269482,170.61922190495534 77.32375122956,171.07976320636226 77.1348781286506,171.91957183522754 77.9848070825683,172.48847300207126 79.0,174.24935012930655 78.38616242201533,175.8747651927406 77.4890151929576,176.25402732935618 77.15848726639524,177.2292704291758 72.79079680831637,181.02184970790404 67.97453273576684,182.8910303133307 66.46354792860802,183.8662499493803 65.3067001857562,184.84146613779012 61.93059350748081,189.5007847895904 48.14285714284051,199.52347101134364" stroke="#4dd2ff" stroke-linecap="round" stroke-linejoin="round" stroke-width="0.5"><title>2021-03-21 1.3km</title></polyline><polyline fill="none" points="98.55921035201754,181.60493197204778 98.16753937979229,179.10036784620024 95.48179557023104,175.76091913424898 94.3907121475786,175.43981649714988 90.69781440927181,178.81137844186742 87.0328931689728,183.46728771767812 86.10966873459984,183.72416353880544 85.10251480597071,186.45345666221692 86.80908118491061,188.89374649588717 90.86567339731846,190.8202782230801 95.25798358605243,194.38433196314145 95.00619510386605,194.5769824088784 95.59370156226214,194.5127656062541 95.06214809999801,194.22378983831732 95.73358405230101,195.3475830553216 97.21633844717871,197.11353601361043 102.839614548604,199.71428571428987 105.74917034234386,199.4253145478142 112.60341235634405,194.64119919884251 113.52663679106627,192.71469000770594 114.89748519391287,186.5497842381883 113.52663679106627,184.17369573979522 108.40693765401375,179.45357677081483 102.8675910467282,172.48565742143546 98.75504583807196,168.8571428571595 94.13892366539221,175.27926506014774 94.97821860597469,175.37559593183687 96.12525502452627,176.43523364479188 98.36337486584671,179.2930273069942 98.33539836795535,180.19210328802" stroke="#4dd2ff" stroke-linecap="round" stroke-linejoin="round" stroke-width="0.5"><title>2021-03-20 3.7km</title></polyline><polyline fill="none" points="148.81703026033938,192.05545257416088 138.27797325816937,188.6798707334674 127.13089373707771,188.33067150972784 121.15200562984683,187.05027258838527 121.0,184.95506836037384 121.86136523587629,184.0238640930038 121.0506685434375,182.45245355949737 121.25334271625616,179.71702524012653 124.4454609430395,176.51597599731758 129.71498944424093,177.1561872352613 135.08585503161885,178.9604151681997 145.21956368768588,178.7276118741138 150.6410978185013,177.8545987025136 151.29978888109326,177.09798624226823 150.33708655880764,179.3096199374413 149.72906403942034,186.81747248611646 150.2357494723983,190.6586624304764 151.8571428572759,190.94966064975597" stroke="#4dd2ff" stroke-linecap="round" stroke-linejoin="round" stroke-width="0.5"><title>2021-03-19 1.6km</title></polyline><polyline fill="none" points="169.93370898254216,183.97049541256274 176.6397083196789,186.84870487818262 179.24096784903668,186.68423656874802 181.50812064972706,187.17764120502397 183.89459728216752,186.65682517443202 185.15942989720497,186.76647073565982 188.28571428568102,185.83448208650225 182.48657606902998,187.15022985925316 179.5034802785376,186.68423656874802 176.16241299314424,186.82129350004834 162.8220086179208,182.5724972031603 157.42857142852154,181.99684883761802 158.59794497850817,182.16131992079318 157.81040768977255,181.83237765703234 158.04905535303988,181.69531826555612 159.86277759354562,181.80496578419115 162.2731189924525,181.39378736642539 163.08452104742173,181.99684883761802 163.5618163739564,181.69531826555612 164.13457076565828,182.2435554259573 164.63573085842654,182.07908439144376 165.2800795492949,182.6273207948543 166.09148160438053,182.32579090673244 167.7620152469026,183.53190849602106 168.09612197545357,183.12073263322236 167.23699038790073,181.83237765703234 166.90288365934975,181.85978952725418 167.022207490867,182.79179150491836 168.57341730198823,183.55932019860484 169.21776599274017,182.02426069162902 169.57573748775758,182.76437972669373 170.0530328140594,182.68214437560528 169.55187272129115,182.81920328052365 169.8382499172585,182.73696794567513 169.14617169380654,181.7775539086142 170.1723566458095,181.69531826555612" stroke="#4dd2ff" stroke-linecap="round" stroke-linejoin="round" stroke-width="0.5"><title>2021-03-19 3.1km</title></polyline><polyline fill="none" points="24.699268138909247,234.0 24.52596395422006,233.46252885850845 24.196686003357172,233.40280975445057 23.711434286204167,233.86065576742112 24.300668514100835,230.4964586659189 24.075373074039817,231.31262997890008 24.179355584841687,232.8056177417311 23.8500776339788,233.0644011641998 21.978392439486925,233.02458835155994 21.75309699930949,231.83020032073546 21.9090707655414,230.77515168052923 26.449640404141974,229.75991098905797 29.499794054427184,229.56084358801309 29.39581154368352,210.3100981741154 30.418306233361363,208.99612304678885 32.53261728637153,207.12468915186764 32.151348080078606,206.1690566374018 29.569115728372708,203.14285714285506" stroke="#4dd2ff" stroke-linecap="round" stroke-linejoin="round" stroke-width="0.5"><title>2021-03-18 2.7km</title></polyline><polyline fill="none" points="58.60808927362086,231.45372666590265 59.47198741091415,231.60350839575403 59.6023871297366,232.33369263625355 59.92838642682182,232.52091891213786 61.68878263089573,232.8766483276413 63.97077771037584,232.67069979985536 65.55187430110527,233.1200417540822 67.01887113787234,234.0 67.3937703294796,232.8204805694695 67.18187078641495,227.8214835327526 68.53476786927786,227.69042191430344 66.59507205168484,227.14745138803846 64.72057609353215,227.05383562309726 63.88927788613364,226.1551219302637 62.242981435905676,209.13492791824683 64.03597756975796,207.03772467143426 65.30737482826225,206.307443099824 64.39457679656334,204.6783433114615 62.829780170635786,203.14285714285506" stroke="#4dd2ff" stroke-linecap="round" stroke-linejoin="round" stroke-width="0.5"><title>2021-03-17 2.8km</title></polyline><polyline fill="none" points="85.61094224918634,216.90617066639243 85.99392097257078,216.90617066639243 87.90881458972581,217.72310553566786 88.4559270516038,218.41435729939258 94.14589665643871,219.98538124613697 100.16413373849355,220.80231216782704 102.18844984797761,220.67663055594312 103.61094224918634,220.99083453963976 104.3221884497907,221.24219761491986 107.16717325220816,221.6820827583433 109.51975683891214,222.62469275767216 110.28571428568102,222.8132145901327 111.59878419456072,223.5044608322205 112.69300911854953,224.19570632424438 113.13069908809848,224.32138724229299 113.62310030404478,224.5727490039426 114.82674772036262,224.8869510666118 115.42857142840512,224.82411066652276 115.37386018247344,224.82411066652276 115.37386018247344,224.82411066652276 115.20972644397989,224.8869510666118 115.31914893607609,224.82411066652276 115.37386018247344,224.82411066652276 115.42857142840512,224.8869510666118 115.1003039511852,224.82411066652276 114.38905775081366,224.82411066652276 111.98176291771233,224.8869510666118 110.34042553184554,224.38422769209137 108.75379939214326,224.07002538151573 107.16717325220816,223.94434441404883 105.58054711250588,224.00718490075087 104.75987841957249,224.07002538151573 103.17325227963738,224.19570632424438 102.46200607880019,224.19570632424438 99.99999999976717,224.00718490075087 99.23404255299829,223.8186634214362 97.75683890539221,223.4416202956345 96.99088145885617,223.06457694678102 95.51367781148292,222.56185213424033 94.74772036471404,222.31048957945313 91.62917933124118,221.6820827583433 89.60486322198994,220.8651529646595 89.44072948326357,220.48810809117276 90.09726443747059,220.36242641706485 90.37082066875882,220.36242641706485 90.58966565341689,220.11106299475068 90.37082066875882,220.04822212352883 89.82370820641518,219.9225403626333 89.5501519755926,219.85969947301783 89.38601823709905,219.79685857711593 89.05775075987913,219.79685857711593 88.83890577522106,219.67117676668568 88.56534954393283,219.67117676668568 88.29179331287742,219.67117676668568 87.90881458972581,219.54549493151717 87.6352583586704,219.4198130716104 87.47112461994402,219.35697213222738 86.92401215806603,219.0427673429367 86.75987841933966,218.9170853837859 86.48632218851708,218.72856239846442 86.3221884497907,218.60288037749706 86.15805471129715,218.41435729939258 85.93920972617343,218.16299310844624 85.55623100302182,217.84878773038508 85.2279635258019,217.66026442905422 85.06382978707552,217.5345821972005 84.79027355625294,217.22037650924176 84.68085106345825,216.65480588044738 84.68085106345825,216.15207601129077 84.6261398177594,215.8378696414875 84.57142857136205,215.5865044341772 84.7355623098556,215.08377372223185 84.68085106345825,214.3925183454412 84.68085106345825,214.07831110811094 84.6261398177594,213.88978669123026 84.7355623098556,213.70126221881947 84.68085106345825,213.63842071563704 84.7355623098556,213.19853001937736 84.79027355625294,212.8843221932184 85.06382978707552,212.82148060941836 85.61094224918634,212.63295582076535 85.88449848000892,212.50727259734413 86.04863221873529,212.4444309764076 86.37689969595522,212.3187477159663 86.43161094211973,212.3187477159663 86.43161094211973,212.25590607628692 86.48632218851708,212.25590607628692" stroke="#4dd2ff" stroke-linecap="round" stroke-linejoin="round" stroke-width="0.5"><title>2021-03-02 1.4km</title></polyline><polyline fill="none" points="126.6691029900685,219.02480783383362 127.02790697710589,219.18965587991988 130.9747508307919,219.93147168605356 133.48637873772532,220.83813455456402 134.4192691030912,221.25025371526135 136.93089701002464,221.90964394947514 137.86378737539053,221.90964394947514 140.5189368771389,221.7447964399471 141.38006644509733,221.49752511404222 144.0352159468457,221.33267752290703 145.68571428582072,221.90964394947514 146.54684385377914,222.23933887167368 148.05382059840485,222.8163046723348 149.48903654469177,223.0635756077827 151.28305647848174,222.8987283257302 151.570099667646,222.7338810110232 151.8571428572759,222.8987283257302 151.78538205986843,224.0526586184278 150.4936877079308,224.3823526952183 149.41727574774995,225.28901073540328 148.9149501658976,225.4538575464976 148.41262458451092,225.6187043247046 148.12558139534667,225.6187043247046 147.6950166109018,225.70112770149717 147.4079734222032,225.86597443092614 146.40332225896418,226.2780911125592 146.54684385377914,226.69020759075647 147.04916943516582,227.01990062720142 147.04916943516582,227.10232386610005 147.04916943516582,227.18474709661677 147.1209302325733,227.10232386610005 146.76212624600157,227.01990062720142 146.33156146202236,227.18474709661677 146.1880398672074,227.26717031898443 146.04451827239245,227.34959353355225 145.97275747498497,227.43201673967997 145.97275747498497,227.43201673967997 145.68571428582072,227.01990062720142 145.54219269100577,226.855054125248 145.32691029878333,226.60778431151994 145.25514950137585,226.4429377283086 144.5375415282324,226.2780911125592 144.25049833860248,226.2780911125592 143.89169435203075,226.2780911125592 143.53289036545902,226.1956677925773 143.10232558147982,226.1956677925773 142.7435215949081,226.1956677925773 142.02591362129897,226.03082112816628 141.66710963426158,225.94839778362075 141.3083056481555,225.86597443092614 140.94950166111812,225.7835510703153 140.23189368797466,225.6187043247046 139.94485049834475,225.4538575464976 139.58604651177302,225.37143414502498 139.2272425252013,225.20658731786534 138.8684385381639,225.04174045834225 138.58139534899965,224.7944701081724 137.935548172798,224.4647761939559 137.28970099659637,224.13508214970352 136.78737541567534,223.64054083946394 136.4285714281723,223.4756936712074 136.06976744160056,223.31084647023818 135.7109634554945,223.14599923678907 135.35215946799144,222.98115197086008 135.13687707670033,222.8987283257302 134.56279069790617,222.65145734127145 134.27574750827625,222.56903366366168 133.98870431864634,222.48660997778643 133.7016611294821,222.32176258187974 133.34285714291036,222.23933887167368 132.98405315587297,222.15691515343497 132.19468438532203,222.07449142681435 131.90764119615778,221.9920676922775 131.5488372091204,221.90964394947514 131.11827242514119,221.90964394947514 130.83122923597693,221.82722019875655 130.11362126236781,221.7447964399471 129.75481727579609,221.57994889753172 129.10897009959444,221.08540607540635 128.39136212645099,220.83813455456402 128.10431893682107,220.7557106980821 127.74551495024934,220.67328683356754 127.31495016627014,220.59086296072928 127.02790697710589,220.50843907991657 126.6691029900685,220.34359129349468 126.02325581386685,220.01389562379336 125.66445182729512,219.84904773999006 125.37740863766521,219.68419982376508 124.65980066452175,219.27207989094313 124.44451827276498,219.1072318609804 124.15747508313507,218.94238379859598 123.51162790693343,218.53026349988068 123.22458471776918,218.28299122321187 122.86578073073179,217.78844645025674 122.3634551493451,217.2114771787892 121.50232558138669,216.55208323779516 121.50232558138669,216.30481037608115 121.35880398703739,215.89268877671566 121.21528239222243,215.56299135106383 121.0,214.49147381947841 121.21528239222243,214.07935132615967 121.28704318916425,213.66722862969618 121.35880398703739,213.3375303260982 121.43056478444487,213.0902565130964 121.43056478444487,212.6781333287363 121.43056478444487,211.6066120986943 121.43056478444487,210.864788903913 122.2199335549958,210.5350894947769 122.79401993378997,210.20538995566312 123.29634551517665,210.04054013727 123.65514950174838,209.95811521593714 123.79867109656334,209.7932653488242 124.80332225933671,209.71084040316055" stroke="#4dd2ff" stroke-linecap="round" stroke-linejoin="round" stroke-width="0.5"><title>2020-12-25 1.0km</title></polyline><polyline fill="none" points="157.89258861425333,215.0072263473412 158.2406015037559,215.34033103421098 158.5306122447364,215.67343555676052 159.16863587521948,216.0731607672642 161.66272824909538,216.7393689256278 162.99677765835077,217.13909350533504 163.86680988199078,217.3389557066257 167.9269602575805,218.93785118707456 169.08700322220102,219.73729750839993 170.4210526314564,220.33688162826002 172.39312567119487,221.0697059413651 173.1471535982564,221.20294664002722 174.53920515580103,221.20294664002722 175.35123523091897,221.20294664002722 176.74328678823076,220.93646521639312 178.01933404966258,220.80322446482023 179.4693877552636,220.8698448438663 180.28141783038154,220.80322446482023 182.54350161133334,221.20294664002722 183.29752953816205,221.4694279587129 184.74758324376307,221.73590917239198 185.55961331934668,221.66928887873655 187.0096670249477,221.60266857867828 187.64769065543078,221.53604827204254 188.28571428568102,221.80252945946995 188.2277121373918,221.86914973973762 188.05370569322258,221.93577001348604 187.99570354470052,222.0023902808898 187.99570354470052,222.0690105414833 187.93770139641128,222.0023902808898 187.82169710006565,222.1356307954993 187.82169710006565,222.0023902808898 187.87969924835488,222.0690105414833 187.93770139641128,222.1356307954993 187.87969924835488,222.0690105414833 187.99570354470052,221.93577001348604 187.93770139641128,221.93577001348604 187.87969924835488,221.93577001348604 187.87969924835488,222.0023902808898 187.87969924835488,221.93577001348604 187.87969924835488,221.93577001348604 187.87969924835488,221.93577001348604 187.87969924835488,222.0023902808898 187.82169710006565,222.0023902808898 187.82169710006565,222.0023902808898 187.76369495154358,222.0023902808898 187.70569280372,222.0023902808898 187.82169710006565,222.0023902808898 187.82169710006565,222.0023902808898 187.82169710006565,222.0023902808898 187.76369495154358,222.0023902808898 187.76369495154358,222.0690105414833 187.64769065543078,222.0023902808898 186.31364124594256,222.0023902808898 184.8055853920523,222.0023902808898 183.29752953816205,221.66928887873655 182.60150375938974,221.4694279587129 181.1514500535559,221.0697059413651 180.39742212696,220.93646521639312 178.8313641245477,220.93646521639312 178.07733619771898,220.8698448438663 176.5112781955395,221.00308558199322 174.88721804507077,221.20294664002722 174.13319011824206,221.20294664002722 172.56713211606257,221.1363262939849 171.7551020407118,220.93646521639312 168.1009667024482,219.73729750839993 167.3469387756195,219.4708155062399 165.20085929124616,218.93785118707456 164.62083780858666,218.87123061768943 162.3007518798113,218.47150706284447 160.96670247032307,217.87192128720926 160.21267454349436,217.4721971412655 158.76262083789334,216.67274813936092 157.42857142863795,216.20640245149843" stroke="#4dd2ff" stroke-linecap="round" stroke-linejoin="round" stroke-width="0.5"><title>2020-12-08 1.1km</title></polyline><polyline fill="none" points="11.714285714318976,249.6764347399003 12.010989011032507,249.73323341022478 13.989010989200324,251.26679538562894 14.63186813192442,251.49398940510582 17.153846153989434,252.23236934945453 18.34065934084356,252.57315977377584 18.93406593427062,252.8003532778239 20.318681318778545,253.31153833464487 21.554945055162534,253.93631945445668 22.19780219811946,254.33390708692605 25.36263736267574,255.4130721343099 26.054945055395365,255.46987023862312 28.03296703309752,255.24267778755166 28.626373626524583,255.18587966065388 31.741758241783828,255.24267778755166 32.384615384507924,255.29947590868687 34.31318681337871,255.86745681258617 36.29120879131369,256.0378509744187 36.884615384740755,255.98105292598484 38.17032967065461,256.0378509744187 40.148351648356766,255.7538606764865 40.74175824178383,255.697062600113 41.97802197816782,255.58346643054392 42.57142857159488,255.5266683374648 42.32417582441121,255.07228339032736 40.93956043967046,255.01548524666578 40.346153846243396,255.07228339032736 39.10989011009224,255.4130721343099 38.66483516502194,255.5266683374648 37.37912087934092,255.8106587473303 36.785714285681024,255.86745681258617 35.549450549529865,255.86745681258617 34.90659340680577,255.7538606764865 33.67032967042178,255.5266683374648 33.07692307722755,255.35627402423415 31.148351648356766,255.01548524666578 30.50549450563267,255.01548524666578 29.219780219951645,255.07228339032736 28.52747252746485,255.07228339032736 27.241758242016658,255.18587966065388 25.956043956102803,255.24267778755166 24.719780219951645,255.18587966065388 23.53296703309752,254.90188894275343 22.93956043967046,254.73149444488809 21.653846154222265,254.33390708692605 21.060439560562372,254.1067141876556 19.873626373708248,253.7091263983748 18.291208791080862,253.25474001734983 17.846153846243396,253.19794169458328 16.659340659389272,252.9139499963494 15.027472527697682,252.40276458679 14.582417582627386,252.06197406176943 13.543956044130027,251.49398940510582 13.00000000023283,251.20999686670257" stroke="#4dd2ff" stroke-linecap="round" stroke-linejoin="round" stroke-width="0.5"><title>2020-12-03 1.3km</title></polyline><polyline fill="none" points="78.67404426564462,253.66833307308843 78.94567404431291,254.66671260155272 79.0,254.97870588110527 78.07645875262097,255.5402933966252 76.50100603629835,255.47789480845677 74.32796780695207,255.1035031498759 72.26358148874715,254.22992175177205 71.55734406458214,254.10512431059033 67.53722334024496,252.54515422077384 66.0704225350637,252.29555864923168 63.84305835003033,252.35795755143045 62.32193158939481,252.29555864923168 61.2354124749545,252.29555864923168 60.58350100601092,252.29555864923168 59.116700201295316,252.17076082678977 58.62776659964584,252.10836190643022 56.94366197171621,251.9835640466772 56.29175050300546,251.9211651078076 54.010060362285,251.73396825394593 53.3038229374215,251.60917032061843 51.89134808862582,251.48437236261088 50.04426559386775,250.6731850358192 49.33802816900425,250.42358872608747 48.14285714295693,250.17399231769377 49.50100603629835,250.48598781274632 50.69617706234567,251.04757931584027 51.89134808862582,251.60917032061843 52.59758551302366,251.67156929027988 54.3903420525603,251.85876616259338 54.93360160966404,251.9211651078076 56.34607645892538,252.0459629795514 57.05231388309039,252.10836190643022 58.51911468827166,252.10836190643022 59.17102615698241,252.17076082678977 60.63782696193084,252.29555864923168 61.28973843064159,252.29555864923168 63.299798792693764,252.35795755143045 63.951710261637345,252.35795755143045 64.92957746470347,252.23315974109573 65.25553319929168,252.23315974109573 65.47283702204004,252.23315974109573 65.69014084502123,252.23315974109573 65.90744466800243,252.23315974109573 66.17907444667071,252.17076082678977 66.450704225339,252.17076082678977 66.99396378267556,252.23315974109573 67.21126760565676,252.23315974109573 67.70020120730624,252.42035644722637 68.18913480895571,252.66995196935022 68.13480885326862,252.7947496934794 68.13480885326862,252.85714854625985 68.0804828973487,252.85714854625985" stroke="#4dd2ff" stroke-linecap="round" stroke-linejoin="round" stroke-width="0.5"><title>2020-11-30 1.0km</title></polyline></svg>