<?xml version="1.0" encoding="utf-8" ?>
<svg baseProfile="full" height="300mm" version="1.1" viewBox="0,0,200,300" width="200mm" xmlns="http://www.w3.org/2000/svg" xmlns:ev="http://www.w3.org/2001/xml-events" xmlns:xlink="http://www.w3.org/1999/xlink"><defs /><rect fill="#222222" height="300" width="200" x="0" y="0" /><text fill="#FFFFFF" style="font-size:12px; font-family:Arial; font-weight:bold;" x="10" y="20">Over 3km Runs</text><text fill="#FFFFFF" style="font-size:4px; font-family:Arial" x="10" y="280">ATHLETE</text><text fill="#FFFFFF" style="font-size:9px; font-family:Arial" x="10" y="290">jdzj</text><text fill="#FFFFFF" style="font-size:4px; font-family:Arial" x="120" y="280">STATISTICS</text><text fill="#FFFFFF" style="font-size:3px; font-family:Arial" x="120" y="285">Number: 29</text><text fill="#FFFFFF" style="font-size:3px; font-family:Arial" x="120" y="290">Weekly: 3.2</text><text fill="#FFFFFF" style="font-size:3px; font-family:Arial" x="141" y="285">Total: 55.8 km</text><text fill="#FFFFFF" style="font-size:3px; font-family:Arial" x="141" y="290">Avg: 1.9 km</text><text fill="#FFFFFF" style="font-size:3px; font-family:Arial" x="167" y="285">Min: 1.0 km</text><text fill="#FFFFFF" style="font-size:3px; font-family:Arial" x="167" y="290">Max: 4.9 km</text><polyline fill="none" points="44.200000000186265,52.61195652669994 38.39770773635246,52.02546963072382 20.85157593153417,46.747058933833614 13.09971346706152,46.000612857576925 11.800000000046566,45.14753036521142 21.037249283632264,45.04089495912194 23.0796561606694,43.388043473358266 27.071633237879723,45.20084806048544" stroke="#4dd2ff" stroke-linecap="round" stroke-linejoin="round" stroke-width="0.5"><title>2021-04-16 1.0km</title></polyline><polyline fill="none" points="80.20000000001164,50.59853454075346 79.2510460250196,50.85157038155012 78.86129707109649,50.05353316622495 78.18347280332819,49.78103191452101 77.31924686185084,49.995140072496724 77.01422594138421,49.74210313349613 76.59058577404357,49.15817049756879 77.3361924685887,47.834583458985435 77.08200836810283,46.86135203145386 76.57364016736392,46.64724047330674 72.62531380756991,46.91974605251744 69.25313807529164,46.62777577464294 67.60941422590986,47.01706938246207 66.9146443514619,46.7445639376092 65.7962343096151,46.86135203145386 65.52510460256599,46.62777577464294 63.32217573217349,46.88081670703832 62.54267782426905,46.60831107405829 61.644560669432394,46.86135203145386 60.74644351465395,46.49152283043077 58.8485355648445,46.8418873539631 57.289539748919196,46.21901665988844 56.00167364021763,46.37473451773985 55.27301255229395,45.47935515712015 53.95125523011666,45.557214393193135 52.74811715481337,45.18738274801581 52.256694560695905,45.42096070983098 51.578870292927604,44.7591557665728 50.5790794978966,45.10952336595801 49.12175732216565,44.622901532115065 48.27447698748438,45.070593663462205 48.8675732218544,44.642366428495734 49.003138075291645,45.304171763462364 47.79999999998836,45.24577726438292 48.81673640169902,44.87594503549917 48.32531380758155,44.99273423530394 48.85062761511654,44.95380450974335 48.42698744771769,45.128988214361016 48.69811715482501,45.42096070983098 48.41004184103804,45.18738274801581 48.81673640169902,45.051128809238435 48.69811715482501,44.83701528685924 48.35920502094086,44.95380450974335 48.47782426775666,45.24577726438292 49.003138075291645,45.03166395318112 48.74895397492219,44.93433964402357 48.715062761562876,45.206847588706296 48.85062761511654,44.85648016218329 48.6642259414657,45.206847588706296 48.7828451882815,44.93433964402357 48.8675732218544,45.148453060828615 48.61338912136853,44.44771737816336 48.76589958166005,44.95380450974335 48.68117154808715,44.622901532115065 48.715062761562876,44.95380450974335 48.37615062762052,44.700761106199934 48.49476987449452,44.52557702132617 48.61338912136853,44.700761106199934 48.35920502094086,44.798085530579556 48.69811715482501,44.97326937345497 48.42698744771769,44.8175504096871 48.74895397492219,44.52557702132617 48.51171548117418,44.93433964402357 48.24058577406686,44.93433964402357 48.51171548117418,44.42825246254506 48.257531380746514,44.603436633828096 48.6642259414657,44.95380450974335 48.37615062762052,44.7786206495075 48.42698744771769,44.95380450974335 48.51171548117418,44.798085530579556 48.596443514630664,45.61560880015895 48.42698744771769,47.44529146399873 50.07071129704127,47.79565429403738 50.20627615065314,48.107087398529984 51.680543933063745,47.97083547580405 52.527824267803226,48.28226830381027 59.289121338922996,48.57423613371793 65.96569037664449,49.43067260936368 69.16841004177695,49.54745911351347 70.5918410042068,49.85888945336046 72.23556485358858,50.69585605642351 74.81129707104992,50.403891365465824 75.08242677827366,50.87103466359258 75.43828451883746,50.71532035378914 77.8615062761819,51.22139141151274 78.28514644346433,51.57174753744039 79.04769874480553,51.39656955222017 79.28493723849533,50.67639175710792 79.96276150626363,50.403891365465824" stroke="#4dd2ff" stroke-linecap="round" stroke-linejoin="round" stroke-width="0.5"><title>2021-04-09 4.9km</title></polyline><polyline fill="none" points="115.54596273321658,49.73365360999014 105.38322981400415,46.786456285219174 104.22608695668168,45.68847702111816 97.08198757795617,46.266361100948416 91.9000000001397,45.746265454858076 92.85590062127449,46.32414947764482 92.40310559002683,46.55530292709591 83.80000000004657,44.59049569943454 90.94409937877208,46.72866795427399 101.2074534164276,47.59549232129939 115.44534161500633,51.40950430056546 113.53354037296958,50.65826148027554 116.19999999995343,50.31153369997628 115.49565217387863,49.444713351200335" stroke="#4dd2ff" stroke-linecap="round" stroke-linejoin="round" stroke-width="0.5"><title>2021-04-09 1.4km</title></polyline><polyline fill="none" points="121.0886363638565,46.202684941352345 122.65340909105726,47.524254894582555 133.97500000009313,51.858981469646096 138.99147727293894,51.64753220608691 143.3636363639962,52.54619099991396 151.46363636408933,51.64753220608691 152.20000000018626,50.74887190561276 148.9323863638565,49.90307259937981 145.02045454550534,50.696009488077834 140.9704545456916,49.16299711156171 137.61079545482062,49.42730990314158 131.90397727279924,46.51986202725675 131.1676136367023,45.1454266323708 127.9000000001397,43.8767139086267 125.41477272752672,43.45380900008604 119.80000000004657,44.828248732956126" stroke="#4dd2ff" stroke-linecap="round" stroke-linejoin="round" stroke-width="0.5"><title>2021-04-08 1.4km</title></polyline><polyline fill="none" points="187.9896103895735,49.35330095136305 188.19999999995343,50.46493292838568 185.4649350650143,50.5132646963757 178.22753246757202,48.04833845613757 167.28727272711694,47.516686072718585 161.52259740256704,45.4867353036243 155.80000000004657,46.356715234403964 161.22805194789544,45.728396550461184 166.99272727267817,47.468354009324685 177.7225974027533,47.95167442932143" stroke="#4dd2ff" stroke-linecap="round" stroke-linejoin="round" stroke-width="0.5"><title>2021-04-06 1.3km</title></polyline><polyline fill="none" points="21.69461077847518,83.9349250542 25.76886227540672,82.66249870997854 27.45029940130189,84.00977359409444 27.45029940130189,85.43189440731658 26.35089820367284,86.03068129590247 28.291017964016646,88.12643156998092 30.295808383030817,88.3509758883738 32.88263473031111,87.15340539911995 35.792814371176064,83.485833654413 38.37964071868919,84.45886467414675 40.51377245527692,83.18643923575291 44.13532934128307,83.63553081802092 44.13532934128307,79.06975362804951 43.74730538926087,81.83916284446605 41.61317365267314,81.46491896477528 44.200000000186265,81.91401159769157 44.0706586826127,83.86007650656393 38.50898203579709,84.38401617965428 35.792814371176064,83.41098506131675 31.395209580892697,88.94976040231995 32.42994011985138,88.05158344877418 27.57964071840979,87.97673531988403 26.609580838121474,86.3300745576853 28.032335329568014,86.3300745576853 27.90299401199445,85.5815911750542 26.22155688633211,82.58765003288863 25.510179640492424,83.63553081802092 24.087425149744377,83.485833654413 22.276646706275642,87.37795001437189 16.26227544876747,90.52156743325759 14.322155688656494,94.11425661348039 14.06347305350937,91.34489358606515 13.546107784146443,94.86273131880444 13.093413173453882,93.21608596254373 13.546107784146443,94.33879910508404 13.158083832124248,93.3657811472076 15.809580838307738,94.71303643862484 17.94371257466264,97.93146965233609 20.724550897954032,97.70692825701553 21.500598802231252,96.13513657066505 19.81916167656891,95.38666315953014 21.306586826220155,95.38666315953014 20.59520958084613,96.2848311617854 19.94850299367681,95.68605261546327 20.724550897954032,96.58422025217442 20.91856287419796,95.83574729767861 21.24191616754979,97.55723395524547 20.14251496968791,98.5302463719272 16.585628742352128,98.23085807310417 13.28742514923215,94.33879910508404 13.869461077498272,90.97065453993855 14.257485029753298,93.66517142491648 11.800000000046566,95.0872735818266 12.51137724542059,93.88971405354096 12.058682634495199,95.38666315953014 13.869461077498272,94.11425661348039 14.128143712412566,90.82095886819297" stroke="#4dd2ff" stroke-linecap="round" stroke-linejoin="round" stroke-width="0.5"><title>2021-04-05 1.9km</title></polyline><polyline fill="none" points="73.28055362205487,97.32409304883913 72.0100016380893,97.96375913082738 72.5071741535794,97.19615967597929 73.39103640336543,97.19615967597929 73.58438127033878,96.6524422596558 72.59003623947501,102.56931644058204 70.46324270113837,104.10448719415581 70.3527599198278,105.0 70.2698978340486,104.10448719415581 72.67289832537062,102.66526483261259 73.47389848926105,99.53093552251812 74.02631239534821,94.54153042312828 72.64527763007209,93.55003663009848 69.66224253724795,93.00631289774901 67.89451803790871,94.38161228128592 64.1933448673226,95.43707051186357 57.45389521308243,99.4989524090488 56.23858461971395,97.54797632578993 54.829929159372114,98.1556587011728 54.16703247197438,97.89979258124367 50.30013512948062,81.30003233184107 50.07916956709232,78.26144550659228 52.04023893363774,87.15322719322285 52.64789423032198,87.4091020739288 59.746412923326716,84.17866639708518 65.21531059336849,82.41950427246047 68.64027681108564,80.5004070722207 73.4462777938461,76.6301920216647 76.29120941017754,72.60000000000582 77.9208304330241,73.43163116331561 77.72748556593433,73.68751723170863 77.06458887865301,73.46361693326617 77.45127861283254,73.14375908699003 77.45127861283254,73.65553148457548 77.61700278474018,72.79191507949145 76.67789914435707,73.0797874784912" stroke="#4dd2ff" stroke-linecap="round" stroke-linejoin="round" stroke-width="0.5"><title>2021-04-05 3.7km</title></polyline><polyline fill="none" points="91.97570093441755,77.05247579992283 97.12336448580027,81.14368799887598 101.36261682258919,92.94967564521357 101.46355140162632,98.91106876486447 103.78504672879353,98.44350964063779 106.10654205596074,100.54752419993747 111.35514018684626,96.69016122550238 116.1999999997206,97.97595032514073 106.30841121450067,95.63815088907722 106.30841121450067,99.49551740277093 106.81308411248028,94.11857869965024 106.61121495300904,99.72929677448701 106.91401869105175,97.85906046675518 102.87663551373407,98.67728922667447 105.60186915891245,96.92394116905052 107.0149532710202,99.49551740277093 104.49158878484741,97.85906046675518 106.30841121450067,97.39150091307238 105.90467289742082,99.61240709444974 107.0149532710202,99.61240709444974 105.70280373841524,97.27461099473294 108.0242990651168,100.19685537496116 105.70280373841524,98.09284017176833 105.90467289742082,96.22260119521525 107.62056074757129,98.91106876486447 106.00560747645795,96.33949122042395 103.28037383174524,96.22260119521525 102.0691588781774,99.26173798344098 102.37196261668578,97.74217059637886 97.22429906530306,93.88479818427004 99.2429906539619,86.40379651915282 97.22429906530306,87.2220334536396 97.32523364527151,84.18286475422792 91.37009345786646,80.909904838074 83.79999999981374,81.61125417810399 88.03925233660266,83.13084294286091 89.45233644871041,87.1051424985053" stroke="#4dd2ff" stroke-linecap="round" stroke-linejoin="round" stroke-width="0.5"><title>2021-04-04 1.4km</title></polyline><polyline fill="none" points="139.8011173182167,74.29647369217128 129.75530726229772,78.87112133065239 120.07150838011876,90.0997176807141 129.21229050308466,100.1845586883137 134.5519553073682,94.15445917437319 140.79664804507047,91.55526770476718 140.97765363147482,88.1243251459673 146.76983240200207,83.86162337241694 138.2625698321499,73.04883907025214 131.11284916196018,77.83143042994197 119.79999999981374,90.72352508013137 129.03128491621464,99.04092177760322 134.46145251393318,92.69891274138354 143.33072625705972,91.2433642973192 145.95530726294965,89.26797390705906 147.31284916214645,84.06956044433173 146.95083798887208,83.13384329667315 145.86480446951464,85.21321360673755 142.697206703946,86.77273864636663 142.60670391097665,85.83702389954124 152.20000000018626,79.49493537889794 148.6703910618089,77.62349212670233 144.9597765360959,73.04883907025214 142.87821229035035,76.47983072488569 136.54301675967872,73.77662611252163 124.05363128473982,85.00527676043566 120.16201117262244,90.51558932138141 129.21229050308466,99.04092177760322 134.5519553073682,93.42668620916083 135.36648044688627,94.05049163871445 133.10391061427072,97.16951324569527 145.50279329624027,99.76869086455554 149.484916201327,104.55116092984099 141.06815642444417,89.16400588897523 141.97318435786292,86.35686552803963 146.40782122965902,82.6140000782907 141.52067039115354,79.5989043507725 138.80558659229428,74.40044317720458 136.9050279329531,73.67265656590462 135.27597765345126,74.81632101512514 136.090502793435,75.54410683631431" stroke="#4dd2ff" stroke-linecap="round" stroke-linejoin="round" stroke-width="0.5"><title>2021-04-02 3.1km</title></polyline><polyline fill="none" points="175.6765957447933,101.32119667343795 171.88510638312437,100.00148690427886 164.73297872347757,99.86951564098126 156.97765957459342,98.8467365851102 156.31702127680182,98.21987045675633 155.80000000004657,95.08552219255944 156.54680851078592,94.4916423697141 158.09787234046962,94.42565565751283 156.6904255320551,90.03751008637482 157.03510638314765,84.09857477073092 159.18936170230154,81.03008353771293 160.05106382991653,78.9514121907414 164.1585106384009,76.11383997151279 165.8244680853095,77.92856916596065 167.3755319149932,78.2585188705416 168.17978723417036,79.2153711731371 171.5691489361925,79.2153711731371 176.79680851078592,80.04024165045121 179.32446808519308,81.36003018252086 183.5180851065088,85.08840464690002 187.4819148934912,91.951144557097 187.59680851059966,92.84197066220804 186.67765957443044,93.6338140972075 186.30425531917717,94.8875623687345 187.10851063835435,94.85456905336468 188.20000000006985,97.65898924076464 187.4819148934912,99.14367276226403 184.98297872347757,99.60557295824401 184.37978723400738,100.36440760985715 182.97234042547643,99.67155864837696 182.36914893623907,99.93550127916387 180.87553191487677,99.47360153877526 180.15744680853095,101.48616002846393 179.92765957443044,101.25521130865673" stroke="#4dd2ff" stroke-linecap="round" stroke-linejoin="round" stroke-width="0.5"><title>2021-04-02 3.2km</title></polyline><polyline fill="none" points="15.19469496048987,126.86068351898575 26.152254641987383,131.74703672513715 32.08222811692394,131.69767986045917 35.69177718833089,132.53674589609727 40.54748010635376,131.35218167238054 44.200000000186265,131.40153857084806 35.94960212218575,132.48738910953398 32.340053050545976,131.6483229911246 26.496021220227703,131.94446413472178 18.93315649894066,129.7727583455562 11.800000000046566,126.66325410391437" stroke="#4dd2ff" stroke-linecap="round" stroke-linejoin="round" stroke-width="0.5"><title>2021-04-01 1.4km</title></polyline><polyline fill="none" points="47.800000000046566,125.51911250897683 51.458919803844765,129.23456076392904 55.7541734862607,130.1481921565719 60.791816694196314,132.76726132445037 67.6854337155819,132.64544440014288 71.50343698868528,133.6808874909766 80.20000000018626,132.64544440014288 74.10180032765493,133.55907074688002 66.7309328969568,132.4627189686871 60.15548281534575,132.76726132445037 50.292307692347094,130.08728343906114 49.284779051085934,129.5391047115554 50.451391162350774,129.05183432309423" stroke="#4dd2ff" stroke-linecap="round" stroke-linejoin="round" stroke-width="0.5"><title>2021-03-29 1.2km</title></polyline><polyline fill="none" points="99.4091616012156,145.79999999998836 97.8992412481457,137.28571408067364 96.84886187198572,136.98432169511216 91.72826241445728,129.60017122566933 88.31452944246121,129.29877581761684 98.94962062384002,113.39999999996508 102.49465101771057,115.58515935624018 109.45341438357718,122.66804685239913 108.73127856268547,127.71644798107445 111.68547055730596,145.04652718489524 102.29770488501526,138.79267422982957 98.88397191278636,138.11454252933618 98.55572835798375,139.5461531933397" stroke="#4dd2ff" stroke-linecap="round" stroke-linejoin="round" stroke-width="0.5"><title>2021-03-28 1.4km</title></polyline><polyline fill="none" points="135.60123076941818,123.73131110635586 137.44553846144117,124.81917889096076 137.89415384619497,123.9030798394233 139.68861538451165,123.78856735629961 140.08738461555913,122.87246667820727 140.63569230749272,123.50228604977019 141.48307692306116,122.87246667820727 144.12492307671346,124.36112954601413 145.67015384626575,123.21600460197078 150.20615384588018,124.59015426354017 149.90707692317665,123.4450297714211 152.05046153836884,123.67405485076597 150.45538461534306,123.10149198333966 150.85415384615771,122.18539022078039 150.95384615380317,123.4450297714211 150.70461538457312,122.87246667820727 150.1563076924067,123.61679858935531 150.25600000005215,122.70069764001528 150.95384615380317,123.67405485076597 150.20615384588018,123.4450297714211 151.70153846149333,123.27326090278802 151.70153846149333,123.84582360059721 151.0535384612158,123.04423566540936 150.0067692308221,123.61679858935531 152.10030769230798,123.27326090278802 151.45230769226328,122.75795399176423 151.25292307697237,124.47564191615675 150.3556923076976,123.73131110635586 150.25600000005215,124.36112954601413 151.5021538459696,123.55954232241493 150.95384615380317,123.61679858935531 152.19999999995343,125.16271566256182 152.05046153836884,123.50228604977019 151.3027692309115,123.61679858935531 151.70153846149333,124.41838573379209 150.60492307692766,124.76192274270579 150.45538461534306,124.13210473791696 149.8572307692375,124.99094730213983 147.7636923075188,124.70466658868827 147.7636923075188,123.55954232241493 148.2621538459789,133.4075371863437 142.62953846156597,134.66715238476172 138.04369230754673,133.1785159477149 138.39261538465507,133.92283464351203 136.9969230769202,133.1785159477149 128.92184615368024,132.7777285623015 124.88430769252591,133.98008988820948 124.53538461541757,136.04127493838314 123.5883076924365,136.78558996337233 120.34830769221298,137.01460977923125 119.80000000004657,136.09852997411508" stroke="#4dd2ff" stroke-linecap="round" stroke-linejoin="round" stroke-width="0.5"><title>2021-03-26 1.5km</title></polyline><polyline fill="none" points="159.22439024411142,127.54689791394048 169.49756097584032,131.73955366492737 173.11010452965274,131.48021529777907 176.27108013955876,132.17178393597715 180.82439024397172,131.26409987456282 182.63066202099435,131.48021529777907 188.19999999995343,129.49194938404253 183.27038327534683,131.48021529777907 176.9108013936784,131.9988918787276 173.56167247402482,131.3073229677393 169.83623693394475,131.60988450056175 161.82090592337772,129.66484243026935 155.80000000004657,127.02821606400539" stroke="#4dd2ff" stroke-linecap="round" stroke-linejoin="round" stroke-width="0.5"><title>2021-03-26 1.6km</title></polyline><polyline fill="none" points="44.199999999953434,173.27489474992035 41.724617996718735,172.95897358993534 38.03904923587106,170.62115216255188 34.9035653648898,170.68433663778706 30.39286926970817,168.9151689800201 19.39117147680372,169.2310921344906 21.041426145704463,170.0524916065624 20.381324278423563,170.24204518122133 11.800000000046566,167.525105250068 18.73106960905716,170.17886066244682 28.577589133987203,170.8107055692235 36.993887945543975,172.83260508213425" stroke="#4dd2ff" stroke-linecap="round" stroke-linejoin="round" stroke-width="0.5"><title>2021-03-24 1.1km</title></polyline><polyline fill="none" points="80.19999999995343,172.77654312117375 77.86684782593511,172.62484956008848 75.5777173913084,170.90565273165703 71.92391304345801,170.2988760038279 68.93043478252366,168.93362574087223 59.77391304355115,169.13588526839158 60.566304347943515,169.9954873706447 53.39076086971909,168.0234568788146 47.800000000046566,168.73136613337556 50.00108695635572,169.0347555145563 53.566847825888544,168.07402185807587 60.17010869574733,170.09661693513044 72.18804347817786,170.60226445752778" stroke="#4dd2ff" stroke-linecap="round" stroke-linejoin="round" stroke-width="0.5"><title>2021-03-23 1.3km</title></polyline><polyline fill="none" points="115.55372340418398,172.00839395646472 104.65319148940034,168.1977517301857 100.21542553184554,168.94008690092596 95.82074468093924,168.44519690907327 97.02712765941396,169.2370206618798 96.55319148930721,169.3854874765093 89.61648936150596,167.3069480752456 83.80000000004657,168.14826267960598 89.18563829781488,167.4059263372328 95.69148936169222,169.28650960486266 104.30851063830778,169.88037654096843 116.19999999995343,173.49305192477186 114.26117021264508,172.55276905483333 116.19999999995343,172.00839395646472" stroke="#4dd2ff" stroke-linecap="round" stroke-linejoin="round" stroke-width="0.5"><title>2021-03-22 1.6km</title></polyline><polyline fill="none" points="147.3908186686458,154.40035543809063 147.8370313695632,154.71325449101278 147.58913542469963,155.70884013775503 149.8449885234004,156.05018300018855 150.4399387910962,156.53375136666 150.2416220352752,157.41555042698747 151.13404743687715,158.01289665215882 152.20000000006985,159.86181763574132 151.55547054321505,161.56850345237763 150.61346595268697,161.9667286958138 150.2664116298547,162.9907339506317 145.68033664883114,166.9729421932716 140.62325937265996,168.93558182899142 139.03672532516066,169.95956244683475 137.82203519518953,170.98353944465634 134.2771231828956,175.87582402906264 119.80000000004657,186.39964456189773" stroke="#4dd2ff" stroke-linecap="round" stroke-linejoin="round" stroke-width="0.5"><title>2021-03-21 1.3km</title></polyline><polyline fill="none" points="170.48717086960096,167.58517857064726 170.0759163488401,164.9553862385219 167.2558853487717,161.44896509093815 166.11024775495753,161.1118073220132 162.23270512965973,164.65194736397825 158.38453782745637,169.54065210354747 157.41515217127744,169.81037171575008 156.3576405462809,172.67612949531758 158.14953524421435,175.23843382069026 162.40895706729498,177.261292134237 167.02088276529685,181.00354856130434 166.7565048590768,181.20583152933978 167.37338664045092,181.1384038865799 166.81525550503284,180.83497933024773 167.52026325499173,182.01496220807894 169.07715536956675,183.86921281428658 174.98159527604003,186.60000000000582 178.03662885946687,186.29658027520054 185.23358297417872,181.2732591587701 186.20296863059048,179.2504245080927 187.6423594536027,172.77727345007588 186.20296863059048,170.28238052679808 180.8272845367901,165.32625560936867 175.01097059901804,158.0099402925116 170.69279812998138,154.20000000001164 165.84586984862108,160.9432283131464 166.72712953633163,161.04437572840834 167.93151777575258,162.1569953270373 170.28154360922053,165.15767867234536 170.25216828635894,166.101708452421" stroke="#4dd2ff" stroke-linecap="round" stroke-linejoin="round" stroke-width="0.5"><title>2021-03-20 3.7km</title></polyline><polyline fill="none" points="41.007881773402914,219.35822520282818 29.941871921066195,215.81386427010875 18.2374384237919,215.44720508519094 11.95960591128096,214.10278621781617 11.800000000046566,211.90282177831978 12.704433497507125,210.9250572975725 11.85320197045803,209.27507623744896 12.066009852103889,206.40287650207756 15.417733990121633,203.0417747971369 20.950738916406408,203.71399659698363 26.59014778328128,205.60843592655146 37.23054187186062,205.36399246775545 42.92315270937979,204.4473286375869 43.61477832496166,203.65288555435836 42.603940886678174,205.97510093427263 41.96551724127494,213.85834611038445 42.497536945855245,217.89159555191873 44.199999999953434,218.19714368216228" stroke="#4dd2ff" stroke-linecap="round" stroke-linejoin="round" stroke-width="0.5"><title>2021-03-19 1.6km</title></polyline><polyline fill="none" points="60.93039443169255,210.86902018316323 67.97169373568613,213.8911401220539 70.70301624154672,213.7184483971505 73.08352668222506,214.2365232652519 75.58932714629918,213.68966643314343 76.91740139224567,213.8047942724079 80.20000000006985,212.82620619080262 74.11090487265028,214.20774135220563 70.97865429252852,213.7184483971505 67.47053364291787,213.86235817504348 53.46310904889833,209.40112206328195 47.800000000046566,208.79669127948 49.02784222748596,208.96938591680373 48.20092807430774,208.6239965398563 48.45150812075008,208.48008417879464 50.35591647331603,208.5952140733716 52.88677494216245,208.16347673471319 53.73874709988013,208.79669127948 54.23990719264839,208.48008417879464 54.84129930404015,209.05573319725227 55.36751740146428,208.88303861100576 56.04408352682367,209.45868683455046 56.89605568465777,209.14208045203122 58.65011600940488,210.40850392080029 59.000928074354306,209.97676926487475 58.09883990732487,208.6239965398563 57.74802784237545,208.65277900357614 57.87331786553841,209.63138108013663 59.502088167122565,210.43728620850015 60.17865429248195,208.8254737261741 60.554524362203665,209.6025987129833 61.05568445485551,209.51625159435207 60.529466357431374,209.660163444496 60.83016241318546,209.5738163429196 60.10348027863074,208.56643160403473 61.180974478134885,208.48008417879464" stroke="#4dd2ff" stroke-linecap="round" stroke-linejoin="round" stroke-width="0.5"><title>2021-03-19 3.1km</title></polyline><polyline fill="none" points="97.43423154577613,227.39999999999418 97.2522621518001,226.83565530143096 96.90652030345518,226.7729502421571 96.39700600039214,227.25368855577835 97.0157019397011,223.72128159920976 96.77914172760211,224.57826147784363 96.88832336396445,226.14589862881985 96.54258151561953,226.41762122241198 94.5773120613303,226.3758177691343 94.34075184923131,225.12171033676714 94.50452430371661,224.01390926454042 99.27212242421228,222.94790653850941 102.47478375711944,222.73888576740865 102.3656021207571,202.52560308281682 103.43922154488973,201.14592919911956 105.65924815065227,199.18092360945593 105.25891548395157,198.17750946925662 102.54757151473314,194.99999999998545" stroke="#4dd2ff" stroke-linecap="round" stroke-linejoin="round" stroke-width="0.5"><title>2021-03-18 2.7km</title></polyline><polyline fill="none" points="130.78849373728735,224.72641299921088 131.69558678148314,224.88368381554028 131.8325064862147,225.6503772680735 132.1748057481018,225.84696485774475 134.02322176244343,226.2204807440139 136.4193165958859,226.00423478984158 138.07946801616345,226.47604384178703 139.61981469480088,227.39999999999418 140.0134588459041,226.16150459794153 139.79096432571532,220.91255770938005 141.21150626271265,220.77494301002298 139.1748256542487,220.20482395743602 137.20660489820875,220.10652740424848 136.33374178042868,219.16287802677834 134.60513050766895,201.29167431416863 136.48777644825168,199.08961090500816 137.82274356967537,198.32281525481085 136.86430563637987,196.6122604770353 135.22126917913556,195.0" stroke="#4dd2ff" stroke-linecap="round" stroke-linejoin="round" stroke-width="0.5"><title>2021-03-17 2.8km</title></polyline><polyline fill="none" points="156.89148936187848,209.45147919963347 157.29361702152528,209.45147919963347 159.30425531952642,210.3092608124134 159.87872340437025,211.03507516434183 165.85319148935378,212.68465030839434 172.1723404256627,213.54242777614854 174.29787234053947,213.41046208370244 175.79148936178535,213.74037626659265 176.5382978725247,214.00430749566294 179.52553191501647,214.46618689625757 181.9957446809858,215.45592739555286 182.80000000004657,215.65387531963643 184.17872340464965,216.37968387379078 185.32765957480296,217.10549164039548 185.78723404277116,217.2374566043727 186.30425531952642,217.50138645415427 187.56808510655537,217.8312986199162 188.20000000018626,217.76531619986054 188.14255319186486,217.76531619986054 188.14255319186486,217.76531619986054 187.970212766435,217.8312986199162 188.08510638331063,217.76531619986054 188.14255319186486,217.76531619986054 188.20000000018626,217.8312986199162 187.85531914886087,217.76531619986054 187.10851063858718,217.76531619986054 184.58085106383078,217.8312986199162 182.85744680883363,217.30343907664064 181.19148936192505,216.97352665057406 179.52553191501647,216.8415616346756 177.85957446834072,216.90754414570983 176.99787234072573,216.97352665057406 175.33191489381716,217.10549164039548 174.5851063830778,217.10549164039548 172.0,216.90754414570983 171.19574468093924,216.70959659246728 169.6446808509063,216.31370131042786 168.84042553207837,215.9178057941026 167.28936170227826,215.38994474092033 166.4851063832175,215.12601405836176 163.2106382981874,214.46618689625757 161.08510638331063,213.60841061285464 160.91276595764793,213.2125134957023 161.60212765960023,213.080547737889 161.8893617023714,213.080547737889 162.1191489363555,212.81661614443874 161.8893617023714,212.75063322967617 161.3148936170619,212.61866738076787 161.02765957452357,212.55268444668036 160.8553191490937,212.48670150589896 160.51063829800114,212.48670150589896 160.28085106401704,212.35473560495302 159.9936170214787,212.35473560495302 159.70638297870755,212.35473560495302 159.30425531952642,212.22276967804646 159.01702127675526,212.09080372512108 158.84468085109256,212.0248207388213 158.2702127660159,211.69490571005736 158.09787234058604,211.56293965294026 157.8106382980477,211.36499051837018 157.63829787261784,211.23302439635154 157.46595744695514,211.03507516434183 157.23617021273822,210.77114276384236 156.83404255332425,210.44122711685486 156.4893617022317,210.2432776504429 156.31702127680182,210.11131130700232 156.0297872342635,209.7813953346922 155.9148936169222,209.18754617444938 155.9148936169222,208.6596798118553 155.85744680883363,208.32976312353276 155.80000000004657,208.06582965585403 155.97234042570926,207.5379624082707 155.9148936169222,206.81214426265797 155.9148936169222,206.48222666350193 155.85744680883363,206.28427602577722 155.97234042570926,206.08632532972842 155.9148936169222,206.02034175139852 155.97234042570926,205.55845652031712 156.0297872342635,205.2285383028211 156.31702127680182,205.16255463985726 156.89148936187848,204.96460361179197 157.17872340441681,204.83263622719096 157.35106382984668,204.76665252522798 157.69574468093924,204.63468510168605 157.75319148949347,204.63468510168605 157.75319148949347,204.56870138004888 157.8106382980477,204.56870138004888" stroke="#4dd2ff" stroke-linecap="round" stroke-linejoin="round" stroke-width="0.5"><title>2021-03-02 1.4km</title></polyline><polyline fill="none" points="17.752558139618486,252.47604822559515 18.1293023256585,252.64913867396535 22.273488372098655,253.42804527038243 24.910697674844414,254.38004128233297 25.890232557896525,254.81276640109718 28.527441860642284,255.5051261470071 29.506976744160056,255.5051261470071 32.294883721042424,255.33203626197064 33.19906976725906,255.07240136980545 35.98697674414143,254.89931139914552 37.71999999973923,255.5051261470071 38.62418604642153,255.85130581533303 40.20651162834838,256.4571199059719 41.713488372042775,256.71675438818056 43.597209302242845,256.54366474208655 43.898604650981724,256.3705750615918 44.200000000186265,256.54366474208655 44.12465116288513,257.7552915494307 42.76837209332734,258.1014703299734 41.63813953474164,259.0534612722113 41.110697674099356,259.2265504238312 40.58325581392273,259.3996395409922 40.281860465183854,259.3996395409922 39.829767441842705,259.4861840865924 39.528372093103826,259.65927315247245 38.47348837181926,260.0919956682483 38.62418604642153,260.5247179703438 39.15162790706381,260.8708956586197 39.15162790706381,260.95744005945744 39.15162790706381,261.0439844514476 39.22697674436495,260.95744005945744 38.85023255832493,260.8708956586197 38.398139534983784,261.0439844514476 38.247441860847175,261.1305288349977 38.096744185779244,261.21707321022404 38.02139534894377,261.30361757666105 38.02139534894377,261.30361757666105 37.71999999973923,260.8708956586197 37.56930232560262,260.6978068315075 37.343255813699216,260.43817352713086 37.26790697686374,260.2650846147444 36.514418604783714,260.0919956682483 36.213023255579174,260.0919956682483 35.83627907000482,260.0919956682483 35.45953488396481,260.0054511822527 35.00744186062366,260.0054511822527 34.630697674583644,260.0054511822527 33.877209302503616,259.83236218465026 33.50046511599794,259.7458176728105 33.12372093042359,259.65927315247245 32.74697674391791,259.5727286238689 31.993488372303545,259.3996395409922 31.692093023099005,259.2265504238312 31.315348837524652,259.1400058523286 30.93860465148464,258.96691668382846 30.561860464978963,258.7938274812768 30.260465116240084,258.53419361362467 29.58232558146119,258.18801500368863 28.904186046682298,257.84183625719743 28.376744186505675,257.3225678814342 28.0,257.14947835484054 27.623255813959986,256.9763887937879 27.246511627919972,256.8032991986838 26.869767441414297,256.6302095694118 26.643720930442214,256.54366474208655 26.040930232498795,256.28403020836413 25.739534883759916,256.19748534687096 25.438139535021037,256.11094047670485 25.136744185816497,255.9378507109941 24.760000000242144,255.85130581533303 24.38325581373647,255.76476091117365 23.554418604820967,255.6782159982249 23.253023256082088,255.59167107695248 22.876279069576412,255.5051261470071 22.424186046235263,255.5051261470071 22.122790697496384,255.41858120873803 21.369302325416356,255.33203626197064 20.992558139842004,255.15894634247525 20.31441860459745,254.6396763792145 19.56093023251742,254.38004128233297 19.259534883778542,254.29349623300368 18.88279069773853,254.2069511752925 18.43069767439738,254.12040610879194 18.1293023256585,254.0338610339677 17.752558139618486,253.86077085818397 17.074418604839593,253.51459040498594 16.69767441879958,253.34150012704777 16.39627906959504,253.1684098149999 15.642790697980672,252.7356838855194 15.416744186077267,252.56259345408762 15.115348837338388,252.38950298860436 14.437209302559495,251.95677667489508 14.135813953820616,251.6971407844103 13.75906976731494,251.17786877282197 13.231627907138318,250.57205103774322 12.32744186045602,249.87968739971984 12.32744186045602,249.6200508949696 12.17674418631941,249.1873232156504 12.026046512182802,248.8411409186665 11.799999999813735,247.71604751050472 12.026046512182802,247.28331889252877 12.101395349018276,246.85059006122174 12.17674418631941,246.50440684246132 12.252093023620546,246.24476933880942 12.252093023620546,245.81203999521676 12.252093023620546,244.68694270367268 12.252093023620546,243.90802834916394 13.080930233001709,243.56184396956814 13.683720930479467,243.21565945347538 14.211162791121751,243.04256714414805 14.587906977161765,242.956020976766 14.738604651298374,242.78292861633236 15.793488372117281,242.69638242339715" stroke="#4dd2ff" stroke-linecap="round" stroke-linejoin="round" stroke-width="0.5"><title>2020-12-25 1.0km</title></polyline><polyline fill="none" points="48.287218045210466,248.25758766470244 48.652631578966975,248.60734758590115 48.957142857136205,248.95710733463056 49.627067669061944,249.37681880564196 52.24586466164328,250.07633737189462 53.64661654131487,250.49604818061925 54.56015037605539,250.70590349193662 58.823308270657435,252.38474374642828 60.041353383334354,253.22416238381993 61.44210526323877,253.85372570966138 63.5127819548361,254.62319123843918 64.30451127816923,254.76309397199657 65.76616541366093,254.76309397199657 66.6187969923485,254.76309397199657 68.0804511278402,254.48328847723315 69.42030075215735,254.34338568808744 70.9428571430035,254.41333708609454 71.7954887219239,254.34338568808744 74.17067669192329,254.76309397199657 74.96240601502359,255.0428993566893 76.48496240586974,255.3227046309621 77.33759398525581,255.252753322653 78.86015037610196,255.18280200759182 79.53007518826053,255.11285068566212 80.20000000018626,255.3926559324027 80.13909774436615,255.46260722674197 79.95639097783715,255.53255851415452 79.89548872201703,255.6025097949314 79.89548872201703,255.67246106854873 79.83458646619692,255.6025097949314 79.71278195502236,255.74241233529756 79.71278195502236,255.6025097949314 79.77368421084248,255.67246106854873 79.83458646619692,255.74241233529756 79.77368421084248,255.67246106854873 79.89548872201703,255.53255851415452 79.83458646619692,255.53255851415452 79.77368421084248,255.53255851415452 79.77368421084248,255.6025097949314 79.77368421084248,255.53255851415452 79.77368421084248,255.53255851415452 79.77368421084248,255.53255851415452 79.77368421084248,255.6025097949314 79.71278195502236,255.6025097949314 79.71278195502236,255.6025097949314 79.65187969920225,255.6025097949314 79.59097744408064,255.6025097949314 79.71278195502236,255.6025097949314 79.71278195502236,255.6025097949314 79.71278195502236,255.6025097949314 79.65187969920225,255.6025097949314 79.65187969920225,255.67246106854873 79.53007518826053,255.6025097949314 78.1293233083561,255.6025097949314 76.54586466168985,255.6025097949314 74.96240601502359,255.252753322653 74.23157894751057,255.0428993566893 72.70902255643159,254.62319123843918 71.91729323333129,254.48328847723315 70.27293233084492,254.48328847723315 69.48120300774463,254.41333708609454 67.83684210549109,254.5532398610958 66.13157894741744,254.76309397199657 65.33984962431714,254.76309397199657 63.6954887220636,254.69314260868123 62.84285714291036,254.48328847723315 59.006015037652105,253.22416238381993 58.21428571455181,252.94435628160136 55.96090225572698,252.38474374642828 55.35187969915569,252.31479214859428 52.91578947380185,251.89508241601288 51.51503759389743,251.2655173515668 50.72330827079713,250.84580699831713 49.200751879950985,250.00638554635225 47.800000000046566,249.51672257407336" stroke="#4dd2ff" stroke-linecap="round" stroke-linejoin="round" stroke-width="0.5"><title>2020-12-08 1.1km</title></polyline><polyline fill="none" points="83.80000000004657,248.66025647684 84.11153846164234,248.71989508066326 86.18846153863706,250.3301351548289 86.86346153868362,250.56868887529708 89.51153846178204,251.3439878168865 90.75769230769947,251.7018177623395 91.38076923089102,251.94037094159285 92.83461538469419,252.47711525129853 94.1326923079323,253.13313542708056 94.80769230797887,253.55060244118795 98.13076923089102,254.6837257409352 98.85769230802543,254.74336375045823 100.93461538478732,254.5048116768594 101.55769230774604,254.44517364358762 104.828846154036,254.5048116768594 105.50384615384974,254.56444970407756 107.52884615422226,255.16082965314854 109.60576923075132,255.3397435231018 110.22884615394287,255.28010557219386 111.57884615426883,255.3397435231018 113.65576923079789,255.04155371017987 114.27884615398943,254.9819157300517 115.57692307722755,254.8626397519838 116.20000000018626,254.80300175427692 115.94038461567834,254.3258975597564 114.48653846164234,254.26625950890593 113.86346153868362,254.3258975597564 112.56538461567834,254.6837257409352 112.09807692328468,254.80300175427692 110.74807692319155,255.1011916846037 110.125,255.16082965314854 108.82692307699472,255.16082965314854 108.15192307718098,255.04155371017987 106.85384615394287,254.80300175427692 106.23076923121698,254.62408772535855 104.20576923084445,254.26625950890593 103.53076923103072,254.26625950890593 102.18076923093759,254.3258975597564 101.45384615380317,254.3258975597564 100.10384615394287,254.44517364358762 98.75384615408257,254.5048116768594 97.45576923107728,254.44517364358762 96.20961538492702,254.14698338980088 95.58653846173547,253.968069167051 94.23653846187517,253.55060244118795 93.61346153868362,253.31204989692196 92.36730769230053,252.8945827182033 90.70576923084445,252.41747701808345 90.23846153868362,252.35783877922222 88.99230769253336,252.0596474960912 87.27884615422226,251.52290281601017 86.8115384618286,251.16507276479388 85.7211538462434,250.56868887529708 85.1500000001397,250.27049670991255" stroke="#4dd2ff" stroke-linecap="round" stroke-linejoin="round" stroke-width="0.5"><title>2020-12-03 1.3km</title></polyline><polyline fill="none" points="151.85774647886865,252.85174972674577 152.14295774628408,253.90004823164782 152.19999999995343,254.2276411751518 151.2302816901356,254.817308066471 149.57605633791536,254.75178954889998 147.29436619696207,254.35867830732604 145.12676056311466,253.4414178393199 144.38521126750857,253.31038052606164 140.1640845069196,251.67241193179507 138.62394366180524,251.41033658164088 136.28521126741543,251.4758554289583 134.68802816863172,251.41033658164088 133.54718309850432,251.41033658164088 132.86267605610192,251.41033658164088 131.32253521098755,251.27929886814672 130.80915492936037,251.21378000173718 129.0408450702671,251.08274224895285 128.3563380278647,251.01722336321836 125.96056338003837,250.8206666666665 125.21901408419944,250.68962883658241 123.73591549298726,250.55859098071232 121.79647887335159,249.70684428757522 121.05492957727984,249.44476816238603 119.80000000004657,249.1826919335872 121.22605633782223,249.51028720336035 122.48098591552116,250.09995828161482 123.73591549298726,250.68962883658241 124.47746478859335,250.75514775473857 126.35985915502533,250.95170447067358 126.93028169008903,251.01722336321836 128.41338028153405,251.14826112851733 129.15492957714014,251.21378000173718 130.69507042248733,251.21378000173718 131.37957746488973,251.27929886814672 132.91971830977127,251.41033658164088 133.60422535194084,251.41033658164088 135.7147887321189,251.4758554289583 136.3992957745213,251.4758554289583 137.42605633777566,251.34481772815343 137.76830985909328,251.34481772815343 137.9964788730722,251.34481772815343 138.2246478870511,251.34481772815343 138.45281690103002,251.34481772815343 138.73802816891111,251.27929886814672 139.02323943632655,251.27929886814672 139.59366197162308,251.34481772815343 139.82183098583482,251.34481772815343 140.33521126769483,251.54137426958187 140.84859154908918,251.80344956781482 140.79154929565266,251.934487178165 140.79154929565266,252.0000059735612 140.7345070419833,252.0000059735612" stroke="#4dd2ff" stroke-linecap="round" stroke-linejoin="round" stroke-width="0.5"><title>2020-11-30 1.0km</title></polyline></svg>