<?xml version="1.0" encoding="utf-8" ?>
<svg baseProfile="full" height="300mm" version="1.1" viewBox="0,0,200,300" width="200mm" xmlns="http://www.w3.org/2000/svg" xmlns:ev="http://www.w3.org/2001/xml-events" xmlns:xlink="http://www.w3.org/1999/xlink"><defs /><rect fill="#222222" height="300" width="200" x="0" y="0" /><text fill="#FFFFFF" style="font-size:12px; font-family:Arial; font-weight:bold;" x="10" y="20">Over 3km Runs</text><text fill="#FFFFFF" style="font-size:4px; font-family:Arial" x="10" y="280">ATHLETE</text><text fill="#FFFFFF" style="font-size:9px; font-family:Arial" x="10" y="290">jdzj</text><text fill="#FFFFFF" style="font-size:4px; font-family:Arial" x="120" y="280">STATISTICS</text><text fill="#FFFFFF" style="font-size:3px; font-family:Arial" x="120" y="285">Number: 7</text><text fill="#FFFFFF" style="font-size:3px; font-family:Arial" x="120" y="290">Weekly: 1.4</text><text fill="#FFFFFF" style="font-size:3px; font-family:Arial" x="141" y="285">Total: 11.4 km</text><text fill="#FFFFFF" style="font-size:3px; font-family:Arial" x="141" y="290">Avg: 1.6 km</text><text fill="#FFFFFF" style="font-size:3px; font-family:Arial" x="167" y="285">Min: 1.0 km</text><text fill="#FFFFFF" style="font-size:3px; font-family:Arial" x="167" y="290">Max: 2.8 km</text><polyline fill="none" points="35.72371924307663,87.0 35.42043691989966,86.05942550237523 34.844200505991466,85.95491707028123 33.995010000886396,86.75614759296877 35.02616989973467,80.86880266535445 34.63190287956968,82.29710246308241 34.81387227354571,84.90983104804764 34.237635859521106,85.3627020373533 30.96218676911667,85.29302961521898 30.567919748835266,83.20285056129796 30.840873839799315,81.35651544091525 38.78687070729211,79.57984423084417 44.12463959539309,79.23147627900471 43.942670201533474,45.54267180469469 45.732035908382386,43.24321533186594 49.43208025128115,39.968206015764736 48.76485914015211,38.29584911544225 44.24595252471045,33.0" stroke="#4dd2ff" stroke-linecap="round" stroke-linejoin="round" stroke-width="0.5"><title>2021-03-18 2.7km</title></polyline><polyline fill="none" points="151.31415622879285,82.54402166532236 152.82597796909977,82.80613969254773 153.05417747690808,84.08396211342188 153.6246762467781,84.41160809624125 156.70536960405298,85.03413457336137 160.69886099302676,84.67372464973596 163.46578002686147,85.4600730696111 166.0330244912766,87.0 166.68909807642922,84.93584099656437 166.3182738762116,76.18759618230979 168.68584377109073,75.95823835002375 165.2913760903757,75.00803992906003 162.01100816368125,74.84421234039473 160.55623630061746,73.2714633779542 157.67521751276217,43.48612385694287 160.81296074704733,39.81601817498449 163.03790594940074,38.538025424670195 161.44050939392764,35.68710079503944 158.70211529848166,33.0" stroke="#4dd2ff" stroke-linecap="round" stroke-linejoin="round" stroke-width="0.5"><title>2021-03-17 2.8km</title></polyline><polyline fill="none" points="14.81914893630892,117.08579866599757 15.48936170199886,117.08579866599757 18.84042553184554,118.51543468737509 19.79787234030664,119.72512527380604 29.75531914876774,122.47441718063783 40.2872340423055,123.9040462935809 43.8297872338444,123.68410347274039 46.31914893630892,124.23396044422407 47.56382978707552,124.6738458260661 52.54255319107324,125.44364482699893 56.65957446815446,127.09321232582442 58.0,127.42312553268857 60.2978723407723,128.63280645629857 62.2127659576945,129.8424860673258 62.97872340446338,130.0624276738381 63.84042553184554,130.50231075682677 65.94680851045996,131.0521643664688 67.0,130.94219366635662 66.90425531938672,130.94219366635662 66.90425531938672,130.94219366635662 66.61702127708122,131.0521643664688 66.80851063830778,130.94219366635662 66.90425531938672,130.94219366635662 67.0,131.0521643664688 66.42553191445768,130.94219366635662 65.18085106369108,130.94219366635662 60.96808510599658,131.0521643664688 58.09574468107894,130.17239846102893 55.31914893630892,129.62254441762343 52.54255319107324,129.40260272438172 49.76595744676888,129.51257357618306 48.32978723431006,129.62254441762343 45.55319148954004,129.8424860673258 44.30851063784212,129.8424860673258 40.0,129.51257357618306 38.65957446815446,129.18266098736785 36.074468084611,128.52283551730216 34.73404255323112,127.86300965677947 32.14893617015332,126.9832412347896 30.80851063830778,126.54335676389746 25.35106382984668,125.44364482699893 21.80851063830778,124.01401768799406 21.52127659553662,123.35418915946502 22.67021276568994,123.13424622977618 23.14893617015332,123.13424622977618 23.53191489353776,122.69436024071183 23.14893617015332,122.58438871602993 22.19148936122656,122.36444563453551 21.71276595722884,122.25447407772299 21.42553191492334,122.14450250985101 20.85106382984668,122.14450250985101 20.46808510646224,121.92455934151076 19.98936170199886,121.92455934151076 19.51063829753548,121.92455934151076 18.84042553184554,121.70461612998042 18.36170212738216,121.48467287514359 18.07446808507666,121.37470123136882 17.11702127661556,120.82484285009559 16.8297872338444,120.60489942145068 16.35106382984668,120.27498419722542 16.06382978707552,120.05504066054709 15.77659574477002,119.72512527380604 15.393617020919919,119.28523793967906 14.72340425522998,118.73537852801383 14.14893617015332,118.40546275069937 13.86170212738216,118.18551884498447 13.38297872338444,117.63565889105666 13.191489361226559,116.64591029076837 13.191489361226559,115.76613301970065 13.09574468107894,115.21627187251579 13.0,114.77638275967911 13.2872340423055,113.89660401374567 13.191489361226559,112.68690710433293 13.191489361226559,112.13704443909228 13.09574468107894,111.80712670960929 13.2872340423055,111.4772088828031 13.191489361226559,111.36723625229206 13.2872340423055,110.59742753382307 13.38297872338444,110.04756383795757 13.86170212738216,109.93759106635116 14.81914893630892,109.60767268622294 15.29787234030664,109.38772704522125 15.585106382612139,109.2777542086551 16.15957446815446,109.05780850281008 16.25531914876774,109.05780850281008 16.25531914876774,108.9478356334148 16.35106382984668,108.9478356334148" stroke="#4dd2ff" stroke-linecap="round" stroke-linejoin="round" stroke-width="0.5"><title>2021-03-02 1.4km</title></polyline><polyline fill="none" points="142.9209302328527,120.79341370926704 143.54883721005172,121.08189778984524 150.45581395365298,122.38007545063738 154.85116279125214,123.96673547045793 156.4837209302932,124.68794400175102 160.87906976789236,125.8418769115815 162.51162790693343,125.8418769115815 167.15813953522593,125.55339376989286 168.66511627938598,125.12066894967575 173.31162790721282,124.83218566514552 176.20000000018626,125.8418769115815 177.70697674434632,126.41884302545805 180.34418604709208,127.42853317654226 182.85581395355985,127.86125731363427 185.9953488376923,127.57277457008604 186.49767441861331,127.28429176926147 187.0,127.57277457008604 186.874418605119,129.59215258224867 184.6139534888789,130.1691172166029 182.73023255821317,131.7557687869994 181.8511627903208,132.04425070632715 180.97209302335978,132.33273256826214 180.4697674419731,132.33273256826214 179.71627906989306,132.4769734776346 179.21395348897204,132.76545525412075 177.45581395365298,133.48665944696404 177.70697674434632,134.2078632839257 178.58604651177302,134.78482609754428 178.58604651177302,134.9290667657042 178.58604651177302,135.07330741907936 178.7116279071197,134.9290667657042 178.08372093038633,134.78482609754428 177.3302325583063,135.07330741907936 177.07906976807863,135.21754805825185 176.82790697645396,135.36178868368734 176.70232558157295,135.5060292944545 176.70232558157295,135.5060292944545 176.20000000018626,134.78482609754428 175.94883720949292,134.49634471919853 175.57209302298725,134.0636225452181 175.44651162810624,133.77514102461282 174.19069767510518,133.48665944696404 173.68837209325284,133.48665944696404 173.06046511651948,133.48665944696404 172.43255814025179,133.34241863701027 171.67906976817176,133.34241863701027 171.05116279097274,133.34241863701027 169.79534883750603,133.0539369743783 169.167441860307,132.90969612135086 168.53953488450497,132.76545525412075 167.9116279068403,132.62121437303722 166.65581395383924,132.33273256826214 166.1534883719869,132.04425070632715 165.5255813957192,131.9000097537646 164.89767441898584,131.61152780626435 164.26976744178683,131.32304580206983 163.7674418608658,130.89032268931624 162.63720930274576,130.31335833936464 161.50697674416006,129.7363937619375 160.62790697766468,128.87094646901824 160.0,128.58246392465662 159.37209302326664,128.29398132290225 158.74418604699895,128.00549866445363 158.11627906933427,127.71701594896149 157.73953488422558,127.57277457008604 156.7348837214522,127.14005034719594 156.23255814006552,126.9958089113934 155.73023255821317,126.85156746115535 155.2279069768265,126.5630845183041 154.6000000005588,126.41884302545805 153.97209302335978,126.27460151852574 152.5906976745464,126.13035999692511 152.08837209362537,125.98611846158747 151.46046511642635,125.8418769115815 150.70697674434632,125.8418769115815 150.20465116295964,125.69763534783851 148.94883720949292,125.55339376989286 148.32093023275957,125.26491057069506 147.19069767463952,124.39946063188836 145.9348837211728,123.96673547045793 145.43255813978612,123.82249372161459 144.80465116351843,123.678251958685 144.05116279097274,123.5340101813199 143.54883721005172,123.38976838986855 142.9209302328527,123.10128476365935 141.79069767473266,122.52431734162383 141.1627906979993,122.2358335449826 140.66046511614695,121.9473496916471 139.4046511631459,121.22613980912138 139.02790697710589,120.93765575671569 138.52558139525354,120.64917164761573 137.39534883759916,119.92796112480573 136.89302325621247,119.49523464066442 136.26511627947912,118.6297812879784 135.38604651205242,117.62008506280836 133.8790697674267,116.46614566608332 133.8790697674267,116.03341815818567 133.62790697719902,115.31220535933971 133.37674418697134,114.73523486440536 133.0,112.86007918405812 133.37674418697134,112.13886482082307 133.50232558138669,111.41765010193922 133.62790697719902,110.84067807067186 133.75348837301135,110.40794889791869 133.75348837301135,109.68673332536127 133.75348837301135,107.81157117267139 133.75348837301135,106.5133805818623 135.13488372135907,105.9364066158887 136.13953488413244,105.35943242243957 137.0186046520248,105.07094524020795 137.64651162875816,104.92670162790455 137.89767441898584,104.63821436045691 139.65581395383924,104.49397070554551" stroke="#4dd2ff" stroke-linecap="round" stroke-linejoin="round" stroke-width="0.5"><title>2020-12-25 1.0km</title></polyline><polyline fill="none" points="13.812030075117946,173.76264610793442 14.421052631456405,174.34557930985466 14.928571428637952,174.92851222434547 16.045112781692296,175.628031342756 20.409774436149746,176.7938956199214 22.74436090234667,177.49341363436542 24.26691729342565,177.84317248663865 31.372180451173335,180.64123957743868 33.4022556389682,182.04027063969988 35.736842105165124,183.08954284945503 39.187969924882054,184.37198539741803 40.507518796715885,184.60515662003309 42.943609023001045,184.60515662003309 44.36466165399179,184.60515662003309 46.800751879345626,184.1388141287025 49.0338345868513,183.90564281353727 51.57142857182771,184.02222847682424 52.992481203284115,183.90564281353727 56.95112781971693,184.60515662003309 58.27067669155076,185.0714989277767 60.80827067652717,185.53784105170052 62.2293233089149,185.4212555377744 64.76691729342565,185.30467001267243 65.88345864694566,185.18808447616175 67.0,185.65442655410152 66.89849624037743,185.77101204462815 66.59398496290669,185.88759752362967 66.49248120328411,186.00418299157172 66.49248120328411,186.12076844763942 66.39097744366154,186.00418299157172 66.18796992488205,186.237353892182 66.18796992488205,186.00418299157172 66.28947368497029,186.12076844763942 66.39097744366154,186.237353892182 66.28947368497029,186.12076844763942 66.49248120328411,185.88759752362967 66.39097744366154,185.88759752362967 66.28947368497029,185.88759752362967 66.28947368497029,186.00418299157172 66.28947368497029,185.88759752362967 66.28947368497029,185.88759752362967 66.28947368497029,185.88759752362967 66.28947368497029,186.00418299157172 66.18796992488205,186.00418299157172 66.18796992488205,186.00418299157172 66.08646616525948,186.00418299157172 65.98496240656823,186.00418299157172 66.18796992488205,186.00418299157172 66.18796992488205,186.00418299157172 66.18796992488205,186.00418299157172 66.08646616525948,186.00418299157172 66.08646616525948,186.12076844763942 65.88345864694566,186.00418299157172 63.54887218074873,186.00418299157172 60.909774436149746,186.00418299157172 58.27067669155076,185.4212555377744 57.052631579339504,185.0714989277767 54.51503759389743,184.37198539741803 53.1954887220636,184.1388141287025 50.45488721784204,184.1388141287025 49.13533834600821,184.02222847682424 46.394736842252314,184.25539976859 43.55263157887384,184.60515662003309 42.23308270704001,184.60515662003309 39.492481203284115,184.48857101448812 38.07142857136205,184.1388141287025 31.676691729109734,182.04027063969988 30.357142857275903,181.57392713602167 26.601503759622574,180.64123957743868 25.58646616525948,180.52465358097106 21.526315789669752,179.82513736002147 19.191729323007166,178.77586225268897 17.872180451173335,178.07634499727283 15.334586466196924,176.67730924393982 13.0,175.86120429018047" stroke="#4dd2ff" stroke-linecap="round" stroke-linejoin="round" stroke-width="0.5"><title>2020-12-08 1.1km</title></polyline><polyline fill="none" points="133.0,174.43376079475274 133.5192307694815,174.5331584677915 136.98076923098415,177.21689192473423 138.10576923098415,177.61448145878967 142.5192307694815,178.90664636151632 144.59615384647623,179.50302960397676 145.63461538497359,179.90061823604628 148.05769230797887,180.79519208549755 150.22115384647623,181.88855904515367 151.34615384647623,182.5843374019605 156.88461538450792,184.47287623491138 158.0961538469419,184.57227291743038 161.55769230797887,184.17468612809898 162.59615384647623,184.07528940605698 168.04807692347094,184.17468612809898 169.17307692300528,184.27408284012927 172.54807692347094,185.26804942189483 176.00961538497359,185.56623920518905 177.04807692347094,185.4668426203425 179.2980769239366,185.56623920518905 182.75961538450792,185.06925618369132 183.79807692347094,184.96985955012497 185.9615384619683,184.77106625336455 187.0,184.67166959046153 186.5673076924868,183.87649593298556 184.1442307694815,183.7770991815487 183.10576923098415,183.87649593298556 180.94230769295245,184.47287623491138 180.16346153896302,184.67166959046153 177.91346153896302,185.16865280771162 176.875,185.26804942189483 174.7115384619683,185.26804942189483 173.5865384619683,185.06925618369132 171.42307692300528,184.67166959046153 170.38461538543925,184.37347954226425 167.00961538497359,183.7770991815487 165.88461538497359,183.7770991815487 163.63461538497359,183.87649593298556 162.42307692300528,183.87649593298556 160.17307692347094,184.07528940605698 157.92307692347094,184.17468612809898 155.75961538497359,184.07528940605698 153.68269230797887,183.57830564968754 152.6442307694815,183.28011527843773 150.39423076994717,182.5843374019605 149.35576923098415,182.18674982828088 147.27884615398943,181.49097119702492 144.50961538450792,180.6957950302167 143.73076923098415,180.59639796538977 141.65384615398943,180.09941249346593 138.79807692347094,179.20483802672243 138.0192307694815,178.6084546080092 136.20192307699472,177.61448145878967 135.25000000046566,177.11749451659853" stroke="#4dd2ff" stroke-linecap="round" stroke-linejoin="round" stroke-width="0.5"><title>2020-12-03 1.3km</title></polyline><polyline fill="none" points="66.42957746470347,241.4195828778902 66.90492957737297,243.16674705268815 67.0,243.71273529191967 65.3838028172031,244.69551344413776 62.62676056334749,244.5863159147557 58.82394366199151,243.93113051226828 55.21126760542393,242.40236306551378 53.9753521126695,242.18396754353307 46.940140845254064,239.4540198863251 44.37323943665251,239.01722763606813 40.4753521126695,239.12642571493052 37.813380281440914,239.01722763606813 35.911971831228584,239.01722763606813 34.771126760635525,239.01722763606813 32.20422535203397,238.7988314469112 31.34859154932201,238.68963333615102 28.40140845067799,238.4712370815687 27.260563380084932,238.36203893867787 23.267605633940548,238.0344444444636 22.031690140720457,237.8160480610095 19.559859155211598,237.59765163448174 16.327464789152145,236.17807381262537 15.091549295932055,235.74128027062397 13.0,235.30448655597866 15.376760563347489,235.85047867230605 17.468309859279543,236.83326380269136 19.559859155211598,237.8160480610095 20.795774647966027,237.92524625791702 23.93309859186411,238.25284078449477 24.883802816737443,238.36203893867787 27.355633803177625,238.58043521421496 28.591549295466393,238.68963333615102 31.158450704533607,238.68963333615102 32.299295775126666,238.7988314469112 34.86619718326256,239.01722763606813 36.007042253389955,239.01722763606813 39.5246478873305,239.12642571493052 40.66549295792356,239.12642571493052 42.37676056334749,238.90802954684477 42.94718309864402,238.90802954684477 43.327464788686484,238.90802954684477 43.70774647872895,238.90802954684477 44.088028168771416,238.90802954684477 44.563380281906575,238.7988314469112 45.03873239411041,238.7988314469112 45.98943661944941,238.90802954684477 46.369718309957534,238.90802954684477 47.22535211313516,239.23562378261704 48.08098591538146,239.67241594637744 47.98591549322009,239.89081196358893 47.98591549322009,240.00000995595474 47.8908450701274,240.00000995595474" stroke="#4dd2ff" stroke-linecap="round" stroke-linejoin="round" stroke-width="0.5"><title>2020-11-30 1.0km</title></polyline></svg>