<?xml version="1.0" encoding="utf-8" ?>
<svg baseProfile="full" height="300mm" version="1.1" viewBox="0,0,200,300" width="200mm" xmlns="http://www.w3.org/2000/svg" xmlns:ev="http://www.w3.org/2001/xml-events" xmlns:xlink="http://www.w3.org/1999/xlink"><defs /><rect fill="#222222" height="300" width="200" x="0" y="0" /><text fill="#FFFFFF" style="font-size:12px; font-family:Arial; font-weight:bold;" x="10" y="20">Over 3km Runs</text><text fill="#FFFFFF" style="font-size:4px; font-family:Arial" x="10" y="280">ATHLETE</text><text fill="#FFFFFF" style="font-size:9px; font-family:Arial" x="10" y="290">jdzj</text><text fill="#FFFFFF" style="font-size:4px; font-family:Arial" x="120" y="280">STATISTICS</text><text fill="#FFFFFF" style="font-size:3px; font-family:Arial" x="120" y="285">Number: 55</text><text fill="#FFFFFF" style="font-size:3px; font-family:Arial" x="120" y="290">Weekly: 3.2</text><text fill="#FFFFFF" style="font-size:3px; font-family:Arial" x="141" y="285">Total: 104.0 km</text><text fill="#FFFFFF" style="font-size:3px; font-family:Arial" x="141" y="290">Avg: 1.9 km</text><text fill="#FFFFFF" style="font-size:3px; font-family:Arial" x="167" y="285">Min: 1.0 km</text><text fill="#FFFFFF" style="font-size:3px; font-family:Arial" x="167" y="290">Max: 5.9 km</text><polyline fill="none" points="33.77709689771291,43.92615307710366 26.238605897990055,41.03983765779412 22.298736116383225,41.78814386960585 19.6928379930323,41.574342252948554 19.2274990422884,42.00194535974879 15.225584067287855,40.71913452123408 11.285714285681024,41.28927323399694 14.729222519905306,40.57659970244276 19.103408655617386,42.00194535974879 25.525086173787713,42.28701381635619 30.39563385664951,44.03305320534855 34.39754883188289,45.137686011818005 34.428571428521536,44.7813532174041" stroke="#4dd2ff" stroke-linecap="round" stroke-linejoin="round" stroke-width="0.5"><title>2021-06-07 1.5km</title></polyline><polyline fill="none" points="52.22745857713744,52.95356307155453 52.05019651632756,47.91815803234931 50.632100029150024,47.053487589990254 46.776650205021724,41.967161615611985 44.02908826107159,42.526659920753445 48.593586329137906,37.44028943806188 52.22745857713744,31.285714285739232 45.09266062639654,41.76370753656374 46.59938814397901,41.7128440043889 47.70727602462284,42.628386820317246 52.005881001008675,47.81643217301462 52.05019651632756,52.851838202390354 53.113768881885335,54.428571428579744 52.13882754696533,53.86908599513117" stroke="#4dd2ff" stroke-linecap="round" stroke-linejoin="round" stroke-width="0.5"><title>2021-06-04 1.3km</title></polyline><polyline fill="none" points="76.63249357865425,46.18905428718426 76.8834070879384,46.578999188161106 77.62138799775857,46.578999188161106 77.42951296118554,46.155145993107 77.82802265248029,45.96865025610896 77.3852341066231,46.03646691115864 77.47379181574797,45.426116052345606 77.01624365174212,45.22266528438195 77.00148403353523,45.47697870670527 77.47379181574797,45.985604422414326 77.48855143401306,46.66376970177225 76.86864746978972,46.612907398623065 76.41109930572566,46.03646691115864 76.49965701490873,46.324687396598165 75.9535511417198,46.4264121583692 75.27460870478535,45.22266528438195 74.50710855872603,44.42581412414438 71.89465613826178,42.57778338287608 71.59946377435699,41.0010074974125 71.90941575635225,39.4072623304819 73.35585833946243,37.01661686474108 74.71374321338953,35.91453505943355 76.1011473237304,34.286832079305896 76.1601857963833,32.96431205418776 75.62883954145946,31.930026479560183 75.1712913774536,31.624826267827302 74.68422397697577,32.09958191844635 74.55138741328847,31.67569300744799 74.75802206795197,31.658737429228495 74.47758932231227,31.607870684674708 74.6694643588271,31.641781849364634 74.5218681768165,31.980893128784373 74.5956662678509,31.70960415886657 74.31523352209479,31.913070926442742 74.53662779508159,31.760470873312443 74.34475275850855,31.70960415886657 74.40379123127786,31.913070926442742 73.85768535808893,32.32000373888877 74.47758932231227,31.980893128784373 74.2414354311768,32.13349298614776 74.32999314035987,31.794382007952663 74.13811810378684,32.21827062612283 74.13811810378684,31.913070926442742 74.68422397697577,31.57395951318904 74.9498971044668,31.946982030945946 74.83182015892817,32.065670844036504 75.24508946837159,32.09958191844635 74.77278168615885,32.32000373888877 74.1676373402006,31.50613715025247 74.83182015892817,31.607870684674708 74.84657977713505,31.285714285710128 73.87244497635402,32.33695925184293 74.71374321338953,32.32000373888877 74.71374321338953,32.09958191844635 74.10859886737308,32.16740404716984 74.9498971044668,31.57395951318904 74.19715657655615,32.065670844036504 74.49234894046094,32.04871530435048 74.61042588599958,31.913070926442742 74.30047390394611,31.760470873312443 74.38903161312919,32.065670844036504 74.84657977713505,31.82829313588445 74.71374321338953,32.08262638204906 74.72850283153821,31.879159815231105 74.5218681768165,31.980893128784373 74.61042588599958,31.7435153034603 74.90561824990436,31.72655973196379 74.80230092257261,32.13349298614776 75.03845481364988,31.811337572769844 74.6694643588271,32.26913719002914 74.86133939528372,31.980893128784373 74.62518550426466,31.336581125695375 75.05321443191497,31.54004833503859 74.38903161312919,32.09958191844635 74.6694643588271,32.21827062612283 74.84657977713505,31.997848675207933 74.72850283153821,32.26913719002914 74.99417595908744,31.624826267827302 74.83182015892817,32.150448517510085 75.00893557729432,32.37087027268717 74.75802206795197,32.116537453155615 72.61787742981687,34.3037873981375 75.25984908657847,31.845248697311035 77.16383983369451,33.371242376902956 78.04941692535067,34.69375926986686 77.17859945184318,49.74938793576439 71.77657919266494,49.8850182354945 70.68436744628707,50.1732322670141 70.52201164606959,52.59760175392148 71.08287713752361,53.00448558939388 72.27840621129144,52.733229806108284 72.8097524662735,53.30964783394302 72.36696392047452,53.66566976776812 73.1639833030058,53.76739018484659 73.3115794849,54.05559770631953 73.28206024854444,54.42857142856519 73.0163871209952,54.072551074874355 72.86879093904281,54.15731789266283" stroke="#4dd2ff" stroke-linecap="round" stroke-linejoin="round" stroke-width="0.5"><title>2021-06-02 5.9km</title></polyline><polyline fill="none" points="95.08522264577914,53.734581433120184 97.1533795465948,51.83944584077108 100.36018462874927,47.51528395267087 103.1254730692599,41.74962727291859 104.31059668667149,37.34522342411219 104.28735896863509,31.285714285739232 104.75211332831532,31.712820697342977 104.98449050809722,36.3575593860005 103.35785024915822,42.470341076754266 101.56854596408084,46.63442768872483 98.68706893373746,50.90521918589366 95.01550949178636,54.428571428579744" stroke="#4dd2ff" stroke-linecap="round" stroke-linejoin="round" stroke-width="0.5"><title>2021-06-01 2.2km</title></polyline><polyline fill="none" points="137.28571428591385,44.43895533683826 136.82071097381413,44.973070665466366 126.87679399433546,41.80945450355648 120.0448222567793,42.014884853881085 119.47251048823819,42.54900329062366 115.03709428128786,40.987732089153724 114.14285714295693,41.02881824839278 114.17862662859261,41.48076573226717 115.00132479611784,40.7412150487944 119.97328328574076,42.795519261126174 128.98719364125282,43.083121042494895" stroke="#4dd2ff" stroke-linecap="round" stroke-linejoin="round" stroke-width="0.5"><title>2021-05-31 1.1km</title></polyline><polyline fill="none" points="152.5289169070311,53.56745949247852 152.9971490255557,49.74625883484259 153.7931436272338,50.33827759488486 156.69618276157416,49.74625883484259 157.67947021033615,48.66985943901818 158.42864160006866,45.494468814635184 160.16110043833032,46.14031247689854 159.13098977762274,45.70975012064446 159.64604510809295,44.956265177519526 159.55239868420176,46.247953012702055 159.64604510809295,44.90244478441309 159.59922189614736,46.89379578043008 158.10087911691517,45.38682812976185 162.8768467255868,48.024018779513426 158.0072326932568,46.194132747419644 159.17781298956834,45.65592980233487 158.5691112356726,43.87985630542971 158.10087911691517,46.517054259136785 159.55239868420176,45.17154669621959 159.0373433539644,44.310420109832194 160.34839328587987,46.247953012702055 160.9570950397756,45.97885163332103 159.22463620151393,46.786155372392386 157.6326469986234,46.03267191990744 159.92698437930085,45.81739074160578 158.3349951764103,45.44064847496338 157.16441488009878,49.26187937025679 152.66938654263504,50.0153583510546 152.809856178239,52.060510325129144 150.93692770414054,53.51363995129941 151.0305741277989,54.428571428579744 151.73292230558582,53.406000852701254 149.67270098417066,47.80873838928528 139.9802961316891,31.285714285739232" stroke="#4dd2ff" stroke-linecap="round" stroke-linejoin="round" stroke-width="0.5"><title>2021-05-30 1.4km</title></polyline><polyline fill="none" points="166.41181165201124,40.57388557572267 169.74102154828142,42.46732516607153 175.81763766962104,44.73201491279178 178.62968874699436,44.472133174858755 182.18515562650282,45.1404001385672 188.16480446932837,44.249377256666776 188.71428571431898,43.803865024936385 188.10015961690806,44.286503252224065 182.4114126097411,44.91764461580897 174.49241819640156,44.397881216864334 169.22386272950098,42.987091230636 165.57142857147846,41.093654254829744" stroke="#4dd2ff" stroke-linecap="round" stroke-linejoin="round" stroke-width="0.5"><title>2021-05-27 1.4km</title></polyline><polyline fill="none" points="34.42857142863795,75.13369136030087 31.53068322991021,74.99500017295941 25.65440993779339,72.77593559364323 16.759503105888143,72.45232113142265 11.285714285681024,70.97293788724346 14.666583851212636,72.26739848125726 23.8029813664034,73.0995498324337 33.221118012443185,75.9658376229927 33.98583850916475,75.73468603150104" stroke="#4dd2ff" stroke-linecap="round" stroke-linejoin="round" stroke-width="0.5"><title>2021-05-25 1.1km</title></polyline><polyline fill="none" points="37.63722510286607,71.58966209867503 38.73788664408494,72.48794188565807 42.416413373779505,72.82063749598456 46.06597532634623,74.91661229595775 50.43965671362821,74.75026556529338 52.90166279277764,75.14949758091825 58.05739316996187,74.41757185818278 60.14285714284051,73.38621928053908 60.14285714284051,74.15141665603733 51.91686036111787,75.34911341153202 48.78866440197453,74.81680426746607 46.00804577150848,75.04968962134444 40.50473806541413,73.71891400494496 37.0,72.1552459471277" stroke="#4dd2ff" stroke-linecap="round" stroke-linejoin="round" stroke-width="0.5"><title>2021-05-24 1.6km</title></polyline><polyline fill="none" points="71.72923588042613,72.8705172369082 77.11129568098113,73.02506561815972 77.11129568098113,73.68189555866411 80.54235880402848,75.22737342742039 85.85714285715949,74.7250937888457 80.44144518277608,75.26601029597805 76.60672757471912,74.60918301157653 72.60382059798576,74.80236762130517 62.714285714318976,71.6727652142581" stroke="#4dd2ff" stroke-linecap="round" stroke-linejoin="round" stroke-width="0.5"><title>2021-05-21 1.1km</title></polyline><polyline fill="none" points="102.30217497725971,85.04081632653833 103.12723190558609,84.24597802848439 102.8610845094081,83.45113769199816 103.28692034329288,79.7520462317625 104.88380472071003,79.2017643909785 105.22979633591603,78.37633979774546 107.14605758886319,78.83490928763058 111.08503905311227,78.28462581839995 110.95196535484865,76.51148354884936 109.6212283737259,73.63774867108441 106.95975441136397,69.9079679227143 105.04349315853324,68.10420539131155 101.98279810184613,66.30043236067286 97.64459554327186,65.68898149306187 96.04771116597112,65.0469567834225 93.7056140791392,65.38325560672092 90.77799272048287,63.64061229530489 90.2190831884509,61.89795918369782 88.91496094700415,62.356553057878045 88.99480516591575,63.33488438805216" stroke="#4dd2ff" stroke-linecap="round" stroke-linejoin="round" stroke-width="0.5"><title>2021-05-20 1.7km</title></polyline><polyline fill="none" points="114.25412087934092,71.4884617428761 114.14285714295693,69.12409747415222 119.09409340680577,68.22947090613889 136.89629120891914,68.61288244376192 137.28571428591385,77.30348309956025 136.2287087913137,78.07029520737706 127.21634615398943,77.30348309956025 126.1037087913137,78.07029520737706 119.26098901126534,78.70930460409727 115.31112637394108,78.13419617549516 114.42101648356766,77.36738414311549 114.42101648356766,70.72164184448775" stroke="#4dd2ff" stroke-linecap="round" stroke-linejoin="round" stroke-width="0.5"><title>2021-05-18 1.1km</title></polyline><polyline fill="none" points="139.8571428571595,74.25678805023199 140.757483895286,75.1029133641714 145.1568776051281,76.95967782879598 147.91928760893643,76.88916805008193 149.78135657438543,77.31222640939814 152.99393709737342,76.93617457155779 156.53391436149832,75.90202895767288 157.53656688134652,75.2909408036794 159.15308829105925,74.16277394100325 163.0,70.37867525347974 162.38613111025188,69.62654910079436 160.87192118226085,70.80174517103296 152.01174687384628,71.76540162386664 150.72262220527045,71.41284483709023 143.74497915874235,71.20131051464705 143.37665782484692,71.7889053910767 143.45850701024756,71.55386761440604 143.04926108371,71.71839408244705 142.6195528608514,72.61153578394442 141.98522167478222,72.8700761780492 140.14361500565428,72.4940173302166 139.87760515336413,72.00043919189193" stroke="#4dd2ff" stroke-linecap="round" stroke-linejoin="round" stroke-width="0.5"><title>2021-05-10 2.5km</title></polyline><polyline fill="none" points="188.71428571431898,80.85983491122897 188.59905157086905,80.19802471323055 187.81161825731397,79.38178943873208 186.56324836995918,79.99948127196694 185.9294605809264,79.80093765445054 185.89104919985402,79.18324527285586 186.31357439246494,78.47730903356569 186.15992886794265,76.51391215142212 185.69899229402654,75.8520890934742 183.25986959110014,76.60215507788234 181.6273858920904,76.42566919024102 181.56976882054005,75.91827148737502 177.3445168939652,75.98445386177627 175.13586247782223,75.63148097222438 171.60201541206334,76.27124392428959 169.08606994675938,76.33742619417899 167.08867812692188,75.89621069160057 165.57142857147846,73.27096045366488 167.78008298762143,71.68255879144999 168.75957320688758,70.60155676411523 170.77617071731947,69.56467235863965 171.0258446946973,68.8145827705448 173.15767634857912,67.86593645301764 175.21268524008337,66.45399029557302 174.3868405453395,67.38058096700115 172.10136336705182,68.37335242576955 169.9503260225756,66.47605202283012 168.5867219917709,66.07894059897808" stroke="#4dd2ff" stroke-linecap="round" stroke-linejoin="round" stroke-width="0.5"><title>2021-05-08 2.6km</title></polyline><polyline fill="none" points="34.42857142840512,100.07900590478675 34.277063362067565,101.68876963650109 29.73182137007825,101.9498118502961 29.05003507132642,103.2115137054061 22.042787000071257,101.60175553103909 18.406593406572938,101.90630482547567 17.08089782553725,102.645923664968 11.929623567964882,101.5147414082021 11.285714285681024,102.55890974818612 16.664250642759725,104.47321195184486 24.4669160626363,105.25633318611654 34.277063362067565,108.08425940133748" stroke="#4dd2ff" stroke-linecap="round" stroke-linejoin="round" stroke-width="0.5"><title>2021-05-08 1.3km</title></polyline><polyline fill="none" points="60.14285714295693,103.69382947200211 59.5596816977486,104.01112848325283 56.122015915228985,102.74193074830691 55.56953391456045,103.23550818077638 52.07048124296125,101.8957964212168 49.7991663509747,102.95346401704592 44.85752178856637,103.27076368543203 41.69609700655565,102.24835263428395 38.50397877988871,102.81244185176911 37.399014778318815,102.63616406693473 37.0,102.07207457127515 42.125805229181424,102.28360823649564 45.13376278907526,103.62331854231888 50.0447139069438,103.48229664130486 59.958696476067416,106.26746888490743" stroke="#4dd2ff" stroke-linecap="round" stroke-linejoin="round" stroke-width="0.5"><title>2021-05-07 1.5km</title></polyline><polyline fill="none" points="62.821098901331425,108.5260594766587 62.714285714318976,107.9116287502402 64.42329670349136,107.33815924645751 65.1353846155107,105.61774595276802 74.07208791235462,100.2926117167226 76.92043956066482,101.11186761155841 77.59692307701334,102.01304721678025 78.41582417604513,100.00587176912813 78.09538461547345,99.63720582946553 78.09538461547345,101.02994209525059 77.91736263758503,100.57935146501404 77.24087912100367,102.13593519237475 78.13098901114427,101.11186761155841 77.27648351667449,102.01304721678025 77.73934065923095,100.49742584300111 77.41890109889209,102.09497253788868 78.20219780225307,101.39860679046251 79.6619780221954,101.64438307075761 81.83384615392424,100.86609101397335 83.82769230776466,100.94801656267373 85.8571428572759,102.13593519237475 84.539780219784,101.23475585540291 82.93758241762407,101.02994209525059 79.19912087917328,101.93112187949009 77.34769230778329,100.74320266017457" stroke="#4dd2ff" stroke-linecap="round" stroke-linejoin="round" stroke-width="0.5"><title>2021-05-06 1.2km</title></polyline><polyline fill="none" points="94.20334863639437,106.19259069956024 95.20955981663428,104.03148683792097 102.38428301387466,98.7040753570327 105.40291655412875,95.4874980446184 109.38401296269149,93.37660814111587 110.91520388890058,94.83412829518784 111.57142857136205,109.66038935855613 110.74021064001136,105.2376854729373 98.70942479092628,111.82146933305194 95.55954631394707,108.806006373954 89.65352416969836,112.02249956218293 88.42857142863795,114.08305483486038 89.69727248186246,114.78665716500836 93.45962732937187,111.2686357939092 94.85957331908867,108.05213784435182 94.07210369990207,106.89620393124642" stroke="#4dd2ff" stroke-linecap="round" stroke-linejoin="round" stroke-width="0.5"><title>2021-05-06 1.8km</title></polyline><polyline fill="none" points="128.16150690044742,100.50207116513047 130.24617679964285,99.87345270771766 130.45766505040228,99.20990976048051 128.04065647150856,98.23205467071966 128.34278254385572,98.30190155486343 127.98023125703912,98.68605916414526 129.7627750840038,99.38452644922654 131.33383066032548,99.14006306027295 130.82021633721888,101.4100735822285 132.39127191354055,100.5369943791884 132.3308466989547,101.20053477500915 132.96531145100016,101.16561162803555 135.32189481542446,103.05145650485065 137.04401342768688,103.4356088276254 137.074226035038,104.41344917411334 136.5303991046967,105.1817503600032 137.28571428568102,108.6740069227526 136.65124953375198,109.93121063540457 119.85303991055116,107.940635975654 115.17008578882087,108.56923974002711 114.14285714284051,109.33753167508985 114.86795971659012,108.60416213789722" stroke="#4dd2ff" stroke-linecap="round" stroke-linejoin="round" stroke-width="0.5"><title>2021-05-02 1.6km</title></polyline><polyline fill="none" points="146.94647377938963,98.55993319291156 148.58698010840453,99.23745040339418 150.57902350835502,97.54365608934313 158.4886075949762,96.2563695400022 162.00397830014117,97.67915979237296 163.0,100.05047015001765 161.76962025347166,106.8255962508265 151.80940325488336,110.34863468731055 140.56021699798293,111.90689576609293 139.85714285704307,110.75513792759739 144.7200723325368,96.79838523134822" stroke="#4dd2ff" stroke-linecap="round" stroke-linejoin="round" stroke-width="0.5"><title>2021-05-01 1.0km</title></polyline><polyline fill="none" points="176.61106898682192,103.13144262571586 175.20908203022555,105.36746678996133 173.13027378427796,101.06311220536008 173.22696253983304,99.4978840299882 174.91901576332748,96.87052675249288 177.5779565430712,95.75249858392635 184.44285819260404,95.8643015025882 188.455441551283,92.51020408165641 183.37928188079968,96.0879072722164 171.43822056078352,94.46676338888938 170.4229886266403,94.96987751760753 168.44086913624778,99.21837853139732 167.76404784666374,109.61588773527183 166.94219342409633,112.29908410838107 165.97530586761422,112.69038248917786 165.83027273439802,115.65306122449692 166.6037827793043,115.26176494493848 166.94219342409633,113.41707874590065 168.2474916249048,98.88297174620675 169.9878892262932,97.15003344055731 170.71305489330553,97.5972438469762" stroke="#4dd2ff" stroke-linecap="round" stroke-linejoin="round" stroke-width="0.5"><title>2021-05-01 1.8km</title></polyline><polyline fill="none" points="30.872728949587326,132.5915578846325 30.065941160253715,132.72885465057334 28.75117587391287,133.67276698329078 27.15254080982413,133.6041189863463 26.868671032018028,133.9473587002576 26.913492575928103,133.62128098813992 25.837775523483288,133.98168263441767 23.297888038447127,133.65560498657578 21.803836576640606,133.82722487743013 21.35562113818014,133.58695698289375 19.727105044818018,133.89587278632098 16.051738448790275,133.98168263441767 12.39131236745743,133.6041189863463 11.285714285739232,134.54802657003165 11.360416858806275,134.87410254513088 15.663285068701953,135.71503250248497 16.126441021915525,135.57773809321225 16.978050355159212,136.02394452718727 19.24900857702596,136.0582680516236 20.668357465649024,136.6074435216724 21.280918564996682,136.41866464939085 22.894494143722113,136.79622218919394 23.297888038447127,137.10513229413482 24.2989025178249,137.2252638534701 24.567831780936103,137.0193239866785 25.299916997202672,137.3625569626165 26.211288388818502,137.20810220725252 27.7352208798402,137.6543044597056 27.86968551145401,137.24242549805786 28.19837683305377,137.20810220725252 28.810937932285015,137.5341731966182 29.020105137024075,137.03648565155163 29.91653601406142,136.55595839505258 30.992253066506237,135.4747672151425 32.18749423592817,135.0113975096756 32.81499584991252,134.2562738637498 33.86083187314216,133.93019673066738 34.42857142863795,133.14074429833272 34.129761136253364,132.2311533584143 33.666605183098,131.7334506423358 32.725352762208786,132.334126156391 31.291063358890824,132.24831549565715 31.20142027118709,132.79750299293664 29.184450797794852,133.7929009128129 29.60278520709835,134.18762609704572 29.886654984788038,133.99884459891473 30.857788434950635,134.73680747224716 31.664576224400662,134.61667419456353 31.724338282831013,134.41073123981187" stroke="#4dd2ff" stroke-linecap="round" stroke-linejoin="round" stroke-width="0.5"><title>2021-04-30 3.7km</title></polyline><polyline fill="none" points="59.96005416382104,133.18207793604233 58.49763033166528,135.28180995536968 57.693297224119306,135.40779354731785 49.723087339196354,133.22407267795643 42.630331753520295,133.18207793604233 43.58090724446811,133.9799773231789 37.0,132.0062234820798 42.264725795481354,133.85399330873042 50.67366283014417,134.65189143677708 59.338524035178125,137.3815316199616 60.14285714295693,137.21355426774244 59.046039268840104,136.83560498329462" stroke="#4dd2ff" stroke-linecap="round" stroke-linejoin="round" stroke-width="0.5"><title>2021-04-29 1.4km</title></polyline><polyline fill="none" points="71.60775510210078,134.1243484695442 73.49224489810877,132.64313914757804 72.83102040831,131.46576356879086 73.9881632651668,131.085964226746 81.88979591825046,123.52787937526591 82.81551020406187,123.41393726191018 85.85714285715949,126.90814672643319 81.98897959163878,129.41484266886255 82.41877551015932,129.4528227846895 80.00530612224247,132.07344173663296 81.03020408155862,131.69364299421431 81.26163265306968,130.8201044642483 80.10448979586363,131.76960277263424 74.58326530607883,138.45400457267533 70.84734693891369,140.6567933706101 68.30163265299052,142.89754835132044 68.13632653059904,144.34073956811335 66.0534693878144,145.97381784016034 64.33428571443073,145.10031171928858 62.714285714318976,142.7836119722342 62.846530612325296,140.54285632824758 65.12775510211941,139.47944230568828 65.95428571430966,138.18814989970997 68.23551020410378,137.20068807801 68.6653061225079,136.21322372282157 69.78938775509596,135.56757258228026 70.11999999999534,134.42818557462306 70.97959183680359,133.78253143964685 71.93836734688375,134.01040949337767 72.13673469389323,133.2887951938901" stroke="#4dd2ff" stroke-linecap="round" stroke-linejoin="round" stroke-width="0.5"><title>2021-04-26 2.2km</title></polyline><polyline fill="none" points="102.08255630172789,142.17628727047122 102.71363396907691,141.30627591727534 103.44568406278268,132.17100115766516 105.91950851830188,123.122448979615 103.6476289164275,132.0259945061407 101.85536834143568,132.8670320887759 99.2553283526795,132.69302451057592 96.55431593710091,133.0990420326707 95.14070196263492,133.96907769041718 94.1562208016403,135.36112938344013 94.08049148169812,143.8873020829633 95.21643128269352,145.97530666025705 95.9737244831631,146.2653061224555 96.4785866169259,146.0043066193466 99.20484213938471,143.71330103176297 100.1388370867353,144.35130438255146 101.0475889275549,143.68430084650754 101.22429067431949,142.93029502604622" stroke="#4dd2ff" stroke-linecap="round" stroke-linejoin="round" stroke-width="0.5"><title>2021-04-25 2.2km</title></polyline><polyline fill="none" points="126.60853325680364,146.2653061224555 125.92608118499629,141.182696661097 126.30260646599345,138.28989277797518 125.92608118499629,132.9097370125819 126.27907363593113,123.5280065353436 125.99667967518326,123.1224489795859 125.40835892350879,123.5280065353436 124.82003817183431,133.09899051635875 125.05536647257395,142.50742842705222 125.99667967518326,142.7777810615662 126.06727816525381,142.5344637025555 126.18494231579825,137.91139281334472 125.87901552475523,141.50712135943468" stroke="#4dd2ff" stroke-linecap="round" stroke-linejoin="round" stroke-width="0.5"><title>2021-04-18 2.2km</title></polyline><polyline fill="none" points="163.0,137.9881322129513 158.8555055259494,137.56921300149406 146.3225542367436,133.79891964659328 140.78550961927976,133.26574387782603 139.8571428571595,132.65639924042625 146.45517805975396,132.58023109324859 147.9140401147306,131.3996228891192 150.76545231265482,132.6944833084999" stroke="#4dd2ff" stroke-linecap="round" stroke-linejoin="round" stroke-width="0.5"><title>2021-04-16 1.0km</title></polyline><polyline fill="none" points="188.71428571426077,136.54997365156305 188.03646144643426,136.73071353785053 187.75806933647254,136.1606869554671 187.27390914520947,135.9660432042583 186.6566049013054,136.11897760280408 186.43873281526612,135.9382369320956 186.13613269571215,135.52114219214127 186.66870890610153,134.5757228788716 186.48714883433422,133.88055757348775 186.12402869097423,133.72762074624188 183.30379557679407,133.9222675885394 180.89509862521663,133.71371739005554 179.72101016138913,133.99178425277933 179.22474596532993,133.7971375064517 178.42588164971676,133.88055757348775 178.23221757321153,133.71371739005554 176.65869695151923,133.89446091318678 176.1019127315958,133.6998140325013 175.46040047815768,133.88055757348775 174.81888822471956,133.61639385847957 173.46323968918296,133.8666542324354 172.34967124921968,133.42174659379816 171.42976688581984,133.53297363512684 170.9092946802266,132.89341694896575 169.9651823071763,132.94903068902204 169.1057979676989,132.68486522817693 168.75478182907682,132.85170662947348 168.27062163775554,132.37898881285219 167.55648535565706,132.62925138385617 166.51554094435414,132.28166435968888 165.9103407053044,132.6014444534958 166.33398087270325,132.29556785710156 166.43081291089766,132.76828595349798 165.57142857142026,132.72657559701474 166.29766885831486,132.46240971924271 165.9466527196928,132.54583057624404 166.32187686790712,132.5180236294109 166.01927674835315,132.6431548469991 166.21294082485838,132.85170662947348 166.00717274355702,132.68486522817693 166.29766885831486,132.58754098620557 166.21294082485838,132.43460275592224 165.97086072922684,132.5180236294109 166.05558876268333,132.72657559701474 166.43081291089766,132.57363751757657 166.24925283918856,132.50412015389884 166.2250448296545,132.69876868581923 166.32187686790712,132.4485062383028 166.18873281532433,132.69876868581923 166.2734608487226,132.50412015389884 166.33398087270325,132.6570583087596 166.15242080099415,132.15653282114363 166.2613568440429,132.5180236294109 166.20083682006225,132.28166435968888 166.2250448296545,132.5180236294109 165.98296473396476,132.33727834116144 166.06769276747946,132.21214685197629 166.15242080099415,132.33727834116144 165.97086072922684,132.4067957871448 166.21294082485838,132.53192710349686 166.01927674835315,132.420699272232 166.24925283918856,132.21214685197629 166.07979677227559,132.50412015389884 165.88613269577036,132.50412015389884 166.07979677227559,132.14262930999394 165.89823670050828,132.2677608609083 166.18873281532433,132.5180236294109 165.98296473396476,132.39289230067516 166.01927674835315,132.5180236294109 166.07979677227559,132.4067957871448 166.1403167961398,132.99074097971607 166.01927674835315,134.29765716816473 167.19336521218065,134.5479163324926 167.29019725043327,134.77036854997277 168.3432456664741,134.67304574802984 168.94844590558205,134.89549776802596 173.77794381353306,135.10404621796624 178.54692169756163,135.7157865577028 180.8345786012942,135.79920548925293 181.85131500300486,136.02165573199454 183.02540346683236,136.61948901991127 184.86521219357383,136.41094281207188 185.05887627013726,136.74461659645021 185.31306037056493,136.63339208943944 187.04393305437407,136.9948714163911 187.34653317392804,137.24512579204747 187.89121338911355,137.1199986597494 188.06066945602652,136.605585948957 188.5448296473478,136.41094281207188" stroke="#4dd2ff" stroke-linecap="round" stroke-linejoin="round" stroke-width="0.5"><title>2021-04-09 4.9km</title></polyline><polyline fill="none" points="33.961401952197775,166.54444645610056 26.70230700983666,164.43930550984805 25.87577639776282,163.65503460689797 20.77284826990217,164.0678089496505 17.07142857159488,163.69631205956102 17.754214729415253,164.1090863615682 17.43078970722854,164.27419596828986 11.285714285681024,162.87076223426266 16.388642413541675,164.39802813058486 23.719609583029523,165.01718839272507 33.88952972507104,167.74148266366683 32.523957409197465,167.2048806491366 34.42857142863795,166.9572179489478 33.925465838517994,166.33806055696914" stroke="#4dd2ff" stroke-linecap="round" stroke-linejoin="round" stroke-width="0.5"><title>2021-04-09 1.4km</title></polyline><polyline fill="none" points="37.92045454552863,164.02232597852708 39.038149350788444,164.96630451653618 47.125000000116415,168.06253778442624 50.70819805201609,167.91150259616552 53.83116883132607,168.55340173462173 59.61688311712351,167.91150259616552 60.14285714284051,167.26960238156607 57.80884740280453,166.66546001998358 55.0146103897132,167.2318435118941 52.121753246872686,166.13683467151714 49.721996753360145,166.3256295226456 45.64569805201609,164.24888103984995 45.11972402606625,163.26714147208259 42.78571428579744,162.3609180979838 41.010551948216744,162.05884316333686 37.0,163.04058582964353" stroke="#4dd2ff" stroke-linecap="round" stroke-linejoin="round" stroke-width="0.5"><title>2021-04-08 1.4km</title></polyline><polyline fill="none" points="85.70686456409749,166.27276598566095 85.85714285715949,167.06678882639972 83.90352504642215,167.10131151782116 78.73395176255144,165.34064991763444 70.91948051948566,164.960898215184 66.80185528751463,163.51093338013743 62.714285714318976,164.13234761639615 66.59146567713469,163.68354855643702 70.70909090910573,164.92637531278888 78.3732838591095,165.2716041842068" stroke="#4dd2ff" stroke-linecap="round" stroke-linejoin="round" stroke-width="0.5"><title>2021-04-06 1.3km</title></polyline><polyline fill="none" points="95.49615055602044,161.8310689163045 98.40633019665256,160.92219295614632 99.6073567152489,161.88453215907793 99.6073567152489,162.90033273992594 98.82207014551386,163.32803766039433 100.20786997419782,164.82500214187894 101.63986313063651,164.9853909407393 103.48759623593651,164.12998344836524 105.56629597931169,161.51028934505302 107.41402908461168,162.20531150198076 108.93840889655985,161.29643618880073 111.52523524360731,161.61721589043736 111.52523524360731,158.35594646906247 111.24807527801022,160.33409590931842 109.72369546629488,160.0667788524297 111.57142857136205,160.3875593044795 111.47904191608541,161.77760566794313 107.50641573988833,162.151848291629 105.56629597931169,161.45682606421178 102.42514970060438,165.41309416492004 103.16424294258468,164.77153919811826 99.69974337029271,164.71807624894427 99.00684345583431,163.54188999021426 100.02309666387737,163.54188999021426 99.93071000860073,163.00725900259567 98.72968349000439,160.86872961535119 98.22155688609928,161.61721589043736 97.20530367828906,161.51028934505302 95.91189050441608,164.2903724592761 91.61591103486717,166.53581347275758 90.23011120595038,169.10202003002632 90.0453378953971,167.12390358187258 89.67579127429053,169.63664481957676 89.3524379809387,168.46046956512146 89.67579127429053,169.26240752404556 89.39863130846061,168.56739469699096 91.29255774151534,169.52971990517108 92.81693755323067,171.82860077207442 94.80325064132921,171.66821406118106 95.35757057298906,170.54550571378786 94.15654405462556,170.0108818486915 95.21899059019051,170.0108818486915 94.7108639862854,170.65243042173097 94.24893070966937,170.22473146003904 94.80325064132921,170.86627977201715 94.94183062436059,170.3316562330583 95.17279726243578,171.56128955993336 94.38751069270074,172.25629842892522 91.84687767294236,172.04244964406826 89.49101796373725,169.26240752404556 89.90675791236572,166.85658997751307 90.18391787819564,168.78124489536276 88.42857142863795,169.7970321503235 88.93669803254306,168.94163248722907 88.6133447389584,170.0108818486915 89.90675791236572,169.10202003002632 90.09153122315183,166.74966449767817" stroke="#4dd2ff" stroke-linecap="round" stroke-linejoin="round" stroke-width="0.5"><title>2021-04-05 1.9km</title></polyline><polyline fill="none" points="132.34325258701574,171.39476034100517 131.4357154556783,171.8516646852804 131.79083868092857,171.30337936039723 132.42216885939706,171.30337936039723 132.56027233577333,170.91500977730902 131.85002588527277,175.1413484779623 130.33088764350396,176.23789901623968 130.25197137112264,176.8775510204141 130.19278416701127,176.23789901623968 131.90921308950055,175.20988304371713 132.48135606362484,172.9710763936455 132.87593742506579,169.40721560835664 131.88948402134702,168.6990057561925 129.75874466937967,168.31063166164677 128.49608431267552,169.29298836419184 125.85238919081166,170.04688710032497 121.03849658067338,172.94823131257726 120.17041758541018,171.55467696741107 119.1642351137707,171.98873580696818 118.69073747983202,171.80597429274349 115.9286679495126,159.94900268601486 115.77083540498279,157.77858352512703 117.17159923817962,164.12985615842626 117.60563873581123,164.3126239303674 122.67600923078135,162.0051698754687 126.58236470946576,160.7486255007534 129.02876915060915,159.37784178629227 132.4616269954713,156.6134024644416 134.49372100713663,153.73469387755904 135.65773602342233,154.3287161370681 135.51963254692964,154.5114919001935 135.0461349132238,154.35156311560422 135.32234186620917,154.12309322541114 135.32234186620917,154.4886449379701 135.44071627466474,153.87177607719786 134.769927960122,154.07739921934262" stroke="#4dd2ff" stroke-linecap="round" stroke-linejoin="round" stroke-width="0.5"><title>2021-04-05 3.7km</title></polyline><polyline fill="none" points="145.6969292392023,156.9150337346946 149.37383177597076,159.83732816250995 152.40186915919185,168.27017648128094 152.47396528720856,172.52831442392198 154.13217623531818,172.19434362085303 155.79038718296215,173.6972111632349 159.539385848213,170.94195189577295 163.0,171.8603726812289 155.93457943946123,170.19051594124176 155.93457943946123,172.94577773666242 156.2950600804761,169.10510723444168 156.15086782397702,173.1127630022238 156.36715620849282,171.7768799252226 153.48331108130515,172.36132903950056 155.42990654241294,171.10893756971927 156.43925233650953,172.94577773666242 154.63684913236648,171.7768799252226 155.93457943946123,171.44290881545749 155.64619492692873,173.02927037357586 156.43925233650953,173.02927037357586 155.50200267042965,171.35941601661034 157.1602136180736,173.4467334310757 155.50200267042965,171.9438654287951 155.64619492692873,170.60798044555122 156.87182910600677,172.52831442392198 155.71829105494544,170.69147332076682 153.7716955943033,170.60798044555122 152.90654205624014,172.77879243716598 153.12283044075593,171.69338716065977 149.44592790398747,168.9381211520522 150.8878504675813,163.59454853407806 149.44592790398747,164.1790034872829 149.51802403246984,162.0081687020138 145.2643524701707,159.67034019046696 139.8571428572759,160.17130400479073 142.885180240497,161.25672455102904 143.89452603505924,164.0955099479179" stroke="#4dd2ff" stroke-linecap="round" stroke-linejoin="round" stroke-width="0.5"><title>2021-04-04 1.4km</title></polyline><polyline fill="none" points="179.85794094158337,154.94646080047823 172.68236233014613,158.21406625659438 165.76536312839016,166.23449222085765 172.29449321632273,173.43795008346206 176.1085395051632,169.13073614489986 180.56903431774117,167.27417080948362 180.6983240225818,164.82349755323958 184.83559457282536,161.77871057210723 178.75897845160216,154.05529321340146 173.65203511575237,157.47142989892745 165.57142857136205,166.68006893474376 172.1652035114821,172.6210665758117 176.0438946527429,168.09106012136908 182.37909018341452,167.05138266133144 184.25379090197384,165.64038952538976 185.22346368711442,161.927237052063 184.964884277666,161.2588676608866 184.18914604955353,162.74413216806715 181.92657621693797,163.85807862493675 181.8619313647505,163.18971094867447 188.71428571431898,158.65964771952713 186.19313647248782,157.32290253945393 183.54269752581604,154.05529321340146 182.05586592154577,156.5060015381314 177.53072625701316,154.5751411007368 168.60973663185723,162.5956058492884 165.83000798057765,166.53154339280445 172.29449321632273,172.6210665758117 176.1085395051632,168.6108983126469 176.69034317624755,169.05647361947922 175.0742218673695,171.28434619586915 183.93056663987227,173.14090163790388 186.774940143805,176.55695168452803 180.76296887453645,165.56612665537978 181.40941739827394,163.56102639756864 184.5770151638426,160.88755107630277 181.0861931364052,158.733911270916 179.1468475656584,155.02072471840074 177.7893056664616,154.5008771388675 176.62569832382724,155.31778031686554 177.20750199537724,155.8376273320173" stroke="#4dd2ff" stroke-linecap="round" stroke-linejoin="round" stroke-width="0.5"><title>2021-04-02 3.1km</title></polyline><polyline fill="none" points="25.483282674802467,204.86207925653434 22.775075987912714,203.91942942142487 17.66641337389592,203.82516423334891 12.126899696071632,203.09460776486958 11.655015197582543,202.64684624462097 11.285714285681024,200.40802605591307 11.819148936192505,199.9838261824334 12.927051671780646,199.93669281658367 11.921732522896491,196.80230312292406 12.167933130753227,192.56020646888646 13.706686930148862,190.36842701672867 14.322188449907117,188.88366176889394 17.256079027312808,186.85682446944702 18.446048632264137,188.15305960833211 19.553951367852278,188.38873796873668 20.128419452928938,189.0722038991662 22.54939209728036,189.0722038991662 26.28343465051148,189.66139709725394 28.08890577510465,190.60410319159564 31.084346504532732,193.26722780901764 33.91565349535085,198.16918488770898 33.99772036471404,198.80548924850882 33.34118541027419,199.37109170207987 33.07446808507666,200.26662618173577 33.64893617015332,200.24305952791474 34.42857142863795,202.2462168046186 33.91565349535085,203.30670503427973 32.13069908809848,203.63663374568569 31.699848024290986,204.17865849683585 30.694528875290416,203.68376638149493 30.263677811599337,203.87229683203623 29.196808510576375,203.54236844605475 28.68389057740569,204.9799102244142 28.519756838912144,204.81494685310463" stroke="#4dd2ff" stroke-linecap="round" stroke-linejoin="round" stroke-width="0.5"><title>2021-04-02 3.2km</title></polyline><polyline fill="none" points="39.4247821145691,193.9617127176607 47.25161045859568,197.45196500775637 51.48730579763651,197.41671010441496 54.065555134555325,198.01604298700113 57.533914361614734,197.16992568437126 60.14285714284051,197.20518061183975 54.249715801444836,197.98078813948086 51.671466464642435,197.3814551977557 47.49715801444836,197.5929845860519 42.09511178487446,196.04176616520272 37.0,193.82069170687464" stroke="#4dd2ff" stroke-linecap="round" stroke-linejoin="round" stroke-width="0.5"><title>2021-04-01 1.4km</title></polyline><polyline fill="none" points="62.714285714318976,193.00344771050732 65.32779985968955,195.65733932115836 68.39583820430562,196.30993317306275 71.9941547815688,198.18069686440867 76.91816693963483,198.0936847756093 79.64531213464215,198.83328698333935 85.8571428572759,198.0936847756093 81.50128594809212,198.7462750232662 76.23638064065017,197.9631666102796 71.5396305823233,198.18069686440867 64.49450549460016,196.26642694624024 63.77484217914753,195.874870712345 64.60813654446974,195.52682043486857" stroke="#4dd2ff" stroke-linecap="round" stroke-linejoin="round" stroke-width="0.5"><title>2021-03-29 1.2km</title></polyline><polyline fill="none" points="99.57797257229686,207.4897959183436 98.49945803452283,201.40816311881645 97.74918705131859,201.19288284343202 94.09161601029336,195.9184896509978 91.65323531604372,195.70320721669123 99.24972901702859,184.34693877550308 101.78189358417876,185.9077668871032 106.75243884534575,190.9669722415274 106.23662754474208,194.57297304767417 108.34676468395628,206.95160105044488 101.64121777494438,202.4845632253564 99.2028370804619,202.00018343928969 98.96837739855982,203.02276248502312" stroke="#4dd2ff" stroke-linecap="round" stroke-linejoin="round" stroke-width="0.5"><title>2021-03-28 1.4km</title></polyline><polyline fill="none" points="125.42945054965094,191.7264467086061 126.74681318691,192.50349512617686 127.06725274748169,191.84913866082206 128.34901098930277,191.76734402999864 128.63384615420364,191.11298640278983 129.0254945056513,191.56285738249426 129.63076923089102,191.11298640278983 131.51780219795182,192.1763170226768 132.62153846165165,191.3583706340578 135.86153846164234,192.33990610661567 135.64791208831593,191.52196004078723 137.17890109913424,191.6855493831972 136.0395604397636,191.27657590643503 136.32439560466446,190.62221750462777 136.39560439577326,191.52196004078723 136.21758241788484,191.11298640278983 135.82593406620435,191.64465205359738 135.89714285731316,190.99029423264437 136.39560439577326,191.6855493831972 135.86153846164234,191.52196004078723 136.92967032990418,191.39926799177192 136.92967032990418,191.80824134734576 136.46681318688206,191.2356785365264 135.71912087942474,191.64465205359738 137.21450549457222,191.39926799177192 136.75164835178293,191.0311916267674 136.6092307693325,192.2581115727662 135.9683516486548,191.7264467086061 135.89714285731316,192.1763170226768 136.78725274722092,191.60375472009764 136.39560439577326,191.64465205359738 137.28571428591385,192.7488785344758 137.17890109913424,191.56285738249426 136.64483516500331,191.64465205359738 136.92967032990418,192.21721429965692 136.1463736265432,192.46259787742747 136.0395604397636,192.01272787404014 135.6123076924123,192.62618684847257 134.11692307703197,192.42170062460355 134.11692307703197,191.60375472009764 134.47296703304164,198.63803676576936 130.4496703299228,199.53776190747158 127.17406593426131,198.47445016671554 127.42329670349136,199.00610637801583 126.42637362657115,198.47445016671554 120.65846153860912,198.1881734628696 117.77450549486093,199.04700298135867 117.52527472539805,200.51927801722195 116.84879120904952,201.05093160647084 114.53450549463741,201.214517189248 114.14285714295693,200.56017447132035" stroke="#4dd2ff" stroke-linecap="round" stroke-linejoin="round" stroke-width="0.5"><title>2021-03-26 1.5km</title></polyline><polyline fill="none" points="142.303135888651,194.45186585688498 149.64111498265993,197.4466199647577 152.22150323551614,197.26137827392085 154.47934295679443,197.7553558726504 157.73170731705613,197.10701011450146 159.02190144348424,197.26137827392085 163.0,195.8411883355293 159.47884519665968,197.26137827392085 154.93628670985345,197.63186154601863 152.54405176709406,197.13788375246804 149.8830263814889,197.3539991330763 144.15778994525317,195.96468336856924 139.8571428571595,194.08137882125448" stroke="#4dd2ff" stroke-linecap="round" stroke-linejoin="round" stroke-width="0.5"><title>2021-03-26 1.6km</title></polyline><polyline fill="none" points="188.71428571431898,197.97186359687475 186.94615571177565,197.74620562544442 184.3136065970175,196.07633317733416 182.0739752606023,196.12146494534682 178.85204947832972,194.85777376126498 170.99369391193613,195.0834331572696 172.17244724696502,195.67014706591726 171.70094591309316,195.80554247638793 165.57142857136205,193.86487109700101 170.52219257806428,195.76041067726328 177.55542080989107,196.21172846783884 183.56706281821243,197.65594240563223" stroke="#4dd2ff" stroke-linecap="round" stroke-linejoin="round" stroke-width="0.5"><title>2021-03-24 1.1km</title></polyline><polyline fill="none" points="34.428571428521536,228.22814304573694 32.76203416136559,228.1197905021254 31.126940993824974,226.89179276750656 28.517080745310523,226.4583808190655 26.378881987533532,225.48320205981145 19.838509316788986,225.62767315091332 20.40450310567394,226.24167465249775 15.279114906908944,224.833081444056 11.285714285681024,225.33873091160785 12.857919254573062,225.55543761243462 15.404891304322518,224.86919928638963 20.121506211231463,226.31391005570185 28.705745341605507,226.67508685740177" stroke="#4dd2ff" stroke-linecap="round" stroke-linejoin="round" stroke-width="0.5"><title>2021-03-23 1.3km</title></polyline><polyline fill="none" points="59.681231002905406,227.67946507094894 51.895136778010055,224.95757776647224 48.72530395130161,225.48781717414386 45.58624620048795,225.13432432280388 46.447948328219354,225.6999127176532 46.10942249232903,225.8059604424052 41.154635258135386,224.32128944149008 37.0,224.92222844460048 40.846884498372674,224.39198820007732 45.49392097257078,225.73526196266175 51.64893617015332,226.1594526313129 60.14285714284051,228.73993504830287 58.757978723268025,228.068304426939 60.14285714284051,227.67946507094894" stroke="#4dd2ff" stroke-linecap="round" stroke-linejoin="round" stroke-width="0.5"><title>2021-03-22 1.6km</title></polyline><polyline fill="none" points="82.42201333469711,215.1022947006859 82.74073669244535,215.3257940242038 82.56366816046648,216.03692662902176 84.17499180242885,216.28074295930855 84.59995627927128,216.6261489353783 84.45830145361833,217.25600540703454 85.09574816911481,217.68268128215277 85.85714285715949,219.00333912757924 85.39676467364188,220.22240042516205 84.72390425181948,220.506847027631 84.47600830695592,221.238279352503 81.20024046336766,224.08271381152736 77.58804240892641,225.48459926561918 76.4548038035864,226.21601399264182 75.58716799644753,226.9474261339492 73.05508798768278,230.44191512280668 62.714285714318976,237.9589297891216" stroke="#4dd2ff" stroke-linecap="round" stroke-linejoin="round" stroke-width="0.5"><title>2021-03-21 1.3km</title></polyline><polyline fill="none" points="98.91940776410047,224.52002550964244 98.62565453490242,222.64160241525678 96.6113466777606,220.13701588129334 95.79303411080036,219.89618890348356 93.02336080698296,222.42486036202172 90.27466987690423,225.9167923188652 89.58225155097898,226.1094491847325 88.82688610453624,228.15641902727657 90.10681088885758,229.98663640253653 93.14925504813436,231.43153519793123 96.44348768959753,234.1045755029627 96.25464632792864,234.24906333727995 96.69527617178392,234.20090073530446 96.29661107517313,233.98416890935914 96.80018803931307,234.82701382211235 97.91225383547135,236.1514785408217 102.12971091154031,238.10204081633128 104.3118777568452,237.88531244145997 109.45255926740356,234.2972259297385 110.14497759344522,232.85234403639333 111.17311389558017,228.22866470924055 110.14497759344522,226.44659833547485 106.30520324059762,222.906509108725 102.15069328516256,217.68056959669048 99.06628437864129,214.95918367347622 95.60419274913147,219.77577532573196 96.23366395453922,219.84802347948425 97.09394126851112,220.64275176421506 98.77253114955965,222.78609701084497 98.75154877605382,223.4604039966216" stroke="#4dd2ff" stroke-linecap="round" stroke-linejoin="round" stroke-width="0.5"><title>2021-03-20 3.7km</title></polyline><polyline fill="none" points="135.00562983821146,232.3579159612127 127.10133708664216,229.82622958067805 118.74102744576521,229.56433016291703 114.25686136540025,228.6040309719101 114.14285714295693,227.03262780085788 114.78888106974773,226.3342246003158 114.18085855059326,225.15566670021508 114.33286418020725,223.1040954607015 116.72695285012014,220.70330852858024 120.67909922613762,221.18346695700893 124.70724841672927,222.5366379067127 132.30752990860492,222.3620354361483 136.3736805068329,221.70727555747726 136.86769880377688,221.13981621229323 136.14567206217907,222.79854148367303 135.68965517240576,228.42943089519395 136.06966924737208,231.31032335342024 137.28571428591385,231.52857201790903" stroke="#4dd2ff" stroke-linecap="round" stroke-linejoin="round" stroke-width="0.5"><title>2021-03-19 1.6km</title></polyline><polyline fill="none" points="149.23599602270406,226.29419809002138 154.2654955254402,228.45285518924356 156.21644017251674,228.32950395716762 157.91680477303453,228.69955743437458 159.70666224730667,228.3089454114379 160.65528670873027,228.39117958233692 163.0,227.69218809549056 158.65064633754082,228.67899892505375 156.41332449472975,228.32950395716762 153.90752403065562,228.43229665565013 143.90222074917983,225.24569943296956 139.8571428571595,224.8139631588274 140.73417301964946,224.93731647120148 140.14352005312685,224.69060977337358 140.32250580051914,224.58781522976642 141.68279748095665,224.67005086874997 143.4905535300495,224.36166705541837 144.09910507127643,224.8139631588274 144.45707656617742,224.58781522976642 144.88664236001205,224.99899310008914 145.26251242961735,224.8756398241967 145.74577394779772,225.28681712673279 146.35432548902463,225.06066971064138 147.6072257210035,225.96525790261512 147.8578057673294,225.65687600552337 147.21345707669389,224.69060977337358 146.96287703025155,224.71116867604724 147.05236990388948,225.4101701592881 148.2157772622304,225.98581667956023 148.69903878029436,224.8345220493211 148.96751740155742,225.38961132561963 149.325488896342,225.32793481231784 148.9496188267367,225.43072899099207 149.164401723654,225.36905248985568 148.64534305606503,224.64949196207453 149.41498177009635,224.58781522976642" stroke="#4dd2ff" stroke-linecap="round" stroke-linejoin="round" stroke-width="0.5"><title>2021-03-19 3.1km</title></polyline><polyline fill="none" points="175.31016538990662,238.10204081633128 175.18018725136062,237.69893746021262 174.9332287882571,237.65414813216194 174.56929000036325,237.99753264189349 175.01121567131486,235.47438481576683 174.8422440912109,236.08651330051362 174.92023097432684,237.20625412263325 174.67327251122333,237.40034168948478 173.26950861531077,237.37048208000488 173.1005370352068,236.4746910568938 173.21751735988073,235.68340457673185 176.62294458883116,234.92197405813204 178.91055982658872,234.77267350733746 178.83257294347277,220.33461444692512 179.59944396070205,219.34913310142292 181.18517725053243,217.94555768024293 180.89922534575453,217.22883329438628 178.96255108201876,214.95918367347622" stroke="#4dd2ff" stroke-linecap="round" stroke-linejoin="round" stroke-width="0.5"><title>2021-03-18 2.7km</title></polyline><polyline fill="none" points="19.134638383809943,266.80458071372414 19.78256198676536,266.9169170111127 19.88036177586764,267.4645551914873 20.12486124865245,267.60497489839327 21.44515840173699,267.8717719600245 23.156654711347073,267.717310564185 24.342477154394146,268.0543170298479 25.442724781983998,268.7142857142899 25.723899175645784,267.8296461413847 25.564974518376403,264.08039836384705 26.579647330509033,263.98210215002473 25.12487546732882,263.57487425531144 23.719003498728853,263.50466243161645 23.095529843121767,262.8306271619949 21.86080750549445,250.0654816529859 23.20555460586911,248.4925792178692 24.159102549776435,247.94486803916516 23.474504025944043,246.72304319788236 22.30090655654203,245.5714285714348" stroke="#4dd2ff" stroke-linecap="round" stroke-linejoin="round" stroke-width="0.5"><title>2021-03-17 2.8km</title></polyline><polyline fill="none" points="37.77963525848463,255.89391371404054 38.06686930102296,255.89391371404054 39.50303951394744,256.5066148660262 39.913373860297725,257.02505368881975 44.18085106392391,258.20332164887805 48.69452887540683,258.81601984013105 50.21276595746167,258.72175863123266 51.27963525848463,258.9574116189906 51.8130699088797,259.1459339254652 53.94680851069279,259.4758477830619 55.711246200604364,260.18280528255855 56.285714285681024,260.32419665690395 57.27051671757363,260.84263133845525 58.09118541050702,261.3610654574586 58.41945288772695,261.4553261459805 58.788753799628466,261.64384746726137 59.69148936192505,261.87949901423417 60.14285714295693,261.83236871418194 60.101823708508164,261.83236871418194 60.101823708508164,261.83236871418194 59.97872340446338,261.87949901423417 60.06079027382657,261.83236871418194 60.101823708508164,261.83236871418194 60.14285714295693,261.87949901423417 59.89665653510019,261.83236871418194 59.363221884705126,261.83236871418194 57.55775075987913,261.87949901423417 56.32674772059545,261.50245648334385 55.136778115527704,261.2668047504267 53.94680851069279,261.1725440247974 52.756838905857876,261.2196743898385 52.14133738633245,261.2668047504267 50.95136778126471,261.3610654574586 50.41793313063681,261.3610654574586 48.57142857159488,261.2196743898385 47.99696048651822,261.0782832803379 46.88905775081366,260.79550093601574 46.314589665737,260.51271842437563 45.20668693026528,260.13567481495556 44.63221884518862,259.9471528988797 42.29331306996755,259.4758477830619 40.775075987912714,258.86315043776995 40.65197568410076,258.58036678266944 41.14437689981423,258.4861055270885 41.349544072989374,258.4861055270885 41.51367781171575,258.29758296033833 41.349544072989374,258.2504523069074 40.93920972640626,258.1561909862794 40.73404255323112,258.10906031905324 40.61094224941917,258.06192964711227 40.36474164156243,258.06192964711227 40.200607902836055,257.9676682892605 39.99544072966091,257.9676682892605 39.79027355625294,257.9676682892605 39.50303951394744,257.87340691289864 39.29787234053947,257.7791455179686 39.17477203649469,257.7320148134604 38.764437690144405,257.49636122150696 38.64133738609962,257.4020997521002 38.43617021292448,257.2607075131382 38.3130699088797,257.1664459973981 38.189969605067745,257.02505368881975 38.02583586634137,256.83653054561 37.73860182380304,256.60087651206413 37.4924012159463,256.45948403605144 37.36930091190152,256.36522236216115 37.16413373872638,256.1295680962212 37.08206686936319,255.70539012463996 37.08206686936319,255.32834272275795 37.041033434914425,255.0926879454055 37.0,254.9041640399373 37.12310030404478,254.5271160059492 37.08206686936319,254.00867447335622 37.08206686936319,253.77301904538763 37.041033434914425,253.63162573272712 37.12310030404478,253.49023237838992 37.08206686936319,253.4431012510031 37.12310030404478,253.1131832288229 37.16413373872638,252.87752735917456 37.36930091190152,252.8303961713682 37.77963525848463,252.68900257983478 37.98480243165977,252.59474016228341 38.107902735704556,252.54760894659557 38.35410334356129,252.45334650125005 38.395136778242886,252.45334650125005 38.395136778242886,252.40621527150506 38.43617021292448,252.40621527150506" stroke="#4dd2ff" stroke-linecap="round" stroke-linejoin="round" stroke-width="0.5"><title>2021-03-02 1.4km</title></polyline><polyline fill="none" points="66.96611295687035,257.4828915896942 67.23521594703197,257.60652762424434 70.19534883718006,258.1628894788446 72.07906976761296,258.8428866302129 72.77873754152097,259.15197600075044 74.66245847172104,259.6465186763671 75.36212624562904,259.6465186763671 77.35348837217316,259.52288304426474 77.99933554814197,259.3374295498361 79.99069767422043,259.21379385649925 81.22857142845169,259.6465186763671 81.87441860465333,259.89378986804513 83.0046511630062,260.3265142185264 84.08106312295422,260.51196742011234 85.42657807306387,260.3883319586166 85.64186046482064,260.26469647255726 85.85714285704307,260.3883319586166 85.80332225910388,261.25377967813984 84.83455149503425,261.5010502357036 84.02724252501503,262.1810437658569 83.65049833874218,262.3046788741485 83.27375415270217,262.4283139578183 83.05847176071256,262.4283139578183 82.73554817261174,262.4901314903982 82.52026578085497,262.6137665374554 81.76677740854211,262.9228540487238 81.87441860465333,263.2319414073718 82.25116279069334,263.47921118466184 82.25116279069334,263.5410286138649 82.25116279069334,263.60284603672335 82.30498338863254,263.5410286138649 82.03588039870374,263.47921118466184 81.71295681060292,263.60284603672335 81.60531561472453,263.6646634535282 81.49767441838048,263.72648086445406 81.44385382044129,263.7882982690353 81.44385382044129,263.7882982690353 81.22857142845169,263.47921118466184 81.1209302325733,263.3555763082113 80.95946843829006,263.1701239479007 80.90564784035087,263.0464890105068 80.36744186049327,262.9228540487238 80.15215946827084,262.9228540487238 79.88305647834204,262.9228540487238 79.61395348841324,262.86103655869374 79.29102990031242,262.86103655869374 79.02192691038363,262.86103655869374 78.4837209302932,262.7374015604146 78.21461794013157,262.6755840519909 77.94551495043561,262.6137665374554 77.67641196004115,262.5519490170409 77.13820598018356,262.4283139578183 76.92292358796112,262.3046788741485 76.65382059803233,262.2428613230586 76.38471760810353,262.119226202718 76.11561461770907,261.99559105804656 75.9003322259523,261.8101382954046 75.41594684380107,261.5628678597277 74.93156146164984,261.31559732655296 74.55481727584265,260.9446913438733 74.2857142854482,260.82105596771 74.0166112955194,260.69742056692485 73.74750830582343,260.5737851418671 73.47840531542897,260.4501496924204 73.31694352184422,260.3883319586166 72.88637873763219,260.20287872024346 72.67109634564258,260.1410609620507 72.45581395342015,260.0792431976297 72.24053156143054,259.9556076506851 71.97142857150175,259.89378986804513 71.70232558134012,259.83197207935154 71.1102990033105,259.77015428437153 70.8950166113209,259.70833648351254 70.62591362115927,259.6465186763671 70.30299003305845,259.6465186763671 70.08770764106885,259.58470086334273 69.54950166097842,259.52288304426474 69.28039867104962,259.3992473874241 68.7960132888984,259.028340270801 68.2578073090408,258.8428866302129 68.0425249170512,258.78106873785146 67.7734219271224,258.7192508394364 67.45049833902158,258.6574329348514 67.23521594703197,258.59561502427096 66.96611295687035,258.47197918442544 66.48172757471912,258.22470743209124 66.21262458479032,258.1010715193115 65.99734219256788,257.9774355820846 65.45913621271029,257.6683456324972 65.29767441865988,257.54470960999606 65.08239202643745,257.4210735632223 64.59800664451905,257.1119833391858 64.38272425252944,256.9265291317133 64.11362126236781,256.55562055198243 63.7368770763278,256.1228935983381 63.09102990035899,255.62834814260714 63.09102990035899,255.4428934963653 62.9833887044806,255.13380229682662 62.87574750860222,254.8865292276023 62.714285714318976,254.08289107889868 62.87574750860222,253.77379920892417 62.92956810630858,253.464707186562 62.9833887044806,253.21743345883442 63.03720930265263,253.03197809914127 63.03720930265263,252.72288571088575 63.03720930265263,251.91924478829606 63.03720930265263,251.36287739221007 63.629235880449414,251.11560283537256 64.05980066442862,250.8683281810372 64.43654485070147,250.74469081725692 64.70564784063026,250.68287212622818 64.81328903650865,250.55923472589348 65.56677740858868,250.49741601670394" stroke="#4dd2ff" stroke-linecap="round" stroke-linejoin="round" stroke-width="0.5"><title>2020-12-25 1.0km</title></polyline><polyline fill="none" points="88.77658431814052,254.46970547479577 89.03759398520924,254.71953398990445 89.25510204094462,254.96936238187482 89.73361976374872,255.26915628972347 91.60418904409744,255.76881240849616 92.60472610103898,256.06860584329115 93.25725026871078,256.2185024942446 96.3023630506359,257.4176741045958 97.17239527404308,258.0172588455607 98.17293233098462,258.4669469354558 99.65198711073026,259.0165651703137 100.21750805596821,259.11649569429574 101.26154672424309,259.11649569429574 101.87056928034872,259.11649569429574 102.91460794839077,258.91663462657016 103.87164339446463,258.8167040629196 104.95918367360719,258.8666693471896 105.56820622994564,258.8167040629196 107.2647690656595,259.11649569429574 107.83029001089744,259.31635668332456 108.91783029004,259.5162175935693 109.52685284684412,259.46625237332773 110.61439312598668,259.416287148284 111.09291084879078,259.3663219183218 111.57142857159488,259.56618280886323 111.52792696026154,259.6161480190931 111.39742212719284,259.6661132244044 111.3539205158595,259.7160784249427 111.3539205158595,259.7660436203878 111.31041890452616,259.7160784249427 111.22341568232514,259.81600881091435 111.22341568232514,259.7160784249427 111.26691729365848,259.7660436203878 111.31041890452616,259.81600881091435 111.26691729365848,259.7660436203878 111.3539205158595,259.6661132244044 111.31041890452616,259.6661132244044 111.26691729365848,259.6661132244044 111.26691729365848,259.7160784249427 111.26691729365848,259.6661132244044 111.26691729365848,259.6661132244044 111.26691729365848,259.6661132244044 111.26691729365848,259.7160784249427 111.22341568232514,259.7160784249427 111.22341568232514,259.7160784249427 111.1799140709918,259.7160784249427 111.13641246012412,259.7160784249427 111.22341568232514,259.7160784249427 111.22341568232514,259.7160784249427 111.22341568232514,259.7160784249427 111.1799140709918,259.7160784249427 111.1799140709918,259.7660436203878 111.09291084879078,259.7160784249427 110.09237379184924,259.7160784249427 108.96133190137334,259.7160784249427 107.83029001089744,259.46625237332773 107.30827067699283,259.31635668332456 106.22073039761744,259.0165651703137 105.6552094523795,258.91663462657016 104.48066595057026,258.91663462657016 103.91514500556514,258.8666693471896 102.74060150398873,258.96659990079934 101.52255639107898,259.11649569429574 100.95703544607386,259.11649569429574 99.78249194449745,259.066530434764 99.17346938792616,258.91663462657016 96.43286788417026,258.0172588455607 95.86734693893231,257.81739734398434 94.25778732565232,257.4176741045958 93.8227712137159,257.3677086775424 92.08270676713437,257.0679160114378 91.08216970996,256.61822667971137 90.51664876495488,256.318433570239 89.42910848581232,255.71884681881056 88.42857142863795,255.3690875529137" stroke="#4dd2ff" stroke-linecap="round" stroke-linejoin="round" stroke-width="0.5"><title>2020-12-08 1.1km</title></polyline><polyline fill="none" points="114.14285714295693,254.75732605491066 114.36538461549208,254.79992505762493 115.8489010988269,255.9500965391926 116.3310439561028,256.12049205377116 118.22252747253515,256.6742770120618 119.11263736267574,256.9298698302882 119.55769230774604,257.1002649583097 120.5961538462434,257.48365375094 121.52335164835677,257.9522395907843 122.00549450563267,258.2504303151509 124.37912087910809,259.0598041006888 124.8983516485896,259.1024026789237 126.38186813192442,258.93200834063464 126.82692307699472,258.8894097454613 129.16346153849736,258.93200834063464 129.64560439554043,258.9746069314715 131.0920329671353,259.40059260939597 132.57554945047013,259.52838823079946 133.02060439554043,259.485789694445 133.98489011009224,259.52838823079946 135.46840659342706,259.3153955073212 135.91346153849736,259.2727969500702 136.84065934084356,259.18759982287884 137.28571428568102,259.14500125305494 137.10027472535148,258.8042125427164 136.06181318685412,258.7616139349702 135.61675824178383,258.8042125427164 134.68956043967046,259.0598041006888 134.35576923075132,259.14500125305494 133.39148351643234,259.3579940604395 132.94642857136205,259.40059260939597 132.01923076924868,259.40059260939597 131.5370879122056,259.3153955073212 130.6098901098594,259.14500125305494 130.16483516502194,259.0172055181174 128.71840659342706,258.7616139349702 128.236263736384,258.7616139349702 127.27197802206501,258.8042125427164 126.7527472525835,258.8042125427164 125.78846153849736,258.8894097454613 124.82417582417838,258.93200834063464 123.89697802206501,258.8894097454613 123.00686813192442,258.6764167070214 122.56181318685412,258.54862083363696 121.59752747276798,258.2504303151509 121.15247252746485,258.0800356406835 120.26236263732426,257.78184479873744 119.07554945047013,257.44105501295417 118.74175824178383,257.3984562708938 117.85164835164323,257.18546249720384 116.62774725281633,256.80207344004884 116.29395604413003,256.54648054629797 115.5151098901406,256.12049205377116 115.1071428572759,255.90749764998327" stroke="#4dd2ff" stroke-linecap="round" stroke-linejoin="round" stroke-width="0.5"><title>2020-12-03 1.3km</title></polyline><polyline fill="none" points="162.75553319905885,257.75124980477267 162.95925553282723,258.50003445113543 162.99999999976717,258.7340294107853 162.30734406411648,259.15522004745435 161.1257545268163,259.108421106328 159.4959758548066,258.8276273623633 157.94768611644395,258.17244131377083 157.41800804808736,258.07884323288454 154.40291750477627,256.90886566552217 153.30281690112315,256.72166898686555 151.6322937621735,256.7684681635292 150.49144869181328,256.72166898686555 149.67655935580842,256.72166898686555 149.18762575415894,256.72166898686555 148.08752515073866,256.6280706200632 147.72082494944334,256.581271429779 146.45774647849612,256.4876730349497 145.96881287684664,256.44087383081205 144.2575452714227,256.30047619043035 143.7278672028333,256.20687774042017 142.66851106635295,256.11327927189996 141.28319919505157,255.50488877680618 140.75352112646215,255.3176915445365 139.85714285704307,255.13049423822667 140.8757545268163,255.36449085953063 141.7721327964682,255.7856844868511 142.66851106635295,256.20687774042017 143.1981891344767,256.25367696766625 144.54275653907098,256.3940746219014 144.9502012070734,256.44087383081205 146.00955734378658,256.53447223463445 146.53923541214317,256.581271429779 147.6393360157963,256.581271429779 148.12826961744577,256.6280706200632 149.22837022109888,256.72166898686555 149.71730382274836,256.72166898686555 151.22484909417108,256.7684681635292 151.71378269605339,256.7684681635292 152.4471830984112,256.67486980577814 152.6916498991195,256.67486980577814 152.8546277664136,256.67486980577814 153.0176056334749,256.67486980577814 153.180583500769,256.67486980577814 153.3843058347702,256.6280706200632 153.58802816877142,256.6280706200632 153.99547283677384,256.67486980577814 154.15845070406795,256.67486980577814 154.52515090536326,256.8152673353907 154.89185110642575,257.002463976969 154.85110663971864,257.09606227008044 154.85110663971864,257.1428614096367 154.8103621727787,257.1428614096367" stroke="#4dd2ff" stroke-linecap="round" stroke-linejoin="round" stroke-width="0.5"><title>2020-11-30 1.0km</title></polyline></svg>